<?xml version="1.0" encoding="UTF-8"?>
<svg id="Layer_1" data-name="Layer 1" xmlns="http://www.w3.org/2000/svg" viewBox="0 0 169.3 500">
  <defs>
    <style>
      .cls-1 {
        fill: #488cca;
        stroke-width: 0px;
      }
    </style>
  </defs>
  <path class="cls-1" d="M33.9,228.27c-1.19-5.63,1.27-9.79-4.55-12.97,1.6-1.72,5.78,2.85,5.01-2.97-2.18.72-2.09.87-4.59-.01,1.18-2.43,2.27-2.49,4.88-3.43-1.27-.4-2.06-.65-3.15-1,.76-1.06,1.46-2.02,2.29-3.18-7.09-1.57-6.97-2.51-2.88-7.75,1.4,2.26,10.16-3.15,8.86-6.73,1.42.34,4.47.31,4.92,2.27.25,1.09-1.63,2.2-1.82,3.22,4.07-.39,9.33-4.12,9.98-6.96,6.33,2.82,6.11-.72,6.11-6.46-3.17-.15-4.4,2.9-6.78,3.73.29,1.14.5,1.95.71,2.76-1.65-1.69-3.19-4.17-5.65-4.53-1.55-.23-5.63,1.49-7.4,1.79-1.3-1.54-.76-3.07,2.64-6.12-.51-2.42-1.54-2.22,2.67-8.05,2.02.46,2.94.56,4.6,1.89-1.53,1.29-2.18,1.39-4.03,1.88,2.85,1.06,5.48-.16,8.43.16-1.17,1.55-2.11,2.8-3.05,4.04.13.16.26.32.39.48.97-.67,1.95-1.34,3.01-2.06,3.33,3.92,4.13,1.01,5.78-2.4,1.59-3.3,2.29-5.38,6.39-5.43-1.19,1.67-2.41,3.23-3.74,4.78.14.22.29.44.43.66.98-.74,2.06-1.26,3.24-1.58.99-.18,1.84.14,2.56.95,2-.33,3.4-1.53,5.14-2.56-1.24-2.43-1.33-2.75-3.43-3.6-.99.65-2.01.73-3.06.22-.41-.45-.81-.9-1.22-1.35-.45-1.05-1.15-1.36-2.1-.94-.66.82-1.21,1.7-1.65,2.65-1.7.57-1.98-.48-3.77-.62-3.69-.29-5.14,1.22-6.37-2.07-.45-1.2.86-2.3-.09-3.52-.55-.71-5.12-1.37-6.03-1.67,2.1-1.56,3.32-2.77,4.8-4.93-1.45-.36-2.38-.59-3.32-.83-.05-.26-.11-.52-.16-.78,3.58-.82,4.72,1.24,8.06,1.8-2.57-3.97,1.75-8.26,4.84-9.77-1.98-.34-3.21-.55-4.45-.76-.07-.32-.14-.64-.21-.96,5.16-1.71,10.88-.6,16.3-1.13,2.74-.27,5.49-.86,8.24-1.06,2.62-.19,5.3.99,7.69.71,4.25-.5,6.77-1.56,11.62-.9,5.17.71,10.56,2.37,15.39,4.29-2.38.46-4.09.79-5.5,1.07-.84-.97-1.58-1.83-2.31-2.68-.64.56-1.29,1.11-2.13,1.85-5.16-1.74-.89,4.12-2.49,5.96-.98,1.12-2.19.09-3.28,1-.9.75-2,3.56-2.64,4.58,2.62-1.27,4.61-2.22,6.76-3.26.2.47.5,1.17,1.02,2.38,3.93-2.33,15.39-10.74,18.25-2.66,2.27,6.41-10.74-.06-9.13,5.41,2.64-.83,5.5-.72,8.18.01,3.98-2.46,4.9-2.53,9.55-1.47.11-.21.45-.84.86-1.59-1.75-.93-1.94-1.64-2.86-3.33,2.67-.51,5.28-1.14,7.92-1.78-.03-.29-.07-.58-.1-.87-2.07.23-4.13.45-6.85.75,3.81-4.35,10.39-2.3,15.33-1.57,4.71.7,11.6,1.58,15.43,4.56,3.94,3.07,5.31,9.54,4.89,14.1-.23,2.5-1.13,5.55-.23,7.9.82,2.15,3.43,3.2,3.26,5.92-.3,4.84-9.34,5.9-13.06,7.13-2.68.89-4.5,1.1-5.59,3.23-.53,1.03-1.07,4.79-1.29,5.98-1.09,5.88,1.51,12.46,2.1,18.34.59,5.9,1.2,11.45,2.18,17.32,2.96,3.44,4.49,6.82,9.38,4.69,2.85,6.14,2.12,15.74,2.66,22.48.65,8.12,1.4,16.24,1.94,24.37,1.11,16.65.06,33.28-1.77,49.85-3.74,33.73-11.82,66.8-16.91,100.31-1.03,6.8-2.7,14.16-.35,20.79.89,2.51,1.67,4.94,2.42,7.48.61,2.08,1.97,4.11,2.32,6.08.8,4.47-1.9,11.12-5.49,13.72-5.17,3.73-13.16,4.77-19.04,7.1-2.88,1.14-5.35,2.94-8.35,3.61-3.75.84-7.69.28-11.46.2-7.26-.14-14.78,2.05-21.96,3.18-7.05,1.11-14.57-.14-21.15-3.02-6.6-2.89-13.74-4.49-20.45-7.48-7.63-3.4-13.3-6.76-19.22-12.61-4.41-4.36-11.08-10.13-12.9-16.32-1.12-3.8.67-8.24.38-12.28-.31-4.47-.89-8.75-.83-13.26.06-4.62-.27-9.34.03-13.95.26-4.02,1.56-7.81,1.39-11.89,4.23-6.64,5.68-16.87,4.8-24.57,2.57-2.34,1.7-6.23,2.65-9.3,1.45-4.7,2.59-9.12,3.45-14.02-1.5.52-2.48.86-3.46,1.21-.09-.13-.17-.27-.26-.4,4.53-3.32,3.65-4.11,5.36-8.98,1.57-4.48,4.73-4.76,8.93-3.78q.01-4.45-4.45-5.15c-.71,1.14-1.4,2.26-2.09,3.38-.25-.12-.49-.25-.74-.37.22-3.48-1.42-5.29,2.76-5.71,2.93-.29,3.78,1.71,6.15-1.35-.83-3.73-4.63-2.72-7.7-2.72,1.96-3.05,5-.94,7.49-1.89-1.21-.78-2.18-1.41-3.49-2.26-.49.22-1.53.7-2.39,1.09,0-3.72-.09-5.53,1.87-8.67-1.1-1.1-.51-2.36,1.33-3.28-2.11-.98-2.77-3.19-1.69-5.07,3.12,1.97,10.12-3.81,10.38-.5,1.03-.44,2-.86,3.1-1.33-3.49-2.75-3.15-1.4-6.66-.29-2.48.78-5.51,1.49-7-1.52.63-.35,1.27-.71,1.6-.9.27-1.6.49-2.95.72-4.29l-.03-.04c.35,1.91,1.44,3.68,2.25,5.43,2.63-.47,3.38-4.51,6.7-5.06-2.43-1.72-2.42-3.26-.23-6.82-.91-.63-1.83-1.25-3.03-2.08,1.96-1.32,3.6-2.41,5.65-3.79-2.9-1.32-3.94,1.41-5.79,1.8-1.95-1.78-.56-4.8,1.69-5.5,1.65-.51,4.16,1.25,5.68,1.83.1,1.49.03,8.43,3.52,5.88,2.83-2.07-.46-5.96-.54-8.25-1.08-.41-2.22-.85-3.43-1.31.2-1.3.16-2.17,1.03-3.22.81-.97,2.87-.32,3.41-1.71,1.99-5.09-5.67-2.59-7.13-1.89.13.52.28,1.11.49,1.92-1.33.29-2.55.56-4.02.89.91.35,1.66.64,2.68,1.03-3.42.87-5.12,3.06-4.03,5.5-1.41-.18-2.56-.33-4.02-.52,1.21-2.33,2.19-4.2,3.23-6.19h-2.73c-1.02-4.4-.68-7.04.15-11.29.58-2.96.58-4.34-1.2-7.07,5.22-1.83,10.32-3.62,15.41-5.4-.1-.42-.2-.84-.31-1.26-3.18.52-6.36,1.04-9.96,1.63,2.19-3.32,4.95-5.18,8.65-6.48-3.37-3.11-10.59-.19-14.37.6-2.08-5.31,2.18-6.15,6.45-8.19-1.87-1.24-3.09-2.04-4.31-2.84-.14.12-.27.25-.41.37.3.56.6,1.13,1.28,2.41-1.89-.17-3.33-.3-4.76-.43,1.49-2.76,2.76-5.12,3.97-7.36-.99-1.49-3.09.14-4.18-1.32-1.29-1.74.53-4.86,1.99-5.72-.13,1.06-.2,1.69-.37,3.1,2.47-1.62,4.42-2.91,6.62-4.35-1.77-2.92-5.51-2.06-7.88-.82-1.19-1.15-1.29-2.36.81-3.33,1.67,1.87,3.77,1.51,6.94-1.29-1.17-1.5-2.19-3.18-4.95-2.79.81.99,1.32,1.61,2.05,2.5-1.53.61-2.8,1.11-4.07,1.62ZM152.26,285.09c-2.04.6-4.09,1.2-6.29,1.85-.83-.46-1.98-1.1-3.12-1.74,2.87,5.45,6.41,3.73,9.37-.15.79-.47,1.58-.95,2.1-1.26-.96-1.14-1.69-2-2.69-3.18.25,1.73.44,3.1.63,4.47ZM141.67,217.19c-1.45,4.45-2.98,9.12-4.5,13.8,3.17,1.41,5.19-1.46,7.41-2.27-1.27,4.12-1.28,6.39-.73,10.64-1.63-.13-2.68-.21-3.81-.3,1.16,4.78,8.77.02,7.27-4.79,1.07-2.55,1.92-4.58,2.63-6.28-1.2-1.77-2.3-3.38-3.4-4.99,4.92-3.68-1.06-6.49-4.87-5.82ZM49.87,212.57c-2.12-4.24,3.13-3.73,4.12-6.39-1.21.32-1.95.52-2.71.72-.41-1.6-.76-2.97-1.2-4.69-1.08.91-1.69,1.42-2.31,1.94-.04-.21-.08-.43-.12-.64-2.97,0-5.9.37-3.65,4.06,1.29-.58,2.47-1.12,3.84-1.74v3.09c-3.62-1.36-4.53,1.84-6.75,3.52,6.86-1.06,6.98-1.06,8.78.14ZM136.49,217.7c-.13-.22-.26-.44-.38-.66-3.91,1.38-5.13,1.91-4.29,6.37.72,3.84,1.89,4.87,5.39,4.26-.63-2.61.67-6.95-2.94-7.05.86-1.13,1.54-2.03,2.23-2.93ZM99.43,195.18c-2.09-.12-4.9-.1-3.47-3.12.53-1.13,3.46-1.88,4.68-2.63-2.29-.51-3.97-.88-6.05-1.34,1.24,3.16-.81,2.86-2.84,2.73.41,1.7.76,3.13,1.08,4.45,2.5.9,4.29,1.74,6.95,1.64-.14-.71-.29-1.43-.35-1.73ZM125.01,216.98c-1.25.93-2.24,1.66-3.23,2.4,4.63,4.95,5.81,2.32,7.65-2.93-1.55-.23-2.94-.44-4.42-.66v1.19ZM97.06,145.87c-2.36,2.35-4.94,7.55,1.24,6.83-2.44-3.67,5.58-3.33,1.99-8.02-1.47,1.81-1.23,1.63-1.23,3.72-.91-1.15-1.35-1.71-2-2.54ZM143.42,256.22c3.31-.75,5.89-1.33,8.84-2-1.55-2.1-2.69-3.64-4.27-5.79-1.64,2.8-2.96,5.06-4.56,7.78ZM83.04,152.43c3.23,1.27,2.81-.34,4.58-2.11,2.07-2.06,4.94-2.66,6.99-4.71-.15-.16-.29-.33-.44-.49-4.28,1.62-9.86,1.11-11.14,7.32ZM38.04,207.09l-.6-.74c6.06-4.65-.41-1.99-2.94-.28,2.65,3.66.77,5.84,5.82,5.05.13-.26.26-.51.4-.77-3.74-.67-1.22-2.32-.95-3.81-.71.22-1.22.38-1.72.54ZM75.57,174.66c1.08.96,5.28,2.21,6.41.8,1.55-1.93-1.75-5.13-2.69-6.51-2.17,1.8-.76,3.56-3.72,5.71ZM120.96,163.17c-.02.23-.05.46-.07.69,3.17,2.24,8.38,1.66,10.87-1.04-3.28-1.87-7.17-.28-10.8.35ZM137.63,213.4c.03.31.07.61.1.92,3.19.34,6.87,1.38,9.99,1.09-1.7-2.52-7.44-3.48-10.09-2.01ZM144.78,365.81c-7.46.5,4.02,10.36,4.18,2.96-1.41.11-2.68.2-3.95.3-.07-1.02-.14-2.05-.23-3.26ZM126.12,265.53c3.14,2.95,3.2-.33,2.99-3.15-.27-.06-.54-.13-.8-.19-1.8,1.43-3.59,2.85-5.39,4.28.15.23.3.46.44.69.97-.58,1.94-1.15,2.76-1.63ZM141.86,160s.49-.35,1.02-.73c-2.87-1.8-3.76-1.99-7.2-1.39.66,2.92,3.42,1.99,6.19,2.13ZM120.37,228.68c.28,1.16.47,1.94.66,2.72,1.88-1.77,2.84-2.93,3.53-5.52-2.58.32-2.84.57-4.19,2.8ZM148.64,274.7c.27,1.88.82,2.38,1.96,3.82,1.68-1.88,2.13-3.24,2.84-5.7-1.72.67-3.16,1.24-4.8,1.88ZM61.9,195.62c.42.86,2.05,5.68,4.02,3.32,2.7-3.23-1.47-4.94-4.02-3.32ZM54.74,192.85c1.16,2.42,3.49,2.86,6.32,1.66,2.14-.91.98-2.22.72-3.74-2.2,1.7-3.77,4.69-7.04,2.08ZM143.33,355.04c.09.14.18.28.27.41,2.36-1.08,5.28-1.79,6.66-4.05-1.67-.57-1.92-.56-3.41-.23-1.41,1.54-2.47,2.7-3.53,3.87ZM144.87,246.16c.94-.76,1.51-1.23,2.09-1.69-2.23-2.11-2.2-2.38-4.71-.66.8.72,1.59,1.43,2.62,2.35ZM107.77,203.29c.83.69,1.52,1.26,2.65,2.2.17-3.95-2.15-3.89-5.11-3.11.08.34.16.68.24,1.03.86-.05,1.72-.09,2.22-.12ZM44.02,304.64c.95,1.39,1.74,2.55,2.54,3.72,1.77-2.05.66-4.92-2.54-3.72ZM141.87,350.64c-.28.03-.55.06-.83.09-.83,1.5-1.66,3-2.84,5.15,3.56-1.19,3.35-1.44,3.68-5.24ZM132.73,271.04c-2-1.67-1.92-1.5-4.03.06,2.04,1.96,1.92,1.81,4.03-.06ZM64.31,191.24c.61-1.06,1.29-2.22,2.31-3.97-1.52-.39-2.74-.7-3.81-.98.6,1.96,1.04,3.42,1.5,4.95ZM50.15,306.34c.33-.04.67-.08,1-.12-.27-1.58-.54-3.16-.81-4.74-.8.63-1.59,1.27-2.31,1.84.88,1.26,1.5,2.14,2.11,3.03ZM35.4,330.26c2.09-.49,5.4-2.4,1.62-4.29-.48,1.26-.87,2.3-1.62,4.29ZM141.52,380.88c-1.44.96-2.44,1.63-3.44,2.29.17.32.34.64.51.95,2.67-.67,2.93-.51,2.93-3.25ZM98.93,198.5c.13.12.25.24.38.36,2.37.13,3.33.43,5.07-1.14-1.66-1.58-3.49.03-5.45.77ZM110.42,197.87c2.35.06,2.92-1.58,3.54-3.3-1-.12-1.79-.21-2.29-.27-.43,1.24-.81,2.32-1.25,3.57ZM59.63,181.36c1.73.49,2.87.81,4.01,1.13l.2-.65c-.62-.86-1.25-1.72-2.04-2.82-.66.71-1.2,1.29-2.16,2.34ZM124.88,270.66c-.28-.41-.57-.82-.85-1.22-.88.51-1.75,1.01-2.63,1.52,1.45,1.87,1.64,1.09,3.48-.3ZM49,273.41c-1.68-2.48-3.17-2.62-4.97-.64,1.63.21,3.21.41,4.97.64ZM134.59,276.71c1.92.74,3.7.9,4.11-2.08-1.37.69-2.74,1.38-4.11,2.08ZM91.6,166.55c-.93,2.09-1.56,2.43.04,4,1.19-2.11,1.41-2.1-.04-4ZM107.56,165.44c1.76,2.7,2.85.93,4.14.36-.03-.27-.07-.54-.1-.82-1.35.15-2.69.3-4.04.45ZM128.06,235.18c2.99,2.02,3.7,1.9,4.25-.27-1.49.09-2.87.18-4.25.27ZM112.68,205.87c-.04-.23-.09-.45-.13-.68-1.08.48-2.15.96-3.89,1.73,1.33.87,2.01,1.31,2.58,1.68.58-1.12,1.01-1.93,1.43-2.74ZM133,206.18c-1.37,1.02-2.22,1.64-3.06,2.26.05.26.11.52.16.78,2.8-.46,2.89-.22,2.89-3.04ZM122.67,262.51c.2.46.39.91.59,1.37,1.32-.65,2.64-1.3,3.96-1.95-.12-.3-.23-.6-.35-.9-1.4.5-2.81.99-4.21,1.49ZM143.32,186.75c-.21-.39-.43-.77-.64-1.16-1.73.92-2.31.81-1.73,2.7.79-.51,1.58-1.02,2.37-1.54ZM102.2,264.14c.16.23.32.47.48.7,1.5-1,3.85-.94,4.42-3.53-1.83,1.06-3.36,1.94-4.9,2.83ZM54.78,305.93c-.33-.25-.67-.49-1-.74-.67.91-1.33,1.82-2,2.73,1.66.68,1.97-.69,3-1.99ZM93.39,186.06c-.14-.25-.28-.51-.41-.76-.97.54-1.95,1.08-2.92,1.62,1.97,1.55,2.59.21,3.33-.86Z"/>
  <path class="cls-1" d="M145.96,34.61c-1.08,1.2-3.44,3.07-3.72,4.83-.34,2.14,1.55,2.42,1.74,4.36.23,2.4-2.79,6.18-4.06,8.11-5,7.65-12.82,7.31-20.67,8.94-8.5,1.76-17.95,1.03-26.69,1.41-4.38.19-8.09.5-12.2-1.17-3.96-1.61-5.09-2.37-9.22-.3-3.43-3.67-11.52-.58-15.89-.67-6.31-.13-11.62-2.3-17.11-5.19-8.83-4.64-20.38-7.59-27.89-13.94.24-.92.58-2.19,1.01-3.81h-6.15c.95.56-2.38-4.11-2.83-4.57-1.29-1.31-1.62.35-2.23-2.05-.39-1.53,1.07-2.84,1.82-3.95.5.43.98.84,1.66,1.42,1.13-1.52,2.2-2.94,3.14-4.19,2.19-.09,9.24-1.39,7.75-5.25,3.57-3.56,7.53-5.59,12.25-7.4.13,1.1.25,2.12.36,3.08h3.03c-2.52-5.49,13.12-6.14,16.07-3.87,1.07-6.62,2.82-5.03,8.97-5.27,2.63-.1,5.17-.2,7.72-.87,1.31-.36,2.59-.82,3.83-1.38,1.09-.46,2.08-.29,2.99.51C73.87,2.69,77.34-.11,82.11,0c5.14.12,10.67,1.76,15.83,2.39,5.09.62,11.04-.19,15.83.86,4.21.92,9.77,3.81,13.36,6.08,3.66,2.32,8.3,6.42,11.29,9.64,3.73,4.03,5.39,10.62,7.55,15.64Z"/>
  <path class="cls-1" d="M52.1,169.79c.57,4.02,4.24,3,6.78,4.33-3.35,1.4-8.71-.07-7.87-4.08.36-.08.73-.17,1.09-.25Z"/>
  <path class="cls-1" d="M34.96,308.1c1.98-2.56,2.14-2.04,5.06-.6-1.83,3.02-3.46,1.68-5.09.55,0,0,.03.04.03.04Z"/>
  <path class="cls-1" d="M129.11,151.26c-1.74.88-3.3,1.67-5.26,2.66,2.02-4.47,2.19-4.55,5.26-2.66Z"/>
  <path class="cls-1" d="M122.1,150.57c-1.72-.45-3.45-.9-5.17-1.34.09-.37.18-.75.28-1.12,1.74.34,3.47.69,5.21,1.03-.1.48-.21.96-.31,1.43Z"/>
  <path class="cls-1" d="M114.89,151.22c-2.05,1.36-2.13,1.88-3.97.3,2.3-1.54,1.84-1.26,3.97-.3Z"/>
  <path class="cls-1" d="M108.16,153.84c-1.04.16-2.09.31-3.13.47.36-2.42.74-1.99,3.17-1.82-.01.45-.03.9-.04,1.35Z"/>
</svg>