<?xml version="1.0" encoding="UTF-8"?>
<svg id="Layer_1" data-name="Layer 1" xmlns="http://www.w3.org/2000/svg" viewBox="0 0 425.47 500">
  <defs>
    <style>
      .cls-1 {
        fill: #488cca;
        stroke-width: 0px;
      }
    </style>
  </defs>
  <path class="cls-1" d="M252.84,396.54c.54,2.86-.21,5.05-2.08,5.51-1.7.42-3.01,1.05-2.99,3.78,0,.58-.33,1.32-.69,1.71-2.62,2.91-3.79,6.88-4.33,11.06-.61,4.72-1.86,8.67-5.06,11.27-1.99,1.62-2.53,4.3-2.67,7.1-.11,2.37-.84,4.07-2.21,5.62-3.47,3.91-6.71,8.03-11.08,10.51-5.94,3.36-11.71,3.03-17.71.8-4.56-1.7-8.71-4.49-12.84-7.41-.18-.13-.39-.23-.54-.42-3.29-4.19-6.69-8.25-9.81-12.65-2.03-2.85-3.84-6.05-5.41-9.37-1.96-4.16-3.96-8.35-4.83-13.25-.63-3.53-1.77-6.72-3.92-9.17-4.51-5.16-6.94-12.28-10.08-18.73-.22-.46-.32-1.07-.6-1.44-3.38-4.41-4.08-10.35-5.39-15.96-1.53-6.56-3.22-13.05-4.87-19.57-.6-2.38-.99-4.69-.3-7.23.28-1.03.07-2.43-.18-3.55-2.31-10.26-4.52-20.55-7.08-30.71-2.12-8.46-4.67-16.73-7.01-25.09-.61-2.18-1.35-4.35-1.69-6.61-2.58-17.23-5.22-34.44-7.51-51.74-.94-7.1-1.66-14.26-1.9-21.54-.32-9.58-1.52-19.1-2.35-28.65-.1-1.2-.06-2.89-1.31-2.74-.72.08-1.49,1.24-2.01,2.14-.48.85-.58,2.05-.97,3.01-.63,1.52-1.34,2.98-2.06,4.43-.22.45-.66.7-.89,1.14-2.76,5.3-5.65,10.51-8.17,16-.98,2.14-1.16,4.94-1.63,7.46-.57,3.04-.84,6.17-2.84,8.46-.94,1.07-.27,3.03-1.1,4.66-1.78,3.5-2.82,7.62-4.35,11.35-1.15,2.8-1.48,6.27-3.71,8.26-.31.27-.42.92-.63,1.38-.67,1.49-1.12,3.32-2.07,4.39-2.27,2.58-4.2,4.96-2.15,9.28.3.64-.09,2.23-.54,3.02-1.14,2.06-1.82,4.66-3.88,5.73-1.1.57-1.42,2.01-1.24,3.47.4,3.2-.35,5.92-1.73,8.48-.36.66-.71,1.48-.74,2.25-.1,3.39-.43,6.6-1.67,9.73-.86,2.17,1.03,2.87,2.11,3.78-.08,1.19-.4,2.43-.21,3.52.69,3.84.05,6.79-3,8.46.21.93.38,1.68.6,2.64-.62.73-1.29,1.54-2.04,2.42.25,1.36.49,2.66.58,3.14-.99,2.54-1.82,4.37-2.4,6.33-.22.73-.09,2.01.28,2.61,1.02,1.68.49,2.91-.53,3.81-1.99,1.76-3.14,3.97-2.73,7.1-.95.82-2.24,1.33-2.46,2.27-.25,1.07.35,2.59.75,3.81.79,2.44,1.55,4.83.73,7.52-.04.13-.1.3-.06.39,1.85,4.71-.72,8.55-1.43,12.76-.15.91,0,1.9-.02,2.85-.02,2.32.29,4.76-.17,6.92-.72,3.4.11,6,1.71,8.29,1.38,1.98,2.28,3.88,1.36,6.61-.15.45-.06,1.09,0,1.62.49,3.5,1.18,6.96,1.46,10.48.32,3.96,2.58,6.28,4.12,9.49.96.17,2.06.36,3.5.6-2.13,4.59,1.4,6.11,2.57,8.84.35.81,2.13.57,3.26.8,1.29.25,2.73-.01,3.82,1.98-1.8,1.83-3.56.78-5.31.43-1.51-.3-3.07-.61-4.58-.43-.8.09-1.74,1.01-2.26,1.91-1.27,2.19-.72,4.33,1.32,4.95,3.26.99,5.67,3.11,7.14,7.21.35.99,1.56,1.88,2.45,2.02,3.87.6,4.05,1.25,4.8,6.41.23,1.6,1.11,3.03,1.89,5.04-.29.49-.87,1.51-1.62,2.8,3.45,2.97,1.54,5.93.12,9-2.66,5.74-6.68,9.71-10.34,14.16-.69.83-1.55,1.43-2.19,2.31-6.93,9.44-15.38,15.94-24.36,21.26-2.6,1.55-5.6,2.01-8.44,2.77-2.03.54-4.11.86-6.18,1.09-2.96.34-5.77-.52-8.55-1.93-4.99-2.54-9.35-6.55-13.91-10.09-1.08-.84-1.83-2.6-2.52-4.11-5.57-12.13-7.49-25.37-7.17-39.42.13-5.87-.37-11.78-.85-17.64-1.21-14.87-2.79-29.69-3.79-44.59-.75-11.2-.88-22.47-1.21-33.72-.17-5.89-.23-11.79-.25-17.69,0-2.32.27-4.64.34-6.97.32-10.69.49-21.38,2.08-31.95,1.15-7.66,1.68-15.49,2.89-23.14,1.46-9.26,3.37-18.39,5.03-27.59,2.62-14.48,7.04-28.13,11.29-41.84,1.21-3.91,2.84-7.6,4.17-11.45.64-1.86.93-3.93,1.58-5.79,2.71-7.72,5.44-15.42,8.27-23.06,2.05-5.55,4.11-11.11,6.45-16.45,5.31-12.13,10.58-24.3,16.28-36.12,6.09-12.63,12.58-24.95,20.47-35.82,7.16-9.88,15.04-18.62,24.27-25.04,5.85-4.06,11.99-4.47,17.71-.36,4.32,3.1,8.47,6.94,11.27,12.71,1.16,2.39,2.67,4.6,4.32,6.42,3.65,4.04,5.76,9.72,9.02,14.12,3.96,5.34,5.75,12.28,8.25,18.7.83,2.13,1.08,4.67,1.48,7.06.44,2.64.74,5.33,1.13,7.99.08.53.18,1.11.42,1.53,1.82,3.21,3.67,6.39,5.76,10.01-1,.33-2.06.55-3.04,1.05-.95.48-1.81,1.26-2.83,1.99.37,2.58.77,4.93,1.02,7.32.09.9-.09,1.9-.29,2.79-1.38,6.24-1.29,12.37.67,18.4.71,2.16.76,4.26.4,6.73-.45,3.08-.34,6.44,1.01,9.47.53,1.19.67,2.78.72,4.21.07,2.14-.68,4.31.23,6.45.16.38.06,1.16-.14,1.55-1.83,3.57.15,6.08,1.6,8.35,2.27,3.55,2.42,3.38,1.11,7.33-.92,2.78-.85,3.01,1.24,4.28,2.04,1.24,2.18,2.91.2,4.71-1.52,1.38-2.76,2.67-1.43,5.19-.79.94-1.81,1.61-2.04,2.59-.21.9.48,2.13.66,3.25.1.63,0,1.33-.05,1.99-.19,2.71-.69,5.45-.49,8.11.14,1.89,1.12,3.73,1.93,5.44.77,1.62,2.3,2.86,2.6,4.55.67,3.83,1.27,7.61,2.73,11.12.3.73-.24,2.06-.39,3.17,1.57,2.24,3.16,1.41,4.77-.09,2.61,2.12,3.92,5.11,4.45,8.95.34,2.47,1.09,4.84,1.64,7.16-1.58-.2-3.12-.4-4.66-.59l-.23.84c.91.91,1.83,1.82,3.12,3.11-1.5,0-2.57,0-3.61,0-.36,4.54-.27,4.78,2.29,6.13.45-.8.91-1.63,1.32-2.38.39.1.66.05.78.21.79,1.03,1.59,2.07,2.3,3.19.29.45.4,1.12.55,1.71.12.48.04,1.27.26,1.44,3.68,2.9,1.68,7.96,2.58,11.9.1.42-.8,1.67-1.34,1.82-1.4.38-2.88.2-4.28.55-.69.17-1.85,1-1.85,1.53,0,4.16-.68,8.54,1.59,12.18.53.84,1.05,1.91,1.75,2.3,3.15,1.75,5.26,5.31,8.04,7.67.7.59,1.39,1.29,2.16,1.61,1.2.51,2.06-.11,2.22-1.87.08-.81-.03-1.66.08-2.46.39-2.8.49-5.72,2.52-7.69.69-.66,1.11-2.01,1.39-3.15.8-3.26,1.39-6.6,2.19-9.87,2.13-8.74,4.23-17.5,6.51-26.18,1.94-7.38,4.09-14.67,6.17-21.99.84-2.95,1.71-5.89,2.64-8.79,2.83-8.85,5.47-17.82,8.58-26.49,4.72-13.14,9.66-26.14,14.72-39.05,3.24-8.28,6.8-16.35,10.32-24.43,2.22-5.11,4.77-9.97,6.9-15.13,3.25-7.86,7.22-15.07,11.14-22.35,5.31-9.86,10.65-19.69,16.81-28.67,4.88-7.12,9.76-14.26,14.93-21.02,6.95-9.08,13.89-18.25,22.01-25.57,6.26-5.65,12.73-10.88,19.75-14.87,6.3-3.58,12.43-7.7,19.02-10.35,4.19-1.68,8.33-3.55,12.54-5.1,5.47-2.01,10.27.46,14.78,4.32,1.06.9,1.51,2.25,1.27,3.92-1.14,7.77.35,15.45.47,23.18.03,1.82.25,3.55-.88,4.98-.89,1.12-.76,2.37-.29,3.77,1.29,3.82.98,7.03-1.1,10.63-2.28,3.94-4.33,8.44-3.42,14.06.21,1.3-.4,2.91-.81,4.28-.34,1.13-1.02,2.08-1.41,3.2-1.11,3.11-1.65,6.22.2,9.28,1.26,2.08,1.41,4.23-.09,6.29-.07.1-.18.21-.19.32-.63,5.53-3.95,9.69-4.29,15.46-.36,5.98-1.23,11.91-1.85,17.87-.07.65-.08,1.41.11,1.99.84,2.53.83,4.96.15,7.6-.28,1.09.27,2.56.49,4.15-.59.67-2.06,1.66-1.99,2.37.35,3.25-.94,5.87-1.38,8.78-.34,2.21,2.39,4.91,5.2,5.19-1.04,2.2-1.97,4.16-2.98,6.3,3.29,3.57,2.95,9.17,4.69,13.61.78,1.99.58,4.72.58,7.12,0,.75-.78,1.5-1.18,2.22.86,2.22,1.7,4.37,2.54,6.55-.87,1.04-1.63,1.64-2.04,2.53-.68,1.47-1.51,3.09-1.58,4.71-.12,2.46-.57,4.58-1.74,6.44-.85,1.34-1.09,2.85-.17,4.09,1.68,2.25,1.31,4.97.84,7.35-.75,3.77-.19,7.03,1.35,10.48-2.08,1.47-3.35,3.37-2.96,6.81.22,1.99-1.57,3.34-3.37,3.1-3.52-.48-3.67-.42-5.29,3.66-2.18,5.5-2.67,11.44-2.67,17.54,0,2-.16,4.11-.66,5.97-1.25,4.62-1.66,9.26-1.21,14.12.19,2.02-.05,4.11-.03,6.16.05,4.52.14,9.04.23,13.56.01.54.07,1.1.19,1.62,1.53,6.87,2.15,13.88,2.01,21.04-.04,1.89.39,3.79.53,5.7.11,1.49.08,2.99.14,4.48.07,1.89.15,3.77.24,5.65.05.95.44,2.1.16,2.81-1.77,4.45-.22,8.83,0,13.22.11,2.14.87,3.55,2.69,3.8.79.11,1.57.69,2.29,1.22,1.94,1.43,2.47,2.98,1.92,5.77-.23,1.18-.61,2.35-1.07,3.42-1.52,3.53-1.86,7.05-.32,10.75.27.65.4,1.7.19,2.33-.9,2.72-.39,5.08.89,7.14-.14.62-.15,1.1-.33,1.38-2.16,3.36-2.17,4.56.63,6.56,2.05,1.47,2.97,3.59,2.75,6.32-.17,2.15.53,3.35,1.54,4.61,2.43,3.04,4.87,5.95,8.32,6.95,1.67.49,2.3,1.63,3.41,4.55-.32.26-.65.75-.99.78-3.09.2-6.18.47-9.27.41-1.94-.04-2.2.05-2.78,2.66-.85,3.85-1.37,7.61-.81,11.72.39,2.88-.23,5.97-.07,8.93.08,1.48.76,3.02,1.44,4.28.65,1.2,1.71,2,2.47,3.12,1.29,1.89,1.33,5.75-.03,7.29-1.16,1.33-1.73,2.58-1.08,4.62.66,2.07,1.66,3.08,3.39,2.67.18-.04.39.11.68.2,1.42,5.74,3.92,10.36,8.23,13.11,1.38.88,2.46,2.32,2.99,4.52.89,3.66,2.53,6.44,5.61,7.57,3.34,1.23,5.91,3.86,7.26,8.31.28.93,1.15,1.54,1.68,2.37.5.77.92,1.62,1.41,2.49-.52.51-.79.98-1,.94-3.95-.8-8.09.34-11.83-2.81-1.77-1.5-4.09-1.97-6.22-2.6-1.47-.44-2.28-1.6-3.19-3-1.26-1.94-2.66-3.85-4.25-5.28-1.48-1.32-2.43-2.56-1.57-5.2-3.18-.95-4.93-3.21-4.24-7.96-3.62-1.43-4.93-5.51-6.33-9.53-1.47-4.23-3.24-8.32-4.39-12.69-1.6-6.04-2.89-12.21-4.65-18.22-2.71-9.26-3.49-19.17-4.12-29.02-.85-13.13-.45-26.28-.25-39.43.2-13.57.26-27.15.12-40.72-.1-9.57-.94-19.13-.89-28.7.05-11.07-2.03-21.73-2.9-32.6-.4-4.9-.75-9.81-.9-14.73-.23-7.79-.45-15.59-.35-23.38.17-13.02.43-26.04.96-39.05.31-7.78,1.32-15.52,1.8-23.3.4-6.4.39-12.84.72-19.26.37-7.25.81-14.49,1.4-21.71.51-6.13,1.84-12.23,1.78-18.33-.06-6.32,1.7-12.02,2.16-18.1.4-5.31,1.18-10.57,1.44-15.89.12-2.52-.48-5.15-.97-7.65-.12-.63-1.06-1.32-1.66-1.39-2.16-.24-4.35-.5-6.49-.26-3.29.38-6.56,1.14-9.82,1.79-1.03.21-2.02.76-3.04.89-2.29.29-3.94,1.42-5.48,3.97-2.04,3.37-4.78,6.02-7.23,8.97-.46.55-1.1.94-1.4,1.61-1,2.2-2.47,2.94-4.31,3.54-1.63.52-3.21,1.92-4.54,3.37-1.43,1.56-2.59,3.56-3.74,5.51-.48.82-.85,1.97-.87,2.99-.02.96.27,2.35.8,2.8.52.45,1.66.29,2.26-.19,1.35-1.05,2.54-2.44,4.27-1.72.64,4.93-1.65,7.92-4.13,10.98-.62-.56-1.27-1.15-1.91-1.72-2.66,1.17-3.08,5.85-6.26,6.36-.14-1.91.49-3.12,1.55-4.05.61-.53,1.35-.9,1.8-1.61.38-.6.43-1.58.63-2.39-.65-.25-1.43-.93-1.92-.66-.92.5-1.75,1.44-2.48,2.38-2.75,3.53-5.43,7.17-8.19,10.69-2.68,3.41-5.88,6.19-7.3,11.06-.21.72-.72,1.35-1.19,1.88-2.9,3.22-4.08,7.9-5.89,12.02-.72,1.63.01,3.17,1.49,3.74.68.27,1.4.36,2.07.53.9,1.83.59,3.52-.1,5.14-3.39,7.86-6.85,15.67-10.19,23.57-2.57,6.08-4.99,12.26-7.46,18.41-.68,1.69-1.43,3.38-1.86,5.18-1.27,5.32-.08,7.84,4.12,9.18.19.06.34.29.71.63-.09,1.04-.31,2.24-.28,3.42.12,4.09-.92,8.12-.11,12.27.44,2.26-.02,4.59-.99,6.71-1.27,2.77-1.25,5.36.69,7.8.96,1.21,1.7,2.79,2.32,4.36,1.23,3.15,1.12,6.17-.38,9.33-1.14,2.39-1.93,5.15-2.56,7.87-.96,4.16-2.21,8.4-2.31,12.66-.13,5.25-2.21,10.32-.8,15.68.35,1.34-.03,2.43-.98,3.13-.63.46-1.28.88-1.83,1.25.38,3.75,2.33,1.72,3.73,2.4-.87,4.86-1.74,9.76-2.7,15.13-.36.4-1.12,1.24-1.92,2.13-2.97-1.4-3.37-1.26-4.25,2.97-1.4,6.72-2.62,13.5-3.91,20.26-.1.53-.1,1.14-.3,1.59-1.58,3.41-1.59,7.33-2.1,11.08-.37,2.69-.78,5.41,1,7.83-1.79,1.87-2.93,3.84-1.8,6.79.19.49-.1,1.33-.21,2-.56,3.41-1.08,6.83-1.7,10.22-.33,1.79-.02,3.11.99,4.44,1.06,1.39,1.88,3.09,2.88,4.78-.89,1.07-1.45,1.75-2.33,2.81,1.72.43,3.07.76,4.82,1.19-.63,1.54-1.09,2.67-1.57,3.83-.92-.23-1.62-.47-2.32-.56-1.43-.18-2.01.54-1.92,2.26.09,1.7.75,2.56,2.05,2.23,1.11-.28,2.19-.73,3.48-1.17.31,1.14.57,2.11.85,3.13-1.01.99-1.91,1.86-2.81,2.74-.73.26-1.88-.26-1.77,2.42.78-1.11,1.26-1.79,1.75-2.47ZM192.09,414.16c-4.79.23-5.47,4.74-6.64,8.7.82,1.79,2.08,2.47,3.12,1.05,1.92-2.62,3.39-5.7,3.52-9.75ZM149.03,334.94c-.71,1.16-1.31,1.76-1.42,2.49-.07.48.57,1.15.89,1.74.39-.51.99-.94,1.11-1.54.12-.58-.26-1.33-.58-2.68ZM74.88,292.69c-.41-.35-.66-.7-.93-.74-.19-.03-.57.36-.58.59-.02.32.23.67.36,1,.23-.17.46-.34,1.15-.85Z"/>
  <path class="cls-1" d="M374.47,258.87c.78,4.3,1.53,7.97,2.04,11.69.11.83-.51,1.96-.98,2.79-.84,1.5-.92,2.85-.24,4.54,1.45,3.65,1.11,5.62-1.43,9.13-1.85-2.3-1.75-5.71-3-8.5,1.8-2.13,2.15-4.09.47-6.94-1.6-2.7-.57-8.99,1.29-11.49.33-.44.87-.59,1.84-1.22Z"/>
  <path class="cls-1" d="M412.59,478.97c2.22-.55,3.72-.16,5.07.89,3.19,2.49,3.17,2.54,5.78.93.63,1.54,1.39,3,1.83,4.61.28,1.02.27,2.35.01,3.38-.1.39-1.25.44-1.92.45-1.74.01-3.78.63-5.15-.35-1.34-.96-1.96-3.61-2.96-5.46-.71-1.32-1.52-2.55-2.66-4.44Z"/>
  <path class="cls-1" d="M326.84,142.13c-.72,1.65-1.32,3.02-2.1,4.8-.52.05-1.38.13-2.33.21,1.21-5.14,1.71-5.71,4.43-5.01Z"/>
  <path class="cls-1" d="M329.04,76.36c.16-1.13.26-2.29.53-3.37.08-.31.82-.7.95-.56.32.34.74,1.13.63,1.46-.33,1.03-.89,1.93-1.37,2.89-.24-.14-.49-.27-.73-.41Z"/>
  <path class="cls-1" d="M285.46,140.41c.54-2.69,1.02-4.2,2.98-4.5-.32,2.23-1.48,2.94-2.98,4.5Z"/>
  <path class="cls-1" d="M284,197.77c1.06.17,1.67.26,2.64.42q-1.36,1.3-2.64-.42Z"/>
  <path class="cls-1" d="M322.72,156.18c-.59,0-1.04.07-1.47-.04-.09-.02-.16-.98-.13-1,.44-.17.9-.29,1.36-.3.05,0,.12.66.23,1.34Z"/>
  <path class="cls-1" d="M322.52,149.57c.48.15.97.29,1.44.49.03.01-.04.68-.07.68-.5.01-1.01-.04-1.51-.07.05-.37.09-.74.14-1.1Z"/>
  <path class="cls-1" d="M256.3,372.8c.27.4.63.77.59.92-.12.39-.42.68-.65,1.01-.16-.31-.42-.61-.43-.93,0-.28.27-.58.49-.99Z"/>
  <path class="cls-1" d="M255.24,379.65c.37-.08.66-.22.95-.19.14.01.38.47.36.5-.16.28-.38.51-.58.75-.13-.19-.25-.37-.73-1.07Z"/>
  <path class="cls-1" d="M257.39,391.66c.3-.05.56-.17.81-.11.11.02.18.38.26.59-.25.1-.5.25-.75.26-.08,0-.17-.38-.32-.73Z"/>
  <path class="cls-1" d="M194.13,282.92c-.27.09-.57.25-.6.19-.13-.31-.2-.67-.29-1.02.25-.08.49-.16.74-.24.05.36.1.71.15,1.06Z"/>
  <path class="cls-1" d="M413.3,469.3c.35-.09.63-.22.9-.2.12,0,.24.3.35.46-.19.23-.37.48-.58.66-.02.02-.22-.3-.67-.92Z"/>
  <path class="cls-1" d="M368.47,322.77c-.05-.22-.17-.5-.11-.64.08-.19.3-.27.47-.4.07.29.13.58.2.87-.18.06-.37.11-.55.17Z"/>
</svg>