<?xml version="1.0" encoding="UTF-8"?>
<svg id="Layer_1" data-name="Layer 1" xmlns="http://www.w3.org/2000/svg" viewBox="0 0 331.78 396">
  <defs>
    <style>
      .cls-1 {
        fill: #488cca;
        stroke-width: 0px;
      }
    </style>
  </defs>
  <path class="cls-1" d="M310.46,252.49s-.02,0-.04.01c0,0,.01,0,.02.01l.02-.02Z"/>
  <path class="cls-1" d="M313.2,238.45h0s0,0-.01-.02v.02Z"/>
  <path class="cls-1" d="M331.76,356.76c-.17-2.77-.45-5.54-.81-8.29-.19-1.41-.67-2.76-.37-4.23.11-.53-.16-1.14-.3-1.7-.19-.8-.49-1.58-.62-2.39-.24-1.46-.2-2.94-.28-4.4-.15-3.01-.92-6-1.52-8.98-.27-1.32-.8-2.59-1.1-3.9-.59-2.6-1.44-5.19-1.58-7.82-.28-5.31-1.6-10.5-1.5-15.83,0-.06-.02-.13-.02-.19-.61-6.13-1.26-12.25-1.8-18.39-.38-4.32-.26-8.69-1.12-12.98-.26-1.33-.37-2.7-.44-4.06-.2-4.01-.11-8.05-.6-12.03-.42-3.41-.62-6.79-.76-10.22-.15-3.54-.89-7.06-1.43-10.59-.08-.55-.31-1.19-.7-1.54-.88-.79-.73-1.5-.24-2.41.71-1.31.49-2.27-.51-3-.24-.18-.46-.38-.54-.45.32-.94.69-1.67.82-2.45.18-1.02-.62-1.41-1.38-1.87-.63-.38-.6-1.06.03-1.43.76-.44.83-1.15.49-1.65-.8-1.2-.44-2.51-.62-3.77-.56-3.96-1.19-7.91-1.8-11.86-.15-.96-.31-1.92-.55-2.86-.11-.4-.38-.83-.7-1.1-1.13-.91-1.13-1.13-.56-2.44.29-.66.48-1.56.26-2.2-.68-1.94-1.58-3.81-2.39-5.7-.65-1.5-1.21-2.92-.44-4.65.58-1.29.63-2.87-.12-4.16-1.18-2.03-.96-4.23-.99-6.39-.02-.97-.23-1.69-.82-2.48-.56-.74-.86-1.7-1.17-2.6-.27-.78-.2-1.72-.62-2.38-.76-1.21-.65-2.34-.13-3.51,1.06-2.4.72-4.47-1.39-6.22.58-2.16.38-4.32-.23-6.47-.33-1.18-.67-2.37-.85-3.58-.24-1.66-.17-1.67-2.06-2-.32-1.14-.61-2.32-.98-3.48-.37-1.16-.83-2.28-1.22-3.43-.29-.85-.74-1.7-.76-2.56-.05-1.69-.66-3.15-1.31-4.65-.57-1.3-1.08-2.64-1.55-3.99-.36-1.03-.61-2.09-.91-3.13-.53-1.85-1.06-3.7-1.59-5.55.66-.27,1.1-.44,1.67-.67-.74-.84-1.58-1.48-1.13-2.61.06-.14-.06-.39-.16-.55-1.39-2.14-1.95-4.58-2.57-7.01-.33-1.32-.84-2.6-1.04-3.94-.17-1.17-.29-2.22-1.76-2.41.16-.84.9-1.55-.06-2.42-.16.32-.33.64-.65,1.26-1.43-3.02-2.8-5.59-3.66-8.41-.48-1.58-.94-3.19-1.57-4.71-.91-2.2-2.01-4.32-2.97-6.51-.73-1.66-1.29-3.38-2.04-5.02-.99-2.17-2.12-4.28-2.82-6.58-.11-.37-.29-.74-.53-1.03-1.43-1.73-2.22-3.8-3.13-5.81-.77-1.71-1.24-3.7-2.43-5.06-2.29-2.62-2.98-6.15-5.39-8.65-.7-.72-1.3-1.62-1.67-2.55-1.3-3.22-3.44-5.88-5.5-8.59-1.13-1.48-2.37-2.87-3.55-4.31-.47-.58-.96-1.17-.73-2.23.53.47.94.78,1.28,1.15,1.24,1.32,2.45,2.68,3.7,3.99.81.85.84.82,2.08-.43-.6-.31-1.11-.69-1.68-.85-.87-.24-1.15-.74-1.03-1.58.04-.29,0-.58,0-1.03-.45.12-.75.27-1.04.27-.66,0-1.42-.9-1.08-1.21,1.16-1.04.04-1.4-.5-1.67-1.14-.57-2.37-.95-3.56-1.41.52-2.43-1.61-3.22-2.85-4.56-.07-.07-.24-.06-.41-.1-.13.32-.27.66-.5,1.23-.64-.58-1.18-1.08-2.02-1.84.87.04,1.31.06,1.89.09-.75-1.98-2.29-2.12-3.82-2.1.07-.48.27-1.07.15-1.14-.82-.51-1.71-.91-2.72-1.42.26-.72-.32-1.25-1.13-1.68-.52-.27-1.12-.48-1.5-.89-1.94-2.08-4.56-3.19-6.82-4.8-1.79-1.28-3.83-2.23-5.57-3.57-1.31-1.01-2.73-1.75-4.2-2.37-2.92-1.23-5.87-1.77-8.63.49-.24.2-.58.28-.89.37-1.29.36-3.73,2.09-4.71,3.07-.77.76-1.54,1.37-1.81,2.54-.14.59-.86,1.2-1.47,1.49-1.72.81-2.92,1.99-3.41,3.85-.05.19-.33.37-.54.47-1.25.59-2.04,1.49-2.33,2.89-.18.87-.55,1.71-.86,2.63-.19.08-.43.18-.67.27-1.76.65-2.73,1.95-3.17,3.75-.12.47-.46.91-.76,1.32-.49.68-1.17,1.26-1.53,2-.59,1.2-1.61,1.57-2.76,1.7-.52.06-1.07-.19-1.67-.31-.16.81-.3,1.54-.44,2.27.51.26.97.5,1.43.74l-.02.42c-1.03.2-2.06.41-3.26.65,0,2.19.02,4.31,0,6.43-.01.91-.47,1.58-1.26,2.06-.99.6-1.91,1.34-2.94,1.86-1.4.7-1.79,1.7-1.48,3.19.52,2.51-.04,4.99-.35,7.47-.18,1.41-.58,2.81-.65,4.22-.21,3.95-.46,7.92-.38,11.87.06,2.99-.81,5.6-2.21,8.13-1,1.81-2.04,3.59-3.04,5.4-1.04,1.87-1.06,3.78-.27,5.78.94,2.35,2.54,4.22,4.16,6.08.8.92,1.31,1.93,1.43,3.12.11,1.1.17,2.2.2,3.3.15,4.74.28,9.48.43,14.22,0,.32.07.65.07.97.08,4.41.25,8.83.2,13.24-.03,2.46-.44,4.91-.63,7.37-.06.77-.04,1.56.04,2.34.23,2.26.51,4.51.77,6.76.24,2.12.37,4.27.77,6.37.34,1.76.4,3.46.13,5.22-.25,1.67-.5,3.35-.56,5.03-.18,5.44-.27,10.88-.39,16.32-.04,1.87,0,3.75-.13,5.61-.17,2.26-.51,4.5-.75,6.75-.38,3.54-.74,7.09-1.13,10.63-.07.64-.11,1.37-.43,1.88-1.11,1.73-1,3.73-1.39,5.61-.12.57-.11,1.17-.23,1.74-1.1,5.33-2.2,10.67-3.34,15.99-.39,1.81-.66,3.66-1.69,5.68-.46-.7-.82-1.12-1.04-1.6-.53-1.18-.99-2.4-1.49-3.6-1.55-3.71-3.17-7.39-4.64-11.13-1.3-3.32-2.34-6.75-3.67-10.06-1.6-3.98-3.35-7.89-5.08-11.81-1.99-4.51-3.94-9.05-6.08-13.49-1.46-3.04-3.17-5.97-4.86-8.9-2.76-4.78-5.57-9.53-8.4-14.27-1.93-3.23-3.9-6.44-5.92-9.63-2.29-3.62-4.71-7.15-6.96-10.8-1.98-3.2-3.79-6.5-5.71-9.73-.73-1.22-1.65-2.34-2.36-3.57-1.19-2.08-2.31-4.21-3.4-6.35-1.09-2.14-2.11-4.32-3.14-6.49-1.78-3.76-3.56-7.51-5.29-11.29-.54-1.18-.84-2.46-1.34-3.65-1.26-2.99-2.58-5.96-3.86-8.95-.69-1.61-1.23-3.3-2.07-4.82-2.05-3.76-4.27-7.42-6.36-11.16-1.98-3.54-4.46-6.72-7.2-9.65-2.74-2.93-5.75-5.62-8.73-8.31-4.07-3.67-8.45-6.9-13.46-9.19-3.72-1.7-7.51-3.29-11.14-5.17-3.15-1.63-6.16-3.55-9.17-5.45-.73-.46-1.19-1.34-1.78-2.01-.07-.08-.24-.09-.42-.16-1.01.38-1.87.99-2.52,1.95-.51.74-1.21,1.35-1.75,2.07-.58.76-1.15,1.55-1.58,2.4-.72,1.45-1.24,3-1.97,4.43-1.57,3.06-3.34,6.03-4.82,9.13-1.97,4.13-4.48,7.91-7.05,11.65-1.76,2.57-3.7,5.02-5.45,7.59-.79,1.17-1.39,2.49-1.96,3.79-.53,1.2-.34,2.4.35,3.54.47.76.85,1.58,1.23,2.29-1.09,1.74-2.23,3.25-3.04,4.92-.9,1.86-1.57,3.84-2.23,5.81-.68,2.04-1.15,4.11-.56,6.29.62,2.3.41,4.6.12,6.95-.34,2.76-.52,5.59-.33,8.35.3,4.26.99,8.5,1.47,12.75.69,6.05,1.33,12.11,2,18.16.63,5.65.05,11.29-.14,16.94-.17,4.93-.48,9.86-.68,14.78-.05,1.22.12,2.45.17,3.68.21,4.86.23,9.75.66,14.59.53,5.99.48,11.96-.22,17.89-.78,6.63-1.92,13.21-2.86,19.83-.7,4.95-1.32,9.91-1.32,14.93,0,1.04-.08,2.08-.11,3.12-.08,3.12-.27,6.23-.19,9.35.13,5.38.61,10.76.63,16.14.04,7.67-.2,15.33-.33,23-.09,5.07.16,10.13.71,15.17.36,3.35.67,6.72.79,10.09.23,6.68-.22,13.37.75,20.04.59,4.1.62,8.28.85,12.42.29,5.12.5,10.24.85,15.36.08,1.13.37,2.36.95,3.31,1.24,2.04,2.52,4.14,4.18,5.83,1.61,1.65,3.6,2.9,6.27,2.25,2.06-.5,4.23-.91,6.33-.85,2.82.08,5.36-.89,8-1.5.68-.16,1.31-.55,1.96-.86,2.65-1.27,5.08-3.13,8.25-2.96.25.01.53-.07.75-.19,1.97-1,4.48-.96,5.85-3.13.21-.33.74-.46,1.1-.66.47.29.83.65,1.25.73,1.29.26,2.35,1.3,3.89.84,1.59-.47,3.3-.87,4.94-.8,2.35.1,4.26-.62,6.15-1.91,1.05-.72,1.52-1.5,1.44-2.72-.13-2.07-.23-4.14-.32-6.21-.16-3.82-.25-7.64-.48-11.45-.09-1.54-.56-3.05-.71-4.59-.34-3.49-.67-6.98-.87-10.47-.18-3.11-.19-6.23-.27-9.34,0-.26.05-.52.06-.78.05-1.42.15-2.84.12-4.26-.04-1.88-.17-3.76-.27-5.64-.06-1.17-.13-2.33-.22-3.5-.19-2.26-.51-4.52-.57-6.79-.11-4.29-.04-8.58-.09-12.87-.06-5.33-.04-10.66-.3-15.97-.23-4.79-.79-9.57-1.19-14.35-.13-1.55-.19-3.1-.29-4.65-.11-1.68-.31-3.37-.3-5.05.02-3.7.05-7.41.25-11.11.22-4.01-.05-8.04.52-12.05.36-2.56.19-5.19.39-7.77.17-2.21.11-4.39-.04-6.6-.15-2.25.15-4.54.27-6.81.13-2.46.36-4.92.42-7.38.08-2.85.09-5.71.02-8.56-.1-3.7-.22-7.39-.49-11.08-.24-3.3-.79-6.58-1.05-9.88-.33-4.07-.53-8.15-.71-12.23-.05-1.07.18-2.15.32-3.62.4.6.6.83.73,1.09,5.74,11.01,11.93,21.75,18.41,32.34,3.59,5.87,7.18,11.75,10.5,17.78,5.94,10.78,10.43,22.22,14.54,33.8,1.48,4.15,2.71,8.4,4.32,12.5,2.18,5.56,4.66,11,6.91,16.53,1.71,4.21,3.44,8.43,4.82,12.75,2.15,6.74,4.36,13.46,7.25,19.93.77,1.72,1.47,3.46,2.16,5.21,2.18,5.56,4.31,11.14,6.51,16.7.37.94.58,1.79.29,2.81-.43,1.54-.38,3.06.56,4.48.3.45.57,1.18.42,1.64-.56,1.7.05,2.73,1.56,3.42.08.04.09.23.13.35-.97,1.17-.99,1.34,0,2.37,1.99,2.05,4.04,4.05,6,6.13.7.74,1.22,1.64,1.79,2.5,2.18,3.34,3.9,7.09,7.96,8.72.18.07.35.19.48.33,1.05,1.13,2.47,1.41,3.88,1.61,2.42.35,6.19-.72,7.42-3.43,1.1-2.43,2.26-4.82,2.46-7.54.12-1.64.74-2.86,2.54-3.1-.48-.42-.88-.77-1.28-1.11,1.03.13,2.01.12,2.54-.48.02-1.02.03-1.73.05-2.44.34.28.67.57,1.03.87.78-.59.7-1.25.11-1.79-.54-.49-1.07-.23-1.43.35-.04-1.8-.08-3.6.47-5.5.69.13,1.3.24,1.76.33.87-.43,1.64-.8,2.35-1.14-.09-.37-.18-.75-.3-1.2.79.14,1.39.24,2.02.35.02-1.95-1.86-1.81-2.83-2.68,1.31-.85,1.9.4,2.8.6.65-1.06,1.58-1.46,2.77-1.51,1.53-.07,2.44-1.12,2.46-2.68,0-.42-.06-.84-.12-1.73.92.68,1.51,1.11,2.25,1.67,1.19-1.1,2.41-2.24,3.65-3.35.76-.68,1.59-1.28,2.34-1.97.4-.37.92-.81,1.01-1.3.24-1.19.85-1.88,2.01-2.06,1.34-.21,1.9-1.13,1.97-2.31.08-1.41,0-2.84-.1-4.25-.18-2.5-.59-5-.6-7.51,0-3.56.38-7.13.39-10.7,0-3.05-.13-6.06.43-9.11.33-1.83.92-3.41,2.07-4.71,1.29-1.45,1.78-3.1,2.11-4.92.19-1.06.72-2.05,1.01-3.1.24-.85.47-1.74.48-2.62.03-1.54-.29-3.11-.13-4.63.18-1.65-.01-3.22-.25-4.83-.08-.56.03-1.15,0-1.73-.06-1.29.05-2.62-.26-3.85-.44-1.75-.32-3.37.51-4.9.72-1.33,1.35-2.66,1.43-4.2.01-.25.08-.53.21-.74,1.15-1.72,1.47-3.68,1.83-5.66.25-1.39.83-2.71,1.26-4.07.43-1.35.99-2.67,1.26-4.05.38-1.96.52-3.97.81-5.96.28-1.92.59-3.85.96-5.76.46-2.35.93-4.7,1.5-7.03.53-2.2,1.33-4.35,1.76-6.57.55-2.88,1.19-5.72,2.34-8.42.25-.59.43-1.22.53-1.86.76-4.67,1.49-9.34,2.24-14.02.25-1.53.56-3.05.82-4.59.31-1.85.6-3.71.89-5.56.12-.77.3-1.54.3-2.31.03-6.37.13-12.74,0-19.11-.15-6.87-.51-13.74-.81-20.62-.12-2.72-.32-5.44-.44-8.17-.12-2.66-.2-5.31-.31-7.97-.12-2.73-.25-5.45-.38-8.17-.12-2.52-.27-5.04-.33-7.57-.01-.5.3-1,.49-1.61.41.28.63.35.72.49,1.58,2.69,3.33,5.3,4.66,8.11,2.33,4.93,4.41,9.98,6.58,14.98.98,2.26,2.12,4.48,2.87,6.82,1.7,5.31,3.24,10.68,4.77,16.04,1.05,3.68,1.95,7.41,2.99,11.09,1.59,5.68,3.24,11.35,4.87,17.03.75,2.62,1.51,5.24,2.26,7.86.29.99.65,1.96.86,2.97.44,2.16.78,4.34,1.23,6.5.1.46.39,1.06.77,1.25,1.77.89,2.28,2.37,2.27,4.18,0,.68.08,1.38.83,1.6.98.28,1.1.96,1.07,1.8-.02.65.03,1.3.02,1.95-.02.89.13,1.61,1.07,2.08.42.21.75.89.85,1.41.56,2.79,1.05,5.59.87,8.48-.05.77.25,1.75.74,2.33.74.86.76,1.69.69,2.7-.12,1.51-.12,3.03-.15,4.55-.01.71.08,1.41.04,2.12-.06,1.15.07,2.16,1.01,3,.32.28.4.85.54,1.31.09.3-.02.77.16.9,1.05.8.57,1.62.31,2.59-.21.8-.26,1.98.18,2.56,2.29,2.97,2.66,6.24,2.03,9.77-.05.3-.08.66.04.91.61,1.2.43,2.5.02,3.58-.49,1.28-.19,2.06.66,2.94,1.43,1.48,1.39,1.51.56,3.35-.58,1.29-.89,2.62-.46,4.32.52-.62.85-1.02,1.24-1.48-.06,1.3-.13,2.45-.15,3.59-.02,1.02.1,2.05.01,3.07-.11,1.25-.21,2.45.67,3.51,1.08,1.29.44,3,1.03,4.42.09.23-.14.62-.27.91-.48,1.1-.58,2.11.42,3.02.21.19.3.57.34.88.5,3.51,1.27,6.98,1.41,10.56.22,5.77.62,11.53.95,17.3.27,4.93.53,9.86.81,14.78.36,6.48.83,12.96,1.07,19.45.17,4.37.03,8.74.03,13.18-.69.11-1.17.18-1.75.28-.35,2.06-.78,4.04.45,5.94.16.25.19.62.17.93-.23,2.82-.51,5.64-.73,8.46-.05.64-.19,1.49.14,1.9,1,1.24,1.11,2.77,1.42,4.17.43,1.89,1.88,3.74.53,5.8,1.07.95,2.13,1.85,1.34,3.35-.2.38-.93.53-1.04.9-.54,1.83-.37,3.68.32,5.43.42,1.08,1.05,2.08,1.55,3.14.3.64.57,1.27,1.6,1.32v-3.09c.48.35.83.48.93.71.64,1.41,1.27,2.83,1.83,4.28.38.99.92,1.53,2.07,1.15.19-.6.37-1.17.61-1.93.98,1.01,1.79,1.84,2.61,2.69.3-.9.11-1.69-.52-2.34-.67-.69-1.34-1.4-2.1-1.98-.83-.63-1.08-1.39-.95-2.38.07-.57.01-1.15.01-1.67,1.8-1.21,1.95-1.68,1.19-3.56-.07-.18-.27-.33-.28-.51-.03-.49-.18-1.25.06-1.42.4-.28,1.14-.38,1.59-.2.76.3,1.52.8,1.25,1.89-.09.36-.08.75-.13,1.23.51.11.93.2.97.2.88-.66,1.43-1.29,2.12-1.54.95-.35,1.11-.86,1.03-1.77-.11-1.28-.75-2.25-1.66-2.97-.82-.66-1.2-1.48-1.54-2.4-.52-1.41.18-2.46,1.81-2.69.22,1.52.21,3.14.74,4.54.45,1.2,1.52,2.18,2.36,3.22.21.26.57.39,1.02.68.32-2.08-.13-3.83-.92-5.71,1.59.06,2.66.72,3.67,1.52.34.27.64.64,1.02.81,1.08.46,2.2.84,3.52,1.33.07-.6.15-1.37.28-2.5,2.94,3.13,5.59,6.27,9.45,8.17.23-1.03-.25-1.57-.76-2.04-1.17-1.08-2.12-2.25-2.01-4.06-2.19.1-2.84-1.08-2.78-2.93.01-.43-.17-.9-.37-1.3-.55-1.14-.51-2.09.76-2.63-.12-.58-.16-1.05-.32-1.46-.53-1.41-.39-2.57.73-3.73.51-.53.61-1.51.73-2.32.2-1.25.01-2.61.44-3.76.52-1.39.43-2.64.1-3.98-.13-.53-.14-1.09-.26-2.06.96.48,1.65.68,2.15,1.1,1.13.96,2.18,2.02,3.24,3.06.42.41.85.82,1.17,1.3.52.76.87,1.47.16,2.46-.81,1.13-.9,2.38.32,3.48.4.36.57,1,.82,1.52.36.75.86,1.22,1.72,1.05.34-1.13-.51-2.44.91-3.38.51.81.9,1.55,1.4,2.21.48.63.76,1.8,2.01,1.11-.31-1.29-.61-2.5-.91-3.72.12-.06.24-.11.36-.17.41.36.82.72,1.23,1.07.33-.29.63-.56.97-.85,1.15,1.36,1.49,3.14,3,4.1-.01-.45-.11-.86-.29-1.23-.78-1.63-1.67-3.21-2.36-4.88-.46-1.12-.6-2.37-.99-3.53-.27-.79-.3-1.47.05-2.25.22-.48.31-1.15.16-1.65-.33-1.1-.85-2.14-1.36-3.38.13-.27.35-.72.7-1.43.87.46,1.81.77,2.49,1.38,1.15,1.03,2.11,2.27,3.17,3.4.45.48.94.91,1.66,1.6.21-1.66-.3-2.46-1.26-3.2-1.4-1.08-2.83-2.37-2.66-4.3.16-1.72-.29-3.3-.46-4.94-.04-.36-.06-.72-.1-1.29,2.13,1.49,1.52,3.97,2.64,5.68,0-1.25-.23-2.45-.25-3.66-.02-1.21-.63-2.47.21-4.06.22.77.36,1.17.44,1.58.27,1.27.47,2.54.77,3.8.79,3.34,1.63,6.66,2.4,10,.14.62.17,1.3.08,1.92-.09.63-.45,1.22.12,1.82.49.52.86,1.16,1.39,1.61.61.51,1.3.18,1.41-.62.17-1.21.45-2.44.38-3.64ZM169.07,344.05c-.33-.51-.61-.95-1.15-1.79.97.17,1.55.27,2.13.37-.3.44-.6.88-.97,1.42ZM179.05,327.64c-.34-.79,0-1.3.55-1.78.52.55.99,1.05,1.54,1.64-.66.05-1.34.09-2.1.15ZM180.83,323.56c-.05-.03-.03-.21-.04-.33.16,0,.32-.02.47.02.03,0,.02.21.03.4-.17-.03-.34-.02-.46-.09ZM193.55,21.37c-.14.02-.28.04-.42.06-.08-.36-.35-.91-.21-1.05.38-.38.94-.59,1.58-.61-.32.53-.63,1.07-.95,1.6ZM309.13,230.81c.39,1.46.31,3.06.32,4.61,0,.83-.23,1.66-.38,2.64.45.06.81.09,1.16.16.65.13.84.59.66,1.17-.23.74-.54,1.45-.82,2.17-.28-.14-.55-.32-.84-.41-.66-.22-1.59-.22-1.68-1.08-.09-.94-.1-2,.26-2.83.72-1.66.84-1.61-.58-2.94.29-.39.6-.79.89-1.18-.09-.11-.14-.26-.23-.29-.48-.2-.96-.39-1.46-.54-.73-.22-.99-.68-1.01-1.45-.02-.66-.27-1.32-.46-2.2.22-.29.51-.83.95-1.17.6-.47,1.44-.36,1.62.35.3,1.18,1.31,1.97,1.59,3.01ZM308.44,246c-.08.08-.16.17-.24.25-.05-.15-.12-.29-.13-.44,0-.04.18-.09.27-.14.03.11.07.22.1.33ZM304.96,221.58c-.16.5-.43.97-.8,1.77-.48-2.52-.37-2.81,1.22-3.61-.13.61-.23,1.24-.42,1.84ZM306.51,220.33c.68.98.52,1.86.03,2.74-.43-.86-1.24-1.73-.03-2.74ZM308.06,196.75c-.63-3.62-1.27-7.24-1.94-11.08,1.01,1.18,2.25,7.91,1.94,11.08ZM305.67,213.37c.29,1.49.61,2.9.84,4.33.15.92-.21,1.63-1.11,1.99,0-.56,0-1.12,0-1.65-2.6-1.39-2.55-2.69.26-4.67ZM305.23,208.7c.27,1.32.14,2.47-1.58,3.16-.93-2.15.12-4.62-1.39-6.58,2.08.11,2.33.32,2.69,2.09.09.44.19.89.28,1.33ZM303.97,167.53c.78.68.92,1.34.41,2.4-.93-.8-.99-1.47-.41-2.4ZM303.73,201.75c.04.31-.27.69-.49.99-.36.49-.78.95-1.23,1.49-.18-.16-.49-.3-.52-.49-.26-1.36-.67-2.73-.64-4.08.02-1,.74-1.88,2.18-1.99.25,1.39.53,2.73.7,4.09ZM301.34,196.96c-.31-1.84-.08-2.43,1.19-3.08.94,1.99.64,2.77-1.19,3.08ZM301.86,145.45c-.12.39-.23.78-.38,1.26q-.58-.85.38-1.26ZM300.02,177.56c.51,2.46,1.01,4.93,1.53,7.39.08.37.2.78.43,1.06.51.62.47,1.27.43,2.01-.05.96.14,1.93.18,2.9.03.58.05,1.27-.76,1.34-.74.07-.97-.46-1.05-1.12-.06-.44-.14-.94-.39-1.29-.65-.88-.54-1.76-.01-2.77-.67-.09-1.15-.16-1.69-.23.04-.24.03-.43.1-.59.71-1.68.49-3.27-.41-4.81-.21-.36-.41-.81-.38-1.21.1-1.28.3-2.56.46-3.79-.39-.46-1.06-.91-1.15-1.45-.16-.92.28-1.76,1.62-2.38.39,1.81.74,3.37,1.07,4.94ZM289.98,134.76c.37,1.15.77,2.28,1.1,3.44,1.15,4.11,2.37,8.19,2.91,12.46.26,2.01,1.34,3.91,1.91,5.89.45,1.55.67,3.17,1.01,4.75.3,1.39.69,2.76.92,4.16.2,1.2.32,2.44.27,3.65-.02.52-.58,1.01-1,1.69-.65-1.15-1.26-1.99-1.61-2.92-.21-.56,0-1.26-.04-1.9-.05-.67-.16-1.34-.25-2.01-.03-.23-.18-.52-.09-.67.68-1.12-.11-2.23.15-3.34-.14-.04-.27-.07-.41-.11-.21.65-.42,1.31-.65,2.04-.42-1.8-.15-2.9,1.12-4.25h-2.31c0-.96-.23-1.87.04-2.59.89-2.34-.09-3.99-1.79-5.55.11-.9.38-1.86.32-2.8-.09-1.48-.28-2.98-1.29-4.21-.16-.19-.32-.45-.34-.69-.19-2.3-.35-4.61-.52-6.92.18-.04.36-.08.53-.13ZM287.51,100.27c.06.1.11.19.17.29-.09.07-.17.14-.26.2-.06-.1-.17-.2-.16-.28.01-.08.16-.14.24-.21ZM272.18,77.45c.33.7.61,1.43.87,2.16.16.44.22.91.15,1.44-1.46-1.79-3.33-3.29-3.41-5.86-.01-.4-.39-.79-.6-1.18-.52-.97-1-1.95-1.56-2.89-.54-.9.29-1.57.32-2.37,1.41,2.9,2.83,5.8,4.23,8.71ZM265.84,63.73c.29.83.59,1.66.88,2.49-.44-.76-.88-1.53-1.32-2.29.15-.07.3-.13.44-.2ZM254.97,81.01c.15.32.31.51.33.73.01.1-.23.23-.36.34-.14-.19-.32-.36-.4-.57-.03-.08.2-.25.42-.5ZM248.42,24.23c-.84,1.16-.85,1.15-1.68-.27.67.11,1.18.19,1.68.27ZM245.86,21.51s.1.17.16.29c-.15.08-.3.16-.44.25-.06-.13-.11-.26-.17-.39.15-.06.29-.13.45-.15ZM259.63,123.02c-.24.49-.07,1.16-.19,1.72-.11.51-.35.99-.53,1.48-.14-.01-.28-.02-.43-.03-.19-.45-.4-.89-.55-1.35-.44-1.29-.87-2.58-1.26-3.89-.15-.49-.29-1.02-.25-1.51.09-1.12.8-1.89,1.62-1.87,1.07.02,1.41.78,1.61,1.65.3,1.27.59,2.51-.04,3.8ZM262.69,143.92c-.25.23-.26.22-1.14-.32.91-.75,1.05-1.64.71-2.77-.49-1.6-.77-3.26-1.18-4.89-.22-.89-.49-1.68.23-2.56.36-.43.34-1.2.42-1.83.08-.61.09-1.23.12-1.85.13-.03.26-.06.39-.09.18.34.49.68.52,1.03.08.9.18,1.84,0,2.71-.57,2.82-.15,5.55.55,8.26.24.92.06,1.66-.62,2.3ZM270.86,171.33c1.12,1.25.97,2.56,1.01,3.82-.77-1.06-1.41-2.16-1.01-3.82ZM271.67,160.54c-.7-2.82-2.49-5.26-2.71-8.24-.05-.69-.42-1.36-.69-2.02-.26-.65-.73-.88-1.49-.51-.35,3.88.72,7.63,1.76,11.38-.22.05-.43.09-.65.14-.2-.63-.43-1.25-.61-1.89-.34-1.18-.66-2.36-1-3.54-.35-1.24-.67-2.49-1.07-3.72-.53-1.64-1.14-3.25-1.68-4.88-.11-.34-.06-.74-.08-1.12q1.44.06,1.73,1.92c1.27-.35,1.31-1.46,1.51-2.39.19-.88.14-1.82,1.29-2.37,1.17,4.06,2.28,7.96,3.44,11.85.07.22.53.33.66.41.49,2.84,1.21,5.55,1.02,8.43-.48-1.14-1.12-2.24-1.42-3.43ZM266.22,142.75c-.87-1.31-1.2-2.95-.91-4.98.66.82.94,1.61.91,2.55-.02.84,0,1.67,0,2.43ZM272.84,359.05c-.39-1.32.08-1.98,1.56-2.6,0,.88.06,1.67-.02,2.44-.04.37-.34.71-.53,1.07-.35-.3-.9-.54-1.01-.91ZM274.39,373.33s-.06-.19-.09-.29c.16-.04.31-.1.47-.11.02,0,.06.19.11.34-.17.02-.34.06-.5.05ZM275.7,175.53c-.37-1.7-.76-3.39-1.13-5.08-.26-1.17-.51-2.34-.79-3.6.34.07.53.07.55.13.59,1.62,1.2,3.24,1.73,4.88.22.67.3,1.38.41,2.07.16.94.29,1.89.43,2.84-.8-.03-1.06-.57-1.21-1.24ZM276.93,178.17v-1.29c.11.41.22.82.32,1.24-.11.02-.22.04-.32.06ZM277.54,216.85c.09-.88.68-.99,1.31-1.03-.29.51-.46,1.15-1.31,1.03ZM278.86,215.8s0,0,0,0c-.26-.27-.53-.53-.76-.82-.73-.91-.65-1.09.75-1.64.6.81.48,1.63.01,2.45ZM278.29,189.06v-4.63c1.32.46,1.41,1.5,1.56,2.37.17,1.05-.65,1.54-1.56,2.26ZM281.69,334.77c-.8-1.01-.93-1.89.02-2.93.32-.35.28-1.11.25-1.68-.2-4.46-.44-8.92-.65-13.39-.07-1.49-.11-2.98-.11-4.47,0-.55.17-1.11.26-1.66.11,0,.22,0,.33.01.25.92.5,1.83.75,2.75.07.25.17.51.16.76-.06,2.7-.2,5.4-.18,8.1.01,2.25,0,4.53.38,6.73.36,2.06.7,4.05.51,6.16-.12,1.32.26,2.69.41,4.04.13,1.15.29,2.31-.96,3.57-.17-1.04-.32-1.75-.39-2.46-.15-1.41-.23-2.84-.39-4.25-.05-.44-.14-.95-.39-1.28ZM284.18,353.41c0,1.18-.42,1.49-1.97,1.36.34-1.48,1.69-2.41,1.28-4.05-.35-1.36-.33-2.82-.46-4.23-.07-.69-.11-1.39-.16-2.1.28.02.49,0,.5.03.28,2.04.58,4.07.79,6.12.1.95.03,1.92.03,2.89ZM286.22,379.05l.04.29c-.23.05-.47.16-.69.14-.21-.02-.41-.16-.61-.25.02-.08.04-.15.06-.23.4.02.8.04,1.2.05ZM286.57,276.68c-.07-.09-.2-.18-.19-.27,0-.14.1-.28.2-.54.16.24.31.38.31.5,0,.1-.2.2-.31.3ZM288.24,372.39c-.26-.17-.52-.33-.77-.5.3.03.6.05.91.08-.04.14-.09.28-.13.42ZM287.99,290.37c-.28-.27-.71-.5-.79-.82-.13-.53-.14-1.16.82-1.44.16.3.5.65.48.97-.03.44-.33.86-.51,1.29ZM287.6,279.1c.25.74.44,1.13.51,1.54.14.8.21,1.62.34,2.42.14.84,0,1.52-.89,1.87-.66-1.41-.75-4.5.04-5.83ZM297.08,286.64c-.76-.72-.63-1.42-.29-2.11l.48.02c-.06.7-.13,1.4-.19,2.1ZM308.01,336.2c-.75.19-1.3.33-1.84.47-.14,1.64-1.36,2.82-4.31,4.11.2-3.36-.3-6.38-3.82-8.23-.11-.98-.25-2.2-.39-3.42-.28-2.41,1.19-4.34,1.78-6.51.2-.73.37-1.47.46-2.22.17-1.34.35-2.68.4-4.03.04-1.42-.05-2.84-.13-4.27-.02-.3-.2-.58-.35-.98-1.26,1.06-.96,2.65-1.73,4.24-.21-.8-.4-1.18-.41-1.57-.05-2.35-.06-4.64,1.53-6.68.54-.69.5-1.84.69-2.79.54-2.72.81-5.48,1.06-8.24.19-2.09.23-4.12-.6-6.13-.44-1.06-.63-2.25-.78-3.41-.16-1.22-.1-2.43-1.14-3.4-.27-.26-.13-1.09,0-1.62.3-1.32.72-2.63.07-4.1-.99.77-1.52,1.51-1.43,2.8.07,1.05-.29,2.16-1.92,2.68.17-1.05.23-1.86.43-2.64.57-2.31.99-4.54-.49-6.75-.4-.6-.44-1.74-.16-2.43.85-2.12.37-4.24.31-6.36-.05-1.62-.15-3.23-.23-4.85-.02-.32.01-.66-.07-.97-.46-1.7-1.32-3.34-.59-5.19.1-.25-.05-.65-.19-.93-1.08-2.29-1.17-4.74-1.19-7.2,0-.39.03-.82-.13-1.15-1.2-2.43-1.11-5.04-1.06-7.64.03-1.71-.22-3.21-1.19-4.77-1.21-1.96-1.17-4.38-1.01-6.64.16-2.22.26-4.41-.3-6.58-.02-.06-.05-.13-.04-.19.07-3-.84-5.88-1.16-8.83-.24-2.24-.79-4.46-.83-6.7-.04-2.38-.9-4.73-.32-7.13.06-.24.09-.57-.03-.75-.74-1.09-.36-2.28-.33-3.42.03-1.13.11-2.21-.92-3-.18-.14-.3-.44-.34-.68-.28-1.71-.53-3.43-.8-5.14-.04-.25-.09-.53-.22-.74-1.4-2.36-1.65-4.98-1.84-7.63-.04-.54-.32-1.2-.72-1.53-1.12-.93-1.31-2.21-1.57-3.47-.55-2.73-1.02-5.47-1.55-8.2-.27-1.37-.03-1.72,1.45-2.08.38-.09.74-.23,1.1-.38,1.22-.51,1.63-1.09,1.01-2.23-.77-1.41-.31-3.28-1.79-4.42-.25-.19-.07-.97-.05-1.48.1-2.41-.67-4.51-2.09-6.52-.97,1.14-1.03,2.24-.09,3.57.82,1.16.83,2.27.3,3.48-.1.24-.25.45-.55,1-.29-.78-.47-1.09-.52-1.42-.15-1.14-.19-2.3-.4-3.43-.25-1.33-.5-2.69-1-3.93-.47-1.16-1.28-2.19-1.87-3.19-.95.15-1.62.26-2.22.36-.15-.33-.28-.49-.24-.55.89-1.54.56-3.02.1-4.64-.5-1.72-.68-3.55-.87-5.34-.12-1.05-.2-2.03-.96-2.88-.23-.26-.07-.85-.12-1.29-.11-1.02-.2-2.05-.38-3.06-.18-1.02-.42-2.03-.7-3.03-.26-.93-.57-1.85-.92-2.75-.86-2.23-1.72-4.46-2.65-6.66-.91-2.14-1.93-4.24-2.88-6.37-.5-1.12-.95-2.27-1.42-3.4-.3-.72-.56-1.45-.89-2.16-.74-1.54-.76-1.58-2.43-1.35-.74.1-1.13-.2-1.39-.77-.42-.95-1.02-1.6-2.09-1.86-.36-.08-.74-.53-.92-.9-.51-1.05-1.07-2.11-1.35-3.23-1.11-4.54-3.18-8.62-5.67-12.53-.59-.92-1-1.97-1.39-2.99-.14-.35.02-.81.06-1.58.59.48.95.7,1.22,1,.77.87,1.57,1.71,2.22,2.67,1.21,1.78,2.79,3.37,2.36,5.93-.16.97.46,2.13.89,3.14.9,2.08,1.89,4.12,2.88,6.16.18.37.52.68.86,1.12.57-.44,1.01-.81,1.48-1.13,1.26-.85,2.15-.66,3.23.41,2.03,1.99,3.6,4.21,4.49,6.96.32.98,1.11,1.95,1.94,2.61,1.29,1.03,2.1,2.3,2.64,3.78,1.05,2.86,2.15,5.69,2.75,8.71.49,2.45,1.09,4.9,2.33,7.19.68,1.25.61,2.89.92,4.34.17.81.42,1.6.66,2.39.62,2.11,1.22,4.24,1.88,6.34.87,2.77,1.88,5.48,3.94,7.63,1.07,1.12,1.07,2.6,1.43,3.96.17.66.43,1.31.63,1.96.38,1.24.82,2.46,1.11,3.72.31,1.33.45,2.69.72,4.03.24,1.21.75,2.28,1.43,3.36,1.27,2.02,2.12,4.22,2.3,6.71.14,1.99.54,3.95.02,6.03,1.8.57,1.99,1.93,1.92,3.44-.05.91-.06,1.82-.03,2.73.02.51-.02,1.16.27,1.49.97,1.11.85,2.41.87,3.7.03,2.01.24,3.95.89,5.92.6,1.79.83,3.79.4,5.73-.08.36-.26.73-.48,1.04-1.11,1.58-1.38,3.33-1.18,5.2.08.72.1,1.52.95,1.75.82.22,1.09-.5,1.42-1.06.06-.11.17-.19.31-.34.46-.04.97-.09,1.48-.13,2.08-.14,2.5.21,2.75,2.3.07.58.12,1.17.09,1.75-.05.97-.21,1.94-.26,2.91-.05.88,0,1.75-.28,2.76-.2-.32-.53-.63-.56-.97-.1-.9,0-1.82-.1-2.73-.07-.65-.3-1.28-.46-1.92-.16,0-.32.02-.49.02-.18.8-.37,1.61-.57,2.48-1.07-.16-1.45-.99-2.07-1.49-.3-.24-.89-.42-1.16-.28-.28.15-.5.74-.47,1.11.05.57.35,1.11.52,1.67.37,1.18.69,2.37,1.1,3.53.33.91.76,1.79,1.45,2.6-.2.73-.4,1.46-.63,2.33.33-.07.54-.05.65-.14,1.14-.91,1.2-.94,1.86.14.29.47.47,1.01,1.12.78.71-.24.67-.89.55-1.48-.06-.31-.19-.63-.36-.9-.56-.94-.32-1.73.51-2.55.94.66,1.47,1.5,1.53,2.68.14,2.52.33,5.04.49,7.56,0,.06-.03.16,0,.19,1.47,1.37.51,3.34,1.2,4.91.2.46.26,1.01.26,1.52,0,1.38.08,2.72.91,3.92.2.29.2.74.23,1.13.17,2.18.25,4.37.5,6.54.2,1.73.59,3.44.9,5.16.12.64.32,1.27.35,1.91.01.31-.28.64-.44.96-.27-.28-.74-.54-.79-.86-.26-1.58-.47-3.18-.56-4.78-.05-.87-.24-1.43-1.18-1.37-.76.05-1.19.9-.92,1.83.12.43.47.8.57,1.23.15.61.42,1.39.18,1.86-.79,1.57-.33,3.08.01,4.57.38,1.67.55,3.14-.28,4.85-.91,1.88-1,4.09-1.22,6.21-.21,2.05-.81,4.06-1.28,6.31,1.46.74,1.73,1.94,1.6,3.33-.06.64-.13,1.31-.03,1.94.12.74.24,1.58.67,2.13.63.79.89,1.52.67,2.5-.09.4-.1,1.09.14,1.26,1.18.85,1.2,2.07,1.3,3.31.02.31.17.6.3,1.06.64-.38,1.17-.69,1.85-1.09.32,1.2,2.1,1.31,1.9,3.03-1.49.26-1.87,1.33-1.89,2.69,0,.5-.09,1.08-.35,1.5-1.82,2.99-1.84,6.1-.79,9.33.8,2.46.25,4.89-.27,7.3-.19.88-.55,1.75-.97,2.55-.75,1.42-1.28,2.82-.78,4.47.12.4-.06.89-.11,1.34-.12,1.28-.21,2.56-.37,3.83-.1.8.19,1.38.78,1.88.35.29.7.59.99.93.74.87,1.47,1.62,2.71-.01l.06.59c-.23.73-.38,1.49-.7,2.17-.91,1.94-1.89,3.84-2.83,5.76-.61,1.27-.61,1.7-.04,3.24,1.63-.5,3.62-.21,4.51-2.58.89,1.47-.81,2.45.04,3.62ZM295.61,209.68c-.04.21-.18.4-.35.76-.15-.32-.28-.46-.27-.59.02-.15.17-.29.27-.43.12.09.36.2.35.26ZM307.87,322.56c-.57-.84-1.03-1.67-.32-2.47.41-.46.96-.61,1.61.12-.41.75-.85,1.55-1.29,2.35ZM321.5,327.06c-.91.43-1.69,1.17-2.51,1.79-.81.62-1.6,1.26-2.73,2.15-.27-1.88-.54-3.38-.68-4.88-.17-1.87-.34-3.76-.3-5.64.07-3.31.3-6.61.45-9.91.04-.84.12-1.68.05-2.51-.06-.77-.17-1.53-1.17-1.8-.73-.19-.96-.86-.75-1.58.22-.74.49-1.47.81-2.17.57-1.26.59-2.35-.17-3.92-.41.88-.74,1.58-1.2,2.56-.82-2.91-1.54-5.5-1.06-8.24.01-.06.05-.14.03-.19-.68-2.14-.09-4.3-.09-6.44,0-.56.11-1.13.28-1.66.23-.67.58-1.29.91-2.02-.3-.24-.52-.47-.79-.6-1.08-.54-1.57-1.32-1.18-2.54.3-.92-.02-1.62-.72-2.25-.92-.83-1.01-1.87-.72-3.04.51-2.05,1.04-4.01.55-6.27-.47-2.17-.09-4.52-.05-6.8,0-.3.2-.59.34-1,1.43.33,2.63.15,2.99-1.51.66-.04,1.22-.07,1.77-.1.31-.8.15-1.46-.51-1.73-.41-.17-1.24-.11-1.44.17-1.1,1.54-2.98,1.64-4.65,2.72.43-1.09.96-1.92,1.07-2.81.12-.92-.17-1.89-.27-2.81-.49-.13-.91-.25-1.39-.38.1-.28.12-.56.23-.6.59-.21,1.2-.37,1.8-.55-.4-.28-.79-.56-1.4-.99,1.29-.48,1.87-1.23,1.62-2.55-.42-.22-.92-.47-1.28-.65-.27-2.05-.51-3.95-.79-6.1.38-.16.95-.39,1.52-.63,1.47.69,1.14,2.13,1.3,3.33.07.55-.09,1.12-.15,1.69.57-.48,1.13-.96,1.81-1.53-.87-.96-.8-1.8-.31-2.92.48-1.1.32-2.47.44-3.73h0s0,0,0,0h0s0,0,0,0c0,0,0,0,0,0-.25-.48-.66-.95-.72-1.46-.73-5.46-1.39-10.94-2.1-16.4-.23-1.79-1.14-3.45-.97-5.32.03-.32.05-.63.08-.92,1.77-.55,2.02-.45,2.35,1.15.66,3.18,1.01,6.45,1.98,9.52.59,1.87.39,3.65.6,5.47.37,3.27.62,6.57,1.22,9.8.53,2.89.64,5.76.68,8.67.02,1.42.26,2.84.36,4.26.28,4.07.53,8.15.82,12.23.32,4.4.69,8.79,1.02,13.18.18,2.33.28,4.67.5,6.99.31,3.22.72,6.43,1.05,9.65.12,1.16.16,2.33.23,3.5.07,1.16.1,2.32.2,3.48.25,2.91.77,5.81.73,8.71-.06,3.94,1.09,7.67,1.53,11.52.09.77.16,1.55.2,2.32.05,1.08-.39,1.79-1.44,2.28Z"/>
  <path class="cls-1" d="M311.24,246.64s0-.03,0-.04c-.01,0-.02.02-.03.03h.03Z"/>
  <path class="cls-1" d="M274.58,64.91c.31.59.79,1.08,1.19,1.62.19-.13.38-.25.57-.38-1.14-2.36-2.29-4.73-3.44-7.09-.28-.58-.6-1.14-.88-1.72-1.24-2.55-2.46-5.11-3.74-7.64-.17-.33-.61-.53-.97-.82-.7.75-.33,1.29-.03,1.87,2.44,4.72,4.85,9.44,7.3,14.15Z"/>
  <path class="cls-1" d="M261.24,40.3c1.34.53.76,1.85,1.56,2.5.45.36.78.66,1.45.15-.48-1.31-.53-2.86-2.3-3.38-.32-.09-.75-.49-.77-.78-.11-1.46-1.47-1.7-2.28-2.51.05.53.18,1.01.44,1.41.59.92,1.05,2.27,1.89,2.61Z"/>
  <path class="cls-1" d="M270.57,370.38c.14-1.72.25-3.38-1.23-4.64-.47.76-.88,1.33-1.19,1.96-.27.54-.1,1.21.53,1.15,1.23-.12,1.46.73,1.9,1.53Z"/>
  <path class="cls-1" d="M295.32,378.34c.48,1.49.46,2.99,1.75,4.18.96-2.46.45-3.73-1.75-4.18Z"/>
  <path class="cls-1" d="M276.51,67.52c-.28,1.89.65,4.16,2.22,5.71.27-2.39-1.62-3.56-2.22-5.71Z"/>
  <path class="cls-1" d="M266.27,47.97c.56-1.82-.28-2.8-1.71-3.55.04,1.34.4,2.56,1.71,3.55Z"/>
  <path class="cls-1" d="M284.88,88.97c-.03-2.11-.32-2.91-1.5-4.04-.16,1.44.55,3.34,1.5,4.04Z"/>
  <path class="cls-1" d="M280.89,78.51c-.13.85.52,3.05,1.42,4.51.11-2-.44-3.6-1.42-4.51Z"/>
  <path class="cls-1" d="M175.52,336.84c-.72-.46-1.49-.97-2.27-1.47.76,2.32.89,2.37,2.27,1.47Z"/>
  <path class="cls-1" d="M281.59,394.35c-.21-.04-.78.52-.74.6.18.39.51.7.79,1.05.25-.22.51-.45.92-.82-.4-.36-.65-.76-.97-.83Z"/>
  <path class="cls-1" d="M180.97,33.84q-1.86-.19-1.72,1.3c.5-.37.99-.75,1.72-1.3Z"/>
  <path class="cls-1" d="M269.25,372.21c.44.67.64,1.63,2.35,1.36-.83-.75-1.39-1.26-1.95-1.76-.13.13-.27.27-.4.4Z"/>
  <path class="cls-1" d="M257.76,35.44q.27-1.43-1.42-1.96c.59.81,1.01,1.39,1.42,1.96Z"/>
  <path class="cls-1" d="M297.45,127.53c.14.79.24,1.36.34,1.93q.44-1.04-.34-1.93Z"/>
  <path class="cls-1" d="M270.88,342.29v1.38l.42.03c.04-.46.09-.92.13-1.38-.18-.01-.37-.02-.55-.03Z"/>
  <path class="cls-1" d="M269.62,302.41c-.16-.03-.33-.05-.49-.08-.09.38-.18.76-.27,1.14.21.04.42.07.63.11.04-.39.09-.78.13-1.17Z"/>
  <path class="cls-1" d="M302.26,240.79c.86-1.54,1.44-3.39.31-4.67-1-1.13-1.12-2.16-1.15-3.41-.01-.51-.11-1.05.02-1.53.26-1-.08-1.62-1.1-2.07-1.57,3.2-.93,6.55-1.74,9.7.13.08.26.16.39.23.63-.36,1.25-.72,1.87-1.08,1.62.37-.19,2.33,1.4,2.84Z"/>
  <path class="cls-1" d="M300.21,224.47c-.5-1.01-.53-1.99-.61-3.03,0-.04-.22-.07-.46-.14-.84,1.64-2.43,2.94-2.33,5.2.79-.06,1.43-.09,2.07-.18,1.07-.14,1.78-.95,1.33-1.86Z"/>
  <path class="cls-1" d="M285.54,173.09c-.98-.07-1.24.83-1.74,1.38-.48.53-.67,1.13.14,1.7.79-.32,1.62-.66,2.46-1.01.24-1.45,0-2.02-.86-2.08Z"/>
  <path class="cls-1" d="M283.8,168.81q-.7,3.75-.13,4.48c.61-1.52.41-3.01.13-4.48Z"/>
  <path class="cls-1" d="M282.09,165.16c.41-1.05,1.04-1.93-.02-3.17q-.71,1.89.02,3.17Z"/>
  <path class="cls-1" d="M263.27,102.1c-.54.9-.31,1.44.75,1.99.38-1.07.24-1.65-.75-1.99Z"/>
  <path class="cls-1" d="M300.8,253.75c0-.05-.05-.11-.16-.32-1.15.54-1.48.89-1.26,1.38.06.15.29.32.43.31.86-.05.91-.73.99-1.37Z"/>
  <path class="cls-1" d="M314.17,290.04c1.41-1.28,2.94-2.4,3.88-4.34-3.69.29-5.17,2.02-3.88,4.34Z"/>
  <path class="cls-1" d="M314.67,238.45c-.29-1.91-.58-3.82-.98-5.7-.15-.71-.57-1.36-.88-2.04.13,2.58.26,5.15.4,7.73.3.33.6.67,1.08,1.2.21-.62.42-.92.38-1.19Z"/>
  <path class="cls-1" d="M313.2,238.45s0,0,0-.01c0,0,0-.01-.01-.02,0,0,0,.02.01.02h0Z"/>
  <path class="cls-1" d="M312.79,230.65h-.01s.02.04.03.06c0-.02,0-.05,0-.07,0,0,0,0-.01,0Z"/>
  <path class="cls-1" d="M313.19,238.42s0,0,0,0c0,0,0,0,0,0,0,0,0,0,0,.01h0Z"/>
  <path class="cls-1" d="M312.79,230.63s0,.02,0,.03c0,0,0,0,.01,0h.01s-.01-.02-.01-.02Z"/>
  <path class="cls-1" d="M311.67,223.83c.06,2.33.08,4.4.73,6.41.05.16.25.26.39.39.72-1.81.25-5.36-1.12-6.8Z"/>
  <path class="cls-1" d="M317.51,278.68c-.09-.82.07-1.71-.47-2.39-.16.03-.31.06-.47.09.24,2.41.48,4.83.73,7.24.17.01.34.03.51.04.7-.77.05-1.66.03-2.48-.01-.83-.24-1.66-.33-2.5Z"/>
  <path class="cls-1" d="M315.97,262.08c-.37,2.04.19,4.04.42,6.05.16-2.03.63-4.1-.42-6.05Z"/>
  <path class="cls-1" d="M314.26,246.03c.62-1.84,1.07-3.68,0-5.52v5.52Z"/>
  <path class="cls-1" d="M320.49,319.57c.08-1.17.46-2.39-.63-3.7-.31,1.56-.21,2.69.63,3.7Z"/>
  <path class="cls-1" d="M314.09,262.84c-.88.51-.96,1.22-.61,2.3q1.37-1.16.61-2.3Z"/>
  <path class="cls-1" d="M310.46,252.49s-.02.02-.02.02c.01,0,.03,0,.04-.01,0,0-.02,0-.03-.01Z"/>
  <path class="cls-1" d="M313.17,251.69c-.84.25-1.76.53-2.69.81.34.13.68.31,1.03.38,1.43.3,1.54.18,1.66-1.19Z"/>
  <path class="cls-1" d="M311.2,248.05c.42.66.93.5,1.29-.31-.42-.37-.84-.73-1.25-1.09-.03.48-.25,1.08-.04,1.4Z"/>
  <path class="cls-1" d="M311.24,246.64s-.03-.01-.03-.01c0,0,.02.01.03.02,0,0,0,0,0-.01Z"/>
  <path class="cls-1" d="M316.95,272.53c-.09,0-.19.02-.28.02v1.87c.13,0,.25-.02.38-.02-.03-.62-.07-1.25-.1-1.87Z"/>
  <path class="cls-1" d="M314.44,284.36c.35-.04.71-.07,1.06-.11,0-.11,0-.23,0-.34-.35-.02-.7-.04-1.05-.06,0,.17,0,.34,0,.51Z"/>
  <path class="cls-1" d="M310.69,214.84c-.16.02-.32.09-.47.14.05.1.09.27.14.27.16,0,.32-.05.5-.09-.07-.15-.13-.33-.16-.32Z"/>
  <path class="cls-1" d="M314.07,275.39c-.06.16-.12.32-.18.47.11.04.29.14.31.11.11-.12.17-.29.25-.44-.11-.04-.22-.08-.39-.15Z"/>
  <path class="cls-1" d="M310.94,218.24c.09.13.23.22.34.32.03-.11.06-.23.1-.34-.09-.08-.17-.16-.26-.24-.06.09-.2.23-.18.26Z"/>
</svg>