<?xml version="1.0" encoding="UTF-8"?>
<svg id="Layer_1" data-name="Layer 1" xmlns="http://www.w3.org/2000/svg" viewBox="0 0 422.24 396">
  <defs>
    <style>
      .cls-1 {
        fill: #488cca;
        stroke-width: 0px;
      }
    </style>
  </defs>
  <path class="cls-1" d="M396.67,332.42c-.58.37-1.6.83-1.99.58-1.69-1.09-3.5-2.17-4.52-4.37.88-.12,1.6-.06,2.13-.34.51-.27,1.06-.87,1.14-1.4.08-.52-.33-1.54-.68-1.62-1.93-.44-3.91-.71-5.89-.95-1.39-.17-2.27.74-3.15,1.67-.74.78-1.59,1.38-2.67.59.18-3.08.17-3.02-2.98-3.48-.98-.15-1.95-.63-2.84-1.12-1.23-.67-2.37-1.49-3.71-2.34-.45-1.16-1-2.55-1.48-3.78-1.33-.22-2.38-.4-3.61-.61,1.02-1.48,2.75-1.79,3.01-3.55-1.85-.64-3.88,1.79-5.62-.53.42-.37.71-.8,1.1-.93,1.9-.66,2.12-2.29,2.37-3.9.18-1.13-.35-1.83-1.51-2-.75-.11-1.51-.29-2.26-.32-2.1-.1-3.76-1.36-3.89-3.16-.21-2.97-4.14-4.43-2.86-7.84.1-.27-.4-.84-.72-1.17-1.47-1.54-1.39-3.41-1.32-5.36,1.58-.73,2.66-.58,3.74.88,1.55,2.1,3.59,2.36,6.05,1.4,1.48-.58,3.09-.85,4.64-1.23.59-.15,1.2-.22,2.19-.39-.69-.76-1.06-1.28-1.54-1.67-1.4-1.14-3.01-2.07-4.25-3.35-2.3-2.37-5-4.09-8-5.33-1.43-.59-2.54-1.52-2.93-2.93-1.1-4.02-2.08-8.08-2.99-12.15-.15-.67.3-1.46.42-2.21.3-1.87.53-3.61-1-5.29-1.3-1.41-1.09-3.24-.03-5.11.68.53,1.16.98,1.7,1.32,1.13.72,2.07.36,2.41-.86.77-2.79-1.35-5.42-4.19-5.21-2.42.19-3.24-.32-3.4-2.61-.17-2.47-.1-4.96-.01-7.43.02-.61.54-1.21,1-2.17,1.18,1.7,2.05,2.94,2.92,4.19.24-.06.49-.11.73-.17.09-.87.31-1.75.25-2.61-.29-3.98-.67-7.96-1.02-11.94-.05-.57-.11-1.14-.21-1.7-.25-1.36-.7-2.58-2.15-3.13-1.26-.48-1.48-1.55-1.62-2.76-.33-2.83-.76-5.65-1.2-8.46-.16-1.07-.46-2.09-2.15-2.04-.4,1.2-.83,2.47-1.26,3.78-1.83-.25-2.32-1.32-2.02-2.68.45-2.04.12-3.91-.45-5.89-.3-1.04,0-2.51.56-3.49,1.65-2.93,1.8-3.04,2.02-6.65.03-.57.23-1.14.19-1.7-.13-2.16-.24-4.33-.54-6.47-.07-.48-.81-1.03-1.36-1.24-.69-.26-1.5-.16-2.26-.27-1.22-.17-2.46-.8-2.52-1.97-.08-1.52-1.39-1.78-2.16-2.61,2.96-1.75,3.34-3.01,1.92-5.95-.7-1.45-1.52-2.85-2.21-4.3-.23-.48-.54-1.2-.35-1.57.87-1.67.04-3.11-.3-4.68-.56-2.57-1.39-5.26-.08-7.8.82-1.59.8-2.79-.44-4.12-1.63-1.75-1.64-3.69-.53-5.8.51-.97.8-2.17.79-3.26-.01-3.22.06-6.43-.78-9.64-.71-2.75-.45-5.5,2.49-7.23,1.39-.82,1.38-2.26.92-3.57-.57-1.61-1.2-3.23-2.08-4.69-2.05-3.38-1.36-6.83.41-9.74,1.66-2.73,2.04-5.18,1.15-8.09-.41-1.34-.86-2.83-.66-4.16.29-1.97-.58-3.07-1.94-4.09-2.25-1.7-2.19-1.67-.69-4.23.43-.73.71-1.85.47-2.6-.58-1.78-1.57-3.43-2.26-5.18-.25-.63-.33-1.48-.11-2.1,1.17-3.3,2.47-6.54,3.69-9.82.62-1.68,1.16-3.38,1.78-5.17-1.92-1.35-3.74-2.72-5.65-3.95-1.92-1.24-2.81-2.89-3.02-5.19-.27-2.95.98-5.4,2.07-7.92.62-1.44.66-2.68-.12-4.06-1.03-1.82-2.01-3.69-2.81-5.62-.83-2.03-2.07-3.52-3.96-4.7-1.04-.65-1.84-1.87-2.45-3-1.33-2.49-2.22-5.26-3.77-7.59-1.28-1.92-2.03-3.78-2.12-6.06-.14-3.64-2.59-6.47-6.12-7.33-.83-.2-1.69-.31-2.51-.55-4.35-1.28-8.26-.05-12.01,2.09-.74.42-1.42,1-2.21,1.29-6.3,2.37-11.76,6.21-17.24,9.96-4.79,3.28-9.41,6.84-13.97,10.44-5.09,4.02-9.7,8.59-13.67,13.72-4.07,5.27-7.85,10.76-11.76,16.15-1.17,1.62-2.48,3.15-3.49,4.86-2.65,4.5-5.32,9-7.72,13.63-3.8,7.35-7.41,14.8-11.05,22.23-.92,1.88-1.62,3.87-2.51,5.76-2.6,5.49-3.8,11.57-7.1,16.77-.25.39-.33.89-.45,1.35-.63,2.49-1.13,5.03-1.9,7.48-1.47,4.61-3.11,9.17-4.64,13.76-1.05,3.15-2.16,6.3-3.01,9.5-1.22,4.6-2.12,9.28-3.36,13.87-1.37,5.05-3.33,9.96-4.4,15.06-1.52,7.26-2.47,14.64-3.64,21.97-.6,3.76-1.07,7.55-1.79,11.29-.74,3.82-1.76,7.59-2.57,11.4-.82,3.83-.64,7.72-.39,11.6.07,1.16.27,2.27-.59,3.24-1.07,1.19-2.12,2.4-3.2,3.63-2.74-1.31-3.48-3.94-4.88-6.01-.25-.37.07-1.13.15-1.87,1.7.52,2.31,2.91,4.52,1.76-.42-1.2-.81-2.35-1.22-3.49-.31-.88-.93-1.76-.91-2.62.05-1.93-.75-2.89-2.5-3.63-2.12-.9-3.32-2.78-4.11-4.89.52-.28.74-.49.84-.44,2.22.95,4.69,1.46,5.86,4.04.9,1.98,2.17,2.73,3.16,2.24.96-.48.81-1.58-.38-3.79-1.4-2.59-2.76-5.21-4.09-7.84-.99-1.95-1.89-3.95-2.84-5.92-.59-1.23-1.3-2.26-2.79-2.64-3.47-.88-6.58-4.87-6.57-8.31,0-.36.11-.78.31-1.08,1.39-2.11.73-4.22.02-6.3-1.65-4.83-3.35-9.65-5.04-14.46-1-2.85-1.69-5.88-3.12-8.5-1.81-3.31-3.31-6.73-3.9-10.36-.59-3.62-.33-7.38-.43-11.08,0-.18.08-.37.16-.54.55-1.17,1.68-1.28,2.42-.19.39.58.69,1.21,1.25,2.21.31-.79.53-1.11.55-1.44.17-2.84-1.15-4.91-3.87-5.9-1.67-.61-2.93-1.52-2.9-3.43.05-3.21-1.04-6.13-2.05-9.11-.5-1.48-.94-3.36-.46-4.72.97-2.74.01-4.76-1.28-6.97-.69-1.18-1.23-2.61-1.32-3.96-.41-5.78-3.09-9.02-8.69-9.94-1.5-.25-2.63-.86-3.75-1.84-2-1.75-4.01-3.5-6.71-4.22-.87-.23-1.6-.98-2.39-1.51-2.66-1.81-5.16-3.93-8.01-5.36-3.47-1.75-6.57-3.83-9.18-6.67-1.12-1.22-2.47-1.95-4.02-2.58-1.82-.74-3.67-1.73-5.1-3.05-3.18-2.94-6.63-5.33-10.6-7.1-4.66-2.07-9.44-2.06-13.88-.12-3.93,1.71-7.55,4.26-10.19,7.88-.45.61-1.01,1.14-1.52,1.71-2.48,2.76-5.08,5.41-7.39,8.29-3.09,3.86-5.7,8.06-8.43,12.17-2.35,3.53-2.78,7.93-5.75,11.04-.23.24-.18.73-.31,1.09-.58,1.71-1.05,3.47-1.78,5.11-3.08,6.87-5.92,13.82-8.24,21-1.54,4.79-3.6,9.42-5.21,14.19-1.24,3.67-2.25,7.44-3.19,11.2-2,8.03-3.96,16.08-5.78,24.15-1.72,7.61-3.24,15.26-4.84,22.9-.1.46-.1.95-.14,1.42-.41,4.74-.83,9.48-1.22,14.22-.2,2.37-.53,4.74-.48,7.11.2,11.14-.55,22.3.48,33.44.32,3.49-.19,7.06,1.61,10.32.21.39.13.93.2,1.41.47,3.39.83,6.8,1.43,10.17.76,4.2,1.67,8.38,2.61,12.55,1.07,4.74,2.15,9.48,3.39,14.17,1.37,5.14,2.94,10.23,4.4,15.35.91,3.19,1.71,6.43,2.71,9.59,1.12,3.53,2.57,6.96,3.61,10.51,1.28,4.36,2.07,8.84,2.91,13.31.89,4.73,2.69,9.29,4.1,13.92.08.26.31.47.46.71,1.05,1.7,2.11,3.39,3.14,5.1,2.14,3.53,5.1,6.15,8.91,7.69,2.98,1.2,6.05,2.17,9.07,3.25,4.29,1.52,8.69,1.5,12.92.09,4.95-1.65,9.74-3.61,14.04-6.83,5.01-3.74,9.5-7.96,13.53-12.64,3.47-4.03,6.42-8.52,9.76-12.67,1.97-2.45,3.11-5.25,3.86-8.19.54-2.09,1.1-4.46.62-6.46-1.27-5.27-3.08-10.4-4.7-15.58-1.43-4.58-4.84-8.37-5.38-13.32,0-.09-.08-.17-.12-.26-2.59-5.26-3.79-11.12-7.13-16.07-1.24-1.84-2.1-3.96-2.94-6.04-1.2-2.98-2.22-6.03-3.31-9.06-.06-.18-.05-.38-.08-.57-.71-5.26-1.46-10.51-3.57-15.46-.25-.58-.19-1.3-.23-1.96-.2-3.03-.33-6.06-.58-9.08-.19-2.26-.55-4.51-.81-6.77-.28-2.45-.43-4.92-.83-7.35-.35-2.13-.45-4.15.57-6.13.28-.55.6-1.38.39-1.85-1.05-2.34-1.11-4.76-1.1-7.26.03-5.23-.38-10.48-.08-15.7.28-4.73.71-9.53,2.72-13.95.77-1.68,1.2-3.35,1.24-5.22.06-2.99.65-3.48,3.71-3.82.16-.02.3-.21.51-.36.3-1.53.51-3.13.94-4.68.5-1.79.33-3.47-.77-4.89-1.04-1.35-1.01-2.51-.23-3.93,1.1-2,1.97-4.06,2.29-6.4.16-1.17,1.07-2.6,2.07-3.2,1.36-.82,2.3-1.78,2.86-3.62.62,1.43.93,2.53,1.51,3.45,3.28,5.19,5.12,10.82,5.41,16.96.02.47.12.95.28,1.39,1.1,3.03,2.19,6.07,3.36,9.08,1.69,4.34,3.45,8.66,5.18,12.99.92,2.3,1.83,4.6,2.76,6.9,2.76,6.86,4.92,14.02,9.77,19.86.3.36.46.83.69,1.25,2.82,5.26,5.64,10.52,8.46,15.79,2.11,3.94,4.19,7.9,6.35,11.81,1.3,2.35,2.58,4.65,2.32,7.5-.05.57.49,1.21.78,1.8,3.22,6.47,7.34,12.47,9.88,19.29.29.77.91,1.45,1.48,2.07,1.88,2.02,3.9,3.92,5.72,5.99,2.96,3.38,6.1,6.51,9.81,9.1,1.51,1.06,3,2.52,3.79,4.14,1.48,3.04,3.2,5.92,5.5,8.29,3.3,3.4,6.83,6.62,10.52,9.59,2.27,1.83,4.88,3.43,7.6,4.49,6.06,2.36,12.32,3.91,18.96,3.54,4.75-.26,9.01-1.61,12.53-4.81,2.67-2.42,5.2-5.01,7.6-7.7.83-.93,1.29-2.32,1.58-3.58.76-3.29,1.16-3.64,4.14-2.37,1.32.56,2.39.48,3.45-.37,1.41-1.14,2.87-2.23,4.13-3.51.69-.7,1.15-1.71,1.49-2.66.94-2.61,1.22-5.32,1.31-8.11.06-1.85.85-3.67,1.31-5.51.3-1.19.81-2.39.81-3.59,0-4.53,1-8.98.76-13.56-.2-3.92-.63-7.74-1.65-11.5-.81-3-.96-3.02-3.9-2.04-2.18.72-2.76.44-3.15-1.78-.29-1.63-.71-3.14-1.9-4.37-3.68-3.81-2.82-8.31-2.23-12.77,3.58-.49,4.28-1.03,4.57-3.88.33-3.22.56-6.45.66-9.68.11-3.62.02-7.24.03-10.86.01-2.55-.37-5.17,1.38-7.42.26-.34.29-.91.29-1.38-.02-2.09-.12-4.19-.14-6.28-.02-2.84.01-5.68.02-8.52,0-1.27,0-2.55,0-3.87-.55.09-.79.05-.89.16-.69.67-1.46,1.61-2.4.78-.61-.53-.97-1.57-1.05-2.42-.13-1.31.02-2.66.16-3.98.14-1.32.85-1.81,2.16-1.53.8.17,1.57.84,2.46-.23-.11-.33-.13-.87-.4-1.17-1.69-1.85-1.62-3.92-1.07-6.17.31-1.27.59-2.68.38-3.94-.71-4.08.09-8,1.2-11.83.72-2.49,1.42-4.92,1.37-7.54-.03-1.75.26-3.53,1.66-4.71,1.89-1.6,2.31-3.66,2.29-5.9-.02-2.12.12-4.17,1.14-6.11.23-.43-.03-1.12-.06-1.69-.21-.06-.42-.13-.63-.19-.39.56-1,1.08-1.12,1.7-.44,2.22-1.85,3.49-3.85,4.22-1.41.51-2.14,1.63-2.48,2.94-.3,1.18-.25,2.45-.44,3.66-.21,1.3-.3,2.69-.84,3.86-.74,1.61-1.85,3.05-2.81,4.55-.59.91-1.25,1.76-2.52,1.44-1.19-.3-1.62-1.23-1.76-2.35-.18-1.42-.44-2.83-.54-4.25-.13-1.78-.9-2.66-2.76-2.99-2.39-.43-3.35-2.13-2.55-4.46.43-1.26,1.43-2.33,2.27-3.63.01.06,0-.15-.07-.31-1.05-2.01-.91-3.03.36-4.64,1.26-1.59,2.32-.42,3.5.04,1.64.64,2.55-.03,2.47-1.89-.11-2.37-.25-4.76-.57-7.11-.18-1.37.04-2.29,1.17-3.22,1.74-1.44,1.63-2.85-.02-4.53-.25-.26-.45-.57-.64-.82.47-2.38.92-4.62,2.97-6.1,1.13-.82.98-1.78.56-3.02-.92-2.67-.94-5.26,1.7-7.18.34-.25.5-.74.72-1.08-2.16-2.51-2.13-2.47-4.34-.91-.51.36-1.32.28-1.99.4.03-.62-.16-1.36.12-1.83,2.69-4.58,4.35-9.72,7.61-13.98,1.36-1.78,2.37-3.91,4.52-4.9,1.7,1.33,1.7,1.31,3.89,1.41.66.03,1.3.24,1.96.36,1.82.33,2.32.08,2.42-1.74.09-1.72.87-2.98,1.68-4.42,1.05-1.85,3.14-3.27,2.94-5.72-.22-2.71.9-4.79,2.75-6.61.58-.57,1.27-1.17.79-2.19-1.65.5-3.21.87-4.68,1.47-.62.25-1.4.92-1.51,1.51-.43,2.33-2.34,2.96-4.25,4.29-.06-1.21-.45-2.26-.09-2.82,1.72-2.7,3.05-5.83,6.29-7.15,1.31-.54,2.26-1.28,2.96-2.51,1.54-2.68,1.78-2.81,4.74-2.1,1.44.35,2.12-.24,2.69-1.41.92-1.86-.47-2.75-1.66-3.71.83-1.35,1.52-2.6,2.35-3.74.43-.59,1.04-1.22,1.7-1.45,5.05-1.71,10.12-3.35,15.21-4.97,1.37-.44,2.41.1,3.09,1.38,1.2,2.26,2.14,4.49.07,6.81-.41.46-.54,1.16-.83,1.79,1.01.93,3,.76,2.9,2.53-.2,3.36.8,6.84-.92,10.06-.51.96-.33,1.66.33,2.57.68.93,1.04,2.18,1.24,3.34.56,3.24-.7,6.17-1.74,9.14-.95,2.7-2.2,3.05-4.26.99-1.33-1.33-2.59-2.43-4.72-1.94-1.16.27-1.7-.53-1.47-1.78.12-.7.31-1.56.02-2.12-.55-1.07-3.01-1.25-4.18-.48-1.42.94-1.86,2.91-.91,4.2.78,1.06,1.59,2.1,2.41,3.19,2.72-.78,4.6-.23,6.52,2.14.85,1.04,1.63,1.22,2.96.79,1.91-.62,3.94-1.27,6.02-.52.06.45.13.73.11,1-.02.28-.25.59-.18.83,1.06,3.47.89,7.07,1.22,10.62.23,2.53,1.02,5.01,1.47,7.53.17.92,0,1.9.13,2.84.56,4.04,1.26,8.07,1.75,12.12.88,7.27.65,14.65,2.26,21.84.5,2.22.89,4.46,1.29,6.7.83,4.67,1.56,9.37,2.47,14.02.6,3.07,1.33,6.12,2.18,9.14,1.47,5.23,2.85,10.49,4.67,15.6,2.63,7.38,4.79,14.87,6.16,22.58.65,3.65.98,7.41,2.09,10.92.98,3.09,2.04,6.13,2.5,9.34.27,1.88.39,3.79.72,5.66.94,5.34,1.95,10.66,2.95,15.99.99,5.24,2.09,10.46,2.99,15.71,1.8,10.57,4.48,20.86,10.04,30.13,3.02,5.03,4.97,10.73,9.19,15.04,1.12,1.14,2.18,2.48,2.83,3.92.84,1.88,2.26,2.97,3.87,4.03.9.59,1.6,1.51,2.33,2.33,1.73,1.94,3.43,3.92,5.16,5.87.12.13.34.16.5.27,1.86,1.3,3.7,2.64,5.58,3.91.85.57,1.73,1.15,2.69,1.47,2.05.69,4.25,1.01,6.23,1.87,3.81,1.64,7.64,1.38,11.47.48,4.31-1.01,7.41-4.2,10.97-6.53.25-.17.3-.65.43-.96-1.9-1.54-1.87-1.5-3.63-.37ZM160.79,217.86c-.39-.52-.74-1.13-.9-1.75-.52-2.02-1.03-4.01-2.36-5.71-.59-.75-.87-1.78-.04-2.6.95-.93,1.92-.42,2.82.19,2.81,1.9,4.95,5.48,4.94,8.84-.36.38-.92,1.24-1.71,1.73-1.01.64-2.04.22-2.74-.71ZM335.16,204.07c.84,1.17,1.31,1.66,1.57,2.24.23.54.42,1.24.26,1.74-.09.27-1.11.56-1.44.37-.56-.32-1.23-.98-1.28-1.55-.07-.72.44-1.49.9-2.81ZM329.62,201.27c-.43-1.01-.57-2.18-.63-3.3-.02-.44.47-1.24.8-1.29.53-.07,1.46.22,1.63.61.68,1.62,1.31,3.3,1.06,5.16-1.48.59-2.4-.11-2.86-1.19ZM338.97,220.12c-.08.19-.73.34-1.01.23-2.24-.86-4.45-1.79-6.68-2.69l-.04-.68c.54-.27,1.07-.56,1.62-.8.85-.37,1.7-.74,2.57-1.04.69-.24,1.43-.58,2.11-.52,1.11.1,2.63.36,2.66,1.63.03,1.29-.73,2.6-1.24,3.87ZM339.22,227.75c-.05-1.05.79-1.74,1.82-1.63.58.06,1.1.68,2.16,1.4-1.22.74-1.89,1.4-2.64,1.51-.4.06-1.31-.8-1.34-1.28ZM341.44,242.67c-1.15-1.58-1.63-3.43-1.3-5.38.08-.48.55-1.19.93-1.25.55-.08,1.44.16,1.71.57.81,1.23,1.38,2.62,1.9,3.67-.24.99-.29,1.58-.52,2.08-.58,1.25-1.9,1.44-2.72.31ZM346.94,261.5c-.53.15-1.62-.01-1.73-.32-1.18-3.16-3.51-5.91-3.46-9.87,0,0-.08-.44.07-.75.36-.72.71-1.75,1.3-1.96.54-.19,1.54.4,2.09.92,1.33,1.26,1.98,2.71.92,4.57-.65,1.15-.36,2.33.44,3.46.52.74.84,1.69,1.01,2.59.08.42-.31,1.26-.64,1.36Z"/>
  <path class="cls-1" d="M421.12,318.22c-1.22-1.04-2.57-2.02-3.53-3.28-1.23-1.62-2.87-2.19-4.68-2.37-.75-.07-1.86.25-2.23.79-.29.43.21,1.49.52,2.21.22.5.74.86,1.08,1.32.81,1.1,1.07,2.22.11,3.39-.52.63-1,1.3-1.72,2.22-.94-1.07-1.71-1.87-2.39-2.74-.52-.67-.8-1.61-1.43-2.1-2.88-2.22-3.02-5.68-2.88-8.53.24-4.69-2.23-7.17-5.46-9.54-.83-.61-1.61-1.32-2.32-2.06-.62-.64-1.2-1.42-2.14-.71-.86.65-1.69,1.72-.81,2.68,2.27,2.46,1.95,5.95,3.67,8.6.27.41.04,1.15.04,1.86-2.4-.28-2.71-3.79-5.31-2.88-.14.2-.25.29-.24.36.12.73.25,1.46.38,2.2.32,1.78-.35,2.58-2.11,2.39-1.13-.12-2.24-.45-3.37-.62-2.11-.31-2.54.09-2.53,2.19,0,1.17.49,2.49-1.11,3.58-.92-1.01-1.82-2-3.01-3.31-1.56,2.01-2.23,3.84-1.86,6.04.83.29,1.58.47,2.25.81,1.2.62,2.23.32,3.16-.49,3.23-2.81,7.02-3.07,11.03-2.57,1,.12,2.07.05,3.06-.14,1.99-.39,2.38-.16,2.96,2.36-3.02,0-6.51-.76-7.39,3.77,2.1.25,3.21,1.63,4.07,3.24,1.15,2.15,3.88,2.08,5.3,3.85.11.13.56.05.82-.02,1.94-.5,3.89-.94,5.78-1.56.66-.22,1.41-.79,1.69-1.4,1.04-2.22,2.78-2.95,5.08-2.94,2.63,0,4.43-1.56,5.96-3.47,1.06-1.32.89-1.99-.43-3.11Z"/>
  <path class="cls-1" d="M277.34,97.82c-1.38.37-2.17-.06-2.89-1.1-.19-.27-.55-.43-1.29-.97.1,1.17.17,1.86.22,2.55.04.55.24,1.2.04,1.64-.79,1.72-1.52,3.52-2.64,5.01-1.42,1.89-1.83,3.75-1.53,6.1.32,2.45-.53,5.25-2.79,6.08-2.66.97-5.85,1.73-8.98-.88-1.26,1.79-2.43,3.37-3.5,5.02-.53.81-.95,1.94.03,2.55.67.42,1.8.45,2.61.23,1.08-.29,2.02-1.03,3.06-1.51,1.63-.75,3.37-1.91,5.09-.74,1.86,1.27,1.61,3.49,1.67,5.47.01.37-.14.75-.16,1.13-.02.38-.04.77.04,1.13.23,1.04,1.2,1.45,1.9.68.68-.74,1.2-1.7,1.59-2.64,1.16-2.8,2.24-5.65,3.33-8.48.4-1.04.78-2.1,1.06-3.18.91-3.39,1.7-6.81,2.67-10.19.59-2.07,1.49-4.06,2.11-6.12.38-1.27-.35-2.14-1.64-1.8Z"/>
  <path class="cls-1" d="M358.38,216.39c.05.77.6,1.52,1.01,2.24.46.81,1.03,1.56,1.51,2.36,1.85,3.08,2.84,6.36,2.61,10.03-.19,2.96,1.9,4.85,3.75,6.73.34.35,1.3.39,1.8.18.5-.22.79-.93,1.16-1.41-.24-.52-.32-.95-.57-1.18-1.84-1.65-2.06-3.98-2.72-6.14-.74-2.45-1.37-4.99-2.57-7.22-1.27-2.36-2.36-4.71-3.01-7.32-.29-1.16-1.03-2.24-1.69-3.27-.34-.53-.92-1.18-1.45-1.24-.73-.08-1.52.35-2.28.56.19.57.22,1.34.62,1.69,1.23,1.09,1.74,2.38,1.84,4Z"/>
  <path class="cls-1" d="M376.98,240.27c.16,3.16,1.45,4.91,4.66,5.74.85-2.03.78-2.33-.59-3.98-.78-.94-1.77-1.86-2.13-2.96-.77-2.42-1.19-4.95-1.77-7.42-.1-.42-.29-.82-.44-1.23-.21.04-.41.08-.62.12,0,.73-.07,1.47.01,2.19.28,2.52.75,5.03.88,7.56Z"/>
  <path class="cls-1" d="M349.1,197.47c.94.3,1.84.71,2.78,1.07,1.06-3.08-.06-5.86-3.28-8.31-.33,1.04-.56,2.03-.96,2.94-.45,1.01-1.06,1.95-1.88,3.43,1.4.36,2.39.56,3.34.86Z"/>
  <path class="cls-1" d="M283.32,106.91c-.02-.28-.02-.57-.09-.84-.3-1.24-1.16-1.58-2.02-.81-1.35,1.2-2.06,5.29-1.2,6.89.42.78.92,1.49,1.97,1.22,1.13-.29,1.78-1.01,1.67-2.23-.11-1.41-.22-2.81-.33-4.22Z"/>
  <path class="cls-1" d="M288.05,92.94c-1.89,2.41-3.67,4.7-5.47,6.96-.73.91-1.12,1.84-.1,2.74,1.02.9,2.25.43,2.72-.45,1.44-2.69,3.22-5.31,3.18-8.56,0-.24-.22-.49-.32-.69Z"/>
  <path class="cls-1" d="M243.5,120.46c.7.52,1.96.62,2.89.43,1.56-.32,1.4-1.78,1.47-3.07-.02-.31-.03-.69-.08-1.06-.13-1.03-.64-1.79-1.69-2.04-1.15-.27-1.75.51-2.21,1.37-.31.58-.67,1.21-.71,1.83-.06.87-.16,2.18.33,2.54Z"/>
  <path class="cls-1" d="M375.61,296.35c.28.33.72.54,1.3.95,1.53-3.51.43-6.43-2.63-7.42-.56-.18-1.48.1-1.97.5-.64.53-.55,1.31.06,2.02,1.11,1.29,2.14,2.66,3.25,3.96Z"/>
  <path class="cls-1" d="M271.11,68.75c-1.8-.69-4.97,1.48-5.13,3.43-.07.87.65,1.46,1.49,1.06,1.44-.7,2.82-1.53,4.2-2.34.22-.13.32-.44.65-.91-.38-.4-.71-1.04-1.21-1.23Z"/>
  <path class="cls-1" d="M287.58,63.97c1.08-1.33,1.22-2.86.32-4.63-2.73,1.05-3.5,1.85-3.34,3.75.06.72.64,1.4.99,2.11.69-.4,1.56-.65,2.03-1.23Z"/>
  <path class="cls-1" d="M290.6,100.41c-.52.06-1.22.91-1.33,1.51-.2,1.03,0,2.14.02,3.25,1.87.12,2.6-.94,3.2-1.97.27-.46.27-1.39-.04-1.78-.41-.53-1.26-1.08-1.86-1.01Z"/>
  <path class="cls-1" d="M346.47,95.31c-2.09,1.43-2.76,3.62-1.8,6.4,2.36-1.47,3.04-4.13,1.8-6.4Z"/>
  <path class="cls-1" d="M365.48,298.54c-.38,1.22.55,1.7,1.51,1.97,1.26.36,2.42.18,3.59-.96-.5-1.55-1.72-1.98-2.87-2.3-1.03-.29-1.92.27-2.23,1.29Z"/>
  <path class="cls-1" d="M253.47,190.39c.21.34.75.71,1.09.67.36-.05.83-.52.94-.9.35-1.26.04-2.41-1.03-3.57-1.45,1.42-1.76,2.6-1,3.8Z"/>
  <path class="cls-1" d="M282.77,56.36c-1.6-.71-2.89-.4-4.23,1.04,1.96,1.12,2.8.89,4.23-1.04Z"/>
  <path class="cls-1" d="M285.62,111.76c.05.32.76.86.92.78.67-.33,1.25-.85,2.18-1.53-.89-.52-1.34-1.01-1.76-.99-.99.05-1.51.77-1.35,1.74Z"/>
  <path class="cls-1" d="M392.64,293.52c.29.24.86.15,1.97.29-.98-1.51-1.6-2.45-2.4-3.68-.98,1.66-.47,2.61.43,3.38Z"/>
  <path class="cls-1" d="M372.53,313.21c0,1.44,1.14,1.41,2.3,1.38.54-1.19.18-2.07-.97-2.39-.35-.1-1.33.66-1.33,1.02Z"/>
  <path class="cls-1" d="M360.91,187.74c-.22-.58-.34-1.22-.7-1.68-.19-.24-.79-.16-1.21-.23-.03.42-.23.94-.05,1.25.35.62.83,1.3,1.96.66Z"/>
  <path class="cls-1" d="M356.54,264.21c-.44,1.01.05,1.53,1.24,1.82.55-1.04.56-1.77-.54-2.1-.2-.06-.63.1-.71.27Z"/>
  <path class="cls-1" d="M388.11,272.95c.62-1.29.24-1.99-1.18-2.61-.57,1.55-.11,2.2,1.18,2.61Z"/>
  <path class="cls-1" d="M273.01,53.89c-.34.1-.58.59-.86.91.31.27.71.82.92.75.44-.14.79-.6,1.46-1.16-.74-.26-1.19-.59-1.51-.49Z"/>
  <path class="cls-1" d="M270.23,83.98c1.15-1.65.91-2.28-1.02-2.75.39,1.05.63,1.69,1.02,2.75Z"/>
  <path class="cls-1" d="M379.2,300.12c.2.37.44.76.77.98.13.08.54-.26,1.1-.55-.62-.44-.95-.74-1.34-.92-.09-.04-.56.43-.53.48Z"/>
  <path class="cls-1" d="M260.94,86.61c-.37-.27-.71-.58-.76-.54-.24.2-.47.47-.56.76-.03.11.41.52.51.47.27-.12.48-.39.8-.69Z"/>
  <path class="cls-1" d="M261.47,146.19c-.22.05-.54.17-.6.33-.05.16.19.4.39.76.24-.33.43-.5.5-.72.03-.09-.22-.39-.29-.38Z"/>
  <path class="cls-1" d="M388.93,279.7c.16.05.42-.18.85-.4-.38-.33-.62-.53-.86-.74-.16.19-.44.38-.43.57,0,.21.24.51.44.57Z"/>
  <path class="cls-1" d="M244.11,109.75c-.24-.08-.47-.19-.7-.21-.05,0-.22.4-.18.44.18.15.42.24.64.35.07-.16.13-.32.24-.58Z"/>
  <path class="cls-1" d="M274.02,92.08c.02.24.11.47.18.71.27-.1.43-.16.59-.22-.1-.22-.18-.47-.33-.65-.03-.04-.45.11-.45.16Z"/>
  <path class="cls-1" d="M362.54,292.31c.12-.2.34-.42.32-.6-.03-.22-.27-.42-.53-.78-.15.38-.34.62-.29.8.06.22.33.39.5.58Z"/>
</svg>