<?xml version="1.0" encoding="UTF-8"?>
<svg id="Layer_1" data-name="Layer 1" xmlns="http://www.w3.org/2000/svg" viewBox="0 0 370.83 396">
  <defs>
    <style>
      .cls-1 {
        fill: #488cca;
        stroke-width: 0px;
      }
    </style>
  </defs>
  <path class="cls-1" d="M257.52,392.59s0-.02,0-.03c-.02,0-.03,0-.05,0l.04.03Z"/>
  <path class="cls-1" d="M361.52,89.7c-4.27,2.93-5.62,2.44-7.93-2.5-.96-.15-2.39-.01-2.61-.47-1.33-2.76-3.52-2.64-6.15-2.22.62-1.17,1.46-2.06,2.15-3.06.5-.72,1.34-1.86,1.09-2.31-.96-1.77-.03-2.99.54-4.52.6-1.6.69-3.46.72-5.21.02-1.27-.42-2.55-.74-4.26-1.08,1.81-3.51-.33-4.62,2.45,2.25.16,3.06,1.49,2.89,3.77-.74-.46-1.26-.78-2-1.24-.78,1.04-1.48,1.98-2.38,3.18,1.67.09,2.7.14,3.73.2,0,.26,0,.53,0,.79-.74.13-1.58.09-2.19.45-.84.5-1.99,1.2-2.16,1.99-.5,2.38-1.74,4.09-3.68,5.24.47,2.48.9,4.74,1.45,7.65.88.6,2.32,1.62,3.8,2.58,1.93,1.24,2.21,3.05.76,5.09-.21.3-.56.87-.47.97,1.17,1.25-.1,2.05-.35,3.11-.61,2.7-2.42,5.05-2.18,7.94-3.11-.05-4.36-.66-4.78-2.46.46-.76.99-1.64,1.5-2.48.78.26,1.37.46,1.97.65.12-.19.24-.39.36-.58-1.51-1.38-3.03-2.76-4.61-4.2-.98,1.07-1.69,1.84-2.34,2.55-2.65-.84-.51-3.58-2.14-5.04-1.07,1.38-2.05,2.64-3.03,3.91-.99-.4-1.81-.74-2.87-1.17,1.3-.71,2.32-1.28,3.25-1.79-.25-3.86,1.67-6.54,4.13-8.95-.1,1.03-.47,1.94-1.02,2.72-.71,1.01-1.09,1.83,1.03,2.74.12-3.41,3.42-6.05.47-9.41.77-.42,1.26-.7,1.96-1.08-1.89-2.83-2.67-5.81-1.25-9.29,3.27-.33,3.54-3.3,4.29-5.72.79-2.56,1.18-5.24,1.77-7.99h3.12c-1.02-1.63-2-3.19-2.71-4.32,1.59-1.65,2.8-2.87,3.96-4.14.54-.59.88-1.45,1.51-1.86,2.73-1.78,2.73-1.83,1.77-4.71-.65-1.96-1.07-4.01-1.59-6.01,1.59,1.1,2.15,1.4,3.73,1.64.37-1.41.75-2.82,1.12-4.23,1.33.38,2.51.64,2.18-1.58-1.24-.17-2.5-.35-4.22-.58.14-1.04.55-2.09.33-2.98-.24-.95-1.78-2.13-1.54-2.56,1.13-2.09-.51-2.94-2.27-4.46h4.83c-2.91-2.44-1.45-4.74-1.06-6.98.09-.53.62-1.35.45-1.52-2.06-2-.56-3.64.71-5.52-1.68-1.54-1.95-3.34-.54-5.06-2.05-2-2.02-2-2.45-4.62-.24-1.46-1.01-2.49-2.64-2.2-1.26.23-2.49.69-3.71,1.13-.25.09-.36.57-.6.99.67.47,1.29.91,2.31,1.62-1.66,2.08-3.01,4.22-4.79,5.88-2.3,2.14-3.4,4.88-4.62,7.59-1.05,2.34-1.96,4.74-2.89,7.01-1.34.17-2.38.3-3.01.38-2.2,5.7-4.51,10.87-9.53,13.7.49,1.58,1.62,3.34,1.16,4.02-2.09,3.04-3.46,6.97-7.84,7.77-1.6.29-2.89,1.18-3.55,2.73-2.16,5.07-3.14,10.33-2.28,15.78-1.11.6-2.12,1.14-3.11,1.67.32,1.37,1.06,2.64.76,3.58-1.2,3.82-2.62,7.58-5.87,10.29-.63.52-.98,1.54-1.17,2.39-.52,2.28.65,5.08-2.13,6.63-.17,3.5-.95,6.92-1.36,10.37-.22,1.8-.19,3.48-1.22,5.05-1.01,1.54-1.52,3.11-.93,5.08.34,1.16.06,2.6-.24,3.84-1.2,4.96-2.6,9.87-3.77,14.84-.82,3.48-1.33,6.94-3.81,9.86-1.83,2.15-3.11,4.78-4.55,7.24-1.31,2.23-2.51,4.51-3.77,6.77-.51.92-1.2,1.76-1.55,2.73-1.25,3.48-2.67,6.84-5.41,9.47-.42.41-1,.98-.99,1.46.07,2.31-1.32,4.03-2.39,5.77-1.74,2.82-3.64,5.64-5.95,7.97-1.15,1.16-1.65,1.98-1.62,3.55.05,2.88-1.4,4.51-4.34,5.37-1.83.54-2.25,1.29-2.03,3.94.91-.32,1.75-.62,2.81-1-1.7,3.07-3.1,5.82-4.71,8.42-.74,1.2-1.73,2.59-3.74,1.64.38-2.14,3.08-3.25,2.27-6.04-1.52.98-3.18,1.15-3.51,3.26-.15.94-1,1.94-1.81,2.57-1.64,1.28-3.46,2.32-4.75,3.17-1.09-.82-2.8-1.43-3.24-2.54-1.47-3.72-2.72-7.38-5.22-10.72-1.64-2.18-2.24-5.61-2.2-8.46.04-2.46-1.1-3.75-2.44-5.2-1.56-1.69-2.56-3.58-2.79-5.91-.1-1.04-.52-2.08-.96-3.04-1.99-4.33-5.93-7.48-7.33-12.18-.06-.21-.26-.42-.45-.55-1.68-1.14-1.73-2.98-2.22-4.7-.61-2.14-1.19-4.48-2.49-6.2-1.56-2.07-3.05-4.08-4.31-6.39-2.99-5.52-6.55-10.73-9.56-16.24-2.33-4.25-4.31-8.66-7.13-12.67-3.75-5.33-7.53-10.67-10.28-16.66-.6-1.31-2.01-2.24-3.04-3.36-.64-.69-1.66-1.31-1.84-2.11-.6-2.7-2.61-4.14-4.45-5.87-1.53-1.44-3.4-3.12-3.81-4.98-.6-2.7-1.54-4.64-3.98-5.9-.72-.37-1.4-.99-1.87-1.65-.94-1.31-1.52-2.96-2.64-4.05-1.11-1.08-2.72-1.64-4-2.37.31-1.1.5-1.74.66-2.3-1.27-.66-2.37-1.12-3.33-1.78-.63-.43-1.26-1.06-1.54-1.75-.58-1.43-1.08-2.93-1.33-4.44-.46-2.73-2.28-4.44-4.63-4.89-2.53-.49-2.02-1.67-1.4-3.29-3.27-1.51-6.47-2.97-9.64-4.48-.64-.3-1.26-.73-1.74-1.24-.38-.41-.76-1.04-.74-1.56.07-2.01.3-4.02.48-6.19-1.58-1.26-3.19-2.54-4.55-3.62-2.91.81-2.91,4.55-6.3,4.5-.16-.83-.67-1.81-.45-2.59.63-2.22.69-4.13-2.02-5.34.22-.19.44-.39.66-.58,1.39.56,2.78,1.11,3.97,1.59.17-1.32.33-2.56.53-4.14-1.37-.85-2.96-1.66-4.35-2.73-2.34-1.8-3.17-5.03-5.91-6.5.29-1.73-1.07-2.15-2.17-2.85-1.08-.68-2.08-1.5-3.1-2.28-.94-.73-1.78-1.63-2.81-2.2-1.78-.99-2.3-.68-3.59,1.26-.35.52-1.12.76-1.94,1.28.03-3.19-.18-3.37-2.5-3.62-2.54-.28-4.1,1.05-5.18,3.07-1.06,2-1.98,4.09-2.9,6.16-.89,1.99-2.41,3.85-.94,6.31.29.49-.52,1.64-.82,2.47q-3.52-1.22-5.33,1.87c-.27.45-.54.9-.82,1.35,1.02-.07,1.69-.46,2.22-.99,1.14-1.15,2.31-1.12,3.51-.18,1.09.86,1.18,1.88.62,3.18-.79,1.85-1.33,3.8-2,5.69-.07.19-.3.33-.46.5-.51-.35-1.02-.71-1.71-1.18-.29,1.41-.36,2.61-.78,3.67-.65,1.65-1.93,3.15-2.21,4.84-.27,1.63.38,3.41.68,5.55-1.13-.6-1.88-1-2.62-1.39-1.47,2.21-1.57,2.82-.57,3.51.55-.24,1.16-.5,1.82-.79,1.68,1.92.23,3.48-.61,4.9-1.02,1.74-2.38,3.22-2.39,5.46,0,.64-.79,1.6-1.44,1.85-2.11.82-4.31,1.39-6.7,2.12.35,1.49.72,3.06,1.06,4.54-.84,1.6-2.99,2.42-2.39,4.61.52,1.89-.2,2.92-1.98,3.56-.52.19-.9.94-1.2,1.51-.44.84-.68,1.79-1.15,2.6-.84,1.44-1.81,1.11-2.88.18,2.36-2.35,2.36-5.38-.01-9.68-1.33,2.23-2.95.77-4.96.01-.02,2.45-1.58,4.28-.61,6.49,1.06.33,2.24.38,2.96.99,1.01.84.42,1.9-.31,2.79-.08.1.34.57.46.9.52,1.38.33,2.65-.81,4.45-.7-2.73-2.33-3.84-4.58-4.91-.76,2.44-1.54,4.64-2.05,6.9-.08.36.94,1.25,1.58,1.42.75.21,1.66-.25,2.46-.12.41.07,1.11,1,1.02,1.15-.81,1.37-1.77,2.65-2.63,3.88-1.18-.08-2.2-.15-3.69-.24-.43,2.36-.79,4.55-1.25,6.71-.16.76-.44,1.57-.89,2.19-1.21,1.64-1.62,3.41-1.58,5.38,1.87.02,1.7-3.03,3.88-2.07-1.03,2.6-1.87,5.18-3.07,7.59-1.22,2.44-2.79,4.7-4.55,7.61.18,1.62.18,1.64-.93,3.34,0,0,0,0,.01.01-.17.75-.1,1.71-.55,2.22-1.91,2.15-2.6,4.6-2.59,7.44,0,1.89-.25,3.84-.77,5.66-.72,2.58-1.85,5.04-2.67,7.6-.32.99-.57,2.18-.33,3.16,1.09,4.43-.15,8.45-1.55,12.58-1.11,3.26-2.29,6.69-2.32,10.05-.04,4.02-.85,7.55-3.06,10.8-.71,1.04-.87,2.04-.75,3.33.16,1.8-.16,3.65-.28,5.57.27.87.71,1.91.91,2.99.51,2.79-.44,5.18-2.37,7.14-1.09,1.11-1.35,2.2-1.34,3.79.01,2.93-.55,5.86-.97,8.78-.2,1.37-.73,2.7-.92,4.07-.28,2-.5,4.02-.55,6.03-.11,4.15-1.02,8.31.2,12.45.25.84.08,1.84-.04,2.75-.25,1.87-.73,3.72-.86,5.59-.19,2.96-.13,5.93-.26,8.89-.03.8-.11,1.83-.6,2.33-1.83,1.87-2.38,4.23-3.25,6.56-.76,2.05-1.9,4.15-3.42,5.7-2.6,2.64-3.64,6.44-2.56,10,1.17,3.88,2.25,7.87-1.36,11.31-1.04.99-1.49,2.42-1.08,3.97.4,1.48.36,3.2,1.11,4.45,2.59,4.31,1.94,8.99,1.89,13.61,0,.48-.55.96-.85,1.43-2.38,3.66-3.28,7.86-4.19,12.02-.27,1.24-.42,2.97.23,3.85,1.48,2.02.84,4.12.93,6.2.09,2.01.09,4.03-.02,6.04-.14,2.61,1.16,4.3,3.29,5.47,1.25.68,2.59,1.23,3.92,1.76,4.97,1.98,9.95,3.94,14.93,5.88,1.76.68,3.54,1.31,5.32,1.93,1.1.39,2.23.73,3.34,1.09,3.76,1.24,7.45,2.55,11.27-.06.96-.66,2.49-.46,3.74-.74,1.36-.3,2.74-.6,4.04-1.09,5.22-1.95,7.04-7.95,12.04-10.17.81-2.1,2.41-3.41,4.24-4.62.71-.47,1.22-1.51,1.46-2.38.75-2.72,2.97-4.07,5.06-5.38,2.02-1.27,3.22-2.73,4.01-5.07,1.19-3.54,2.85-6.97,5.49-9.77.57-.6,1.13-1.23,1.59-1.92,1.94-2.96,4-5.86,5.69-8.96,1.46-2.67,3.57-5.06,3.78-8.34.19-2.96.38-5.94.86-8.86.28-1.71.97-3.41,1.78-4.96,1.44-2.78,2.92-5.48,2.25-8.79-.12-.57-.25-1.31,0-1.75,1.53-2.59,1.48-5.46,1.82-8.3.26-2.11.64-4.37,1.62-6.2,1.78-3.32.83-6.23-.51-9.23-.34-.76-.87-1.42-1.18-2.19-1.48-3.75-1.26-4.28,2.73-6.1-.44-2.68-.95-5.47-1.35-8.27-.31-2.2-.84-4.21-3.29-5.06,1.21-3.83-1.95-6.83-1.49-10.42.02-.16-.24-.43-.43-.54-1.68-1.02-1.44-2.58-1.2-4.14.63-4.05-.52-7.94-1.15-11.87-.24-1.5-.72-2.96-1.15-4.68,2.49-.32,3.1-1.71,2.85-3.8-.17-1.41,0-2.86-.02-4.3-.03-2,.44-3.74,2.09-5.1.66-.55,1.16-1.46,1.43-2.3.53-1.66.84-3.39,1.3-5.35-.69-.43-1.53-.95-2.54-1.57.63-2.43,1.23-4.7,1.81-6.97.06-.22.14-.56.03-.68-1.91-2.09-.42-3.38,1.04-4.75,1.27-1.19,1.59-2.46.5-4.12-.89-1.36-1.3-3.03-2.02-4.82,2.38-.52,2.73-2.22,2.3-4.67,1.23.79,2.06,1.09,2.54,1.67,2.1,2.56,4.25,5.11,6.11,7.85,2.07,3.05,3.64,6.45,5.84,9.39,1.31,1.75,2.38,3.37,2.71,5.57.21,1.42.5,3.18,2.52,3.31,1.21-1.37,2.35-2.67,3.64-4.13,1.65,1.66,3.72,2.52,3.99,4.79.33,2.74-1.5,4.59-3.38,6.5,1.23,1.95,2.17,3.92,3.54,5.5,1.18,1.35,1.84,2.69,1.87,4.45.02,1.66.42,3.01,2.43,3.39.71.14,1.28.97,1.71,1.32,1.57.25,2.9-1.78,4.32.44-2.85.9-2.23,3.43-2.49,5.53-.36,2.85.75,4.11,3.64,3.82,2.08-.21,4.1-1.01,6.37-1.6.96.68,2.21,1.56,3.4,2.4-.17,1.62-.32,3.08-.46,4.47-1.28.85-3.49.96-2.24,3.45.13.26-.4,1.15-.81,1.33-.86.38-1.84.49-2.83.72,1.69,1.27,3.29,2.46,4.66,3.48.17,1.96-.11,3.89.58,5.36.74,1.59,2.4,2.75,3.88,4.33-.17.48-.47,1.31-.94,2.61-1.22-1.73-2.14-3.03-3.33-4.72-.27,2.92.83,4.75,2.68,6.16,1.66,1.27,3.18.43,4.54-.69,1.07-.88,2.14-.89,3.33-.35,1.08.49,2.19.92,2.89,1.21.68,1.64,1.21,2.92,1.93,4.64-.67.72-1.69,1.85-2.74,2.96-1.54,1.63-2.83,3.3-1.64,5.73.2.4.22.95.16,1.41-.47,3.85,2.18,6.44,4.16,9,1.4,1.8,1.79,3.15,1.14,5.12-.34,1.05-.57,2.14-.86,3.25,1.77.26,3.04.45,4.31.62,2.08.28,4.68-1.02,5.7-2.98,1.01-1.93.05-3.4-1.27-4.76-1.13-1.17-2.12-2.42-1.55-4.36-.92.65-1.85,1.3-2.79,1.97q-1.16-2.01-.19-4.35c-.66-.85-1.36-1.75-1.96-2.52.75-.64,1.41-1.27,2.15-1.81.53-.39,1.22-1.02,1.73-.93,2.21.39,3.31-.8,4.27-2.48,1.06-1.86,2.89-1.48,4.49-1.16,1.51.3,1.94,1.55,1.86,3.04-.04.68-.03,1.53.33,2.04,1.57,2.2-.03,3.57-1.23,5-.44.52-1.24.71-1.79,1.16-1.7,1.37-1.5,2.36.59,3.45.37.19.6.64,1.06,1.14-1.13.51-2.05.92-2.9,1.31.34,1.92.65,3.66.97,5.46.66.03,1.27,0,1.85.11,1.9.33,2.05.69,1.52,2.64-.6,2.19-1.07,4.41-3.55,5.34-.28.11-.61.51-.64.8-.28,2.3-1.72,1.78-3.17,1.39-1.05-.28-2.23-.94-3.13.44,2.35,1.53,4.56,2.26,7.44,2.18,1.77-.05,3.01.44,3.68,2.15.2.51.51.97.73,1.38,1.99-.14,2.02-1.49,1.92-2.64-.16-2.01.35-3.65,1.6-4.39-.32-1.2-.91-2.17-.63-2.67.4-.73,1.41-1.57,2.16-1.57,2.42,0,.8,2.68,2.52,3.85,1.14.18,2.76.41,4.38.68,1.79.3,3,1.63,3.05,3.37.04,1.27,0,2.55,0,3.67-1.33.76-2.38,1.36-4.1,2.34,1.56.26,2.29.38,3.02.5.19,1.71-.56,1.78-1.9,1.79-1.74.01-1.8.49-.55,2.41,3.65-1.95,4.64-1.3,4.94,2.87.13,1.81.78,3.6,1.29,5.38.47,1.63.58,3.03-1.21,3.98-1.98,1.05-1.9,2.73-1.1,4.44-4.09,4.16-5.55,6.74-5.74,10.05.83-.37,1.67-1.08,2.49-1.05,4.96.19,5.74-.55,5.17-5.76.79,0,1.99-.27,2.18.05.43.73.8,2.1.41,2.6-1.93,2.47-1.13,5.5-2.04,8.27-3.05,1.41-5.89,3.26-8.07,5.77.78,4.2,3.94,3.77,6.76,3.8.52,2.85-2.55,2.21-3.44,4.17.36,1.76.79,3.9,1.22,6.03,3.14-.62,3.08-.57,3.81.37,1.42,1.83-.29,2.71-1.24,3.74.66,1.32,1.24,2.46,1.73,3.44,1.15.15,2.12.17,3.02.42,2.13.6,2.12.65,3.94-.78,1.06,1.78,1.18,3.59.59,5.61-1.91.82-3.51,2.93-5.9,1.17-.52,2.47-.12,4.34,1.37,6.14.88,1.06,1.7,2.33.68,4.18-.94,1.71.03,2.94,2.13,3.78.87.35,2.42.49,2.55.99.52,2.18,2.98,2.37,3.85,4.14.25.5,1.29.62,2.12.97.41-2.59,1.47-4.47,1.14-7.01-.33-2.45,1.1-5.13,1.88-8.19-1.32-2.07-1.15-5.28,3.49-8.48,1.36.27,2.67.52,4.21.82q-.93-3.25,1.94-3.67c.33,1.08.67,2.18,1.15,3.74.48-1.17.77-1.88,1.39-3.38.69,1.84,1.09,2.89,1.55,4.12-1.03.35-1.8.61-2.56.86-.19,1.27-.38,2.53-.57,3.75,2.82,1.2,3.46,2.53,2.59,5.2-.29.9-.76,1.81-.77,2.73-.05,3.55-1.68,5.98-4.7,7.74-.88.51-1.45,1.58-2.16,2.39.16.19.32.37.48.56,1.46-.71,2.92-1.42,4.45-2.16v4.01c-1.18.46-2.18.85-3.5,1.37,1,.74,1.5,1.11,2.27,1.67-1.04.51-1.82.78-2.46,1.25-.93.68-1.12,1.9-.15,2.39,2.73,1.36,5.19,3.46,8.5,3.4,1.68-.03,3.37,0,5.47,0-.63-.67-1.04-1.14-1.48-1.58-.49-.49-1.19-.86-1.46-1.44-.91-1.93-1.88-3.87-2.4-5.91-.41-1.59-.87-3.84-.09-4.92,1.37-1.89,1.63-4.08,2.51-6.05.85-1.92,1.89-2.57,3.75-1.95.26-1.29.47-2.29.77-3.79-1.29.31-2.17.53-3.56.86,1.22-1.55,1.96-2.77,2.97-3.68,1.76-1.6,8.37.44,8.38,2.73.02,2.92,1.03,6.01-.62,8.84.58,1.28,1.17,2.56,1.89,4.15-2.43,2.11-4.71,4.08-7.3,6.33,2.1.7,4.17,1.4,6.48,2.17-1.45,2-4.96,2.5-3.23,5.82h3.75c.37-1.06.41-2.44,1.07-2.85,1.86-1.17,3.97-1.95,6.21-2.98-.29,1.12-.49,1.88-.69,2.64,3.46.61,3.73-2.3,4.8-5.31.89,1.88,1.95,3.06,1.82,4.1-.17,1.45-1.23,2.8-1.96,4.31,1.9,1.14,2.46-.88,3.47-1.51,1.93-1.21,2.34-2.75,1.54-4.78-.21-.54-.79-1-.84-1.53-.06-.65.13-1.85.42-1.92,2.65-.64,2.97-3.18,4.15-5.1,1.17.54,2.2,1.02,3.14,1.46,1.43-1.13,1.96-2.39,1.61-3.94-.33-1.5.04-2.73.9-4.03,1.43-2.18,2.6-4.53,3.93-6.89-.86-.45-1.66-.86-2.78-1.45.61-1.3,1.03-3.31,1.68-3.39,1.61-.2,3.32.5,5.26.89.87-.62,2-1.43,2.98-2.12-.1-3.9-4.94-3.12-5.71-6.14,3.07-2.82,3.6-4.2,2.42-6.67,1.24-.44,2.49-.78,3.64-1.33.82-.39,2.21-1.21,2.13-1.58-.54-2.55,1.32-4.39,1.91-6.64-2.24-1.29-4.87-2.09-4.68-5.58,2.43.13,3.54-1.38,4.18-3.57-.78-1.29-1.61-2.68-2.56-4.26,3.09,1.18,2.48-2.03,4-2.72-1.59-2.78-4.47-5-1.35-8.69-1.8-.4-3.1-.69-4.18-.92-.2-1.5-.39-2.95-.58-4.39,2.87-.03,3.75-1.05,3.73-4.12-2.06-.92-4.04-1.81-6.22-2.79.62-1.18,1.1-2.1,1.57-3-.79-1.38-1.53-2.67-2.72-4.75,2.23.66,3.63,1.07,4.46,1.32,1.95-1.24,3.53-2.25,5.61-3.57-1.25-.47-2.15-1.05-3.09-1.11-2.07-.14-3.05-1.25-3.66-3.21,1.84-.14,3.66.12,4.47-1.84q-1.42-1.72-3.18-.52c-2.58,1.75-4,1.35-5.16-1.53-.48-1.19-.86-2.42-1.26-3.55,4.31-2.79,5.52-5.08,4.23-7.95,1.18-.47,2.35-.94,3.78-1.52.14,1.78.26,3.21.39,4.83,2.76-2.3,2.95-4.39,1.25-12.04-2,.49-4,.99-6.04,1.49-.72-3.11,2.91-4.42,2.96-7.28.86,0,1.97.27,2.17-.04,1.4-2.19,3.51-1.45,5.42-1.54.06.45.02,1.2.22,1.27,1.37.49,2.8.82,4.21,1.21q1.27-5.38.32-7.6c-1.87-4.37-1.85-4.41,2.26-7.08.16-.11.2-.41.31-.64-.37-.78-.75-1.56-1.3-2.72,1.29.4,2.11.66,2.84.89,2.32-2.55-.36-3.99-1.03-5.76.8-.93,1.72-1.65,2.14-2.59.5-1.13,1.2-2.84.72-3.62-1.8-2.91-.4-5.2.91-7.79-.83.08-1.57.16-2.71.28.89-1.11,1.82-1.81,2.08-2.69.8-2.7,3.04-3.62,5.21-4.69.18-.09.44-.01.87-.01-.15.78-.29,1.5-.52,2.74,2.35-1.82,3.62-.13,5.09.74.15.09.17.41.3.74-.62.49-1.28,1.01-2.08,1.64,2.45.88,3.35.4,4.97-2.38-.9-1.17-1.81-2.34-3.13-4.04,2.16-.52,3.72-.86,5.25-1.3.23-.07.35-.55.67-1.1-1.08-.29-1.98-.53-2.84-.75.11-.92.18-1.52.28-2.33-1.41,1.21-2.55,2.19-3.55,3.04-1.72-.92-3.06-2.19-4.39-2.19-1.26,0-2.53,1.34-4.23,2.36.15-2.04-.35-3.42-1.92-3.65-.06-2.93,2.66-1.63,3.84-2.9-.61-.57-1.07-1.01-1.93-1.82h4.02c1.59-2.34,1.79-5.06,2.07-7.74.23-2.19.31-2.21,2.67-1.83,1.16.19,2.35.21,3.52.41.5.08.96.41,1.44.63.69.32,1.37.65,2.06.97.28-.83.62-1.65.82-2.5.1-.41-.04-.89-.09-1.59,1.55.06,2.05-2.15,4.32-1.16-.91,2.49-1.8,4.98-2.74,7.45-.11.28-.52.5-.83.64-1.32.6-2.49,1.11-2.64,2.97-.11,1.35-1,2.64-1.8,4.59,2-.71,2.61-3.12,4.51-1.89l-.04.03h0s.04-.03.04-.03c0,0,0,0,0,.01.89-.55,1.78-1.09,2.18-1.34.84-3.12,1.42-5.79,2.28-8.36.88-2.6,1.22-5.56,3.94-7.2.36-.22.77-.81.73-1.18-.3-2.85,1.65-4.78,2.87-6.94.92-1.62.6-3.1-.11-4.37-.3-.54-1.87-.35-2.85-.55-.16-.03-.26-.34-.47-.65.53-.57,1.39-1.08,1.59-1.78,1.16-3.98,3.48-6.29,7.91-5.7.34-2.07-.64-4.12,1.04-5.69.22-.2.16-1.03-.07-1.33-1.38-1.8-.24-3.02.74-4.44,1.2-1.72,2.86-3.28,2.54-5.74-.06-.49.45-1.06.72-1.57,1.18-2.2,2.38-4.39,3.69-6.8-1.16-.2-2.01-.35-3.39-.6,2.42-1.67,1.77-3.3.64-4.83,1.46-.97,2.73-1.81,4.12-2.72.18,1.08.36,2.18.63,3.82,1.23-.78,2.22-1.2,2.91-1.91.69-.71,1.7-1.99,1.46-2.51-.41-.89-1.61-1.7-2.62-1.95-1.09-.26-2.35.11-3.52.32-.91.16-1.78.51-3.29.96.26-2.27.34-4.14.76-5.92.13-.56,1.14-1.09,1.85-1.28.86-.24,1.1.38,1.22,1.26.2,1.41,1.21,1.13,2.15.7-.33-1.42-.65-2.83-.99-4.33q1.86-.07,3.07-4.52c.56-.26,1.19-.56,1.51-.71.22-1.61.48-2.98.58-4.36.05-.76.02-1.63-.33-2.25-.13-.24-1.27.03-1.93.16-.66.13-1.34.6-1.94.5-1.57-.28-3.09-.84-4.66-1.19-2.17-.49-2.55-1.01-2.5-3.11.06-2.48,2.27-3.12,3.61-4.5.34-.35.86-.84,1.24-.79,1,.12,2.01.4,2.96.78,2.65,1.06,3.83.74,5.08-1.89.62-1.31,1.53-1.56,2.79-1.77,1.87-.32,2.39-1.21,1.52-2.72-1.14-1.98-2.6-3.78-3.92-5.65ZM47.85,170.08c-.56.77-1.19,1.51-2.44.47.57-1.23,1.15-2.47,1.8-3.88,1.3,2.46,1.32,2.47.64,3.41ZM52.28,90.94c-.3-.41-.61-.65-.63-.92-.01-.19.36-.41.57-.62.23.24.58.44.66.72.05.18-.32.46-.6.83ZM66.43,130.76c-1.3,1.44-2.41,2.67-3.51,3.9-.22-.53-.45-1.06-.77-1.82,1.28-.67,1.52-3.12,4.28-2.07ZM58.45,179.68c-.11-.25-.22-.5-.33-.76l2.25-1.02.3.89c-.74.29-1.48.58-2.22.88ZM60.71,136.61c.19-1.45,1.21-1.64,2.17-1.89-.31.96-.49,2.06-2.17,1.89ZM67.45,154.86c-1.33,1.92-2.6,3.88-4.11,6.16-1.76-.46-2.75-1.36-1.74-3.29,1.57-2.99,1.95-6.66,5.05-8.9-.02-1.3-2.09-2.55-.33-4.03,2.1,2.22,2.69,7.82,1.13,10.06ZM69.83,162.73c-.27-.43-.6-.72-.56-.95.04-.28.39-.51.61-.76.2.25.54.49.55.74.01.25-.3.53-.59.97ZM67.54,142.53c.08-.55.45-1.35.21-1.62-2.61-2.93-.52-5.29.82-7.76.45-.83.84-1.69,1.38-2.78,3.02,4.83.09,8.45-2.41,12.16ZM72.33,141.67c-.45.14-.92.22-1.39.32-.03-.27-.07-.54-.1-.82.49-.04.97-.08,1.46-.11.01.21.08.59.03.61ZM75.64,125.3c.38-1.43.66-2.47.93-3.51,1.76,1.63,1.74,1.64-.93,3.51ZM75.71,115.57c-.82.96-2.72,1.01-4.28,1.51-.13,1.88,1.42,2.3,2.68,2.57,1.32.29,2.22.7,2.43,2.11-2.55,1.09-4.48-.51-6.57-1.47-.2-2.34-.4-4.58-.61-6.92-.81-.1-1.66-.2-2.75-.32.98-3.48,3.73-4.44,6.36-5.34,1.16-.4,2.08.33,1.78,1.83-.09.44-.14.89-.21,1.3,2.31.9,5.03.96,5.92,3.89-1.54,1.04-3.26-.88-4.76.86ZM152.19,195.94c-1.66.87-2.64.62-3.92-.94-.64-.78-1.36-1.51-2.62-2.89,3.71,1.4,5.55-2.48,8.66-1.59.44,2.48-.36,4.49-2.11,5.41ZM162.65,227.49c-3.6,2.94-4.32,2.75-7.93-2.07.98-1.86,2.44-2.45,4.41-1.68.83-2.09,3.15-3.29,3.31-5.87.06-.95,1.29-1.37,2.31-.68.48.33.99.77,1.21,1.27.53,1.18.73,2.52,1.37,3.63.57.99,1.54,1.74,2.31,2.57-2.84,3.59-2.9,3.61-6.99,2.84ZM181.22,238.31c-1.03,1.62-5.2,3.13-7.03,2.31-1.27-.57-2.71-1.35-3.4-2.46-.64-1.03-.4-2.62-.55-4.08,3.14-1.27,6.18-2.5,9.35-3.78,2.58,3.05,3.06,5.77,1.63,8.01ZM185.09,255.42c-.41-.95-.82-1.88-1.28-2.95.7-.49,1.34-.94,2.01-1.41q1.27,2.84-.73,4.36ZM188.46,215.68c-1.24.63-2.56,1.14-4.07,1.8-.57-.74-.92-1.07-1.12-1.48-1.11-2.27-.98-3.59.39-4.37,2.07-1.18,4.27-.56,5.49,1.44.72,1.19.44,2.04-.69,2.62ZM201.75,334.6c-.13-.68-.26-1.36-.35-2.05,0-.04.59-.23.6-.2.29.63.54,1.27.8,1.91-.35.11-.71.22-1.06.33ZM202.03,342.51c.68,1.17,1,1.73,1.37,2.35q-1.71.01-1.37-2.35ZM231.94,349.88c-.06.92-2.22,2.19-3.57,2.41-1.15.18-2.64-.73-3.69-1.54-.43-.33-.07-1.67-.07-3.04-1.35.28-2.73.57-4.1.86-.05-.2-.1-.4-.15-.61,2.3-.75,4.62-1.45,6.91-2.26,2.22-.78,4.56-1.06,7.02-1.64-1.06,1.95-2.2,3.54-2.35,5.82ZM250.14,331.22c1.35,1.95,2.2,3.88.73,6.13-.13.19-.2.44-.25.67-.69,3.72-1.04,3.93-4.92,2.78-.55-4.05,2.21-6.63,4.43-9.57ZM241.59,325.88c-1.13.44-2.25.88-3.47,1.35v1.61l-.59.12c-.52-1.61-1.04-3.21-1.55-4.79,2.91-2.7,3.86-2.46,5.61,1.71ZM235.38,366.48c-.26-.48-.45-.85-.65-1.22,1.78-.69,1.96-3.26,4.09-3.54-.23.95-.47,1.9-.7,2.85-.85.59-1.69,1.18-2.74,1.9ZM239.98,365.26c-.59-.22-1.19-.45-1.78-.67.63-.08,1.25-.15,1.88-.23-.03.3-.06.6-.1.9ZM252.1,356.03c-2.05,3.16-4.07,6.84-9.39,6.17.08.15-.14-.13-.24-.45-.76-2.26-.75-2.25-2.42-.71-.32.3-.81.43-1.21.64,0,0,0,0,0,0-1.18-1.05-2.36-2.1-3.67-3.27,1.17-1.51,2.01-2.78,3.03-3.88,1.46-1.57,3.08-2.21,5.41-1.5,3.18.97,5.32-.72,6.27-4.43h-5.93c1.63-2.67,3.54-4.48,6.08-5.57,1.69,1.61-.48,1.71-.72,2.56,2.14,3.14,5.57,6.15,2.8,10.42ZM303.76,129.79c.87-.04,1.68-.08,2.48-.13,1.51-.09,2.69-.97,2.77-2.33.15-2.31.99-3.3,3.33-2.83.04,0,.25-.8.37-1.23-.74-1.36-1.48-2.72-2.23-4.09.4-2.4.82-4.91,1.31-7.86-.84-2.4-3.94,2-5.06-.93,3.29-2.67,7.06-1.24,10.78-1.25-.62.36-1.22.73-1.85,1.07-1.01.53-1.41,1.29-.84,2.34.56,1.04,1.3.75,2.08.23.15-.1.44.02.75.05-.24,2.52-1.42,4.89-.94,7.54.16.86-.44,2.08-2,1.94-.57-.05-1.19.53-1.78.82.88.58,1.76,1.17,2.74,1.83-.33.8-.63,1.53-.95,2.32.98.56,1.87,1.06,2.7,1.54-.85,4.73-1.03,3.36,2.18,5.04.16,1.14-.39,1.37-1.45,1.4-2.46.07-2.87.76-1.87,2.95.34.73.87,1.38,1.34,2.09-.89,1.97-2.58,2.12-3.88,1.26-1.95-1.3-.15-2.67.54-3.89-1.32-1.05-2.42-2.42-3.84-2.92-1.58-.56-3.44-.34-5.3-.46-.21.37-.52.93-.83,1.48-3.56-1.86.23-3.93-.57-5.96ZM308.22,138.03c-.24-.02-.44-.67-.67-1.03.63-.32,1.27-.65,2.2-1.12.13,1.69-.46,2.22-1.54,2.15ZM305.24,143.18c.34-.98.58-1.64.81-2.3,1.06,1.17,1.06,1.97-.81,2.3ZM303.27,147.85c1.08,1.93,2.07,2.81,3.81,1.13-.53-.85-1.04-1.68-1.73-2.78,3.67-1.74,7.03-.41,10.37-.36.11.24.23.49.34.73-1.47,1.18-2.94,2.37-4.57,3.67.46.62.87,1.16,1.27,1.7.02-.01.04-.03.06-.04,0,.01,0,.02,0,.04.94-.73,1.89-1.47,2.83-2.2,2.07-1.1,2.15-3.48,3.34-5.06,1.02,2.82.03,4.43-3.28,5.14.63.47,1.26.94,1.91,1.43-1.4,1.71-2.91,3.59-4.45,5.43-1.06,1.27-1.79.44-2.49-.42-.02,0-.03,0-.05.01,0-.01,0-.02,0-.04-1.32.37-2.64.74-4.13,1.16-.44-2.46.28-4.86-1.83-6.97-.32,2.21.46,4.55-2.4,5.6-.77-.73-1.66-1.6-2.79-2.68,1.28-1.86,2.44-3.55,3.78-5.5ZM304.9,162.01c.05.71.1,1.43.2,2.73-1.62-1.42-1.32-2.12-.2-2.73ZM304.93,161.98c.22-.96.45-1.91.73-3.12,1.67.9,2.84,1.54,2.35,3.56-1.09-.16-2.09-.3-3.08-.44ZM289.01,209.03c-1.14.88-2.05,1.58-2.97,2.29-1.33-2.08-1.35-3.23.04-4.07,1.66-1.01,2.25.19,2.93,1.78ZM264.52,227.93c1.06-1,2.78-1.43,2.73-3.43,0-.37,1.14-.77,1.75-1.15.23.69.8,1.5.61,2.05-.46,1.32-1.22,2.56-1.96,3.77-1.65,2.71-1.89,2.75-5.58,1.1.92-.88,1.68-1.61,2.44-2.33ZM268.75,221.36c.07-.3.14-.6.21-.9.57.18,1.15.35,1.71.58.04.02-.08.58-.09.58-.61-.06-1.22-.16-1.83-.25ZM262.07,374.64c-.9-2.47-.68-4.2,1.11-5.71,1.36-1.14,2.36-.57,3.15.04.36,1.72.65,3.13.98,4.72-1.66.3-3.44.63-5.24.95ZM264.63,254.93c.31-2.36.63-4.71.98-7.33,3.09,2.34,2.91,4.37-.98,7.33ZM270.31,238.63c-1.16-.3-1.83-.48-2.93-.77,1.15-3.56,2.26-7.01,3.29-10.18,1.49-.82,1.73,3.68,3.18-.16,2.22,3.18-.24,5.36.04,7.95-1.73.5-3.83.49-3.58,3.16ZM273.12,326.85c.82-1.2,1.51-2.2,2.24-3.27q1.53,2.76-2.24,3.27ZM270.57,215.12q-3.35-3.33-6.11-3.41c1.86-2.17,3.2-4.49,6.63-4.08.88.1,2.02-1.36,2.93-2.22.77-.73,1.38-1.63,2.28-2.71,1.52,5.96-.16,9.42-5.73,12.43ZM276.83,198.98c-.43.59-.99,1.16-1.61,1.48-.19.1-1.13-.64-1.18-1.05-.06-.57.23-1.43.68-1.75,1.93-1.4,1.54-3.1.85-4.95.51-1.21,2.78-.04,2.8-1.92.41.44.81.88,1.22,1.32-2.04,1.85-1.27,4.82-2.76,6.87ZM278.35,190.67c-.83-1.14-1.66-2.28-2.68-3.68-.92,1.78-1.47,3.21-2.35,4.39-.48.64-1.55,1.2-2.33,1.17-1.05-.04-1.88-.76-2.06-2.07-.27-1.96.14-2.48,2.28-2.35.45.03.9.13,1.29.19.95-1.5,1.82-2.86,2.79-4.39,1.57.77,3.05.92,4.53-.4.39-.35,1.62.25,2.82.49,2.17-1.74-.6-2.72-1.83-4.45,1.89-.67,3.45-1.22,5.02-1.77-.79,2.24.97,4.74-1.31,6.45-.34.26.21,1.71.38,2.87-1.3.1-1.68,2.57-3.89.85-.72-.56-2.25,1.2-2.65,2.7ZM281.17,261.71c-.53-1.32-.87-2.17-1.25-3.11.89-1.2,1.54-2.69,3.64-2.08.79,2.27-.75,3.45-2.38,5.2ZM284.1,253.68c0-.26-.02-.51-.03-.77h1.55c.02.17.04.34.06.52-.53.08-1.06.17-1.59.25ZM284.03,249.39c-.03-.18.38-.59.57-.58.25.01.48.35.85.66-.35.25-.61.59-.81.55-.25-.05-.58-.38-.61-.62ZM287.26,244.22c-.62-1.37-1.34-2.98-2.21-4.92-.61,1.21-1.1,2.2-1.67,3.32-1.33-2.73-1.11-4.45.62-6.01.1-1.01.2-2.02.32-3.32.45-.07,1.19-.18,1.97-.29.26,2-.39,3.21-2.12,3.77,1.72,1.69,3.1.38,4.18-.73.93-.96,1.41-2.36,2.21-3.77,1.58.38,2.14,1.95,2.67,3.25.56,1.38.81,2.98.77,4.47-.02.68-.98,1.52-1.71,1.94-1.45.82-3.04,1.4-5.03,2.29ZM295.6,256.09c-.94-1.18-1.89-2.36-3.29-4.11,2.13.12,3.66.21,5.25.3.16,1.98-.88,2.91-1.96,3.82ZM299.98,199.2c-.4.94-.53,1.99-.86,3.29-.6.68-2.84-.5-2.77,1.5.03.94,1,1.84,1.56,2.79-.5.61-1.6,1.39-1.76,2.33-.14.8.81,1.78,1.57,3.23,0,0-.32.71-.66,1.48.7.35,1.27.63,2.23,1.11-1.44.9-2.58,1.61-3.91,2.45-.1.94-.23,2.22-.38,3.59.74.39,1.44.76,2.28,1.2-.32.37-.49.75-.75.82-1.8.51-3.62.96-5.7,1.5-.69-.74-1.47-1.57-2.27-2.42-.86.32-1.73.64-2.88,1.06-.64-1.03-1.24-1.98-1.63-2.61,1.67-1.57,3.14-2.96,5.11-4.8-1.47-.11-2.26-.17-3.77-.28,1-1.35,1.48-2.59,2.37-3.07,2.07-1.13,2.62-2.98,2.96-4.98.27-1.59.58-3.02,2.24-3.8.3-.14.27-.97.39-1.49-.62-.06-1.47-.42-1.83-.14-1.16.92-2.14,2.06-3.2,3.14-2.61-3.05-2.64-3.81-.49-6.21-1.7-3.02-1.68-3,.29-5.54.4-.52.58-1.22.82-1.85.25-.66.45-1.34.75-2.22.74.1,1.4.22,2.06.27,1.22.08,1.99-.7,1.71-1.73-.88-3.32.94-4.83,3.58-5.97.74-.32,1.42-.75,2.13-1.14.68,1.92.45,3.5-1.08,5.15-1.56,1.69-1.25,2.67.49,4.46,3.61,3.72,3.59,3.71,1.41,8.88ZM303.32,190.21c-.2-.17-.41-.35-.61-.52.21-.25.41-.51.66-.72.03-.02.31.25.54.44-.19.26-.39.53-.58.8ZM326.23,188.28c-1.48-.72-2.96-1.36-4.51.52-1.22,1.47-2.07,1.09-4.13-.91-2.39.91-4.97,2.52-7.3-.24.32-2.19,1.68-1.54,3.13-1.21,1.16-3.92,2.32-7.86,3.59-12.14-1,.38-1.72.66-2.63,1-.86-.9-1.5-2.25-3.38-1.58-1.78.63-2.46,1.79-2.59,3.4-.14,1.76-.87,3.04-2.07,4.37-2.04,2.27-3.72,4.88-5.6,7.42-1.59-1.57-.19-2.76.53-4.04,1.1-1.94,1.03-3.12-.39-4.01-.44-.28-1.14-.16-1.72-.21-.97-1.37-2.04-1.43-3.23,0-.32-2.36-.62-4.51-.95-6.89.99-.72,2.27-1.42,3.27-2.42.93-.94,1.56-2.18,2.52-3.57,2.27.17,3.18,2.14,3.91,5.12.63-1.55.95-2.35,1.35-3.35,1.66.44,2.93-.06,3.66-2.28h-5.31q1.39-1.94,7.98-2.33c-.7-.61-1.17-1.01-1.62-1.41-.43-.38-.86-.76-1.35-1.2,1.06-2.24,2.72-1.71,4.31-1.25,1.29.38,2.01,1.35,1.95,2.69-.11,2.46-1.77,3.46-3.96,3.77.77,4.73,1.42,5.23,5.43,4.12,2.11,1.81,3.11,4.28,3.67,7.16,1.49.26,3.31.12,4.5.92,1.34.9,2.47,2.52,3.05,4.07.64,1.71-.59,3.16-2.13,4.49ZM338.5,121.4c-.66.4-.83,1.63-1.34,2.72-.69-.16-1.44-.32-2.5-.56-.28.36-1.03.87-1.06,1.42-.14,2.52-.88,4.83-1.83,7.13-.44,1.09.12,1.91,1.21,2.62,2.52,1.65,3.03,3.6,2.35,6.36-.41,1.65-.61,3.38-.66,5.08-.05,1.65.2,3.31.32,4.94-2.08,1.3-4.08,2.56-6.17,3.87.16.84.12,1.62.45,2.18.94,1.58,1.25,3.01-.04,4.6-.78.96-.7,1.99.89,2.74.96-1.27,1.95-2.56,3.09-4.06q1.32,3.29-.5,6.78c-1.32-.41-2.64-.93-4.02-1.21-2.21-.45-2.76,0-2.99,2.25-.09.82-.08,1.66-.11,2.38.53,1.09,2.62.9,1.8,2.99-1.9-.58-3.98-1.08-5.23,2.25-.68-2.55-2.8-3.74-1.15-6.02.31-.43-.34-1.78-.84-2.51-.85-1.27-1.92-2.39-3.18-3.91,1.41-1.62,2.79-3.18,4.23-4.83-1.11-3.32-.28-6.42,2.11-9.71.58,1.27,1,2.18,1.44,3.15.32-.13.69-.18.94-.38.63-.52,1.1-1.3,1.81-1.65,4.45-2.22,5-3.44,3.44-8.67-1.08,1.79-2.04,3.37-2.87,4.73h-6.02c-.68-1.24-1.54-2.74-2.34-4.27-.77-1.49-.31-3.03,1.35-4.35,1.3-1.03,2.94-1.79,2.38-4.09-.43.11-.83.21-1.45.37.47-2.1.53-4.33,1.49-6.06.91-1.64,2.77-2.75,4.3-4.17-2.1-2.55-4.12-4.54-7.88-3.03.15-1.46.27-2.67.39-3.92,1.19.13,2.17.49,3.01.28,1.14-.29,1.29-1.38,1.52-2.53.45-2.32,1.53-2.86,3.92-2.51.78.11,1.55.27,2.23.38,1.22-2.75-3.43-2.34-2.37-4.94,1.53.38,2.95.73,4.41,1.09-.3,1.07.09,1.52,1.49,1.77.59.1.93,1.68,1.38,2.58,3.38-.95,3.46-.85,4.25,2.41.59,2.42,1.1,4.65-1.61,6.29ZM321.34,125.07c-.08,1.19-.15,2.14-.21,3.09-1.52-.99-2.26-2.08.21-3.09ZM343.96,151.35c-.86-1.78-2.78-2.91-1.75-4.91.65-1.26,1.94-1.1,3.23-.24.11,1.63.63,3.39-1.48,5.15ZM347.15,138.31c-.56-.63-1.03-.92-1.08-1.28-.05-.33.35-.72.55-1.08.33.28.82.49.94.84.11.31-.18.76-.41,1.51ZM354.3,114.08c.29.01.57.19,1.11.39-.52.3-.8.6-1.05.58-.22-.02-.41-.4-.62-.62.19-.13.38-.36.56-.36Z"/>
  <path class="cls-1" d="M159.16,223.75s-.02,0-.02,0c0,.02-.02.04-.03.06l.05-.05Z"/>
  <polygon class="cls-1" points="35.59 126.82 35.59 126.82 35.63 126.79 35.59 126.82 35.59 126.82"/>
  <path class="cls-1" d="M192.15,299.2s0,.02,0,.04l.04-.05s-.02,0-.03.01Z"/>
  <path class="cls-1" d="M188.49,297.25c.29-2.05,3.57-1.04,3.48-3.68-2.12-.8-4.08-2.19-6.74-1.68-.37,1.09.22,2.79-1.64,2.97l-.05.04c.02,1.23-.57,1.75-1.77,2.24-2.3.95-2.78,2.11-2.21,4.52.29,1.22,1.01,2.32,1.41,3.52.36,1.08,1.03,2.35.74,3.3-.58,1.94.34,3.1,1.22,4.57,1.25,2.07,3.42,1.78,5.53,2.35-.59,1.67-1.07,3.1-1.6,4.52-.89,2.37-.43,2.86,2.44,2.51-.35-2.93.17-4.33,2.47-6.71-.33-1.98-1.32-3.04-3.49-3.25-1.67-.16-4.61-3.99-4.29-5.49.61-2.88,1.17-5.94,4.77-6.8,1.14-.27,2.25-.65,3.38-.99.08-.59.15-1.19.25-1.89-1.51.11-2.81,1.89-3.9-.06Z"/>
  <path class="cls-1" d="M370.83,76.81c-.21-1.67-.51-2.88-.47-4.09.05-1.49-.56-2.19-1.21-2.29-1.34.93-2.21,1.55-3.38,2.36-1.57,3.06,2.55,4.76,2.2,7.7-1.45.32-2.78.62-4.12.91,1.88,1.22.14,4.82,3.57,4.74-.18-.94-.34-1.79-.49-2.58,3.58-1.58,3.36-1.37,2.51-5.56.59-.52,1.19-1.04,1.38-1.2Z"/>
  <path class="cls-1" d="M183.36,292.17c-2.21-.84-1.69-3.2-2.53-4.23-1.23-.37-2.13-.53-2.93-.89-2.86-1.29-2.84-1.32-4.54,1.67.77.9,1.47,1.89,2.33,2.68.66.61,1.57,1.43,2.31,1.37,2.26-.18,3.8,1.14,5.53,2.13,0,0,.05-.04.05-.04-.06-.94.14-2.56-.22-2.69Z"/>
  <path class="cls-1" d="M53.8,70.51c.29-.96.3-2.22.9-2.67.62-.45,1.83-.1,2.45-.1.77-1.92,1.49-3.69,2.39-5.91-.18-.33-.61-1.13-1.18-2.19-3.65,2.93-5.27,5.66-5.83,9.09-.2,1.24.03,1.84,1.27,1.79Z"/>
  <path class="cls-1" d="M67.12,55.62q1.13-3.14-4.4-5.62c-1.83,1.13-2.49,2.68-1.87,4.34,2.29.47,4.26.87,6.27,1.28Z"/>
  <path class="cls-1" d="M346.71,54.99c-.78.05-1.47,1.84-2.13,2.88-.15.23-.02.65-.02,1.09h5.02c-1.02-2.02-.94-4.1-2.87-3.97Z"/>
  <path class="cls-1" d="M173.2,280.83c.4-.77,1.24-1.63,1.11-2.3-.27-1.39-1.06-2.69-1.63-4.02-.3.04-.61.08-.91.11-.1,1.44-.39,2.91-.21,4.32.09.69,1.07,1.26,1.64,1.88Z"/>
  <path class="cls-1" d="M361.41,36.97c1.36-.26,1.85-1.13,1.44-2.57-1.41.26-2.63.49-3.99.74.12,2.34,1.43,2.05,2.54,1.83Z"/>
  <path class="cls-1" d="M351.24,46.99c-.79,1.01-.29,2.27,1.05,2.92.43-1.4.87-2.81,1.3-4.21-1.17.26-1.88.69-2.35,1.3Z"/>
  <path class="cls-1" d="M352.31,49.92s-.01,0-.02-.01c0,.02-.01.04-.02.06l.04-.05Z"/>
  <path class="cls-1" d="M310.14,232.29c-.16-.24-.31-.49-.47-.73-.51.35-1.3.6-1.47,1.07-.55,1.48-.07,2.4,1.34,3.29.2-1.19.4-2.41.6-3.63Z"/>
  <path class="cls-1" d="M82.22,29.09c-.74-.67-1.2-1.38-1.81-1.55-.33-.09-1.2.67-1.33,1.18-.25,1.01.19,2,1.41,1.91.5-.04.94-.8,1.73-1.54Z"/>
  <path class="cls-1" d="M291.77,298.04c-1.16.79-2.13,1.45-3.42,2.33,3.14.63,3.38.45,3.42-2.33Z"/>
  <path class="cls-1" d="M359.2,51.31c-.64,1.62-1.1,2.8-1.68,4.28q3.24-1.75,1.68-4.28Z"/>
  <path class="cls-1" d="M257.52,392.59s-.04-.04-.04-.04c0,.02,0,.05,0,.07.02-.01.03-.02.05-.03Z"/>
  <path class="cls-1" d="M257.27,394.98c.31-.68.17-1.56.21-2.36-.97.71-1.94,1.41-3.06,2.22,1.29,1.23,2.24,1.47,2.85.13Z"/>
  <path class="cls-1" d="M217.53,383.46c.37.22.81.69,1.09.6,1.14-.35,1.65-1.13.31-2.78-.46.72-.93,1.45-1.39,2.17Z"/>
  <path class="cls-1" d="M308.97,241.63q2.54-2.46,1.27-4.52c-.39,1.4-.71,2.54-1.27,4.52Z"/>
  <path class="cls-1" d="M359.24,74.46c.17-1.13.34-2.26.59-3.9-2.22,1.18-1.73,2.5-1.55,3.75.32.05.64.1.95.15Z"/>
  <path class="cls-1" d="M351.65,78.07q1.81-2.19-.79-3.15c.28,1.12.49,1.97.79,3.15Z"/>
  <path class="cls-1" d="M325.74,204.42c-.5,1.42-1,2.83-1.53,4.33,2.47-1.71,2.58-2.01,1.53-4.33Z"/>
  <path class="cls-1" d="M325.72,204.38s.01.02.02.04c0-.02.01-.04.02-.06-.01,0-.02.02-.04.02h0Z"/>
  <path class="cls-1" d="M353.25,83.95h2.59c-.02-.31-.04-.61-.07-.92-.86.06-1.71.11-2.57.17.01.25.03.5.04.75Z"/>
  <path class="cls-1" d="M359.31,31.8c-.31-.19-.62-.38-.93-.57-.46.56-.93,1.13-1.39,1.69.46.27.93.53,1.39.8l.93-1.92Z"/>
  <path class="cls-1" d="M247.3,368.41c-.33-1.46-.99-1.85-2.43-.97.45,1.21,1.07,1.67,2.43.97Z"/>
  <path class="cls-1" d="M351.74,18.29c-.22,0-.44,0-.66,0-.06.91-.12,1.83-.19,2.74.28,0,.56.01.85.02v-2.76Z"/>
  <path class="cls-1" d="M71.87,54.72c.27-.07.53-.14.8-.2-.12-.69-.25-1.38-.37-2.08-.39.09-.77.17-1.16.26.24.67.48,1.35.72,2.02Z"/>
  <path class="cls-1" d="M224.77,380.02c-.65.23-1.29.45-2.16.75,1.3,1.73,1.9,1,2.16-.75Z"/>
  <path class="cls-1" d="M357.46,57.45c-1.2-.59-1.98-.97-2.76-1.35-.11.23-.22.46-.33.68.77.41,1.05,1.84,3.08.67Z"/>
  <path class="cls-1" d="M352.12,32.23l-.87-.22c-.23.63-.45,1.26-.68,1.89.4.09.81.18,1.21.27.11-.64.22-1.29.34-1.93Z"/>
  <path class="cls-1" d="M361.24,85.16c.28-.02.57-.03.85-.05-.04-.63-.09-1.26-.13-1.9l-.62.02c-.03.64-.07,1.28-.1,1.92Z"/>
  <path class="cls-1" d="M361.21,26.96s-.59-.17-.61-.13c-.26.64-.47,1.31-.7,1.96.37.11.74.22,1.12.33.07-.72.16-1.44.19-2.16Z"/>
  <path class="cls-1" d="M68.69,42.93c-.12-.33-.24-.65-.35-.98-.62.3-1.23.6-1.85.9.09.22.19.45.28.67.64-.2,1.28-.39,1.92-.59Z"/>
  <path class="cls-1" d="M71.15,44.21v-1.89c-.33.03-.66.05-.99.08.1.64.2,1.28.3,1.92.23-.03.46-.07.7-.1Z"/>
  <path class="cls-1" d="M341.05,94.08c-.41-.61-.82-1.22-1.23-1.84-.22.14-.45.29-.67.43.5.57,1,1.15,1.5,1.72.13-.1.26-.21.4-.31Z"/>
  <path class="cls-1" d="M295.05,265.06c.06.36.38.68.59,1.01.24-.2.47-.4.89-.75-.35-.37-.62-.65-.89-.94-.21.23-.63.5-.6.68Z"/>
  <path class="cls-1" d="M35.59,126.75v.08s.02-.03.03-.05c-.01-.01-.02-.02-.03-.03Z"/>
  <path class="cls-1" d="M34.53,125.61c.19.45.67.77,1.05,1.14,0-.71,0-1.42,0-2.13-.69.27-1.15.75-1.05.99Z"/>
  <path class="cls-1" d="M360.05,55.89c-.18-.01-.38.17-.57.27.19.21.36.57.57.6.24.03.52-.23,1.04-.49-.51-.2-.77-.36-1.03-.38Z"/>
  <path class="cls-1" d="M229.57,371.96c-.53.35-1.05.69-1.58,1.04.15.2.3.4.45.61.5-.38,1.01-.76,1.51-1.14-.12-.17-.25-.34-.37-.5Z"/>
  <path class="cls-1" d="M194.63,298.8c-.94.16-1.68.29-2.41.42,1.47,1.17,1.48,1.15,2.41-.42Z"/>
  <path class="cls-1" d="M192.14,299.24s.05,0,.08-.01c-.01-.01-.03-.02-.04-.03,0,0-.04.05-.04.05Z"/>
  <path class="cls-1" d="M350.29,43.94c-.45.39-.89.77-1.34,1.16.15.16.29.32.44.49l1.36-1.1-.46-.55Z"/>
  <path class="cls-1" d="M352.31,49.92s-.04.05-.04.05c.02,0,.03,0,.05,0,0-.01-.01-.03-.02-.04Z"/>
  <path class="cls-1" d="M352.33,49.96c.24.58.49,1.18.96,2.28.39-1.58.84-2.55-.96-2.28Z"/>
  <path class="cls-1" d="M355.9,34.74c-.64-.53-.86-.86-1.11-.89-.3-.03-.63.19-.95.31.03.16.07.33.1.49.49.02.98.05,1.96.09Z"/>
  <path class="cls-1" d="M292.31,261.76c.33.38.67.75,1,1.13.12-.46.27-.92.32-1.39.02-.15-.22-.33-.34-.5-.33.25-.66.5-.99.75Z"/>
  <path class="cls-1" d="M360.76,81.17c.06-.08-.18-.37-.35-.69-.24.26-.51.46-.64.72-.06.12.18.38.28.57.25-.19.53-.36.71-.6Z"/>
  <path class="cls-1" d="M148.74,215.53c-.31-.52-.52-1.05-.62-1.03-.37.08-.75.3-1.02.56-.07.07.21.72.37.74.36.04.75-.14,1.27-.27Z"/>
  <path class="cls-1" d="M323.01,158.52c-.04.16.55.68.61.64.44-.28.9-.6,1.17-1.03.08-.12-.44-.63-.92-1.27-.42.76-.73,1.18-.86,1.65Z"/>
  <path class="cls-1" d="M330.91,123.01c-.23.18-.64.34-.66.54-.03.37.16.76.53,2.11.42-.98.68-1.3.64-1.58-.05-.37-.33-.71-.51-1.06Z"/>
  <path class="cls-1" d="M316.33,182.99c.06.28.16.63.38.77.13.09.48-.16,1.34-.48-.65-.32-.92-.52-1.22-.58-.15-.03-.51.22-.5.28Z"/>
  <path class="cls-1" d="M313.47,131.02c-.39-.3-.6-.54-.86-.62-.12-.04-.49.25-.49.38.01.26.2.51.32.77.28-.14.56-.28,1.03-.52Z"/>
  <path class="cls-1" d="M310.64,156.23s.01,0,.02,0c0,0,.02.02.02.03,2.54-.52,2.11-2.53,2.14-4.31-.01,0-.03.02-.04.03,0,0-.01-.02-.02-.02-1.52,1.02-2.05,2.54-2.13,4.29Z"/>
  <path class="cls-1" d="M159.16,223.75s-.05.05-.05.05c.02,0,.04,0,.06,0,0-.02,0-.04,0-.06Z"/>
  <path class="cls-1" d="M161.15,226.69c.38-1.88-.26-2.77-1.99-2.88.19,1.18.18,2.5,1.99,2.88Z"/>
</svg>