<?xml version="1.0" encoding="UTF-8"?>
<svg id="Layer_1" data-name="Layer 1" xmlns="http://www.w3.org/2000/svg" viewBox="0 0 421.68 500">
  <defs>
    <style>
      .cls-1 {
        fill: #488cca;
        stroke-width: 0px;
      }
    </style>
  </defs>
  <path class="cls-1" d="M409.65,391.87v-4.84c-.3-.05-.59-.11-.89-.16-1.03,3.35-3.98,5.87-4.13,9.61.27.2.53.4.8.6.88-.88,1.76-1.77,2.59-2.61,1.08,2.63-.56,6.42-3.21,7.15q-4.35,1.2-3.9,5.87c.02.26-.1.53-.84,1.42-.45-1.07-.91-2.15-1.36-3.22-.23.22-.46.44-.69.66-1.42,4.09-2.85,8.18-4.17,11.97,1.21.91,2,1.5,2.79,2.09-.66.73-1.19,1.74-2.01,2.13-3.5,1.65-5.73,4.71-8.4,7.28-.73.7-1.42,1.44-2.21,2.06-2.73,2.12-5.63,4.06-8.19,6.37-.89.8-.99,2.48-1.55,4.04-.92-.84-1.77-1.61-2.84-2.58,2.24-3.27,6.74-5.28,5.57-10.69-1.45,1.54-3.08,2.95-4.31,4.65-1.03,1.42-1.2,4.07-2.45,4.62-3.69,1.65-3.69,6.12-6.89,8-.87.51-1.65,1.66-1.86,2.65-.31,1.47-.08,3.07-.08,4.8-.13-.19-.5-.73-.86-1.29-.95-1.5-1.95-2.53-3.81-1.06-.37.29-1.62.15-1.84-.2-.3-.46-.21-1.45.11-1.97.35-.57,1.13-.91,1.76-1.29,2.75-1.64,4.23-5.17,3.47-9.56-1.59,1.63-2.73,3.07-4.13,4.17-2,1.57-4.21,2.88-6.56,4.46.04,6.54-.71,7.59-8.79,13.52.77-1.61,1.54-3.21,2.3-4.81-.58.09-1.39.22-2.81.44.75-1.59,1.27-2.7,1.89-4-2.03-.44-3.24.08-5.07,1.26-3.02,1.95-4.23,4.41-5.8,7.35-.98,1.84-2.91,5.2-6.71,4.72-.98-.12-2.15,1.23-2.92,1.71-1.77-1.53-3.33-2.99-5.04-4.25-.36-.27-1.29.25-1.96.4.42.51.78,1.12,1.29,1.52.9.71,1.9,1.29,2.86,1.93-1.09,1.55-1.93,3.44-3.37,4.53-.97.73-1.64.75-.97,2.13.31.64.14,2.18-.26,2.37-1.44.69-2.92,2.52-4.71.62-.56-.59-.99-1.3-1.83-2.42-.54,1.61-.94,2.79-1.26,3.76-2.68.49-5.44.57-7.79,1.59-1.48.64-2.26,2.78-3.52,4.09-.73.77-2.21,1.93-2.61,1.69-.95-.58-1.97-1.84-2.06-2.9-.25-2.91-.92-5.95,1.08-8.69.33-.45-.2-1.54-.46-3.13-2.53,3.61-4.66,6.65-6.67,9.52-1.95.95-3.92,1.83-5.81,2.86-3.69,2.02-4.39,1.78-5.46-2.27-.67.14-1.36.43-2.02.37-.69-.06-1.35-.47-2.69-.98.31,3.19.58,5.93.86,8.68-.3.2-.59.4-.89.6-.46-1.01-.93-2.02-1.39-3.02-.35.05-.71.1-1.06.15-1.3,1.98-2.6,3.95-3.91,5.93-.09-.15-.18-.31-.26-.46-1.5,1.14-3.09,2.17-4.46,3.43-1.6,1.47-3.14,2.19-5.32.7.67-.86,1.92-1.97,1.74-2.3-.93-1.7-2.04-3.42-3.5-4.65-.56-.47-2.55-.03-3.23.66-.54.54-.07,2.09-.03,3.18.02.66.09,1.32.14,1.98-.64-.2-1.33-.29-1.9-.61-2.03-1.14-4.01-2.35-6.31-3.71.67-.9,1.13-1.51,1.83-2.45.46,1.05.74,1.71,1.14,2.61,1.16-1.71,2.17-3.21,3.46-5.12-4.85.27-7.38,3.25-7.29,7.2.02.94-.97,2.11-1.81,2.8-1.12.91-2.49,1.56-3.84,2.13-1.35.57-2.8.92-4.21,1.36-.31-1.21-.65-2.4-.92-3.62-.19-.83-.29-1.69-.42-2.47-1.98,1.16-3.67,2.14-5.62,3.28-.27.7-.6,2.82-1.25,2.93-2.22.36-4.76,1.99-6.69-1.18-.94-1.54-2.97-2.41-4.51-3.58.12-.32.24-.63.36-.95,1.04.1,2.08.19,3.39.31.33-.7.78-1.68,1.32-2.82.73.35,1.44.68,2.1,1,1.58-1.05,1.48-4.47-.25-5.58,0,2.68-1.59,3.77-3.96,4.1-2.3.33-4.4.89-4.49,3.87-.01.46-.58.9-.93,1.41.9.25,1.7.48,2.51.7.02.34.04.67.07,1.01-2.04.28-4.11.43-6.11.89-1.2.27-2.26,1.11-3.44,1.51-.63.21-1.82.32-2.01,0-.85-1.35-1.6-2.81-2.04-4.34-.4-1.39-.34-2.91-.53-4.96,1.4.65,2.19,1.02,3.07,1.43,1.21-1.53,2.45-3.09,3.82-4.82-1.22-1.3-1.9-3.47-4.6-1.56-.74.53-2.48-.34-4.2-.65,1.91,2.46.98,7.79-1.23,9.69-2.32,1.99-3.01,2.03-5.05-.03v3.27c-.25.16-.5.33-.75.49-.89-.93-1.78-1.85-2.86-2.97-1.36.07-3.18.16-5.31.27-.22-.7-.53-1.69-.85-2.73-2.51.28-2.23,4.8-5.9,3.4.45-.53.84-.85,1.03-1.26.2-.43.42-1.08.23-1.41-.19-.33-.85-.45-1.33-.53-2.1-.35-4.21-.65-7.05-1.07,2.17-1.48,3.49-2.38,5.1-3.48-2.56-1.5-4.29-.96-5.92.83-.91,1-2.04,2.66-2.98,2.61-2.81-.16-5.59-.96-8.33-1.7-.45-.12-.85-1.17-.88-1.8-.01-.28.93-.7,1.49-.89.59-.2,1.24-.2,2.28-.35-1.26-1.08-2.24-1.93-3.41-2.93-.35.53-.83,1.24-.97,1.45-3.98,1.55-7.54,1.96-10.63-1.05.17-.56.41-1.34.91-2.95-2.53,1.47-4.52,4.18-6.72.47,1.16-.53,2.36-.85,3.24-1.57.51-.42.49-1.48.71-2.24-.76-.03-1.91-.41-2.21-.05-3.6,4.13-7.32,1.22-10.94.22-.49-.14-.7-1.32-1.12-2.18-2.81,2.36-4.65-.85-6.92-1.74-1.07-.42-1.71-1.61-3.28-1.25-.5.11-1.31-1.13-2.5-2.24,1.68-.2,2.53-.3,4.29-.51-2.07-1.5-3.51-2.55-4.95-3.6-.18.22-.37.43-.55.65.35.61,1.11,1.39.95,1.8-.29.74-1.14,1.8-1.74,1.79-2.26-.04-4.71-3.67-4.18-5.82.1-.41.2-.87.11-1.25-.44-1.73-.9-3.46-1.46-5.15-.16-.47-.7-.81-.97-1.12-.5,1.45-.93,2.67-1.54,4.45-.13-.18.18.24.46.67.28.42.55.86.51,1.82-3.18-1.25-6.35-2.49-8.97-3.52-.73-3.79-1.26-7.43-2.23-10.94-.25-.89-1.92-1.38-2.94-2.06-.43,1.11-.87,2.21-1.29,3.33-.37,1-.72,2.01-1.07,3-5.37-4.32-10.16-8.17-15.71-12.64,1.06-.48,1.71-.77,2.13-.96-.87-1.94-1.38-3.88-2.51-5.35-1.08-1.41-2.88-2.25-4.22-3.49-.53-.49-.67-1.39-.99-2.1.8.23,1.76.27,2.38.74.98.75,1.75,1.8,2.82,2.49-2.17-5.52-6.84-7.23-11.09-4.37-2.24-1.4-4.24-2.94-4.64-5.89-.09-.64-1.03-1.25-1.69-1.71-2.14-1.5-3.84-3.2-3.12-6.36-.94-.15-1.78-.13-2.49-.42-1.31-.54-2.19-1.3-1.27-3,.34-.62.25-2.12-.17-2.4-4.47-2.9-6.96-7.18-9.08-11.87-1.03-2.28-2.71-4.26-3.98-6.45-.52-.9-.74-1.97-1.09-2.96,1.14-.39,2.29-.77,3.65-1.24.8-3.19.46-4.04-2.66-5.37.57,1.37,1.06,2.54,1.54,3.7-1.77-1.07-4.97-.55-4.26-3.91.06-.29-.44-.77-.76-1.07-3.12-2.97-3.1-4.03.65-7.05-4.02,1.03-4.69-1.67-5.21-3.98-1.29-5.71-2.43-11.45-3.39-17.23-2.36-14.19-.59-28.32.98-42.43.28-2.56,1.4-5.03,1.86-7.58.8-4.47,1.38-8.98,2.07-13.47.07-.44.08-.98.35-1.3,1.9-2.27.99-4.51-.36-6.41-3.6-5.02-6.54-10.28-7.83-16.39-.16-.77-.86-1.42-1.21-2.17-.59-1.26-1.66-2.61-1.54-3.83.58-5.62-3.26-9.51-5.05-14.95-1.61,4,2.62,5.49,2.24,8.4-4.36-2.39-6.47-7.29-5.24-11.86.26-.96.43-2.09.18-3.01-1.3-4.7-2.7-9.39-4.22-14.02C1.82,221.87.82,221.14,0,220.14c1.81-1.32,2.56-2.63.4-4.5-.62-.54-.43-2.49-.02-3.56.24-.61,1.81-1.2,2.55-.99.96.28,1.89,1.24,2.49,2.13,1.17,1.76,2.19,3.63,3.1,5.53,1.89,3.95,3.67,7.95,5.72,12.42.37-.53,1.34-1.32,1.21-1.82-.84-3.25-1.91-6.44-3.06-10.16.36-.15,1.32-.54,2.3-.95,1.15,1.94-1.75,5.21,2.61,5.44.09-1,.17-1.94.27-3.02,2.54-.04,3.01,1.72,3.52,3.56.48,1.74.02,2.79-1.68,3.55-3.04,1.36-2.73,4.54-2.61,6.86.16,3.23,1.37,6.46,2.44,9.58.44,1.29,1.8,2.47,3.33,1.22,1.21-.99,1.41-2.39.07-3.63-.55-.51-1.08-1.03-1.64-1.52-.21-.18-.56-.24-.7-.45-.42-.64-.92-1.29-1.08-2-.07-.32.73-1.21.93-1.15.84.25,1.79.59,2.36,1.2,1.07,1.15,2.23,2.4,2.77,3.83.51,1.36.95,3.53.25,4.42-3.58,4.56.47,7.76,1.72,11.4.42,1.22,1.64,2.18,2.49,3.25,3.9-3.23,5.26-7.26,3.44-11.49-1.43-3.32-3.23-6.48-4.76-9.76-.7-1.5-1.08-3.14-1.67-4.7-.42-1.12-.95-2.2-1.43-3.3-.71.83-1.42,1.66-2.54,2.98-.56-.62-1.96-1.72-1.79-2.07.61-1.28,1.56-2.99,2.72-3.31,3.99-1.11,3.84-.84,2.45-4.74-1.04-2.92-1.56-5.96-4.29-8.01-.6-.45-.5-1.74-.9-2.55-.38-.78-.86-1.83-1.54-2.09-4.63-1.71-5.97-6.1-8.12-9.8-.46-.79-.41-2.04-.25-3.01.89-5.31-.05-10.34-2.14-15.21-.18-.43-.42-.87-.44-1.32-.34-8.04.15-16,2.35-23.81,1.43-5.09,2.51-10.3,4.18-15.31.97-2.92,2.84-5.53,4.23-8.31,1.23-2.46,2.09-5.15,3.61-7.41,4.62-6.86,9.4-13.62,14.26-20.32,5.29-7.28,10.62-14.53,16.16-21.62,4.74-6.06,9.71-11.96,14.78-17.75,2.97-3.39,6.32-6.44,9.54-9.59.56-.55,1.36-.87,2.05-1.29.46-.28,1.28-.48,1.35-.82.84-4.42,5.7-5.38,7.47-8.5,1.56-2.74,4.12-3.91,5.93-6.06,1.43-1.7,4.13-2.35,6.26-3.45.3-.16.92-.36.92-.37-1.17-3.36,2.13-2.87,3.48-3.84,2.99-2.16,6.01-4.58,9.41-5.78,3.69-1.3,6.02-4.41,9.52-5.74.51-.19,1.26.21,1.75-.02,1.13-.52,2.56-1.01,3.16-1.96.87-1.37,5.85-5.15,7.42-4.64,2.45.81,3.77-.51,5.25-2,.73-.74,1.77-1.19,2.66-1.77.17.26.34.53.51.79-.82.95-1.63,1.9-2.45,2.86l1.05.73c.64-1.13,1.64-2.2,1.84-3.4.3-1.83.81-2.35,2.82-2.4,2.32-.06,4.64-1.03,6.9-1.77,2.86-.94,5.64-2.14,8.52-3.02,1.1-.34,2.39.02,3.55-.18,2.41-.4,4.6-1.07,6.92-2.25,2.6-1.32,6.68-2.69,9.85.73.27-2.01.35-4.13,2.84-1.88.18.16.82-.16,1.23-.31,3.6-1.27,7.14-1.86,9.55.24,2.23-.35,3.67-.56,5.1-.82,1.14-.21,2.27-.48,3.4-.74.54-.12,1.07-.42,1.59-.39,2.53.15,5.14.03,7.54.68,2.48.68,4.43.88,6.9-.42,1.56-.82,4.29-.54,6,.27,3.82,1.82,7.57.34,11.33.53,1.7.09,3.45-.06,3.04,1.81.8-.43,1.62-1.16,2.53-1.29,2.88-.43,5.79-.67,8.69-.9.48-.04,1,.36,1.68.62-.38.52-.66.89-.93,1.25.09.17.18.35.27.52,1.6-.62,3.2-1.7,4.81-1.74,1.53-.03,3.07,1.04,4.69,1.66,1.81-.57,3.93-1.75,6.06-1.76,1.94,0,4.05,1,5.8,2.03,2.14,1.27,4.02,2.98,5.93,4.6.66.56,1.07,1.41,1.97,2.63.14-1.56.25-2.75.4-4.5,5.32,1.33,9.24,5.08,14.11,7.79.27,1.25-.33,4.08,3.19,2.72.49-.19,1.41.75,2.25,1.25-.18.58-.36,1.17-.3.97,1.58,2.83,2.87,5.16,4.17,7.49.18-.07.36-.15.55-.22-.63-1.61-1.25-3.22-1.89-4.86,4.1.54,7.83,4.74,7.87,8.46.01.91.43,2.16,1.11,2.65,4.11,2.97,5,8.09,8.05,11.76,1.34,1.62,2.46,3.51,3.31,5.43,1.29,2.91,2.3,5.94,3.33,8.95.17.5-.15,1.17-.26,1.86,2.83.2,3.25,1.63,2.58,3.77.27,1.54.54,3.08.81,4.61-.26.15-.51.3-.77.46.69.25,1.67.93,2.03.68,2.1-1.4,2.82.14,3.61,1.52,2.4,4.26,2.04,8.5-.3,12.34,1.08,1.37,1.94,2.46,2.63,3.34.41-.37,1.26-1.57,1.67-1.43,1.09.37,2.58,1.14,2.82,2.04.45,1.71.13,3.61.13,5.56-.96-1.18-.45-3.98-3.21-3.18-1.11,6.32,2.49,10.75,6.12,14.98,1.53,1.78,1.22,2.81.07,4.13-1.62-2.21-3.2-4.37-4.77-6.54-.2.15-.4.31-.6.46,2.26,4.29,4.52,8.59,6.73,12.8.49-.57,1.14-1.33,1.78-2.08,1.16,1.72,3.34,3.49,3.27,5.16-.15,3.37,1.34,5.86,3.01,8.21,1.79,2.51,4.22,4.58,6.51,6.69.38.35,1.55.13,2.2-.18.82-.39,1.39-1.28,2.2-1.69,1.38-.68,2.19-.75,2.5,1.41.57,3.87,1.73,7.66,4.3,10.95,1.42-1.66,2.62-3.07,4.31-5.05,1.36,3.39,2.54,6.25,3.67,9.14,1.95,5,4.02,9.95,5.74,15.02,1.57,4.65,2.96,9.39,4.05,14.17,1.65,7.24,2.99,14.55,4.43,21.84.43,2.18.96,4.38,1.05,6.59.15,4.07,1.28,7.74,2.79,11.53,1.57,3.92,2.08,8.33,2.62,12.58.32,2.51-.21,5.13-.36,7.7-.03.56-.28,1.19-.09,1.65,1.34,3.3,2.78,6.55,4.15,9.83.37.89.87,1.81.91,2.73.12,2.48-.06,4.97.05,7.45.09,2,.67,4,.61,6-.17,5.85,2.11,11.11,3.74,16.53.66,2.2,1.32,4.4,2.14,7.16.04,1.3-3.96,1.52-2.06,4.05.49.65,2.06.47,3.65.78.5,2.21,1.21,4.93.34,8.13-.65,2.41-.18,5.3.44,7.81.62,2.51.35,6.33-1.4,8.01.49,1.15,1.15,2.27,1.43,3.48.24,1.07.05,2.25.05,3.84,2.5,2.88,2.44,4.81-1.02,8.87-1.21,1.43-1.7,2.61-.1,4.27.56-.71,1.09-1.36,1.83-2.29.39.66,1.06,1.32.92,1.61-1.22,2.57.86,4.07,2.02,5.58.99,1.28,1.12,2.02.05,3.02-1.23,1.15-1.04,2.18-.46,3.72.52,1.37.62,3.57-.16,4.63-2.53,3.43-1.95,7.36-2.52,11.1-.61,4.08-1.21,8.15-1.78,12.23-.09.61.13,1.3-.07,1.85-.7,1.95-1.48,3.88-2.32,5.78-.5,1.12-1.24,2.12-1.76,3.23-.46.98-.76,2.04-1.14,3.07-.35-.11-.71-.23-1.06-.34ZM124.01,102.83c-1.82,1.49-3.64,2.98-5.46,4.46-2.5-1.09-3.5.21-3.66,2.3-.87-.56-2.19-1.6-2.32-1.47-1.34,1.34-2.53,2.86-3.67,4.39-.22.29-.2.94-.02,1.29.4.79.97,1.5,1.49,2.27-2.88,1.23-3.25.8-3.29-3.45-3.52-1-1.46,3.32-3.73,3.53.71.76,1.23,1.32,1.79,1.91-3.81,2.27-4.92,2.11-7.07-1-1.76.82-3.27,1.74-2.86,4.13.07.38-.13.86-.34,1.22-1.21,2.1-2.43,4.19-3.72,6.24-.67,1.06-1.31,2.63-2.28,2.9-4.2,1.21-6.9,4.36-9.83,7.15-1.62,1.55-2.81,3.59-4.06,5.5-1.26,1.92-2.43,3.91-3.52,5.94-1.19,2.22-2.55,4.42-3.29,6.8-1.09,3.5-1.69,7.14-2.54,10.72-.1.43-.58.8-.63,1.22-.15,1.3-.28,2.63-.18,3.93.02.29,1.48.77,1.53.7.65-1.05,1.37-2.13,1.67-3.3.43-1.68.53-3.45.79-5.35,1.43,1.52,2.55,2.71,3.88,4.12,1.15-3.28.96-3.9-.63-5.7-.43-.49-.7-1.58-.44-2.11.38-.79,1.21-1.47,1.99-1.93.83-.48,2.08-.4,2.72-1.01,2.35-2.23,4.45-4.74,6.82-6.96,1.04-.97,2.55-1.42,3.78-2.22.68-.45,1.59-1.06,1.74-1.74.34-1.58.29-3.24.42-5.13-1.3.29-2.23.51-3.16.72-.2-.26-.39-.53-.59-.79,1.07-1.05,2.32-3.08,3.18-2.93,1.61.28,3.26,1.62,4.37,2.95.52.63-.15,2.26-.3,3.61,1.5.56,3.75-.26,4.68-2.16-.83-.47-1.67-.93-2.7-1.51.65-.77,1.23-1.26,1.55-1.88.32-.62.39-1.36.57-2.06,3.11,1,4.69.03,6.01-2.86.91-2.01,2-4.44,5.2-3.26.43.16,1.5-.25,1.64-.63.7-1.95,3.98-2.64,2.72-5.54-.09-.2.24-.75.51-.9,2.07-1.14,4.1-2.89,6.3-3.17,3.06-.39,5.64-1.36,8.44-2.56,3.3-1.41,6.01-4.63,10.13-4.02.26.04.56-.48.9-.62,5.01-2.11,9.54-5.49,15.27-5.67.62-.02,1.24-.33,1.85-.54,2.82-.99,5.63-2.02,8.46-2.97,2.24-.75,4.52-1.38,6.77-2.08.53-.16,1.04-.4,1.58-.53,5.23-1.26,10.95-.53,15.65-4,.45-.33,1.53.2,2.32.32,2.06.31,4.18,1.05,6.18.81,2.74-.32,5.38-1.42,8.09-2.08.45-.11,1.1.22,1.54.51,2.32,1.54,5.23-2.28,7.35.84.01.02.16-.05.21-.07.18-.75.36-1.47.36-1.46,3.68-.41,6.77-.76,10.4-1.16.06-.17.32-.93.48-1.4-1.4-.34-2.42-.58-3.43-.83.3-.88.6-1.75.89-2.63-.92.15-2.06.72-2.72.37-1.71-.9-2.29-.62-3.03,1.2-.38.92-2.15,1.39-3.39,1.74-.3.08-.96-1.12-1.49-1.78-.59-.12-1.46-.35-2.35-.45-.56-.07-1.18-.06-1.71.11-1.25.4-2.6,1.49-3.63,1.22-1.07-.28-1.81-1.83-2.76-2.91-.46.22-1.19.87-1.93.87-1.72,0-3.45-.26-5.17-.48-1.49-.19-2.98-.77-4.43-.67-2.81.2-5.59.89-8.41,1.11-1.75.14-3.53-.2-5.3-.31-.26-.02-.55-.02-.77.09-1.66.81-5.51.06-7-1.5-.7,1.42-3.36,1.05-3.02,3.51,0,.07-1.36.62-1.83.4-1.12-.52-2.09-1.37-3.38-2.28,1.47-.69,2.56-1.2,3.65-1.71-.11-.2-.22-.4-.33-.61-2.45.95-4.9,1.9-7.35,2.85-.2-.36-.41-.73-.61-1.09.92-1.02,1.84-2.05,3.16-3.51-7.08-1.57-9.4,5.17-14.05,7.23-.83-1.03-1.65-2.06-2.63-3.28-1.9,2.48-3.03,5.26-5.6,5.09-.22,1.51-.37,2.52-.61,4.16-3.05-4.49.61-5.99,2.08-8.51-2.34,1.26-4.67,2.53-7.01,3.79.1.19.2.37.3.56.61-.16,1.22-.32,1.67-.43-1.09,2.36-2.13,4.6-3.16,6.84-.23-.2-.46-.39-.69-.59-1.1-1.62-2.2-3.23-3.3-4.85-.42.17-.83.33-1.25.5.16,1.27.31,2.55.48,3.88-.06.04-.36.23-.67.43-.08.05-.17.09-.25.14ZM338.54,345.17c.03,2,.35,3.79,3.03,4.25-.02-2.38-1.07-3.65-3.06-4.22-.48-4.12-.89-8.26-1.45-12.37-.35-2.55-1-5.06-1.38-7.6-.58-3.88-1.96-7.79.77-11.55.45-.62-.14-2.1-.43-3.14-.52-1.87-1.7-3.73-1.62-5.55.09-2.15-.67-3.47-1.96-4.93-.8-.91-1.94-2.62-1.6-3.27,1.8-3.4-.18-6.23-1.18-9.03-.92-2.58-.17-3.6,2.4-4.4.68,2.36,1.35,4.69,2.02,7.02.44-.11.89-.21,1.33-.32-.56-3.38-1.06-6.77-1.76-10.12-.07-.31-1.6-.73-2.12-.45-1.85.97-3.1-.38-3.43-1.41-1.14-3.61-1.92-7.35-2.67-11.07-.66-3.28-1.01-6.63-1.69-9.91-.42-2.02-1.2-3.96-1.82-5.94.16-.09.32-.18.48-.26.57.45,1.14.9,1.71,1.35l.81-.45c-.37-.82-.62-2.27-1.12-2.36-2.88-.51-2.61-2.18-2.18-4.35.56-2.79,2.51-6.09-.4-8.3-2.86-2.17-3.12-5.33-4.53-8.06-.89-1.72-.94-3.23.14-4.97,1.26-2.01,1.95-4.23.78-6.63-.95-1.94-1.59-4.03-2.65-5.9-4.47-7.87-7.27-16.64-13.89-23.34-5.7-5.78-10.74-12.22-16.09-18.35-.29-.33-.77-.5-1.15-.76-4.16-2.83-8.35-5.62-12.4-8.59-.38-.28.07-1.71.13-2.6.76.15,1.69.09,2.23.52.59.47.83,1.4.97,1.66,3.75.7,5.37,3.7,7.93,5.86-.12-6.01,4.5-1.88,6.48-3.62.85-2.99.89-3.04-1.53-5.03-1.28-1.06-2.75-1.9-4.11-2.87-1.13-.8-2.95-1.45-3.24-2.51-1.4-5.06-7.25-6.27-9.37-10.92h-2.17c.14-2.73-1.67-3.54-3.77-4.11-1.24-.34-2.51-.64-3.67-1.17-2.92-1.33-5.79-2.77-8.27-3.98-1.01-1.63-1.99-3.22-2.97-4.8-.32.13-.64.27-.95.4.24,1.31.67,2.62.63,3.92-.02.72-.75,1.88-1.33,2-1.07.21-2.29-.09-3.36-.45-.19-.06-.17-1.55.15-2.18,1.19-2.38,2.61-4.65,3.83-7.02,1.2-2.33.41-3.87-2.12-3.37-2.4.47-4.07-.52-6.01-1.24-.86-.32-1.8-.59-2.71-.62-3.52-.13-7.04-.16-10.56-.2-3.78-.05-7.55-.06-11.33-.12-1.99-.03-4.41-.9-5.86-.06-2.79,1.61-4.51.46-6.37-1.12-1.26-1.06-2.32-1.01-3.41.13-1.53,1.6-3.06,2-4.77.19-.39-.41-1.1-.53-1.83-.87-.21.72-.33,1.24-.51,1.73-.17.47-.4.91-.72,1.63-.55-.66-.96-1.03-1.22-1.49-1.58-2.85-2.88-3.25-5.86-2.17-1.25.45-2.7.55-4.03.44-.38-.03-.78-1.32-.94-2.08-.08-.38.35-.87.81-1.88-2.35.49-3.84,1.21-4.07,3.17-.23,1.97-1.37,2.31-3.03,2.54-2.69.37-5.38.84-7.99,1.54-2.86.77-5.62,1.93-8.47,2.76-1.23.35-2.6.5-3.87.37-4.5-.44-5.54.52-4.81,5.28-1.4-.86-2.51-1.66-3.72-2.24-.57-.27-1.33-.12-2.01-.16.15.75.09,1.66.51,2.21.62.82,1.58,1.38,2.77,2.37-1.97.81-3.75,1.13-4.93,2.14-1.05.9-1.59.98-2.83.52-1.96-.72-4.09-.99-6.84-1.61.7,1.69,1,2.4,1.51,3.63-1.13-.74-1.8-1.17-2.73-1.78v4.94c-2.07-1.33-3.63-3.04-5.43-3.35-3.91-.66-6.8,2-9.59,4.29-.44.36-.3,1.92.06,2.69.82,1.73-.07,2.48-1.41,2.98-1.32.48-2.79,1.06-3.2-1.17-.11-.62-.4-1.21-.6-1.79-.41-.04-.76-.19-.94-.07-3.66,2.33-7.33,4.64-10.89,7.12-.51.36-.42,1.59-.71,2.91,4.24-2.25,7.81-4.15,11.85-6.29-.22,4.47-2.42,6.78-5.48,7.83-2.98,1.02-6.36,1.87-9.08-1.48-.31.73-.54,1.2-.72,1.69-1.34,3.75-3,6.98-6.82,9.19-3.05,1.76-7.84,1.95-8.34,6.94-.02.21-.36.41-.59.58-3.26,2.37-3.74,6.59-6.45,9.55-2.01,2.2-1.92,6.42-2.49,9.78-.21,1.27,0,2.93.7,3.95.66.96,2.21,1.31,3.38,1.93-2.64-.05-2.64,2-2.23,3.83.69,3.06,1.57,6.1,2.67,9.04,1.18,3.15,2.75,6.16,4.06,9.27.87,2.05,1.32,4.32,2.41,6.22,3.3,5.71,6.8,11.31,10.29,16.91.48.77,1.25,1.36,1.92,1.99,1.35,1.26,2.83,2.38,4.07,3.74,2.75,3.01,5.29,6.21,8.11,9.15.57.59,2.01.55,3.01.44.71-.08,1.35-.75,1.51-.85.87,1.98,1.19,4.39,2.57,5.54,3.01,2.52,5.35,5.7,8.95,7.73,3.81,2.14,6.93,5.51,10.33,8.35.35.29.58.73.92,1.05,2.81,2.7,5.77,5.25,8.42,8.1,3.03,3.26,5.87,6.7,8.59,10.22.53.69.58,2.54.07,3.04-.68.65-2.33.96-3.22.58-2.8-1.18-5.42-2.77-8.14-4.13-.71-.35-1.69-.81-2.27-.56-.49.21-.56,1.37-.87,2.09-.84,1.95-1.64,3.93-2.6,5.82-.44.87-1.71,1.53-1.78,2.35-.2,2.47-.28,5.01.11,7.44.73,4.57-1.52,7.8-4.27,11.14,2.24.03,3.59,3.92,6.37,1.16,2.18,3.55,1.97,4.25-1.48,5.61,6.22,4.36,6.39,4.65,4.54,7.34-3.38-1.75-6.72-3.48-10.21-5.29-.73,2.15.17,3.31,2.21,3.84,1.44.38,2.76.82,1.81,2.77-3.58-2.02-4.84,1.26-6.95,2.87-.6-.32-1.22-.74-1.9-.99-3.12-1.15-5.78-3.95-9.51-2.86-.9.26-1.63,1.1-2.44,1.67.5.71.89,1.55,1.54,2.09,1.82,1.53,3.74,2.94,5.62,4.4-.19.36-.39.73-.58,1.09-.97-.24-2.1-.25-2.88-.77-.83-.55-1.34-1.58-1.99-2.41-.19.99.46,1.58.39,2.07-.16,1.04-.69,2.02-1.07,3.03-.69-.52-1.48-.95-2.05-1.58-.52-.58-.66-1.82-1.22-2-3.17-1.03-5.13-3.53-7.39-5.67-.82-.78-1.63-1.55-2.45-2.32-.2.89-.08,1.59.33,1.92,2.22,1.78,3.32,4.09,3.9,6.84.33,1.56.88,3.8,2,4.33,4.54,2.14,6.87,6.39,10.11,9.74.37.38.28,1.98-.07,2.18-2.59,1.48-1.52,3.14-.2,4.55,1.39,1.49,3.1,2.67,4.63,4.03,7.9,7.01,16.73,12.74,25.73,18.12,5.09,3.04,10.59,5.54,16.17,7.58,5.44,1.98,10.18,5.54,16.03,6.59,3.58.64,7.02,1.99,10.55,2.96,2.92.8,5.86,1.51,9.13,2.34-.79,1.06-1.28,1.71-1.76,2.36.14.24.28.49.43.73.9-.49,1.78-1.02,2.7-1.46.76-.36,1.62-.94,2.35-.85,5.98.81,11.93,1.81,17.9,2.64,2.25.31,4.56.2,4.52,3.48,0,.63.61,1.36,1.1,1.9,1.44,1.58,1.69,2.73-.84,3.28-.36.08-.85.54-.88.86-.03.31.61.98.71.94,1.5-.66,3.17-1.17,4.36-2.22,1.07-.94,1.59-2.5,2.35-3.78.26.12.52.24.77.36-.13-1.07-.25-2.13-.38-3.19,5.05-.87,8.13,1.65,9.3,7.39-1.18.52-2.43.93-3.48,1.63-.3.2-.02,1.27,0,1.94.62-.09,1.54.03,1.79-.32.7-.99,1.13-2.18,1.67-3.29,1.19-1.8,2.37-3.61,3.57-5.41.44-.66.94-1.29,1.41-1.93.21.15.42.31.63.46-.18.62-.37,1.25-.55,1.87.96-.04,1.45-.43,1.83-.9.51-.62,1.01-1.89,1.39-1.85,1.09.13,2.25.61,3.12,1.29.72.56,1.08,1.58,1.71,2.57.97-.9,1.7-1.57,2.36-2.18.83.45,1.54.83,2.26,1.22.28-.53.61-1.05.84-1.6.29-.71.51-1.44.76-2.17.74.33,1.57.54,2.2,1.01,1.66,1.23,3.24,2.58,5.34,4.27.2-1.74.46-2.9.43-4.05-.05-1.66.64-2.3,2.19-1.87.96.27,1.83.95,2.8,1.11,2.35.38,4.58,2.19,7.91.64-1.21-.7-1.87-1-2.44-1.44-.45-.34-.78-.84-1.17-1.27.53-.27,1.03-.63,1.59-.77.53-.13,1.19-.18,1.66.03,2.57,1.15,4.43.03,5.73-1.57,1.61.16,3.35.87,4.02.3,2.3-1.96,3.45-.37,4.86.91-.23.88-.44,1.65-.67,2.54,1.43-.9,2.47-1.91,3.7-2.24,2.55-.69,5.19-1,5.66-4.37.06-.45.65-.91,1.11-1.2,2.63-1.72,5.25-3.49,7.99-5.02.74-.41,1.91-.06,2.88-.06.09.26.18.52.27.77-.99.92-2.02,1.8-2.95,2.77-.41.43-.68,1.01-.92,1.56-.03.06.67.61.79.54.42-.26.69-.78,1.11-1.04.79-.48,1.62-.96,2.5-1.21.94-.27,1.95-.29,3.42-.48-.62-1.64-1.12-2.95-1.64-4.33,1.06-.47,2.13-.94,3.2-1.42l-.1.68c1.24.56,2.47,1.11,3.71,1.67.13-1.16.07-2.39.45-3.47.23-.67,1.04-1.27,1.74-1.6.98-.47,2.21-.49,3.13-1.04,1.78-1.05,2.78-.75,3.19,1.31.12.6.3,1.2.42,1.7h4.36c.12-.54.34-1.06.33-1.58-.05-2.58-1.03-5.56-.07-7.66,2.83-6.18,1.34-12.4.51-18.39-.78-5.69-.61-11.76-3.72-17.02-.31-.53-.3-1.27-.35-1.91-.12-1.56-.05-3.14-.31-4.67-.64-3.75-1.51-7.47-2.09-11.23-.14-.92.46-1.96.73-2.94.92.53,2.4.87,2.66,1.62.83,2.48,1.42,5.09,1.72,7.69.32,2.79.2,5.62.29,8.44,0,.1.29.19.66.42.7-1.22,1.4-2.43,2.1-3.64ZM68.59,140.85l.83.49c1.09-1.22,2.14-2.49,3.3-3.65.96-.96,2.05-1.79,3.07-2.7.92-.82,1.69-1.92,2.76-2.44,3.66-1.81,6.32-4.5,7.74-8.32.21-.58-.23-1.4-.37-2.11-.34-.04-.67-.08-1.01-.12-.56,1.56-1.13,3.12-1.83,5.06-1.03-.66-2.3-1.65-3.73-2.3-.48-.21-1.78.29-1.95.75-.32.88-.09,1.95-.09,2.94-.17-.18-.34-.36-.52-.53-1.03.74-2.34,1.29-3.01,2.28-.73,1.08-.7,2.66-1.31,3.86-1.18,2.32-2.57,4.53-3.88,6.79ZM206.97,111.33c1.38-.87,2.47-1.43,3.4-2.18.58-.47,1.43-1.46,1.27-1.82-.31-.69-1.18-1.23-1.94-1.61-2.94-1.47-5.85.18-8.78.3-1.43.06-2.8,1.42-4.23,2.13-.77.38-2.1,1.11-2.32.87-2.8-2.96-5.06-.09-7.44.65-.6.19-.92,1.29-1.37,1.97.88.24,1.83.82,2.63.67,3.96-.78,7.84-2.14,11.83-2.5,2.24-.21,5.26-2.08,6.95,1.53ZM345.52,210.76c-1.08-3.11-2.03-6.13-3.2-9.07-.68-1.71-2.45-3.3-2.43-4.93.04-4.37-3.95-6.42-5.11-10.01-.1-.31-.99-.68-1.29-.54-.4.18-.88.9-.8,1.27.16.78.65,1.49,1.04,2.21,1.14,2.06,2.34,4.09,3.44,6.17.95,1.81,1.77,3.68,2.71,5.65-1.11.25-1.87.41-2.32.51,1.39,2.51,2.6,4.97,4.08,7.26.81,1.24,1.96,2.51,3.89,1.48ZM369.82,149.07c-2.55-5.94-5.91-11.14-11.12-15.82-.88,2.63-.19,4.15,1.08,5.63.76.88,1.58,1.87,1.87,2.94.54,2.04.51,4.23,1.12,6.25.27.9,1.45,2.05,2.29,2.12,1.34.11,2.75-.6,4.76-1.12ZM375.09,158.46c1.01-1,2.39-1.77,2.36-2.46-.07-1.39-.68-2.92-1.56-3.99-.33-.4-2.15.11-3.08.6-1.29.67-2.25,1.02-3.43-.23-.42-.44-1.49-.42-2.22-.33-.36.05-.62.76-.93,1.17.57.37,1.23.66,1.71,1.12,1.51,1.47,2.96,3,4.44,4.51,1.13,1.15,2.25,2.31,3.37,3.47.19-.17.37-.34.56-.51-.46-1.27-.92-2.54-1.21-3.35ZM40.63,384.04c-.28-.02-.56-.04-.84-.06-.67.52-1.27,1.28-2.04,1.52-3.21,1.04-4.18,4.7-2,7.3.94,1.13,1.52,2.59,2.18,3.93.72,1.46,1.29,3.04,3.53,2.74-.71-3.32-1.41-6.39-5.55-7.34,1.65-1.43,3.2-2.24,3.9-3.52.71-1.29.58-3.04.82-4.58ZM50.32,403.21c-.2-.26-.41-.51-.61-.77.68-1.61,1.36-3.22,2.06-4.83.26-.61.58-1.2.87-1.8-.48-.19-1.15-.68-1.4-.52-.72.46-1.87,1.31-1.78,1.79.47,2.35-.89,2.85-2.66,3.37-1.55.46-3.02,1.21-4.52,1.83.58,3.46,1.84,5.24,3.82,5.32-.48-1.42-.96-2.8-1.5-4.4h5.73ZM254.93,111.53c-.28-.54-.42-1.25-.85-1.57-1.87-1.37-3.78-2.69-5.78-3.86-.51-.3-1.72-.26-1.98.09-.41.55-.51,1.54-.35,2.27.77,3.62,4.73,5.01,8.96,3.07ZM252.94,121.4c.64.52.89.75,1.17.94,2.9,2,7.12,1.25,9.44,4.55.16.23,1.38.11,1.64-.21.28-.35.23-1.47-.08-1.68-1.69-1.2-3.57-2.12-5.25-3.33-2.19-1.58-4.29-.68-6.92-.26ZM278.39,470.21c-1.59-.86-2.87-1.54-4.07-2.19-.21,1.4-.67,2.63-.49,3.77.19,1.17.83,2.38,1.6,3.3.41.48,2.1.67,2.21.48.45-.88.6-1.94.74-2.95.1-.81.02-1.64.02-2.4ZM120.44,334.2c1.27-1.36,1.93-2.07,2.59-2.78-1.48-1.16-2.92-2.37-4.49-3.38-.13-.08-1.74,1.57-1.62,1.75.9,1.41,2.06,2.65,3.52,4.41ZM289.85,421.7c1.75,2.02,2.55,2.43,4.58,1.44,1.05-.51,1.6-2.04,2.37-3.11-.61-.43-1.44-1.36-1.8-1.2-1.72.76-3.32,1.81-5.16,2.88ZM125.54,329.99c1.47-4.56-.78-6.29-7.46-6.01,2.6,2.09,4.97,4,7.46,6.01ZM107.01,338.01c.08-3.28-2.45-4.63-4.06-6.55-.22-.26-1-.41-1.19-.24-.36.32-.69.92-.68,1.39.03,1.2,4.26,5.1,5.93,5.41ZM245.17,477.55c-.26-.02-.53-.04-.79-.06-1.08,2.01-1.11,1.88-3.5,2.37-.5.1-1.15,1.72-.95,2.42.36,1.3,4.15,1.44,4.61.14.54-1.51.45-3.25.63-4.89ZM298.23,175.88c.3-.26.6-.53.9-.79-1.57-3.5-3.96-6.28-7.43-8.1-.25.22-.5.44-.75.66,2.43,2.74,4.86,5.49,7.28,8.23ZM57.82,419.52c-.5.16-1.44.45-3.08.97,1.14,1.98,2.18,3.78,3.22,5.58.29,0,.58.02.87.02.42-1.2,1.25-2.44,1.13-3.58-.11-1-1.29-1.88-2.14-2.99ZM125.52,319.67c-2.06-1.07-1.32-4.36-4.39-3.71-1.17.25-1.42,3.83-.63,5.14,1.43-.41,2.79-.8,5.02-1.43ZM171.68,113.19c-1.27.36-2.39.54-3.36,1.01-.56.27-.9,1.02-1.33,1.56.56.37,1.17,1.11,1.68,1.05,1.2-.14,2.39-.55,3.5-1.06.57-.26.95-.95,1.42-1.44-.65-.38-1.29-.76-1.9-1.12ZM234.33,431.99c1.43-.68,2.74-1.14,3.87-1.89.56-.38.89-1.25,1.07-1.97.06-.24-.62-.92-1.04-.99-1.88-.32-4.39,2.8-3.9,4.85ZM81.08,445c-.25-.72-.27-1.12-.44-1.21-1.94-1-3.61-2.2-4.04-4.55-.03-.17-.87-.38-1.2-.24-.29.12-.66.89-.56,1.03,1.45,1.87,2.94,3.71,4.54,5.44.18.19,1.08-.28,1.7-.46ZM13.98,244.26c-1.06,3.65.74,7.32,4.27,9.17-1.45-3.12-2.72-5.85-4.27-9.17ZM6.05,219.72c.94,1.9.15,2.62-1.54,2.71,1.53,1.8,2.9,3.4,4.27,5.01-1.38-2.34.11-5.69-2.73-7.71ZM59.46,158.26c3.05-1.82,1.28-4.7,2.07-6.84-.91.57-1.82,1.13-2.57,1.6.16,1.66.31,3.23.5,5.24ZM327.54,258.19c-.39.07-.78.15-1.17.22.23,1.51.37,3.05.75,4.53.13.49.86.83,1.32,1.24.31-.59,1-1.29.87-1.75-.43-1.46-1.16-2.83-1.77-4.24ZM30.49,373.09c.32,3.8,4.2.4,5.1,2.95.19-1.08.21-2.8.01-2.82-1.64-.22-3.32-.12-5.11-.12ZM133.12,299.81c.38-.23.75-.47,1.13-.7-.42-1.37-.84-2.73-1.26-4.1-.82.64-1.63,1.29-2.45,1.93.86.95,1.72,1.91,2.59,2.86ZM26.89,364.77c1.21.36,2.43.73,3.64,1.09.14-.81.69-1.94.36-2.36-1.24-1.57-2.56-.81-4,1.28ZM56.64,151.67c-.21-.23-.42-.46-.63-.68-.96.62-1.96,1.19-2.85,1.89-.44.35-.67.98-1,1.48.7.14,1.72.63,2.05.35.96-.84,1.64-2,2.43-3.04ZM24.97,361.02c2.29-1.11,2.32-2.49.3-5.31-2.71,1.72-.16,3.48-.3,5.31ZM48.53,405.11c.67,2.12,1.16,3.68,1.72,5.45,2.42-2.25,1.9-4.03-1.72-5.45ZM299.94,472.86c.31.2.61.39.92.59,1.64-.3,3.07-.87,2.71-2.96-.07-.42-.83-.72-1.27-1.07-.79,1.15-1.57,2.29-2.36,3.44ZM182.88,484.28c-.51.06-1.03.11-1.54.17v3.52c.74-.1,1.47-.2,2.21-.3-.22-1.13-.45-2.26-.67-3.38ZM25.73,348.21c-.27-.03-.54-.05-.8-.08-.65.74-1.45,1.39-1.93,2.22-1.16,2.02.05,2.9,1.62,1.95.88-.53.77-2.68,1.11-4.1ZM54.23,164.94c.32-.07.63-.15.95-.22-.45-1.54-.9-3.08-1.41-4.81q-2.11,1.94.46,5.03ZM103.83,451.06c-.22,1.68-.55,3.26-.55,4.84,0,.58.77,1.16,1.18,1.74.39-.47,1.19-1.05,1.1-1.4-.46-1.8-1.15-3.54-1.73-5.18ZM155.38,473.42c1.54-.11,2.54-.19,3.54-.26-.63-1.29-1.27-2.57-2.1-4.25-.53,1.64-.86,2.68-1.45,4.51ZM172.96,482.21c-.45.2-.9.41-1.35.61.91,1.81,1.83,3.61,2.74,5.42.29-.15.59-.3.88-.45-.76-1.86-1.52-3.72-2.27-5.59ZM90.56,443.74c-1.14-1.39-1.79-2.18-2.86-3.48-.46,1.55-.73,2.49-1.14,3.88,1.4-.14,2.25-.22,4-.4ZM53.9,168.25l-.79-.2c-.39.84-1.12,1.72-1.03,2.51.06.48,1.37.82,2.81,1.6-.49-1.9-.74-2.9-1-3.9ZM141.38,128.02c-1.38.6-2.47,1.07-3.56,1.53,2.99,1.44,3.12,1.37,3.56-1.53ZM368.15,159.01c-.02,2.86.72,3.43,3.32,2.92-1.24-1.09-2.28-2.01-3.32-2.92ZM98.64,142.95c.97.58,1.51,1.18,1.91,1.09.69-.15,1.29-.73,1.93-1.13-.48-.44-.97-1.24-1.45-1.23-.65.01-1.28.64-2.4,1.27ZM28.26,347.31c-.45.06-.89.11-1.34.17.22,1.66.44,3.32.67,4.98.35-.04.69-.09,1.04-.13-.12-1.67-.24-3.34-.36-5.01ZM83.09,436.27c-.46-.09-.92-.19-1.38-.28-.2.93-.43,1.86-.52,2.81,0,.1.88.28,1.35.43.18-.98.37-1.97.55-2.95ZM337.12,298.86c-.37.07-.74.14-1.11.21.23,1.27.46,2.54.69,3.8.44-.09.89-.18,1.33-.27-.3-1.25-.6-2.5-.9-3.74ZM230.29,484.91c.33.25.67.5,1,.75.75-1.05,1.5-2.09,2.25-3.14-.33-.24-.65-.48-.98-.72-.76,1.04-1.52,2.08-2.28,3.12Z"/>
</svg>