<?xml version="1.0" encoding="UTF-8"?>
<svg id="Layer_1" data-name="Layer 1" xmlns="http://www.w3.org/2000/svg" viewBox="0 0 297.58 396">
  <defs>
    <style>
      .cls-1 {
        fill: #488cca;
        stroke-width: 0px;
      }
    </style>
  </defs>
  <path class="cls-1" d="M121.28,387.55s-.01,0,0,0h0Z"/>
  <path class="cls-1" d="M121.28,387.55s.06.03.17.09c-.02-.03-.03-.05-.04-.08-.03,0-.06,0-.09,0-.01,0-.02,0-.03,0Z"/>
  <path class="cls-1" d="M50.37,89.93s0,0,0,0c0,0,0,0,0-.01h0Z"/>
  <path class="cls-1" d="M142.1,394.18s0,0-.01-.01c0,0,0-.01-.01-.02,0,0-.01,0-.02,0,.02.01.03.02.04.03Z"/>
  <path class="cls-1" d="M142.1,394.18s.05.03,0,0h0Z"/>
  <path class="cls-1" d="M280.88,122.55s-.01,0-.02,0c0,0,0,.01,0,.02h.01Z"/>
  <polygon class="cls-1" points="7.71 226.57 7.7 226.55 7.71 226.57 7.71 226.57"/>
  <path class="cls-1" d="M291.26,183.52s0,0,0,0c0,0,0,0,.01.01h-.01Z"/>
  <path class="cls-1" d="M296.32,214.81c.37-.07.74-.13,1.26-.22-.4-.25-.65-.4-.85-.53.04-.59.3-1.32.05-1.64-.42-.53-.5-1.03-.55-1.62-.06-.87-.3-1.63-1.8-1.44,1.36-1.33-.18-2.11-.07-3.13,1.51-.2,1.86-.57,1.16-1.28-1.03-1.05-.8-2.13-.52-3.32.06-.27-.09-.58-.15-.88,0,0,0,0,0,0,.51-.56,1.03-1.13,1.82-1.99.2-.8-.98-.69-1.47-1.01v-2.38c-.31-.25-.79-.45-.88-.76-.2-.72-.51-1.65-.23-2.22.52-1.05.22-1.65-.47-2.35-.28-.29-.48-.71-.57-1.1-.41-1.8-.87-3.56-2.58-4.7.34-.31.55-.51.77-.71-1.24-1.01-1.24-1.02-.49-2.83-.2-.31-.38-.61-.66-1.06.67.15,1.12.24,1.62.35.55-1.15-.18-1.76-.84-2.33-.75-.64-1.26.08-1.72.54-.71-.85-.6-1.51.09-2.14.57-.52.98-1.09.11-1.76q1.21-.37,2.06.4c0-.92,0-1.67,0-2.43-.01-.71-.66-1.48.28-2.2.77.45,1.54.9,2.32,1.35.14-.28.27-.41.24-.48-.52-1.16-.03-2.65-1.15-3.63-.11-.1-.2-.39-.14-.49.66-1.07.04-2.35.52-3.4.75-1.64.14-2.97-.82-4.35.88-1.4.37-2.77-.17-4.14-.5-1.28-.5-1.27-1.92-1.07-.1.01-.21-.08-.46-.19-.03-.43-.06-.92-.08-1.41.73-.28,1.68.13,1.88-1.18-.08-.05-.3-.16-.5-.29-1-.65-1.32-1.45-.71-2.58.2-.38.11-.92.14-1.39.06-.96.12-1.93.19-3.18-.13-.06-.53-.44-.94-.44-1.17,0-1.58-.63-1.67-1.65.62-.08,1.24-.15,2.12-.26-.42-1.01-.7-1.76-1.04-2.49-.33-.69-.8-1.26-.34-2.15.38-.74-.18-1.17-.71-1.3-.15.65-.09,1.43-.44,1.7-.85.67-1.84,1.33-3.01.7,0-.89.12-1.73-.04-2.5-.13-.64-.15-1.11.3-1.63.69-.81.5-1.69.03-2.72-.74.47-1.36.87-2,1.28-.07-1.94-.11-3.79-.22-5.64-.02-.38-.23-.8-.47-1.1-.32-.41-.76-.72-1.22-1.14-.83.04-1.93.52-2.56-.89.4-.47.8-.94,1.17-1.37.37.21.63.35.88.5-.24-1.06-.48-2.11-.74-3.24-.67.24-1.1.4-1.68.61-.34-.55-1.05-1.23-.92-1.58.44-1.19-.28-2.19-.23-3.29.42-.09.83-.19,1.24-.28-.02-.09-.05-.18-.07-.26-.39.06-.79.11-1.18.17-.6-.14-1.2-.28-1.85-.44v-1.41c.7-.49,1.68-.35,1.89-1.28-1.06-.24-2.05-.44-3.04-.69-1.49-.37-1.82-.7-1.94-1.89.8.33,3.1.36,4.14.05.2-.06.39-.16.74-.31-.3-.57-.44-1.14-.8-1.45-.86-.73-.72-1.4-.12-2.16.21-.27.34-.61.46-.84-1.14-1.72-2.15-3.37-2.32-5.41,1-.09,1.86-.17,3.11-.28-.6-.77-.99-1.27-1.25-1.61-.17-.71-.26-1.31-.45-1.87-.13-.39-.44-.71-.6-1.09-.4-.95-.83-1.83-1.98-2.13-.6-.15-.88-.69-.61-1.28.5-1.09.06-1.86-.57-2.76-.57-.81-1.19-1.42-2.03-1.94-.84-.52-1.54-1.25-2.37-1.95.73-1.05.41-1.9-.05-2.79-.36-.69-1.05-1.42-.29-2.09-.67-.64-1.46-1.08-1.78-1.75-1.02-2.15-2.48-3.89-4.24-5.45-.54-.48-1.07-1.23-1.17-1.91-.3-1.98-.58-3.89-2.58-4.84,0-.72.17-1.37-.03-1.87-.69-1.67-2.45-2.45-4.31-2.05-1.79.39-1.88.32-1.99-1.55,0-.11-.11-.21-.1-.2-.72-.54-1.36-1.02-1.85-1.39.76-1.39,1.39-2.55,2.03-3.73-.69-.8-1.63-1.35-1.13-2.52.05-.11-.1-.34-.22-.46-1.4-1.38-2.79-2.96-4.7-3.47-2.89-.76-3.89-3.53-6-5.08-.16-.11-.1-.52-.14-.81-.99.05-2.02.64-2.63-.68.9-.64,1.13-1.5.83-2.52-.07-.23-.13-.49-.07-.71.25-1.07-.15-1.68-1.18-2.04-.66-.23-1.21-.67-1.41-1.56.91-.04,1.71-.08,2.79-.13-1.19-1.57-2.41-2.64-3.77-3.57-.22-.15-.57-.13-.86-.15-2.17-.15-2.69-.61-2.83-2.76-.06-.96-.51-1.52-1.29-1.98-1.06-.63-2.11-1.29-3.1-2.03-.57-.42-.96-.32-1.41.09-.45.41-.44.85-.3,1.44.26,1.1.36,2.26-.63,2.77-1.3-.35-2.28-.76-3.29-.85-1.54-.14-2.71-1.08-4.06-1.64-.5-.2-1.16-.82-1.16-1.25,0-1.35-.5-2.58-.62-3.88,1.61-.18,2.94-.29,4.24-.5.26-.04.62-.47.63-.73.01-.36-.16-.86-.44-1.07-1.51-1.17-3.45-1.65-4.89-2.96-.17-.15-.57-.05-.87-.05-.64,0-1.28,0-1.91,0-.17-.69-.14-1.79-.54-1.98-1.44-.68-2.38-2.12-4.09-2.42-1.52-.27-2.76-1.58-4.47-1.3-.04,0-.1-.07-.15-.09-2.79-1.01-5.56-2.04-8.36-3.01-.71-.25-1.52-.24-2.22-.52-.81-.33-1.39-.09-1.93.45-.3.29-.53.65-.79.98-.08-.04-.15-.08-.23-.12.08-.56.16-1.12.25-1.71-.89-.81-1.78-1.45-3.06-1.13-.22.06-.49.05-.7-.02-2.42-.76-4.88-1.41-7.22-2.37-1.52-.62-3.04-.41-4.56-.6-1.64-.21-3.33-.45-4.96-.3-1.53.14-2.97.24-4.33-.55-1.77-1.03-3.6-.3-5.29.08-2,.45-3.94.59-5.94.36-2.01-.23-3.86-.14-5.43,1.44-1.25,1.25-2.68,2.13-4.61,1.23-.46-.21-1.47-.17-1.65.12-.66,1.06-1.79,1.31-2.72,1.89-2.42,1.53-4.77,3.18-7.32,4.45-1.43.71-1.94,1.56-1.84,3.01,0,.1-.1.21-.17.35-.46.21-.93.51-1.44.62-2.25.49-3.39,2.11-4.05,4.1-.71,2.16-2.17,3.92-3,6.01-.05.12-.29.16-.43.23-2.54-2.79-5.52-3.46-7.07-1.56.42.39.9.75,1.26,1.19.35.43.46,1.23.87,1.39.84.33.49.94.57,1.47.41-.18,1.01-.08,2.38.44-1.5.26-2.54,1.01-3.16,2.26-.34.69-.85.83-1.47.51-.63-.32-1.24-.7-1.81-1.11-.91-.65-1.75-1.12-2.92-.42-1.07.63-1.5.42-2.28-.51-.53-.64-1.11-1.24-1.67-1.86-1.92-2.1-3.91-1.82-5.21.87-.85.08-1.79.13-2.72.28-1,.16-1.99.37-2.97.62-.54.14-.77.55-.6,1.11.05.16.2.28.29.41.49-.05.94-.09,1.39-.13-.62.9-1.33,1.07-2.19.63-.42-.22-.85-.52-1.29-.54-1.94-.13-3.49.87-4.9,2.03-.9.74-1.75,1.62-2.34,2.61-.7,1.16-1.66,1.24-2.75,1.15-1.44-.12-2.54.66-3.67,1.33-.07.04,0,.32,0,.71,1.58,0,3.1.42,4.55-.77.86-.71,2-1.08,3.1-1.64.26,2.01-1.35,2.91-2.03,4.62,1.07-.37,1.92-.66,2.92-1.01-.41,1.48-.74,2.57-2.47,2.7-.83.06-1.6.91-2.4,1.4-.65.4-1.24.92-1.94,1.18-1.14.42-1.6.13-2.06-1.02-.23-.57-.42-1.16-.58-1.59-2.02,1.31-3.92,2.55-6.04,3.93.62.07,1.01.16,1.39.16.77,0,1.55-.11,2.32-.09,1.76.04,3.07.81,3.77,2.48-.36.17-.79.27-1.07.53-.63.59-1.19,1.27-1.77,1.9q1.46.5,1.37,1.94c-1.08.29-2.15.63-3.24.84-.42.08-1-.01-1.34-.26-.9-.67-1.68-.39-2.47.12-1.39.91-2.43,2.07-2.87,3.73-.15.57-.28,1.26-.68,1.61-.91.83-.98,1.59-.48,2.68.42.91-.18,1.53-1.12,1.38-1.62-.26-2.6.38-3.11,1.98-.14.44-.34.9-.64,1.24-.9,1.05-.71,2.75-2.08,3.51-.07.04-.09.23-.06.34.21,1.07-.59,1.47-1.28,1.92-.99.65-2.09,1.17-2.33,2.54-.05.3-.41.57-.67.82q-1.24,1.17-.6,2.67c-1.61,1.9-3.36,3.78-3.18,6.51.66,1.07,1.74,1.14,2.6,1.15-.13,1.05-.41,1.97-.31,2.86.15,1.28.13,1.52-1.09,1.93-.39.13-.79.25-1.19.38-.39.96.59,1.29.91,1.85-.44,1.59-.35,1.85.91,2.49.37.19.82.27,1.12.53.23.19.44.64.37.89-.32,1.14-1.89,1.5-2.48.51-.5-.83-1.17-1.22-2.14-1.37.23-.47.46-.78.5-1.11.05-.34.02-.91-.18-1.03-.51-.3-.84.02-1.04.58-.13.36-.43.66-.66.99-1.1,1.61-1.08,3.82.12,5.27.32-.22.63-.54,1-.65.35-.1.76.01,1.14.03-.03.38.07.85-.11,1.12-.68.99-1.49,1.86-2.71,2.02-.56-.52-1.09-.99-1.59-1.49-.21-.21-.34-.49-.52-.72-.88-1.17-1.13-1.14-1.76.14-.11.23-.32.41-.5.6-.62.67-1.25,1.34-1.86,1.99.11.25.16.42.25.57,1.24,2.14,1.19,2.73-.37,4.52-.31.36-.52.82-.88,1.12-.76.64-1.56,1.25-2.39,1.8-.56.38-1.21.63-1.88.98-.78-.09-1.46-.41-1.94-1.24-.32-.54-.93-.91-1.43-1.33-.68-.58-1.23-.26-1.67.32-.41.55-.65,1.17-.04,1.77.97.93,1.95,1.86,3.01,2.87-1.29.9-2.2,2.32-3.86,2.92-.87.32-1.63.97-2.4,1.54-.58.43-.74,1.91-.27,2.54.38.12.84.26,1.44.45-1.76.52-1,2.46-2.22,3.02.19.5.33.87.56,1.48h-3.3c-.23.66-.42,1.21-.57,1.67-.45-.15-.79-.26-1.45-.47.66,1.42.59,2.51-.2,3.36.14.67.26,1.23.38,1.79h0s.02.03.02.03c.43.1.89.24.64.8-.21.46-.59.84-.85,1.28-.2.34-.35.72-.54,1.13.54.32.98.59,1.37.83.65-.23,1.21-.42,1.96-.68-.59,1.33-1.05,2.38-1.51,3.43-1.17.07-1.49.42-1.05,1.27.2.4.56.72.88,1.11-.35.57-.69,1.06-.96,1.58-.15.3-.36.79-.23.98.65.95-.03,1.76-.05,2.5-.87.24-1.6.47-2.35.63-.92.2-1.85.51-2.76.46-1.86-.08-2-.01-2.29,1.81-.11.66.03,1.14.39,1.66.5.72.93,1.49,1.47,2.39-1.27.76-2.45,1.48-3.83,2.3.47.45.9.86,1.33,1.27-.37.98-2.73.15-1.97,2.27,1.16.29,2.49-.95,3.45.33.48-.27.87-.48,1.41-.78.07.57.04,1,.19,1.35.24.59.45,1.41.91,1.63,1.07.52,1.42,1.34,1.48,2.36,1.09.46,2.1.88,3.12,1.3-1.3,2.51-2.55,2.87-4.42,1.45-.94-.71-2.94-.17-3.31.92-.07.2-.05.52.07.68.9,1.14,1.51,2.58,3.23,2.85.85.14,1.65.55,2.87.97-.83.46-1.34.74-1.84,1.02.97,1.23,1.67,2.1,2.38,3.01-.41.75-.7,1.48-1.18,2.06-.3.36-.96.76-1.32.66-1.21-.33-1.82.69-2.63,1.11-.53.28-1.23.99-1.03,1.93.23,1.03-.42,1.52-1.19,1.96-.59.34-1.16.74-1.78,1.14-.67-.17-1.64-.87-1.54.8.01.19-.46.41-.88.75.7.13,1.19.23,1.33.26.45.66.69,1.08.99,1.45.33.41.72.77,1.09,1.14-.68-.03-1.4-.15-1.79.68.54.19,1,.35,1.48.51-.41,1.12-.76,2.08-1.23,3.34.8-.26,1.39-.44,2.01-.64.07,1.74-.02,1.91-1.52,2.92.06.46.03.97.21,1.38.46,1.09.05,2.11-.67,2.69-1.01.81-1.01,1.61-.6,2.61.2.49.28.91-.32,1.16h0s-.14.11-.14.11c0,0,0,0,0,0h0c-.28.57-.69.87-1.35.66.45-.22.9-.44,1.35-.66l.14-.11c-.25-.5-.5-1-.86-1.73-.48.97-1.11,1.59-.63,2.5-.14.32-.28.64-.42.97.49.06.98.11,1.5.17-.32,1.17-.59,2.18-.86,3.19.5.25.91.47,1.62.83-.66.28-1.03.42-1.38.58-.31.15-.8.28-.87.52-.28.99-.44,2.02-.64,3.04,0,.04.06.09.14.19h.76c.07,1.53-.96.83-1.49.86-.25.47-.37,1.1-.68,1.22-1.26.46-.86,1.26-.71,2.31.82-1.56.9-1.6,2.43-1.19-.07.39-.2.79-.19,1.19.01.38.17.76.26,1.1-1.03.72-1.59-.21-2.06-.4-.73.29-1.23.58-1.77.69-.55.1-1.13.02-1.75.02.45,1.53,1.69.21,2.36.91.31.36-.65,1.33.54,1.43.31-.52.62-1.01.92-1.51.11.04.22.07.33.11.1.51.19,1.01.3,1.57-.44.19-.81.35-1.23.54.07.42.24.83.19,1.21-.06.4-.33.78-.41.95.78.39,1.41.71,2.03,1.02,0,0,0,0,0,0l1.29-.58c.08.13.17.26.25.39-.72.52-1.45,1.05-2.17,1.57h0s-.01.01-.02.01c-.01.01-.03.02-.05.04-.03.03-.07.05-.07.05.45.3.89.61,1.34.91-.07.4-.15.8-.22,1.21.1.28.19.55.29.83-.21-.17-.42-.33-.62-.5-.56-.13-1.12-.27-1.85-.44.05.41-.01.76.13.92.39.41.82.94,1.32,1.06.9.22,1.85.17,3.23.27-1.38,1.26-3.2,1.64-3.53,3.43.71.34,1.41.66,2.29,1.08q-.7-1.74.05-2.33c1.69,1.33.96,3.14.97,4.83.8.76,1.3.26,1.78-.83.24.39.39.58.48.8.16.35.49.81.37,1.06-.12.26-.66.37-1.03.47-.45.12-.94.11-1.39.23-.83.23-.73.76-.42,1.37.62-.24,1.17-.45,1.83-.71-.22,1.97-.15,2.03,1.45,1.79.17-.03.36.04.71.08-1.39.95-2.06,2.39-1.63,3.22.44.05.88.1,1.37.16.16.77.29,1.45.44,2.14-.77.25-1.37.45-1.86.61-.1,1.99.74,3.56,1.5,5.17.56,1.19,1.28,2.12,2.79,1.92.22.6.4,1.1.59,1.6.27.7.71,1.1,1.51.83.08.34.29.73.19,1.01-.34.94.02,1.13.88,1.45.99.36,2,.85,2.54,2.04.38.85,1.24,1.51,1.92,2.21.66.67,1.31,1.38,2.08,1.92,1.27.89,1.8,2.95,4.11,2.38-.37.92-.67,1.65-1.01,2.49.61.12,1.07.22,1.91.39-.73.4-1.11.61-1.53.84.45.26.86.51,1.45.86-.57.34-.95.56-1.47.88.44.46.95.79,1.16,1.26.27.62.29,1.35.41,2.01-.76.45-1.13.08-1.6-.39-1.18-1.18-2.76-.83-3.37.68-.2.49-.36.99-.59,1.64-.95-1.15-1.71-.18-2.49.16-.22-.36-.38-.63-.63-1.04-.43.69-.76,1.18-1.05,1.7-.86,1.54-.84,1.69.23,3.01,1.23,1.53,2.46,3.07,3.69,4.6.47.82.89,1.69,1.44,2.45.63.88,1.33.94,1.93.32.63-.65.6-1.28-.26-1.9-.74-.54-.97-1.1-.73-1.98.19-.68.26-1.41.27-2.12,0-.23-.33-.47-.64-.9-.15.75-.25,1.22-.34,1.67-.68-.17-1.24-.31-1.79-.45-.8-2.56-.8-2.71.22-4.03,1.08.62,2.18,1.24,3.26,1.86.23-.28.35-.4.45-.55.98-1.54,1.56-1.71,3.36-1.29.6.14,1.28,0,1.92-.08.44-.05.86-.21,1.48-.38-.17.79-.29,1.34-.41,1.89,2.45.88,3.98,1.96,5.54,3.89.42.51.2,1.27-.45,1.39-.33.06-.7-.09-1.05-.08-.53.02-1.14-.06-1.56.18-.36.21-.48.81-.78,1.39-.38-.86-1.53-.85-1.64-1.95.49-.12.93-.22,1.5-.36-.47-1.26-.89-2.4-1.32-3.55-1.36.39-1.6,1.26-1.33,2.28-.71.21-1.33.31-1.88.56-.62.28-1.19.69-1.87,1.1,1.29,1.51,2.7,2.52,4.97,1.67.35,1.35,2.3.71,2.7,2.24-1.02.6-2.58.03-3.01,1.53.82.71,1.52,1.47,2.36,1.99.95.59,1.83,1.29,3.16,1.24,1.15-.04,2.54.09,3.3,1.42-.78,1.43-1.26,2.97-2.61,4.02-.79.62-.76,1.08-.03,1.76.38.35.86.67,1.35.8.92.24,1.36.73,1.6,1.66.32,1.24.94,1.47,2.28,1.41.61-.03,1.31.09,1.84.37.9.48,1.71,1.14,2.69,1.81-.86.37-1.54.66-2.41,1.03,1.32,1.14,1.53,2.84,3.11,3.56.54.24,1.31.89.77,1.92-.15.29.2.9.43,1.31.71,1.28,1.45,2.54,2.2,3.8.08.14.27.33.4.32,1.15-.03,1.97.92,3.2.87,2.08-.09,3.44,1.2,4.11,3.46-.56.12-1.12.24-1.62.34-.35,1.05-.38,1.91.44,2.69.33.31.41.86.68,1.24.4.56.8,1.18,1.34,1.56.95.66,1.67,1.38,2.16,2.49.58,1.33,1.33,2.73,3.23,2.62.36-.02.75.28,1.1.49.1.06.09.31.13.46-.47.28-.91.54-1.54.91.43.37.69.79,1.01.83.94.13,1.27.79,1.59,1.51h-.01s0-.01,0-.01c0,0,.01.01.01.01,0,0,0,0,0,0,1.24,1.05,2.47,2.1,3.69,3.14-.63,1.93.05,3.15,1.95,3.49.73.13,1.16.43,1.38,1.17.16.53.49,1.13.92,1.44,2.12,1.52,4.3,2.95,6.47,4.41,1.25.84,2.5,1.66,3.85,2.54-.95,1.1-.74,1.93.05,2.72.2.2.47.49.46.74-.05,1.27.98,1.59,1.79,2.32.26-1.39,1.22-1.25,2.1-1.27.33-.01.83.06.95-.12.47-.69,1.08-.48,1.73-.54,1.93-.17,3.5.52,5.05,1.81-.52.49-1.05.92-1.51,1.44-.72.81-.73,1.92.13,2.31,1.14.51,1.92,1.35,2.79,2.15.32.29.84.46,1.29.5.83.08,1.13.49,1.18,1.27.14,1.87,1.01,2.66,2.87,2.83.56.05,1.19.21,1.62.54,1.74,1.35,3.26,1.29,4.72-.29,1.11.25,2.2.48,3.29.73.77.18.85.51.4,1.64-.77-.06-1.68-.99-2.35.17-.94,1.64-2.32,1.36-3.75.88-.34-.11-.64-.37-.98-.43-.88-.15-1.76-.19-2.31.79,1.13.52,2.17,1,3.22,1.48-.27,1.6.13,2.76,1.24,3.65.17-.09.32-.12.36-.2.6-1.27,1.36-2.19,2.98-1.72.72.21,1.02-.34,1.32-.91.62-1.19,1.03-1.18,1.9-.15.75.89,1.56,1.72,2.53,2.79,0-.16.02.02,0,.2-.19,1.97-.59,2.16-2.35,1.23-.3-.16-.68-.18-1.31-.34.68,1.15,1.19,2.01,1.84,3.11.87.05,1.66.21,2.39.82.77.65.92,1.37,1,2.32.11,1.33,1.06,1.88,2.42,1.71.47-.06.96-.2,1.41-.13.96.15,1.91.41,2.98.66v.63c.65.12,1.33.45,1.87.29.43-.13.69-.85,1.02-1.3,1.03.42.85,1.43,1.14,2.32.35-.55.55-1.1.7-1.67.26-1.04.71-1.2,1.62-.53.18.14.35.29.49.41.82-.25,1.64-.8,2.25-.62.57.17.93,1.08,1.38,1.67.64-.17,1.2-.51,1.62-.38.47.14.81.71,1.25,1.14.65-.55,1.31-1.1,2.05-1.72.22.62.4,1.1.57,1.57,1.05.06,2.15-.04,3.14.24.66.19,1.1.19,1.65-.13.46-.26,1.06-.73,1.43-.61,1.21.41,2.06-.89,3.21-.53.09.03.31-.16.37-.29.54-1.23,1.04-.42,1.53-.11-.08.89-.15,1.67-.22,2.44,1.41-1.96,1.57-2.03,2.86-1.13-.1.37-.19.73-.34,1.28,2.11.13,1.77-1.72,2.5-2.6.63.2,1.57-1.1,1.98.44-.25.12-.49.24-.85.41.21.41.41.79.7,1.34.82-.74,1.49-1.36,2.27-2.05.77.74,1.61.45,2.61.02,1.17-.51,2.47-.75,3.73-.97,1.21-.21,2.45-.25,3.82-.37.16.13.47.39.87.72.66-.98,1.34-.93,2.29-.42.65.36,1.67.46,2.37.23,1.35-.45,2.6-.46,3.98.1.18-.54.32-.98.57-1.71.93,1.74,2.07,2.32,3.67,1.58.15-.07.38-.09.52-.02,1.19.54,1.73-.48,2.42-1.04.6-.49.66-1.08.05-1.68-.38-.37-.77-.77-1.01-1.23-.41-.79-.12-1.15.77-1.32.71-.13,1.39-.41,2.24-.67.89.75,1.92.99,2.95-.2.2-.23.66-.24,1-.33,1.04-.26,2.1-.47,3.13-.78.39-.11.72-.42,1.32-.79-1.1-.25-1.96-.25-2.55-.64-.63-.42-.99-1.23-1.52-1.93-.35.15-.71.23-.98.43-1.11.82-2.13.6-3.07-.26-.92-.84-1.79-1.73-2.53-2.46,1.44-.51,2.89-1.02,4.48-1.59.78.41,1.83.86,2.77,1.47,1.24.81,2.29-.12,3.43-.19,1.26-.08,2.22-.74,3.37-1.54-.27-.42-.42-.93-.76-1.14-1.42-.92-2.93-1.62-4.65-.8-.81.39-1.59.43-2.5-.12-.08-.86-.43-1.88-.17-2.71.26-.83,1.13-1.46,1.49-1.89.93-.24,1.54-.38,2.14-.55.33-.09.69-.37.98-.31,1.67.34,3.48.17,4.94,1.26.57.42,1.09.38,1.67.12.07-.03.19.07.29.11-.12.37-.24.74-.39,1.2,2.46.2,3.46-1.44,4.42-3.07.58-.98.8-2.03.26-3.54-1.11,1.77-2.46.34-3.74.65-.12.54-.23,1.04-.35,1.54-1.48.23-2.87.71-4.15-.46-.19-.18-.79-.04-1.14.1-1.38.56-2.68.05-4.28.06.63-1.09.33-1.7-.45-2.05.59-1.34,2.19-2.29.88-3.97.64-.5,1.16-1.22,1.76-1.3.92-.12,1.46-.66,2.16-1.08.67-.41,1.75-.96,2.24-.7,1.57.86,2.55-.12,3.69-.65q-.05-.84.65-1.71c.62-.76.76-1.81.24-2.07-.8-.4-1.19.28-1.64.73-.21.21-.29.56-.52.72-.43.29-.92.68-1.38.67-.45-.01-.98-.39-1.28-.77-.14-.18.16-.72.25-1.02-.25-.2-.67-.36-.73-.62-.06-.26.14-.7.37-.89,1.56-1.34,3.16-2.63,4.75-3.94.14-.11.3-.19.46-.28.64-.39,1.31-.41,1.77.2,1.01,1.36,2.44,1.49,3.83,1.27.82-.42,1.63-.84,2.45-1.26.9,1.27,2.14,1.24,3.5,1.03.73-.11,1.55-.16,2.24.05.84.26,1.6.82,2.38,1.28.91.53,1.83.45,2.2-.21.35-.63.08-1.14-.91-1.77-.09-.05-.12-.19-.16-.26.11-.35.21-.68.37-1.21-.52.14-.86.14-1.07.3-.94.73-1.99.65-2.86.12-1.6-.96-3.09-.54-4.63,0,.17-.97.33-1.93.51-2.99.29-.24.89-.49,1.06-.91.37-.87,1-.91,1.74-.89.29,0,.58,0,.92,0,.18-.55.33-1.04.45-1.39,1.56-.1,2.97-.15,4.37-.31.36-.04.68-.42,1.22-.77-1.33-.23-2.31-.38-3.28-.56-1.3-.24-1.04-1.81-1.97-2.37-1.4-.05-2.83.45-4.26-.25.08-.8.26-1.6-.76-1.96-1.2-.43-2.36-.95-3.54-1.44-.56-.23-1.14-1.34-.96-1.96.26-.92.99-.61,1.63-.57.45.03,1.11.14,1.33-.11.85-.91,2-.74,3-.98,1.53-.37,1.89.03,1.87,1.71-.01.89.44,1.36,1.17,1.04,1.58-.69,3.27-.48,4.9-.66,1.33-.15,2.58-.15,3.53-1.24,1.41.71,2.77.91,4.2.36.19-.08.47,0,.69.07,1.3.42,1.95-.29,2.49-1.21-1.1-.67-2.1-1.28-3.16-1.93-.34.09-.79.2-1.31.33-.46-.92-1.05-1.42-2.14-1.21-1.24.24-.93,1.35-1.37,2.3-.91-.18-1.95-.13-2.63-.6-.51-.36-.98-.76-1.59-1.01-.93-.38-1.2-.94-1-1.82.21-.97,1.71-2.28,2.96-2.5-.04.53-.08,1.04-.12,1.53,1.4.29,1.68.3,2-.77.49-1.65,1.74-1.78,3.06-1.94.41-.05.84.05,1.24-.03.67-.14,1.19-.64.86-1.29-.62-1.23.13-1.84.68-2.8.72-1.27,1.46-2.05,2.88-2.31.31-.06.51-.75.83-1.26,1.26.73,2.16,1.29,3.09,1.77,1,.52,2.01,1.05,3.07,1.41.77.26,1.63.23,2.26-.66-.99-1.23-2.73-.54-3.66-1.52-.11-.9,1.54-1.35.38-2.43-.25.16-.53.26-.72.46-.68.67-1.36.38-1.93-.06-1.08-.82-1.17-1.86-.4-3.04.19-.3.34-.62.48-.95.66-1.58,1.71-2.21,3.41-2.09.46.03.94-.12,1.41-.14.46-.01.98-.07,1.37.1,1.17.54,2.04.16,2.92-.65-.18-.37-.32-.69-.48-1.01-1.15-2.39-1.21-2.41-3.44-1.08-.76-.72-1.54-1.46-2.42-2.3.94-.54,1.65-.05,2.37-.04,1.03.02,2.13-.13,3.09-.5.41-.16.52-1.06.81-1.72.44.1.96.33,1.46.3.41-.03,1.09-.32,1.14-.59.21-1.06.86-1.61,1.73-2.13.92-.55.89-1.34.12-2.18-.21-.23-.35-.53-.7-1.07,1.61.15,2.9.26,4.45.41.14-.11.51-.62.95-.7,1.03-.2,2.12-.36,3.15-.23,1.41.17,2.02-.64,2.76-1.65-.28-.18-.53-.45-.65-.4-1.62.64-3.13.03-4.66-.37-.85-.22-1.09-.68-.65-1.39.42-.69.86-1.36,1.3-2.03,2.05.93,2.86.58,4.28-1.84q-1.3-.3-1.81-1.61c1.35-.33,2.19-1.9,3.96-1.33.79.25,1.55-.78,1.23-1.65-.26-.73-.18-1.02.49-1.4.88-.5.91-.93.32-1.7-.22-.28-.5-.51-.77-.75-1.2-1.08-1.34-2.21-.2-3.37.63-.64.79-1.26.76-2.06-.02-.39.1-.8.2-1.45,1.94.96,3.73,1.85,5.59,2.78.11-.22.27-.47.37-.73.89-2.29,1.92-4.5,3.51-6.42.31-.38.42-.95.53-1.46.27-1.27.32-2.61.76-3.82,1.1-3.03,2.35-6.01,3.57-9,1.2-2.94,1.55-6.17,3.08-9,.16-.3.17-.69.27-1.04.41-1.37.85-2.73,1.22-4.11.37-1.38.75-2.76.97-4.17.11-.68-.12-1.41-.19-2.15.3-.22.61-.45.87-.64,0-1.01-.69-1.91.23-2.79,1.22-1.17,1.19-1.57.26-3.01-.55-.85-.79-1.6-.37-2.78.39-1.09.77-2.69-.75-3.65-.17-.11-.17-.49-.27-.81q1.42.29,1.97-.67c-.36-.24-.73-.48-1.1-.73,1.52-1.78,1.68-2.63.72-3.55ZM292.03,157.48c.14.14.28.28.41.41-.15.17-.31.33-.46.5-.14-.14-.27-.27-.4-.41.15-.17.3-.34.46-.5ZM273.14,105.36c.6.73.95,1.16,1.33,1.63-1.3.33-1.36.27-1.33-1.63ZM12.8,189.95c-.07-.05-.05-.21-.07-.33.11-.02.24-.09.33-.05.24.1.47.24.68.4.02.02-.13.27-.2.41-.25-.14-.51-.26-.74-.43ZM13.77,192c-.08-.06-.16-.12-.24-.18.07-.08.18-.25.21-.23.12.05.22.16.32.24-.1.06-.19.12-.29.18ZM16.03,255.27c-.07-.06-.14-.13-.21-.2.16-.18.32-.36.48-.53l.22.2c-.16.18-.33.35-.49.53ZM26.85,289.1c0,.12,0,.25-.01.37-.4-.05-.8-.1-1.19-.16.36-.66.79-.36,1.21-.21ZM29.12,118.15c.13.04.26.08.4.12-.14.48-.28.96-.42,1.45-.16-.05-.33-.1-.49-.15.17-.47.34-.94.51-1.41ZM25.53,129.08c.12.29.26.47.26.65,0,.11-.22.21-.34.32-.12-.17-.29-.32-.34-.51-.02-.08.2-.23.42-.46ZM26.1,130.95c.08.91-.2,1.1-1.08,1.03.43-.41.68-.64,1.08-1.03ZM24.57,133.66c.04.09.1.17.12.26,0,.03-.09.12-.1.11-.08-.05-.16-.11-.22-.16.06-.07.13-.14.19-.21ZM23.51,139.61c-.12.09-.23.19-.35.28-.13-.27-.25-.54-.38-.81.24.18.48.35.73.53ZM23.98,188.23c.92-1.6,3.09-1.84,4.78-.4.13.11.22.29.26.45.34,1.34-1.24,3.32-2.67,3.33-1.64.01-3.27,0-4.89,0,.89-1.17,1.84-2.2,2.53-3.38ZM17.81,256.22c-.09,0-.19-.01-.28-.02.02-.28.04-.56.05-.85.09,0,.18.01.28.02-.02.28-.03.57-.05.85ZM18.83,259.18c.09-.37.19-.74.31-1.2.39.76.39.77-.31,1.2ZM19.2,255.9s.19-.55.4-1.15c.55.78.94,1.33,1.44,2.03-.68-.31-1.28-.56-1.84-.88ZM20.72,257.81c.41.97.69,1.64,1.1,2.61q-1.18-.98-1.1-2.61ZM31.92,271.73c-.13-.04-.26-.08-.39-.11.14-.3.28-.59.42-.89.09.04.18.07.27.11-.1.3-.2.6-.3.9ZM37.15,210.53c-.21.21-.46.39-.7.55-.75.51-1.5,1.07-2.45.46-.97-.62-1.35-1.87-.99-3.08.05-.16,0-.34,0-.5-.59-.34-.96-.08-1.16.42-.22.55-.36,1.14-.51,1.71-.43,1.68-1.58,2.78-2.99,3.62-.38.23-.9.32-1.35.29-1.35-.07-2.6.12-3.4,1.33-.75,1.14-1.66.62-2.54.37-.95-.27-1.04-1-.89-1.86.21-1.16-.42-2.06-1.07-3.05-.49.15-.97.29-1.68.51-.12-.67-.39-1.26-.28-1.77.16-.75.49-1.4.2-2.23-.08-.23.53-.91.93-1.04.76-.23,1.5,0,2.1.64,1.28,1.39,3.04,2.3,5.16,2.5-.52-.43-.98-.94-1.56-1.27-1.13-.66-1.79-1.52-1.66-2.98.45-.18.92-.37,1.37-.55.57-2.53,1.38-4.88,3.63-6.68-.63-.25-1.07-.43-1.76-.71,1.27-1.37,2.97-1.16,4.85-1.68-1.19-.24-2.19-.32-1.52-1.62.87.05,1.78.21,2.15.99.42.88,1.07.82,1.77.82.71,0,1.45.09,2.14-.07,1.14-.26,1.81.24,2.55,1.33-1.18-.07-2.21-.13-3.51-.2,1.05,1.94,1.25,3.72,1.05,5.56-.02.23-.08.52.03.69.67,1.06.66,2.03-.03,3.13-.46.74.05,1.66.87,2.07.32.16.7.2,1,.38.84.5.92,1.2.23,1.91ZM41.93,267.57c-.89-.18-1.59-.32-2.33-.47.89-2.18.73-2.44,3.18-2.35-.49.42-.85.73-1.28,1.1.12.47.24.97.43,1.73ZM41.34,232.49c-.71-.12-1.38-.4-1.42-1.11-.04-.65.22-1.37.51-1.98.21-.45.74-.74,1.04-1.16.79-1.13,1.74-1.19,2.5-.07.28.42.42.95.49,1.11.06,2.27-1.33,3.51-3.11,3.2ZM53.35,93.99c-.06-.14-.15-.28-.17-.42,0-.05.2-.19.26-.17.13.06.23.19.42.36-.23.11-.37.17-.5.23ZM220.22,346.01c.63-.5,1.02-.1,1.46.42-.5.57-.97.76-1.49.2-.1-.11-.09-.53.03-.62ZM236.27,216.66c-.18.99-.66,1.31-1.27,1.28-.27-.01-.51-.44-1-.9.95-.16,1.52-.26,2.26-.38ZM214.18,20.49c0-.07.11-.13,0,0h0ZM195.86,123.63c.17-.03.34-.07.5-.1.26.46.52.93.88,1.55-.66.13-1.05.2-1.63.31.1-.68.17-1.22.25-1.76ZM156.19,105.31c.24.8.44,1.49.64,2.19-1.2.47-2.18-.3-3.21-.66-.28-.1-.37-.76-.52-1.1,1.13-1.11,2.2-.7,3.09-.43ZM132.33,106.52c.54-1.2,1.25-2.18,2.74-2.2.22,0,.51-.07.66-.23.61-.62,1.3-.7,2.12-.54.3.06.65-.15,1.16-.28-.34-.53-.6-.94-.91-1.43,1.96-.39,3.85-.75,5.74-1.15,1.29-.28,2.46-.02,3.61.58.48.25,1.11.43,1.63.36,1.64-.22,2.55.81,3.77,1.81-.91.49-1.56.84-2.09,1.13-1.37-.07-1.19-1.94-2.54-1.86-.45.02-.9,0-1.53,0,.24.58.41.99.61,1.46-.28.3-.55.61-.84.9-.53.53-1.08.59-1.77.2-.56-.31-1.2-.54-1.83-.62-2.02-.28-2.04-.26-2.97,1.58-.35.68-.8,1.05-1.57,1.28-1.11.33-2.17.9-3.21,1.44-.69.36-1.33.88-2.11.26-.87-.69-1.1-1.68-.66-2.67ZM101.91,43.3c1.33.43,2.68.78,4.15,1.21-.33.74-.68,1.53-1.09,2.45-2.28-.31-4.62.35-6.86-.67-.36-.17-.95.16-1.43.25.57-3.02,2.42-4.15,5.22-3.24ZM98.21,34.13c1.13.09,1.18,1.08,1.37,1.82.31,1.18-.66,1.59-1.65,2.25-.45-1.42-1.1-2.36-2.56-2.24.48-1.18,1.74-1.91,2.84-1.83ZM88.04,33.45c1.03-.78,2.11-1.49,3.3-2.33.52.33,1.01.64,1.63,1.03-.9,1.32-1.66,2.75-3.25,3.33-.46.17-1.17.04-1.62-.22-.88-.5-.88-1.19-.06-1.82ZM87.65,41.01c1.11-.34,2.04-1.48,3.26-.44.59.5.8,2.08.48,2.61-.46.79-1.77,1.3-2.63.95-1.48-.6-1.08-1.89-1.12-3.13ZM85.18,76.52c.79-1.33.83-1.36,2.24-1.14,1.38.22,2.76.48,4.38.76,0-.36.06-.81-.01-1.23-.16-.91.24-1.35,1.11-1.46.47-.06.97-.07,1.39-.25.26-.11.54-.52.54-.79,0-.28-.29-.72-.54-.8-.73-.23-1.73-.2-1.55-1.29.11-.69.64-1.31,1.12-2.21-.32-.7-1.39-1.49-.12-2.58.43.28.85.56,1.33.88.35-.23.66-.51,1.03-.66,1.11-.45,2.34.23,2.43,1.32q.14,1.7,1.65,2.08c.17.04.34.1.5.16.14,2.11-1.25,4.41-3.16,5.2-.21.09-.49.18-.68.12-1.14-.39-1.94.35-2.8.83-.61.34-1.19.66-1.25,1.57-.05.77-.74,1.23-1.5,1.31-1.53.17-3.05.34-4.51.9-1.12.43-1.76-.35-2.43-1.26.27-.48.55-.98.85-1.48ZM99.41,106.69c-1.68.94-3.34,1.54-5.11,1.74-1.26.14-2.28-.59-3.26-1.24-.26-.17-.4-.9-.26-1.23.86-2.05,5.45-3.06,6.99-1.54.6.59,1,1.38,1.63,2.27ZM87.13,91.27c0,.23-.55.56-.89.63-.5.11-1.05.03-1.72.03-.3-1.18.21-1.84,1.09-2.24.32-.14.98-.17,1.08,0,.28.46.45,1.05.44,1.58ZM79.05,48.68c-.79-.04-.9-.58-1.07-1.07.57.11,1.16.2,1.07,1.07ZM76.48,98.08c.16-2.21,0-2.25,2.19-2.82.57-.15,1.17-.2,1.58-.27.49.03.82-.03,1.07.09.29.13.66.38.73.64.06.27-.14.67-.34.92-.35.45-1.04.79-1.13,1.26-.24,1.25-1.02,1.55-2.09,1.76-1.41.28-2.11-.15-2.01-1.58ZM67.24,69.25c1.37-.32,2.19.12,2.95,1.23-1.07,1.18-1.7,2.89-3.96,2.26.37-1.26.7-2.42,1.02-3.49ZM59.39,122.86c.48-.15,1.02-.1,1.69-.14-.2.95-.73,1.27-1.42,1.29-.23,0-.68-.25-.67-.34.04-.3.19-.75.4-.81ZM56.3,272.24c-.14-.36.06-.85.11-1.29-1.61-.52-1.74-.72-1.55-2.51,2.67-.12,4.97.48,6.3,3.2-.66.8-1.53,1.36-2.59,1.6-.73.17-2.01-.33-2.27-1ZM64.68,285.98c-2.02.22-3.69.4-5.32.58-.82-2.73-.31-3.91,2.04-4.96,1.37-.61,3.9.32,4.41,1.73.17.48.02,1.17-.2,1.66-.21.45-.71.77-.93.99ZM71.17,299.73c-1.02-1.12-1.91-1.3-3.02-.24q-.38-1.28-2.36-2.18c.94-.39,1.76-.74,2.6-1.09-.04-.79-.07-1.46-.12-2.59.67.54,1.12.74,1.31,1.09.52.94,1.31,1.22,2.26,1.05.88-.15,1.38.25,1.73.94.47.95.9,1.93,1.33,2.86-1.21,1.01-2.77,1.18-3.72.14ZM80.01,270.45c-.94.92-1.4,1.04-2.13.55-.86-.57-1-1.16-.48-2.11.2-.36.45-.68.74-1.12.34.27.62.46.86.69.53.48,1.07.68,1.77.31.28-.15.67-.22.97-.15,1.45.31,1.44.33,2.17-.87.15-.24.32-.47.57-.85.54.39,1.2.62,1.42,1.08.4.84.66,1.79.74,2.71.06.7-.59,1-1.26.9-1.11-.18-2.21-.38-3.11-1.19-1.16-1.03-1.18-1-2.27.06ZM83.73,245.08c.14-.03.27-.06.41-.1v.32c-.1.03-.23.1-.3.07-.07-.04-.07-.19-.1-.29ZM90.92,337.4c-.16.51-.87,1.22-1.31,1.21-1.18-.03-2.47.3-3.53-.72-.55-.53-1.39-.75-2.24-1.19.92-1.07,1.45-2.2,3.07-2.23.66,1.15,1.67,1.68,2.91,1.86.64.09,1.33.39,1.11,1.08ZM91.47,249.53c.6.14,1.21.27,1.84.42q-1.34.82-1.84-.42ZM110.42,364.98c-.34.77-1.02.66-1.7.53-.34-.07-.78-.19-1.04-.05-1.07.56-1.8.04-2.55-.66-.01-.15-.07-.33-.03-.49.62-2.3-.42-4.12-2.72-4.7-.52-.13-1.06-.31-1.58-.26-1.24.12-2.16-.36-3.03-1.18-.33-.31-.94-.43-1.43-.44-.94-.03-1.88.08-2.98.14.12-1.01.63-1.24,1.38-1.29,1.36-.08,2.71-.26,4.06-.34.46-.03.92.14,1.38.18.4.04.82.13,1.19.03,1.99-.51,2.31-.39,3.31,1.5,1.09.34,1.37-.65,1.9-1.2.51.52.99,1.01,1.56,1.6-.28.03-.61-.01-.85.12-.94.5-1.1,1.4-.37,2.19.57.61,1.22,1.13,1.85,1.68.36.31.76.57,1.11.9.51.47.85,1.05.54,1.75ZM95.22,250.14c.16-.04.31-.11.47-.11.05,0,.1.17.17.32-.18.03-.34.07-.5.06-.06,0-.1-.17-.14-.27ZM102.72,266.21c-.81-1.21-1.62-2.41-2.53-3.75,1.49-.82,2-.77,2.53.13.3.51.58,1.09.64,1.66.21,1.88,1.68,2.45,3.09,2.59,1.17.12,1.55.56,1.83,1.5.13.45.44.86.57,1.31.4,1.33-.52,2.34-1.85,1.92-.76-.24-1.61-.69-2.05-1.31-.69-.95-1.88-1.67-1.72-3.14.03-.29-.31-.63-.51-.92ZM98.08,254.38c1.78-1.13,3.16-.4,4.25,2.15-1.66,1.68-3.4.84-4.25-2.15ZM100,290.62c-.33.23-.67.45-1,.68-.06-.08-.12-.16-.18-.24.3-.27.6-.54.9-.81.09.12.19.24.28.36ZM121.34,365.7c-.63.64-1.54.76-2.68.46.09-.98.16-1.8.26-2.61.08-.62.46-.92,1.08-.95.59-.02,1.08.14,1.23.76.19.77.81,1.63.11,2.33ZM122.15,297.03c-.31,0-.77-.39-.93-.71-.47-.94-.83-1.93-1.18-2.78.76-.95,2.76.19,2.38-1.93-.7-.19-1.38-.38-2.15-.59-.02-2.38-1.17-4.23-2.8-5.88-.42-.43-.55-1.14-.88-1.9-.78-.08-1.65-.26-2.53-.25-1.98.02-2.39-.61-1.56-2.44,1.85-.17,3.39,1.77,5.36.76-.19-.69-.35-1.29-.58-2.11-.24-.04-.77-.07-1.24-.24-.93-.34-1.71-.84-1.77-2-.02-.34-.09-.74-.28-1-.74-.99-.46-1.88.08-2.78.18,0,.35-.05.4,0,1.21,1.26,2.44,2.51,3.61,3.8.25.28.42.72.45,1.1.17,2.21.16,2.22,2.37,2.35-.24.84-.73,1.7-.63,2.5.09.72.81,1.36,1.28,2.07,1.47-.17,1.39-.13,2.01,1.33.3.71.98,1.26,1.59,2.02-.07.07-.3.28-.46.42.08.67.15,1.28.22,1.89.03.24-.05.63.06.69,1.59.86,1.13,3.24,3.02,3.94,1.06.39.51,1.56.62,2.37.1.7-.1,1.44-.19,2.46-.45.42-1.18.78-2.21.37.01-.27-.04-.53.04-.72.38-.88.04-1.46-.8-1.61-1.17-.2-2.04-1.15-3.3-1.13ZM114.28,258.89c1.23.11,2.46.26,3.68.43.25.04.48.25.71.39-.64,1.03-1.17,1.84-1.65,2.68-.52.92-1.23,1.13-1.97.37-.65-.67-1.22-1.45-1.69-2.26-.46-.8.08-1.68.92-1.61ZM127.64,274.1c.08-.13.17-.26.25-.39,1.63-.16,2.8.89,4.29,1.76-1.41.37-2.45-.41-3.57-.52-.35-.03-.65-.55-.97-.85ZM123.99,376.48c.84-1.05,1.88-1.02,2.88-.75.35-.72.62-1.3.93-1.95,1.38,1.32,2.57,2.45,3.86,3.69-1.66.83-3.09,1.5-4.73.64-.21-.11-.58-.11-.64-.25-.42-1.02-1.47-1.02-2.31-1.38ZM133.75,388.74c-.2,1.09-1.86,2.25-3.02,2.24-2.84-.02-3.89-.73-5.36-3.7.82-.32,1.63-.64,2.38-.94,1.96,1.51,2.05,1.51,3.59.22.65.36,1.36.68,1.97,1.14.27.2.5.72.44,1.04ZM133.27,356.7c-.43.12-.77.55-1.27.92-.2-.19-.5-.54-.86-.8-1.41-1.01-2.11-.92-3.17.37-.89-2.01-.64-2.48,1.65-2.94v-1.35c1.52.95,2.93,1.84,4.54,2.85.1.58-.29.77-.89.94ZM133.17,275.69c.07-.06.15-.12.22-.18.05.08.1.16.14.25,0,.01-.09.09-.12.08-.09-.04-.16-.1-.24-.15ZM134.52,279.03c.33-.57.68-1.18,1.07-1.85.43.37.85.74,1.29,1.09.59.47,1.18.73,1.96.28,1.06-.61,2.05.13,3.14.43-.46.27-.93.53-1.67.96,1.73.91,3.22,1.69,4.96,2.59.28-.8.48-1.37.63-1.83,1.27-.64,2.47-1.23,3.85-1.93-.79-.46-1.33-.9-2.2-.49-.92.45-1.72.2-2.53-.5-1.31-1.12-2.84-1.88-4.58-2.2-.62-.11-1.21-.39-1.79-.63-.63-.26-1.24-.57-2.07-.96-.31-2.28-2.29-2.82-4.36-3.4-2.14-.61-4.23-1.43-6.42-2.19.16-.52.16-.87.34-1.05.84-.86.56-1.89.42-2.86-.12-.79-.56-1.18-1.5-1.16-.86.02-1.76-.21-2.57-.52-.37-.14-.58-.71-.96-1.2.77-.19,1.25-.31,1.76-.44-.77-3.68-4.1-3.6-6.61-4.73.02-.42.04-.81.06-1.26-.78-.38-1.52-.74-2.45-1.19-.22.43-.45.89-.81,1.61-.48-.84-.62-1.24-.88-1.52-.47-.52-.94-1.22-1.54-1.41-1.52-.48-3.11-.77-4.7-1-.59-.09-1.1-.16-1.27-.74-.38-1.31-1.21-1.85-2.43-1.58-.73-1.19-1.39-2.26-2.09-3.4.68-.08,1.25-.15,1.82-.22.03-.13.06-.26.09-.39-.35-.26-.69-.54-1.07-.76-.35-.21-.79-.3-1.11-.55-.45-.36-.45-.84,0-1.22.42-.36.92-.42,1.2.14,1.13,2.27,3.2,2,5.27,2.18v-1.81c.56.23,1.11.29,1.33.59.38.51.69,1.15.81,1.77.22,1.17.83,1.78,2,1.91.34.04.67.23,1.12.4.23-.32.46-.62.76-1.04h2.23c-.25-.68-.42-1.16-.63-1.73-.42.2-.73.37-1.05.49-.84.3-1.61.11-1.98-.71-.68-1.49-1.99-1.76-3.37-1.97-1-.15-2.01-.28-3-.46-.32-.06-.62-.28-1.1-.51.43-.37.71-.61,1.03-.88-.11-.13-.19-.3-.32-.4-1.67-1.19-3.34-2.4-5.05-3.54-.36-.24-.93-.17-1.34-.36-.45-.21-1.07-.48-1.19-.86-.36-1.09-.91-2.22-.32-3.56.76-.2,1.6-.41,2.82-.73-1.47-.26-2.62-.15-3.64-.97-.49-.39-1.59-.04-2.42.01-1.11.08-2.22.21-3.34.28-.22.01-.56-.07-.64-.22-.64-1.17-2.07-1.85-2.14-3.46-.52-.17-1.08-.35-1.6-.52-.59-1.45-1.19-2.86-1.73-4.3-.12-.31-.14-.71-.07-1.05.16-.88.04-1.63-.59-2.32-.24-.27-.28-.75-.34-1.15-.15-.92-.14-1.88-.41-2.76-.27-.89-.05-1.51.56-2.08.25-.24.53-.45.52-.44.06-1.99.12-3.68.18-5.55-.75-.1-1.33-.7-1.07-1.91-.12-.01-.23-.02-.35-.03-.32.6-.64,1.19-.97,1.81-.98-.28-.92-1.07-.86-1.62.11-.94-.42-1.19-1.1-1.3-1.22-.19-2.46-.3-3.72-.45-.03-.2-.13-.46-.06-.52,1-.79,1.06-1.86,1.08-3.01.02-1.98,1.2-3.56,1.99-5.27-.65-1.72-1.97-2.6-3.71-2.95-.23-.05-.57-.22-.67-.13-1.28,1.1-2.01-.09-2.83-.51.08-1.1.15-2.07.21-2.93.51-1.07,1.01-2.11,1.52-3.14.12-.25.29-.52.51-.67,1.41-1.01,1.6-1.64.9-3.17-.07-.15-.07-.33-.12-.6.78-.25,1.55-.49,2.48-.78-.42-.75-.76-1.35-1.1-1.94,1.3-1.92,1.31-2.09.1-3.46,1.27-.56,2.2-1.82,3.86-1.45-.99-.75-1.98-1.5-3.14-2.38,1.49-.67,2.16-2.33,3.91-2.37q.84-2.26-.3-3.46c.75-.48,1.42-1.05,2.19-1.37,1.6-.66,2.18-.1,1.94,1.88-.37-.13-.71-.26-1.32-.49.13,1.76.24,3.31.35,4.93.52.31.88.09.98-.48.21-1.23.64-2.23,1.89-2.82.43-.21.84-1.01.8-1.5-.09-1.08.4-1.73,1.46-2.42-.63-.14-.95-.28-1.26-.27-.35,0-.71.25-1.04.21-.56-.06-1.1-.27-1.65-.41.16-.54.17-1.25.52-1.58.85-.79,1.4-1.95,2.66-2.28.26-.07.54-.3.68-.54.71-1.2,1.63-1.94,3.11-2.04.43-.03.92-.71,1.19-1.2.52-.96,1.31-1.56,2.28-1.9.43-.15.95-.02,1.42-.02.06,1.99-.63,3.35-1.92,4.47-.44.38-.84.9-1.05,1.43-.72,1.88-1.36,3.8-2.09,5.89h1.44c-.38-1.69-.18-2.24,1.2-3.16.66-.44,1.24-.84,1.29-1.78.02-.39.48-.82.83-1.11.74-.61.73-1.17.17-1.62.82-1.27,1.41-2.62,2.38-3.58,1.05-1.05,1.37-2.38,2.02-3.59.75-1.39,2.15-1.83,3.51-2.22.74-.21,1.52-.2,2.06-.9.16-.21.52-.41.76-.39,1.38.13,2.34-.81,3.46-1.31.66-.3.63-.37.43-1.48-.77-.03-1.74.77-2.31-.39-.82.27-1.65.54-2.47.81-.43-.61-.87-1.22-1.38-1.93.91-.56,1.27-1.36.99-2.4-2.22-1.09-3.55-.46-3.95,1.93.27.16.63.28.84.53.21.24.46.7.37.91-.48,1.04-.94,2.13-1.65,3.01-.6.74-1.54,1.19-2.4,1.82.13.5.33,1.24.58,2.16-.71.17-1.21.28-1.7.4-.63.16-1.29.25-1.87.51-.6.28-1.05,1.02-1.86.37-.1-.08-.53.17-.74.35-1.41,1.2-1.72,1.33-3.91,1.51,0-.86-.16-1.75.05-2.55.16-.62.78-1.11,1.22-1.69.47.19.78.34,1.11.45,1.38.46,1.4.46,2.28-.81.54-.77.96-1.66,1.61-2.31,1-1,.67-1.9.09-2.88l-.47-.48c-.4-.05-.81-.1-1.51-.19.83-.72,1.16-1.48,2.37-1.15.6.16,1.31-.54,1.59-1.33.36-1.01.78-2,1.17-3,.07-.17.08-.42.2-.49,1.32-.77,1.76-2.19,2.56-3.35,1.21-1.75,3.12-1.57,5.26-1.47-.37.89-.64,1.55-.93,2.26.62.46,1.13.1,1.64-.16.85-.44,1.68-.64,2.46.14.12.12.38.29.44.25,1.03-.74,1.55.27,2.24.77.31-1.22.59-2.29-.94-3.24,1.8-.31,2.71-1.02,3.16-2.33.11-.31.6-.61.96-.69,1.23-.3,2.34-.76,3.44-1.43.82-.49,1.96-.43,2.9-.76,1.91-.69,3.57-.53,5.37.61,2.59,1.64,4.09.57,3.99-2.57,0-.09-.14-.17-.31-.35-.36.31-.73.61-1.19,1-.93-1.52-.76-3.91-3.37-3.61-.24-.89-.45-1.69-.67-2.52,1.1-.67,2.15-1.32,3.2-1.96.2-.12.45-.21.6-.38,1.82-2.16,4.26-1.64,6.58-1.46,1.29.1,2.55.41,3.8.62.28-.56.42-1.09.74-1.46.95-1.08,1-1.49.06-2.48-.22-.24-.55-.38-1.05-.39.09.23.17.47.28.69.1.2.24.38.36.56-1.15.85-1.6.64-1.92-.8-.64-.12-1.28-.24-1.92-.36,0-.12-.01-.24-.02-.35.23-.12.45-.31.69-.36,1.27-.22,2.57-.33,3.82-.63.66-.16,1.39-.51,1.84-1.01,1.26-1.38,2.81-1.43,4.43-1.16,1.7.28,3.39.6,5.06,1.01,1.19.29,2.26-.1,3.31-.45.3-.1.42-.73.62-1.12.11.05.28.06.32.15.7,1.39,2.04,2.14,3.12,3.16.56.52.85,1.33,1.35,2.17.62.17,1.47.43,2.33.63,1.48.34,2.57,1.19,3.46,2.38.85,1.14,1.46,1.34,2.49.49.67-.55,1.24-.42,1.95-.43,1.72-.03,3.39.76,5.14.29.25-.07.76.16.87.38.15.31.11.78,0,1.13-.08.24-.4.41-.61.61.81,2.13,2.48,2.59,4.05,2.49.87.72,1.44,1.27,2.09,1.69.7.44,1.47.71,1.87,1.57.12.26.79.26,1.2.38.06-.43.21-.87.15-1.28-.05-.36-.32-.69-.64-1.32,2.19.72,3.8,2.29,6.24,1.95.48.85,1.02,1.82,1.57,2.78.12.2.23.53.39.56,1.6.28,3.03,1.61,4.85.66-.06.73-.17,1.42.84,1.48.17-.37.35-.76.53-1.15.12,0,.24.01.36.02.07.51.14,1.02.2,1.53.64.12,1.27.24,2.03.39-.19,1.09.14,1.96,1.22,2.26,1.01.28,1.63-.42,2.35-1.16-.35-.26-.62-.46-.88-.67-.23-.18-.46-.36-.86-.67.44-.53.84-1,1.3-1.55-.29-.26-.64-.57-1.02-.91-.79.38-1.59,1.12-2.49-.04.6-.98,1.24-2.01,2.02-3.27.75,1.1,1.51,1.18,2.37.6.92-.62,1.77-.53,2.53.3h0c1.17,1.72,2.99,2.69,4.59,4.08-.44.06-.91.04-1.3.21-.26.11-.56.53-.53.77.03.23.48.6.72.58.82-.08,1.62-.29,2.41-.45.13-.69.17-1.28.35-1.82.44-1.28.31-1.88-.74-2.77-1.08-.92-2.2-1.81-3.23-2.78-.96-.91-.78-1.92.41-3.09-.59-.4-1-.76-1.48-.98-.91-.43-1.35-1.1-1.37-2.11,0-.25-.21-.51-.36-.74-.19-.3-.55-.55-.61-.86-.38-2-1.63-3.33-3.25-4.39-.64-.42-.67-.95-.27-1.53.37-.54.84-.87,1.51-.48.56.33,1.11.69,1.73,1.08-.35,1.53.08,2.81,1.21,3.97.43-.23.83-.44,1.41-.75.52.45,1.32.82,1.6,1.44.59,1.33,1.5,2.61,1.18,4.23-.12.61.11,1.17.73,1.5.25.14.59.35.64.59.28,1.11,1.27,1.5,2.03,2.12.57.46,1.05.82.93,1.74-.1.73.15,1.54.36,2.28.12.43.38.88.72,1.17.63.53,1.33.99,2.05,1.41,1.71,1.02,2.2,2.02,1.82,3.91-.04.17-.1.34-.19.64-.91.23-1.83.64-1.91,1.83-.07,1.05.6,1.6,1.53,1.87-.06.28-.05.48-.14.61-1.29,1.87-1.18,3.88.32,5.58.4.45.69.85.43,1.58-.38,1.09-.52,2.26-.78,3.48,1.52.41,1.8,1.63,2.42,2.62.87,1.37-.47,2.03-.82,3.16.76.47,1.46,1.12,2.27,1.35,1.08.31,1.81.8,2.16,1.88.08.25.38.42.72.79-.7.3-1.31.55-2.08.88.31.32.52.56.76.77.61.54.96,1.64.69,2.21-.34.73-1.3,1.06-2.27.72-.65-.23-1.45-.51-1.73.22-.21.55-.05,1.46.3,1.97.44.64,1.23,1.05,1.97,1.63-.47,1.37-.99,2.86-1.52,4.39.27.46.68.94.82,1.48.09.36-.26,1.18-.32,1.18-1.27-.2-1.51.94-2.11,1.53.74.52,1.46,1.03,2.4,1.7.6.14,1.5.36,2.27.54.36,1.16-.19,1.73-.72,2.3-.46.49-.93.93-.57,1.72.09.2-.06.59-.21.81-.73,1.08-1.67,2.06-1.38,3.54.02.09-.06.26-.14.31-2.32,1.35-.64,3.44-.88,5.16-.12.83,1.12,1.47,2.02,1.21.44-.13.85-.37,1.28-.56.67,1.72.24,3.6-1.01,4.64,0,0,0,.01.01.02,0,0,0,0,0,.01.43.53.43.92-.36,1.05,0,0,0,0,0,.01,0,0-.01,0-.02,0-.19.36-.36.73-.57,1.08-.3.51-.83.98-.91,1.52-.25,1.68-.97,3.14-1.79,4.57-.24.41-.38.87-.59,1.29-.78,1.6-1.53,3.21-2.37,4.77-.33.62-.87,1.13-1.33,1.67-1.52,1.75-2.59,3.73-2.85,6.06-.09.81-.13,1.68.07,2.46.53,2.07.02,3.99-.58,5.93-.21.66-.17,1.41-.38,2.07-.34,1.07-.77,2.12-1.23,3.14-.48,1.07-1.03,2.11-1.63,3.34-1.93.57-2.04,2.57-2.63,4.35-1.01.44-1.86,1.12-2.33,2.24-.15.37-.47.7-.79.95-1.36,1.1-2.11,2.86-3.83,3.56-.05.02-.12.06-.14.11-.95,2.11-2.87,3.44-4.22,5.23-.25.33-.45.73-.75,1-1.5,1.32-3.01,2.63-4.54,3.91-.56.47-1.17.84-.74,1.83.81-.22,1.46-.36,2.06-1.11.55-.69,1.61-.97,2.4-1.41.07,1.1.12,1.98.18,3.05-.7.26-1.49.5-2.22.85-.74.35-1.53.7-2.13,1.24-.88.79-1.66,1.7-2.37,2.65-.29.38-.41.99-.39,1.48.03.97-.16,1.65-1.06,2.25-.96.64-1.6,1.78-3.01,1.55-.15-.02-.39.25-.54.43-.68.81-1.64.93-2.46.6-1.13-.46-1.93-.15-2.7.63-1.09-.42-1.64-2.17-3.35-1.19.43.66.8,1.23,1.19,1.82-.31.54-.75,1.06-.9,1.65-.18.66-.49,1.04-1.11,1.25-.33.11-.65.3-.95.49-.95.61-1.11,1.29-.5,2.25.18.29.45.53.65.75-.26.54-.48,1.01-.8,1.68-.23-.43-.39-.73-.6-1.13-.47.21-.94.43-1.51.69.19.5.34.92.51,1.36-.17.72-1.33,1.15-.69,2.19.08.12-.36.52-.48.82-.18.42-.29.87-.52,1.62.74-.2,1.11-.3,1.51-.4.67.78,1.35,1.56,2.11,2.45-1.65.73-3.23.82-4.94,0-.6.21-1.31.47-2.18.79v-1.05c-.98-.95-1.81-1.75-2.71-2.62-.23.16-.59.41-1.1.76-.55-1.66-1.54-2.12-3.17-1.73-.58.14-1.36-.58-2.09-.92-.68.31-1.45.71-2.25,1.01-.94.35-1.76.43-2.51-.58-.68-.91-.92-.79-2.4.35-1.04-.42-2.09-.84-3.49-1.41-.39.21-1.11.59-1.93,1.03.19.64.35,1.18.51,1.73-1.13,1.35-1.31.94-3.74-.59-.16.28-.35.64-.64,1.16-.47-.43-.84-.79-1.23-1.12-.49-.41-.87-.91-1.7-.73-.76.17-1.34-.34-1.74-1.01-.76-1.28-1.55-2.54-2.37-3.88ZM105.29,144.03c.32-.1.65-.2.97-.29-.26.21-.51.41-.77.62-.07-.11-.13-.22-.2-.33ZM229.28,221.42c-1.04,1.22-1.43,1.2-2.42-.22.98-.4,1.72-.42,2.42.22ZM221.5,215.58c-.04-.77.34-1,1.07-1.06.64-.06,1.25-.36,1.88-.56-.08-.99-.13-1.75-.2-2.57.77-.25,1.18.06,1.3.75.34,1.85.05,3.51-1.6,4.79h-2.45c0-.44.02-.9,0-1.35ZM216.17,267.22c.42-1.25,1.16-2.09,2.19-2.76.41,1.07.25,2.8-.3,3.16-.63.42-1.22.18-1.89-.41ZM217.51,285.56c-.55,2.07-.65,2.13-2.29,1.45.74-.47,1.4-.88,2.29-1.45ZM213.6,299.16c-.17.61-.44,1.2-.79,2.11-.4-.76-.72-1.24-.93-1.77-.28-.7.07-1.12.75-1.3.72-.19,1.16.23.96.96ZM202.47,282.37c-.09.08-.18.17-.28.25-.17-.27-.35-.54-.52-.8l.79.55ZM201.64,281.78c-.67.02-1.47-.22-1.58,1.17-.6-.65-1.01-1.1-1.55-1.7.67-.59,1.21-1.08,1.71-1.53,1.04.47,1.36,1.18,1.41,2.06ZM193.53,267.73c-1.16.57-1.56,1.45-1.62,2.77-.92-1.43-.72-3.02.51-4.87.72.08,1.34.16,1.97.23.51.98-.36,1.63-.85,1.88ZM194.11,300.51c-.63,1.54-2.34,2.3-4.61,1.93.94-1.22,1.74-2.25,2.63-3.4.71.53,1.35,1,1.98,1.47ZM179.86,328.16c.59.14,1.43-.17,1.5.8.04.55-.8.9-1.75.79-.23-.03-.47-.09-.69-.16-.28-.08-.55-.19-.93-.33.22-1.36.98-1.32,1.88-1.11ZM177.03,306.76c1.33-2.56,1.79-2.77,3.16-1.47-.83.94-1.74,1.65-3.16,1.47ZM175.71,279.66c-.12.07-.23.17-.36.2-.06.01-.15-.12-.22-.19.1-.09.21-.18.31-.26.12.11.19.18.27.25ZM159.89,289.13c-.46.21-.97.29-1.19.58-1,1.33-2.37,1.18-3.7.96-1.26-.21-2.63-.2-3.56-1.38-.27-.34-.75-.58-1.19-.72-.71-.22-1.01-.63-.8-1.32.19-.61.74-.56,1.19-.42.91.28,1.62-.18,2.45-.39,2.72-.69,5.52-1.64,8.36-.33.5.23,1.05.38.93,1.09-.11.64-.72.94-1.52.77q-1.44-.29-.97,1.16ZM158.64,294.69c.81-.13,1.63-.16,2.26-.89.53-.61,1.26-.58,1.95-.16.83.5,1.64,1.04,1.7,2.14.03.69-.9,1.4-1.83,1.34-.45-.03-.94-.2-1.32-.45-.58-.39-1.12-.49-1.84-.39-1.07.16-2.09-.1-3.01-1.38.93-.09,1.51-.11,2.08-.21ZM147.57,295.01c-.34.58-.72.78-1.18.38-.12-.11-.16-.51-.06-.62.42-.47.82-.25,1.24.24ZM138.2,388.38c-.33-.04-.67-.09-1-.13.02-.15.03-.3.05-.45.33.03.67.06,1,.12.01,0-.03.3-.04.46ZM137.76,295.64c-.57-.1-1.33-.12-1.64-.49-.51-.6-.78-1.43-1-2.21-.06-.22.39-.83.63-.84.87-.04,1.79-.17,2.53.57.27.27.74.59,1.06.54.91-.15,1.66-.23,2.5.42.58.45,1.5.45,2.27.65-2.13.63-4.09,1.75-6.34,1.37ZM146.35,383.17c-.04.32-.42.77-.73.85-.23.06-.64-.32-.89-.58-.27-.29-.45-.68-.66-1.03-.48-.82-.25-1.37.67-1.47.45-.05.91.04,1.52.07.04.79.16,1.49.08,2.16ZM146.14,308.03c-1.22.88-2.26.33-3.38.02-.17-.05-.36-.14-.45-.27-.48-.74-1.11-1.27-1.83-1.79-.84-.6-.7-1.06.29-1.97.18.12.4.22.55.37,1.86,1.86,3.92,2.29,6.31,1.32.44-.18.89-.39,1.34-.42,1.61-.13,3.03.64,4.69.84-.53.93-1.18.69-1.73.7-1.13.02-2.2.01-3.27.63-.72.42-1.88.11-2.53.57ZM153.93,377.68c-1.52.3-3.1.58-4.04-1.24-.17-.33-.66-.49-.99-.72,1.16-2.33,1.55-2.56,3.62-2.43.42.03.84.01,1.25.07,1.44.2,1.94.68,1.98,1.84.04,1.34-.52,2.23-1.81,2.48ZM157.9,389.45c-.34-.12-.69-.37-.87-.68-.08-.13.27-.51.54-.98.39.42.75.66.85.97.05.17-.43.72-.53.68ZM160.05,322.73c-.51-.1-1.07-.38-1.27-.22-.63.51-1.3.47-1.82.1-.48-.33-.74-.97-1.13-1.52q-1.28.23-1.93-.94c-.35-.62-.69-1.24-1.06-1.89.39-.73.78-1.57,1.68-1.33.73.2,1.76.75,1.91,1.34.33,1.31,1.16,1.37,2.13,1.38.52,0,1.04-.07,1.57-.12,1.07,1.12-.04,2.09-.08,3.19ZM156.33,301.88c-1.02-.8-2.02-1.61-3.16-2.52.94-.62,1.73-.67,2.64-.26.43.19,1.13.28,1.49.06,1.37-.83,2.8-.18,4.19-.3.24-.02.52.39.89.69-.57.72-1.05,1.39-1.6,2-1.45,1.6-2.71,1.69-4.44.33ZM163.52,391.38c-.34.27-.82.59-1.19.54-.47-.06-.88-.48-1.32-.75l.06-.45c.49-.16.97-.4,1.47-.45.36-.03.78.15,1.11.34.09.06.04.64-.12.76ZM169.39,314.11c-.38.07-.93-.01-1.11.21-.68.82-1.3.56-2.02.12-.49-.3-1.07-.46-1.54-.79-.36-.25-.6-.66-.94-1.06-.45-.15-1.07-.3-1.62-.59-.23-.12-.45-.63-.38-.85.09-.25.5-.47.81-.53.32-.06.69.09,1.03.15.51.1,1.01.19,1.51.3.28.06.66.04.82.22,1.21,1.31,2.76,1.94,4.47,2.58-.35.08-.69.17-1.04.24ZM172.4,296.52c-2.1.64-3.44-.61-4.97-1.76.57-.46,1.04-.38,1.48.01.35.32.66.72,1.35.23-.53-.69-1.05-1.37-1.67-2.19,1.04-.56,2.01-1.08,2.8-1.5,1.6,1.19,2.99,2.24,4.46,3.33-.3.39-.5.66-.72.95.22.25.44.51.69.8-.13.15-.23.38-.35.39-.44.03-.89.01-1.34-.03-.58-.06-1.22-.38-1.73-.23ZM179.27,363.58c-.35-.04-.69-.16-1.03-.25-1.19-.29-2.38-.62-3.58-.87-.69-.15-1.27-.32-1.17-1.19.82-.27,1.58-.56,2.37-.78,1.24-.36,3.75.84,4.22,1.99.29.7-.05,1.18-.81,1.11ZM183.54,355.06c-.6.24-1.46.15-2.09-.1-.58-.23-.99-.87-1.5-1.35-.93,0-1.82-.09-2.67.03-.68.09-1.35.39-1.98.68-.47.22-.88.45-1.24-.09-.37-.55.02-1.04.41-1.18.75-.26,1.6-.49,2.36-.4.94.1,1.67.04,2.5-.5.49-.32,1.55-.41,1.96-.09.87.68,1.57.65,2.43.18.17-.09.45-.01.87-.01-.38,1.06.18,2.34-1.06,2.83ZM191.2,390.12c-1.18-1.15-2.41-1.49-3.8-1.62-1.35-.12-1.76-.75-2.03-2.43.48-.17.88-.27,1.25-.44,1.14-.54,2.1-.45,3.05.5.56.56,1.38.88,2.29,1.44-.21.7-.45,1.51-.77,2.55ZM191.73,332.75c1.96-.9,2.69-.87,3.88.24-1.36.02-2.67.82-3.88-.24ZM194.08,323.12c-.38-.11-.62-.15-.83-.24-1.36-.55-1.82-.46-2.81.58-.04.04-.07.1-.11.14-1.48,1.61-2.49,1.51-3.77-.45-.82,0-1.68,0-2.55,0-1.15.01-1.78-.83-1.37-1.88.36-.91.87-1.65,1.99-1.83,1.2-.19,2.36-.95,3.73-.02-.51.55-1.01,1.08-1.51,1.61.92.8,1.79.84,2.33-.11.68-1.18,1.77-1.53,2.89-1.88.4-.12,1.07-.14,1.32.1.89.88,1.7.61,2.57.06.64-.4,1.3-.58,2.03-.23.27.13.55.23.82.34-.09.14-.18.29-.27.43-.87.43-1.83.76-2.6,1.33-.74.55-1.28,1.36-1.88,2.03ZM202.29,347.38c-.98.18-1.99.25-2.96.49-1.04.26-1.69-.1-2.3-1.11,1.88-1.48,4.01-1.46,6.18-1.59.16.66.27,1.16.43,1.83-.5.14-.92.3-1.35.38ZM205.78,294.61c-2.6.23-3.46-.42-2.68-3.22.78-.29,1.37-.36,2.11.47.62.69,1.73.95,2.88,1.53-.33.4-.5.77-.77.88-.48.2-1.02.3-1.54.35ZM208.67,332.26c-.5-.23-1.04-.58-1.33-1.02-.51-.78-.11-1.49.81-1.69,1.68-.35,2.58.16,3.59,2.12-1.05.49-1.99,1.07-3.07.59ZM221.6,320.69c-.63.73-1.77,1.09-1.64,2.35-.9.42-1.77.96-2.71,1.23-.57.17-.89-.38-.97-1.01-.22-1.74-.25-1.75-1.93-1.54-1.23.16-2.46.31-3.59-.25-.29-2.62.74-4.02,2.82-4.36.92.66,1.6,1.17,2.3,1.64.65.44,1.25.29,2,.07.99-.29,2.1-.29,3.14-.21.98.08,1.3,1.25.59,2.07ZM220.04,301.75c-.3-.81-.54-1.58-.87-2.32-.31-.69-.13-1.14.52-1.45.76-.36,1.53-.67,2.38-.31,1.12.49,2.24.99,3.35,1.48-.88,2.08-3.51,3.24-5.38,2.59ZM233.1,293.2c-.26,1.46-1.61,2.32-3.04,1.89-1.02-.31-2.01-.64-2.67-1.63-.3-.46-.9-.73-1.35-1.1-.34-.28-.66-.6-1.19-1.09,1.79-.68,3.19-1.28,4.64-1.73.59-.18,1.3-.15,1.93-.04,1.18.21,1.71.89,1.76,2.11.02.53.01,1.08-.08,1.6ZM231.69,239.92c.18-1.11.95-1.17,1.57-1.42.78-.31,1.54-.64,2.56-1.07.61.51,1.46,1.23,2.48,2.09-2.21-.18-4.3.95-6.61.4ZM238.5,307.05c-.74.13-1.4-.12-1.6-.77-.14-.47,0-1.22.32-1.59.69-.79,1.64-1.13,2.84-.69.51,1.94.08,2.75-1.56,3.04ZM243.06,230.72c-1.23.22-2.34-.19-3.43-.61,0-.12.01-.25.02-.38.87-.27,1.72-.61,2.61-.78.34-.06.81.19,1.11.44.57.45.39,1.21-.31,1.33ZM251.23,279.59c-.65-.12-1.24-.57-1.84-.85.11-.28.12-.41.19-.48q2.2-2.49,5.03-.79c.39.23.83.35.82,1.01,0,.31.49.63.9,1.1-.31.2-.56.5-.78.48-1.44-.11-2.89-.21-4.32-.47ZM259.03,294.38c-1.19.49-2.22-.19-3.18-.7-.3-.16-.37-1.5-.27-1.53.93-.35,1-1.37,1.65-1.92.89-.76,1.32-.84,2.42-.47.99.34.85,1.17,1.01,1.86.02,1.25-.61,2.36-1.63,2.78ZM280.65,128.03c-.74-.89-.05-1.65.09-2.64.59.2.96.33,1.43.49-.53.76-1,1.41-1.52,2.15ZM282.18,130.15c-.09.06-.18.11-.27.17-.1-.05-.2-.11-.3-.16.06-.08.15-.25.18-.24.14.05.26.15.38.23ZM283.14,262.17c-.47-.29-.95-.58-1.72-1.05,1.28-.44,1.76-.13,1.98.66-.09.13-.18.26-.26.39ZM287.9,140.18c.16.45.32.9.47,1.34l-.81-1.16c.11-.06.22-.12.33-.18ZM287.2,146.42c.82.16,1.04.7,1.49,1.51-1.18-.16-1.43-.65-1.49-1.51ZM293.67,200.29c.54.21.86.33,1.18.45-.45.57-.76.33-1.18-.45Z"/>
  <path class="cls-1" d="M11.64,196.44s0,0,.01,0c0,0,0,0,0,0h-.01Z"/>
  <path class="cls-1" d="M223.37,354.96c-.26-.21-.91-.28-1.14-.1-.72.58-1.44,1.23-1.94,1.99-.98,1.5-2.47,1.97-4.05,2.04-1.12.05-2.12.13-2.96.84-.08.54-.16,1.04-.21,1.32-.92.29-1.94.29-2.28.77-1.05,1.5-2.52,1.63-4.08,1.74-.5.03-.99.11-1.87.22,1.45,1.33,3.11.93,4.31,1.68-.1.63-.2,1.25-.3,1.88,1.85.2,2.23-.04,2.54-1.48.13-.58.25-1.17.4-1.74.42-1.69.63-1.78,2.11-.97.25.13.53.21.87.34.16-.52.29-.93.41-1.31.62.29,1.14.52,1.75.8.21-.54.36-.91.54-1.38,1.1.27,1.56-.29,1.71-1.37.17-1.18.75-1.5,1.85-1.05.65.27,1.26.67,1.82,1.11,1.17.93,1.38.92,2.1-.38.23-.42.53-.84.59-1.29.07-.55.12-1.25-.16-1.65-.54-.76-1.27-1.41-2.01-2ZM224.13,358.13c-.63-.14-1.25-.29-1.95-.45.11-.41.19-.68.31-1.12.65.37,1.23.7,1.81,1.03l-.16.54Z"/>
  <path class="cls-1" d="M31.74,105.32c-.62.11-1,.18-1.43.25.33.93.42,1.98,1.64,1.89,1.08-.07,2.29.08,2.79-1.38.46-1.35,1.46-2.12,2.95-2.25.51-.04,1.05-.28,1.48-.56.25-.17.32-.62.46-.94l-.25-.21c-.5.24-.99.49-1.44.71-.52-.32-.96-.6-1.47-.91-.28.46-.52.84-.64,1.05-1.76.07-3.36-.77-4.93.18.32.81.56,1.44.85,2.16Z"/>
  <path class="cls-1" d="M269.42,300.67c-2.3-.33-4.55.76-6.87.17-.49-.12-.86.32-.69,1.01.18.09.38.29.59.29,1.04.03,1.96,1.01,3.19.15.43-.3,1.51.32,2.27.51-.2.19-.45.41-1.02.94,1.24.27,2.09.53,2.96.61,1.03.09,1.7-.67,1.61-1.67-.05-.61-1.41-1.93-2.03-2.02Z"/>
  <path class="cls-1" d="M237.54,341.99l-.1.1c-.57.15-1.3.13-1.68.49-.95.88-1.99.87-3.04.56-.63.74-.35,1.25.29,1.49,1.26.48,2.55.95,3.86,1.25,1.39.32,3.02-.59,3.17-1.6.13-.88-1.12-2.03-2.5-2.29Z"/>
  <path class="cls-1" d="M39.65,96.02c.79-.87,1.62-1.71,2.37-2.61.69-.83,1.87-1.29,2.08-2.61-1.05-.76-2.2-.36-3.26-.22-.67.09-.87.77-.66,1.43.15.49.4.96.65,1.57-2.57.57-3.19,2.45-3.37,4.91,1.51-.3,1.5-1.69,2.19-2.46Z"/>
  <path class="cls-1" d="M279.98,286.12c-1.13.64-2.02.25-3.01-.17-.34-.14-.77-.09-1.28-.14-.04.76-.07,1.37-.11,2.13-1.17-.41-2.24-.78-3.59-1.25.18.57.19.98.34,1.05,1.08.47,2.19.89,3.31,1.27.23.08.58-.05.82-.19,1.32-.76,2.73-.98,4.35-.78.32-1.54-.08-2.33-.84-1.91Z"/>
  <path class="cls-1" d="M279,294.39c-.54,0-.84-.09-1.22-.44-.25-.23-.73-.26-1.11-.28-.82-.04-1.64-.01-2.46-.01-.63,0-1.25,0-1.88,0-.05.17-.1.34-.15.51.87.59,1.71,1.23,2.63,1.74.37.21.96.29,1.36.15.81-.27,1.55-.45,2.4-.09.58.25,1.12.01,1.62-.48-.45-.44-.82-1.11-1.19-1.11Z"/>
  <path class="cls-1" d="M235.63,337.72c.26-.04.61-.44.64-.71.03-.28-.22-.74-.46-.85-.78-.36-1.57-.8-2.52-.34-.73.35-1.52.57-2.26.84,0,.54-.07,1.09.02,1.61.15.93.86,1.53,1.54,1.41.71-.13.91-.65.72-1.81-.01-.08.1-.18.06-.11.83,0,1.56.06,2.27-.03Z"/>
  <path class="cls-1" d="M251.6,326.32c-.65.41-1.3.75-2.1.23-.22-.14-.74.1-1.09.26-.51.23-1.02.51-1.48.84-.3.21-.51.55-.91,1.01,1.82.27,3.37.53,4.94.74,1.02.13,1.76-.9,1.34-1.85-.18-.4-.44-.77-.71-1.23Z"/>
  <path class="cls-1" d="M247.62,322.02c-.13-.03-.31.13-.45.19.01,1.85.03,1.82,2.3,2.66.55.2,1.1.43,1.42-.08.21-.34.04-.92.04-1.65.46-.26,1.1-.66,1.77-.98.59-.28.77-.68.57-1.27-.4.07-.92,0-1.17.24-1.33,1.23-2.85,1.28-4.48.9Z"/>
  <path class="cls-1" d="M253.28,320.88l-.02-.02s0,.01,0,.02c0,0,0,0,.01,0,0,0-.01-.01-.02-.02,0,0,.02.02.02.02Z"/>
  <path class="cls-1" d="M49.46,317.38c-1.26-.2-2.16-.94-3.03-1.77-.21-.2-.62-.2-.94-.29,1.01,2.06,2.18,3.8,4.32,5.12.17-.89.4-1.56.39-2.22,0-.29-.44-.79-.73-.84Z"/>
  <path class="cls-1" d="M108.73,25.43c-.18.32-.42.95-.33,1.02.54.39,1.16.71,1.8.91.12.04.56-.54.65-.89.21-.91.31-1.84.44-2.75-.91-.69-1.74-.84-2.6.12.16.34.32.7.59,1.3-.14.07-.45.13-.55.3Z"/>
  <path class="cls-1" d="M260.26,313.11c-.78.52-1.48.68-2.2-.14-.14-.16-.61-.01-.93-.01.05.32.03.67.17.94.11.22.4.35.68.58-.32.28-.53.47-.75.65.18.14.36.37.55.38.81.03,1.62.03,2.42-.06.49-.05.96-.28,1.5-.45-.25-.83-.45-1.46-.65-2.15-.34.11-.59.14-.78.26Z"/>
  <path class="cls-1" d="M257.21,315.14s0,0,.01-.01c0,0,0,0,0,0v.02Z"/>
  <path class="cls-1" d="M256.03,319.4c-.5.63-1.07.61-1.76.49-.43-.07-.88.03-1.55.07.28.46.42.69.56.92,0,0,0,0,0,0,.26.22.51.46.78.67,1.02.8,3.1.21,3.38-1.03.1-.43-.19-.98-.42-1.4-.04-.08-.82.04-1,.27Z"/>
  <path class="cls-1" d="M265.37,307.06c.14.29.3.6.45.91.42.3.85.6,1.27.91.93-.34,1.59-.83,1.79-1.78-1.67-1.57-1.89-1.57-3.52-.03Z"/>
  <path class="cls-1" d="M242.85,334.1c-.39.6-.8,1.19-1.21,1.78.92.29,2.51.01,4.14-.81-.56-.51-1-1.03-1.56-1.38-.5-.32-1.03-.13-1.38.41Z"/>
  <path class="cls-1" d="M258.37,310.39c.06.38.19.74.3,1.14,1.12-.1.88-.83.87-1.29.77.04,1.54.09,2.32.13.06-.2.12-.4.19-.59-.67-.3-1.32-.66-2.02-.89-1.27-.42-1.87.14-1.66,1.51Z"/>
  <path class="cls-1" d="M11.04,247.47c-.38-.87.86-2.2-.71-2.84-.38,1.13-.72,2.16-1.06,3.2,1.3-.15,2.35,1.26,3.86.57-.29-1.32-1.7-.05-2.09-.93Z"/>
  <path class="cls-1" d="M293.75,181.5v-3.51c-.39.1-.76.19-1.36.33.78.7.65,1.26.25,1.97-.48.86-.17,1.14,1.11,1.21Z"/>
  <path class="cls-1" d="M246.71,325.08c.02-.21-.23-.61-.42-.64-.99-.17-2.03-.73-3.36.53,1.32.26,2.26.48,3.22.61.17.02.54-.31.56-.5Z"/>
  <path class="cls-1" d="M49.97,321.41c1.44.92,2.21.79,2.82-.48-1.55-.62-1.89-.56-2.82.48Z"/>
  <path class="cls-1" d="M49.03,89.46c-.96.63-1.21,1.59-1.22,3,1.01-1,1.78-1.77,2.56-2.53-.34-.46-.75-.85-1.33-.46Z"/>
  <polygon class="cls-1" points="50.37 89.93 50.37 89.91 50.36 89.93 50.37 89.93"/>
  <path class="cls-1" d="M238.52,340.35c-.26-.19-.57-.41-.85-.62-.69.63-1.3,1.19-2.23,2.04.94.15,1.48.23,2.01.32,0,0,.1-.1.1-.1.31-.52.61-1.03.98-1.64Z"/>
  <path class="cls-1" d="M7.71,226.57s-.01,0-.02,0c0,0,0,0,0,.01,0,0,.01,0,.02,0h0Z"/>
  <path class="cls-1" d="M7.05,227.95s.02-.01.02-.01h0c.21-.46.42-.91.63-1.37-1.22.23-2.44.47-3.65.7.35.44.75.62,1.16.68.57.08,1.16.07,1.74.1,0,0,.03-.03.07-.05.02-.02.04-.03.05-.04Z"/>
  <path class="cls-1" d="M253.81,316.03c1.97.45,2.4.32,3.39-.89-1.29-.49-2.24.12-3.39.89Z"/>
  <path class="cls-1" d="M257.21,315.14v-.02s0,.01,0,.02c0,0,0,0,0,0Z"/>
  <path class="cls-1" d="M5.46,231.84c-.42,1.36.04,2.14,1.07,2.88.26-1.23.31-2.19-1.07-2.88Z"/>
  <path class="cls-1" d="M256.96,317.93c1.06-.17,1.92-.31,2.96-.47-1.22-1.16-1.94-1.04-2.96.47Z"/>
  <path class="cls-1" d="M263.74,309.77c.18.29.83.29,1.15.38.38-.9.65-1.53.92-2.17-.49.17-1,.29-1.46.52-.52.25-.94.75-.61,1.27Z"/>
  <path class="cls-1" d="M265.81,307.98s0,0,.01,0h0s0,0,0,0c0,0,0,0,0,.01Z"/>
  <path class="cls-1" d="M25.05,275.62c-.06-.49-.38-.88-1.22-.63.05.66.11,1.36.17,2.15.96-.24,1.13-.86,1.05-1.52Z"/>
  <path class="cls-1" d="M225.56,355.24c.63.42,1.04.7,1.45.98.12-.35.43-.78.32-1.03-.29-.68-.83-.65-1.77.05Z"/>
  <path class="cls-1" d="M6.99,240.17c.63-.51,1.78-.62,1.46-1.96-1.13.23-1.67.8-1.46,1.96Z"/>
  <path class="cls-1" d="M78.4,40.09c-.43-.65-.8-1.21-1.17-1.76h-.39c0,.47-.16,1.02.04,1.38.27.5.83.74,1.52.38Z"/>
  <path class="cls-1" d="M21.6,271.66c.12.71.2,1.37,1.04,1.67.05-1.46.02-1.5-1.04-1.67Z"/>
  <path class="cls-1" d="M222.41,352.38c-.03-.17-.06-.34-.09-.51-.67.1-1.34.21-2.01.31.02.13.04.27.06.4.71.29,1.41.41,2.05-.2Z"/>
  <path class="cls-1" d="M272.57,296.67c-.61.85-1.03,1.44-1.57,2.2,1.27-.23,1.5-.54,1.57-2.2Z"/>
  <path class="cls-1" d="M71.87,342.03s0,.01,0,.02c0,0,0,0,.01,0h-.01s0-.01,0-.01Z"/>
  <path class="cls-1" d="M70.66,343.15c1.41.45,1.41.45,1.21-1.1-.48.28-1.13.37-1.21,1.1Z"/>
  <path class="cls-1" d="M22.66,274.61c-.53-.67-.93-1.18-1.53-1.95-.06,1.32.41,1.77,1.53,1.95Z"/>
  <path class="cls-1" d="M93.83,365.82c.03.16.05.32.08.48.42-.04.84-.09,1.27-.13-.04-.22-.07-.43-.11-.65-.41.1-.83.2-1.24.3Z"/>
  <path class="cls-1" d="M10.32,160q-.67-.7-1.76-.9c.59.78.96,1.2,1.76.9Z"/>
  <path class="cls-1" d="M244.35,336.39c-.53.32-.88.53-1.53.92q1.29.12,1.53-.92Z"/>
  <path class="cls-1" d="M10.48,199.69c.22-.12.42-.34.52-.57.03-.08-.26-.3-.52-.57-.21.34-.41.54-.46.78-.02.09.38.39.46.35Z"/>
  <path class="cls-1" d="M239.62,335.16c.92.37,1.23.15,1.31-.43.01-.08-.12-.18-.27-.38-.28.22-.56.44-1.04.82Z"/>
  <path class="cls-1" d="M9.75,243.5c-.15-.04-.3-.08-.45-.12-.14.46-.27.91-.41,1.37.16.04.31.09.47.13.13-.46.26-.92.38-1.37Z"/>
  <path class="cls-1" d="M29.58,99.91c.45.1.9.19,1.35.29-.33-.76-.79-.77-1.35-.29Z"/>
  <polygon class="cls-1" points="295.21 195.36 295.21 195.36 295.21 195.36 295.21 195.36 295.21 195.36"/>
  <path class="cls-1" d="M295.98,194.87c-.09-.6-.51-.7-1.16-.41.13.31.26.6.39.89.27-.16.79-.36.77-.49Z"/>
  <path class="cls-1" d="M8.35,200.2c.36.31.73.62,1.09.93.06-.8-.47-.92-1.09-.93Z"/>
  <path class="cls-1" d="M28.28,277.41c.47-.68.71-1.01,1.06-1.53-1.04,0-1.18.44-1.06,1.53Z"/>
  <path class="cls-1" d="M37.25,99.86c-.17-.12-.36-.35-.5-.33-.17.03-.38.26-.42.44-.03.13.16.33.34.65.27-.35.42-.56.58-.77Z"/>
  <path class="cls-1" d="M142.13,395.64c.33.12.67.24,1,.36.03-.13.06-.27.09-.4l-1.01-.23c-.03.09-.05.18-.08.27Z"/>
  <path class="cls-1" d="M93.62,363.87c-.14.06-.27.11-.41.17.14.3.28.59.42.89.1-.04.2-.08.3-.12-.1-.31-.21-.62-.31-.93Z"/>
  <path class="cls-1" d="M35.53,89.39c.14-.04.31-.19.34-.32.03-.09-.15-.24-.27-.42-.17.19-.34.31-.36.44-.01.09.22.32.29.3Z"/>
  <path class="cls-1" d="M37.33,105.98l.08-.32c-.29-.08-.59-.15-.88-.23-.03.11-.06.21-.08.32.29.08.59.15.88.23Z"/>
  <path class="cls-1" d="M29.54,111.33c0-.11-.23-.32-.3-.3-.18.05-.33.21-.49.32.09.12.18.24.56.74.11-.34.23-.55.23-.76Z"/>
  <path class="cls-1" d="M234.84,347.06c.05.18.07.39.17.54.03.05.28-.04.49-.08-.09-.21-.1-.42-.21-.49-.1-.06-.29.01-.44.03Z"/>
  <path class="cls-1" d="M244.03,328.94c-.04-.1-.08-.2-.13-.3-.31.13-.62.27-.93.4.04.09.08.18.12.28.31-.12.63-.25.94-.37Z"/>
  <path class="cls-1" d="M239.41,328.3c.17-.22.35-.43.52-.65-.09-.06-.24-.18-.26-.16-.18.18-.35.38-.52.58.08.08.17.15.25.23Z"/>
  <path class="cls-1" d="M240.02,325.28c.05.15.06.38.16.42.17.07.39.02.69.02-.12-.25-.17-.49-.26-.51-.18-.04-.39.04-.59.07Z"/>
  <path class="cls-1" d="M22.19,125.47c.13-.03.23-.19.4-.35-.16-.12-.3-.3-.38-.27-.13.04-.27.2-.29.33-.01.08.2.3.27.28Z"/>
  <path class="cls-1" d="M261.64,308.68c.26.08.53.16.79.24.03-.1.06-.19.08-.29-.27-.08-.53-.15-.8-.23-.03.09-.05.19-.08.28Z"/>
  <path class="cls-1" d="M17.64,173.77c-.13.03-.25.12-.38.19.08.13.15.27.29.5.13-.2.24-.32.26-.45.01-.07-.13-.25-.17-.24Z"/>
  <path class="cls-1" d="M139.89,393.82l.32.28c.1-.13.19-.25.28-.38-.12-.11-.25-.25-.26-.24-.13.1-.23.22-.34.33Z"/>
  <path class="cls-1" d="M11.64,196.42c0-.41,0-.82,0-1.23-.45.47-.63.92,0,1.23Z"/>
  <path class="cls-1" d="M11.64,196.44h.01s0-.02-.01-.02v.02Z"/>
  <path class="cls-1" d="M45.42,97.42c-.24-.05-.48-.09-.72-.14-.01.13-.02.27-.03.4h.71c.01-.09.03-.18.04-.26Z"/>
  <path class="cls-1" d="M109.82,375.83c-.02-.15-.09-.29-.15-.44-.13.06-.25.12-.38.19.07.14.14.27.21.41.14-.07.32-.13.31-.16Z"/>
  <path class="cls-1" d="M277.62,285.08c-.09,0-.17.21-.25.32.13.09.26.18.45.31.09-.18.23-.36.19-.42-.07-.12-.26-.22-.39-.22Z"/>
  <path class="cls-1" d="M228.5,335.27s.11.25.17.25c.14,0,.29-.08.43-.12-.06-.14-.13-.28-.23-.5-.17.16-.31.24-.38.37Z"/>
  <path class="cls-1" d="M0,210.3c.12.09.23.2.36.26.02.01.19-.14.18-.2-.03-.15-.12-.29-.18-.45-.22.25-.29.32-.35.39Z"/>
  <path class="cls-1" d="M23.55,278.25c0-.08-.19-.18-.36-.34-.07.22-.15.36-.14.49,0,.06.2.19.23.17.12-.08.26-.2.27-.32Z"/>
  <path class="cls-1" d="M7.28,211.42c-.13-.1-.25-.21-.38-.31-.14.19-.29.38-.43.58l.34.31c.16-.19.31-.38.47-.57Z"/>
  <path class="cls-1" d="M291.26,183.52s.01.01.01.01c0,0,.02-.02.03-.03-.01,0-.03,0-.04.01Z"/>
  <path class="cls-1" d="M291.88,182.98c-.19.18-.39.35-.58.53.25-.08.49-.16.74-.24-.05-.09-.1-.19-.16-.29Z"/>
  <path class="cls-1" d="M275.94,99.42s0,.19,0,.28c.16-.03.31-.05.49-.08-.07-.13-.11-.26-.17-.28-.1-.02-.24.01-.31.08Z"/>
  <path class="cls-1" d="M264.08,297.63c-.09-.05-.2-.17-.25-.15-.13.06-.23.18-.36.29.14.09.27.21.31.18.12-.08.21-.21.31-.32Z"/>
  <path class="cls-1" d="M281.47,123.05c-.19-.15-.38-.31-.57-.46.11.22.22.45.34.67.08-.07.16-.14.24-.21Z"/>
  <path class="cls-1" d="M280.88,122.55h-.01s.02.03.03.03c0-.01-.01-.02-.02-.03Z"/>
  <path class="cls-1" d="M40.11,99.74c.07.02.18-.08.27-.13-.09-.13-.17-.26-.27-.4-.1.13-.23.23-.22.29.02.1.13.21.22.24Z"/>
  <path class="cls-1" d="M39.52,299.13c.1.1.23.16.35.24.05-.09.1-.18.17-.32-.13-.06-.26-.14-.4-.16-.03,0-.15.22-.13.25Z"/>
  <path class="cls-1" d="M21.67,132.22c-.35.08-.71.15-1.06.23l.11.31c.33-.17.65-.33.98-.5l-.02-.02s0-.01,0-.01Z"/>
  <path class="cls-1" d="M96.31,142.41c-.27.07-.54.14-.81.2.16.16.31.32.47.48.12-.23.23-.45.35-.68Z"/>
  <polygon class="cls-1" points="113.11 241.63 113.1 241.62 113.09 241.62 113.11 241.63"/>
  <path class="cls-1" d="M113.87,239.09c-.27-.21-.51-.46-.76-.69-.46.15-.93.31-1.43.47-.46-1.08.06-1.83.34-2.61.36.71.72,1.42,1.08,2.13.48-.18.64-.53.31-.91-.41-.46-.91-.84-1.37-1.25-.26-.65-.71-1.29-.74-1.95-.08-1.43-.72-2.21-2.11-2.43-.05,0-.06-.17-.1-.27.29-.16.57-.32.88-.49-.51-.88-.98-1.38-2.03-.78-.84.48-1.18.13-1.03-.83.04-.27.14-.54.25-.93h-1.32c-.19-1.25-1.19-1.62-2.38-2.21,0,.56-.11.96.03,1.26.14.3.53.46.79.71,1.52,1.47,1.54,2.14.16,3.66-.03.03.01.11.02.22.13.05.32.21.43.17,1.3-.54,2.18-.19,2.69,1.14.08.21.27.41.46.53,1.02.62,1.38,1.57,1.42,2.71.02.75.09,1.5.16,2.44-1.04.25-2.02.48-2.99.72.67.61,1.39.96,2.15,1.17,1.43.4,1.52.33,2.41-.97.05-.07.22-.05.45-.1.47.51.98,1.07,1.5,1.62.27-.1.57-.15.79-.31,1.13-.85,1.11-1.35-.02-2.21Z"/>
  <polygon class="cls-1" points="113.1 238.39 113.1 238.39 113.1 238.39 113.1 238.39"/>
  <polygon class="cls-1" points="113.1 238.39 113.1 238.4 113.11 238.4 113.11 238.4 113.11 238.4 113.1 238.39"/>
  <path class="cls-1" d="M146.65,130.61c-.03-.05-.07-.1-.09-.15-.49-1.55-2.32-1.55-3.16-2.7-.09-.12-.46-.09-.68-.04-1.34.3-2.12-.3-2.69-1.47-.38-.79-1.02-.97-1.55-.42-1.12,1.15-2.37,2.29-2.23,4.22,1.79-1.19,2.85-.91,3.47.91,2.02.01,3.83.44,5.6,1.18.58.24,1.39.74,1.95-.05.51-.71-.37-.99-.62-1.47Z"/>
  <path class="cls-1" d="M88.54,166.99c-.6,1.26-.95,2.44.05,3.45-.49.34-1.06.54-1.29.93-1.82,3.25-3.62,6.51-5.33,10.3,1.55-.64,2.81-.8,3.53-1.93-.63-1.83-.64-1.84.73-3.06.49-.43,1.05-.79,1.49-1.11-.27-.86-.42-1.36-.62-1.99.86-.47,1.69-.92,2.72-1.49-.62-1.66.21-2.93,1.25-4.11-.63-1.08-1.54-1.08-2.54-1Z"/>
  <path class="cls-1" d="M80.16,185.76c-1.09.98-1.7,2.37-1.5,3.77.15,1.04.71,2,.18,3.09-.04.08.03.24.08.34.35.66.7,1.31,1.18,2.2.44-.28,1.13-.48,1.23-.84.38-1.33.56-2.72.81-4.08-.9-.67.06-1.19.2-1.65-.73-.94-1.39-1.79-2.19-2.82Z"/>
  <path class="cls-1" d="M95.76,227.24c.65-.49,1.27-.97,2.03-1.56-.91-.53-1.53-.69-2.28-.38-.38.16-.98.24-1.29.05-.92-.55-1.57-.21-2.21.43-.06.06,0,.22,0,.49.46-.02.91-.05,1.43-.08.1.49.19.95.28,1.42,0,.13,0,.27,0,.4h0c.51.54,1.02,1.08,1.41,1.5,1.26-.46,2.25-.83,3.26-1.2-.71-.95-2.36.67-2.62-1.07Z"/>
  <path class="cls-1" d="M78.44,185.76c-.43-.69-.68-1.26.12-2.12-1.02.13-1.7.22-2.41.31-.09.89-.17,1.63-.25,2.36-.63-.05-1.15-.09-1.9-.15.55,1.1.95,1.92,1.56,3.15.48-.51.8-.88,1.15-1.2.24-.22.51-.48.81-.55,1.35-.3,1.62-.69.92-1.8Z"/>
  <path class="cls-1" d="M172.68,122.31c.99.01,1.99,0,2.98,0-1.14-1.68-2.26-3.03-4.03-3.57-1.07,1.06-1.12,1.1-.3,2.08.43.51.4,1.47,1.35,1.48Z"/>
  <path class="cls-1" d="M108.58,161.52c-.98.24-1.71.41-2.55.62.28.55.44.86.65,1.25-.49.57-.9,1.05-1.31,1.52-.12-.18-.25-.4-.5-.78-.42.63-.74,1.09-1.2,1.78,1.2.2,2.14.35,3.01.49.57-1.45,1.17-2.99,1.9-4.87Z"/>
  <path class="cls-1" d="M98.49,206.09c-1.56-.46-1.53-1.37-1.2-2.35.19-.55.51-1.05.72-1.6.17-.45.25-.94.39-1.53-.82-.06-1.38-.1-2.21-.16.86,2.05.06,3.82-.24,5.64-.06.39-.14.77-.22,1.21,1.15.28,1.73-.44,2.76-1.21Z"/>
  <path class="cls-1" d="M108.83,152.78c.59.71.72,1.43.81,2.26.07.62.45,1.11,1.33.93.18-.69.37-1.42.56-2.15-.48-.79-.95-1.59-1.49-2.48.5-.19.82-.31,1.14-.43-.03-.1-.06-.21-.09-.31-.75.08-1.49.16-2.24.25l-.1.09c0,.63-.24,1.47.08,1.84Z"/>
  <path class="cls-1" d="M115.12,139.71c.49.3,1.14.49,1.16.74.12,1.18.97,1.3,2.01,1.61.46-1.88-.14-3.38-.88-4.87-.81.89-1.5,1.65-2.29,2.51Z"/>
  <path class="cls-1" d="M151.18,121.96c-1.23-1.48-2.05-1.65-2.96-.6q-1.76-.38-2.47,1.01c1.23,1.24,2.7,0,4.02.33.43.11,1.22.03,1.41-.74Z"/>
  <path class="cls-1" d="M152.2,264.16c.5-1.25,1.39-1.35,2.58-.98.94.29,1.98.32,2.97.4.26.02.55-.21,1.13-.46-2.4-.5-4.43-.93-6.48-1.36q-1.05,1.73-.2,2.4Z"/>
  <path class="cls-1" d="M190.3,129.71c-.34-.82-.61-1.48-.89-2.13-.22-.52-.64-.8-1.12-.49-.26.17-.4.65-.44,1.01-.06.58,0,1.17.02,1.92.75.76,1.54.45,2.43-.31Z"/>
  <path class="cls-1" d="M99.17,197.68c-.36.03-.86.41-.98.75-.24.67-.05,1.27.81,1.45.33.07.63.28,1.35.61.11-.75.3-1.29.25-1.81-.08-.8-.77-1.06-1.43-1Z"/>
  <path class="cls-1" d="M225.4,196.15c-.36-.2-.91-.31-1.29-.18-.51.16-.54.65-.35,1.18.16.46.14.98.23,1.66.71-.2,1.37-.39,2.02-.57,0,0,0,0,0-.01,0,0,0,0,.01,0,.12-.35.24-.7.36-1.05,0,0-.01-.01-.02-.02,0,0,0,0,0,0-.32-.34-.59-.77-.98-.99Z"/>
  <path class="cls-1" d="M113.75,143.71c1.41-.16,2.65-.3,4.02-.45-1.35-1.76-2.72-1.61-4.02.45Z"/>
  <path class="cls-1" d="M183.59,266.25c.48-.42.56-1.02-.18-1.51-.89.32-1.74.72-2.32,1.72.98.53,1.81.39,2.5-.21Z"/>
  <path class="cls-1" d="M82.88,171.65c-.35.58-.71,1.16-1.04,1.69.27.64.51,1.2.79,1.87,1.55-1.13.28-2.38.25-3.57Z"/>
  <path class="cls-1" d="M101.62,166.59c-.57-1.07-1.05-1.97-1.53-2.86-.12.05-.25.1-.37.15.08,1.11,0,2.25.79,3.33.36-.2.66-.36,1.12-.62Z"/>
  <path class="cls-1" d="M186.96,262.43h0s0,0,0-.01c0,0-.01,0-.02,0,0,0,.01.01.01.01h0Z"/>
  <path class="cls-1" d="M189.77,260.19c-1.16.48-2.27.98-2.8,2.22.4-.04.8-.08,1.2-.12,1.28-.12,1.63-.56,1.61-2.1Z"/>
  <path class="cls-1" d="M104.24,175.8v-3.14c-.49.22-.89.4-1.32.6.36.95.68,1.77.99,2.6l.33-.06Z"/>
  <path class="cls-1" d="M211.6,129.05c-.46-.51-.9-1-1.33-1.48-.78.47-1.11.99-.61,1.55.49.56,1.17.8,1.94-.07Z"/>
  <path class="cls-1" d="M103.35,198.01c.25-.46.51-.97-.37-1.39-.47.5-.96,1.02-1.66,1.76,1.06.35,1.65.34,2.04-.36Z"/>
  <path class="cls-1" d="M150.22,278.67c1.2,1.53,2.16,0,3.16.02-1.02-.77-2.01-.53-3.16-.02Z"/>
  <path class="cls-1" d="M154.13,116.53c1.31-.04,1.67-1.02,2.47-1.5q-1.44-.69-2.47,1.5Z"/>
  <path class="cls-1" d="M106.9,160.29c-.06-.38-.46-.71-.71-1.06-.25.28-.68.57-.69.85,0,.38.33.77.67,1.49.39-.65.77-1.01.73-1.29Z"/>
  <path class="cls-1" d="M99.77,174.62c.7-.14,1.09-.22,1.66-.33-.33-.75-.58-1.3-.82-1.85-.11,0-.23.01-.35.02-.15.65-.3,1.31-.5,2.16Z"/>
  <path class="cls-1" d="M133.84,119.56c-.77-.28-1.2-.45-1.64-.58-.15-.05-.33,0-.77,0,.15.61.27,1.1.45,1.86.75-.49,1.24-.81,1.96-1.28Z"/>
  <path class="cls-1" d="M95.89,218.88c.51.12,1.03.31,1.54.32.19,0,.38-.45.73-.91h-2.14c-.04.2-.09.39-.13.59Z"/>
  <path class="cls-1" d="M90.79,151.49c1.78.56,1.97.42,1.93-1.14-.6.35-1.12.66-1.93,1.14Z"/>
  <path class="cls-1" d="M103.43,218.66s0,0-.01,0c0,0,0,0,0,0h.01Z"/>
  <path class="cls-1" d="M101.74,217.8c.43.57.81,1.14,1.67.86-.18-1.74-.31-1.81-1.67-.86Z"/>
  <path class="cls-1" d="M155.15,269.94c.99.65,1.76,1.16,2.53,1.66-.69-1.49-1.18-1.81-2.53-1.66Z"/>
  <path class="cls-1" d="M159.93,122.71c-.2.18-.15.65-.29,1.36.86-.44,1.35-.69,2.03-1.03-.68-.51-1.2-.79-1.74-.33Z"/>
  <path class="cls-1" d="M123.03,144.93c-.69.23-1.25.42-1.8.61q.5.53,1.95.34c-.06-.35-.11-.69-.15-.95Z"/>
  <path class="cls-1" d="M113.63,144.46c.25.67.61,1.01,1.23.7.14-.07.29-.48.21-.6-.34-.56-.81-.6-1.44-.11Z"/>
  <path class="cls-1" d="M90.31,166.52c.46-.48.79-.83,1.13-1.18-.05-.09-.1-.19-.15-.28-.53.07-1.06.13-1.81.23.33.5.54.8.83,1.24Z"/>
  <path class="cls-1" d="M103.16,211.57c.62.45,1.11.8,1.89,1.37q-.65-1.89-1.89-1.37Z"/>
  <path class="cls-1" d="M78.09,199.24c.94.64,1.51.17,2.13-.65-1.07-.52-1.45.53-2.13.65Z"/>
  <path class="cls-1" d="M114.33,243.32c-.5-.69-.86-1.19-1.23-1.69-.25.08-.5.17-.92.31.64.66,1.01,1.31,2.15,1.38Z"/>
  <polygon class="cls-1" points="113.11 241.63 113.09 241.62 113.1 241.63 113.11 241.63"/>
  <path class="cls-1" d="M133.42,125.02c-.31.17-.54.5-.81.76.21.15.48.47.62.42.33-.12.61-.41,1.1-.78-.47-.22-.78-.48-.91-.41Z"/>
  <path class="cls-1" d="M86.73,179.05c.15.65.25,1.13.42,1.88q.81-1.33-.42-1.88Z"/>
  <path class="cls-1" d="M172.41,268.18c.87.5,1.45.41,2.14-.3-.85-.36-1.43-.26-2.14.3Z"/>
  <path class="cls-1" d="M119.14,131.5c.22-.78.4-1.39.57-2-.12-.03-.24-.07-.37-.1q-.8,1.11-.2,2.1Z"/>
  <polygon class="cls-1" points="113.11 238.4 113.1 238.39 113.1 238.39 113.11 238.4"/>
  <path class="cls-1" d="M98.32,212.84c.11.88.41,1.4,1.47,1.84-.24-1.07-.55-1.59-1.47-1.84Z"/>
  <path class="cls-1" d="M107.91,226.54c.66-.44.62-.99,0-1.96-.2.82-.32,1.33-.44,1.83l.44.13Z"/>
  <path class="cls-1" d="M117.07,145.82c.46-.25.78-.42,1.21-.65-.38-.46-.66-.8-1.21-1.46v2.12Z"/>
  <path class="cls-1" d="M167.95,275.34h0s0,0,0,0c0,0,0,0,0-.01h0Z"/>
  <path class="cls-1" d="M168.6,277.3c.15-.31.41-.63.33-.75-.27-.44-.64-.81-.98-1.2.04.65-.25,1.4.64,1.95Z"/>
  <path class="cls-1" d="M142.11,123.89c-.05-.42-.09-.84-.17-1.52-.79.75-1.08,1.19.17,1.52Z"/>
  <path class="cls-1" d="M110.04,251.9c.45-.38.89-.77,1.34-1.15l-.31-.35c-.61.23-1.2.49-1.03,1.5Z"/>
  <path class="cls-1" d="M113.42,248.61c.12.25.41.42.64.62.16-.2.33-.41.57-.71-.3-.21-.55-.5-.71-.46-.21.05-.54.45-.49.55Z"/>
  <path class="cls-1" d="M99.58,168.21c.02-.07-.32-.39-.46-.37-.24.04-.44.26-.67.4.16.21.32.42.57.75.26-.34.46-.54.55-.78Z"/>
  <path class="cls-1" d="M87.21,226.1c.36.39.72.64,1.16.12.08-.1.09-.4,0-.47-.48-.4-.84-.22-1.16.35Z"/>
  <path class="cls-1" d="M133.87,131.46q1.07.14,1.04-.84c-.41.33-.72.58-1.04.84Z"/>
  <path class="cls-1" d="M132.68,133.62c.86.15,1.36.23,1.87.32.03-.15.05-.3.08-.46-.5-.46-1.03-.45-1.95.14Z"/>
  <path class="cls-1" d="M105.94,220.43c-.92.7-.7,1.14,0,1.84v-1.84Z"/>
  <path class="cls-1" d="M159.38,120.95c-.32-.27-.64-.53-.96-.8-.11.13-.22.26-.33.39.31.27.63.55.94.82l.35-.42Z"/>
  <path class="cls-1" d="M79.48,196.23c.56.17.91.27,1.51.46q-.6-.84-1.51-.46Z"/>
  <path class="cls-1" d="M131.59,134.94c.33.27.67.54,1,.8.12-.15.23-.29.35-.44-.36-.24-.71-.49-1.07-.73-.09.12-.18.24-.28.37Z"/>
  <path class="cls-1" d="M108.86,150.85c.12-.35.24-.71.35-1.06l-.22-.18c-.35.27-.71.54-1.26.97.52.19.77.27,1.03.36,0,0,.1-.09.1-.09Z"/>
  <path class="cls-1" d="M103.43,160.64c-.03-.21-.06-.42-.08-.63-.33.04-.67.07-1,.11.03.23.06.45.09.68.33-.05.67-.11,1-.16Z"/>
  <path class="cls-1" d="M129.42,264.53c.48.32.85.57,1.23.81.11-.12.21-.24.32-.36-.35-.26-.7-.54-1.07-.77-.05-.03-.24.15-.48.32Z"/>
  <path class="cls-1" d="M116.41,135.53c-1.08.04-1.02.51-.91,1.47.4-.65.6-.97.91-1.47Z"/>
  <path class="cls-1" d="M101.28,171.44c-.05-.2-.03-.45-.15-.6-.13-.16-.38-.23-.58-.33-.06.07-.12.14-.19.21l.55.88.37-.16Z"/>
  <path class="cls-1" d="M103.43,218.66s-.01,0-.01,0c0,0,0,0,.01,0,0,0,0-.01,0-.02Z"/>
  <path class="cls-1" d="M104.75,219.49c-.56-.35-.94-.58-1.31-.81.06.43.11.86.18,1.41.42-.22.67-.35,1.13-.6Z"/>
  <path class="cls-1" d="M209.53,125.08s0,0,.01,0c0,0,0,0,0-.01,0,0,0,.01,0,.02Z"/>
  <path class="cls-1" d="M209.18,126.59c.15-.65.25-1.08.35-1.51-.79.5-.79.51-.35,1.51Z"/>
  <path class="cls-1" d="M81.19,183.9s.01,0,.02-.01h-.02s0,0,0,.01Z"/>
  <path class="cls-1" d="M80.92,185.36c.12-.66.19-1.06.27-1.46-.8.47-.8.48-.27,1.46Z"/>
  <path class="cls-1" d="M90.31,158.19c-.16-.19-.28-.44-.48-.53-.11-.05-.35.18-.66.36.28.23.43.46.6.47.18,0,.36-.19.54-.29Z"/>
  <path class="cls-1" d="M105.79,225.73c.02-.18.04-.36.07-.55-.36-.04-.73-.07-1.09-.11-.02.14-.04.27-.05.41.36.08.72.17,1.08.25Z"/>
  <path class="cls-1" d="M96.88,147.96c-.02.05.2.21.31.33.18-.19.37-.36.51-.57.03-.04-.17-.23-.35-.47-.2.29-.38.48-.48.71Z"/>
  <path class="cls-1" d="M101.25,214.55c.29-.13.58-.26.87-.4l-.11-.32c-.3.08-.61.17-.91.25.05.15.1.31.16.46Z"/>
  <path class="cls-1" d="M91.44,191.57c-.11.12-.33.31-.31.33.18.26.4.5.6.74.12-.1.24-.21.36-.31-.22-.26-.44-.51-.65-.77Z"/>
  <path class="cls-1" d="M122.44,257.95c.09.17.25.3.44.51.16-.22.35-.43.32-.45-.13-.15-.3-.29-.48-.36-.05-.02-.31.26-.29.31Z"/>
  <path class="cls-1" d="M171.27,269.7c.6.16.94.25,1.62.43-.52-.83-.83-1.08-1.62-.43Z"/>
  <path class="cls-1" d="M168.62,269.09c-.4-.18-.8-.36-1.2-.54-.05.13-.11.27-.16.4.41.16.81.32,1.22.48.05-.11.1-.23.14-.34Z"/>
  <path class="cls-1" d="M100.91,192.49h0s0,0,0,.01c0,0,0,0,.01,0h0Z"/>
  <path class="cls-1" d="M100.91,192.5c-.52.18-.93.42-.32,1.16.11-.39.21-.77.32-1.16Z"/>
  <path class="cls-1" d="M171.21,271.68c-.22-.25-.43-.5-.65-.75-.08.06-.16.12-.24.18.18.27.36.54.55.8.11-.08.23-.16.34-.24Z"/>
  <path class="cls-1" d="M189.24,126.16c.05.03.23-.16.51-.35-.32-.13-.5-.22-.68-.26-.06-.01-.16.12-.24.19.13.15.25.33.41.43Z"/>
  <path class="cls-1" d="M186.94,262.42s0,.01,0,.02c0,0,.01,0,.02-.01h-.01Z"/>
  <path class="cls-1" d="M186.94,262.44c-.34.21-.69.41-1.31.78,1.15.24,1.25-.25,1.31-.78Z"/>
  <path class="cls-1" d="M102.77,166c.74-.58.63-1.03.3-1.5-.31-.08-.63-.16-.94-.24-.03.1-.06.2-.1.3.22.1.45.21.67.31.02.33.04.65.06,1.12Z"/>
  <path class="cls-1" d="M85.59,200.11c0,.1.02.2.02.3h.86c0-.14,0-.27,0-.4l-.88.11Z"/>
  <path class="cls-1" d="M163.44,126.32c-.09-.05-.18-.1-.32-.17-.07.13-.15.25-.19.39,0,.02.22.16.25.13.11-.09.18-.23.27-.35Z"/>
  <path class="cls-1" d="M85.22,201c-.12,0-.24.17-.43.31.18.14.31.32.41.3.13-.02.3-.19.31-.31.01-.09-.19-.3-.3-.3Z"/>
  <path class="cls-1" d="M107.11,149.4c0-.1-.18-.29-.29-.3-.11,0-.23.17-.41.31.17.13.3.3.4.29.12-.01.29-.19.3-.3Z"/>
  <path class="cls-1" d="M148.88,280.6c.1.02.24-.15.46-.3-.26-.11-.4-.21-.55-.22-.07,0-.16.14-.23.21.11.11.21.29.33.31Z"/>
  <path class="cls-1" d="M81.99,183.13c-.81-.18-1,.13-.78.75.26-.25.52-.5.78-.75Z"/>
  <path class="cls-1" d="M81.21,183.89s0-.01,0-.02c0,0,0,0,0,0h.02Z"/>
  <path class="cls-1" d="M92.87,227.31l-.12.33c.32.13.64.25.97.38,0-.13,0-.27,0-.4l-.85-.3Z"/>
  <path class="cls-1" d="M100.7,215.93c-.02.07.21.29.29.27.13-.02.23-.19.41-.36-.17-.12-.32-.28-.4-.25-.13.04-.27.2-.3.34Z"/>
  <polygon class="cls-1" points="167.95 275.33 167.95 275.34 167.95 275.33 167.95 275.33"/>
  <path class="cls-1" d="M167.86,274.45s-.27.06-.27.08c.01.2.03.41.1.6.03.09.17.13.26.2.04-.1.12-.22.1-.31-.03-.2-.11-.39-.19-.57Z"/>
  <path class="cls-1" d="M155.37,111.29c-.22-.08-.44-.16-.66-.24-.03.07-.06.15-.1.22.19.11.38.23.56.34.06-.11.13-.21.19-.32Z"/>
  <path class="cls-1" d="M100.93,192.47s-.01,0-.02.01h0s0,0,.01-.01Z"/>
  <path class="cls-1" d="M101.25,191.89c-.11.19-.22.39-.32.58.2-.13.39-.25.59-.38-.09-.07-.18-.14-.27-.2Z"/>
  <path class="cls-1" d="M87.59,222.21c.14-.03.25-.14.38-.22-.1-.11-.2-.21-.35-.37-.13.18-.21.31-.29.43.09.06.19.18.26.16Z"/>
  <path class="cls-1" d="M99.22,138.76c.12.08.23.18.36.23.05.01.14-.12.26-.24-.15-.08-.28-.17-.41-.19-.06,0-.14.13-.21.2Z"/>
  <path class="cls-1" d="M104.17,136.76c.04.12.08.25.11.37.09-.04.17-.08.26-.13-.03-.09-.03-.23-.1-.27-.06-.04-.18.01-.28.03Z"/>
  <path class="cls-1" d="M89.46,160.72s-.2-.2-.22-.19c-.12.09-.21.21-.31.33.13.11.21.18.29.25.09-.13.19-.25.24-.39Z"/>
  <path class="cls-1" d="M80.84,177.36c-.07-.13-.12-.28-.21-.39-.03-.03-.28.07-.27.1.01.14.07.28.12.42.16-.06.26-.1.37-.14Z"/>
  <path class="cls-1" d="M163.26,259.2c-.17-.17-.33-.34-.5-.5-.07.07-.14.14-.2.21.17.16.34.33.51.49.06-.06.13-.13.19-.19Z"/>
  <path class="cls-1" d="M28.78,205.16c-2.26.34-1.1,2.35-2.12,3.56.9.05,1.47.15,2.03.1.5-.04.67-.43.52-.92h0s0,0,.01,0c-.14-.89-.29-1.78-.45-2.75Z"/>
  <path class="cls-1" d="M30.57,197.52c-.54.11-.95.43-.78.97.12.39.58,1,.83.97.6-.06,1.26-.34,1.72-.73.48-.41.55-1.04-.1-1.6-.53.12-1.1.26-1.67.39Z"/>
  <path class="cls-1" d="M29.22,207.91c.48.06.95.12,1.43.17.04-.09.09-.18.13-.28-.39-.35-.79-.7-1.38-1.23-.09.65-.14.99-.18,1.33Z"/>
  <polygon class="cls-1" points="29.22 207.92 29.22 207.91 29.22 207.91 29.22 207.92"/>
  <polygon class="cls-1" points="29.21 207.91 29.22 207.92 29.21 207.91 29.21 207.91"/>
  <path class="cls-1" d="M29.38,204.16c0-.12-.21-.31-.33-.32-.11,0-.31.19-.32.31,0,.12.17.25.32.43.15-.18.34-.31.33-.43Z"/>
  <path class="cls-1" d="M24.1,212c.26.1.52.21.78.31.04-.1.08-.2.12-.3-.26-.11-.52-.21-.77-.32-.04.1-.08.2-.12.3Z"/>
  <path class="cls-1" d="M34.16,208.61c.11.08.22.16.33.24.05-.09.09-.19.14-.28-.08-.06-.17-.18-.25-.17-.08,0-.15.13-.22.21Z"/>
  <path class="cls-1" d="M145.42,102.99c-.35-.1-.7-.2-1.05-.3-.04.19-.08.38-.12.57.36.05.72.1,1.08.16.03-.14.06-.28.09-.42Z"/>
  <path class="cls-1" d="M102.13,46.35c.16-.1.32-.24.39-.41.03-.06-.18-.22-.38-.44-.14.23-.3.39-.32.56-.01.09.27.32.31.3Z"/>
  <path class="cls-1" d="M61.45,283.46c-.62-.12-1.66.58-1.59,1.08.04.28.33.67.58.74.54.16,1.45-.65,1.54-1.41-.13-.11-.31-.38-.53-.42Z"/>
  <path class="cls-1" d="M157.88,300.69c-.03.07.04.19.06.29.13-.06.25-.11.38-.17-.06-.08-.11-.17-.17-.25-.09.04-.24.05-.27.12Z"/>
</svg>