<?xml version="1.0" encoding="UTF-8"?>
<svg id="Layer_1" data-name="Layer 1" xmlns="http://www.w3.org/2000/svg" viewBox="0 0 534.36 500">
  <defs>
    <style>
      .cls-1 {
        fill: #488cca;
        stroke-width: 0px;
      }
    </style>
  </defs>
  <path class="cls-1" d="M8.34,143.54c-.37-2.35-.4-4.83-1.2-7.02-1.04-2.84-.7-5.04,1.12-7.43.65-.85.14-2.58.15-3.91,0-1.17-.52-2.91.06-3.43,4.24-3.85,1.6-7.37-.2-10.99-.39-.79-.71-1.62-.3-3.19,2.55,2.3,5.1,4.6,8.01,7.23,1.34-4.44,1.52-8.86,3.8-11.38,1.94-2.15,6.3-2.12,9.83-3.12-1.95-1.37-3.8-2.66-5.82-4.08.8-1.79,1.55-3.47,2.33-5.2.91.4,1.7.75,2.33,1.03.36-2.94.69-5.67.9-7.37-3.56-2.73-6.55-5.02-9.61-7.36.26-1.45.51-2.8.86-4.7.86,1.07,1.49,1.86,2.16,2.64,1.84,1.77,3.65,3.55,5.46,5.34.43-.14.85-.27,1.28-.41-.94-2.49-1.88-4.97-2.87-7.59-1.53,1.06-2.75,1.9-3.97,2.74.81-2.03,1.62-4.07,2.62-6.59-3.47-1.94-3.74-4.89-1.62-8.89.54-1.03-1.44-3.66-2.66-5.26-.72-.94-2.21-1.3-4.37-2.46,1.9-.53,2.62-.98,3.24-.87,7.33,1.31,10.43-.49,10.18-7.81-.16-4.93,1.6-5.41,4.85-4.88,1.36-1.4,2.44-2.52,3.52-3.64,1.31,1.7,2.62,3.4,4.06,5.27,4.44-5.03,9.14-10.36,14.07-15.95,3.12.93,3.12,1.11-1.53,8.78,2.49-.25,5.62.02,5.87-.7.72-2.07.51-4.58.18-6.85-.18-1.23-1.35-2.31-2.08-3.46-.64-.99-1.29-1.97-1.4-2.14,2.52-1.56,4.4-3.39,6.59-3.91,2.54-.61,5.35-.11,8.04-.03,1.61.04,3.23.18,4.84.28.09-.48.17-.97.26-1.45-1.14-1.31-2.28-2.63-3.48-4.01,3.13-.34,5.76-.63,8.18-.89.36,1.95.79,4.31,1.23,6.66.19-.05.37-.11.56-.16.4-2.46.8-4.92,1.2-7.38.88-.35,1.77-.71,2.65-1.06.75,1.35,1.49,2.7,2.25,4.04.54.96,1.12,1.89,1.68,2.84.36-1.08.72-2.15,1.16-3.46,2.35,1.02,4.72,2.05,7.83,3.4-1.1-2.74-1.92-4.78-3.07-7.65,2.92.97,5.05,1.67,7.34,2.43-.4,1.27-.95,2.43-1.05,3.64-.04.51.8,1.5,1.34,1.58.83.11,2.06-.1,2.55-.67.58-.68.74-1.88.73-2.85-.02-1.41-.37-2.82-.58-4.23,1.46.11,2.92.24,4.38.34,3.16.22,6.36.18,9.45.73,1.94.34,3.83,1.38,5.53,2.46,1.14.72,1.89,2.06,2.81,3.12.91-.82,2.51-1.61,2.57-2.48.07-1.25-.99-2.56-1.57-3.84-.18-.4-.33-.82-.95-2.35,1.85.66,2.89.93,3.83,1.39,2.18,1.08,3.86,2.19,6.81.69,2.1-1.07,5.49.66,8.32.7,5.49.07,10.98-.2,16.47-.25,2-.02,4.06-.06,5.99.38,3.29.76,6.14,1.49,9.1-1.45,3.04-3.02,7.77-1.77,10.1,1.79,1.78-.89,3.46-2.4,5.22-2.49,5.38-.27,10.86-1.9,16.13,1.25,1.35.81,3.8.3,5.56-.23,4.49-1.35,7.29,1.18,10.18,3.79.28.25.9.13,1.86.24-.3-1.38-.55-2.55-.84-3.88,9.29-.4,18.4-.96,27.52-1.05,2.12-.02,4.25,1.58,6.76,2.58.54-.87,1.27-2.04,2.26-3.63,5.06,5.21,10.3-.04,15.63.19,6.02.26,12.13.32,18.08-.46,2.61-.34,4.91-2.97,7.35-4.56.32,0,.64,0,.96,0,.3.88.6,1.75.54,1.58,4.64.27,8.89,1.36,12.7.5,3.92-.88,6.33-.85,7.97,3.06.58,1.38,1.55,2.59,2.67,4.41,1.11-1.57,1.77-2.49,2.63-3.71,3.14,2.99,6.27,3.83,9.55.46.37-.38,1.73.09,2.6.3,2.64.64,5.06,2.21,7.99-.14.66-.53,3.86,2.11,6.41,3.59,4.53-.71,10.06-1.58,15.97-2.51-4.4-4.09-8.92-1.38-13.85-.59,5.18-5.23,9.1-5.52,14-2.11.95.66,3.35.54,4.19-.21,2.57-2.31,4.66-2.38,7.6-.51,3.26,2.08,6.93,3.96,10.79.77.39-.32,1.48-.43,1.78-.15,5.27,5,12.32.16,18.25,3.49,2.79,1.57,7.39-.07,11.22-.26,1.21-.77,2.77-2.52,4.48-2.69,4.85-.48,9.62-3.24,14.64-.84,1.11.53,2.29.93,3.38,1.48,1.87.94,3.7,1.97,5.56,2.92.69.35,1.55.44,2.17.88,3.92,2.79,7.71,5.78,11.73,8.42,2.28,1.49,4.91,2.44,8.03,3.94v-7.19c3.35,2.73,2.24,9.38,9.78,7.63-1.63,4.1-4.11,7.98-4.56,12.1-.45,4.07,1.14,8.36,1.85,12.62,5.36-1.77,5.09-1.58,2.18-5.85-.93-1.36,0-3.99.08-6.04,1.3.52,3.06.67,3.81,1.62,2.61,3.32,7.55,6.25,1.63,11.35-1.37,1.18-.2,5.31-.2,8.09.47-.27.94-.55,1.41-.82,1.5,1.32,2.88,2.84,4.54,3.91,1.25.8,2.87,1.03,4.33,1.51.24-1.25.48-2.49.88-4.56.84,1.29,1.62,2.51,2.55,3.94.68-.08,1.9-.23,3.54-.42-.11,1.54-.2,2.8-.35,4.94,3.98-.55,7.51-1.03,12.29-1.69,3.01,6.78,6.47,14.57,10.29,23.17-3.8,1.23-7.73,2.5-12.19,3.95.5.4,1.36,1.29,2.41,1.86,1.39.75,2.92,1.25,4.38,1.86-.89,1.92-1.63,3.93-2.7,5.74-1.05,1.78-2.43,3.37-3.14,5.48-3.11.93-5.86,2.06-5.22,6.61.12.83-1.6,2.76-2.44,2.75-6.47-.11-6.68,6.51-10.24,9.47-.34.29,1.41,3.1,2.5,5.37-.96.26-2.79,2.65-4.41-1.49-1.33-3.4-4.79-3.68-7.6-1.07-.6.56-1.92.48-2.9.49-5.18.02-10.36-.08-15.53.03-.74.02-1.43,1.03-2.18,1.53-.98.65-2,1.25-3.61,1.03,1.08-1.59,2.16-3.18,3.23-4.77-.41-.39-.82-.79-1.22-1.18-3.82,2.49-7.64,4.98-11.72,7.63-.99-1.88-1.62-3.09-2.28-4.35-4.79,3.95-7.72,3.49-9.59-1.76-3.19,1.59-6.34,3.16-9.43,4.7-3.35-3.95-12.62-6.41-15.92-4.21.66.83,1.31,1.64,2.57,3.21-2.74-.17-4.82-.29-7.13-.43.75-1.24,1.44-2.39,2.57-4.27-4.83-.34-6.91,2.22-8.67,4.97-3.87-.7-7.66-1.38-10.44-1.88-2.49,1.33-4.3,2.3-6.11,3.28.24-1.84.48-3.68.8-6.06-2.81-.96-5.88-1.67-8.23,1.41-1.27-1.01-2.97-2.41-4.74-3.71-.37-.27-1.08-.42-1.47-.25-.46.2-1.12.94-1.03,1.22,1.48,4.54-1.87,3.88-4.23,3.75-3.77-.2-6.59.73-7.49,5.57-1.49-1.06-2.51-1.8-3.35-2.4,1.01-1.48,1.73-2.54,2.46-3.6-1.19-.45-2.35-.99-3.57-1.31-1.62-.42-3.29-.93-4.94-.92-2.87.01-5.57-1.04-8.71.51-3.14,1.55-7.14,1.43-10.78,1.88-1.76.21-3.57.04-5.92.04-.78-.89-2.03-2.3-3.18-3.61-3.61,1.64-5.1,6.64-10.22,6.85-.15.43-.22,1.64-.87,2.32-4.2,4.38-3.14,8.73-.33,13.28,1.4,2.27-.79,4.79-4.85,5.02.62,2.02,1.73,3.92,1.63,5.76-.09,1.71-1.47,3.35-2.28,5.02-.56-.56-1.13-1.11-1.69-1.67,2.45,4.07,5.02,8.07,7.32,12.22,1.79,3.22,1.12,5.85-2.01,8.24-2.15,1.64-3.63,4.16-4.8,5.57-.35,3.35-.82,6.03-.83,8.71-.01,1.78.19,3.9,1.17,5.22.5.67,2.93-.1,4.86-.24.03,2.62,1.71,6.03-2.87,7.76-.57.22-.96,2.16-.69,3.08.48,1.64,1.75,3.04,2.29,4.68.6,1.8,1.56,4.15.88,5.52-.72,1.45-3.19,2.03-4.52,2.78,5.57,3.13,7.97,22.65,1.77,31.12,2.41.94,4.89,1.74,7.17,2.92.44.23.51,2.61.08,2.87-4.31,2.6-4.57,3.17-2.64,8.49,1.1-.83,2.1-1.59,4.22-3.19.22,7.5.35,14.17.65,20.85.11,2.42.62,4.81,1.03,7.82,2.26-1.11,3.6-1.77,4.94-2.42.25.3.49.6.74.9-1.3,1.13-2.6,2.25-4.14,3.58.55,3.43,8.37.64,6.45,6.34-.94,2.8,1.43,7.41-4.22,8.02,1.47,3.56.06,8.26,5.63,9.51,1.1.25,1.52,3.26,2.39,4.93.82,1.57,1.94,2.99,2.71,4.58.47.98.81,2.2.68,3.25-.39,3.11-1.32,6.16-1.54,9.27-.36,4.99-.47,10.02-.33,15.02.03,1.22,1.41,2.41,2.16,3.62,1.02-.84,2.03-1.68,2.49-2.07,1.22,3.82,2.72,8.41,4.13,13.02.24.79.38,1.73.19,2.51-.85,3.41.36,3.86,3.5,3.15,1.32-.3,3.01,1.05,4.53,1.66-.87,1.34-1.66,2.73-2.63,4-.58.77-1.76,1.21-2.08,2.03-1.17,2.97-2.41,5.97-2.98,9.08-.31,1.68.34,3.78,1.18,5.36,1.4,2.64,3.37,5.01-.95,7.16-.52-1.05-1-2.04-1.63-3.32-1.96,2.09-3.62,3.87-5.28,5.65.3.12.59.24.89.37-.49,1.48-.61,3.3-1.56,4.38-2.39,2.71-5.21,5.04-7.71,7.66-.51.53-.79,1.81-.51,2.45,1.51,3.47-.97,4.72-3.24,6.59-1.05-3-1.98-5.67-2.94-8.42-2.21,1.04-3.83,1.64-5.27,2.54-.69.43-1.56,1.51-1.46,2.14.5,3.01,1.52,5.94,1.92,8.96.27,2.09-.17,4.28-.29,6.41,2.34-.13,4.82,2.93,3.78,5.6-1.07,2.74-2.55,5.44-4.39,7.73-3.24,4.04-3.41,3.9-1.78,7.64-1.38,5.56-2.53,10.18-3.67,14.8-.48.18-.96.37-1.43.55-1.36-2.19-2.73-4.39-4.36-7.01-.64,3.92-1.25,7.63-1.88,11.48h-5.39c.81,1.64,1.43,2.9,2.33,4.71-2.15-.77-4.41-.89-5.49-2.08-4.23-4.66-5.13-1.28-6.51,2.2-1.62,4.08-4.66,4.63-6.7,2.77.86-3.63,1.53-6.48,2.2-9.33-.51-.31-1.02-.61-1.53-.92-1.41,1.06-2.79,2.16-4.23,3.17-1.62,1.14-3.4,2.08-4.93,3.33-1.29,1.06-2.1,2.83-3.5,3.62-2.83,1.6-5.88,2.6-6.73-2.25-4.53,1.9-8.63,3.25-9.61,8.76-.23,1.29-3.97,1.96-6.09,2.91-.16-.41-.32-.83-.48-1.24,1.94-2.27,3.87-4.54,5.81-6.81-.38-.38-.77-.76-1.15-1.14-.87.76-1.74,1.52-2.51,2.18-1.41-1.42-2.83-2.85-4.24-4.28-1.19,2.68-2.38,5.37-3.38,7.61-.75-1.07-1.96-2.8-3.17-4.53-.41.41-.83.82-1.24,1.23.19-1.24.31-2.49.59-3.71.3-1.31.75-2.6,1.13-3.89-1.05-.05-2.5-.56-3.08-.07-1.28,1.09-2.5,2.57-3.02,4.13-.34,1.01.59,2.45,1.11,4.26-2.05,2.28-4.24,5.36-9.63,3.31,1.77-1.56,2.78-2.44,4.19-3.68-1.79-2.35-3.43-4.51-5.37-7.06-1.47,1.96-2.52,3.36-2.87,3.83-3.64-3.63-7.04-7.01-10.44-10.39.14-.27.27-.54.41-.81,3.15,1.5,6.31,3.01,10.64,5.07-.98-2.23-1.21-4.1-2.25-4.85-2.39-1.72-5.45-2.56-7.68-4.43-.94-.79-1.26-3.86-.51-4.84,2.31-2.98,2.47-6.01,1.29-9.2-.44-1.19-1.79-2.04-2.73-3.04-.45,1.24-1.45,2.57-1.25,3.69.6,3.37.25,5.75-4.2,6.43.8-3.39,1.47-6.21,2.32-9.78-1.56.4-1.78.45-2,.51-1.99.57-5.47,2-5.73,1.57-2.08-3.58,2.62-3.27,3.64-5.36.72-1.48,2.48-2.45,4.77-4.57h-4.43c-.13-.47-.26-.94-.39-1.4,1.37-.41,2.74-.82,5.37-1.6,3.15-3.5,2.84-8.72-2.32-12.12,5.44-2.23,5.72-6.77,6.01-11.6.24-3.96,1.17-7.92,2.16-11.78.27-1.06,1.76-2.02,2.9-2.58,1.35-.66,2.94-.84,3.7-1.04v-10.49c-1.22.61-2.48,1.31-3.8,1.87-1.02.43-2.12.69-3.19,1.03.36-.81.95-1.6,1.04-2.44.37-3.37,5.15-6.1,1.31-10.23-.64-.69.56-3.09,1.01-5.17,1.68.78,2.76,1.29,3.88,1.81.34-.52,1.08-1.42.98-1.53-2.36-2.47-1.09-5.59-1.64-8.04-1.13-5.1-1.61-9.73-.37-14.73.2-.79-.91-1.92-1.44-2.88-1.26-2.27-2.28-4.33-.32-6.99.65-.88-.59-3.05-.78-4.65-.66-5.58-1.34-11.17-1.75-16.77-.07-.89,1.18-1.88,2.05-3.17-1.6-2.4-3.13-5.18.64-7.72.49-.33.48-2.5-.07-3.09-4.02-4.29-3.78-8.86-1.34-13.4-2.73-3.77-5.32-7.35-8.19-11.32,2.28-.89,4.04-1.57,6.9-2.68-5.87-1.73-5.19-4.73-3.79-8.56,1.15-3.15,1.13-6.73,1.64-10.19-3.38.2-6.13.36-8.88.53-.17-.3-.34-.59-.51-.89,1.88-1.29,3.76-2.57,5.64-3.86-.4-.16-.79-.33-1.19-.49.99-2.82,1.98-5.63,2.61-7.43-1.49-2.78-2.87-5.03-3.8-7.44-.13-.33,2.01-1.53,2.9-2.17-2.08-.84-4.44-1.79-6.8-2.74,3.45-1.02,2.92-7.88,8.03-5.06.58-2.54,1.16-5.06,1.85-8.07-1.75-.09-3.06-.15-2.96-.15-1.56,2.5-2.19,4.71-3.61,5.51-1.88,1.06-4.39,1-6.62,1.43-.23-1.25-1.09-2.89-.59-3.69,1.58-2.52,3.67-4.72,6.31-7.96-2.67-.65-4.6-1.12-7.17-1.74-.33-2.39-.73-5.3-1.32-9.6,2.46.83,5.12.93,6.19,2.28,1.76,2.22,2.48,5.26,3.66,7.99.69-1.13,1.97-3.23,3.38-5.55-3.7-3.15-6.48-6.6-4.31-11.78q-3.33.5-3.87,5.17c-3.94.47-6.1-2.84-4.23-7.9-2.01.76-3.42,1.29-4.74,1.79-.41-4.46,1.61-5.21,7.94-2.43,1.36-2.79.75-4.2-2.49-4.84-5.36-1.06-3.85-5.38-2.97-8.42.74-2.54,2-6.26,6.49-3.99,1.25.63,2.97.31,4.47.43.1-.66.2-1.31.3-1.97-2.56-.45-5.13-.87-7.69-1.36-1.3-.25-3.32-.21-3.74-.99-1.07-1.99.27-2.46,2.26-2.76.77-.12,1.91-2.7,1.6-3.79-.34-1.18-2.14-1.98-3.37-2.84-1.16-.81-2.44-1.46-3.63-2.22-.23-.15-.29-.75-.48-.78-6.59-1.02-5.57-6.55-6.57-10.91-.15-.66-.89-1.19-.79-1.06.72-2.45,1.21-4.14,1.71-5.84-2.11-.21-5.32-1.41-6.16-.48-5.55,6.16-10.47,3.69-15.63-.49-3.03,2.89-6.11,3.85-10.62,2.52-3.48-1.03-7.69.41-11.58.75-.03.45-.05.9-.08,1.35.88.77,1.76,1.54,2.66,2.33-.63.71-1.44,1.62-2.36,2.66-1.57-.73-3.12-1.45-4.74-2.21.18-1.31.78-2.85.44-4.16-.24-.96-1.7-1.62-2.61-2.41-.16,1.2-3,.2-1.94,3.18.56,1.57-2.9,4.57-5.21,7.89-.78-2.71-1.18-4.11-1.85-6.44-1.84,1.51-3.25,3.06-4.99,3.97-1.52.8-3.41.93-5.16,1.27-2.4.46-4.84.73-7.23,1.26-2.36.53-4.66,1.28-7.2,1.32-4.07,4.35-4.71,4.5-9.53,1.54-1.75,1.5-3.47,2.97-5.14,4.4-2.59-1.36-5.01-2.64-7.78-4.09-1.03,3.26-2.41,5.94-5.25.51-1.92,2.28-3.48,4.15-5.27,6.28-4.16-4.15-8.92-1.44-13.6-1.12-2.48.17-5.01-.47-7.9-.78.2-.9.38-1.72.57-2.53,1.27.28,2.73.26,3.77.91,3.35,2.08,4.53,1.56,5.24-2.8-3.65-.19-7.31-.23-10.92-.68-.96-.12-2.37-2.25-2.56-2.1-1.51,1.14-2.78,2.6-3.89,4.3-1.93-.98-4.21-1.48-5.29,2.89-1.77-1.49-3.06-2.57-3.86-3.25,2.04-1.55,3.58-2.72,5.12-3.89-.97-1.09-2.33-3.25-2.83-3.07-2.13.78-4.25,1.99-5.86,3.57-.99.97-1.06,2.88-2.08,6.06-2.13-2.53-3.81-4-4.81-5.85-.99-1.84-1.29-4.05-2.89-5.93-.11,2.38-.22,4.77-.29,6.46-5.24-1.69-9.93-3.21-14.63-4.73-.08-.67-.17-1.34-.25-2.01,6.52,2.62,9.61-.78,12.91-5.95-7.26,1.09-13.55,2.04-19.7,2.96,2.89-4.63,5.32-8.51,7.74-12.39.18,2.51-1.51,5.87,2.91,6.49,2.42-4.35,2-5.62-2.32-7.08ZM192.32,150.76c2.09,2.35,3.58,4.84,5.77,6.23,1.61,1.02,4.21,2.79,6.23-.19.8-1.18,1.95-2.12,3.99-4.28-3.79.35-6.31.59-9.01.84-.67-.93-1.59-2.2-2.57-3.56-1.61.35-3.1.67-4.41.95ZM253.86,484.17c.37.8.74,3.19,2.09,4.08,1.65,1.08,4.11.96,6.24,1.22.35.04.79-.68,1.19-1.05-1.24-.8-2.49-1.59-3.7-2.44-.21-.15-.22-.57-.32-.86,1.48-1.89,2.92-3.75,4.37-5.6-.25-.18-.51-.35-.76-.53-3.59,2.04-7.17,4.08-9.11,5.18ZM311.53,178.49c.49-.04.99-.09,1.48-.13,1.56-2.15,3.52-4.12,4.53-6.5.57-1.34-.44-3.34-.74-5.05-1.38.69-3.7,1.11-3.97,2.1-.85,3.08-.92,6.37-1.3,9.57ZM11.36,125.93c6.47-3.09,7.62-5.51,5.25-10.22-1.39.48-2.73.93-3.52,1.2-.62,3.22-1.14,5.94-1.73,9.02ZM216,449.13c1.84,3.71,3.13,6.3,4.41,8.89.31-.21.61-.43.92-.64.43-2.8.86-5.61,1.43-9.29-1.47.23-3.51.54-6.76,1.04ZM21.16,110.94c.57.32,1.14.63,1.71.95.9-1.92,2.33-3.8,2.49-5.78.1-1.14-1.85-2.45-2.88-3.69l-.96.68c-.12,2.62-.24,5.23-.36,7.85ZM347,388.04c-.57-.39-1.14-.78-1.71-1.16-1.38,2.2-2.77,4.4-4.42,7.04,6.81,1.33,4.45-3.87,6.13-5.87Z"/>
  <path class="cls-1" d="M13.62,67.1c1.23-2.47,2.45-4.93,4.31-8.66.99,2.3,2.42,4.35,2,4.87-1.54,1.87-3.71,3.23-5.65,4.78-.22-.33-.44-.66-.66-.98Z"/>
</svg>