<?xml version="1.0" encoding="UTF-8"?>
<svg id="Layer_1" data-name="Layer 1" xmlns="http://www.w3.org/2000/svg" viewBox="0 0 262.5 396">
  <defs>
    <style>
      .cls-1 {
        fill: #488cca;
        stroke-width: 0px;
      }
    </style>
  </defs>
  <path class="cls-1" d="M254.61,41.87c-.57-.02-1.53-.64-1.6-1.07-.2-1.26-.54-2.56.71-3.53.08-.06.17-.11.22-.19.53-.8.46-1.65.21-2.53-.23-.81-.86-.59-1.42-.69-1.21-.22-1.43-1.01-.67-2.01.46-.61,1-.87,1.81-.65.21-.88.4-1.66.61-2.51-.55-.11-1.01-.2-1.5-.29-.1-.66.05-1.52-1.04-1.38-.09.2-.15.4-.26.55-.57.78-.85,1.5.03,2.3.41.37.32.9-.05,1.33-.23.26-.52.46-.72.74-.62.89-1.56,1.66-1.21,2.98.78.12,1.53.24,2.24.35-.04.83-.09,1.62-.13,2.48-.58-.08-1.04-.14-1.46-.2-.49.64-.92,1.2-1.43,1.87,1.06.26,1.87-.86,2.88-.29-1.64,1.12-3.22,1.38-4.42.83-.05-.75-.16-1.47-.12-2.17.04-.76.22-1.51.36-2.42-1.45.22-2.82.15-4.13-.96.58-.08.98-.13,1.41-.18v-1.74c-1.45,0-2.28-.81-2.8-2.02-.02-.04-.06-.08-.1-.11-.49-.42-.57-.86-.14-1.4.64-.81,1.18-1.09,1.85-.88.7.22.89.6.67,1.33-.14.47-.28.93-.37,1.41-.08.46.13.77.61.83.91.12,2.36-.76,2.9-1.8-.48.07-.91.13-1.39.19.02-.55.65-.93.07-1.42-.16-.13-.11-.54-.13-.82-.09-1.08.63-1.73,1.38-2.35-1.7-1.19-3.32-.87-4.25.76-.17.3-.32.62-.55.86-.48.48-1.02.85-2.04.38.71-.48,1.23-.83,2.03-1.38-.78,0-1.21.05-1.62-.01-.76-.11-1.38-.79-1.31-1.35.08-.67.77-1.22,1.56-1.24,2.66-.08,2.95-.39,2.84-3.01,0-.08-.11-.15-.18-.24-.69.1-1.39.2-1.75.25-.97-.97-1.7-1.7-2.47-2.47.08-.24.2-.59.32-.97-.4-.23-.73-.41-1.06-.6.08-.34.15-.65.23-.96-.37-.08-.64-.14-.91-.19.41-2.1.38-2.26-.45-3.31.19-.12.39-.24.72-.45-1.01-1.05-.75-2.56-1.38-3.78.19-.08.53-.22,1-.41-.61-1.18-.83-2.35-.07-3.55-.3-.17-.55-.31-.8-.45.44-.41.71-.66,1.08-1.01-1.07-.56-2.05-.99-2.94-1.56-1.1-.7-2.24-.91-3.5-.64-2.05.43-4.08.93-6.15,1.18-1.59.2-3.02.7-4.44,1.37-.52.25-1.17.25-1.81.37-.06.29-.15.74-.27,1.37-.4-.35-.63-.55-.67-.58-2.31.77-4.41.87-6.5-.13-.23.51-.43.92-.73,1.58-.65-1.4-1.64-1.26-2.6-.91-.67.24-1.34.58-1.9,1.03-.56.45-1.1.8-1.83.77.18-.76-.11-1.12-.9-1.08-2.09.1-4,.65-5.56,2.21-1.19-.61-2.39-.93-3.68-.6-.46.12-.92.25-1.39.35-1.05.23-2.02,1.12-3.2.44-.07-.04-.24-.05-.28,0-.61.76-1.32.07-1.96.06-.53.77.17,1.96-1.04,2.56-.03-.35-.07-.57-.07-.79,0-.22.05-.45.08-.72-.73-.23-1.39-.63-2.01-.59-1.06.08-2.09.43-3.13.68-.75.18-1.49.47-2.25.53-4.04.31-8.1.43-12.01,1.7-.14.04-.29.05-.43.04-2.51-.19-4.96.29-7.4.79-.42.09-.84.4-1.23.35-1.57-.2-3.11-.23-4.62.33-.09.03-.19.02-.29.03-1.26.12-2.52.24-3.77.36-1.26.12-2.52.29-3.79.36-1.07.05-1.95-.51-2.46-1.37-.6-.99-.99-2.11-1.4-3.2-.28-.74-.26-1.47.05-2.27.59-1.51.22-2.67-.98-3.49-.44-.3-.96-.48-1.47-.64-1.17-.36-2.34-.7-3.53-.99-.45-.11-1.01-.21-1.41-.04-1.01.42-1.93.09-2.86-.16-.36-.1-.7-.25-1.13-.41-.14.75.19,1.12.73,1.32.32.12.68.1,1,.2.99.33,1.94.72,2.24,1.99-.86-.41-1.71-.82-2.57-1.23-.72.94-.72.99-1.88.9-1.55-.13-3.1-.35-4.65-.54-.24-.03-.52-.14-.71-.06-.86.38-1.71.29-2.59.12-.32-.06-.72-.04-1,.1-.94.49-1.78.47-2.48-.34-.43.19-.82.53-1.11.46-1.93-.48-3.6.64-5.43.79-1.49.12-2.98.63-4.46.6-3.08-.07-6.09.3-9.09.92-.38.08-.77.1-1.15.14-.87.09-1.74.14-2.6.27-.96.15-1.93.62-2.85.51-2.4-.3-4.5.69-6.7,1.24-1.89.47-3.77,1.09-5.69,1.3-1.92.21-3.65.99-5.51,1.28-1.36.21-2.67.98-4.12.42-.22-.09-.64,0-.81.16-1.2,1.18-2.8,1.35-4.31,1.65-1.24.25-2.53.22-3.61,1.04-.14.1-.37.1-.56.12-.78.06-1.56.08-2.33.17-.75.09-1.5.41-2.14-.36-.14-.16-.62-.02-1.05-.02.05.36.11.59.1.82,0,.22-.09.44-.14.66-1.21-.3-1.72-.06-2.34.88-.25.37-.61.72-1,.94-.51.28-1.09.44-1.65.6-3.29.93-6.58,1.83-9.87,2.75-.84.23-1.69.44-2.52.73-1.98.68-3.93,1.44-5.92,2.09-1.57.51-3.27.72-4.76,1.4-1.5.69-3.05,1.01-4.62,1.37-2.67.62-5.32,1.29-8.01,1.83-1.33.26-2.71.34-4.07.35-.75,0-1.5-.3-2.34-.49-.33,1.17-.93,1.76-2.24,1.5-.81-.16-1.86.88-2.09,1.75-.1.37-.1.82-.33,1.09-.69.81-1.02,1.6-.2,2.52-1.76.54-1.99.86-1.88,2.53.02.34.04.69.11,1.02.11.59,0,1.08-.56,1.37-.75.39-.82,1.18-1.07,1.85-.24.64.1,1.09.7,1.22.81.17,1.64.25,2.47.29,1.25.06,2.5.06,3.81.08-.78,1.12-1.74,1.35-2.86,1.18-.14-.02-.29,0-.44.03-.63.13-.92.5-.76,1.32.57.08,1.18.18,1.79.26.47.06.95.1,1.42.16.32-.18.64-.35,1-.55q.02.86-1,.55c-1.29.43-2.46,1.08-3.69,1.71.25.56.39.98.6,1.35.62,1.08,1.14,1.27,2.41,1.05.41-.07.9-.1,1.28.04,1.87.7,3.77.8,5.72.44.6-.11,1.2-.34,1.9.09-.27.28-.44.65-.65.66-.88.06-1.2.6-1.24,1.35-.04.71.59.97,1.06,1.29.37.25.8.42,1.2.62,0,.11-.01.22-.02.33-.68.22-1.36.44-2.03.67-.94.31-1.69.13-2.32-.7-.59-.77-1.76-.73-2.35.04-.42.56-.78,1.17-1.2,1.8,1.69.72,3.35.48,4.93.14,1.62-.35,2.89-.07,3.94,1.18.48.56,1.03.82,1.8.72.5-.06,1.02.14,1.49.22.12.56.2.98.29,1.42.88.04,1.68.08,2.73.13-.39.52-.74.79-.81,1.12-.16.77-.19,1.49.06,2.36.37,1.25.79,1.99,2.15,2.09.59.04.82.55.83,1.19.04,1.73.72,2.23,2.29,1.61.77-.3,1.36-.16,2.07.19.57.28,1.32.36,1.96.27.71-.09,1.47-.35,2.05-.75.8-.56,1.36-.43,2.1.08.66.45,1.28.7,1.25,1.74-.03,1.41.57,1.82,1.95,1.67.34-.04.67-.13,1.01-.18,1.05-.15,2.07-.03,3.06.42-.31.21-.62.28-.93.39-.28.1-.55.23-.97.41,1.54.59,2.59.42,3.42-.49.34-.37.67-.83,1.21-.45,1.21.86,2.53.53,3.83.43,1.65-.13,3.3-.29,4.95-.47.66-.07,1.31-.2,2.04-.31-.16-.66-.3-1.13-.38-1.6-.2-1.13.34-1.81,1.43-1.53,1.07.28,2.12.21,3.18.24.25,0,.5.18.81.3-.7,1.3-2.35.86-3.09,1.9.95.46,1.98.37,4.66-.37.14-1.37.57-1.6,1.88-1.14.4.14.88.06,1.41.08,0,.8.51.87,1.2.76,1.88-.29,3.78-.51,5.66-.78.69-.1,1.36-.27,2.04-.4,0-.14-.02-.27-.03-.41-.54-.02-1.09-.03-1.63-.05-.57-.02-1.16.01-1.72-.08-.67-.11-1.31-.34-1.97-.49-.63-.14-1.24-.27-1.51-1.06.16-.17.29-.44.48-.5,1.29-.43,2.59-.82,3.89-1.21.1-.03.25.1.47.21-.27.43-.51.81-.87,1.39.56.29,1.04.77,1.52.76,1.44-.02,2.78-.41,3.79-1.61.83-1,.93-.96,2.18-.21-.64,1.04-.48,2.64-2.25,2.92.26.16.45.26.61.22,2.07-.45,4.16-.57,6.27-.61.27,0,.54-.28.99-.53-1.14-.89-1.8-1.87-1.59-3.2.04-.25.24-.69.33-.68.29.02.66.15.82.37.26.34.33.81.56,1.18.17.27.43.62.7.68.95.21,1.92.33,2.89.42.22.02.46-.23.78-.4-.32-.34-.54-.59-.77-.83-.81-.82-.82-.91-.28-1.88.67-1.2,2.66-1.77,3.82-1.06.73.44,1.35.96,1.02,2.02-.15.49-.08,1.05-.12,1.72,1.25.15,2.36.58,3.58-.03-.36-.2-.72-.39-1.13-.61-.06-.44-.13-.92-.2-1.36,1.46-1.29,2.94-.17,4.55-.31-.22.29-.29.44-.4.51-.4.29-1.16.34-.88,1.11.26.7.92.61,1.51.59.19,0,.37-.09.57-.14.02-.38.04-.73.06-1.07.17-.01.23-.04.26-.02.24.15.48.31.72.48.94.66,1.61.39,1.67-.75.04-.71-.13-1.43-.21-2.15,1.3-.67,1.56-.57,1.74.65.18,1.22.22,1.25,1.56,1.41.08.31.16.62.25,1,1.08-.08,2.08-.16,3.12-.24.16-1.06-.13-1.79-1.12-2.15-.57-.21-1.11-.46-1.13-1.19-.02-.72.45-1.19.99-1.53,1.05-.66,2.27-.7,3.41-.44,1.01.23,1.03,1.3,1.29,2.12,0,.03.08.04.32.14.08-.93.17-1.8.26-2.81.47.26.83.5,1.22.67.3.12.71.29.95.18.72-.33,1.26-.19,1.89.26.57.41,1.02.12,1.12-.55.18-1.23,1.26-1.8,2.67-1.36-.4.47-.79.92-1.26,1.48.62.27,1.06.45,1.48.65.98.49,1.12.38,1.79-.44.66-.81,1.37-1.77,2.27-2.13.73-.29,1.76-.93,2.64-.2.91.76.28,1.72.16,2.6-.01.08-.12.14-.23.27-.26-.02-.55-.02-.83-.05-.95-.13-1.89-.31-2.83-.4-.23-.02-.66.17-.7.34-.07.27.02.69.2.88.44.44.97.79,1.51,1.21.46-.22.93-.38,1.32-.65.62-.41,1.14-.48,1.66.15.3.36.68.58,1.14.22.08-3.09,2.02-4.19,4.42-3.64.64.14,1.11.34,1.21,1.05.11.76-.1,1.37-.81,1.72-.8.4-1.64.56-2.5.36-.09-.39-.17-.71-.28-1.21-.56,1.26-.38,2.05.4,1.97,1.37-.14,2.91.36,4.04-.84,1.1,1.04,1.14,1.35.19,2.25-.68.65-.91,1.35-.6,2.24.25.72-.12,1.12-.75,1.34-.32.11-.67.15-.99.27-.46.18-.77.55-.59,1.02.08.22.5.33.79.44.47.17.97.3,1.2.37.18.84.2,1.43.43,1.91.38.79.46,1.59.34,2.43-.19,1.31-.39,2.61-.61,3.91-.6,3.66-1.25,7.3-1.82,10.96-.39,2.56-.76,5.13-.99,7.71-.25,2.82-.39,5.65-.48,8.48-.1,2.92-.46,5.86.16,8.78.07.32-.02.67-.06,1.01-.07.68-.24,1.35-.22,2.02.06,2.68.24,5.37.25,8.05.01,2.2-.17,4.39-.21,6.59-.04,2.25-.02,4.49,0,6.74.02,3.17.03,6.34.1,9.51.09,4.16,1.26,8.23,1.07,12.42,0,.19.07.39.09.58.05.93.2,1.86.12,2.78-.32,3.6-.72,7.19-1.07,10.79-.06.58,0,1.17.01,1.76,0,.34.02.68,0,1.02-.21,2.33-.49,4.66-.64,6.99-.14,2.24-.2,4.49-.18,6.73.03,4.54.12,9.09.22,13.63.02,1.02.15,2.05.27,3.07.15,1.26.22,2.55.54,3.77.35,1.36.33,2.71.24,4.08-.06.93-.17,1.85-.23,2.77-.14,2.15-.23,4.3-.38,6.44-.25,3.46-.52,6.92-.8,10.38-.13,1.6-.31,3.2-.46,4.8-.04.39-.04.78-.05,1.17-.04,2.49-.07,4.99-.13,7.48-.06,2.64-.22,5.27-.2,7.91.02,3.37.09,6.74.27,10.11.25,4.88.5,9.77.97,14.63.3,3.02.73,6,.5,9.04-.18,2.44-.21,4.88-.33,7.32-.05.98-.23,1.95-.25,2.92-.03,2.89-.03,5.78,0,8.67.02,2,.08,4,.16,6,.1,2.29.2,4.58.37,6.87.16,2.14.41,4.28.64,6.42.26,2.38.53,4.76.84,7.13.12.91.44,1.8.58,2.7.17,1.06.2,2.14.38,3.2.29,1.74.67,3.46.96,5.19.16.96.13,1.96.36,2.9.44,1.81.78,3.62.72,5.5-.01.47.16.95.27,1.42.15.65.3,1.31.51,1.94.22.68.49,1.35.78,2.01.27.61.72,1.17.86,1.8.27,1.19.29,2.47,1.61,3.1.08.04.15.14.17.23.21,1.13,1.01,2.11.71,3.38-.13.54-.05,1.19.11,1.73.39,1.33.07,2.49-.56,3.66-.32.59-.6,1.24-.71,1.9-.45,2.85-.85,5.7-1.23,8.56-.07.52.04,1.07.08,1.61.07.85.44,1.48,1.29,1.79.82.29,1.22.92,1.35,1.76.08.53.19,1.07.39,1.56.11.28.43.47.65.7.21-.23.44-.44.61-.7.17-.26.27-.56.47-1,.41.38.71.62.95.9.45.5.8,1.12,1.32,1.53.58.47,1.1.91,1.4,1.64.37.91,1.21,1.35,2.11,1.34,1.06-.01,2.13-.23,3.18-.45,1.24-.25,2.45-.65,3.7-.89,1.35-.27,2.67-.55,3.88-1.26.92-.54,1.91-.99,2.92-1.35.72-.26,1.63-.14,2.26-.51,1.42-.83,2.92-.7,4.42-.72,1.22-.01,2.41,0,3.62-.4,1.18-.4,2.47-.73,3.7-.71,2.89.05,5.63-.53,8.36-1.36.31-.09.69-.15.98-.06,1.93.58,3.76.1,5.37-.83,1.37-.79,2.66-.73,4.09-.6.76.07,1.54-.06,2.3-.13.34-.03.67-.25.99-.21,1.46.16,2.39-.8,3.26-1.65.44-.43.33-1.37.67-1.96.35-.61,1.1-1,1.39-1.62.52-1.1.07-1.66-.98-2.28-.89-.52-1.58-1.37-2.36-2.09-.06-.05-.07-.19-.06-.28.11-.8-.37-1.37-.71-2.02-.26-.5-.33-1.1-.46-1.66-.25-1.08-.48-2.16-.71-3.24-.14-.65-.34-1.32-.33-1.97,0-.58-.14-.96-.48-1.44-.82-1.15-1.5-2.4-2.2-3.63-.13-.23-.07-.57-.08-.86-.18-2.72-.35-5.45-1.32-8.04-.08-.21-.04-.47-.07-.7-.05-.47-.1-.93-.15-1.4-.04-.43-.09-.87-.12-1.3-.05-.62-.03-1.26-.16-1.86-.21-1.04-.65-2.04-.75-3.08-.19-1.93.24-3.88-.24-5.83-.31-1.24.06-2.62-.75-3.78-.09-.14-.1-.4-.04-.56.48-1.38.02-2.67-.3-3.99-.38-1.55-.77-3.13.15-4.66.11-.18.13-.51.04-.69-.33-.64-.65-1.32-1.12-1.86-.8-.93-.94-1.28-.21-2.28,1.14-1.56,1.53-3.22,1.09-5.11-.08-.35.07-.76.11-1.14.13-1.35.42-2.71.32-4.04-.1-1.37-.01-2.59.71-3.79.65-1.09.85-2.26.26-3.51-.16-.33-.13-.9.06-1.2.57-.88.47-1.8.24-2.69-.4-1.52.07-3.23-1.04-4.59-.11-.14,0-.47.01-.72.02-1.52.37-3.14-.06-4.52-.4-1.29-.61-2.54-.69-3.86-.02-.28-.12-.65.01-.84.85-1.2-.04-2.31-.19-3.42-.13-.92-.73-1.77-1.2-2.8-.49.1-1.06.2-1.61.34-.77.2-1.26-.12-1.48-.82-.15-.5-.26-1.05-.22-1.57.06-.88.8-1.33,1.56-.9.61.35,1.08.94,1.58,1.46.25.25.41.58.62.88.12-.01.23-.02.35-.03.14-.47.32-.94.42-1.42.08-.42.02-.87.11-1.28.3-1.36-.02-1.87-1.43-2.04-.62-.08-1.13-.26-1.49-.8-.38-.55-.78-1.09-1.17-1.63-.23-.32-.5-.62-.65-.97-.27-.6,0-1.65.47-2.03.65-.51.95.03,1.46.34.55.33,1.44.45,2.05.25.64-.21,1.45-.66,1.36-1.71-.27-.08-.49-.14-.72-.21-1.12-.35-1.23-.72-.52-1.64.23-.3.46-.61.65-.87-.62-1.56-.12-3.3-1.17-4.69-.73-.05-1.48.68-2.21,0,.44-1.53.28-1.71-1.84-1.86-.26-1.1-.54-2.27-.82-3.44.52-.57,1.03-1.13,1.66-1.82.8,1.07,1.52,2.03,2.26,3.01.9-.2,1.37-.78,1.61-1.67.13-.49.48-.93.84-1.59-.02-1.17-1.27.04-1.8-.59-.62-.72-1.54.25-2.39-.16.39-.43,1.32-.54.89-1.41,1.13.59,1.63-.88,2.82-.63-.14-.6-.14-1.07-.35-1.39-.63-.96-.95-1.88-.26-2.96.16-.25.03-.67.05-1,.02-.34-.05-.74.11-.99.74-1.19-.09-2.21-.22-3.31,1.27-.39,1.38-.76.46-1.89-.56.55-1.18,1.07-1.87.2.03-.55.09-1.08.09-1.61,0-.77.46-1.04,1.12-1.06.47,0,.94.09,1.51.15-.03-.37.02-.86-.08-.89-.51-.16-1.06-.21-1.62-.3.06-.6-.09-1.4.24-1.77.39-.44,1.19-.51,1.91-.78-.06-.34-.12-.69-.19-1.04-.11-.06-.21-.13-.32-.19-.11.21-.17.5-.34.63-.36.27-.84.03-.74-.3.24-.81-.38-1.12-.79-1.64,1.23-1.57,2.77-2.51,4.55-2.74-.06-1.07-.11-1.94-.16-2.92-1.19.45-1.91-.17-2.47-1.12-.07-.12-.19-.23-.3-.32-.53-.47-.51-.96-.18-1.57.59-1.11.17-2.42.59-3.59.05-.14-.23-.4-.36-.6-.4-.65-.81-1.3-1.35-2.16.47-.26.86-.47,1.05-.58-.3-.73-.67-1.23-.67-1.72.01-.71.33-1.4.45-2.12.05-.3.04-.74-.14-.92-.66-.69-.97-1.43-.58-2.42-.44-.09-.8-.09-1.07-.25-.22-.13-.53-.58-.48-.64.42-.54.05-1.57,1.04-1.76.14.08.28.14.39.23.52.37,1.12.88,1.71.44.65-.48.37-1.24.08-1.88-.03-.08-.15-.11-.29-.21-.88.21-1.83.37-2.9-.37.49-.36.86-.62,1.21-.89.3-.23.79-.43.83-.71.2-1.13,1.04-1.44,1.94-1.75.25-.09.48-.25.88-.46-.58-.15-.96-.25-1.47-.39.27-.92.51-1.75.77-2.61-.65-.17-1.23-.32-1.84-.47.65-1.58.22-2.72-1.19-3.7-.38.35-.74.92-1.11.94-.42.01-.86-.48-1.37-.79-.2.11-.43.3-.7.37-.26.07-.74.12-.79.01-.13-.25-.14-.62-.05-.9.29-.92.22-1.33-.46-1.92-.16-.14-.38-.22-.65-.37.3-.13.49-.18.64-.29.72-.5,1.38-.69,2.04.13.45.54,1.05.35,1.63.17,1.29-.41,1.29-.39,2.13.78-.06.12-.14.24-.2.37-.07.17-.11.34-.21.66.9.21,1.72.41,2.54.6.08-.09.16-.17.24-.26-.2-.46-.41-.92-.6-1.37-.48-1.11-.41-1.26.76-1.61.09-.03.16-.11.34-.24-.18-.33-.38-.67-.61-1.1-.45.39-.78.67-1.1.94-.28-.32-.56-.64-.86-.98-.72.33-1.36,1.1-2.11.22.43-1.43.26-1.69-1.72-2.42-.03.08-.07.31-.21.43-.23.21-.51.34-.78.51-.19-.32-.54-.65-.52-.95.04-.62.25-1.24.46-1.83.22-.61.52-1.2.8-1.83.54.09.49.57.59.99.11.46.2.97.47,1.35.44.63,1.03,1.14,1.51,1.74.72.88,1.23,1.06,2.25.71,1.57-.54,2.05-.99,1.95-2.17-.04-.52-.42-1.01-.66-1.55.19-.22.45-.53.71-.84-.05-.1-.09-.2-.14-.3-.68.11-1.36.23-2.03.34-.1-.23-.19-.44-.27-.62-.15.02-.21,0-.24.03-.16.17-.32.35-.46.5-.91-.84-1.34-1.88-1.15-3.13-.88-.09-1.7.03-2.27-.29-.73-.4-.55-1.34-.65-2.05,1.58-1.27,2.77.12,4.09.43-.95,1.14-.77,2.62.35,2.93.06-2.21.33-2.42,2.22-1.58.28-1.2.56-2.38.85-3.6-.25-.2-.47-.38-.7-.55-1.22-.87-1.27-1.27-.16-2.22.37-.31.57-.58.53-1.1-.03-.35.27-.7.33-1.07.13-.76.36-1.56.25-2.3-.05-.34-.82-.54-1.23-.86-.45-.35-1.07-.67-.8-1.4.6-1.63-.8-3.38.31-4.97.02-.03,0-.12-.02-.14-.74-.48.12-1.06-.15-1.71-1-.44-1.6-1.35-1.47-2.5.1-.92.98-1.17,2.21-1.22-.99-.59-1.66-.99-1.55-1.94.1-.86.05-1.74.11-2.6.02-.33.2-.64.28-.96.28-1.12.99-2.23.1-3.39-.11-.14-.11-.37-.16-.56-.48-1.72-1.17-2.12-3.05-1.74-.15.28-.31.58-.47.88-.5,1-.34,1.59.49,2.39.81.77,1.55,1.6,1.89,2.72.2.66.04,1.01-.59,1.24-.43.15-.84.38-1.27.58,1.01,1.76.99,1.48-.48,2.78,1.4.78,1.7,1.89.92,3.35-1.3-.25-1.5.85-1.84,1.61-.6-.22-1.07-.43-1.57-.56-.48-.12-.91-.29-.82-.83.15-.95-.42-1.31-1.21-1.69-.37.31-.57.6-.8.84-.35.37-.76.37-1.2.14-.59-.32-1.2-.62-1.8-.93-.08-.75-.31-1.53-.21-2.26.08-.57.53-1.09.89-1.59.04-.06.61.13.79.33.7.77,1.44,1.52,1.74,2.59.1.36.41.65.58.88,1.48-.61,1.8-.43,2.2,1.31.84-.46,1.58-1.12,1.56-1.99-.03-1.17.11-2.3.24-3.44,0-.05-.14-.12-.28-.23-.46.26-.94.54-1.35.77-.69-1.03-1.32-1.98-1.88-2.81-.96.12-1.75.13-2.49.33-.73.2-1.4.6-2.14.94-.76-.41-1.54-.84-2.28-1.24.21-1.19.95-.4,1.26-.53.13-.93.24-1.77.37-2.7-.37-.64-.79-1.41-1.25-2.16-.36-.59-.38-1.13.2-1.55.62-.45.76-1.08.89-1.77.3-1.6.04-1.98-1.58-2.2-.04,0-.06-.15-.08-.23,1.61-.72,2.06-1.01,1.07-2.55,1.04-.82,1.69-1.87,1.88-3.43-.96.29-1.67.51-2.25.68-.22-.78-.34-1.44-.59-2.04-.39-.97-.37-1.2.62-1.74.56-.31.99-.55.77-1.34-.08-.29.22-.68.35-1.03.05-.13.08-.26.12-.38-.24-.12-.45-.22-.79-.38.39-.59.75-1.14,1.16-1.76-.66-.98-1.36-2.01-.73-3.33.07-.15-.02-.38-.05-.57-.24-1.41.08-1.75,1.56-1.65q.02,1.55,1.68,2.18c.53.2.89.79.66,1.27-.12.27-.48.42-.73.64-.47.41-1.05.76-1.37,1.26-.18.27.1.81.12,1.24,0,.28-.04.58-.14.84-.24.62-.17,1.1.39,1.55.25.2.47.71.38.96-.1.27-.56.45-.9.57-.36.12-.78.05-1.13.18-.62.22-1.09,1.48-.85,2.11.19.5.66.5,1.66,0,.13-.07.24-.19.38-.22.27-.05.69-.17.79-.05.18.22.25.6.23.9-.04.47-.21.92-.34,1.45.66.24,1.2.44,1.75.64v2.02c-.57-.2-.98-.33-1.36-.49-.68-.28-1.17-.05-1.41.6-.15.4-.28.87-.2,1.27.17.89.48,1.76.76,2.73-.61.93-.51,2.34-1.6,3.18-.18.14-.09.62-.15,1.2,1.13-.37,1.43.46,1.9,1.07.3.39.56.8.89,1.16.18.2.49.46.69.43.78-.14,1.32.15,1.79.73.11.14.43.32.47.29.62-.61,1.07.14,1.75.34-.12-1-.17-1.85-.36-2.67-.05-.23-.48-.45-.77-.54-.31-.09-.67-.02-1.01-.02-.09-.42-.1-.88-.28-1.26-.34-.74-.23-1.78-1.35-2.05-.17-.04-.25-.48-.37-.74.08-.09.16-.18.24-.28.86.3,1.7.64,2.57.87.54.15,1.16.31,1.67.17.97-.26,1.88-.73,2.88-1.14.02-.11.06-.33.08-.48,1.02.07,1.99.35,2.99.25l.08-.35c-.8-.28-1.6-.57-2.39-.85-.35-1.66-.34-1.68-2.15-1.91-.58-.08-1.18-.15-1.74-.05-.9.17-1.59-.1-2.29-.72.47-.82.92-1.61,1.41-2.46q1.91,1.98,2.94,1.41c-.16-.26-.32-.51-.48-.77.06-.08.11-.16.17-.24.4.19.92.27,1.19.58.64.75,1.28.67,2.1.3-.21-.65-.52-1.16-.02-1.82.38-.51-.07-1.15-.88-1.57-.11-.06-.28-.03-.41-.04v.59c-1.13-.51-1.28-1.05-.49-1.74.33-.29.76-.47,1.05-.78.12-.13.09-.58-.04-.73-.11-.12-.51-.08-.72.02-.16.08-.23.35-.36.59-.87-1.23-.82-1.23-.2-2.22.34-.55.66-1.24.65-1.86-.02-.85-.36-1.69-.58-2.57-.6.29-1.23.59-2.04.99.57.33.96.56,1.37.81-.29.26-.5.46-.71.65-.22.19-.42.42-.67.56-.75.44-1.18.25-1.38-.58-.12-.51-.23-1.03-.34-1.55h-1.51c.11-1.02.22-1.94.32-2.92.09-.02.26-.12.36-.07,1.06.53,2.19.49,3.3.33.6-.09,1.05.06,1.45.49.05.05.18.03.34.04.24-.28.5-.59.86-1.01-1.15-.5-1.48-1.42-1.74-2.37-.66-.3-1.38.27-2.1-.33-.71-.59-1.67-.88-2.72-1.4q-.54-1.41-2.32-.91c-.47.13-.93.32-1.41.4-.7.12-1.41.17-2.16.25-.05-.65-.09-1.12-.13-1.56-.37-.13-.67-.23-1.1-.38.5-.37.87-.64,1.3-.96-.18-.27-.28-.5-.46-.64-.6-.47-.53-.94-.15-1.52.67-1.01.63-1.4-.38-1.99-.73-.44-1.09-.92-.9-1.78.05-.23.06-.52-.03-.72-.55-1.11,0-1.73.89-2.29.38-.25.66-.65,1.11-1.12-1.94-.57-2.64-1.84-2.72-3.44.82-.28,1.61-.54,2.47-.83.24.11.61.36,1.02.44,1.71.35,2.34,1.5,1.66,3.1-.41.96-.53,1.07-2.27,1.94h2.07c-.58.5-1.03.89-1.66,1.42.86.63,1.64,1.05,2.22,1.66.61.65,1.02,1.5,1.52,2.27.48-.4,1.1-.67,1.12-.99.05-.73.85-1.4.2-2.21-.15-.18-.14-.53-.13-.8.02-.62.23-1.27.1-1.86-.23-1.08.24-1.89.73-2.73.24-.42.5-.83.8-1.22.15-.19.4-.31.59-.44.36.77.67,1.44.91,1.96-.04.79-.14,1.49-.08,2.17.05.6.08,1.12-.28,1.67-.41.63.08,1.22.36,1.74.27.5.79.53,1.29.29.07-.03.1-.15.14-.22-.13-.15-.26-.3-.46-.54.54.02.89.04,1.41.06-.38-.5-.64-.83-.79-1.03.32-1.34-.09-2.35-.67-3.33,1.21-1.15,1.24-1.19,1.45-2.34-.69-.18-1.03-.69-1.26-1.38-.17-.49-.61-.72-1.2-.48-.9.36-2.63.28-3.46-.12-1.02-.49-1.21-.99-.72-1.95.38-.73.74-1.49,1.2-2.17.18-.26.64-.49.94-.45.31.04.71.35.85.64.29.61.46,1.28.62,1.94.26,1.05.38,1.17,1.71,1.32.15-.61-.11-1.06-.61-1.34-.86-.47-.92-1.05-.2-1.74-1.63-1.07-.5-2.1-.06-3.2-.57.17-1.02.43-1.49.65-.61.3-1.22.62-1.86.83-.57.18-1.19.16-1.59-.4-.35-.5-.25-.97.1-1.49.23-.34.34-.8.39-1.22.15-1.25-.62-2.39-.42-3.67.04-.24-.34-.56-.54-.83-.19-.26-.4-.52-.48-.61.29-.9.52-1.61.78-2.41,1.8-.58,1.85-.67,1.19-2.59-.05-.01-.1-.04-.14-.04-1.56.26-2.09-1.05-2.84-1.94-.58-.69.18-1.28.46-1.85.59-1.2,1.16-2.37.49-3.72-.55.03-1.1.06-1.78.1.11-1.75,1.88-1.9,2.46-3.11-.25-1.06-1.08-1.61-2.14-2v-3.85c.97-.21,1.26-1.06,1.63-1.75.36-.68-.13-1.4-.92-1.66-.25-.08-.49-.2-.91-.37.75-.53,1.31-.98,1.93-1.33.29-.17.82-.3,1.01-.15.22.18.28.68.26,1.03-.03.47-.2.94-.3,1.36.72.5,1.38.9,1.96,1.39.28.23.64.71.56.95-.27.87,0,1.85-.67,2.65-.53.63-.65,1.46-.47,2.29,1.4.13,1.36.15,1.8,1.42.12.35.56.6.82.85-.59.4-1.21.83-1.88,1.29.24.31.34.48.48.6.98.87.98.86.5,2.07-.14.35-.21.73-.3,1.04.54.5.98.92,1.43,1.34.62-.58,1.18-1.1,1.67-1.56-.03-.19-.02-.25-.04-.29-.06-.08-.12-.16-.2-.21-1.24-.75-.96-1.96-.78-3.03.16-.93.97-1.19,1.89-1.29,1.11-.12,1.27-.43,1.29-1.67,0-.24.04-.48.08-.72q.21-1.02-1.03-1.68c.78,1.14.18,1.92-.27,2.71-.81-.45-1.55-.85-2.28-1.25-.23-.39-.47-.8-.71-1.21-.12-.21-.32-.4-.37-.62-.4-1.74.86-3.28,2.65-3.21.49.02.97.11,1.14-.59-1.21-.63-2.6-.85-3.1-2.45-.42-1.34-.32-1.82,1.12-2.07,1.43-.26,2,.14,2.22,1.56.04.28.04.56.05.87.22.02.36.04.5.03.18,0,.35-.03.59-.05-.05.58-.13,1.06-.14,1.54-.02,1.47.57,1.84,2.13,1.23-1.31-1.4.1-2.56.22-4.04,1.91.48,2.69-1.33,4.06-1.93.27.45.48.8.86,1.44.58-1.85,1.16-3.39,1.81-4.91.35-.82.73-1.19,1.62-1.13.19.4.37.77.52,1.1.84.06,1.19-1.09,2.14-.58-.06.27-.13.54-.19.81-.24,1.25.16,1.73,1.43,1.81.32.02.62.18.92.28,1.35-1.41,2.92-1.59,4.66-1.03.17.76-.68,1.46.03,2.37.36-1.08,1.08-1.42,2-1.65.71-.18,1.33-.71,2.04-1.12-.43-.8-.7-1.48-1.66-1.61-.77-.11-.88-.88-.88-1.51,0-.64.47-.89,1.09-.95.32-.03.68-.14.94-.33.79-.57,1.68-.58,2.53-.36.72.18,1.34.4,2.1.03.56-.27,1.02.16.79.75-.31.78.08,1.19.52,1.66.35.37.65.78,1,1.19q-1.59.57-2.16,1.25c.79.43.83.48,1.61-.12,1.56-1.2,3.51-1.02,5.26-1.48,1.3-.34,2.8.1,4.21.18.53.03,1.08.13,1.6.04,2.01-.35,4.01-.82,6.06-.27.13.04.3.02.43-.02,1.81-.61,3.78-.21,5.6-.9.98-.37,1.89-.53,2.3-1.72.31-.9,1.09-.98,2.01-.36-.43.27-.87.48-1.22.8-.22.2-.41.57-.4.86.02.45,1.1.95,1.71.87.66-.08,1.32-.61,1.34-1.13.01-.34-.06-.68-.11-1.02-.1-.67.15-1.04.85-1.06.2,0,.41.05.58-.01.21-.08.51-.24.53-.4.03-.25-.07-.59-.25-.76-.24-.22-.63-.27-.9-.47-.25-.19-.51-.47-.6-.76-.29-.91.02-1.35,1.06-1.67,1.44-.45,2.05-1.16,2.04-2.4-.13-.04-.26-.12-.4-.13-.19-.01-.39.05-.58.04ZM20.76,58.67c0-.12.01-.23.02-.35.22.02.43.03.65.05,0,.08,0,.15,0,.23-.22.02-.44.04-.66.06ZM34.54,64.84c-.11.44-.53.55-.92.26-.34-.25-.63-.57-1.09-1.01.45-.23.69-.42.95-.47.3-.06.82-.1.89.03.17.35.26.82.17,1.19ZM50.6,69.54c-.23-.07-.48-.33-.57-.56-.06-.14.12-.49.29-.58.48-.27,1.01-.45,1.68-.74.18,1.62-.35,2.21-1.39,1.89ZM53.97,19.95c-.6.15-1.18.4-1.77.61-.04.02-.08.08-.12.08-1.22.03-2.25.82-3.4.95-.83.09-1.5.31-2.14.77-.59.43-1.11.89-1.96.65-.3-.08-.7.29-1.08.39-1.46.36-2.96.61-4.39,1.05-2.61.8-5.18,1.72-7.78,2.56-.88.28-1.79.5-2.69.72-2.12.51-4.24,1.07-6.39,1.48-1.77.34-3.58.49-5.37.7-.17.02-.36-.09-.54-.14-.03-.12-.06-.24-.09-.36.48-.19.94-.5,1.43-.54,1.1-.09,2.17-.48,3.33-.07.85.31,1.58-.16,1.79-1.02.14-.6.47-.8.96-.94,2.03-.54,4.06-1.06,6.08-1.63.89-.25,1.74-.63,2.63-.9,3.22-.98,6.44-1.95,9.66-2.91.42-.12.87-.15,1.29-.27.97-.29,1.95-.58,2.9-.92.72-.26,1.33-.35,2.07.1.9.56,1.59.19,1.74-.87.1-.7.51-.89,1.04-1.04.61-.18,1.24-.29,1.83-.5,1.67-.59,1.76-.57,2.83,1.12-.43.65-1.14.77-1.85.95ZM105.39,16.14c-.1-.07-.08-.32-.11-.49.33-.04.65-.08,1.2-.14-.38.8-.71.89-1.08.63ZM112.47,15.26c-.06-.1-.12-.19-.18-.29.27-.19.54-.39.81-.58.08.12.17.25.25.37-.29.16-.59.33-.88.49ZM115.77,9.66c-.01-.09-.03-.18-.04-.28.36-.06.73-.12,1.09-.18.02.11.03.22.05.33-.37.04-.73.09-1.1.13ZM116.53,7.58c.55-1.03,1.28-.82,2.34-.59-.82.77-1.43,1.03-2.34.59ZM190.81,292.57c.12.08.24.16.36.24.08.15.27.39.23.43-.15.18-.38.29-.57.43-.08-.15-.24-.3-.23-.45.01-.23.14-.44.22-.66ZM189.05,284.04c.35.45.66.85,1,1.29q-1.06.09-1-1.29ZM187.03,260.23l.34-.11c.14.56.27,1.12.43,1.77.79.66.87-.33,1.28-.84.49.68.94,1.3,1.4,1.92.1-.08.2-.16.31-.24,0,.58,0,1.16,0,1.74,0,1.08-.73,1.55-1.72,1.12-.53-.23-1.06-.44-1.6-.65-.46-.18-.68-.49-.65-1.01.08-1.23.14-2.47.21-3.71ZM195,183.95q-.77.24-1.07-.66c.44.27.7.43,1.07.66ZM191.67,183.22h.64v.22h-.64v-.22ZM192.59,173.26c-.11-.17-.26-.35-.24-.37.12-.12.26-.23.41-.28.05-.02.16.16.25.26-.12.11-.25.23-.42.39ZM191.85,159.13c.46.77.87,1.46,1.27,2.14-.71.2-.75.17-1.35-.94-.24-.45-.58-.9.07-1.2ZM189.69,168.81c.28-.55.71-.94,1.36-.94.76,0,.88.65,1.11,1.17.27.62-.05,1.02-.54,1.34-.36.24-.72.47-1.05.69-1.14-.72-1.37-1.32-.89-2.26ZM190.86,137.85v1.57c-.43.32-.85.38-1.16-.05-.3-.41.11-.96,1.16-1.53ZM187.63,138.85c.3-.54.73-.49,1.28-.19-.24.65-.57.94-1.13.68-.11-.05-.21-.38-.15-.49ZM186.83,119.94c.08.04.16.07.24.11-.05.09-.1.19-.15.28-.06-.06-.16-.11-.18-.18-.02-.05.06-.14.1-.21ZM186.85,129.58c.6-.49,1.2-.98,1.84-1.41.49-.33,1.3-.08,1.43.5.14.61.45,1.28-.15,1.9-.58.6-.52,1.7-1.63,2.06.06-.43.1-.78.16-1.2-.21.03-.36.02-.46.08-.63.35-1.14.2-1.5-.38-.36-.58-.2-1.13.32-1.55ZM178.46,60.81c.54.5.99.83,1.75.8.34-.02.69.27,1.04.43-.1.84-.2,1.58-.32,2.61-.6-.61-1.05-1.07-1.57-1.6-.92.01-1.38.75-1.74,1.51-.58-.33-1.08-.62-1.69-.97,0-.03-.02-.09,0-.13.18-.75.65-1.57.48-2.23-.16-.62-.97-1.08-1.56-1.67,1.46-.16,2.65.34,3.62,1.25ZM177.16,126.91c-.49.31-.98.62-1.57,1,.22-1.07.38-1.18,1.57-1ZM176.44,90.09c.04-.06.09-.12.14-.17.04.06.08.13.12.19-.07.03-.13.06-.2.08-.01,0-.07-.08-.06-.1ZM176.73,82.79c.96-1.57,3.65-2.09,5.64-1.16-2.11,2.35-3.11,2.95-5.64,1.16ZM175.72,70.33c1.16-1.48,1.38-3.78,3.83-3.64.49,1.03.88,1.86,1.3,2.74-.95,1.19-2.44,1.49-5.14.89ZM175.31,100.28c.17.71-.05,1.02-1.13,1.5-.09-.78-.17-1.51-.26-2.26.89-.27,1.24.12,1.39.76ZM174.45,114.98c-.43-.4-.78-.73-1.11-1.04.35-1.06.77-1.44,1.29-1.19.54.27.52.86-.17,2.23ZM172.34,72.95c.16.42.33.84.5,1.3-.86.5-1.62.79-2.46-.01.36-.84.89-1.35,1.96-1.29ZM173.14,80.69c-.23.74-.73.68-1.29.74-.08-.34-.16-.68-.32-1.34.74.28,1.15.43,1.61.6ZM168.87,92.96c-.05,1.2-.57,1.74-1.65,1.73-1.09,0-1.45-.28-1.46-1.16-.02-1.28.42-1.81,1.54-1.83,1.07-.02,1.61.42,1.58,1.26ZM163.3,72.13c.41-.09.88-.34,1.29-.26.65.12,1.28.43,1.88.73.1.05.14.5.04.65-.19.25-.48.53-.77.59-.83.18-1.69.25-2.63.37.06-.67.11-1.29.18-2.08ZM159.07,71.01c-.16-.71.76-1.49,1.65-1.41.65.06,1.3.52,1.33.94.04.52-.65,1.04-1.61,1.23-.67.13-1.25-.19-1.37-.76ZM160.55,85.79c-.28.11-.72-.17-1.09-.27,0-.18,0-.36-.01-.55.81-.33,1.62-.66,2.64-1.08-.22,1.14-.84,1.62-1.55,1.9ZM161.47,97.91c1.78-.64,2.33-.41,2.45.93-1.78.58-1.92.53-2.45-.93ZM164.3,137.44c-.24.57-.74.61-1.81.23.37-.45.74-.91,1.19-1.45.45.21.92.5.62,1.22ZM162.68,116.98c-.5-.44-.54-.97-.1-1.39.59-.56,1.3-.45,2.12-.08-.42,1.04-1.15,1.32-2.01,1.47ZM163.31,79.89c1.21-.53,2.47-1.19,3.93.02-.45,1.07-.67,2.27-1.96,2.73-.73-1.01-1.33-1.86-1.97-2.76ZM165.82,100.89s-.09-.12-.13-.19c.1-.06.2-.13.31-.18.01,0,.08.12.15.23-.11.05-.22.12-.33.14ZM167.13,111.21c.36-.43.82-.83,1.36-.48.42.27.81.74,1,1.2.14.33-.06.81-.1,1.23-.61.11-1.13.2-1.6.28-1.14-1.2-1.23-1.52-.66-2.23ZM168.12,146.41c-.25-.14-.57-.58-.51-.77.18-.59.46-1.18.85-1.66.32-.4,1-.19,1.21.3.13.31.15.66.2.89-.03,1.03-.96,1.66-1.74,1.24ZM169.16,132.16c.19-.68.75-.93,1.58-.93.4.99.18,1.66-.65,2.2-.56-.27-1.13-.53-.92-1.26ZM171.46,172.15c-.11.49-.43.74-.97.56-.49-.16-.99-.31-1.66-.52.5-.92,1.14-1.18,1.91-1.09.57.07.84.48.72,1.04ZM171.2,119.04c-.16.11-.31.25-.49.31-.71.22-1.46.31-2.04.9-.13.14-.54.02-.81.02-.07-.11-.13-.22-.2-.33.34-.3.66-.62,1.02-.89.53-.4,1.1-.74,1.63-1.13.39-.29.78-.46,1.13,0,.32.43.18.82-.24,1.11ZM171.77,96.42c-.5-.51-.5-1.15-.28-1.76.08-.21.54-.51.59-.47.43.34.87.71,1.18,1.16.16.24.09.64.12,1.01-.65.36-1.14.54-1.61.06ZM175.46,119.1c.62.2,1.16.94.9,1.27-.33.42-.85.71-1.34.96-.11.06-.52-.23-.63-.44-.36-.67-.65-1.37-1.08-2.31.86.2,1.52.32,2.15.51ZM175.01,134.06c-.3-.4-.69-.73-1.12-1.17,1.11-.91,1.19-.95,2.26-1.14.23.38.51.77.73,1.19.34.64.15,1.27-.44,1.63-.56.34-.91.19-1.43-.51ZM177.56,173.63c-.29.08-.63.08-.92,0-.09-.02-.18-.51-.08-.63.22-.27.54-.56.85-.62.22-.04.5.32.9.61-.38.34-.54.58-.75.64ZM180.8,254.99c.4-.34.87-.61,1.37-.95.64.51.73,1.13.34,1.5-.32.31-.96.41-1.46.4-.52,0-.67-.6-.24-.96ZM182.88,271.82c-1.14-.38-1.27-1.02-.53-2.46.8.75.48,1.62.53,2.46ZM182.95,197.4c-.77.33-1.31,0-1.72-.79.91-1.25,1.31-1.38,2.76-.89.11.84-.32,1.36-1.04,1.67ZM185.28,213.98c1.35-1.27,1.65-1.27,2.46-.03-.78.4-1.52.47-2.46.03ZM189.12,227.9c0,.58-.61.99-1.39.96-.73-.03-1.14-.42-1.1-1.06.04-.59.43-.91,1.09-.89.79.02,1.4.45,1.39.99ZM186.63,233.02c.96.07,2.11-.4,2.64.9.36.89.02,2.28-.57,2.71-1.54,1.13-2.49,0-3.62-1.03.49-.82,1.01-1.67,1.55-2.58ZM186.6,249.46c-1.34-.68-1.34-.89-.52-2.28-.18-.26-.38-.55-.62-.9,1.59-.34,2.75.33,3.81,1.2.27.23.36.76.41,1.16.09.67.08,1.34.11,2.02-1.07-.39-2.18-.68-3.19-1.19ZM190.59,241.97c.07.56.17,1.14.13,1.7-.03.39-.18.87-.45,1.11-.17.15-.69,0-1.01-.13-.49-.18-.96-.43-1.43-.67-1.02-.53-1.24-1.09-.87-2.14.27-.79.51-1.58.8-2.48.88.09.57,1.44,1.6,1.69.18-.08.51-.22.97-.42.1.51.21.92.27,1.34ZM190.46,209.66c-1.62.92-2.67-.87-3.81-.83-.78-.72-1.42-1.3-2.11-1.94.33-1.22,1.27-1.52,3.42-.91-.03.54-.13.98-.06,1.39.11.66.39,1.28,1.22,1.18.83-.1,1.14.34,1.35,1.11ZM189,195.79c.42.88.92,1.63,2.05,2.21-1.08.41-1.53,1.4-2.69.82.13-.67.27-1.36.41-2.08-.52-.45-1.06-.92-1.63-1.42,1.07-.24,1.54-.2,1.87.47ZM188.45,200.06c-.76,1.27-1.28,1.35-1.99.45-.24-.3-.43-.64-.72-1.08,1.07-.3,1.82.19,2.71.63ZM185.84,160.26c.05-.09.28-.19.36-.15.45.24.39.56.09.91-.45-.1-.71-.29-.45-.76ZM183.82,157.62c.04.1.08.2.13.31-.27.11-.54.22-.81.33-.04-.1-.08-.2-.13-.31.27-.11.54-.22.81-.33ZM182.43,159.86c1.63-.54,1.98-.24,1.68,1.48-.06.32-.37.74-.66.84-.27.09-.82-.08-.98-.32-.33-.5-.48-1.11-.72-1.73.33-.13.5-.21.68-.27ZM182.65,171.92c-.18-.14-.37-.32-.44-.52-.26-.67-.53-1.35-.67-2.04-.06-.32.09-.75.27-1.04.72-1.16.73-2.63-.11-3.87.51-.08.96-.14,1.46-.21.07.38.16.62.16.85,0,.75.28,1.21,1.09,1.26.53.03.97.21.87.78-.86.48-1.64.9-2.4,1.37-.45.28-.71.68-.46,1.24.24.54.66.48,1.12.39.13-.02.28.05.51.09.21.45.44.92.71,1.49-.84.67-.97,1.42-.23,2.25.11.12.17.43.09.55-.45.7-.08,1.41-.1,2.11-.03,1.01.27,1.68,1.27,2.06-.57.63-1.1.43-1.57.2-.79-.38-1.57-.8-2.31-1.27-1.27-.81-1.37-1.79-.33-2.87.44-.46.93-.86,1.33-1.34.58-.69.51-.87-.25-1.46ZM182.4,180.07c.9.44,1.48.75,2.08,1,.47.2.74.51.61,1.01-.12.48-.47.56-.92.39-.86-.34-1.2.39-1.76.96-.47-.23-.98-.48-1.69-.83.73-.89.46-2.27,1.68-2.52ZM180.92,187.64c.53-.07,1.04-.14,1.55-.21.31.48.57.88.82,1.26-.82,2.11-1.07,2.23-2.59,1.16.07-.68.14-1.39.23-2.22ZM182.15,202.73c.59.53.85,1.13.45,1.91-.38.74-.9.96-2.01.78.22-1.65.52-2.15,1.55-2.69ZM181.42,240.67c.81.58,1.01,1.2.52,1.72-.36.38-.79.36-1.17.04-.45-.38-.26-.88.66-1.76ZM178.68,219.29c.65.3,1.06.6.64,1.24-.09.14-.47.26-.61.18-.64-.36-.47-.82-.04-1.42ZM177.7,160.61c-.56.05-.89-.31-.9-.9-.01-.41.08-.92.56-.81.37.08.65.55,1.1.95-.34.36-.54.73-.76.75ZM178.43,153.55c-.98.37-1.64.62-2.3.86-.11-.1-.22-.2-.33-.31.18-.51.37-1.03.61-1.71.65.37,1.17.67,2.02,1.15ZM182.76,98.13c-.76.7-1.18-.02-1.66-.47-.92.32-1.89.91-2.65-.18-.49-.69-.01-1.77,1.29-2.91-.37-.48-.74-.96-1.18-1.53.49-.33.97-.66,1.66-1.13-.47-.28-.78-.61-1.08-.61-1.22.04-1.63-.63-1.7-1.7,0-.14-.11-.26-.16-.39.68-.64,1.37-1.25,2.01-1.9.19-.19.28-.49.36-.75.27-.84.26-.84,1.25-.74.22.56.43,1.09.63,1.61.07.18.25.43.19.53-.53.91.43,2.05-.47,2.9-.12.11-.02.46-.01.7.01.53,0,1.05.06,1.58.04.36.08.78.28,1.06,1.02,1.4,1.19,1.89,1.18,3.94ZM182.39,75.61c-.42,1-1,1.31-2.08,1.13-.05,0-.1-.02-.14-.03q-1.4-.27-2.25.84c-1.14-.75-1.19-.84-.82-1.94.11-.32.2-.66.35-.96.65-1.32,1.56-1.56,2.84-.85.45.25.99.35,1.49.51.78.24.93.55.62,1.31ZM184.55,9.26c1.16-.21,1.1.92,1.82,1.38-1.34.05-1.36.03-1.82-1.38ZM190.06,24.65c-.06-.1-.11-.2-.17-.3.46-.28.93-.56,1.55-.93q-.21,1.2-1.38,1.24ZM194.92,23.93h-.86c-.01-.07-.03-.15-.04-.22.18-.06.36-.16.55-.16.14,0,.27.12.41.19-.02.07-.04.13-.05.2ZM193.39,10.12c.47-1.27,1.79-1.52,2.68-.47-.95.42-1.76.61-2.68.47ZM202.48,22.26c.11,0,.31.31.28.4-.26.7-.92.48-1.58.79.2-1.02.69-1.23,1.31-1.19ZM202.27,29.47c-.18.02-.52-.27-.55-.45-.02-.18.22-.53.41-.58.17-.05.42.21.75.39-.26.3-.42.62-.61.64ZM203.89,6.77c.18-.77.73-.52,1.17-.6-.39.2-.78.4-1.17.6ZM205.23,21.95c1.38-.74,2.81-1.28,4.54-1.14-.78,1.2-2.79,1.71-4.54,1.14ZM209,51.71c-.31-.49-.75-.9-1.27-1.5.63-.58,1.41-1.31,2.29-2.12.14.23.32.43.38.66.06.22-.02.48-.03.72-.02,1.73.21,2.07,1.76,2.64-1.11,1.15-2.24.99-3.13-.4ZM212.15,29.79c-.93.14-1.68.41-2.35,1.24-.48.6-1.48.85-2.3,1.07-.61.16-1.02-.49-1.05-1.46-.1-.72.4-.96.94-1.08,1.37-.32,2.75-.59,4.13-.88.62-.13,1.23-.27,1.86-.31.28-.02.57.21.86.32-.17.27-.28.68-.52.77-.48.19-1.03.23-1.56.31ZM215.15,39.65c-.37.14-.88-.05-1.48-.11.34-.93.61-1.65.9-2.43,1.05.43,2.04.83,3.11,1.27-.84.43-1.65.94-2.53,1.28ZM222.88,27.26c-.08.03-.24-.17-.37-.27.11-.14.2-.33.34-.39.12-.05.31.06.65.14-.3.26-.44.44-.62.52ZM224.46,15.27c-.02-.08-.04-.16-.07-.24.18-.03.36-.06.54-.09.02.05.03.11.05.16-.17.05-.35.11-.52.16ZM234.39,15.35c1.87-.62,2.14-.56,2.76.47-1.11,1.04-1.74-.14-2.76-.47ZM245.78,37.73c.94.31.44,1.23.81,2.06-1.34-.03-1.6-1.21-2.58-1.35.45-.91,1.15-.92,1.77-.71ZM242.09,35.95c.08-.3.42-.65.72-.76.45-.17,1.15.51,1.21,1.27-.15.15-.36.49-.66.62-.41.18-1.39-.67-1.27-1.13ZM243.1,41.35c.09-.61.42-.81,1.32-.68-.2.29-.37.53-.55.79.15.23.31.46.56.85-1.11-.03-1.43-.3-1.34-.96ZM246.06,44.25c.76-.58,1.31-.47,2.06-.24-.68.79-1.23.7-2.06.24ZM251.19,42.99c-.72.4-1.44.83-2.35.64-.12-.3-.26-.57-.32-.85-.17-.85.06-1.36.67-1.57.98-.34,1.84-.14,2.24.53.29.49.3.96-.24,1.26Z"/>
  <path class="cls-1" d="M18.39,61.51c-.35-.86-.99-1.13-1.85-1.02-.88,1.41-.87,1.27-2.78,1.1-1.25-.11-2.59.15-3.55,1.19.73,1.48,1.77,1.92,3.59,1.54-.04-.46-.08-.93-.12-1.39.81-.49,1.26.02,1.67.49.69.8,1.61.88,2.53.77,1.43-.17,1.71-.86.91-2.08-.13-.2-.32-.38-.41-.6Z"/>
  <path class="cls-1" d="M261.18,41.61c-1.18-.39-1.47-.79-1.46-2.04,0-.44.06-.88.13-1.31.12-.64.28-1.28.44-2.01-.58.03-1.01.06-1.4.08-.17.81-.09,1.65-.47,2.07-.98,1.09-.5,2.31-.58,3.47-.02.24.19.63.4.74.76.39,1.58.96,2.37.95.72,0,1.39-.71,1.89-1.59-.52-.14-.92-.23-1.32-.36Z"/>
  <path class="cls-1" d="M183.18,111.81c-.13,0-.25-.02-.38-.03-.09-.55-.18-1.1-.28-1.65-.14-.68-.41-1.19-1.37-.92.18.71.13,1.57.54,1.96.82.77,1.16,1.78,1.77,2.64.22.31.5.6.8.84.6.46,1.26.3,1.54-.37.28-.65.49-1.33.76-2.06-.84-.48-1.69-.97-2.57-1.47-.35.45-.58.75-.81,1.05Z"/>
  <path class="cls-1" d="M190.3,87.82c-.71-.31-1.35-.58-2.03-.88-.04-.46-.08-.88-.14-1.57-1.17.46-1.36,1.44-1.77,2.06.95,1.15,1.82,2.19,2.71,3.27,1.06-.75.89-1.85,1.23-2.88Z"/>
  <path class="cls-1" d="M189.47,114.61c.94.69,1.83.51,2.76-.09q-1.16-.95-2.31-.26c-.59-1.73,1.17-2.65,1.43-4.28-1.28.42-2.4.78-3.46,1.12-.2,1.26,1.05.92,1.42,1.58-.14.62-.65,1.33.15,1.92Z"/>
  <path class="cls-1" d="M193.37,76.92c.32.51,1.32.84,1.77.62.56-.27.67-.91.32-1.72-.13-.3-.12-.68-.3-.94-.2-.29-.51-.59-.82-.67-.18-.05-.52.3-.7.54-.26.34-.43.74-.71,1.24.15.33.26.66.44.94Z"/>
  <path class="cls-1" d="M196,94.54c-.79,1.92-.91,3.89-.38,5.88.13.49.6.34,1.03-.08-.2-.94-.42-1.95-.65-3.03,1.01-.77.3-1.79,0-2.77Z"/>
  <path class="cls-1" d="M195.85,90.9c.43-.41.72-.68,1.04-.99-1.89-.72-2.26-.73-3.61-.02.63.32,1.21.62,1.78.91.15,1.74.62,2.01,1.99,1.13-.39-.33-.78-.66-1.21-1.02Z"/>
  <path class="cls-1" d="M258.44,44.83c-.11-.05-.27.01-.46.02.1.32.18.59.28.93-.34.25-.58.43-1.06.79.83.04,1.34.07,1.84.09.15.55.3,1.01.39,1.48.08.42-.53.93.28,1.33.19-.23.49-.44.58-.72.38-1.26-.63-3.37-1.84-3.93Z"/>
  <path class="cls-1" d="M188.36,79.57c.52-.72.91-1.54,1.42-2.46-.73-.1-1.34-.18-1.91-.25-.32.81-.61,1.4-.77,2.02-.06.25.1.77.27.83.29.1.85.06.99-.14Z"/>
  <path class="cls-1" d="M194.69,70c.29.03.81-.07.87-.24.21-.57.36-1.21.33-1.8-.02-.34-.44-.65-.81-1.16-.58,1.1-1,1.88-1.45,2.72.45.22.75.45,1.06.49Z"/>
  <path class="cls-1" d="M190.41,81.8c.37-.48-.06-.9-.45-1.2-.83-.64-1.52-.16-2.56.48.77.46,1.3.89,1.9,1.08.31.1.9-.1,1.11-.36Z"/>
  <path class="cls-1" d="M244.4,18.18c.33.21.67.43.99.64.15-.13.24-.19.29-.26.34-.53.53-1.03-.1-1.52-.6-.47-1.08-.29-1.53.18-.43.44-.83.91-1.24,1.37.1.12.19.24.29.36.42-.24.85-.49,1.31-.76Z"/>
  <path class="cls-1" d="M259.18,29.17c-.56-.87-1-1.56-1.53-2.39-.45.75-1.12,1.26-.67,1.97.48.75,1.28.73,2.2.42Z"/>
  <path class="cls-1" d="M195.68,72.86c0-.23.06-.41,0-.5-.28-.39.12-1.25-.68-1.2-.21.01-.38.73-.61,1.21-.23.07-.57.18-1.22.38,1.08.92,1.79.36,2.53.11Z"/>
  <path class="cls-1" d="M190.61,257.8c-.1.37.18.84.39,1.57.86-.87,1.73-1.18,1.89-2.26-.49.08-.87.11-1.22.22-.38.11-.99.23-1.06.46Z"/>
  <path class="cls-1" d="M191.69,271.7c-.45-.08-1.04.68-.88,1.12.11.3.44.53.58.68.76-.06,1.31-.68,1.12-1.15-.12-.29-.51-.6-.82-.65Z"/>
  <path class="cls-1" d="M194.6,80.38c.26-1.05,0-1.69-.73-2.32-.18.37-.35.61-.42.88-.1.35-.29.94-.14,1.05.32.25.81.26,1.29.39Z"/>
  <path class="cls-1" d="M193.61,64.22c-.65,1.1.27,1.82.54,2.9.76-2.29.76-2.34-.54-2.9Z"/>
  <path class="cls-1" d="M185.69,71.52c-.16.94-.3,1.76-.46,2.68.86.08,1.41-.08,1.26-.69-.16-.62.35-1.55-.8-1.99Z"/>
  <path class="cls-1" d="M219.15,51.44c.75-.07,1.26-.29,1.51-.78.1-.19,0-.49-.02-.77q-1.46.47-1.5,1.55Z"/>
  <path class="cls-1" d="M11.62,59.02c.31-.37.48-.86.7-1.3-.12-.1-.24-.19-.36-.29-.38.25-.82.45-1.12.78-.16.17-.06.57-.07.87.3-.01.73.09.86-.07Z"/>
  <polygon class="cls-1" points="191.26 118.42 191.26 118.42 191.26 118.42 191.26 118.42 191.26 118.42"/>
  <path class="cls-1" d="M192.3,117.46c-.6-.32-1.09-.57-1.89-.99.36.83.61,1.39.86,1.96.65-.08,1.06-.37,1.04-.96Z"/>
  <path class="cls-1" d="M195.83,102.65c.49.17.9-.12,1.11-.76-.41-.2-.78-.37-1.26-.6-.36.65-.44,1.15.15,1.35Z"/>
  <path class="cls-1" d="M118.57,63.83c1.09-.07,1.12-.1,1.3-1.25q-.96.28-1.3,1.25Z"/>
  <path class="cls-1" d="M187.25,113.9c-.04.15.18.35.4.74.24-.44.43-.69.48-.96.02-.1-.29-.26-.45-.4-.15.2-.38.39-.43.62Z"/>
  <path class="cls-1" d="M111.83,64.99c.16-.1.18-.44.32-.84-.59.07-.99.11-1.62.18.44.66.78.97,1.3.66Z"/>
  <path class="cls-1" d="M187.02,94.81c-.09.51-.06.94.94,1.07-.26-.54-.43-.88-.59-1.22l-.34.15Z"/>
  <path class="cls-1" d="M89.83,66.86c.41.53.78.5,1.33.15-.45-.46-.8-.59-1.33-.15Z"/>
  <path class="cls-1" d="M219.79,53.95c-.45.22-.8.39-1.24.6q.99.41,1.24-.6Z"/>
  <path class="cls-1" d="M206.86,56.47c.11.37.2.66.31,1.01.57-.38.52-.7.22-1.01-.06-.06-.24,0-.53,0Z"/>
  <path class="cls-1" d="M232.59,53.47c.49.37.79.28,1.06-.26-.49-.36-.79-.28-1.06.26Z"/>
  <path class="cls-1" d="M255.31,39.84c.03.12.05.24.08.36.35-.06.71-.11,1.06-.17-.04-.15-.08-.31-.11-.46-.34.09-.69.18-1.03.27Z"/>
  <path class="cls-1" d="M242.4,14.44s0-.24,0-.37h-.73c0,.14,0,.28.01.42.24-.01.48-.01.71-.05Z"/>
  <path class="cls-1" d="M35.65,73.58c0,.13.01.25.02.38.25-.03.51-.06.76-.08,0-.09,0-.17,0-.26-.26-.01-.51-.02-.77-.03Z"/>
  <path class="cls-1" d="M198.01,68.6c-.07.28-.16.42-.12.52.04.11.18.19.28.28.07-.09.23-.22.21-.28-.05-.15-.18-.27-.37-.52Z"/>
  <path class="cls-1" d="M204.5,55.7c0,.14.09.28.15.42.1-.07.21-.14.34-.24-.07-.14-.12-.25-.18-.35-.11.06-.31.11-.31.17Z"/>
  <path class="cls-1" d="M6.24,55.3s.14.16.2.15c.12-.03.22-.12.32-.19-.08-.09-.16-.18-.29-.31-.1.15-.19.25-.23.36Z"/>
  <path class="cls-1" d="M104.98,65.36c-.03.07.09.2.2.41.17-.19.27-.3.38-.42-.09-.07-.19-.21-.28-.2-.11,0-.26.11-.3.21Z"/>
  <path class="cls-1" d="M10.02,60.37c-.11.03-.2.16-.29.24.09.07.18.22.25.21.11-.02.21-.14.37-.27-.15-.09-.26-.2-.33-.18Z"/>
  <path class="cls-1" d="M198.32,71.16c.11-.02.21-.09.32-.15-.08-.11-.16-.25-.18-.24-.11.04-.2.12-.29.19.05.07.11.2.15.19Z"/>
  <path class="cls-1" d="M216.33,3.38c-.12-.05-.22-.11-.33-.12-.04,0-.09.13-.13.21.1.06.2.13.31.16.02,0,.08-.13.15-.25Z"/>
  <path class="cls-1" d="M10.29,70.03c.06.06.11.15.19.16.05.01.13-.06.2-.09-.04-.07-.08-.15-.12-.22l-.27.15Z"/>
  <path class="cls-1" d="M242.5,5.67c-.07-.02-.14-.04-.21-.05-.02,0-.06.09-.05.1.05.06.11.1.17.15.03-.07.06-.14.09-.21Z"/>
  <path class="cls-1" d="M86.83,5.13c-.06-.05-.12-.1-.19-.14,0,0-.08.07-.08.09.02.07.06.14.1.2.05-.05.11-.1.16-.16Z"/>
  <path class="cls-1" d="M214.76,3.48c-.08-.02-.15-.05-.23-.06-.02,0-.07.09-.06.1.05.06.11.1.17.15.04-.06.08-.13.12-.19Z"/>
</svg>