<?xml version="1.0" encoding="UTF-8"?>
<svg id="Layer_1" data-name="Layer 1" xmlns="http://www.w3.org/2000/svg" viewBox="0 0 444.04 500">
  <defs>
    <style>
      .cls-1 {
        fill: #488cca;
        stroke-width: 0px;
      }
    </style>
  </defs>
  <path class="cls-1" d="M409.04,153.99c.1-.38.14-.82.3-1.14,2.27-4.36,3.45-8.95,1.5-14.58,1.75.15,2.94.25,4.15.36,1.4-2.63,1.51-5.37.74-8.13-.86-3.08-.94-5.91,1.21-8.14-2.78-4.29-2.68-4.88-.67-8.66,1.13-2.12,1.98-4.6,2.5-7.07.74-3.5,1.97-5.74,5.14-5.95,1.72-.11,3.4-.98,5.07-1.5,2.32,5.04,2.15,5.66-1.48,8.78-.83.72-1.5,2.04-1.85,3.27-.53,1.86-.73,3.87-1.15,6.32,1.96,1.84,3.96,3.72,6.53,6.13.71,2.82-1.03,5.78-2.13,8.76-1.12,3.05-3.05,5.67-2.73,9.88,1.08-.4,2.04-.75,3.21-1.18.36,1.88.74,3.89,1.09,5.71-1.97,3.62-3.45-.72-5.51-.02-1.08,3.49-3.84,6.92-.42,11.02l-.07-.07c-1.76,3.55-3.51,7.1-5.86,11.85,0-2.18-.14-3.2.02-4.13,1.14-6.69,2.57-13.32,3.46-20.06.59-4.47.44-9.1.62-13.66-.44-.06-.88-.13-1.32-.19-1.15,7.27-2.28,14.55-3.46,21.82-1.18,7.27-2.47,14.51-3.58,21.8-1.12,7.4-2.07,14.85-2.28,22.66.64-1.26,1.87-2.57,1.8-3.76-.29-4.79,2.1-8.69,2.43-13.22.25-3.56,1.44-6.47,3.72-8.55,2.16.67,2.15,2.52,1.78,4.35-1.82,8.97-2.14,18.37-5.05,27.03-.54,1.62-.75,3.42-1.12,5.22,1.33,1.02,2.38,1.83,3.87,2.97-.76,2.47-1.48,4.82-2.48,8.07-.48-2.09-.79-3.43-1.32-5.73-4.19,4.4-2.05,10.41-3.82,14.67-1.86,4.51-2.73,9.11-2.21,14.38.82.2,1.71.41,2.65.64.03.65.09,1.25.06,1.83-.15,2.82-.15,5.67-.52,8.44-.84,6.38-2.46,12.38-5.36,17.87-1.55,2.94-2.88,2.5-4.58.82-.8-4.15,3.73-6.26,2.24-11.29-.96,1.89-1.52,3.27-2.3,4.42-.59.88-1.39,1.92-2.2,2.11-1.42.32-3.07-.06-3.65,2.1-.76,2.82-2.06,5.86-1.77,8.58.65,6.2-.35,11.5-3.05,16.64-2.64,5.04-5.13,10.24-7.36,15.59-1.53,3.66-3.26,7.59-.24,11.69.53.72.56,2.92.07,3.75-3.56,6.12-5.67,13.63-10.94,18.13-.5.43-.89,1.17-1.19,1.86-1.64,3.86-3.03,7.93-4.92,11.58-1.83,3.53-4.17,6.65-5.91,9.37-2.22.76-4.43.72-5.56,2.08-1.91,2.31-3.14,5.5-4.64,8.33-.08.15-.08.4-.05.59.22,1.91,1.18,4.36.57,5.63-2.89,6-6.11,11.77-9.43,17.43-1.4,2.38-3.45,4.13-5,6.39-5.24,7.65-12.27,12.36-18.7,18.04-.78.69-2.07.43-3.12.66-3.02.65-6.11,1.12-7.44,5.47-.27.88-.81,1.87-1.45,2.31-6.13,4.27-12.01,9.24-20.03,11.3,5.26-5.18,9.32-10.33,13.01-15.97-2.29-2.45-3.27-.68-4.29.45-3.36,3.72-6.72,7.46-10.02,11.27-1.8,2.08-3.75,3.44-6.17,4.37-2.13.82-3.85,3.29-5.74,5.04-5.17,4.79-10.18,9.87-15.52,14.33-18.58,15.53-39.26,25.04-60.65,32.19-10.9,3.64-22.09,3.68-32.9-.68-23.21-9.35-44.68-22.91-63.34-42.85-3.41-3.64-6.61-7.58-9.92-11.37-.83-.95-1.67-1.89-2.54-2.77-1.97-1.99-4.2-3.67-5.9-5.97-4.58-6.19-8.76-12.85-13.44-18.91-3.79-4.91-5.76-11.4-9.61-16.17-.78-1.08-1.56-2.16-2.34-3.25-1.45-3.23-1.97-7.22-5.28-8.88-.67-.34-.82-2.44-1.14-3.76-.87-3.61-1.29-7.5-4.29-9.64-.51-.36-1-1.08-1.2-1.78-1.77-6.2-3.28-12.52-5.27-18.6-1.01-3.08-2.77-5.8-4.34-8.55-1.31-2.28-2.22-4.23-2.24-7.48-.02-3.13-1.96-6.59-3.71-9.22-.96-1.45-1.29-2.98-1.98-4.35-2.49-4.96-1.52-11.48-5.14-16.02-1.57-1.96-1.97-5.42-2.83-8.24-5.95-19.31-11.88-38.64-17.84-57.95-1.46-4.75-2.11-9.18,1.14-13.46,1.96-2.58,3.57-5.68,4.97-8.8.98-2.19,1.35-4.81,2.19-8.01,2.2-1.54,3.36-4.69,4.33-8.58.96-3.85,3.29-7.24,5.29-10.57,1.42-2.36,3.17-4.48,5.02-6.32.86-.86,2.3-1.09,3.47-1.07,1.21.02,2.41.68,4.2,1.25,0-4.1.03-7.66-.01-11.21-.04-2.88.65-5.01,2.99-6.2,1.1-.56,2.24-1.7,2.85-2.96,1.63-3.36,2.98-6.94,4.46-10.42.22-.52.44-1.22.81-1.43,2.81-1.6,5.66-3.11,8.78-4.79.52-1.47,1.16-3.3,1.81-5.16,3.68-2.2,5.95,1.32,8.43,3.75,1.24-5.06,2.59-9.53,3.42-14.14,1.28-7.12,4.05-12.63,9.86-16.2,1.46,1.65,3.07,3.47,4.86,5.5,1.9-2.12,2.56-4.87,2.85-7.92.87-8.99,3.17-12.09,10.43-14.37.58-.18,1.1-.63,1.98-1.16,3.1,9.26,6.1,18.22,9.1,27.19,2.14-10.93.67-21.68.62-33.05,3.02.8,3.9,3.24,4.67,5.84,3.59,12.13,6.62,24.43,8.1,37.29,1.13,9.78,2.5,19.52,3.87,29.25,1.46,10.32,2.82,20.68,4.62,30.91,4.83,27.57,13.11,53.5,23.45,78.56,11.98,29.04,28.86,52.85,48.62,73.65,7.91,8.33,16.9,14.72,26.31,20.15,8.47,4.88,17.22,4.79,26,2.18,21.65-6.43,38.99-21.43,53.18-42.59,2.08-3.11,3.07-6.63,3.44-10.46,1.07-11.21,1.93-22.46,3.03-33.67.98-10.01,2.19-19.98,3.27-29.98,1.85-17.19,3.81-34.36,5.47-51.57,1.29-13.41,2.29-26.87,3.24-40.33.34-4.79-.2-9.7.3-14.45,1.1-10.38,2.54-20.72,4.01-31.03.6-4.23.85-8.26,0-12.53-1.21-6.08-2.15-12.35.39-18.32.73-1.72,1.73-3.41,2.92-4.64,4.21-4.35,8.74-8.24,12.8-12.79,4.66-5.22,9.04-10.86,13.39-16.5,4.12-5.35,7.76-11.33,12.16-16.28,3.41-3.84,7.63-6.57,11.54-9.69.93-.74,2.17-.86,3.09-1.6,1.32-1.06,2.49-2.42,4-3.93-.8-1.34-1.51-2.53-2.22-3.72,5.82-12.94,16.55-20.63,32.1-14.18.14.36.45.8.38,1.06-1.44,5.08-.21,9.09,3.15,12.14,5.19,4.71,8.14,11.68,11.8,17.93.55.94,1.04,2.08,1.8,2.64,4.95,3.66,6.11,7.41,4,13.62-.63,1.85-1.48,3.58-2.07,5.44-.42,1.34-.58,2.82-.86,4.23,1.03.19,2.07.4,3.1.58.44.08.89.11,1.33.17-.62,6.8-.94,6.96-7.98,3.79-1.4,4.68-4.19,8.78-2.63,14.5,1.05,3.84,1.33,7.56-2.83,9.24-.81.33-1.23,2.21-2.41,4.53.07-6.28-1.39-10.16-5.99-10.72-1.31-4.01-2-8.75-7.08-9-.44,1.9-.93,3.74-1.3,5.63-1.2,6.22-3.32,8.42-8.35,8.63-1.81.07-4.06-.83-4.4,2.76.24.46.35.97.58,1.09,4.59,2.45,4.95,3.33,2.11,8.1-1.49,2.51-1.66,4.57-.1,7.68,1.49-3.11,1.81-7,4.99-7.83,2.65,8-3.19,14.04-3.08,21.73,1.12-.65,2.05-1.19,3.77-2.2.03,2.35.52,4.3,0,5.57-1.35,3.25-1.06,6.64-1.17,10.01-.12,3.75.11,7.18-2.39,10.54-2.06,2.77-1.64,7.12.76,9.81-1.56,4.12-3.06,7.77-4.32,11.55-.47,1.41-.33,3.13-.53,4.69-.23,1.74-.2,3.72-.88,5.14-1.68,3.48-2.24,6.7.58,10.08-2.54,2.55-2.96,5.46-2.17,9.09.57,2.61.65,5.44-.64,8.18-.7,1.5-.44,3.71-.62,5.6.35.14.7.27,1.05.41.6-1.25,1.45-2.41,1.75-3.76.88-4.05,1.64-8.16,2.27-12.28.41-2.66,1.06-4.55,3.58-4.04,1.21,2.92-3.42,5.32.14,8.38.94-2.29,1.84-4.48,2.91-7.08-5.18-5.84-4-12.95-2.52-20.14.52-2.54.76-5.17,1.39-7.66.88-3.5,2.06-6.85,5.17-8.2-.73,3.48-1.43,6.98-2.21,10.44-.43,1.91-.41,3.48,1.23,4.4,3.31-4.37,3.48-7.6.91-14.78ZM392.41,269.01c3.32-4.16,3.35-4.37,1.06-8.17-.34,2.85-.67,5.54-.99,8.24-.63,1.53-2.12,2.83-.38,6.08.14-2.83.22-4.48.3-6.14ZM327.77,410.84c4.33.22,4.8-.14,6.11-5.39-2.18,2.3-5.36,1.44-6.04,5.48-1.6.61-2.86,1.54-1.87,4.4.6-1.49,1.2-2.99,1.8-4.48ZM385.39,114.24c.9-3.69,1.22-6.97,2.45-9.56,1.91-4.02,1.77-8.04,1.21-12.41-1,1.34-1.64,2.83-2.1,4.41-1.3,4.45-2.44,8.98-3.83,13.38-.99,3.15.27,3.81,2.27,4.18ZM406.55,261.13c4.55-2.03,2.39-6.68,3.18-9.84.6-2.39.2-4.64-2.26-5.87-.3,5.17-.58,9.91-.92,15.7ZM408.91,207.6c-3.63,5.16-3.92,6.77-1.77,10.62-.83-3.84,4.9-5.29,1.77-10.62ZM399.76,135.5c.47-3.1.94-5.35,1.08-7.63.04-.58-.89-1.5-1.51-1.79-.32-.15-1.23.63-1.39,1.2-.75,2.71-.8,5.31,1.83,8.22ZM385.91,297.65c3.6-6.21,4.6-10.2,3.55-13.94-1.15,4.55-4.05,7.79-3.55,13.94ZM421.1,67.51c1.14,3.03,2.04,5.42,2.94,7.81.33-.1.67-.2,1-.3.38-2.18.76-4.37,1.19-6.84-1.81-.24-3.04-.4-5.13-.67ZM405.24,223.51c-2.57.66-3.23,2.34-2.4,4.48.79,2.04,2.13,3.51,4.45,1.17-.7-1.92-1.37-3.78-2.05-5.64ZM389.68,31.95q-2.15,2.93-1.51,6.6c2.3-1.38,2.94-3.17,1.51-6.6ZM395.98,144.35c.42.12.85.23,1.27.35,1.42-1.71,1.34-3.63-.39-5.87l-.89,5.52ZM379.82,321.58c-.68,2.31-1.14,3.88-1.8,6.11q3.38-1.64,1.8-6.11ZM432,54.45c1.7-2.11,3.29-3.15,1.91-6.25-1.91,1.2-2.92,2.49-1.91,6.25ZM387.69,275.97c-.42-.28-.84-.55-1.26-.83-.75,1.49-2.46,2.5-.81,6.31.92-2.43,1.49-3.96,2.07-5.49ZM399.42,226.33c.51-2.96.94-4.83-.5-7.05-.99,2.48-1.84,4.33.5,7.05ZM394.23,251.27c.45-.11.91-.22,1.37-.33-.22-1.09-.44-2.18-.66-3.27-.33.09-.65.18-.98.28.09,1.11.18,2.22.27,3.33ZM348.41,381.01c-1.37,1.03-2.28,2.13-.47,4.69.22-2.21.35-3.45.47-4.69ZM399.84,208.04c.38.04.75.09,1.13.13v-3.53c-.2-.03-.41-.05-.61-.08-.17,1.16-.34,2.32-.52,3.49ZM337.88,396.27c-.23.22-.45.44-.68.66.04.38,0,1.02.15,1.1.45.25.97.28,1.47.4-.31-.72-.62-1.43-.93-2.15ZM381.22,133.62c.28.28.59.58.89.89.14-.32.47-.73.4-.94-.14-.43-.49-.74-.76-1.1-.15.32-.29.63-.53,1.15ZM359.74,361.63c.87.78,1.27,1.21,1.31,1.16.3-.37.54-.82.8-1.25-.23-.21-.49-.61-.69-.57-.44.08-.86.38-1.42.66ZM422.77,124.79c.1.36.13.81.33,1.03.1.11.5-.19.76-.3-.15-.48-.29-.96-.44-1.45-.22.24-.43.47-.65.71Z"/>
  <path class="cls-1" d="M418.67,258.23c.08-5.58.03-11.17.28-16.74.12-2.73.8-5.43,1.58-8.08.18,8.36,1.37,16.81-1.93,24.75l.07.08Z"/>
  <path class="cls-1" d="M402.74,278.61c1.69,5.81.84,9.07-3.74,15.51,1.65-4.74.03-10.63,3.74-15.51Z"/>
  <path class="cls-1" d="M418.6,258.15c.1,2.67-.13,5.2-2.35,7.76-1.03-1.66-1.95-3.13-3.01-4.83,2.27-1.19,3.85-2.02,5.44-2.86,0,0-.07-.08-.07-.08Z"/>
  <path class="cls-1" d="M437.09,140.23c-2.38-2.92-2.04-5.29-1-8.36,2.39,2.4,2.07,4.81,1,8.36Z"/>
  <path class="cls-1" d="M444.04,58.92c-1.56-2.48-2.61-4.16-3.72-5.92,3.37-.74,3.7-.27,3.72,5.92Z"/>
  <path class="cls-1" d="M387.74,310.3c1.04-3.24,2.07-6.48,3.11-9.71.38.06.76.12,1.14.18,0,1.06.34,2.43-.06,3.14-1.27,2.24-2.81,4.23-4.25,6.32,0,0,.07.08.07.08Z"/>
  <path class="cls-1" d="M424.55,157.84c.13-2.62.25-5.24.38-7.86,2.67,3.18,1.58,5.59-.45,7.78,0,0,.07.08.07.08Z"/>
  <path class="cls-1" d="M419.17,206.06c.54-1.6,1.08-3.21,1.63-4.81,1.05,2.38.8,4.12-1.63,4.81Z"/>
  <path class="cls-1" d="M424.73,95.46c.48-1.25.95-2.5,1.78-4.68,1.34,3.46.18,4.31-1.78,4.68Z"/>
  <path class="cls-1" d="M413.04,235.56c.55.89,1.09,1.4,1.03,1.74-.12.64-.58,1.17-.9,1.75-.3-.39-.85-.78-.84-1.17,0-.64.37-1.27.72-2.32Z"/>
  <path class="cls-1" d="M393.09,309.77v-2.61c.22,0,.45,0,.67,0v2.61c-.22,0-.45,0-.67,0Z"/>
  <path class="cls-1" d="M355.21,375c.44-.94.87-1.87,1.31-2.81.23.14.46.28.69.42-.3.96-.6,1.93-.9,2.89-.37-.17-.73-.34-1.1-.51Z"/>
  <path class="cls-1" d="M56.48,395.37c.78,1.08,1.56,2.16,2.34,3.25-.42.32-.83.64-1.25.96-.37-1.4-.73-2.8-1.1-4.2Z"/>
  <path class="cls-1" d="M412.6,272.57c-.13-.66-.27-1.32-.4-1.98l.6-.31c.23.62.45,1.25.68,1.87-.29.14-.58.28-.88.42Z"/>
  <path class="cls-1" d="M416.5,224.33c-.65,1.1-.99,1.68-1.33,2.26-.03-.58-.11-1.16-.05-1.73.02-.14.49-.2,1.38-.54Z"/>
  <path class="cls-1" d="M387.68,310.22c-.41,1.41-.82,2.81-1.23,4.22-.88-2.19.49-2.99,1.3-4.13,0,0-.07-.08-.07-.08Z"/>
  <path class="cls-1" d="M386,319.82c.6-.34,1.19-.69,1.79-1.03.1.26.2.51.3.77-.59.37-1.17.75-1.76,1.12-.11-.29-.22-.58-.34-.87Z"/>
  <path class="cls-1" d="M429.32,159.24c.18.24.49.47.5.71,0,.32-.23.64-.36.96-.24-.29-.55-.53-.69-.89-.05-.11.34-.5.55-.78Z"/>
</svg>