<?xml version="1.0" encoding="UTF-8"?>
<svg id="Layer_1" data-name="Layer 1" xmlns="http://www.w3.org/2000/svg" viewBox="0 0 257.69 500">
  <defs>
    <style>
      .cls-1 {
        fill: #488cca;
        stroke-width: 0px;
      }
    </style>
  </defs>
  <path class="cls-1" d="M151.75,214.7c.42.3.91.54,1.26.92.54.59.99.62,1.32-.1.42-.91.89-1.83.18-2.85-.16-.22,0-.67.02-1.01.04-1.21.08-2.41.1-3.62,0-.23-.19-.53-.1-.67,1.53-2.46.94-5.3,1.48-7.93.11-.54.26-1.07.39-1.6.13.02.26.04.39.06-.12.79-.26,1.58-.37,2.37-.17,1.26-.35,2.52-.48,3.79-.06.61-.03,1.23-.03,1.85,0,.48.23,1.06.03,1.41-.75,1.29-.26,2.66.34,3.52.94,1.35.61,2.68.73,4.15-.41-.06-.8-.11-1.18-.16-.61,2.04-.54,2.1,1.46,2.3.5.05.96.4,1.45.61.92.39,1.82.74,2.08-.91l.27.53c.71-.42,1.42-.85,2.15-1.25,1.03-.57,2.04-1.18,3.12-1.64,1-.42,2.08-.66,3.17-.99.04.64.07,1.14.1,1.65.11.04.22.09.33.13.53-2.3,2.03-2.29,3.8-1.85.51.13,1.11-.13,2.02-.26-.41-2.1-.78-4.19-1.24-6.25-.07-.33-.57-.57-.87-.84l.02.02c.16-.39.33-.78.55-1.31-.44.04-.82.07-1.09.1-.07-1.37-.14-2.7-.22-4.33.94,1.46,1.67,2.57,2.45,3.78.62-.2.99-.52.6-1.38-.97-2.15.43-3.76.97-5.58.25-.85.59-1.67,1.06-2.58v2.88c.13.03.25.05.38.08.46-.51.92-1.01,1.38-1.52-.77-.8-.81-3.28-.05-4.06-.74-.61-1.25-1.28-.16-2.04.07-.05.18-.19.17-.22-.86-1.44.03-2.94-.18-4.38-.16-1.09-.94-1.16-2.56-.42.39-1.71.78-3.41,1.17-5.12.31-1.34.8-2.66.88-4.01.15-2.3.04-4.62.04-6.93q-1.23,0-1.2,1.46c-.32-.08-.63-.16-1.21-.31.44.71.74,1.17,1.1,1.75h-1.77c.59.52,1.02.77,1.26,1.14.26.4.35.91.52,1.37-.43.06-.88.06-1.28.21-.53.2-1.02.51-1.72.86,1.1.42,1.89.72,2.72,1.04-1.06,1.55-.35,3.9-2.97,4.42,1.78,1.97.05,3.72.06,5.57,0,.53.22,1.05.34,1.58.41-.36.82-.73,1.36-1.2.72,1.08-.37,1.81-.79,2.74-.45-.23-.84-.42-1.22-.61h.02c-.27-.32-.48-.73-.82-.97-2.67-1.9-1.57-4.6-1.34-6.99.26-2.67,1.15-5.27,1.41-7.94.35-3.58.33-7.19.53-10.78.04-.64.33-1.28.56-1.9.67-1.78.42-3.68.72-5.51.26-1.62.69-3.22,1.14-4.81.48-1.72,1.17-3.39,1.55-5.13.24-1.11.11-2.3.09-3.45-.02-1.46.46-1.85,1.88-1.54-.31,1.78-.57,3.56-.97,5.31-.13.55-.66,1-.64,1.5-.37,2.2-.81,4.4-1.1,6.61-.31,2.34-.49,4.69-.74,7.24.37-.22.69-.4,1.01-.59.06.25.12.5.18.75.11,0,.22,0,.32-.01v-2.4c.22.01.52.03.83.04l-.02-.02v3.78c.11.01.22.02.33.03.24-1.1.47-2.21.71-3.31.19-.02.39-.05.58-.07.13.58.4,1.17.35,1.74-.15,1.57-.47,3.13-.62,4.71-.02.24.51.54.85.87-.19.22-.47.53-.91,1.05.68.08,1.23.14,1.78.21-.02-.63.08-1.3-.11-1.88-.24-.74-.77-1.37.34-1.88.16-.07.21-.89.02-1.17-1.02-1.49-.32-2.6.56-3.83.43-.6.49-1.48.78-2.48-.59.13-.91.19-1.59.34-.09-1.53-.18-2.98-.29-4.7,2.25,1.44,2.53,1.21,2.76-1.68-1.15-1.09-1.13.55-2.03.93.29-1.54.62-2.85.74-4.18.08-.95-.12-1.92-.2-2.89l-.02.02c.75-.68.69-1.38.14-2.17-.2-.29-.38-.72-.33-1.04.17-1.02.96-2.29.59-2.97-.65-1.21.21-2.13,0-3.16-.05-.27,0-.59.08-.85,1.2-3.55,2.44-7.08,3.62-10.63.5-1.53.84-3.11,1.32-4.65.22-.72.74-1.35.89-2.08.3-1.44.43-2.92.65-4.38.05-.33.09-.69.25-.96.76-1.29,1.56-2.55,2.36-3.84.12.37.27.83.43,1.32,1.11-.71,1.9-3.36,1.25-4.71-.53.71-.97,1.31-1.57,2.11-.08-1.29.37-2.08,1.09-2.89.44-.49.63-1.24.86-1.9.22-.66.4-1.36.51-2.05.13-.88.17-1.77.27-2.9-2.43,1.48-1.74,3.48-1.57,5.62-1.31-1.45-1.87.18-2.95.28.59-1.41.95-2.84,1.73-3.98,1.58-2.29,1.87-4.91,2.48-7.49.5-2.1,1.34-4.13,2.02-6.19.17.02.35.05.52.07-.05.64.14,1.45-.18,1.89-.97,1.31-1.23,2.7-1.25,4.29,0,.92-.6,1.83-.8,2.77-.11.54.03,1.13.06,1.85.44-.14.76-.25.86-.28.19.59.37,1.13.54,1.67.69-.31,1.53-.46,2.01-.97.57-.6.74-1.64,1.95-1.11.1.04.44-.2.48-.36.04-.17-.1-.51-.24-.57-.41-.17-.85-.25-1.29-.31-.09-.01-.21.22-.51.54v-1.85h-1.33c.56-.89,1-1.6,1.61-2.56.16.53.18.66.24.78.23.49.46.98.7,1.47.16-.48.34-.95.48-1.44.09-.32,0-.71.16-.97,1.47-2.48,1-5.14.82-7.79-.05-.76.1-1.55.23-2.31.11-.65.36-1.28.45-1.93.17-1.3.27-2.61.4-3.89,1.75-.19,2.18-.93,1.79-2.55-.14-.59.1-1.27.19-1.91.09-.69.24-1.38.27-2.08.05-.95-.32-1.44-1.4-1.54-.76-.07-1.48-.61-2.08-.87.57-1.72,1.15-3.31,1.59-4.94.09-.35-.2-.98-.52-1.19-.21-.14-.84.13-1.16.38-.52.42-.89,1.02-1.4,1.44-.45.37-1.16.95-1.48.81-.53-.24-.85-.97-1.32-1.59,2.21-.55,2.26-.69,1.17-2.48-.52-.86.32-2.77,1.36-3.45,1.24-.8,2.28-1.79,2.06-3.51-.12-.94.32-1.6,1.27-1.78.27-.05.83.15.84.28.11,1.07.88,2.21-.2,3.2.92,1.3.74,1.88-.84,2.28-.72.18-1.01.4-1.06,1.21-.03.49-.64.95-1.14,1.64h1.73c.45.9,1.12,1.76,2.27.89.65-.5,1.36-1.28,1.45-2.01.07-.57-.76-1.26-1.19-1.91.11-.03.2-.09.28-.07.49.07.98.16,1.47.25-.02-.59-.06-1.19-.07-1.78-.01-.67,0-1.34.18-2.04-.72-.97-.82-2.62-2.53-2.93-.23-.04-.58-1.3-.35-1.62.82-1.16.55-1.63-.75-1.79-.14-.02-.36-.09-.38-.17-.41-2.07-2.83-2.33-3.62-4.05-.53-1.16-1.52-1.56-2.69-1.55-.85.01-1.73.08-2.55.3-.42.11-.73.62-1.33,1.38-.22-.37-.39-.78-.65-1.12-1-1.25-1.93-2.55-3.61-3.09-.64-.21-1.11-.92-1.67-1.41-.97,1.01-2,.96-3.2-.48,2.57,1.31,2.66-1.68,4.55-1.95.07.04.42.23.88.48.09-.53.11-.96.26-1.35.1-.28.33-.61.59-.7.71-.26,1.46-.42,2.19-.62-.27-1.01-.44-1.67-.62-2.32.15-.1.3-.21.45-.31.13.33.25.65.38.98.16-.03.32-.07.48-.1.12-.85.15-1.72.41-2.53.13-.42.83-1.09.96-1.02,1.14.57,2.79-.42,3.58,1.15.05.09.24.11.48.21v-3.36q1.74.01,1.35-2.68c.47.14.84.36,1.21.35.42-.02.89-.17,1.25-.39.54-.33,1.01-.78,1.42-1.31,1-.83,1.91-2.19,3.01-2.38,2.21-.38,3.31-2.12,4.98-3.13,1.33-.81,2.64-1.64,3.96-2.47.53-.33,1.12-.6,1.55-1.03,2.43-2.38,5.13-4.47,8.37-5.4,3.24-.92,6.43-2.79,9.97-1.87,1.98.52,3.8.39,5.73,0,1.49-.3,1.52-.18,2-1.9.7.79,1.36,1.38,1.81,2.1.63,1.01,1.04,2.15,1.67,3.17.64,1.03.78,1.86-.84,2.6,2.18.62,2.45,2.23,3.09,3.76.64,1.54,1.92,2.81,2.88,4.23.96,1.4,1.85,2.84,2.81,4.24.59.86,1.3,1.65,1.84,2.54.54.88.98,1.84,1.35,2.8.12.32-.13.78-.18,1.04-.96-.76-1.85-1.35-2.58-2.09-.59-.6-.9-1.47-1.46-2.1-.91-1.03-1.88-2.03-2.93-2.92-.77-.65-2.41-.04-3.63,1.17-.13.13-.29.37-.42.36-1.39-.07-2.22.44-2.25,1.94,0,.05-.33.09-.57.15-.44-1.16-.11-2.08.76-2.72,1.66-1.23,1.19-3.09,1.46-4.72.05-.28-.39-.63-.49-.78-1.05,1.03-1.88,2.04-2.9,2.79-.92.67-2.05,1.06-3.3,1.69.1.41.24,1.02.41,1.76-1.28.09-2.18.61-1.92,2.09.19,1.08-.44,2.19.52,3.27,1.31,1.47-.57,1.53-1.19,2.27v-1.97c-.6.39-1.2.79-1.8,1.18,0,.17-.02.34-.03.52.66.3,1.46.99,1.94.81,1.19-.45,2.87-.61,2.88-2.49,0-1.25-.18-2.5-.1-3.74.06-.96.42-1.9.64-2.84.12-.02.25-.03.37-.05.17.43.34.87.52,1.32.36.03.79.08,1.23.12-.13.42-.18.91-.42,1.26-.73,1.09-1.66,2.12-.03,3.24.16.11.11.53.2,1.12.54-.88.92-1.55,1.36-2.17.19-.26.53-.4.8-.6.09.38.29.77.25,1.15-.05.57-.25,1.12-.41,1.68-.44,1.54,1.36,1.79,1.69,3.02-.82.37-1.63,1.47-2.22-.34-.08-.24-.66-.54-.9-.46-1.74.58-3.77.51-4.84,2.59-.57,1.1-1.76,1.88-2.78,2.92,2.87,1.29,1.15,3.44,1.33,5.17.13.06.25.12.38.18.37-.59.77-1.17,1.09-1.78.2-.38.2-.86.42-1.22.19-.32.56-.52.85-.78.16.32.36.63.47.97.06.18-.04.4-.07.66.75-1.12,1.44-2.16,2.14-3.21.17.1.33.19.5.29-.45,1.2-.89,2.4-1.25,3.36-1.39,1.6-2.66,3.06-3.93,4.52-.4-.43-.87-.93-1.33-1.44-1.36,1.26-1.33,1.37.04,2.26.91.6,1.15,1.38.23,2.33,1.23.52,1.3.97.13,1.64-.72.41-1.22,1.2-1.84,1.8-.41.39-.82.82-1.31,1.08-.7.36-1.47.49-1.04,1.64.1.28-.53,1.16-.89,1.19-.43.05-.93-.5-1.56-.89-.41.72-.56,1.34.67,1.6,2.1.45,2.41,1.13,1.34,2.97-.33.57-.74,1.09-1.2,1.78-.39-.42-.66-.8-1.03-1.06-.26-.18-.65-.2-.98-.28.01.31-.1.72.06.91.73.87.86,1.49.03,2.55-.73.94-.84,2.37-1.32,3.88.52-.41.79-.62,1.05-.83.1.06.2.13.3.19-1.13,1.88-2.25,3.76-3.41,5.7,1.34.45,2.48-.66,3.39-3.1.47.71.89,1.37,1.1,1.69-1.4,2.81-2.7,5.41-3.99,8.01-.2-.09-.39-.17-.59-.26.33-.79.67-1.59,1.05-2.51-.42-.04-.77-.08-1.22-.12.13-.32.26-.63.43-1.05-1.22-.08-1.29.63-1.35,1.42-.06.66-.09,1.38-.37,1.96-.74,1.58-1.47,3.08-.49,4.87.23.43.06,1.13-.04,1.69-.19,1.13-.46,2.24-.67,3.36-.22,1.14.49,1.29,1.36,1.25-.13.48-.25.96-.38,1.44.11.11.22.22.33.33.37-.31.97-.58,1.05-.95.14-.64-.23-1.11-1.03-.8.18-1.2.3-2.34,2.03-2.41.4-.02.87-1.21,1.1-1.93.52-1.56.79-3.2,1.4-4.71.22-.55,1.12-.82,1.7-1.22.16.15.32.31.47.46-.79,1.07-1.58,2.13-2.49,3.36.53.11.82.17,1.17.25-.06.18-.12.36-.19.52-.44,1.11-.84,2.23-1.33,3.31-.15.33-.68.49-.82.82-.4.91-.81,1.85-.99,2.82-.25,1.34-1.2,2.04-2.54,1.64-.5-.15-1-.33-1.5-.48-.07-.02-.18.05-.26.08.45,1.88,1.03,2.18,2.75,1.51.71-.28,1.44-.48,2.08-.69.12-.91.22-1.73.35-2.74,1.71.88.67,4.07,3.63,3.44.07.2.2.58.33.95h.32c0-.55.07-1.11-.02-1.65-.1-.56-.36-1.08-.54-1.62.18-.13.37-.25.55-.38.21.4.41.79.67,1.28.59-1.16,1.01-2.2,1.64-3.09.23-.32.97-.27,1.48-.38-.13.39-.21.8-.39,1.16-.26.5-.71.93-.87,1.46-.31,1.07-.48,2.18-.73,3.4.58-.19,1.11-.36,2.05-.66-.4.97-.96,1.65-.82,2.12.73,2.46-.77,4.46-1.21,6.67-.46,2.28-1.22,4.5-1.83,6.75-.78,2.87-1.55,5.74-2.29,8.62-.89,3.46-1.78,6.91-2.59,10.39-.59,2.53-1.04,5.1-1.61,7.63-.57,2.59-1.28,5.15-1.8,7.75-.47,2.37-.83,4.77-1.12,7.17-.48,3.95-.88,7.9-1.3,11.85-.44,4.09-.78,8.2-1.32,12.28-.27,2-1,3.93-1.34,5.92-.3,1.76-.97,3.35-1.74,4.93-.14.3,0,.75.05,1.13.1.72.52,1.32-.2,2.12-.42.46.08,1.34,1,1.53.26.05.66.34.67.54.01.26-.25.71-.47.77-.67.17-1.39.19-2.08.26-.34.03-.68.04-1.02.05-.02.12-.05.25-.07.37.48.35.96.7,1.49,1.09-.36.2-.67.38-1.08.6.27.45.5.84.77,1.31-.38.25-.75.45-1.06.71-1.13.95-1.2,2.37-.25,3.41.32.35.53.83.67,1.29.13.41.09.87.12,1.21-.8.65-1.6,1.29-2.4,1.94.09.12.18.24.27.37.32-.22.63-.44,1.21-.85.06.76.14,1.29.14,1.82,0,.38-.24.82-.12,1.13.54,1.39.46,2.45-1.38,2.73.74.66,1.3,1.14,1.84,1.66.16.16.36.51.3.62-.88,1.39.37,2.18.77,3.26.42,1.11.33,2.41.48,3.63.03.28.07.74.22.8,1.66.64,1.14,2.06,1.1,3.2-.09,2.47-.44,4.82-1.55,7.2-.74,1.58-2.01,2.79-2.56,4.46-.24.73-1.23,1.18-1.74,1.85-.42.54-.7,1.22-.93,1.87-.48,1.37-.81,2.8-1.34,4.14-.35.88-.95,1.66-1.44,2.49-.23-.18-.46-.36-.68-.54.17.12.34.23.29.2-.41,1.16-.84,2.22-1.16,3.31-.39,1.34-.68,2.71-1.08,4.33.54-.42.88-.68,1.56-1.2-.51,1.33-.65,2.31-1.97,2.57-.45.09-.78.83-1.28,1.41-.1-.02-.44-.09-.82-.16.02,1.04.39,1.71,1.37,1.27.7-.31,1.14-.52,1.45.33.29.79.04,1.31-.8,1.51-.08.02-.16.1-.23.15.81,2.55-.57,6.88-2.65,7.43.35-1.09.65-2.02.98-3.04-.44-.34-.87-.68-1.31-1.02-.14.94-.44,1.74-.32,2.48.17,1.02.51,2.08,1.03,2.97,1.07,1.83,1.11,2.62-.39,4.05-.61.58-.84,1.02-.4,1.85.22.42.03,1.08-.04,1.62-.07.5-.22.99-.19,1.52-.78.96-1.19,2.03-1.17,3.38.02,1.38-.19,2.77-.45,4.13-.04.22-.89.47-1.32.41-1.56-.2-2.77.53-2.97,2-.04.32.34.68.4,1.04.11.71.14,1.43.14,2.15,0,.03-.64.06-1.07.1-.08.18-.24.52-.47,1.04-.4-.77-.68-1.32-.97-1.88-.45,1.32-1.16,1.9-2.16,1.73-.24.77-.5,1.4-.62,2.06-.07.39.05.84.16,1.24.36,1.29.12,1.59-1.19,1.48-.24-.02-.48,0-.72.04-.23.04-.45.12-.46.12,0,1.2-.05,2.28.04,3.36.02.26.5.66.79.67.68.03,1.38-.13,2.39-.25-.66-.5-1.07-.81-1.55-1.17.53-.42,1.1-.88,1.72-1.37.26,1.12.51,2.19.79,3.43-.72.13-1.48.26-1.9.34-.07,1.94-.07,3.87-.25,5.78-.11,1.16-.6,2.29.31,3.34.09.1.2.27.18.38-.53,2.19,1.17,3.91,1.23,5.99.04,1.5-.3,1.98-1.5,1.97-.08.91-.17,1.79-.23,2.66-.03.47-.08.95,0,1.41.17,1.03.4,1.99-.99,2.44-.22.07-.19.9-.28,1.37.43.02.86.04,1.53.08.12.17.43.61.82,1.16-.33.26-.63.7-.98.75-1.22.15-1.57.81-1.58,1.95,0,.33-.63.65-1.26,1.25.14,1.99.32,4.43.49,6.87-.06,0-.12-.01-.18-.02.16.61.41,1.22.45,1.84.05.96.17,1.75,1.42,1.56.19.81-.85,2.2,1.14,1.76-.15.22-.17.29-.2.3-2.21.41-2.17.48-1.88,2.83.28,2.35.37,4.72.52,7.09.16,2.53.36,5.06.45,7.6.09,2.61,0,5.22.09,7.83.05,1.57.21,3.16.48,4.71.16.93-.08,1.33-.96,1.55-.36.09-.7.38-.94.68-.06.08.28.71.46.72.39.02.79-.19,1.24-.32.19.48.45,1.15.69,1.78-1.14,2.05-3.13,2.78-5.18,3.36-.51.15-1.13-.08-1.7-.14-.03-.14-.07-.29-.1-.43.61-.5,1.23-1,1.97-1.6-2.55-.4-4.2.47-4.67,2.35.37.22.76.45,1.31.78-.4.28-.67.48-.96.68.17.26.34.53.52.8-.13.26-.43.6-.36.78.36.84.83,1.65,1.42,2.75v-1.94c-.43-.64-.75-1.12-1.08-1.61,1.76,1.11,1.82,1.1,2.82-.73.19.99.34,1.74.49,2.5-1.3.14-2.41,2.08-2.24,3.71.25-.17.46-.31.75-.51.2.49.39.96.58,1.42h.34c-.06-1.11-.11-2.21-.17-3.31.09-.09.19-.18.28-.27.59,1.26,2.54.43,3.04,2.44-.83-.33-1.37-.54-2.13-.85-.26.82-.49,1.56-.84,2.66.94-.57,1.55-.95,2.16-1.32l.39.27c-.27.42-.54.84-.92,1.43.36.42.84.98,1.32,1.53q-.84.73-1.97-.96c-.53.39-1.06.78-1.74,1.29.24.38.58.93.97,1.55-.49.28-.92.52-1.49.84.6.44,1.08.79,1.6,1.17.5-.55.98-1.08,1.45-1.6-.29-.26-.58-.52-.87-.78.25-.14.59-.45.72-.38.44.24,1.11.6,1.13.95.03.52-.42,1.06-.62,1.49.57.64,1.19,1.34,2.06,2.32-.98.14-1.39.19-1.6.22-.52-.65-.95-1.19-1.6-1.99-.13,1.06-.21,1.65-.29,2.37.87.69,1.45,1.43.3,2.72-.31.35.35,1.57.57,2.39.14,0,.27,0,.41,0,.34-.61.68-1.22,1.21-2.19.04.73,0,1.05.08,1.33.36,1.36-.02,1.74-1.41,1.6-.48-.05-1.07.22-1.47.52-.14.1,0,.96.22,1.09.36.2.9.12,1.36.06.26-.03.5-.24,1.06-.53-.2.66-.3,1.04-.44,1.4-.14.35-.32.68-.51,1.07.4.27.74.5,1.39.93-.91.62-1.69,1.14-2.71,1.83.39.38.91.77,1.29,1.27.41.54.78,1.15.96,1.79.06.2-.56.59-.86.91-.25.27-.55.52-.68.84-.25.65-.4,1.33-.64,2.16.03.01.38.14.9.33-1.72,1.25-.14,2.54.38,2.73.86.32,2.05-.24,3.16-.44,0,.11.02.52.07.92.13,1.19-.51,1.21-1.43,1.05-.95-.16-1.93-.17-2.9-.24-.05.15-.11.31-.16.46.95.86,1.91,1.72,3.08,2.79-.06.2-.11.83-.43,1.22-.72.86-.98,1.6-.3,2.08-.3,1.03-.74,1.81-.7,2.57.09,1.44.45,2.86.72,4.43.47-.19.79-.32,1.44-.59-.1,1,.08,2-.33,2.55-.69.93-.81,1.3.19,1.85.66.37,1.13.74.73,1.69-.52,1.2-.84,2.49-1.24,3.74.46.26.9.51,1.34.76.04.14.07.28.11.42-2.01-.61-1.97.48-1.69,1.63.46,1.92,1.01,3.82,1.83,5.77,1.89-1.66,1.46-4.31,2.96-6.16.18.37.35.71.56,1.15.6-.35,1.15-.66,1.7-.98-.24,1.17-1.82,1.69-1.13,3.19.49,1.06.81,2.19,1.2,3.29.2-.04.41-.08.61-.12.07-1.07.14-2.15.21-3.22.35-.65,1.55-1,.74-2.32-.08-.13.52-.67.8-1.02.3.32.85.63.85.96.02,1.39-.12,2.79-.21,4.35,1.59-.67,3.32-1.4,5.06-2.14.06.27.16.77.26,1.26.15.04.31.08.46.12.22-.68.44-1.36.66-2.07.2.56.4,1.15.62,1.75,1.03-.51,2.07-4.26,1.76-5.98-.25.06-.51.11-.79.18-.19-1.33-.37-2.62-.58-4.16-.39.43-.62.68-.81.87-.56-.25-1.09-.48-1.77-.78.08,1,.22,1.76.16,2.5-.02.29-.47.55-.72.82-.1-.34-.25-.67-.29-1.01-.09-.76-.03-1.54-.19-2.28-.18-.82-.16-1.5.28-2.27.32-.55.02-1.14-.84-1.03-.25.03-.52-.05-.59-.06.39-1.09.76-2.1,1.26-3.49,1.45,1.73.21,3.59,1.05,5.11,1.01-.15,1.68-.42,1.66-1.84-.03-2.83.36-5.68.3-8.51-.07-3.24-.45-6.47-.69-9.71-.01-.17.04-.35.45-.82.36.66.72,1.32,1.17,2.15.54-1.2.86-1.89,1.26-2.76.29,1.03.52,1.7.65,2.4.07.36.07.84-.1,1.13-1.46,2.42.08,4.74.27,7.16.12-.22.24-.43.43-.79.16.69.62,1.56.39,1.81-1.07,1.15-.05,1.84.39,2.67.09.17.2.33.09.15-.46,1.71-.84,3.14-1.22,4.57.22.06.44.11.65.17.27-1.06.54-2.12.81-3.18h.2c.05.62-.09,1.35.19,1.87.78,1.45.51,2.24-1.12,2.68-.29.08-.39.85-.53,1.18.82,0,1.76-.27,2.14.07.41.38.32,1.32.41,2.02.05.42.05.85.04,1.28-.02,1.31-.11,2.63-.06,3.94.04.98.27,1.95.39,2.92.2,1.58.39,3.15.62,5.03-.42-.5-.65-.77-.88-1.05-1.97.69-1.44,2.46-1.85,3.8.12.11.24.22.36.33.37-.61.75-1.22,1.12-1.82l.34.32c.04.79.09,1.58.13,2.37-1.49.32-1.79.78-1.39,2.22.38,1.37.16,2.43-1.81,2.73.82.54,1.24.82,1.76,1.17.28-.68.53-1.27.8-1.93.25.1.55.14.56.23.2,1.22.88,2.71.42,3.61-.69,1.33-.33,2.34-.09,3.52.26,1.3-.61,2.39-1.88,2.29.13-.69.3-1.37.36-2.06.03-.31-.18-.64-.29-.96-.29.21-.73.36-.83.64-.56,1.52-.14,2.9.79,4.29.55-.19,1.07-.37,1.83-.64-.18,1.34-1.26,1.82-1.87,2.62-.29.38-.6.73-.9,1.1.39.28.75.65,1.18.81,1.22.45,1.66,1.59.84,2.59-.85,1.03-.84,2.05-.63,3.33.24,1.48.09,3.05-.08,4.56-.06.5-.71.93-1.09,1.4-.18.23-.34.48-.51.72.21.13.45.22.63.39.18.16.47.43.43.58-.1.44-.26.93-.56,1.23-.22.22-.71.16-1.08.22.05,1.4-.77,2.22-2.55,2.69-.4.11-.72.61-1.11.66-.51.07-1.25.07-1.53-.23-.49-.53-.71-1.32-1.1-2.13-.45.68-.81,1.24-1.18,1.8-1.11-.6-2.08-1.12-3.04-1.65.05-.16.1-.31.15-.47-.55.1-1.1.21-1.74.33-.14-.82-.27-1.65-.41-2.48-.15-.03-.3-.05-.45-.08-.55.86-1.05,1.75-1.67,2.56-.38.49-.93.84-1.38,1.23-1.94-2.77-1.16-5.13.04-7.79.52.88.88,1.49,1.17,1.99.45-.78.93-1.44,1.22-2.17.21-.53.1-1.18.24-1.74.15-.58.43-1.12.65-1.68l.57.2c-.18,1.35-.35,2.69-.52,4,.31.37.7.84,1.09,1.31.8-.21,1.66-.45,2.69-.72.02-.14.06-.51.13-1.14.3.45.47.7.65.95.6-.04,1.08-2.93.57-3.52-.09-.11-.16-.22-.26-.36.62-.61,2.37.32,2.03-1.34-.1-.49-1.14-.79-1.89-1.27,1.13-.91,1.81-2.47,2.02-4.25.17,1.07.59,2.17.46,3.2-.28,2.27.43,3.31,2.75,3.48.42-1.32.84-2.65,1.28-4.05-1.17-.89-1.21-1.45-.02-2.81-.36-.55-.66-1.14-1.09-1.63-.17-.19-.62-.15-.94-.21.07.3.1.62.21.9.05.14.24.24.58.56-.53.16-.98.43-1.14.31-.82-.6-1.43-.12-2.08.26-.49-.15-.99-.29-1.67-.5.18-.58.4-1.31.64-2.08.68.26,1.29.49,2.04.77.53-.7,1.06-1.41,1.51-2-.44-.69-.85-1.33-1.37-2.14-.09.4-.12.79-.26,1.13-.16.41-.54,1.14-.6,1.12-.61-.22-1.25-.49-1.72-.91-.21-.18-.2-.84-.04-1.16.9-1.78.55-2.55-1.4-2.92-.22-.04-.44-.13-.54-.16-.06-1.02-.12-1.94-.17-2.85-.25-.01-.49-.02-.74-.04-.23,1.54-.46,3.08-.73,4.9-1.38-1.52-.94-2.88-.66-4.31-.3.43-.61.86-1,1.43-.39-.7-.73-1.29-1.26-2.23-.37.96-.62,1.62-.87,2.29,1.27.5,2.95,4.33,2.74,5.99-1.65.08-2.04-.42-1.42-1.81-.43-.35-.86-.7-1.38-1.12.18,1.32.86,2.56.25,4.23-.32-.64-.46-.91-.59-1.18-.14-.02-.29-.03-.43-.05-.05.45-.26.95-.12,1.34.58,1.63-.66,2.66-1.24,3.87-.2.41-1.09.51-1.21-.44-.11-.82-.21-1.65-.31-2.48-.19-.03-.38-.05-.57-.08-.2.61-.49,1.21-.57,1.83-.06.5.09,1.05.22,1.56.11.43.24,1.07.53,1.19.3.12.81-.27,1.39-.5-.44,1.93-.87,3.84-1.26,5.59-.42.13-.53.2-.6.18-2.34-.73-2.15-.57-3.81,1.39-1.06,1.25-2.79,1.94-4.24,2.85-.11.07-.35-.06-.53-.12-2.33-.84-2.98-.41-3.27,2.13-.01.09-.07.17-.33.78-.36-.6-.52-1.12-.87-1.38-.29-.22-.8-.15-1.36-.23-.11,1.49-.21,2.89-.32,4.35.04,0-.1.03-.24.02-2.51-.15-2.46-.16-2.63-2.69-.03-.48-.62-.92-.95-1.38-.1.07-.19.14-.29.21.22,1.25.44,2.51.69,3.97-1.06-.19-1.91-.34-2.75-.48.28-1.54-1.36-4.44-2.5-4.86-.91,1.03-1.75,2.02-2.66,2.96-.1.1-.68-.06-.85-.26-.34-.41-.56-.92-.83-1.39-.13.03-.27.05-.4.08-.05.56-.1,1.11-.17,1.8-1.34-.27-2.67-.75-4.01-.75-1.3,0-2.6.47-3.99.76.17.65.36,1.1.39,1.55.05.81-.45,1.21-1.19.96-1.51-.5-1.5-.55-1.48,1.39-.75-.49-1.32-.9-1.92-1.25-.43-.25-.91-.43-1.51-.41-1.03-1.64-2.86-2.26-4.38-3.35-2.53-1.83-5.59-3.15-7.27-6.09-.58-1.02-1.49-1.84-2.24-2.74,1.72-1.87-.18-3.85.44-6.06,1.35,1.76,2.53,3.31,3.88,5.08.29-.41.72-1.01,1.3-1.83.25-.04.86-.16,1.47-.24,1.52-.21,1.75-.74.88-2.08-.65-1.01-1.35-1.99-1.89-3.06-.39-.77-.56-1.65-.83-2.48.11-.05.23-.09.34-.14,1.01,1.64,2.02,3.29,3.04,4.93.13-.03.27-.06.4-.09.58-1.71,1.98-1.81,3.39-2,.47-.06.93-.51,1.31-.87.47-.46.75-1.27,1.28-1.47,1.32-.5,1.95-1.17,1.39-2.68.21.15.41.31.62.46.35.25.71.49,1.07.74.19-.33.32-.74.59-.98.47-.43.98-.95,1.55-1.08,1.43-.32,1.71-1.06.99-2.55.49.28.76.56,1.01.55.44-.02.97-.11,1.28-.38.23-.2.27-.75.2-1.11-.12-.62-.4-1.21-.61-1.82.16-.12.33-.24.49-.36.22.44.43.88.74,1.52.24-.99.39-1.59.53-2.19.13.01.27.03.4.04.17.79.34,1.58.51,2.37.12-.01.24-.02.36-.03v-2.38c1.46,1.5,2.66.34,3.94-.11.05-.02.1-.02.13-.05,1.35-1.2,2.69-2.41,4.03-3.62.17-.16.25-.41.4-.59.36-.41,1.07-.83,1.05-1.21-.06-1.03-.43-2.04-.72-3.23-.79.5-1.33.84-1.99,1.25-.3-1.02-.68-1.91-.78-2.82-.1-.89-.22-1.56-1.25-1.79-.16-.03-.31-.84-.19-1.19.17-.48.71-.81.89-1.29.42-1.06,1.52-2.1.16-3.32-.2-.18.11-1.04.3-1.54.13-.33.63-.53.7-.85.56-2.59,1.24-5.17,1.51-7.8.13-1.27,0-2.92-2.13-3.07-.64-.04-1.33-.62-.85-1.81.47-1.18.34-2.59.49-4h.84c.11-1.47.13-2.84.33-4.19.18-1.27.55-2.51.93-4.16-.44-.91-1.93-.97-3.07.36-1.44-.5-.69-1.36-.34-2.14.34-.75.71-1.48,1.19-2.49-.72.18-1.09.27-1.67.41.21-1.18,2.88-1.53,1.02-2.94.55-1.7,1.07-3.3,1.69-5.21-.68.22-1.05.34-1.53.49-.12-1.32-.93-1.16-1.65-.57-.54.45-.86,1.17-1.48,2.05v-4.1c.64,0,1.43-.04,2.21.01,1.02.07,1.24-.42,1.15-1.33-.07-.66-.01-1.34-.01-2.32-1.31-1.37-1.38-2.63.16-3.32.41.53.83,1.07,1.25,1.61-.05-1.36,1.9-1.93,1.09-3.51-.49-.96,1.24-2.42-.73-3.57.11.87.19,1.49.31,2.41-1.62-1.52-1.81-3.24-.63-4.79.47-.62.61-1.01.03-1.57-.19-.18-.17-.55-.33-.78-.35-.52-.68-1.34-1.13-1.42-.56-.1-1.32.3-1.84.7-.29.22-.29.86-.38,1.31-.04.23.08.5.02.71-.14.43-.35.84-.53,1.26-.36-.17-.72-.34-1.08-.51.26-.37.53-.73.9-1.26-.39-.78-.86-1.72-1.22-2.44.25-.87.92-1.97.61-2.46-.52-.82-1.58-.63-2.35.35-.39-.43-.72-.8-.94-1.05.6-2.04,2.28-3.75,1.15-5.55-1.12-.15-1.89-.47-2.5-.28-.71.22-1.39.78-1.88,1.37-.95,1.16-1.82,1.39-3.13.55.69-1.34,3.11-1.36,2.72-3.87-.9.51-1.64.97-2.41,1.35-.25.13-.6.06-.91.09.04-.29,0-.63.15-.85.37-.59.82-1.14,1.44-1.6-.1-1.26,2.01-2.66-.16-4.12.49-.25.81-.38,1.1-.55.46-.26,1.24-.5,1.28-.83.09-.64.43-1.53-.68-1.92-.36-.13-.64-.81-.73-1.28-.14-.8-.46-1.25-1.3-1.19-.76.06-1.14.34-1.23,1.24-.15,1.62-.9,2.12-2.03,1.61-.2-.09-.54-.32-.52-.39.4-1.33.8-2.68,1.37-3.94.05-.11,1.25.33,1.93.45.47.08.96.06,1.44.09-.16-.4-.45-.8-.44-1.19.01-.49.27-.97.43-1.45.13-.38.31-.75.37-1.15.02-.1-.42-.42-.5-.37-.4.22-1.02.5-1.06.81-.15,1.54-1.47,1.4-2.81,2.18.15-1.18.27-1.98.34-2.79.02-.26-.02-.58-.15-.8-.6-.99.07-1.61.78-1.77,1.85-.42,2.24-1.66,2.27-3.48-.95.38-1.8.54-1.97,1.73-.14.98-1.74,1.73-2.62,1.31-.24-.12-.54-.5-.52-.74.15-1.48.38-2.96.59-4.46,1.07-.05,2.23.18,2.27-1.7-.88.27-1.6.49-2.19.67-.09-.89-.12-1.86-.35-2.78-.03-.13-1.04-.02-1.73-.02-.48-.12-1.17-.3-1.86-.48-.08.16-.15.32-.23.48.36.38.71.75,1.1,1.16-.38.71-.76,1.43-1.26,2.35-.26-1.58-1.69-2.66-.78-4.45.51-1,.13-2.06-1.2-2.49-.49-.16-.9-.59-1.5-.99.4-.27.59-.39.76-.52.38-.29.76-.58,1.13-.87-.39-.16-.84-.25-1.14-.5-.3-.24-.71-.76-.62-.99.54-1.47-.13-2.52-.92-3.65-.29-.42-.13-1.2-.08-1.81.03-.39.46-.87.34-1.12-.7-1.47.23-2.84.13-4.25-.04-.52-.14-1.08-.4-1.51-.09-.15-.95-.1-1.09.11-.33.47-.77,1.32-.57,1.62,1.02,1.49-.25,1.99-1.06,2.8,3.01,1.91-1,1.91-.67,3.14-.12.05-.24.11-.36.16-.16-.39-.31-.77-.54-1.33-.76,1.25-.54,2.73-2.2,2.74-.02-.79-.18-1.43.79-2,.42-.25.25-1.47.31-1.93.64-.22,1.44-.31,1.48-.54.29-1.66.82-3.35.06-5.03-.08-.17-.14-.36-.21-.54-.15.06-.3.12-.44.18-.19,1.15-.4,2.3-.56,3.45-.17,1.14-.19,1.19-1.47,1.53-.17-1.52-.4-3.01-.48-4.52-.14-2.63-.14-5.26-.28-7.89-.03-.5-.3-1.23-.68-1.42-1.59-.79-2.02-2.36-2.34-3.75-.43-1.87-.04-3.95-.58-5.77-.46-1.55-1.42-3.49-2.71-4.14-1.79-.9-2.47-2.55-3.81-3.68-.21-.18-.28-.54-.5-.69-1.89-1.35-3.09-3.21-4.12-5.24-.22-.43-.76-.68-1.13-1.04-.52-.52-1.03-1.06-1.51-1.62-.51-.59-.98-1.21-1.45-1.84-.25-.34-.4-.74-.65-1.08-.78-1.06-1.39-2.35-2.41-3.07-1.3-.92-2.09-2.01-2.57-3.44-.1-.31-.22-.66-.43-.9-1.76-2.03-3.56-4.04-5.33-6.06-.22-.25-.51-.53-.55-.83-.18-1.66-1.49-2.46-2.48-3.55-.88-.97-1.5-2.17-2.27-3.24-.8-1.12-1.68-2.2-2.47-3.33-1.65-2.38-3.86-4.33-5.06-7.08-.53-1.21-1.77-2.1-2.7-3.13-.16-.18-.38-.3-.52-.49-1.21-1.59-2.45-3.15-3.58-4.79-1.19-1.72-2.25-3.52-3.43-5.25-.31-.45-.83-.75-1.25-1.12-.14-.12-.34-.22-.41-.38-1.6-3.32-4.56-5.64-6.46-8.73-.96-1.57-1.61-3.48-2.93-4.65-1.78-1.59-2.48-3.94-4.35-5.38-.32-.24-.42-.74-.7-1.05-.31-.34-.74-.57-1.06-.9-.63-.64-1.73-1.31-1.74-1.98-.01-1.21-.6-1.97-1.19-2.82-.97-1.42-2.02-2.79-2.9-4.27-.53-.88-.94-1.76-2.07-2-.24-.05-.63-.42-.6-.56.56-2.37-1.84-3.42-2.32-5.31-.07-.27-.19-.53-.33-.89-1.62.36-1.78-.3-1.69-1.83.06-1.09-.83-2.28-1.44-3.35-1.72-3.04-3.52-6.05-5.28-9.07-.05-.08-.12-.19-.1-.26.61-2.19-1.34-3.09-2.23-4.54-.94-1.53-1.57-3.24-2.44-4.81-1.62-2.94-3.32-5.83-4.98-8.75-.25-.45-.44-.93-.67-1.4-.62-1.27-1.32-2.51-1.83-3.82-.25-.65-.11-1.45-.24-2.16-.34-1.88-1.74-3.16-2.74-4.66-.92-1.38-1.67-2.86-1.42-4.65.04-.31-.34-.85-.66-1.01-.93-.45-1.31-.99-.97-2.06.1-.32-.25-.81-.44-1.2-.75-1.53-1.53-3.04-2.25-4.58-.08-.17.19-.49.19-.49-.49-.74-.94-1.27-1.22-1.87-1.37-2.96-2.75-5.92-4.03-8.92-1.08-2.54-1.96-5.17-3.02-7.72-1.92-4.59-3.95-9.13-5.84-13.74-.96-2.33-1.68-4.75-2.55-7.11-.94-2.54-2.09-5.01-2.84-7.6-1.09-3.79-1.71-7.69-.83-11.63.28-1.25.75-2.5,1.39-3.6,1.89-3.22,3.85-6.41,5.91-9.53.7-1.06,1.69-1.95,2.65-2.82,1.93-1.75,2.68-4.46,4.99-5.95.65-.42.73-1.63,1.23-2.38,1.29-1.95,2.64-3.86,4.01-5.75,1.15-1.58,2.29-3.18,3.56-4.66,1.48-1.73,3.41-3.17,4.58-5.08,1.36-2.24,3.67-3.29,5.34-5.11,1.23-1.34,3-2.16,4.53-3.22.9-.62,1.78-1.25,2.86-2.01.87.59,1.93,1.23,2.9,1.99,3.31,2.59,6.81,4.97,9.3,8.48,1.24,1.75,2.67,3.37,4.02,5.05.18.22.4.43.53.68,1.97,3.75,3.92,7.51,5.89,11.26.97,1.86,2.02,3.68,2.95,5.55,1.77,3.55,3.47,7.13,5.21,10.69,1.13,2.32,2.31,4.61,3.43,6.94,1.8,3.73,3.57,7.47,5.34,11.22,2.29,4.86,4.61,9.71,6.82,14.6,1.25,2.78,2.28,5.66,3.47,8.47.97,2.29,1.53,4.71,3.04,6.82,1.17,1.63,1.62,3.76,2.52,5.6.79,1.61,2.19,3.04,2.58,4.72.71,3.08,3.25,4.97,4.4,7.72.66,1.56,1.57,3.03,2.47,4.48.65,1.05.59,1.67-.72,1.93-.17.03-.32.16-.5.6.54.07,1.22.37,1.61.15.89-.49,1.23-.01,1.59.6,1.83,3.08,3.66,6.16,5.55,9.33-.34.32-.73.68-1.19,1.12-.31-.16-.7-.37-1.4-.74v5.21c-.18.04-.6.14-1.03.24.07.21.12.58.23.59.49.07,1.06.21,1.47.02,1.76-.8,2.67-2.76,2.32-4.73-.03-.18.02-.37.04-.55.17-.16.35-.32.52-.47.12.35.18.74.38,1.03,2.75,4.16,5.54,8.28,8.24,12.47.33.51.19,1.33.27,2.12,1.63-.44,1.63.88,2,2.04h-2.28c.73,1.43,1.46,2.88,2.19,4.32-.13.09-.27.18-.4.28-1.02-.87-1.39-2.73-3.37-2.23.51.66,1.03,1.34,1.61,2.08-1.78-.21-1.89-.03-1.34,1.52.11.32-.22.8-.35,1.21,4.61-.29,4.64-2.23,4.74-6.71,1.43,2.4,3.98,4.07,4.53,7,2.03.72,2.58,2.88,3.82,4.36,1.21,1.44,2.94,2.71,2.83,4.99,1.42-.65,1.58.95,2.23,1.71,1.12,1.31,2.14,2.72,3.19,4.09.57.74,1.13,1.5,1.69,2.25l-.29.37c-.58-.28-1.16-.56-1.43-.69h-2.05c.31-.55.61-1.1.92-1.65.19-.02.37-.04.56-.06-.44-.4-.89-1.13-1.31-1.12-.48.02-.93.71-1.54,1.22-.55-.25-1.26-.59-2.07-.96v-1.84c-.15-.05-.3-.09-.44-.14-.44.95-.89,1.89-1.42,3.03.47-.16.8-.27,1.13-.38.08.11.16.23.25.34-.38.3-.73.8-1.15.87-1.42.24-1.63.49-1.19,1.88.06.18.1.36.08.29-.62.29-1.55.54-1.54.78,0,.66.21,1.59.68,1.92,1.37.96,2.08,2.24,2.4,3.53.69.18,1.26.32,2.26.58-1.19,1.09-2.14,1.75-2.8,2.63-.5.67-.63,1.62-.98,2.58-.19-.02-.71-.07-1.44-.14.27.55.36,1.08.6,1.17,2.14.78,2.4,2.54,2.28,4.26.97.31,1.74.56,2.62.84.06-.16.16-.45.26-.74.13.04.26.08.39.12-.68,1.7-1.35,3.41-2.03,5.11l.47.3c.38-.5.76-1.01,1.16-1.5.25-.31.61-.87.8-.82,1.38.34,1.86-.92,2.75-1.42.48-.27.9-.64,1.55-1.12-.05.58-.08.88-.12,1.39.81-.65,1.49-1.2,2.23-1.8.24.62.37.97.51,1.32.23-.29.47-.57.68-.87.41-.59.8-1.2,1.31-1.95.57-.29,1.44-.66,2.22-1.15,2.21-1.38,1.66-3.29.94-5.23-.15-.4-.19-.84-.28-1.26v.02ZM219.81,84.38c-.51.35-1.16.69-.48,1.39.18.19.63.13.96.19-.13-.5-.26-1-.39-1.5-.01-.04-.07-.06-.1-.09.59-.35,1.19-.69,1.78-1.04-1.47-.72-1.69.08-1.76,1.06ZM200.47,462.34c.26.26.51.53.89.91.12-.42.19-.56.19-.69-.03-1.54.02-3.08-.15-4.6-.06-.49-.69-.92-1.06-1.38l-.52.26c.1.72-.02,1.6.35,2.13.78,1.13.75,2.2.33,3.38-1.1.75-1.23,2.8-.04,4.27.21-.47.29-.97.22-1.45-.04-.3-.44-.57-.44-.85,0-.66.15-1.32.24-1.98ZM192.7,134.83c.44,1.07.89,2.14,1.33,3.21.38-.42.66-1.14.48-1.27-.72-.55-.58-1.93-1.83-1.92-.41-.65-.77-.77-1.25,0-.38.61-.93,1.11-1.38,1.68-.17.21-.42.46-.43.69-.08,1.95-.11,3.89-.16,5.89,2.32-.58,2.44-.89,1.66-2.87-.21-.55-.07-1.29.07-1.91.2-.86.53-1.7.86-2.52.14-.36.43-.65.65-.98ZM105.33,157.88c.79.65,1.6,1.28,2.35,1.97.13.12.09.7-.03.76-1.28.68-.6,2.04-1.05,3-.08.16.45.72.79.9.13.07.62-.37.82-.67.39-.56.81-1.15,1.01-1.8.28-.92.37-1.9.55-2.86-1.4-.12-1.73-2.57-3.32-1.7-.66-.5-1.14-.89-1.65-1.22-.04-.02-.45.41-.43.44.3.41.65.79.99,1.18-.61.23-1.22.45-2.23.82.86.52,1.3.79,1.99,1.21.1-.88.16-1.47.23-2.05ZM118.88,175.21c.33-2.53-1.91-1.74-2.89-2.11-.09-.85-.16-1.43-.22-2.01-.21-.03-.42-.05-.63-.08-.18.55-.59,1.16-.48,1.65.26,1.16.78,2.26,1.28,3.63-.73.2-1.37.29-1.92.56-.3.14-.66.6-.63.87.04.32.64.89.72.84.9-.49,1.81-1,2.56-1.67.24-.22.04-.94.04-1.81.62.03,1.4.07,2.19.11.1,1.46-1.01,2.81-.29,4.39.27.58.18,1.72-.23,2.14-1.1,1.12-.15,1.52.51,1.97.89.61,1.09-.34,1.48-.81.55-.66,1.08-1.34,1.66-2.05-.06-.01-.43-.07-.81-.15-1.4-.29-1.95-1.01-1.72-2.33.27-1.56,1.34-.36,1.83-.48.33-.74.6-1.32.88-1.95-.4-.53-.82-1.07-1.23-1.61-.02.15-.05.29-.07.44-.68.16-1.37.31-2.05.47ZM187.21,185c-.14-.83.35-2-1.41-2.37.52,1.04-.54,2.53,1.43,2.35-.22.66-.43,1.31-.79,2.4,1.25-.41,2.23-.74,3.23-1.07-.45-.61-.72-.99-1-1.37.74-.3,1.31-.54,1.87-.77-.01-.12-.03-.24-.04-.37-.48-.19-.96-.38-1.67-.65.62-.26,1-.41,1.44-.6-.17-.16-.22-.25-.3-.29-1.9-.91-.17-2.39-.54-3.54,0-.02.14-.09.28-.18.22.3.44.61.81,1.12v-1.59c.34.02.61.04.89.05.43.01.86.05,1.28-.02.08-.01.08-.5.11-.77-.49-.06-1.08-.33-1.45-.14-1.32.66-2.07.1-2.6-1.04-1.07.65-1.02.64-.72,1.62.14.46.09,1,.08,1.5-.01.57-.03,1.16-.13,1.72-.23,1.33-.5,2.66-.76,3.99ZM182.3,347.59h1.49c.31-.55,1.01-1.34-.62-1.69-.39-.08-.66-.7-.99-1.09.96-.46,1.76-.84,2.55-1.22-.03-.14-.06-.28-.09-.41-1.43,1.08-2.59.93-3.51-.61.28-.56.58-1.14,1.05-2.05.21,1.22.34,1.98.51,2.97,1.59-1.63,1.55-1.59.23-2.97-.36-.37-.41-1.04-.6-1.58.98-.04,1.5-.34.93-1.42-.14-.26-.04-.65-.1-.97-.32-1.76-.65-3.52-.99-5.39-.43.31-.63.45-.84.61-.9-1.82,1.33-1.14,1.53-1.97-.6-.29-1.12-.55-1.59-.78-.16.4-.33.82-.5,1.25-.1-.03-.19-.06-.29-.09.03-.67.06-1.34.09-1.95-1.05.21-1.92.38-3.03.6,2.07.65,2.13.64,2.29,2.75.04.5-.51,1.03-.89,1.73.38.05.89.11,1.65.2-.36.48-.65.88-.92,1.24.11.49.33,1.05.35,1.63.09,1.86.46,2.1,2.32,1.11,0,.57,0,1.02,0,1.47-.71.1-1.42.2-2.74.39,2.77,1.25-.05,2.76,1,4.03-.48.25-.84.45-.89.48-.2.98-.34,1.67-.49,2.45,1.01.14,1.66,1.53,2.94.76.06.18.12.36.18.53-.63,1.2-1.25,2.4-1.86,3.57-.53-.07-1.16-.15-1.79-.24-.06.19-.11.38-.17.56.74.39,1.48.79,2.3,1.22.27-.69.46-1.15.64-1.62h.32c.07.56.14,1.11.2,1.54.48.16.91.29,1.41.45-.73.48-1.27.83-1.97,1.29.95.15,1.57.25,2.4.39.18-1.22.87-2.38-.06-3.79-.67-1.01-.97-2.26-1.44-3.4ZM183.36,361.28c-.27-.38-.49-.99-.84-1.08-.34-.09-1.13.28-1.18.54-.1.53.18,1.12.3,1.66-.48.65-1.01,1.35-1.53,2.05.07.09.15.17.22.26.41-.28.82-.56,1.3-.88.13.6.1,1.25.39,1.66.59.83.41,1.79-.04,2.27-.36.39-1.42.28-2.13.15-.69-.12-1.34-.54-2.19-.92,1.15,2.28,1.79,2.5,4.22,1.98,1.86-.4,1.14-1.86,1.37-2.95.05-.22-.11-.5-.04-.7.26-.79.65-.91,1.12-.13-.03.67-.07,1.34-.1,2,1.32,0,1.88,1.29,1.23,3.11-.56-.52-1.03-.97-1.55-1.46-.13.27-.49.67-.45,1.01.08.59.27,1.3.67,1.67.61.57,1.02-.02,1.47-.52.45-.51,1.09-.85,1.6-1.22-.06-.61-.12-1.24-.19-1.87-.08.13-.15.26-.23.39-.83-1.04-1.66-2.08-2.49-3.12,1.64.13,1.15-1.52,1.7-1.94-.81-.42-1.62-.85-2.42-1.27.66-.3,1.33-.59,2.03-.9-.52-1.15-.96-1.17-2.27.21ZM61.32,188c-.45-.24-1.17-.71-1.96-1.04-1.25-.52-2.78.4-2.83,1.62-.06,1.46-.17,2.92-.21,4.38,0,.25.15.53.29.76.78,1.33,1.61,2.63,2.35,3.98.18.32.2.81.13,1.19-.27,1.54.55,3.09,2,3.72.47.2.89.54,1.38.84-1.32,1.21-1.1,3.8.21,4.7.21.14.5.19.76.22.91.09,1.5.38,1.89,1.4.57,1.49-.59,2.33-.95,3.45-.26.79-.23,1.25.42,1.87.84.8,1.47,1.84,2.31,2.93.39-.3,1.07-.82,1.87-1.43.42,1.35,1.37,2.41.22,3.64-.14.15-.07.69.1.87.57.59,1.23,1.1,1.65,1.47.72-.41,1.3-1.01,1.73-.92,1.37.29,1.89,2.27,1.08,3.41-.25.35-.19.9-.28,1.37.5.09,1.05.34,1.5.23.74-.18,1.42-.59,2.48-1.07-.54,1.61-.95,2.79-1.33,3.99-.09.3-.2.74-.06.95.74,1.15,1.56,2.26,2.4,3.46.56-.53,1.04-.99,1.53-1.44.14.04.27.09.41.13.12,1.08.49,2.21.31,3.24-.26,1.49-.12,1.83,1.43,1.76.3-.61.51-1.24.89-1.73.18-.23.7-.21,1.06-.3-.07.35-.12.71-.22,1.06-.08.3-.29.58-.31.88-.04.58-.02,1.16.04,1.74.03.3.11.74.31.85.75.41.7.93.38,1.57-.41.79-.23,1.27.66,1.66.5.22,1.02.85,1.14,1.39.16.75.26,1.38,1.17,1.24.95-.15.8-.84.68-1.56-.09-.51.06-1.06.11-1.59.15,0,.31.01.46.02.14.24.47.6.4.7-.72,1.13.66,2.52-.5,3.6-.17.16-.14.69,0,.96.19.38.56.66.85.99.22-.3.4-.65.68-.9.31-.28.7-.65,1.07-.66.49-.02.99.26,1.3.35,0,.67-.24,1.55.04,1.78,1.47,1.21.29,1.57-.58,2.02q1.91,3.42,3.25,3.52c.21.39.42.78.46.84.89-.13,1.51-.23,2.13-.32-.16.57-.32,1.14-.5,1.77.19.68.31,1.58.69,2.34.41.81,1.07,1.5,1.57,2.17.98-.5,1.68-.86,2.46-1.26-.29-.54-.53-.99-.77-1.42.59-.63,1.15-1.22,1.71-1.82.12.05.23.1.35.15-.09.38-.08.84-.3,1.12-1.02,1.27-.82,1.51.28,2.76,1.27,1.44,3.42,2.39,3.15,4.88-.13,1.21-.25,2.45-.13,3.65.07.75.52,1.51.95,2.17.12.19.87.19,1.14,0,.41-.28.65-.8,1.12-1.42-.15,1.22.94,2.34-.43,3.26-.1.07,0,.61.15.86.2.36.53.65.68.82-.22.66-.64,1.35-.47,1.55.36.44,1.02.63,1.61.96.26-1.04.46-1.82.66-2.59l.44.02c.12.33.21.67.35.99.57,1.3.29,3.17,2.42,3.44.32.04.54.8.81,1.23-1.02-.22-1.8-.86-2.57-.85-.79,0-1.57.64-2.38,1.01.08,1.11,1.77,2.96,2.53,2.72,1.33-.42,2.67-.83,3.76-1.16,1.13,2.23,2.14,4.22,3.33,6.56.59-1.15.42-2.48,1.82-1.85.05.7.41,1.64.09,2.02-.95,1.14-.75,1.92.4,2.61-.26.56-.48,1.03-.68,1.46,1.59,1.45,4.9,1,4.5,4.39.45.23.96.44,1.41.72.3.19.52.49.78.74.05-.41.26-.9.12-1.23-.45-1.04.24-1.7.93-1.69,1.42.02,1.39-.84,1.51-1.76.07-.56.19-1.11.28-1.67.12-.08.24-.15.36-.23.37.51,1.15,1.33,1.03,1.49-.79,1.06-.5,1.96.07,2.93.09.15-.12.49-.23.86-.37-.33-.62-.56-.88-.79-.11.06-.22.13-.33.19.27.55.68,1.59.78,1.57,1.38-.41,1.2.82,1.55,1.66.47-.77.81-1.33.97-1.59.73-.06,1.23-.1,1.73-.14-.2-.44-.28-1-.61-1.29-.75-.67-.53-.94.18-1.5.94-.74,2.29-1.67,2.39-2.63.28-2.79.26-5.66-.74-8.77-.65.94-1.11,1.59-1.59,2.28-.58-1.61-1.07-3-1.7-4.75.67-.64,1.55-1.45,2.4-2.31.19-.2.24-.53.36-.81-.29,0-.6-.07-.86.01-.22.07-.39.31-.65.54-.16-1.2-.3-2.24-.46-3.42,1.61-.83,1.93-1.62,1.32-4.97-.12-.64-.92-1.15-1.41-1.73-.15.05-.3.1-.44.16.38-.52.76-1.04,1.01-1.38-.7-.57-1.73-1.03-1.72-1.46.04-1.33.29-2.73.81-3.95.44-1.04.17-1.67-.68-2.38v1.87c-.15.07-.29.14-.44.22-.29-.42-.58-.85-1.07-1.56-.22.53-.34.96-.57,1.33-.22.35-.54.65-.82.96-.11-.09-.22-.18-.33-.28.17-2.07.72-4.19-.88-5.93.67-.73,1.25-1.36,1.73-1.88-.41-1.03-.78-2-1.2-2.96-.12-.28-.35-.55-.61-.71-.07-.05-.6.35-.57.43.54,1.71-1.63,3.12-.55,4.92.08.14-.43.88-.76.97-.52.14-1.12-.04-2-.1,2.32-1.58,2.33-1.98.26-3.06.04-.87.67-2.21-1.2-1.96.02-2.07,1.28-1.11,2.32-.92-.21-.53-.36-.9-.5-1.26.15.02.29.04.44.06.08-.33.25-.67.23-.99-.04-.83-.34-1.68-.23-2.47.37-2.58-.04-5.07-.86-7.48-.38-1.11-1.44-2.03-1.68-3.14-.38-1.76-1.24-2.7-2.99-2.78.02-2.12-.79-3.12-2.69-3.54-.27-.06-.63-.35-.69-.6-.32-1.41-1.26-2.3-2.37-3.1-.3-.21-.43-.72-.55-1.12-.39-1.38-.51-2.9-2.32-3.3-.26-.06-.42-.49-.65-.71-1.19-1.13-2.39-2.24-3.21-3.01-.6-1.34-1.14-2.28-1.43-3.28-.42-1.5-1.37-1.65-2.53-1.25-.25-1.14-.18-2.49-.81-3.15-.39-.41-1.87.22-2.91.39v-1.69c-.41.07-.71.12-1.03.17.15-2.04-.5-3.34-1.78-3.64-.83-.19-3.21,1.4-3.6,2.71-.15.49.56,1.23,1.01,2.11-.44.65-1.09,1.6-1.71,2.52-.74-1.23-1.5-2.18-1.89-3.26-.24-.68.09-1.56.16-2.35.16,0,.32,0,.48,0,.24.26.47.51.7.76q2.1-1.69.5-3.67c-.39-.49-.73-1.02-1.12-1.5-.21-.26-.49-.46-.85-.79-.19,1.06-.31,1.89-.49,2.7-.15.7-.18,1.65-.63,1.98-.4.3-1.38.04-1.99-.22-1.99-.86-3.99.3-4.52,2.4-.38,1.48.81,2.01,1.29,3.03-.38.57-.75,1.13-1.17,1.76-.63-1.08-1.24-1.94-1.67-2.88-.51-1.11-1.23-.87-1.99-.44-.3.17-.52.47-.78.71-.11-.07-.21-.15-.32-.22.56-.86,1.13-1.71,1.73-2.62-1.34-.96-3.35-.72-3.78-2.67-.01-.05-.26-.04-.47-.07-.2.4-.39.8-.84,1.7-.73-1.1-1.26-1.9-1.79-2.7-.76-1.14-.69-2.92-2.57-3.13.39-.77.73-1.44,1.06-2.11-.13,0-.26,0-.39-.01-.12-.66-.08-1.41-.39-1.95-.41-.69-1.1-1.22-1.67-1.81l.25.6c-.61.37-1.25.71-1.84,1.13-.74.54-1.17,2.81-.84,3.68.11.29-.07.69-.16,1.33-1.28-1.38-1.8-2.48-1.04-3.93.23-.43.13-1.03.23-1.54.1-.5.15-1.05.42-1.45.56-.83.13-1.31-.41-1.86-.58-.59-1.22-1.45-2.02-.7-.87.8-2.31,1.1-2.52,2.58-.02.15-.4.26-.61.39-.15-.71-.09-1.49-.45-1.87-.95-1-.86-2.1-.77-3.29.08-1.05.02-2.1.02-3.47ZM173.92,420.14c.17-.66.5-1.51.58-2.38.16-1.67.5-1.92,1.98-1.18q.69-1.18-1.91-1.87c.24-.65.47-1.29.76-2.08.34.42.53.67.91,1.15,0-2.69.04-5.05-.04-7.41-.01-.41-.48-.98-.88-1.14-.31-.13-.86.21-1.25.43-.47.26-.93.57-1.31.94-.36.35-.75.77-.86,1.23-.06.25.41.64.62.94-.03.02-.27.19-.8.55.57.31.99.54,1.44.79-1.04,1.71-1.94,3.19-2.84,4.67,1.46,1.01,2,2.26,1.37,3.39-.29.51-.99.78-1.51,1.17-1.07.8-.97,1.34.33,2-.26-1.56.02-1.68,2.13-.9-.59,1.28-.41,2.06.78,2.53.88.35,1.84.5,2.82.76-.04.18-.08.36-.12.55-.06.29-.22.63-.12.85.07.17.58.34.72.25.28-.18.54-.52.62-.84.09-.35-.05-.75-.06-1.13-.02-.62.01-1.23-.03-1.85-.02-.35-.03-.87-.24-1-.31-.19-.84-.22-1.19-.09-.26.09-.48.52-.57.84-.08.3.03.66.06.94-.46-.69-.91-1.36-1.39-2.08ZM197.93,102.08c-.39.58-.94,1.1-1.11,1.72-.43,1.59-.56,3.27-1.06,4.83-.46,1.46-.73,2.95-1.64,4.34-.78,1.18-.28,3.19-1.04,4.41-1.35,2.18-.38,4.63-1.3,6.88-.41,1.01-.33,2.43-.91,3.59-.12.23.16.66.25,1,.34-.17.84-.25.98-.52.25-.49.29-1.1.41-1.66.36-1.59.94-1.89,2.4-1.17.18-1.42-.48-1.7-1.9-1.17.69-2.63,1.32-5.02,1.95-7.41.57-2.19,1.09-4.4,1.73-6.57.49-1.63,1.07-3.24,1.75-4.81.79-1.84,1.73-3.61,2.6-5.41.02-.04,0-.09-.01-.14-.18-1.16-.36-2.31-.56-3.47-.02-.1-.16-.18-.36-.41-.04.51-.06.85-.09,1.2-1.29-.19-1.99.56-1.74,2,.2,1.17-.17,1.52-1.28,1.37-.23-.03-.48.13-1.19.34.97.47,1.54.75,2.12,1.04ZM51,186.68c.17.37.45,1.01.75,1.65.33.7.68.82,1.26.17,1.63-1.83,3.02-3.72,2.74-6.39-.05-.48.48-1,.69-1.52.16-.39.26-.81.38-1.22-.46-.09-.93-.29-1.38-.25-.45.03-.94.21-1.3.48-.97.71-2.33,1.32-2.71,2.29-.53,1.35-.31,2.99-.44,4.8ZM122.17,191.08c.16-.11.31-.23.47-.34.55-.1,1.1-.27,1.65-.29,1.02-.05,2.05-.01,3.08-.01.19.43.45,1.04.66,1.51-.55.42-1.46.92-1.4,1.11.21.69.66,1.4,1.23,1.83.22.16,1-.43,1.53-.69.13-.06.25-.13.38-.21.93-.57.63-1.12,0-1.69-.43-.39-.85-.79-1.39-1.29,2.25-.43,2.42-.55,1.97-2.21-.27-1.01-.86-1.93-1.5-3.3-.54,1.12-.86,1.78-1.18,2.44-.07-.09-.14-.17-.22-.26-.54.39-1.08.77-1.67,1.2-.88-.42-2.87-.16-3.42.67-.25.39-.14,1.02-.19,1.54ZM172.77,437.67c2.39-.14,2.61-.36,2.71-2.55,0-.14.06-.28.07-.42.09-1.55.46-3.16.16-4.63-.19-.93-.24-1.28.66-1.48-.27-.52-.44-.97-.71-1.35-.2-.28-.62-.73-.75-.67-.59.25-1.13.65-1.64,1.06-.04.03.32.56.5.87.39.68,1.17,1.43-.34,1.78-.09.02-.16.63-.04.86.22.46.58.85.89,1.27-.16,0-.31-.01-.47-.02-.34,1.75-.68,3.5-1.03,5.29ZM181.27,420.17c.06-1.19.12-1.98.14-2.78.02-.81,0-1.62.02-2.42.02-.47.29-1.01.12-1.37-.14-.29-.92-.61-1.14-.47-.81.51-1.51,1.2-2.17,1.76.56.68,1.3,1.56,1.82,2.19-.25.91-.7,1.64-.5,2.02.8,1.56.33,3.18.47,4.76.05.57.1,1.16.31,1.68.07.18.88.28.89.25.3-.87.61-1.75.78-2.65.11-.58.02-1.2.02-1.8.15-.03.29-.07.44-.1-.48-.44-.97-.87-1.2-1.08ZM49.51,178.89c.49-.2.9-.33,1.26-.53,1.22-.67,1.61-2.21.6-2.61-.98-.39-2.2-.2-3.32-.19-.17,0-.5.42-.49.63.06,1.12.19,2.23.31,3.34.06.5.15,1,.25,1.7.35.36.87.92,1.4,1.47,1.67-1.09,1.68-1.2-.02-3.81ZM182.78,427.46c-1.43-.8-1.99-.52-2.01.9,0,.29-.08.57-.1.85-.08,1.32-.36,2.67-.16,3.95.19,1.19.56,2.21-.88,2.82,1.19,1.42,2.28,2.73,3.38,4.04-.12-1.99-.56-3.84-.79-5.72-.1-.8.1-1.71.41-2.48.3-.73.67-1.25-.28-1.76-.9-.49-.9-1.14-.12-1.82.23-.2.36-.52.54-.8ZM204.7,88.76c.12-.38.24-.76.3-.97.61-.1,1.06-.17,1.5-.25-.15-.41-.3-.82-.43-1.24-.1-.35-.34-.78-.23-1.06.92-2.2,1.91-4.37,2.86-6.49-1.4.29-2.45,1.41-2.65,2.89-.09.66-.05,1.45-.41,1.93-.7.91-1.07,1.74-.19,2.96-.65-.13-1.03-.2-1.68-.32.65,1.21.48,2.03-.7,2.56h1.64ZM185.11,186.51c-1.45,1.1-1.52,3.49-3.76,3.78.89.34,1.78.68,2.75,1.04-1.5,1.21-1.51,1.37-.3,2.35,1.44-.75.88-2.15,1.1-3.31.24-1.23,1.48-2.35.21-3.86ZM167.57,452.68c-.01-2.04,2.19-3.07,1.48-5.12-.12-.35-.19-.71-.28-1.07-.46.2-1.03.29-1.35.62-.41.42-.61,1.05-.92,1.58-.92,1.51-.74,2.45,1.06,4ZM193.87,162.77c.17,0,.34.01.51.02-.18,2.28-.36,4.55-.54,6.83.23.02.46.03.69.05.12-1.18.24-2.36.35-3.48.45.16.86.31,1.16.41-.5-2.16-.97-4.19-1.47-6.34-.79.79-1.55,1.54-2.38,2.38.48.97,1.03,1.08,1.69.13ZM190.9,158.16c1.44-.33,1.87-.93,1.61-2.06-.29-1.29-.12-2.44,1.25-2.96-.25-.97-.46-1.83-.77-3.03-.51.51-1.17.85-1.25,1.29-.36,2.16-.56,4.34-.85,6.75ZM130.87,198.1c.32.86.61,1.45.76,2.07.39,1.64.82,1.9,2.42,1.3-.16,1.34.44,1.19,1.39.59-.66-.61-1.26-1.17-2.03-1.89.1-.22.27-.64.45-1.05.15-.33.43-.65.45-.99.02-.3-.25-.62-.39-.93-.26.17-.56.31-.76.53-.13.14-.12.41-.18.63-.7-.09-1.3-.16-2.12-.26ZM212.65,93.82c-.03-.18-.07-.36-.1-.54-.21-.1-.41-.2-.63-.29-2.38-.99-3.22-.48-3.71,2.09-.09.48-.69.85-1.24,1.48.05.16.21.69.34,1.08.98-.28,1.84-.53,2.57-.73-.37-.78-.7-1.47-1.18-2.46,1.48-.24,2.72-.43,3.96-.63ZM202.61,90.63c-.12,1.19-.17,2.39-.39,3.55-.18.97-.71,1.88-.81,2.85-.07.7.29,1.45.46,2.18.47-.66.95-1.33,1.42-2,.05-.07.04-.18.04-.28.11-1.27.17-2.55.33-3.81.15-1.17-.29-1.97-1.05-2.49ZM46,176.5q1.25-3.41.34-5.38c-2.71,2.47-2.86,4.25-.34,5.38ZM180.9,316.8c.09.04.18.07.27.11-.25.72-.51,1.45-.74,2.17-.24.73-.43,1.46.44,1.77.28-.94.51-1.61.66-2.29.24-1.13.71-2.15-.95-2.9-1.66-.75-1.5-1.01-.54-2.64.22-.38.03-.99.03-1.55-2.53,2.17-.4,4.06-.23,6.26.47-.41.76-.67,1.05-.93ZM127.01,196.85c.01-.12.05-.5.1-.88-.35-.02-.83-.21-1.03-.04-.74.61-1.39,1.33-2.07,2.02.04.17.08.35.13.52.88.21,1.75.53,2.64.58.42.02.86-.49,1.3-.75-.29-.4-.58-.8-1.05-1.44ZM214.89,47.33c-.18-.18-.36-.35-.54-.53-.54.48-1.15.89-1.59,1.45-.85,1.09-1.59,2.29-3.28,1.43,0,0-.09.15-.24.4.98.37,1.92.76,2.9,1.06.26.08.79-.05.91-.25.66-1.16,1.23-2.36,1.84-3.55ZM145.28,339.28c-.16.89-.33,1.67-.43,2.45-.05.34.03.69.06,1.04.35-.03.71-.03,1.05-.1.61-.13,1.22-.31,2.12-.54.54-1.16-.36-2.25-2.79-2.84ZM182.11,173.76c-1.57-.83-1.11-2.05-.79-3.27.09-.36.15-.79.05-1.13-.11-.36-.43-.66-.66-.99-.24.3-.68.59-.69.89-.07,1.7-.03,3.4-.03,5.1.63-.18,1.27-.36,2.14-.6ZM188.4,155.83c-.12.06-.23.12-.35.19.16.55.55,1.15.43,1.63-.35,1.39-.92,2.72-1.37,4.09-.1.32-.12.72-.03,1.04.04.13.6.28.7.19.24-.23.5-.6.5-.91,0-1.78.43-3.35,1.97-4.68-.67-.56-1.26-1.05-1.86-1.54ZM188.23,149.14c.17-.68.28-1.12.38-1.56.18-.83.24-1.72.57-2.49.21-.49.83-.81,1.26-1.21-.6-.05-1.21-.1-1.81-.13-.08,0-.17.07-.06.02-.34.69-.52,1.28-.86,1.74-1.08,1.42-1.06,2,.52,3.63ZM183.92,165.97c.11-.01.23-.02.34-.04.07-.86,0-1.77.25-2.57.51-1.58.46-1.86-1.03-2.49-.19-.08-.34-.26-.51-.39.17-.18.34-.37.52-.53.15-.13.33-.22.5-.33-.33-.32-.67-.42-.86-.3-.86.55-.94,1.31-.59,2.25.41,1.1.65,2.25.98,3.37.1.35.26.68.4,1.02ZM182.53,408.92c-1.36-.24-2.32-.41-3.55-.63,0,1.08-.04,2.11.05,3.14.01.12.9.39,1.05.24.83-.81,1.55-1.72,2.45-2.76ZM208.21,164.77c-.05-.72-.07-1.43-.16-2.13-.05-.37-.13-.91-.38-1.05-.28-.15-.76.07-1.18.13-.31-.29-.67-.63-1.04-.98-.5,1.48.38,2.05,1.37,2.37-.39.64-.74,1.2-1.14,1.84,1.02-.08,1.78-.14,2.53-.2ZM136.89,198.12c.09-.06.19-.12.28-.19-.59-.96-1.14-1.95-1.8-2.85-.17-.23-.69-.2-1.05-.29.06.42.02.89.2,1.25.45.89.91,1.8,1.56,2.55.36.42,1.07.57,1.65.72.16.04.43-.38.65-.58-.46-.18-.91-.36-1.37-.54-.04-.02-.08-.04-.13-.06ZM83.69,245.25c.25,1.61.09,3.15,1.65,3.92.29.15.75.18,1.04.05.21-.1.46-.69.36-.8-.87-1.09-1.12-2.78-3.05-3.17ZM206.04,104.46c-.14-.18-.33-.57-.63-.83-1.15-.95-1.15-1.09.13-1.86q-.49-.75-2.85.62c.54.27,1,.49,1.45.71-.09.15-.18.3-.27.45-.69-.04-1.39-.09-2.16-.14.51.87,1.03,1.63,2.29,1.33.61-.15,1.24-.18,2.04-.29ZM190.82,475.76c.17-.05.34-.1.52-.15-.2-2.82-1.16-5.69.49-8.46-1.37.36-2.12,1.36-1.99,2.47.19,1.62.33,3.25.55,4.87.06.44.29.85.44,1.27ZM181.17,443.72c.28.06.58.22.69.14.36-.3.75-.64.93-1.05.1-.24-.09-.82-.32-.95-.7-.39-2.53.84-2.59,1.68-.01.18.04.38-.01.54-.13.41-.31.81-.46,1.21.47.07.95.14,1.41.21.13-.69.23-1.19.35-1.79ZM222.16,101.57c.64.12,1.19.4,1.5.23.62-.33,1.14-.86,1.62-1.39.17-.18.19-.66.07-.9-.29-.59-.7-1.11-1.1-1.73-.64,1.15-1.35,2.44-2.09,3.79ZM202.33,161.95c.18.91-.47,2.05.82,2.49.28-.55.77-1.06.73-1.54-.05-.74-.29-1.58-.74-2.14-.84-1.01-1.94-.39-2.02,1.18h1.21ZM204.58,106.84c-.86-1.04-1.93-1.46-2.55-.66-.67.85-.75,2.16-1.09,3.27.09.06.19.12.28.18,1.1-.92,2.21-1.83,3.36-2.79ZM210.37,71.7c.54.36,1.01.66,1.71,1.13-.29-.88-.62-1.41-.61-1.93.02-1.36-.56-1.19-1.42-.71-.64.36-1.32.66-2.21,1.1.08.18.3.7.52,1.24.79-.33,1.44-.6,2-.84ZM188.89,191.04c-.24-.07-.47-.15-.71-.22-.22.66-.45,1.31-.65,1.98-.21.71-.52,1.43-.54,2.16-.03.72.24,1.45.39,2.24,1.36-.82,1.37-1.2.5-1.97.37-1.51.69-2.84,1.01-4.18ZM202.9,158.68c.39-.05,1.27.01,1.35-.2.28-.81.37-1.71.38-2.58,0-.29-.47-.58-.72-.87-.33.36-.87.68-.95,1.09-.16.74-.04,1.54-.04,2.56ZM211.12,160.91c-2.19.49-2.87,2.23-1.41,3.88,1-1.09,1.84-2.17,1.41-3.88ZM26.5,148.89c-.53,2.85-.43,3.08,1.27,3.18.21-.81.49-1.59.58-2.39.03-.28-.36-.73-.67-.87-.3-.13-.73.04-1.18.08ZM179.4,448.42c-.25,1.69-.48,3.19-.7,4.69.12,0,.25.01.37.02.83-1.86,1.67-3.72,2.5-5.59-.75.3-1.57.64-2.17.88ZM189.05,189.49c.03.18.06.35.09.53.64-.1,1.39-.01,1.9-.32,1.28-.78,1.22-2.19,1.16-3.46-.01-.3-.74-.56-1.32-.97v3.78c-.67.16-1.25.3-1.83.44ZM203.21,461.33l-.47.09c.24,1.75.47,3.5.75,5.57,1.35-2.74,1.32-3.11-.28-5.66ZM181.38,404.04h-2.84c-.07,1.02-.14,1.94-.21,2.85l.63.19c.72-.91,1.44-1.81,2.42-3.04ZM224.28,96.04c.05.09.11.17.16.26.49-.12.97-.27,1.46-.36.26-.05.53,0,.79-.02.32-.04.65-.11.97-.17-.17-.32-.25-.74-.51-.93-.68-.5-3.74.65-3.96,1.47-.07.25.01.55.04,1.13.49-.64.77-1,1.06-1.37ZM219.77,98.4c-1.17.47-1.94,2.6-1.42,3.26.16.2.5.4.71.36.26-.05.66-.34.68-.55.07-.98.03-1.97.03-3.08ZM214.31,124.08c-.12.03-.23.06-.35.09,0,.99-.23,2.05.07,2.93.27.82.48,1.37-.27,1.96-.12.1-.09.39-.13.59.1.07.2.14.29.21.44-.44,1.04-.8,1.3-1.33.65-1.31-1.56-2.36-.46-3.81.05-.06-.29-.41-.45-.63ZM204.31,94.9c1-.48,1.88-.77,2.58-1.3.38-.28.5-.95.67-1.47.03-.08-.31-.27-.47-.41-.25.39-.5.79-.75,1.18-.07.11-.17.21-.11.14-.71,0-1.54-.2-1.71.04-.28.42-.15,1.13-.2,1.82ZM186.05,152.77c1.25-1.53,1.41-3.41.5-4.45-1.49,1.35-.71,2.93-.5,4.45ZM186.75,371.5c-.12.03-.24.07-.36.1-.26.83-.65,1.64-.71,2.48-.03.38.59.81.91,1.21.32-.33.94-.69.91-.97-.12-.96-.48-1.89-.75-2.83ZM221.75,72.2c.8-.24,1.88-.33,1.92-.61.16-.91-.06-1.89-.13-2.85-.2-.02-.39-.05-.59-.07-.35,1.01-.69,2.02-1.21,3.53ZM178.83,306.5c-.34.68-.63,1.21-.88,1.75-.41.9.76,2.35,1.61,1.83-.08-.3-.16-.63-.24-.97.26-.1.52-.21.68-.27-.4-.81-.75-1.5-1.17-2.34ZM174.01,438.04c-.44.24-1.3.53-1.28.72.11,1.01.45,1.99.75,3.13.69-.52,1.05-.79,1.5-1.13-1.68-.42-.37-1.7-.97-2.72ZM186.33,167.18c.13-.07.26-.14.39-.2-.06-.89-.12-1.77-.21-3.06-.39.81-.64,1.2-.77,1.64-.19.64-.57,1.43-.35,1.91.2.44,1.1.56,1.7.82.05-.11.11-.22.16-.33-.3-.26-.61-.51-.91-.77ZM171.82,391.63c-1.2-.1-2.45-.21-2.46,1.05-.02,1.31,1.22.94,2.19.89.09-.64.17-1.23.27-1.94ZM187.76,131.54c.8-1.31,1.2-2.65.59-4.43-1.13,1.58-1.36,2.94-.59,4.43ZM200.51,264.41c-.07-.17-.13-.33-.2-.5-.39.14-.94.16-1.12.44-.52.78-.89,1.65-1.22,2.3.45.37.89.75,1.52,1.28.11-.54.44-1.15.26-1.43-.68-1.06-.07-1.58.76-2.09ZM177.91,381.75c-1.17,1.96-1.14,2.46.12,3.6.82-1.1.81-2.56-.12-3.6ZM210.89,117.97c-.59.73-1.16,1.34-1.61,2.02-.2.31-.33.82-.21,1.14.09.25.63.47.94.45.3-.03.58-.39,1.11-.79-.75-.1-1.12-.15-1.63-.22,1.84-1.14,1.96-1.38,1.4-2.6ZM87.75,193.17c0-.18,0-.36-.01-.53-.56-.26-1.1-.64-1.68-.73-.26-.04-.61.51-.92.79.37.41.7,1.08,1.12,1.15.44.08.99-.43,1.49-.68ZM178.68,356.41c.28.09.57.18.85.28-1.7-2.64.3-2.3,1.71-2.48-.83-.52-1.33-.84-1.58-.99-.74.24-1.27.45-1.81.58-1.07.26-.66.73-.24,1.28.21-.29.37-.51.63-.87.17.87.3,1.53.43,2.2ZM179.84,389.2c-.31-1.09-.57-2.02-.91-3.24-.39.32-1.17.67-1.2,1.07-.09,1.17.73,1.82,2.11,2.17ZM178.4,164.67c-.15,1.19-1.47,2.36.38,3.59-.21-1.32,1.91-2.46-.38-3.59ZM201.75,484.42c-.03.18-.06.37-.09.55.61.26,1.33.84,1.8.69.46-.15.67-1.06.99-1.63-.13-.1-.25-.19-.38-.29-.78.23-1.55.46-2.33.69ZM204.3,96.93c.49,1.33.93,2.5,1.44,3.88.22-.9.37-1.49.54-2.18q-1.23-1.98-1.98-1.69ZM192.83,148.7c1.4-.69,1.85-2.54,1.02-4.81-.38,1.82-.69,3.27-1.02,4.81ZM32.43,140.83c-.55-.61-.92-1.02-1.29-1.43-.34.35-1.02.8-.95,1.01.16.5.64.93,1.08,1.26.1.07.61-.44,1.15-.84ZM195.16,35.52c-.95-.68-1.91-1.36-2.86-2.04.57,2.12,1.46,2.79,2.86,2.04ZM158.01,354.12l.2.52c.88-.3,1.75-.6,2.63-.9-.03-.14-.05-.28-.08-.42-.61-.3-1.21-.6-1.82-.9-.35.63-.64,1.17-.93,1.71ZM183.61,395.99c-.05-.17-.1-.34-.16-.51-.59.15-1.19.3-1.78.46.41.64.75,1.35,1.26,1.88.18.19.81-.06,1.23-.11-.03-.15-.06-.29-.08-.44h-1.36c.37-.54.63-.91.88-1.28ZM50.44,195.51l.39-.39c-.53-.51-.99-1.16-1.61-1.48-.3-.15-.92.33-1.39.52,0,.17,0,.35,0,.52.87.27,1.74.55,2.61.82ZM207.71,462.28c-1.51.08-2.39.55-2.49,1.93-.01.19.1.49.25.58.16.09.56.09.64-.03.52-.73.98-1.49,1.6-2.48ZM174.81,452.5c-.18,0-.36.02-.54.03-.16.64-.39,1.26-.45,1.91-.02.19.43.43.66.65.34-.52.8-1,.97-1.57.08-.25-.41-.67-.65-1.02ZM205.66,155.77c.17-.04.33-.08.5-.12.16-1.01.32-2.02.49-3.12-1.43.13-1.27,1.3-1.58,2.03-.12.27.38.8.59,1.21ZM182.59,323.9c-.51-.22-.84-.36-1.17-.52-.33-.16-.66-.35-1.06-.56-.92,1.01,0,1.61.46,2.34.55-.39,1-.72,1.77-1.27ZM168.71,386.96c-1.74,1.44.26,2.78-.44,3.95.24.04.49.07.84.13-.13-1.34-.25-2.53-.4-4.08ZM204.89,148.96l.33.38c.58-.25,1.22-.44,1.73-.8.23-.16.19-.69.27-1.06-.32-.03-.77-.21-.94-.07-.52.45-.93,1.02-1.38,1.54ZM103.23,271.53c.18-1.58-.17-2.04-1.78-2.28-.12,1.34.58,1.97,1.78,2.28ZM188.23,174.9c.15.07.3.14.45.21q1.71-2.36,1.27-3.66c-.64,1.29-1.18,2.37-1.72,3.46ZM179.45,384.61c.13.11.25.23.38.34.49-.48.98-.96,1.48-1.44-.5-.45-.99-.9-1.51-1.33-.04-.03-.23.11-.45.22.28.3.52.56.75.8-.23.49-.44.94-.65,1.4ZM207.54,150.54c-1.36-.81-2.4-.11-2.6,1.97,1.01-.77,1.77-1.34,2.6-1.97ZM183.2,402.56c.64-1.99.33-2.47-1.92-2.91.69,1.04,1.24,1.88,1.92,2.91ZM183.8,407.55c.32-.31.64-.61,1.14-1.08-1.24-.13-2.21-.23-3.28-.35.05.69.08,1.14.13,2,.6-.59.96-.94,1.39-1.36.2.25.39.49.63.78ZM164.47,373.21c-.45.75-.88,1.16-.82,1.47.08.41.54.75.84,1.11.25-.33.69-.65.71-.99.01-.4-.34-.81-.73-1.59ZM185.04,182.65c-.77.4-1.25.65-2.02,1.06.82.63,1.39,1.07,1.97,1.52.12-.08.23-.16.35-.25-.09-.68-.17-1.35-.3-2.33ZM209.56,46.58h-2.17c-.07.15-.26.37-.25.58.02.41.16.82.24,1.22.29-.23.59-.45.87-.68.39-.33.78-.67,1.3-1.12ZM174.11,237.88c-.55.86-.88,1.31-1.12,1.8-.12.24-.18.68-.04.83.17.2.61.32.86.24.25-.08.57-.44.58-.68.02-.59-.13-1.18-.27-2.2ZM215.84,111.44c-.14-.07-.28-.13-.42-.2-.45,1.11-.9,2.22-1.48,3.65,2.05-.79,1.58-2.29,1.89-3.46ZM65.16,217.88c-.85-.05-1.6.26-1.49,1.16.05.43.92.75,1.49,1.18v-2.35ZM205.15,468.05c-.13-.1-.26-.2-.39-.3-1.9.74-2.16,1.11-1.48,2.42.66-.75,1.26-1.43,1.86-2.12ZM193.69,173.19c-.08-.1-.16-.2-.23-.31-.62-.07-1.24-.15-2.28-.28.42.75.7,1.25.97,1.75.51-.39,1.03-.78,1.54-1.17ZM200.71,145.9c.13.06.26.12.39.18,1.15-.78,1.64-2.05.89-2.87-.45.95-.86,1.82-1.28,2.69ZM193.96,30.37c-.23.13-.45.26-.68.39.02.48-.13,1.21.11,1.38.4.28,1.06.21,1.6.29.13-.23.26-.45.39-.68-.48-.46-.95-.92-1.43-1.38ZM178.59,334.7c-.66.7-1.15,1.23-1.65,1.75.06.13.12.27.18.4.72-.17,1.44-.35,2.27-.54-.3-.6-.5-1.01-.8-1.61ZM188.79,167.53c-.68.78-1.28,1.43-1.82,2.12-.08.1.04.48.18.58.14.11.57.13.62.05.48-.83,1.58-1.45,1.03-2.75ZM205.51,172.88c.07.08.14.15.21.23.84-.97,1.67-1.94,2.51-2.9-.1-.13-.2-.25-.3-.38-.36.15-.89.21-1.06.48-.52.81-.91,1.71-1.35,2.57ZM108.9,278.41c-.21.07-.41.13-.62.2.08.62.17,1.23.25,1.85.42-.12.85-.25,1.27-.37-.3-.56-.6-1.11-.9-1.67ZM207,127.12v.49c.54,0,1.11.07,1.64-.04.17-.03.41-.72.33-.8-.44-.43-.98-.76-1.48-1.12-.15.19-.3.38-.45.56l1.14.49c-.05.09-.1.19-.16.28-.34.05-.68.09-1.02.14ZM171.58,247.7c.73-1.76.01-2.48-2.12-2.26.79.85,1.39,1.49,2.12,2.26ZM203.59,120.6l.56.17c.39-1.03.77-2.06,1.16-3.08-.24-.08-.49-.16-.73-.24-.33,1.05-.66,2.1-.99,3.15ZM191.54,183.75c.15.04.3.07.44.11l1.78-.9c.01-.13.03-.25.04-.38-.65-.07-1.31-.26-1.93-.16-.18.03-.23.86-.34,1.33ZM198.97,123.92c.46-1.32.79-2.25,1.12-3.19-.19-.06-.38-.11-.57-.17-.16,1-1.5,1.65-.54,3.35ZM228.05,99.3c.59-.92.97-1.52,1.36-2.12-.07-.12-.14-.24-.2-.35-.55.24-1.25.35-1.58.76-.19.24.22.96.43,1.71ZM186.17,157.63c-1.06.48-1.2,1.22-.64,2.2,1.51-.37.68-1.41.64-2.2ZM168.08,417.28c.33-.83.6-1.21.6-1.6,0-.26-.38-.52-.59-.78-.24.37-.57.71-.67,1.12-.06.23.27.56.66,1.26ZM202.82,124.36c-.19-.15-.38-.3-.58-.45-.4.48-.79.96-1.19,1.44.3.2.59.41.89.61.29-.54.58-1.07.87-1.61ZM133.46,213.27c.57-1.19-.02-2.04-1.9-2.68.7.99,1.25,1.76,1.9,2.68ZM202.25,112.17c-.28.82-1.24,1.43-.95,2.86,1.07-1.03,1.78-1.72.95-2.86ZM205.19,181.97c2.02.26,2.19.07,1.99-1.78-.61.55-1.18,1.05-1.99,1.78ZM170.39,390.7c1.53-1.38,1.53-2.06.22-2.58-.06.76-.12,1.48-.22,2.58ZM224.59,103.99c-.64-.48-.99-.83-1.42-1.02-.12-.05-.45.35-.68.54.34.31.65.69,1.05.91.15.08.49-.19,1.06-.43ZM177.11,335.11c.52-.48.95-.88,1.4-1.31-.08-.1-.17-.27-.31-.4-.27-.26-.56-.5-.84-.75-.09.4-.2.79-.25,1.19-.04.36,0,.73,0,1.27ZM185.37,482.13c-.04.11-.09.22-.13.34.55.15,1.11.3,1.66.45.09-.52.18-1.04.28-1.62-.85.39-1.33.61-1.82.83ZM212.18,131.75c-.19.08-.37.16-.56.25.05.61.1,1.22.15,1.83.12.05.24.09.37.14.24-.31.68-.64.66-.94-.03-.44-.4-.85-.62-1.28ZM180.56,177.84c-.09-.08-.18-.17-.27-.25-.24.76-.48,1.53-.72,2.29.13.06.26.12.39.19.38-.24.77-.48,1.05-.65-.16-.58-.3-1.07-.44-1.57ZM189.2,165.1l.4-.06c-.06-.3-.03-.78-.2-.86-.58-.28-1.22-.48-1.86-.58-.11-.02-.32.6-.48.93.09.06.18.13.26.19.33-.2.67-.41,1.05-.64.32.39.58.7.84,1.02ZM188.97,171.18c.09.1.19.2.28.3.42-.44.91-.85,1.23-1.35.1-.16-.21-.59-.33-.89-.23.17-.55.3-.68.53-.23.44-.34.94-.51,1.41ZM211.71,141.46c-.63-.39-.94-.74-1.28-.75-.24-.01-.71.41-.71.64,0,.26.39.72.63.74.33.02.68-.29,1.36-.63ZM195.24,142.04c-.21-.08-.43-.17-.64-.25-.28.42-.55.84-.83,1.26.37.13.74.27,1.11.4.12-.47.24-.94.36-1.41ZM203.74,248.36c-1.17.3-.98,1.12-.83,1.81.04.19.56.27.83.39v-2.2ZM205.27,459.47c.14,0,.28-.02.43-.02.15-.79.3-1.58.47-2.49-.33-.06-.66-.13-1.06-.2.06,1.01.11,1.86.16,2.71ZM178.96,417.77c-.1-.21-.2-.41-.29-.62-.75.33-1.5.65-2.25.98.08.2.16.39.25.59.76-.32,1.53-.63,2.29-.95ZM169.19,421.47c-.25.06-.51.13-.76.19.23.79.46,1.57.69,2.36.2-.05.4-.1.59-.15-.18-.8-.35-1.6-.53-2.39ZM201.9,259.04c.22.08.44.15.66.23l.92-2.66c-.16-.06-.32-.12-.49-.18-.37.87-.73,1.74-1.1,2.62ZM175.04,344.25c.9.32,1.6.57,2.39.85-.65-.85-1.17-1.52-1.71-2.23-.21.43-.44.89-.69,1.38ZM197.24,119.88c.06.85.11,1.51.16,2.18q1.13-1.78-.16-2.18ZM184.71,356c-.12,0-.25,0-.37,0-.4.44-.79.89-1.19,1.33.58.23,1.21.3,1.52.02.23-.21.05-.88.05-1.34ZM191.58,190.38c-.88.42-1.48.71-2.1,1,.91,1.23,1.05,1.17,2.1-1ZM210.22,87.3c.23.14.45.28.68.42.36-.64.72-1.28,1.08-1.92-.15-.09-.3-.18-.44-.27-.44.59-.88,1.18-1.32,1.77ZM184.69,310.56c-.22-.13-.45-.25-.67-.38-.28.4-.57.79-.85,1.19.31.13.81.43.88.35.29-.32.44-.76.64-1.16ZM210.09,174.11c.46-.56.83-.87,1-1.28.1-.25-.11-.63-.18-.96-.27.19-.7.32-.78.57-.13.42-.04.9-.04,1.67ZM186.67,212.56c1.81.55,2.09.32,1.75-1.16-.53.35-1.02.67-1.75,1.16ZM110.17,169.48l-.47.66c.54.34,1.08.68,1.63,1,0,0,.28-.39.26-.42-.46-.43-.94-.83-1.42-1.24ZM229.07,92.98c-.07-.2-.14-.4-.2-.6-.55.13-1.1.26-1.66.38.11.28.21.57.32.85.51-.21,1.03-.42,1.54-.63ZM210.2,75.39h.44c.03-.47.21-1,.04-1.38-.12-.26-.72-.31-1.4-.56.41.88.66,1.41.92,1.94ZM171.13,446.55c.11.87.18,1.4.25,1.94.46-.2.91-.39,1.49-.64-.63-.47-1-.75-1.74-1.3ZM54.46,195.39c-.23.14-.46.27-.69.41.28.46.57.92.85,1.38.22-.14.65-.39.63-.41-.23-.47-.52-.92-.79-1.37ZM147.73,338.09c.67-1.36.39-1.89-1.03-1.92.36.67.66,1.23,1.03,1.92ZM212.98,92.33c.35-1.15.03-1.71-.83-1.76-.14.13-.28.26-.43.39.42.46.84.92,1.25,1.38ZM219.45,121.42c1.14,1.17,1.33,1.14,1.77-.13-.64.05-1.2.09-1.77.13ZM136.13,284.47c.16.04.31.09.47.13.73-.55.84-1.28.22-2.61-.3,1.08-.5,1.78-.69,2.48ZM181.34,374.84c.82-.56,1.39-.94,2.03-1.38-1.1-.65-1.44-.43-2.03,1.38ZM187.37,210.38h-2.83c1.13.57,1.87,1.56,2.83,0ZM131.8,204.85c.06-.24.12-.48.18-.72-.45-.13-.89-.27-1.34-.35-.04,0-.16.45-.24.69.47.13.93.25,1.4.38ZM209.94,167.07c.16.18.32.37.48.55.47-.43.93-.87,1.4-1.3-.12-.13-.33-.38-.36-.36-.52.35-1.02.73-1.52,1.11ZM180.64,180.98c-1.28.54-1.8,1-.94,2.44.35-.92.58-1.5.94-2.44ZM225.96,62.95c.33-.51.63-.78.64-1.06.01-.23-.32-.47-.5-.71-.24.24-.59.44-.69.73-.06.19.25.5.55,1.03ZM215.5,124.9c.3.7.52,1.21.91,2.12.26-.98.39-1.51.55-2.12h-1.47ZM122.21,192.08c-.32.56-.58.93-.73,1.35-.03.09.43.51.52.47.37-.18.69-.47,1.03-.72-.15-.2-.3-.4-.82-1.1ZM186.81,133.65c.12-.23.23-.46.35-.69-.47-.21-.94-.45-1.43-.61-.06-.02-.25.39-.38.59.49.24.97.47,1.46.71Z"/>
  <path class="cls-1" d="M196.36,324.05c-.73-2.41-.49-4.25-.12-6.17-.49-.31-1-.63-1.58-.99.24-.37.39-.74.65-.99.63-.62.75-1.17.24-2-.85-1.39-.35-2.75.31-3.98h2.48c-.2,1.98,1.67,3.52,1.09,5.73-.16.59.64,1.43,1.12,2.4-.66.26-1.67.66-2.29.9-.44.98-.8,1.71-1.09,2.47-.08.22-.04.63.11.77.25.24.63.41.97.46.13.02.42-.38.46-.62.07-.46.02-.94.02-1.48,1.04-.21,1.63.19,1.74,1.17.21,1.89.33,3.79.56,5.68.1.84.39,1.67.66,2.79-.72.68-.42,1.81-.38,3.08.11,2.81.84,5.52,1.03,8.3.04.59.43,1.15.73,1.91-.86,1.04-.91,4.14.16,5.91-.98.99-1.17,2.06-.73,3.47.24.79-.27,1.81-.48,2.96-.89-.43-1.66-.81-2.24-1.09.27-1.44.63-2.67.7-3.92.03-.54-.43-1.2-.83-1.66-.35-.41-1.38-.7-1.34-.92.17-.99.46-2.02.98-2.86.49-.8,1.27-1.39.42-2.64-.21.69-.36,1.16-.5,1.64-.08,0-.15,0-.23-.01-.08-.79-.29-1.59-.17-2.35.04-.26.94-.37,1.55-.59-.51-.81-1.1-1.73-1.68-2.65-.12.06-.23.11-.35.17.09-.61.29-1.23.24-1.84-.03-.38-.35-.82-.67-1.09-.56-.47-1.21-.83-1.85-1.25,2.08-2.54,2.15-2.55,3.16-.53,1.2-1.17.85-1.96-1.58-3.16-.18.34-.41.76-.78,1.46-.19-3.34-.35-6.16-.49-8.51ZM197.44,314.56c-.13.08-.25.15-.38.23.28.54.55,1.08.91,1.78,1.41-1.5-.37-1.4-.53-2.01Z"/>
  <path class="cls-1" d="M173.1,58.74c-.03-.46.05-.97-.11-1.37-.62-1.51-.43-2.2.85-3.13,1.03-.74,2.14-1.52.95-3.01-.1-.13-.18-.45-.1-.53.87-.9,1.62-2.09,2.69-2.58,1.78-.81,3.76-1.17,5.75-1.74q1.89,1.53.26,3.58c-.21-.45-.41-.87-.59-1.25-1.35,1.09-2.12,2.41-3.75,2.44-.17,0-.31.62-.5.93-.37.6-.77,1.19-1.15,1.77-.53-.17-1.01-.32-1.66-.53,1.12,2.92-.11,5.22-2.66,5.41v.02Z"/>
  <path class="cls-1" d="M186.06,39.41c1.82.05,3.63.1,5.57.15-.7.84-1.15,1.39-1.61,1.94.6.46,1.14,1.18,1.8,1.32,1.16.25,1.23,1.02,1.36,1.87-.65.46-1.29.9-1.95,1.36-.07-.01-.2,0-.25-.05-1.44-1.51-1.42-1.49-3.16-.11-.63.5-1.38.84-2.07,1.25-.09-.1-.17-.21-.26-.31.09-.19.19-.38.28-.58.07-.16.13-.34.32-.82-2.76-.94-5.43-1.84-8.31-2.82,1.2-.59,2.19-1.54,3.64-.67.95.57,1.96,1.05,2.87,1.68,1.35.96,3.35.54,4.08-.99.12-.25,0-.78-.21-.99-.28-.28-.75-.38-1.35-.27-.24-.66-.48-1.33-.73-1.99l-.02.02Z"/>
  <path class="cls-1" d="M195.86,307.42c2.16-.38,2.61-.13,2.93,1.5-1.43-.08-2.82-.13-4.2-.27-.1-.01-.19-.62-.21-.96-.08-.94-.15-1.89-.16-2.83,0-.59.02-1.22.21-1.76.27-.76-.04-1.21-.32-1.9-.5-1.21-.4-2.67-.56-4.03.55-.04,1.2-.27,1.61-.05.35.19.72,1.04.57,1.36-.68,1.45-.24,2.74.06,4.17.31,1.48.07,3.07.07,4.76Z"/>
  <path class="cls-1" d="M141.59,218.01v-1.51c-.39-.07-.7-.15-1.02-.19-.43-.05-.87-.08-1.31-.11.15-.46.3-.93.46-1.44-.96-1.2-.5-2.8,1.32-3.86-.08.59-.14,1.07-.27,2.02.88-.55,1.48-.93,2.19-1.38.31.26.74.61,1.35,1.11-.56.37-1.04.68-1.6,1.05.82,1.61-.47,2.87-.75,4.37-.12-.02-.24-.04-.36-.05Z"/>
  <path class="cls-1" d="M157.65,435.35c.32.11.53.12.67.23.46.35.89.74,1.34,1.11-.43.47-.84.97-1.31,1.4-.41.38-.85.74-1.33,1.03-.45.28-.95.46-1.76.85.17-.71.16-1.07.28-1.12,1.87-.74,1.24-2.48,1.59-3.83.14-.53.34-1.04.55-1.55.27-.68,1.42-1.03.65-2.13-.16-.23.26-1,.58-1.39.26-.33.77-.64,1.16-.63.29,0,.73.52.78.86.04.26-.43.59-.7.87-.16.17-.56.37-.53.43.72,1.76-1.16,2.03-1.72,3.04-.11.2-.13.45-.23.82Z"/>
  <path class="cls-1" d="M204.65,401.15c-.82,1.16-1.14,2.02,1.28,1.94-.17.14-.34.27-.51.41-.54.24-1.08.49-1.7.77,1.07.62,1.37,1.21,1,2.61-.42,1.56-.08,3.41.29,5.06.25,1.12.53,1.06-.7,1.76-.14-1.71.13-3.58-.51-5.05-.7-1.6-.46-3.14-.68-4.7-.17-1.18-.01-2.35,1.55-2.78Z"/>
  <path class="cls-1" d="M152.66,408.21c.97-.17,2.11-.38,3.42-.61.12.38.27.89.49,1.6-.65-.14-1.08-.24-1.55-.34-.25,1.03-.32,2.21-1.94,1.85-.37.85-.66,1.77-1.17,2.53-.21.31-.9.31-1.29.42.25-1.31.4-2.32.67-3.3.09-.33.52-.54.72-.86.26-.41.44-.87.65-1.3Z"/>
  <path class="cls-1" d="M230.48,86.98c-.52-1.7.03-2.18,1.72-3.08,1.41-.75,2.46-2.15,3.59-3.18.07.41.18,1.02.25,1.4-.4.73-.76,1.31-1.04,1.93-.4.88-.88,1.42-1.99,1.12-.43-.12-.97.14-1.46.23.01.14.03.28.04.42.23.04.47.08.77.14-.28,1.06-1.06,1.09-1.91,1.01l.02.02Z"/>
  <path class="cls-1" d="M202.56,396.46c-.33-.9-.64-1.75-.96-2.61.18-.12.35-.25.53-.37.12.41.25.81.37,1.22,1.17-1.45-.31-3.16,1.46-4.44.16,2.1-.75,4.03.19,5.64-.72.81-1.42,1.72-2.25,2.49-.31.29-.94.32-1.41.31-.19,0-.58-.5-.53-.63.16-.43.41-.92.78-1.14.45-.27,1.05-.29,1.82-.47Z"/>
  <path class="cls-1" d="M173.08,58.71c.38,1.94-.63,3.44-1.38,4.91-.67-.3-1.18-.54-2.05-.94.75-1.64,1.52-3.31,2.44-5.32.49.67.75,1.02,1.01,1.37,0,0-.01-.02-.01-.02Z"/>
  <path class="cls-1" d="M139.35,206.1c-.48.28-.97.56-1.43.84.24.49.69,1.15.6,1.23-.52.49-1.15.89-1.79,1.21-.13.07-.6-.26-.73-.51-.67-1.33.1-3.72,1.52-4.16.53-.16,1.34.56,2.03.88-.06.17-.13.34-.19.5Z"/>
  <path class="cls-1" d="M232.71,70.55c-.52,2.1-.46,4.36-2.76,5.68.15-.68.31-1.36.47-2.09-.36.06-.73.12-1.53.26.99-.95,2-1.52,2.34-2.36.31-.77-.09-1.84-.19-2.9.61.52,1.13.96,1.66,1.41Z"/>
  <path class="cls-1" d="M135.83,410.21c2.18.03,2.31.15,2.32,1.92.01,1.97.15,2.11,2.07,2.05-.81.83-1.6,1.7-2.47,2.46-.16.14-.67-.13-1.01-.2.08-.28.15-.57.24-.85.27-.85.73-1.7.78-2.56.06-.91-.07-1.99-1.51-1.91-.11,0-.24-.5-.43-.91Z"/>
  <path class="cls-1" d="M154.44,445.73c.21,1.14.33,1.76.51,2.74-.49.28-1.19.63-1.84,1.05-.24.16-.4.49-.51.77-.2.5-.33,1.03-.57,1.83-.22-.95-.36-1.56-.5-2.18-.17-.06-.33-.13-.5-.19,1.07-1.26,2.13-2.52,3.41-4.03Z"/>
  <path class="cls-1" d="M200.76,374.87c1.1-1.22.67-2.01-.01-3.02-1.07-1.59-.21-2.98,1.78-3.37.18-.03.57.16.57.26.02.34.01.78-.18,1.02-.41.5-.95.9-1.42,1.33,1.25,1.79,1.1,2.83-.74,3.78Z"/>
  <path class="cls-1" d="M133.41,475.54c.67-2.7,1.33-5.41,2.01-8.16,1.06,1.24,1.03,1.21.21,2.57-.25.42-.23.99-.34,1.49-.23,1.16-.43,2.33-.73,3.47-.09.34-.48.59-.74.88-.14-.09-.29-.18-.43-.26Z"/>
  <path class="cls-1" d="M137.25,221.15c.51-1.43,2.05-2.58,3.73-2.47-.15,1.28-.29,2.53-.44,3.82-.49-.45-.91-1.06-1.48-1.31-.51-.22-1.2-.05-1.8-.05Z"/>
  <path class="cls-1" d="M156.39,430.84c-.35.78-.62,1.59-1.07,2.29-.27.43-1.97-.39-2.41-1.14-.09-.16-.14-.35-.2-.53q-.67-2.04,1.38-2.12c.23.84-1.09,1.96.29,2.5.39.15,1.11-.53,2-1Z"/>
  <path class="cls-1" d="M147.32,213.13c.15-1.4.27-2.54.44-4.1.96,1.26,1.74,2.29,2.53,3.33q-2.15,1.83-2.97.77Z"/>
  <path class="cls-1" d="M146.05,207.21c-.44.49-.8.9-1.15,1.3-1.16-1.23-3.57-1.43-4.62-.18-.25-.34-.48-.66-.75-1.03.57-.18,1.11-.55,1.51-.44,1.19.32,2.18-.17,3.14-.65,1.2-.59,1.68-.13,1.87,1Z"/>
  <path class="cls-1" d="M202.25,359.52c-.84-.63-1.53-1.15-2.48-1.87,1.15-.35,2.03-.62,2.68-.82.06.92-.08,1.56.15,2.01.79,1.46-.5,2.25-.96,3.32-.48-.95-1.1-1.91.6-2.64Z"/>
  <path class="cls-1" d="M186.08,39.39c-.32-.09-.64-.18-.97-.27-1.25-.35-1.32-.31-1.87.89.19-.72.38-1.43.59-2.24-.33-.14-.77-.33-1.4-.59.77-.54,1.28-.9,1.94-.07.18.22.71.27,1.06.23.48-.06.95-.29,1.78-.56-.49,1.13-.82,1.89-1.15,2.65,0,0,.02-.02.02-.02Z"/>
  <path class="cls-1" d="M175.78,70.96c.27,1.92.37,3.46-.81,4.81.55.28,1.03.52,1.51.76-.09.19-.19.37-.28.56-.47-.29-1.08-.47-1.38-.88-.84-1.18-.44-3.68.97-5.25Z"/>
  <path class="cls-1" d="M136.92,404.64v-2.66c-.56.47-.86.72-1.24,1.04-.12-.71-.23-1.35-.33-1.98,2.43-.44.9-2.51,1.49-3.69.14,0,.28,0,.41.01v7.29c-.11,0-.22,0-.33,0Z"/>
  <path class="cls-1" d="M202.66,364.74c.23.66.47,1.32.75,2.12-.82.33-1.69.69-2.54,1.03-1.08-1.85-.55-2.73,1.79-3.15Z"/>
  <path class="cls-1" d="M178.86,158.48c-.04-.64-.1-1.27-.12-1.91-.02-.51,0-1.02,0-1.45.52-.06.88-.1,1.37-.15.36.9.77,1.92,1.26,3.14-1.04.14-1.78.24-2.52.35,0,0,.02.02.02.02Z"/>
  <path class="cls-1" d="M188.52,377.93c.34,1.7.64,3.25.99,5.01-.7-.39-1.55-.85-2.55-1.4,1.16-.99.12-2.78,1.56-3.61Z"/>
  <path class="cls-1" d="M159.34,424.27c.83.76,1.63,1.51,2.47,2.28-.63.59-1.34,1.25-2.08,1.95-1.56-1.55.31-3.06-.39-4.23Z"/>
  <path class="cls-1" d="M231.4,66.36c-.52-.58-1.04-1.15-1.38-1.53.78-1.02,1.37-1.93,2.11-2.7.31-.33.92-.36,1.75-.65-.77,1.91-3.15,2.56-2.1,4.78-.13.03-.26.07-.39.1Z"/>
  <path class="cls-1" d="M195.58,441.51c.64.77,2.37-.26,2.05,1.61-.14.82-1.27,1.32-2.16,1.01-.6-.2-.6-.55.11-2.62Z"/>
  <path class="cls-1" d="M200.35,473.22c-.02.1,0,.21-.05.28-.43.59-.87,1.18-1.3,1.76-.26-.51-.51-1.04-.8-1.54-.16-.28-.39-.52-.59-.79,1.14-1.39,1.98-.85,2.75.29Z"/>
  <path class="cls-1" d="M152.8,459.01c.22.19.68.6,1.22,1.07-.31,1.22-1.48,1.54-2.47,2.03-.17.08-.69-.11-.69-.2-.02-.28.06-.63.23-.85.51-.67,1.08-1.3,1.71-2.05Z"/>
  <path class="cls-1" d="M157.02,382.12c.21.38.41.73.66,1.19-.41.02-.67.03-.99.04.05.14.12.26.13.39.05.58.13,1.16.08,1.73-.01.14-.46.37-.68.34-.18-.03-.39-.35-.46-.59-.34-1.14-.44-2.24.79-2.97.08-.05.18-.05.47-.14Z"/>
  <path class="cls-1" d="M192.59,293.71c-.51-.77-1.01-1.21-1.04-1.68-.03-.43.36-1.11.75-1.28.51-.22,1.19-.06,2.07-.06-.54.91-1.07,1.82-1.77,3.01Z"/>
  <path class="cls-1" d="M173.66,206.03c-.13,1.85-.26,3.69-.38,5.54-.07.04-.15.09-.22.13-.16-.4-.46-.8-.47-1.21-.03-1.31.01-2.62.14-3.92.02-.21.62-.35.95-.53l-.02-.02Z"/>
  <path class="cls-1" d="M196.86,477.01c.25,1.45-.71,3-1.89,3.61-.16-.52-.31-1.04-.48-1.61.71-.6,1.43-1.21,2.37-2Z"/>
  <path class="cls-1" d="M237.17,58.93c-.65,1.53-.47,3.22-2.33,3.63-.36-1.2.62-2.94,2.33-3.63Z"/>
  <path class="cls-1" d="M145.41,217.27c-.12,1.53,1.15,1.58,2.3,1.76-.05.13-.1.25-.14.38-.5.2-1,.41-1.61.65v2.16c-.86-.3-1.08-2.46-.54-4.93v-.02Z"/>
  <path class="cls-1" d="M135.85,458.55v-5.46c1.5.48,1.37.46.82,1.58-.41.83-.34,1.88-.47,2.84-.05.36-.08.72-.12,1.09-.08-.02-.15-.03-.23-.05Z"/>
  <path class="cls-1" d="M193.55,51.38c.28.45.47.76.64,1.04.56-.11,1.03-.21,1.5-.31.03.13.06.25.08.38-.32.13-.64.23-.95.38-.34.17-.65.37-1.05.6.09.44.17.88.26,1.34-1.5-.27-1.6-.93-.49-3.44Z"/>
  <path class="cls-1" d="M233.47,55.91c-.35-.82-.66-1.53-1.05-2.45.57.26.96.44,1.44.65.28-.45.56-.88.83-1.31.6,1.01.08,2.32-1.22,3.1Z"/>
  <path class="cls-1" d="M178.35,186.28c-.08,1.73-.14,3.07-.2,4.45-1.29-.38-1.26-2.77.2-4.45Z"/>
  <path class="cls-1" d="M180.44,137.19c.31-1.27.63-2.55.98-3.98.92.91.64,2.53-.45,4.1-.18-.04-.35-.08-.53-.13Z"/>
  <path class="cls-1" d="M196.93,366.75c.35,1.19.72,2.37,1.02,3.56.03.12-.35.47-.55.48-.19.01-.55-.26-.57-.44-.16-1.16-.24-2.34-.35-3.51l.46-.1Z"/>
  <path class="cls-1" d="M153.71,499.09c.43-.58.86-1.16,1.46-1.97.18.66.59,1.33.4,1.73-.24.51-.91.94-1.49,1.13-.35.12-.86-.28-1.31-.45.31-.15.62-.3.93-.44Z"/>
  <path class="cls-1" d="M174.22,189.02c.31.93.67,1.86.9,2.81.07.28-.23.66-.46,1.27-.83-1.59-1.49-2.77-.41-4.07,0,0-.02-.01-.02-.01Z"/>
  <path class="cls-1" d="M200.86,386.61c-.65.21-1.17.38-1.68.55.97-1.67-.44-2.68-.93-3.86.16-.07.31-.13.47-.2.67,1.1,1.34,2.2,2.13,3.51Z"/>
  <path class="cls-1" d="M202.72,71.75c-1.75,1.05-1.89-.11-2.17-.83-.09-.24.25-.65.39-.99.55.56,1.11,1.13,1.78,1.81Z"/>
  <path class="cls-1" d="M165.06,496.12c.25.36.76.76.7,1.06-.14.76-.54,1.46-.83,2.19-.17-.05-.33-.11-.5-.16.08-.94.15-1.88.23-2.82.13-.09.26-.18.39-.27Z"/>
  <path class="cls-1" d="M153.5,455.71c1.08.28,1.32,1.02.95,1.95-.12.29-.59.43-.89.64-.17-.37-.48-.74-.48-1.11,0-.48.27-.97.43-1.48Z"/>
  <path class="cls-1" d="M143.17,430.54v-4.67c.98,1.54.64,4.33,0,4.67Z"/>
  <path class="cls-1" d="M154.95,389.11c-.19-1.06-.37-2.11-.61-3.47,1.49.96,1.72,2.22.61,3.47Z"/>
  <path class="cls-1" d="M161.55,420.35c.63-.81,1.53-1.25,2.61-.91.24.08.25.88.38,1.41-1.21-.2-2.09-.35-3-.5Z"/>
  <path class="cls-1" d="M159.85,497.08c.56-1.02.89-1.63,1.27-2.31.83.61,1.16,1.34.47,2.11-.24.27-.96.13-1.73.2Z"/>
  <path class="cls-1" d="M153.07,392.75c.34-.69.66-1.35,1.08-2.19.17.51.26.8.43,1.34.36-.54.61-.9.85-1.26.31,1.19-.93,2.38-2.36,2.12Z"/>
  <path class="cls-1" d="M149.09,463.98c.9.26,2.32-1.15,2.84,1.33-1.18-.34-2.07-.61-2.97-.87.04-.15.09-.31.13-.46Z"/>
  <path class="cls-1" d="M149.11,497.08c.27.59.61,1.03.61,1.47,0,.26-.48.64-.82.77-.23.09-.58-.16-.88-.25.12-.3.21-.62.37-.91.16-.3.38-.57.72-1.08Z"/>
  <path class="cls-1" d="M162.23,457.13c-.31.81-.63,1.62-1.01,2.6-1.88-1.87.26-1.96.62-2.76l.39.15Z"/>
  <path class="cls-1" d="M146.62,394.09c.83,1.52.71.88-1.8,2.75.6-.91,1.19-1.82,1.8-2.75Z"/>
  <path class="cls-1" d="M137.37,424.8c.13-1.36.23-2.35.33-3.49,1.06,1.12,1.01,2.32-.33,3.49Z"/>
  <path class="cls-1" d="M163.17,433.64c.7.76,1.28,1.37,2.01,2.16-1.81.09-2.43-.57-2.01-2.16Z"/>
  <path class="cls-1" d="M203.23,444.73v1.99c-.47-.06-.91-.11-1.64-.2.42-.78.76-1.39,1.09-2.01.18.08.36.15.55.23Z"/>
  <path class="cls-1" d="M244.03,31.82c-.07.82-.14,1.65-.22,2.65-1.34-1.05-1.32-1.31.22-2.65Z"/>
  <path class="cls-1" d="M192.67,311.89c.33.76.63,1.45,1.05,2.41-.29-.01-1,.13-1.12-.08-.44-.74-.81-1.62.07-2.33Z"/>
  <path class="cls-1" d="M197.43,391.13c.7-.46,1.26-.82,1.92-1.25.04.87.07,1.58.1,2.35-.68-.37-1.26-.68-2.02-1.1Z"/>
  <path class="cls-1" d="M145.42,217.29c.01-.28-.05-.6.05-.84.15-.35.38-.7.66-.94.12-.1.48.08.73.14-.09.33-.18.66-.27.99-.08.31-.16.61-.26.99-.34-.13-.64-.25-.93-.36,0,0,.01.02.01.02Z"/>
  <path class="cls-1" d="M161.9,452.7c.55-.38,1.09-.77,1.64-1.15.14.22.42.61.38.64-.49.44-1.02.82-1.54,1.22l-.49-.71Z"/>
  <path class="cls-1" d="M151.97,427.92c.67-.91,1.16-1.58,1.65-2.26.08.02.15.05.23.07-.19.83-.38,1.67-.61,2.66-.28-.1-.69-.26-1.27-.48Z"/>
  <path class="cls-1" d="M133.6,336.17c.39.64.81,1.26,1.14,1.92.1.21-.06.56-.11.84-.26-.12-.71-.19-.76-.37-.22-.78-.32-1.59-.47-2.39.06,0,.13,0,.19-.01Z"/>
  <path class="cls-1" d="M158.48,184.23c-.21,1.03-.42,2.06-.62,3.09l-.58-.11.65-3.08c.19.04.37.07.56.11Z"/>
  <path class="cls-1" d="M150.38,378.38c.47.12.94.24,1.75.45-.53.51-.9.87-1.26,1.22-.28-.47-.56-.93-.84-1.4.12-.09.23-.18.35-.28Z"/>
  <path class="cls-1" d="M140.64,209.06c.64-.24,1.28-.48,1.91-.72-.02.35.07.96-.07,1.02-.52.23-1.11.27-1.68.39-.05-.23-.11-.46-.16-.69Z"/>
  <path class="cls-1" d="M171.61,191.35c-.17-1.21-.34-2.42-.52-3.62.15-.01.3-.02.45-.04.19,1.2.38,2.4.56,3.61l-.5.05Z"/>
  <path class="cls-1" d="M154.51,405.63c-.69,1.25-1.41.64-2.03.37-.13-.06-.12-.46-.17-.7.7.11,1.4.21,2.21.34Z"/>
  <path class="cls-1" d="M182.91,144.04c-.4.27-.81.53-1.47.97.04-.82.08-1.5.12-2.17.13-.05.27-.1.4-.15.31.46.62.91.93,1.37,0,0,.02-.02.02-.02Z"/>
  <path class="cls-1" d="M208.22,413.41c.05.71.1,1.42.15,2.12-.22.02-.44.04-.65.06-.08-.72-.16-1.44-.25-2.16.25,0,.5-.02.75-.03Z"/>
  <path class="cls-1" d="M142.87,423.36c.62-.23,1.25-.46,1.87-.69.08.17.16.34.24.51-.43.64-.93,1.14-1.91.7-.07-.17-.13-.35-.2-.52Z"/>
  <path class="cls-1" d="M146.08,349.64c.19,1.86-.17,2.36-1.49,2.48.45-.75.87-1.44,1.49-2.48Z"/>
  <path class="cls-1" d="M173.08,197.06c.48-.98.96-1.95,1.44-2.93.12.05.25.1.37.15-.44,1-.87,2-1.31,2.99-.17-.07-.33-.15-.5-.22Z"/>
  <path class="cls-1" d="M151.77,214.68c-.99.14-1.98.28-2.97.42-.04-.04-.08-.09-.12-.13.83-.41,1.65-.82,2.66-1.31.12.3.27.67.42,1.04v-.02Z"/>
  <path class="cls-1" d="M191.36,318.3c.26.29.77.62.74.86-.06.36-.5.66-.78.98-.12-.04-.25-.08-.37-.13-.03-.52-.05-1.05-.08-1.57.16-.05.33-.09.49-.14Z"/>
  <path class="cls-1" d="M160.98,438.37c.85.48,1.3.73,2.18,1.23-.92.1-1.47.21-2,.16-.09,0-.1-.74-.18-1.39Z"/>
  <path class="cls-1" d="M190.98,328.39c.22-.89.34-1.36.5-2.04.54.42.89.69,1.47,1.14-.64.29-1.11.5-1.98.9Z"/>
  <path class="cls-1" d="M181.69,132.04c.27-.84.55-1.67.82-2.51.16.05.32.09.49.14-.24.85-.48,1.69-.72,2.54-.2-.06-.39-.12-.59-.17Z"/>
  <path class="cls-1" d="M230.46,86.96c-.32.19-.63.39-.95.58-.29-.57-.59-1.14-.88-1.7l.35-.13c.5.43,1,.85,1.5,1.28,0,0-.02-.02-.02-.02Z"/>
  <path class="cls-1" d="M156.37,403.62c.12-.91.2-1.5.31-2.33.42.63.73,1.1,1.15,1.72-.46.19-.86.35-1.47.61Z"/>
  <path class="cls-1" d="M192.27,333.01c-1-1.46-.91-1.64.63-1.77-.2.56-.37,1.04-.63,1.77Z"/>
  <path class="cls-1" d="M193.36,482.84c-.1.47-.14.97-.33,1.41-.09.22-.45.32-.69.47-.09-.28-.33-.64-.24-.81.26-.46.67-.85,1.02-1.26.08.07.16.13.23.2Z"/>
  <path class="cls-1" d="M141.47,407.5c.27-.73.31-1.37.65-1.62.26-.19.88.1,1.65.22-.89.54-1.43.87-2.3,1.4Z"/>
  <path class="cls-1" d="M145.16,360.42c-.43.06-.88.2-1.3.14-.17-.02-.28-.47-.42-.73.51-.04,1.03-.07,1.54-.11.06.23.12.47.18.7Z"/>
  <path class="cls-1" d="M123.21,247.27c.18-.67.3-1.16.41-1.55.57.45,1.15.91,1.99,1.58-1.1.69-2.14,1.34-2.8,1.75-1.27-.98-2.31-1.66-3.18-2.52-.25-.25-.17-1.09.06-1.47.16-.26,1.04-.43,1.26-.24.78.66,1.41,1.49,2.26,2.45Z"/>
  <path class="cls-1" d="M99.07,218.91c-2.19-1.23-2.66-2.25-1.66-4.16-.31-.34-.65-.71-1.07-1.17.58-.25,1.06-.57,1.58-.66.47-.08.97.1,1.89.22-.15.61-.38,1.29-.46,1.97-.14,1.26-.19,2.54-.27,3.8Z"/>
  <path class="cls-1" d="M110.41,234.11c-.48-.55-1-1.08-1.44-1.67-.7-.93-1.35-1.89-2.11-2.96,1.42.09,2.41.29,3.36.17.96-.12.87.22.82.93-.06.89.15,1.79.11,2.68-.02.45-.34.89-.52,1.34-.07-.16-.14-.33-.22-.49Z"/>
  <path class="cls-1" d="M119.35,257.93c.41.53.06,4.1-.91,4.96-.24-.78-.43-1.42-.7-2.29-.22-.09-.71-.29-1.09-.45.9-.74,1.75-1.44,2.69-2.22Z"/>
  <path class="cls-1" d="M61.46,197.81c.7.16,1.42.33,2.15.5-.18.71-.35,1.43-.54,2.14-.06.22-.14.48-.29.62-.24.22-.56.35-.85.51-.15-.31-.41-.61-.44-.93-.06-.8-.02-1.6-.02-2.83Z"/>
  <path class="cls-1" d="M130.04,279.07c.48-.66.93-1.21,1.3-1.81.32-.51.25-1.41,1.27-1.3,0,1.66-2.77,2.62-.97,4.27-.36.95-.68,1.8-1.01,2.65-.1-.01-.2-.02-.3-.03-.1-1.26-.19-2.53-.29-3.77Z"/>
  <path class="cls-1" d="M112.24,264.91c-.94,1.05-1.89,2.11-2.83,3.16-.17-.11-.35-.21-.52-.32.46-1.05.81-2.16,1.42-3.1.22-.34,1.06-.29,1.61-.42.11.22.21.45.32.67Z"/>
  <path class="cls-1" d="M116.94,269.24c-.82-1.53-.58-2.6.74-3.71.57.78,1.13,1.56,1.92,2.66-.93-.08-1.49-.12-2.17-.18-.13.33-.28.7-.5,1.23Z"/>
  <path class="cls-1" d="M114.23,273.53c-.61-.58-1.06-.97-.18-1.55.28-.18.29-.75.45-1.14.11-.27.24-.76.38-.76.35,0,.77.11,1.02.34.15.14.14.65,0,.86-.48.74-1.05,1.42-1.68,2.24Z"/>
  <path class="cls-1" d="M114.04,239.86v-3.91c1.92,1.75,2.01,2.89,0,3.91Z"/>
  <path class="cls-1" d="M83.16,231.25h3.02c-.44.77-.77,1.35-1.18,2.06-.78-.66-1.38-1.16-1.98-1.66.05-.13.09-.26.14-.39Z"/>
  <path class="cls-1" d="M116.93,239.72c1.79,1.24,2.01,1.8,1.08,3.58-.55-1.27-1-2.33-1.46-3.39.13-.06.25-.13.38-.19Z"/>
  <path class="cls-1" d="M103.27,255.92c-1.59-1.18-1.56-2.67,0-3.54v3.54Z"/>
  <path class="cls-1" d="M108.93,221.11l-1.25,2.42-.51-.02c-.04-.51-.27-1.13-.06-1.52.28-.52.9-.85,1.37-1.26.15.13.3.25.45.38Z"/>
  <path class="cls-1" d="M107.76,255.49c.95,0,1.81-.25,2.2.07.38.3.27,1.21.39,1.94-.9-.7-1.51-1.17-2.59-2.02Z"/>
  <path class="cls-1" d="M65.3,203.69c1.06-.29,1.63.17,1.68,1.04.02.28-.67.6-1.17,1.02-.22-.87-.34-1.39-.51-2.05Z"/>
  <path class="cls-1" d="M87.34,216.34q.51-.05,1.75,2.98c-.58-.99-1.16-1.99-1.75-2.98Z"/>
  <path class="cls-1" d="M92.2,231.63c-.37.4-.69.87-1.13,1.16-.26.17-.72.04-1.09.04.13-.32.17-.77.41-.94.44-.31,1-.45,1.51-.66l.3.4Z"/>
  <path class="cls-1" d="M120.49,269.37c.42.2.83.4,1.14.56.12.72.23,1.35.34,1.98-.1.06-.19.12-.29.18-.52-.82-1.03-1.64-1.55-2.46.12-.09.24-.17.36-.26Z"/>
  <path class="cls-1" d="M96.43,231.08c-.87-.17-1.35-.27-2.11-.42.42-.61.72-1.04,1.26-1.83.32.85.52,1.38.85,2.25Z"/>
  <path class="cls-1" d="M111.96,253.22c.53-.2,1-.37,1.69-.63-.08.97-.14,1.68-.2,2.45-.47-.58-.9-1.11-1.48-1.83Z"/>
  <path class="cls-1" d="M129.71,268.92c-.19.54-.38,1.11-.71,2.04-.27-1.4-.47-2.5-.68-3.59.1-.03.2-.06.29-.09.34.51.68,1.02,1.09,1.64Z"/>
  <path class="cls-1" d="M91.79,217.52c.3.59.61,1.18,1.12,2.16-.71-.23-1.47-.29-1.54-.55-.16-.54.05-1.19.1-1.79.11.06.22.12.33.18Z"/>
  <path class="cls-1" d="M122.09,281.7c-.38.72-.75,1.45-1.13,2.17-.77-1.28.14-1.75.68-2.4.15.07.3.15.45.22Z"/>
  <path class="cls-1" d="M90.45,224.98c-.91.33-1.58.57-2.25.81-.05-.16-.1-.33-.15-.49.67-.33,1.07-1.61,2.4-.33Z"/>
  <path class="cls-1" d="M104.22,258.73c-.2-.73-.4-1.47-.6-2.2,1.06.51,1.52,1.18,1.06,2.13-.15.03-.31.05-.46.08Z"/>
  <path class="cls-1" d="M106.5,262.51c.62-.47,1.24-.94,1.86-1.4.14.19.28.38.42.58-.64.47-1.28.94-1.93,1.41-.12-.19-.24-.39-.36-.58Z"/>
  <path class="cls-1" d="M78.12,223.95c.12.46.21.82.35,1.35-.81-.26-1.52-.48-2.22-.7.02-.13.03-.25.05-.38.57-.09,1.13-.17,1.82-.27Z"/>
  <path class="cls-1" d="M83.25,224.28c-.39-.86-.7-1.55-1.03-2.26,1.09-.17,1.45.56,1.03,2.26Z"/>
  <path class="cls-1" d="M124.05,273.89c-1.07-.16-1.82-.26-2.55-.37.63-1.01,1.1-.99,2.55.37Z"/>
  <path class="cls-1" d="M128.15,274.12c-.33.37-.52.57-.71.78-.26-.4-.57-.78-.75-1.21-.06-.14.2-.42.32-.63.34.32.68.63,1.14,1.06Z"/>
</svg>