<?xml version="1.0" encoding="UTF-8"?>
<svg id="Layer_1" data-name="Layer 1" xmlns="http://www.w3.org/2000/svg" viewBox="0 0 446.19 500">
  <defs>
    <style>
      .cls-1 {
        fill: #3cb54a;
        stroke-width: 0px;
      }
    </style>
  </defs>
  <path class="cls-1" d="M282.95,7.93c3.21-4.37,5.76-10.14,11.47-7.05,5.39,2.92,7.21,12.76,9.13,18.74,2.56,7.98,5.01,16.12,6.78,24.4.85,3.98,1.63,8.02,1.5,12.14-.14,4.4-1.61,7.72-2.54,11.87-.93,4.12,1.4,6.88,3.18,10.38,2,3.93,3.98,7.89,5.95,11.85,3.77,7.57,7.37,15.08,10.55,23.01,6.54,16.31,13.81,32.23,20.26,48.59,6.36,16.13,10.51,33.03,14.79,50,4.34,17.21,10.33,33.65,16.23,50.19,2.96,8.29,5.6,16.68,8.11,25.17.98,3.32,1.97,6.63,2.86,9.98.47,1.76.76,3.86,1.48,5.51.89,2.04,2.69,3.72,3.08,6.08.58,3.54-.08,6.76.87,10.45.84,3.27,1.79,6.51,2.76,9.74,2.76,9.14,5.93,18.1,9.09,27.06,6.69,19.02,14.66,37.41,21.52,56.37,3.27,9.04,6.52,18.08,9.94,27.05,1.81,4.75,3.79,9.43,5.47,14.24,1.74,4.97.44,4.16-2.53,6.91-2.79-2.62-2.99-7.63-5.92-10.09-.72.33-1.37.62-2.4,1.09.9,2.96,1.87,6.16,2.84,9.37-.2.19-.39.38-.59.58-3.31-3.44-4.58-8.37-7.31-12.36-.51,1.65-1.23,3.46-1.58,5.17-.12.59-.23,3.41-.31,3.54,0,.01-1.31,1.12-1.13.71-.3-.14-.59-.15-.88-.03-.57.09-.65.62-.26,1.6-.16.24.63,1.28.25,1.88-.48.76-2.19.8-2.96.91-2.3.33-6.02-.79-6.99,2.68-1.32.6-2.42,1.1-3.51,1.6-.02,0-.04-.01-.06-.02-2.69,1.39-3.33,4.18-6.15,1.87-.04,2.26-4.96,3.73-6.55,4.71-3.3,2.02-5.85,1-9.45.64-2.95-.29-5.26.13-7.29-2.78-2.25-3.22-2.93-8.51-4.08-12.31-5.33-17.56-11.85-34.32-18.01-51.54-3.11-8.67-7.17-16.74-10.37-25.36-3.31-8.9-6.16-18.02-9.44-26.93-1.98-5.36-2.37-7.72-7.27-9.43-3.57-1.24-7.15-2.42-10.74-3.55-7.35-2.31-15.04-.54-22.21-2.86.76-.96,1.27-1.6,1.91-2.41-3.74-1.3-6.95,1.81-10.41,1.24-.05-.23-.1-.45-.15-.68,1.02-.28,2.03-.57,3.44-.96-2.83-1.34-5.86.85-8.8.59-2.05-.18-4.49-.85-6.8-1.03-6.81-.53-13.68-1.77-20.46-.84.49-.61.82-1.02,1.18-1.47-2.35-2.34-10.79.06-13.7.02-3.13-.04-5.52-1.52-8.85-1.12-2.1.25-4.73,1.24-6.67,1.23-.77,0-.83-1.14-1.74-1.26-1.15-.16-2.76.81-3.9.96-3.07.41-6.21-.51-9.3-.35-1.51.08-3.09.68-4.57.66-1-.01-1.74-.62-2.87-.52-2.38.22-4.2,1.84-6.75,1.84-.02-.31-.04-.63-.06-.94,1.79-.51,3.58-1.02,5.36-1.52-.05-.2-.11-.39-.16-.59-2.65.75-5.78-.03-7.35,3.27-1.64.18-3.02.33-4.4.48-.04-.23-.07-.45-.11-.68,1.36-.45,2.73-.91,4.09-1.36-.05-.19-.09-.38-.14-.57-1.8.6-7.99,4.3-8.51.8-2.27.44-3.43,4.17-6.32,2.52.15-.4.31-.81.5-1.3-1.91-.55-5.58,1.32-7.52,1.87-2.48.71-4.66,1.04-7.14,1.16-5.39.26-10.75,1.04-16.13,1.75-11.92,1.57-23.94,2.8-35.91,3.72-4.48.34-10.31-.66-13.22,3.81-3.44,5.29-5.42,10.67-8.04,16.45-2.58,5.69-5.84,10.76-8.2,16.62-1.25,3.11-2.37,6.32-3.72,9.37-1.17,2.62-3.02,4.23-4.35,6.65,3.21.95,4.98-5.14,6.21-7.56,1.04-2.05,4.67-11.49,6.37-11.25-3.27,7.48-6.47,16.21-10.9,22.85-1.93,2.89-3.83,4.85-5.48,8.11-1.63,3.22-2.96,6.49-5.47,8.85-.14-.14-.28-.27-.42-.41,7.69-18.99,15.43-38.21,25.52-55.63-.66-.07-1.09-.12-1.79-.2,2.93-5.55,5.76-10.91,8.59-16.27-.12-.15-.24-.29-.36-.44-3.37,3.73-5.39,9.17-7.71,13.85-2.59,5.2-5.16,10.4-7.59,15.71-4.71,10.28-9.08,20.68-13.57,31.08-1.96,4.53-4.59,8.51-6.62,12.9-2.08,4.51-3.3,10.21-4.81,15.03-1.7,5.42-3.35,10.98-4.72,16.53-.62,2.52-.47,6.53-1.37,8.75-.79,1.96-2.36,2.89-3.86,4.18.18.16.36.32.54.49-1.35-.2-2.69-.4-4.14-.61v-2.23c-.11-.08-.23-.16-.34-.24-2.7,4.22-3.11,5.38-7.78,3.98.42-.71.59-1.52.53-2.4-2.61.59-3.55,4.03-5.44,6.24-1.94,2.26-4.06,4.38-6.36,6.08-1.72,1.27-3.58,2.46-5.17,3.86-1.42,1.25-3.38,5.04-4.89,3.1-2.77,2.21-4.83,2.76-7.77,4.21-2.82,1.39-4.01,4.5-5.38,7.52-.94,2.07-2.54,8.74-5.21,6.3-1.97-1.8-1.14-9.98-1.1-12.71.32-18.27,3.8-35.92,9.74-52.77,12.36-35.03,27.91-68.15,43.91-101.02-7.01-3.93-14.26-7.45-20.72-12.56-3.52-2.78-2.7-5.26-2.31-9.99.41-4.91.95-9.72,1.82-14.55,1.7-9.35,2.85-18.5,5.59-27.56.85-2.82,1.71-7.33,4.19-8.76.88-.51,2.34.06,3.02-.79,1.07-1.34-.17-2.77,1.47-4.26,2.32-2.13,2.43.71,1.33-3.47-.98-3.71-.05-5.63,3.46-5.43,3.8.22,6.33.34,10.06-.99,3.03-1.08,5.71-2.45,5.62,2.12-.08,3.81-1.79,7.66-1.38,11.47.46,4.24,3.47,6.61,6.64,8.06,3.03,1.39,6.38,1.97,9.58,2.6,4.13.83,5.9,1.65,8.48-2.36,10.2-15.85,19.38-32.61,29.55-48.51,10.13-15.84,20.47-31.18,31.54-46.15,11.01-14.88,23.01-28.65,34.39-43.13,11.36-14.45,21.19-30.47,32.69-44.73,3.32-4.12,6.76-8.12,10.16-12.14,2.52-2.97,7.34-6.77,8.8-10.59.83-2.17.22-4.54.65-6.87.44-2.36,1.48-4.27,2.63-6.24,2.45-4.19,5.35-7.95,8.27-11.69,6.13-7.81,11.94-15.91,18.24-23.56,2.89-3.51,5.99-7.68,9.63-10.15,3.97-2.69,4.38,1.27,5.66,5.16ZM313.42,271.22c-13.67-47.7-27.17-95.86-48.3-139.88-2.48,1.85-4.29,5.84-6.21,8.48-2.37,3.25-4.86,6.43-7.41,9.48-4.99,5.98-10.44,11.47-16,16.72-11.45,10.83-22.21,22.2-32.74,34.24-10.17,11.63-19.53,25.29-30.92,35.28-5.6,4.91-10.16,10.81-14.4,17.31-4.15,6.36-8.54,12.05-13.2,17.89,3.3,1.85,6.02-4.45,7.8-6.89.08.09.16.19.24.28-1.23,2.3-2.45,4.6-3.77,7.08,4.58,1.7,10.93.72,15.58.16,2.64-.32,5.27.24,7.92-.21,3.09-.51,5.66-1.34,8.82-.53-1.47.77-2.54,1.34-3.61,1.9.04.23.09.46.13.68h21.28c-2.66,5.2,10.34,4.16,12.59,5.81,2.17,1.59,2.63,1.67,5.58,1.33,2.82-.33,5.62-1.17,8.33-.11-1.02.32-1.46.46-1.91.6,4.31,7.19,17.2.96,22.94-1.09-.45-.19-.8-.33-1.14-.47,0-.22,0-.44-.01-.66,3.37-.58,6.74-1.15,10.11-1.73.03.18.06.35.1.53-.24.34-.48.68-1.01,1.42,7.38-3.09,16.58-1.79,24.33-1.03,3.83.37,7.86.86,11.69.97,2.23.06,9.13-.85,10.46-2.74-.98-.32-1.85-.6-2.71-.88,2.15-1.39,2.56-1.4,4.81-1.85,1.55-.31,2.85-.42,3.63-2.35-3.49-.21-6.69-.4-9.89-.59.02-.33.05-.66.07-.99,5.63-1.38,11.02,1.64,16.78,1.82ZM208.04,301.18c5.68,1.76,11.61,2.37,17.46,2.94,5.83.57,12.3,1.82,18.1.79,12.11-2.15,24.35.39,36.57.64,13.11.26,26.15,2.2,39.1,4.42,2.6.44,4.87,1.5,5.17-2.03.22-2.61-1.87-6.74-2.5-9.26-1.33-5.33-2.29-10.86-5.41-14.95-8.97,1.32-17.91.38-26.81.82-4.6.23-9.13-.87-13.73-.92-4.38-.05-9.7,1.47-13.95-.14,0-.24.01-.49.02-.73,5.1-.36,10.16-.99,15.28-.72,5.42.29,10.03.82,15.35-.52-.04-.34-.07-.67-.11-1.01-3.39,0-5.91.48-9.16,1.58.66-.64.98-.96,1.36-1.32-3.49-.69-6.61-.56-10.1-.67-1.77-.06-2.15-.02-4.07.47-1.84.47-2.67.18-4.44-.46-1-.36-1.38-1.01-2.45-1.17-2.08-.31-5.62,1.6-7.67,2.2-3.8,1.11-7.56,2.24-11.45,2.91-3.93.68-8.11.72-11.99,1.74-2.9.76-4.59,3.19-7.28,4.34-3.44,1.47-7.24,1.89-10.76,3.15-3.08,1.1-4.64,4.94-6.54,7.89ZM301.84,277.72c1.06,2.47,3.31,1.64,5.34,2.34-3.21,2.61-7.08-.45-9.72,3.02,6.34-1.73,12.82.42,19.54-1.38-2.84-3.01-5.53.59-8.03-.67q.61-1.33,6.7-3.23c-3.77-.8-10.6-3.03-13.83-.09ZM214.18,309.15c1.82,1.72,11.3,1.86,13.22.34h-3.56c-.02-.13-.05-.25-.07-.38,1.84-.49,3.68-.99,5.51-1.48-5.05-.84-9.95-.18-15.1,1.52ZM285.2,313.69c0-.25,0-.51,0-.76-2.87-.41-5.73-.82-8.6-1.22-.03.3-.06.6-.08.9,2.89.36,5.79.73,8.68,1.09Z"/>
  <path class="cls-1" d="M58.96,465.48c-1.07-1.64.26-8.89,3.29-17.94,5.44.67,3.54-13.89,8.61-14.53-3.66,7.3-5.87,15.04-9.84,22.21.14.11.27.22.41.33.56-.59,1.11-1.19,1.45-1.55-1.25,3.66-2.59,7.58-3.92,11.49Z"/>
  <path class="cls-1" d="M61.99,444.92c1.63-4.14,3.13-8.39,4.14-12.4.68-2.69.71-4.31,1.92-6.94,1.21-2.63,1.87-5.02,3.7-7.14.18.15.35.3.53.46-1.3,4.14-3.78,7.97-4.93,12.07-.12.43.22,1.66.06,2.43-.19.92-.87,2.18-1.19,3.09-1.13,3.16-1.95,6.06-3.55,8.94-.23-.17-.45-.34-.68-.5Z"/>
  <path class="cls-1" d="M75.91,421.77c-1.7,2.88-3.41,5.77-5.11,8.65l-.57-.47c1.69-2.89,3.39-5.79,5.08-8.68.2.17.4.33.6.5Z"/>
  <path class="cls-1" d="M429.1,457.45c.56.69,1.11,1.38,1.67,2.07-.22.24-.44.47-.66.71l-1.62-2.12c.2-.22.41-.44.61-.66Z"/>
  <path class="cls-1" d="M299.37,272.92c-4.97,2.69-7.62,1.98-12.45-.45-.09.26-.18.51-.27.77.44.21.88.41,1.38.65-.32.47-9.75.58-10.87.76-.09-.29-.18-.58-.27-.87,2.82-1.88,6.74-2.07,9.98-2.15,3.23-.08,10.04-.88,12.51,1.29Z"/>
  <path class="cls-1" d="M258.28,274.85c-4.4,1.8-9.43,1.78-14.06,1.59-3.22-.13-7.3,2.39-10.38.74,2.36-.88,4.75-2.28,7.25-2.58,1.84-.22,3.55.42,5.37.41,3.75,0,8.21-2.08,11.83-.63,0,.15-.01.31-.02.46Z"/>
  <path class="cls-1" d="M247.82,272.46c1.65-2.4,4.08-.44,5.98-1.44-1.77,1.73-3.97,1.08-5.98,1.44Z"/>
  <path class="cls-1" d="M241.36,272.17c1.55-.25,3.09-.5,4.69-.76-.22,2.24-.85,2.4-4.69.76Z"/>
  <path class="cls-1" d="M214.96,277.69c1.96-.23,3.92-.46,5.88-.68.02.27.05.54.07.81-1.96.21-3.92.43-5.88.64-.02-.25-.05-.51-.07-.76Z"/>
  <path class="cls-1" d="M239.47,272.34c-1.26.98-2.11,2.41-3.51,1.46.76-1.37,1.88-1.59,3.16-2.19.12.24.23.49.35.73Z"/>
  <path class="cls-1" d="M268.75,271.33c.01,2.5-.63,2.86-3.31,1.9,1.18-.68,2.2-1.26,3.31-1.9Z"/>
  <path class="cls-1" d="M314.41,300.93c-3.16,1.11-7.94.43-11.41.53-3.86.11-9.6-.1-13.13-1.95.03-.19.05-.39.08-.58,8.07.26,16.14.53,24.22.79.08.4.16.8.25,1.2Z"/>
  <path class="cls-1" d="M261.36,302.44h7.76c0,.22,0,.45-.01.67-2.6.91-5.17.08-7.75-.67Z"/>
  <path class="cls-1" d="M280.01,303.84c-2.05.12-4.1.24-6.14.35-.02-.34-.05-.68-.07-1.03,2.04-.2,4.08-.39,6.11-.59.03.42.07.84.1,1.26Z"/>
  <path class="cls-1" d="M284.08,303.47h3.9c.01.21.02.42.03.63-1.3.13-2.6.26-3.9.39,0-.34-.02-.68-.03-1.02Z"/>
</svg>