<?xml version="1.0" encoding="UTF-8"?>
<svg id="Layer_1" data-name="Layer 1" xmlns="http://www.w3.org/2000/svg" viewBox="0 0 272.2 500">
  <defs>
    <style>
      .cls-1 {
        fill: #3cb54a;
        stroke-width: 0px;
      }
    </style>
  </defs>
  <path class="cls-1" d="M22.38,210.33c1-.15,1.93-.04,2.7-1.35.74-1.26.62-2.01-.06-3.04-.73-1.11-1.8-2.25-.14-3.58.11-.09-.2-1.29-.56-1.69-.47-.54-1.17-.81-1.62-1.1.62-1.44,1.1-2.54,1.57-3.63.46.28,1.2,1.1,1.63.92.56-.23.89-1.25,1.28-1.97.91-1.7,1.79-3.41,2.66-5.14.15-.3.32-.71.26-1.02-.33-1.89-1.05-3.77-.99-5.64.06-2.03.68-4.09,1.31-6.03.56-1.71.8-3.04-.54-4.46-1.68-1.79-2-4.98-1-7.55.77-1.98-1.02-6.84-2.94-7.4-1.7-.5-1.42-1.25-.76-2.58.62-1.25,1.38-2.62,1.44-3.98.07-1.5-.58-3.05-.99-4.92.1-.05.56-.34,1.06-.55.35-.14.86-.02,1.07-.27.56-.65,1.47-2.05,1.42-2.1-1.52-1.61,2.63-5.13-1.45-5.86-.89-.16-1.68-1.09-2.68-1.78,1.87-2.51,3.55-4.76,5.24-7.03.12-.16.27-.36.28-.54.09-2.34.17-4.69.23-7.04.02-.9.16-1.84-.02-2.69-.35-1.7-.88-3.34-1.32-5.01-.24-.89-.42-1.8-.68-2.68-.16-.51-.34-1.26-.67-1.41-2.73-1.21-3.86-3.83-4.63-6.81-.07-.27-.22-.51-.4-.92-.84,1.03-1.63,1.99-2.41,2.94.38-2.22,2.19-4.17.1-6.48.84-.39,1.54-.45,1.81-.89.44-.7.96-1.76.8-2.45-.69-2.9.86-8.28,2.92-10.18,1.49-1.37,2.78-3.01,4.79-3.32.16-.02.38-.2.44-.38.94-2.74,3.25-2.48,5.1-3.29,1.46-.64,3.06-1.29,4.16-2.48,1.92-2.06,3.27-4.9,5.31-6.75,1.92-1.75,3.22-4.18,5.65-5.49,3.24-1.75,6.21-4.42,6.84-9.14.23-1.75,1.2-2.53,2.53-3.35.92-.57,1.27-2.45,1.81-3.79.36-.89.44-2.02.95-2.74,1.1-1.52,1.89-2.95,1.91-5.12.01-2.39.39-4.87,1.03-7.14.39-1.37,1.58-2.44,2.44-3.62.58-.79,1.36-1.44,1.77-2.32.86-1.87,2.34-2.38,3.86-3.1,2.56-1.2,5.18-2.17,6.89-5.19,1.15-2.02,2.99-3.25,5.49-2.6,2.25.58,4.65.36,6.92.84,1.66.35,3.2,1.61,4.85,1.84,2.52.35,5.1.17,7.66.2.41,0,1.05-.3,1.21-.09,1.45,2.02,3.07.74,4.6.34.87-.23,1.64-.74,2.22.58.14.31.78.62,1.07.51,1.72-.71,3.77-.22,5.08-2.6.51-.93,2.44-.83,3.73-1.15,3.74-.93,7.48-1.83,11.23-2.73,3.15-.76,6.36-1.3,9.45-2.31,1.4-.46,2.61-1.79,3.81-2.85.15-.14-.08-1.22-.37-1.61-.55-.73-1.28-1.29-2.32-2.28.84-.28,1.24-.54,1.64-.53,1.41.05,2.84.08,4.22.37.38.08.81.99.91,1.58.27,1.62.87,2.47,2.4,2.6,3.28.28,3.27.37,4.45-.78-1.09-1.57-2.17-3.15-3.43-4.97,1.26,0,2.35,0,3.45,0,.47,0,.94-.1,1.4-.06,1.05.1,2.1.34,3.15.37,1.3.04,2.63.13,3.89-.16C170.19,1.35,171.82.62,173.61,0c.46,1.94,1.42,1.8,2.76,1.79,1.99-.02,3.66-.98,5.48-1.42.74-.18,1.66.72,2.81,1.27.71-1.09,1.95-1.39,3.36-.14.13.11.47-.16.71-.14,1.31.09,2.74-1.92,3.92.3.83-.86,1.8-.25,2.67-.4,1.08-.18,1.84-.91,3.18-.07.84.53,2.49-.7,3.93-1.19.09.58.19,1.23.36,2.37,1.53-.69,2.93-1.31,4.38-1.97-.52.84-1.03,1.68-1.55,2.51,1.01-.89,3.57-1.83,4.69-1.31.22.1.46.32.66.28,1.94-.44,3.87-.93,6.15-1.49-.24,1.12-.36,1.66-.48,2.21.02-.21.04-.43.05-.64,1.43.12,2.85.3,4.28.34,1,.03,2-.13,2.87.02.93.31,1.84.71,2.79.91,2.06.42,4.13.87,6.21,1.02.99.07,2.02-.5,3.33-.86,1.77,1.3,3.99,2.54,6.65,1.86.32-.08.86.04,1.05.3,2.11,3.05,5.78,2.31,8.13,4.88-1.43.31-2.96.65-4.02.88.07,1.67.28,3.13.15,4.54-.21,2.21,1.26,2.8,2.41,3.26,1.54.62,1.52,1.33,1.06,2.89-.41,1.39-.31,2.98-.44,4.57,1.45,1.37,2.95,2.79,4.56,4.31.03-.04-.14.34-.4.49-2.19,1.25-2.58,3.02-1.3,5.51.7,1.36,1.31,2.82,1.78,4.31.18.56-.15,1.34-.33,2.58-1.02-2.04-3.17-2.18-3.23-4.62,0-.1-1.55-.16-2.25-.23-.22,1.51-.4,2.6-.51,3.69-.06.56-.18,1.47.06,1.66,2.67,2.13,2.01,6.92,5.14,8.71.24.14.24,1.81-.11,2.26-1.33,1.68-1.34,1.95.75,2.81-.15,1.08-.3,2.21-.49,3.61.96.27,2.18.43,3.26.98.7.36,1.52,1.21,1.66,1.99.11.63-.59,1.66-1.15,2.21-1.34,1.3-1.45,2.85-.39,4.41.54.8.67,1.98,1.16,3.54.39-.27,1.18-.51,1.53-1.11.99-1.7,2.22-1.64,4.17-1.23-.98.86-1.47,1.61-2.09,1.78-2.13.59-3.36,2.02-3.6,4.81.17.16.64.38.77.77.19.55.38,1.57.16,1.77-1.1.99-2.27,1.95-3.55,2.51-.38.16-1.19-1.02-1.89-1.67-.11.23-.43.87-1.01,2.02.8.37,1.51.84,2.26.99,1.02.2,1.09.64.62,1.59-.38.76-.68,1.58-.96,2.39-.47,1.34-.74,2.9-2.55,1.82-.43-.26-1.08-.04-1.99-.04.58,1.38,1.05,2.49,1.59,3.78-1.47-.09-2.46-.15-3.71-.23.38-.33.69-.45.78-.69.17-.44.22-.95.32-1.43-.4.13-.86.18-1.2.42-.55.38-.99,1.01-1.55,1.34-2,1.19-2.1,1.08-2.35-1.52-.04-.44-.41-1.2-.58-1.19-.5.05-1,.38-1.46.67-.45.28-.86.66-1.29.99-.15-.54-.25-1.12-.47-1.62-.2-.45-.52-1.13-.83-1.16-.62-.05-1.26.26-2.33.54.89.81,1.3,1.18,2.18,1.98-.54.33-.93.78-1.29.76-2.1-.14-4.2-.42-6.3-.59-.49-.04-1.14-.05-1.47.28-2.17,2.17-4.81,2.5-7.12.63-1.04-.84-1.71-1.38-2.25.59-.23.85-1.06,1.48-1.6,2.18-.49-.92-.84-2.35-1.42-2.5-1.84-.47-3.38.69-4.95,1.85-1.43,1.05-3.15,1.58-4.78,2.23-.17.07-.75-.53-.8-.88-.25-2.06-1.61-2.35-2.97-2.69-1.44-.35-2.86-.94-4.3-1.02-1.05-.06-2.12.76-3.19.79-2.28.08-4.57-.27-6.83-.09-1.16.09-2.48.67-3.37,1.54-.86.84-1.58.91-2.61.97-1.75.11-3.48.71-5.21,1.11-.22.05-.48.33-.64.25-2.92-1.36-5.62.74-8.44.71-.24,0-.69.22-.7.36-.1,1.94-1.13.87-1.85.82-.62-.04-1.27-.17-1.87-.03-1.82.45-3.6,1.13-5.44,1.46-.74.13-1.57-.43-2.73-.78-1.47.4-2.44,4.7-5.15,1.59-.26.25-.54.38-.63.61-1,2.57-3.13,2.56-5.05,3.2-1.92.64-3.75,1.62-5.64,2.38-1.09.43-2.22.73-3.34,1.04-1.84.52-3.69.97-5.52,1.54-.5.16-.9.76-1.4.93-2.47.85-4.95,1.65-7.45,2.39-.35.1-.8-.24-.81-.24-.94.74-1.61,1.28-2.28,1.81-.51.4-1.13.68-1.53,1.2-2.04,2.66-4.93,3.43-7.54,4.85-.86.47-1.75,1.39-2.17,2.37-1.05,2.49-.94,2.54-3.26,1.54-.16-.07-.36,0-.62,0-.59,1.75-1.12,3.4-.04,5.25.24.42-.1,1.65-.5,2.14-.85,1.04-1.37,1.91-.27,3.09.09.1.24.25.22.33-.71,3.07,1.72,3.78,3.03,5.19,1.27,1.37,1.25,2.79,1.01,4.74-.74-.24-1.35-.34-1.88-.63-1.1-.62-1.86-.17-2.61.8-.75.98-.14,1.4.33,2.14.24.37.02,1.69-.3,1.88-.59.35-1.41.19-1.77.22.72,2.07,1.57,4.49,2.49,7.1-.86.49-1.56.89-2.36,1.34.21,1.55,1.19,1.82,2.29,1.8.92-.01,1.93.14,2.11-1.45.21-1.92,1.24-1.32,2.38-.92-.37.75-.69,1.39-1.23,2.48.99.54,1.94,1.05,2.84,1.54-1.45.27-3.04.57-4.63.87-.18.03-.44-.03-.55.09-.66.72-1.3,1.48-1.94,2.22.68.52,1.36,1.05,2.04,1.57.14-.13.28-.26.42-.39.31,1.94.82,3.88.86,5.83.02,1.01-.78,2.05-1.22,3.08-.59,1.4-1.38,1.03-2.32.5-.4-.23-1.01.03-1.09.03-.26,1.34-.56,2.25-.57,3.16-.01.72.2,1.57.56,2.14.29.46,1.02.52,1.46.9.92.81,1.3,1.69.23,2.84-1.37,1.49-1.3,2.32.11,3.56-.61,1.29-1.21,2.57-1.9,4.04,1.34.79,2.51,1.48,4.03,2.38-2.39,2.03-4.29-.52-6.25.13-.29.45-.62.87-.86,1.35-.42.84-.78,1.71-1.17,2.57.72.11,1.44.19,2.16.35.35.08.79.18,1.01.47,1.8,2.37,4.36,2.3,6.68,2.66,4.28.65,8.59,1.02,12.9,1.28,1.79.11,3.55,0,5.2,1,.25.15.64.22.88.1,3.35-1.71,6.78-.84,10.23-.6,3.07.22,6.17-.03,9.25-.09,3.78-.08,7.56-.13,11.34-.3,4.07-.19,8.14-.58,12.21-.72,1.34-.04,2.68.44,4.35.74,1.37-1.33,2.85-1.09,4.85,1.49,1.03-.95,1.98-2.21,3.17-2.79,1.21-.59,2.67-.52,4.23-.77-.84,2.34-2.15,2.04-3.57,1.44.87,2.27,4.4,3.29,6.62,1.95,1.46-.88,2.81-2.01,4.21-3.03l-.02-.03c.19,2.52,1.9.59,2.92,1.38-.54.88-1.07,1.74-1.43,2.32,1.4.61,2.65,1.2,3.93,1.71,1.22.49,3-.98,2.83-2.29l-.02.02c.91-.11,1.9-.52,2.7-.24,1.01.35,1.87,1.28,2.73,1.91-.17-1.1-.39-2.55-.59-3.86.92-.57,1.72-1.06,2.52-1.55,1.08,1.68,1.08,3.43-.03,5.32.4-.14.89-.16,1.17-.45,1.18-1.23,2.29-2.49,4.12-1.7.14.06.69-.84.9-1.38.27-.68.4-1.43.62-2.27.63,1.53,1.19,2.89,1.7,4.14-.26.84-.91,2.06-.67,2.38,1.14,1.54,2.56,2.61,4.47,1.25-.17-1.41-.25-2.87,1.73-1.62.25.16.83.08,1.02-.15,1.31-1.57,2.55-3.22,3.83-4.86.66.38,1.25.63,1.73,1.05.3.27.64.85.59,1.21-.05.39-.52.75-.85,1.04-.73.64-1.49,1.23-2.08,2.07,2.93-.31,3.62-.99,3.59-3.66-.02-1.74.42-2.59,1.99-2.61,2.24-.02,4.64-1.2,6.5,1.51,2.03-2.22,3.94.03,5.24.89,1.42.94,1.92,3.77,2.96,6.09.66-.35,1.65-.87,2.96-1.57-.42,1.34-.79,2.51-1.18,3.76q1.35,1.55-.53,3.01c-1.84,1.42-1.91,4.05-.18,5.71.33.31.63.72.82,1.16.56,1.34,1.06,2.73,1.56,4.01,1.7-.36,2.88-.93,2.81-3.13.88,1.54,2,2.57,1.36,4.91-.55,1.99-.28,4.43.08,6.57.25,1.47.48,2.42-.67,3.54-1.26,1.22-2.26,2.8-3.34,4.27-.22.3-.46.89-.35,1.18.59,1.66,1.11,3.42,2.02,4.83.35.55,1.76.62,2.45.27.45-.23.55-1.6.64-2.48.09-.83-.3-2.26-.03-2.43.66-.4,1.61-.39,2.38-.2.35.09.84,1.03.77,1.5-.14.98-.6,1.89-.93,2.83-.41,1.19-.82,2.39-1.3,3.76.12.07-.19-.1-.51-.28-.03.18-.11.38-.07.43,1.44,1.57,3.48,1.8,4.96.55.49-.42.91-.94,1.3-.72,2.47.94,4.95,1.89,7.49,2.86-.04.25-.13.85-.23,1.54-1.66-.24-3.43-.13-4.96-.8-1.84-.8-3.5-.5-5.23.02-1.81.55-2.01,2.47-2.2,4.13-.22,1.91,0,3.84-1.12,5.56-.3.46,0,1.71.32,2.4.33.7,1.03,1.16,1.78,1.94-.67.41-1.33,1.08-1.57.92-1.28-.87-2.29.04-3.47.5.12,1.21.05,2.41,1.68,2.36.43-.01.89,1.04,1.34,1.62-.37.35-.46.49-.57.51-.97.21-1.94.4-2.92.6.22,1.13.31,2.32.69,3.37.63,1.77-.12,3.14-2.23,3.65-.54.13-1.13.26-1.66.16-2.83-.52-5,.76-6.78,3.32-1.55-1.03-3.23-2.35-4.62-.27-.51.76-.08,2.36-.08,3.75-.27-.08-.78-.29-1.3-.35-2.12-.22-4.35-.88-6.34-.36-.97.25-1.93,1.83-3.44,1.93-.19-.58-.36-1.13-.66-2.04-.76,1.28-1.37,2.29-1.87,3.13-2.06-.37-4-.72-5.95-1.07-.24-.04-.58.08-.73-.07-1.87-1.95-2.9-.29-3.92,1.41,0-1.29.13-2.41-.03-3.48-.38-2.66-1.14-3.24-3.41-3.07-.61.04-1.24-.27-1.93-.43v6.2c-.96,0-2.29-.02-3.61,0-1.8.03-2.52.96-2.34,3.06-.4.06-.81.12-1.43.22.4.73.71,1.28,1.22,2.21-1.06-.24-2.07-.13-2.64-.66-1.88-1.74-3.29-.26-4.73.74-.42.29-.62,1.15-.78,1.8-.18.73-.19,1.51-.22,1.79-1.28-.25-2.34-.61-3.41-.63-1.34-.03-1.9-1.2-1.42-2.06,1.56-2.81-.72-3.47-1.81-4.4-1.11-.95-2.67-1.18-4.02-1.72-1.01,2.93.17,4.47,3.36,6.37-.45.83-.83,1.71-1.35,2.46-.52.73-1.18,1.3-1.91,2.09-.68-.68-2.53-.45-1.92-2.99.23-.97-2.47-1.59-3.51-.65-.88.79-1.55,2.26-2.49,2.52-2,.56-4.16.88-6.19.61-1.22-.16-1.96-.84-3.21.48-.94.99-2.83.97-4.3,1-3.48.07-7.02-.91-10.32,1.35-.69.47-1.67.35-2.5.58-1.4.38-2.79.83-4.19,1.23-.34.1-.7.19-1.04.18-1.2-.04-2.4-.18-3.6-.19-1.82-.01-3.66-.05-5.47.12-1.59.15-3.15.68-4.74.86-.9.1-1.83-.13-2.73-.3-1.52-.27-2.87-1.15-4.57.19-.96.75-2.76.19-4.16,0-3.49-.46-7.06-.65-10.43-1.7-2.59-.81-5.13-.91-7.72-1.24-2.79-.36-5.59-1.31-8.22-2.5-2.38-1.08-4.81-.17-4.97,3.56-.03.66-.6,1.29-1.02,2.13,2.59,1.9,2.38,4.79,1.64,7.83-2.67.85-1.96-2.48-3.37-3.76-.9,1.74-1.97,3.22-2.41,4.91-.19.74.82,2,1.41,2.91.68,1.05,1.66,1.86,2.19,2.99.26.55,0,1.88-.42,2.32-2.32,2.41-2.39,3.78-.43,6.42,1.32,1.78-.16,3.52-.5,5.23-.17.85-.87,1.55-1.51,2.64.66.31,1.24.85,1.78.79,2.16-.25,3.19.79,3.22,3.3,0,.5.16.99.25,1.49.69.34,1.38.68,2.29,1.13-1.68,1.89-2.78.29-3.91-.29-1.62,2.33-1.41,2.9,1.01,3.45,5.28,1.19,10.55,2.53,15.84,3.66,2.96.63,5.96.93,8.93,1.45,2.83.49,5.64,1.18,8.48,1.58,3.31.46,6.64.66,9.96,1.03,4.8.53,9.58,1.27,14.38,1.63,3.74.28,7.51.03,11.26.14,2.94.08,5.89.28,8.82.58.55.06,1.05.88,1.6,1.38,1.99-2.01,4.49-.37,6.8-.59,2.3-.21,4.88-.39,6.49,2.52-.12-.43-.24-.87-.52-1.87,2.11.22,3.99.41,6.32.65,1.13-.96,1.22-.94,2.85.89,3.13-.26,5.99-.69,8.85-.68,4.25,0,8.5.22,12.74.56,2.07.17,4.12.79,6.16,1.27.25.06.44.45.72.74-.83,1.15-1.65,2.18-2.37,3.3-.68,1.06-.01,1.55.75,1.48,3.21-.32,6.33-.92,8.78-3.78,1.28-1.5,2.48-1.14,3.49.58.29.49.98.63,1.44,1.01.87.72,2.21,1.34,2.43,2.29.43,1.87.78,4.08-1.31,5.38-.46.29-.92,1.34-.82,1.91.34,2.01.16,3.61-2.03,4.6,1.97.43,1.54,1.25,1.01,2.59-.42,1.05-.08,2.51-.08,3.55-.87.77-1.74,1.53-2.88,2.53,1.46.75,2.56,1.32,3.66,1.88-.34.43-.68.85-1.02,1.28.5-.04,1-.08,1.43-.12.25,1.44.47,2.73.71,4.14-.88.16-1.88.34-2.96.53.09,1.9.18,3.64.27,5.5.72.07,1.41.14,2.1.21.05.19.11.37.16.56-1.1.65-2.21,1.3-3.85,2.27,1.45,1,2.49,1.72,3.52,2.44-.08.19-.11.38-.19.43-.89.45-2.58.45-1.89,2.08.44,1.04,2.01,1.46,3.11,2.09.55.31,1.16.48,1.74.71-.56.31-1.16.95-1.66.87-2.66-.46-5.04.26-7.07,2.2-.47.45-.64,1.73-.53,2.55.2,1.43.72,2.8,1.01,3.83-2.24.96-4.01,1.66-5.73,2.49-.26.13-.55.98-.43,1.21.28.54.75,1.03,1.25,1.3.93.51,1.92.85,2.85,1.24-.4,2.03-4.4.3-1.74,4.36-1.5.11-2.62.39-3.7.22-1.45-.23-2.85-.88-4.3-1.15-.36-.07-1.17.6-1.2.99-.24,2.81-1.56,3.94-3.9,4.18-1.53.16-2.59,1.46-2.62,3.37-.01.55.48,1.42.91,1.62,1.97.91,2.6,3.72,1.14,5.66-.24.32-.55.59-.84.86-1.81,1.62-3.64,3.23-5.58,4.95.69.64,1.14,1.05,1.82,1.67-.6.39-1.02.62-1.4.91-1.2.88-2.5,1.67-.91,3.61.32.4.4,1.74.15,1.96-.47.41-1.26.32-2.16.47.28.88.59,1.84.9,2.85-.39.98-2.89.34-1.23,3.16-2.52,0-4.72-.19-6.89.04-3.41.36-6.82.62-10.22.07-3.46-.55-6.9-1.33-10.36-1.84-1.77-.26-3.59-.07-5.38-.22-2.83-.24-5.66-.6-8.49-.91-.89-.1-1.82-.41-2.68-.23-1.89.39-3.6,1.63-5.65-.07-.82-.68-2.51.19-3.8.14-3-.11-6.01-.21-8.98-.6-1.93-.26-3.78-1.28-5.71-1.52-4.92-.61-9.72-2.56-14.74-1.88-.72.1-1.61.65-2.01,1.33-1.59,2.73-3.13,5.53-4.48,8.43-.96,2.07-1.46,4.44-2.41,6.52-.57,1.25-1.62,2.2-2.45,3.28-.5.64-1.06,1.24-1.48,1.94-2.03,3.36-3.96,6.81-6.07,10.1-1.46,2.28-3.2,4.06-6.01,3.92-1.69-.08-3.47.37-5.09,1-2.3.9-4.49.43-6.75,0-1.08-.21-2.23.08-3.32-.12-2.35-.44-4.67-1.14-7.02-1.56-1.61-.29-3.37.1-4.85-.5-2.45-1-4.88-.56-7.33-.76-1.84-.15-3.65-.65-5.47-1.01-1.33-.26-2.7-.38-3.99-.81-4.08-1.38-8.17-2.77-12.17-4.4-1.34-.55-2.43-1.9-3.68-2.79-2.99-2.12-5.98-4.23-9.02-6.25-1-.67-2.12-1.18-3.23-1.56-2.52-.87-4.58-2.93-7.37-3.29-2.13-.28-4.18-1.64-6.17-2.77-.51-.29-1.06-1.74-.86-2.23.47-1.1,1-1.95.54-3.3-.13-.39.55-1.16.85-1.74.74.35,1.34.64,2.31,1.1,0-2.58.05-4.82-.04-7.05-.02-.45-.51-1.06-.91-1.29-1.79-1.02-2.42-2.74-2.02-4.84.39-2.06.44-3.86-.45-5.85-.56-1.26-.37-2.97-.57-4.47-.36-2.77-.79-5.52-1.14-8.29-.26-2.07-.44-4.15-.67-6.22-.08-.72-.11-1.45-.3-2.13-.47-1.72-1.48-3.21-.19-5.26.48-.77-.47-2.66-.57-4.05-.29-4.29-.53-8.59-.71-12.89-.21-5.05-.5-10.1-.47-15.15.05-7.59.31-15.19.58-22.78.22-6.15.55-12.3.93-18.44.18-2.87.61-5.72.86-8.59.1-1.22-.02-2.46.04-3.68.26-4.76.5-9.52.85-14.27.16-2.22.62-4.4.82-6.61.54-5.87.94-11.76,1.52-17.62.8-8.12,1.48-16.28,2.69-24.32.42-2.77.66-5.53.97-8.29.15-1.38.74-2.7,1.12-4.05.09-.32.21-.68.18-1-.52-5.06,1.87-9.47,2.3-14.32.26-2.93.49-5.87.84-8.79.34-2.81.23-5.71,1.96-8.2.59-.85.47-2.71.19-3.97-.56-2.54.16-5.3,2.09-6.76.97-.73,1.94-1.46,2.87-2.25.27-.23.5-.64.59-1.01.37-1.56.68-3.15,1.01-4.73l-.03.03ZM176.97,390.68l.02.03c.39-.35.75-.92,1.17-1,1.05-.18,2.13-.12,3.2-.16.31-.01.72-.17.9,0,1.86,1.75,4.07.89,6.11,1.24.93.16,2.07.42,2.67,1.13,1.07,1.27,2.08,1.04,3.22.52.51-.24.95-.7,1.47-.89,2.28-.84,4.59-1.56,6.86-2.44,1.72-.67,2.15-2.99.68-4.01-1.04-.73-2.38-1.01-3.62-1.15-.51-.06-1.31.66-1.6,1.26-1.26,2.65-2.8,3.22-5.06,1.76-1.75-1.13-3.45-2.57-5.68-1.53-.34.16-.92-.23-1.34-.48-2.46-1.53-4.97-2.59-7.83-1.07,1.03-3.32,1-6.56-.01-8.93-1.89,1.22-.51,2.93-.36,4.22h-2.57c.15.24.3.48.45.72-.39.9-.75,1.83-1.18,2.7-1.21,2.46-3.99,3.04-5.85,1.32-.46-.43-1.14-.84-1.68-.79-2.87.26-5.8-1.64-8.63.37-.39.28-1.1.06-1.64-.07-4.48-1.06-9.08.24-13.55-.98-.75-.21-1.64-.05-2.4.19-.28.09-.62,1.29-.54,1.35,1.72,1.47,3.49,2.85,5.43,4.38-.05.39-.07,1.19-.26,1.93-.5,1.89-1.75,2.72-3.36,2.88-1.5.15-2.18-.44-2.17-2.43,0-1.23-1.14-1.87-2.07-.95-1.4,1.39-2.59,1.34-3.75-.25-2.08,1.63-.55,2.94.14,4.19.94,1.7.73,2.87-.77,3.49.16.49.32.99.49,1.48l-.42.28c-.31-.58-.66-1.14-.93-1.75-.74-1.63-2.09-1.77-2.83-.15-.3.66-.46,1.93-.13,2.37.64.86,1.75,1.97,2.51,1.84,2.47-.44,2.85,1.41,3.38,3.2-1.2-.71-2.45-1.44-3.7-2.17-.18.19-.36.38-.53.58.1,1.18.02,2.43.36,3.51.18.56,1.13,1.23,1.64,1.14,2.21-.38,3.94-1.62,4.35-4.58,2.49.8,4.95,1.86,6.83-1.86-2.09-1.02-4.09-2.01-6.23-3.06.87-.37,1.62-.69,2.38-1.01.02-.27.04-.54.06-.82-.98-.37-1.96-.74-3.35-1.26.43-.39.97-1.17,1.21-1.06.89.41,1.68,1.1,2.51,1.7.67.48,1.69,1.57,1.95,1.36,1.31-1.03,2.37.03,3.53.17,2.86.37,5.72.89,8.49-.56.36-.19.78-.25,1.17-.28.06,0,.27.65.21.7-.32.29-.69.55-1.07.72-1.7.74-4.16.56-3.41,3.47-1.87.67-3.52,1.26-5.18,1.86,0,.26,0,.52.01.79.83.42,1.66.85,2.48,1.27-.91,2.98-.66,3.8,1.56,3.73,1.7-.06,3.39-.82,5.08-1.31.05-.02.03-.38.05-.68-.8-.11-1.57-.22-2.33-.32l.02-.5c1.12-.47,2.25-.94,2.83-1.18.85.91,1.28,1.75,1.82,1.86,1.3.26,2.67.1,3.99.26,2.09.26,4.17.63,6.25,1,1.69.3,3.37.77,5.07.93.87.08,1.78-.35,2.67-.55-.03-.2-.05-.39-.08-.59-.65-.22-1.3-.44-1.98-.68q1.24-2.62-2-4.71c2.51,1.96,4.65.3,6.99-.99.64,1.72,1.18,3.25,1.81,4.74.12.29.62.65.83.57.48-.19,1.22-.57,1.26-.97.09-.87-.09-1.83-.33-2.68-.32-1.17-.81-2.28-1.22-3.42.17-.17.34-.34.5-.51.68.65,1.36,1.3,1.93,1.85,2.07-1.45,4.27-2.99,6.59-4.62-.19-2.09-2.2-3.92-4.31-3.7-.54.05-1.14-.21-1.65-.47-1.46-.74-2.76-1.9-4.58-1.33-.91.29-1.97-.09-2.97-.17ZM192.7,238.2c1.5,0,2.73-.05,3.95.01,1.44.07,2.1-.75,2.02-2.35-.11-2.13-.31-4.25-.42-5.79-1.43-.37-2.52-.45-3.44-.95-1.01-.54-1.65-.82-2.56.35-1.08,1.38-2.69,1.07-3.78-.14-.32-.36-1.33-.51-1.54-.25-.91,1.18-1.95.91-3.07.83-.98-.07-1.99.2-3.21.35-.54-1.01-1.31-1.83-2.54-.31-1.53,1.87-3.73,2.19-5.3.5-1.87-2-3.65-1.2-5.5-.28-.68.34-1.21,1.06-1.9,1.36-.44.2-1.02-.05-1.81-.12-.12.18-.52.77-.6.88-2.81-1.02-5.23-1.9-7.66-2.78-1.3,2.2-2.55,2.22-5.07.19-.46.59-.86,1.59-1.36,1.67-2.45.4-4.93.56-7.66.83-.4,1.62-1.54,1.73-3.18,1.09-2.07-.81-4.05,1.06-3.89,3.43,1.89.55,3.78,1.41,5.7,1.57,2.85.24,5.72-.03,8.59-.06,1.44-.01,2.94.37,4.3,0,2.93-.81,5.7-.21,8.4.89,1.18.48,2.11,1.16,3.05-.43.18-.3.99-.14,1.51-.12,1.75.07,3.61.68,5.22.17,3.22-1.04,6.09.13,9.04.84.79-.72,1.57-1.98,2.5-2.15,1.91-.36,3.9-.12,5.85-.18.67-.02,1.37-.07,2.01-.27,1.19-.38,2.4-.99,2.34,1.21ZM166.3,413.77c-1.08-2.85-3.21-3.69-5.1-4.88-.64-.4-1.31-.77-2.01-.95-.48-.13-1.14-.09-1.51.21-.29.23-.36,1-.34,1.53.03.94.21,1.88.26,2.34,1.6,1.62,3.32,2.85,4.41,4.62,1.22,1.96,2.07,2.27,3.57.24-.49-.63-.99-1.26-1.59-2.04.97-.45,1.63-.75,2.31-1.07ZM138.5,18.31c-.02-.17-.05-.33-.07-.5-1.64-.14-3.43-.83-4.88-.28-1.64.62-2.88.38-4.33-.32-1.49-.72-3.57,1.06-3.28,2.9.22,1.44.22,2.33-1.09,2.87-.29.12-.4.83-.58,1.23.92,1.28,1.58.99,2.48-.02,1-1.13,2.16-2.28,3.43-2.84,2.71-1.21,5.54-2.04,8.32-3.03ZM177.02,414.69c-.08-.31-.46-.97-.32-1.42.52-1.7-.28-2.37-1.44-2.51-1.26-.15-2.42.25-2.36,2.17.04,1.54-.53,2.12-1.82,1.83-1.5-.34-1.84.73-1.42,2.02.3.92,1.12,2.32,1.64,2.28,1.26-.09,2.58-.71,3.69-1.49.78-.55,1.24-1.71,2.04-2.89ZM151.87,18.36c.71-.45,1.32-.98,2.01-1.23,1.15-.41,1.24-1.23,1.15-2.47-.17-2.53-1.04-4.25-3.16-5.22-1.68-.76-2.96-.69-3.47.84-.56,1.73.61,2.36,1.66,3.07.8.54,1.5,1.3,2.54,2.23-1.96.65-1.99,1.54-.74,2.78ZM118.89,28.4c-.95-.15-2.04-.32-3.13-.49-.12-.02-.25-.04-.37-.04-1.63-.11-2.28.66-2.16,2.54q.26,4.18,3.75,3.57c.12-.02.25-.02.37-.04,1.63-.28,2.31-1.56,1.84-3.34-.17-.67-.2-1.39-.3-2.19ZM182.81,250.8c-.11.09-.21.17-.32.26-.03.5-.25,1.24-.05,1.46.43.46,1.5,1.01,1.56.91,1.02-1.7,1.99-3.45,2.78-5.3.17-.4-.3-1.64-.69-1.8-1.27-.52-2.65-1.02-3.97-.94-.8.05-1.54,1.2-2.31,1.86.57.43,1.22.76,1.68,1.31.53.64.88,1.49,1.31,2.24ZM138.6,27.33c.95-.44,1.8-.71,2.54-1.21,1.03-.69,2.23-1.67,1.53-3.19-.61-1.32-1.82-1.61-3.22-.87-.83.43-1.93.08-2.88.28-.61.13-1.31.48-1.7,1-.25.33-.22,1.52.03,1.71,1.18.88,2.47,1.54,3.7,2.27ZM11.3,359.48c-.94.85-1.6,1.64-2.4,2.12-1.56.96-1.77,2.06.2,3.21.95.56,2.49.06,3.65-.38.42-.16.74-1.59.66-2.38-.18-1.85-.56-3.69-1.02-5.48-.1-.39-1.04-.93-1.3-.77-1.68,1.06-1.13,2.33.21,3.68ZM10.51,401.04c1.12,1.86,2.05,3.33,2.92,4.85.6,1.05,1.78,1.15,1.89.25.38-3.13,2.39-2.54,4.04-2.88.42-.09.83-.18,1.39-.3-.27-.39-.32-.54-.42-.6-.1-.06-.27-.1-.35-.03-1.81,1.43-2.9.5-3.9-1.4-.36-.68-1.29-1.51-1.83-1.4-1.35.26-2.62,1.03-3.74,1.51ZM151.39,421.23l.09-.98c-1.74-.45-3.47-.96-5.22-1.33-.67-.14-1.39.06-2.09.04-.86-.03-1.73-.3-2.56-.15-.51.09-1.02.71-1.38,1.23-.1.15.26,1.07.53,1.17,1.35.49,2.6,1.74,4.2.73.46-.29,1.17-.11,1.76-.05,1.62.16,3.24.45,4.67-.66ZM147.02,415.06c-.07.13-.14.27-.22.4.56.43,1.07,1.11,1.68,1.26,2.16.54,4.34,1,6.54,1.27.66.08,1.51-.36,2-.9.2-.22-.19-1.44-.54-2.02-.54-.89-1.25-1.29-2.21-.42-.43.38-1.17.38-1.77.39-1.82.05-3.65.02-5.47.02ZM159.66,221.25c.62.78,1.21,1.6,1.87,2.34,1.22,1.35,3.25,1.18,3.96-.56.37-.92.42-2.77-.08-3.29-1.86-1.92-4.41-1.12-5.75,1.51ZM164.77,21.27c.35-2.77-2.6-6.83-4.62-6.63-.12.01-.25.04-.35.11-.67.46-.85,3.48-.34,4.7.63,1.51,1.39.6,2.14.21.15-.08.35-.03.58-.04.15.56.28,1.09.43,1.65h2.16ZM174.91,247.47c.03-4.45-1.89-6.63-4.67-5.64-.39.14-1,.63-.98.92.04.64.35,1.75.66,1.8,1.44.24,1.8,1.32,2.23,2.69.2.63,1.22,1.03,1.93,1.23.24.07.67-.79.84-1ZM152.54,226.38c1.64,1.11,3.15,2.2,4.72,3.16.28.17.84-.04,1.15-.29.18-.14.14-.71.14-1.08,0-.4-.05-.82-.13-1.21-.56-2.92-1.87-4.3-3.58-3.36-.98.54-1.62,1.92-2.3,2.78ZM9.67,293.08c.7.4,1.39.86,2.12,1.18.67.29,1.83.83,2.02.55.62-.89,1.08-2.09,1.21-3.22.05-.45-.87-1.28-1.47-1.54-1.59-.68-3.56.95-3.88,3.04ZM179.67,222.17c2.26,0,4.19.36,5.96-.11,1.59-.42,1.51-1.54.04-2.65-.31-.23-.55-.6-.87-.79-1.25-.75-2.4-.54-3.34.68-.52.67-.92,1.46-1.8,2.87ZM160.5,25.66c-.28-.03-.56-.05-.85-.08-.1.31-.37.72-.28.92.71,1.63,0,2.58-.94,3.73-1,1.22-1.86,2.76-1.44,4.66.15.68.57,1.28.86,1.92.37-.58.89-1.11,1.07-1.76.55-2.05,1.02-4.13,1.41-6.22.19-1.02.12-2.11.17-3.16ZM11.35,407.55c-.76-.92-1.4-2.27-2.32-2.62-.83-.31-2.14.26-2.15,1.95,0,1.34,1.35,3.31,2.24,3.18,1.02-.15,2-.47,2.23-2.52ZM10.26,393.9c.81-1.27,1.94-2.32,1.79-2.94-.29-1.16-1.32-2.06-2.05-3.07-.8,1.11-1.81,2.11-2.25,3.39-.13.37,1.41,1.51,2.51,2.63ZM11.37,373.73c1.2,1.54,2.03,2.6,3.23,4.14.32-.29,1.28-.78,1.7-1.63.66-1.33.21-3.03-1.01-3.28-1.26-.26-2.66.48-3.92.76ZM95.51,164.43c.93-.13,1.97.09,2.4-.41.68-.81,1.22-2.07,1.26-3.17.02-.51-1.31-1.54-2-1.51-1.13.05-1.78,1.07-1.53,2.62.11.65-.06,1.36-.13,2.48ZM96.03,194.72c.2.07.4.13.6.2,1.13-1.5,2.26-3,3.37-4.47-.77-.38-1.56-.98-2.41-1.13-.96-.17-2.14-.02-2.11,1.59.02,1.28.36,2.55.56,3.82ZM15.06,419.17c0-.78.11-1.52-.02-2.2-.36-1.91-1.9-2.88-2.74-1.65-.76,1.11-.93,2.76-1.31,4.19-.01.05.58.49.85.44,1.02-.17,2.02-.47,3.22-.77ZM165.13,380.15c.91.21,1.64.44,2.37.52,1.16.13,2.32.15,3.49.21-.38-1.15-.76-2.31-1.16-3.46-.03-.08-.19-.1-.27-.14-.27.81-.54,1.61-.96,2.89-.54-1.11-.82-1.69-1.08-2.22-1.18.17-2.27.32-3.46.49.45.72.8,1.27,1.07,1.7ZM166.31,286.16c-1.05,1.75-1.74,2.89-2.49,4.14,2.17,2.27,4.49-.93,6.68.41-.58-.9-1.44-1.89-1.96-1.69-1.86.73-2.21-.41-2.23-2.86ZM104.57,175.34c-.08-.37-.13-1.1-.38-1.72-.41-1.01-.95-1.96-1.43-2.93-.82.61-1.76,1.09-2.44,1.86-.64.73-.38,1.39.58,1.64,1.22.32,2.42.75,3.67,1.15ZM254.62,256.54c.56-.2.83-.29,1.27-.45-1.88-1.48-2.42.71-3.39,1.38-.21.14-.16,1.51.15,1.86,1.23,1.38,2.44.53,3.78-.29-.62-.86-1.16-1.6-1.81-2.51ZM178.5,367.98c.04-.39.08-.78.13-1.18-.98-.16-1.96-.35-2.94-.46-.59-.07-1.37.28-1.74-.06-.99-.9-1.81-2.07-2.84-3.3.16,3.09,1.23,4.31,3.39,4.35.79.01,1.57.32,2.36.45.55.09,1.1.13,1.65.19ZM13.19,311.65c1.34-2.13,1.37-4.15.18-4.88-.42-.26-1.59.12-1.77.56-.78,1.97.95,2.68,1.59,4.32ZM15.46,429.41c.47-1.86.72-3.2-.87-3.59-1.02-.25-2.17-.16-2.23,1.42-.14,3.15,2.3.58,3.1,2.17ZM103.18,185.86c-.78-1.37-1.3-2.52-2.01-3.48-.62-.83-1.45-1.45-2.19-2.16-.11.16-.23.32-.34.48q2.16,2.21.88,4.67c2.43-1.66,1.65,1,2.3,2.18.55-.67.97-1.19,1.37-1.68ZM256.19,65.36c0-.25.02-.51.03-.76-.8-.49-1.57-1.08-2.41-1.39-.18-.07-.99,1.24-.91,1.35.5.72,1.1,1.49,1.81,1.82.33.15.98-.65,1.48-1.03ZM131.35,16.84q3.77-.83,3.52-2.7-3.75.79-3.52,2.7ZM18.09,384.34c-.17.18-.49.54-.82.89.97.69,1.92,1.41,2.93,2.01.06.04.68-.81.74-1.3.04-.32-.37-.91-.7-1.08-.55-.28-1.19-.31-2.15-.53ZM211.77,93.18c-.51.9-1.13,1.51-1.06,1.97.1.65.64,1.44,1.15,1.66.32.13,1.39-.9,1.34-1.05-.27-.8-.79-1.49-1.43-2.58ZM96.43,170.62c-.2.87-.41,1.75-.67,2.86.9.35,1.77.7,2.64,1.04l.37-.7c-1.88-.14.1-3.51-2.34-3.2ZM11.03,352.23c-.32-.29-.63-.58-.95-.87-.61.81-1.21,1.61-1.82,2.42.38.36.77.71,1.15,1.07.54-.87,1.08-1.75,1.62-2.62ZM228.21,209.93c-1.57,1.71-.8,2.9.05,4.27,1.65-1.5.6-2.72-.05-4.27ZM99.4,156.09q3.09,1.44,3.54.31c-1.16,0-1.97-2.59-3.54-.31ZM252.68,73.68c.81-1.15,1.41-2.01,2.22-3.15-2.61-.23-3.09.45-2.22,3.15ZM85.66,15.38c-.11.35-.23.7-.34,1.04.82.43,1.65.85,2.47,1.28.17-.5.33-1,.5-1.5-.88-.28-1.75-.55-2.63-.83ZM10.2,380.85l.6-.35c-.4-1.04-.72-2.14-1.26-3.07-.14-.23-.98.09-1.31.13.4.68.71,1.19,1.02,1.71.32.53.63,1.05.95,1.58ZM182.53,376.8c-.36.05-.73.11-1.09.16.18,1.3.36,2.6.53,3.89.29-.05.59-.09.88-.14-.11-1.3-.22-2.61-.32-3.91ZM94.33,197.76c-.1.24-.2.47-.29.71q2.55,2.13,3.73,1.61c-1.29-.87-2.36-1.59-3.44-2.31ZM147.39,16.15c-.26-.25-.51-.51-.77-.76-.43.48-1,.9-1.21,1.48-.09.25.57.87.89,1.32.36-.68.72-1.37,1.09-2.05ZM114.49,26.6c-.04-.39-.09-.78-.13-1.17-.97.12-1.93.24-2.9.37.02.33.05.66.07.99.99-.06,1.97-.12,2.96-.18ZM173.51,421.45c-.09-.22-.17-.44-.26-.65-.52.17-1.22.15-1.5.55-.26.37-.05,1.17-.05,1.78.17.06.34.12.51.18.43-.62.87-1.23,1.3-1.85ZM17.65,257.64c-.72-2.04-1.64-1.47-2.56-1.03-.02.21-.03.41-.05.62.87.14,1.74.28,2.6.42ZM94.9,19.69c1.55-2.22,1.49-2.44-.58-2.94.18.92.34,1.71.58,2.94Z"/>
  <path class="cls-1" d="M19.47,105.75c1.72,2.36,3.12,4.3,4.32,5.95-.9.25-2.14.62-3.4.93-1.36.33-2.34-.67-2.11-2.38.19-1.39.7-2.72,1.19-4.51Z"/>
  <path class="cls-1" d="M265.19,265.87c-1.2-.12-2.28-.24-3.29-.34-.43-1.03-.84-2.02-1.34-3.2.02-.03.17-.22.32-.4.46-.55.93-1.1,1.39-1.65.55,1.28,3.02.71,2.29,3.33-.16.57.36,1.4.62,2.26Z"/>
  <path class="cls-1" d="M257.3,235.5c1.41-1.84,2.6-.18,3.8-.1.09,0,.26,1.46.17,1.49-.84.33-1.77.79-2.57.61-.53-.12-.9-1.23-1.41-1.99Z"/>
  <path class="cls-1" d="M22.4,210.31c-1.12-.31-1.07-1.22-.8-2.21.17-.62.42-1.22.52-1.85.09-.55.02-1.13.02-1.93,1.8,2.12.63,4.08.24,6.02,0,0,.03-.03.03-.03Z"/>
  <path class="cls-1" d="M194.49,203.31c.65-.68,1.28-1.4,1.96-2.04.32-.3.74-.46,1.12-.68.12.53.45,1.13.33,1.57-.53,1.9-1.75,2.26-3.43,1.13,0,0,.02.03.02.03Z"/>
  <path class="cls-1" d="M219.71,363.75c1.02.23,2.03.47,3.11.72-1.33,2.67-1.9,2.61-3.11-.72Z"/>
  <path class="cls-1" d="M108.96,128.02c1.46-1.01,2.36-1.62,3.25-2.24.13.12.26.24.38.35-.27.85-.38,2.22-.86,2.43-.68.29-1.63-.27-2.78-.55Z"/>
  <path class="cls-1" d="M267.71,242.98c-.66.96-1.31,1.93-2.37,3.47-.3-1.32-.75-2.37-.55-2.57.68-.7,1.59-1.1,2.41-1.62.17.24.34.48.51.72Z"/>
  <path class="cls-1" d="M255.51,223.27c-1.03-.67-2.06-1.34-3.09-2.01.11-.23.22-.47.32-.7,1.09.52,2.9-.68,2.77,2.72Z"/>
  <path class="cls-1" d="M202.73,206.4c-.35-.82-.69-1.65-1.09-2.6-.29.08-.72.19-1.23.32.02-.39-.03-.69.06-.77,1.12-1.01,1.99-.75,2.31.79.15.72-.04,1.52-.07,2.29,0,0,.02-.02.02-.02Z"/>
  <path class="cls-1" d="M269.84,260.04c.52.12,1.09.06,1.31.35.45.59.71,1.38,1.05,2.09-.3.19-.59.53-.89.53-.26,0-.63-.33-.75-.62-.27-.62-.41-1.32-.72-2.35Z"/>
  <path class="cls-1" d="M159.62,403.98c.6-1.24,1.2-2.47,1.95-4.01-1.09.19-1.72.29-2.35.4,1.23-1.4,2.45-1.87,3.84-.45.93.94,2.04,1.64,3.29,2.62-2.2.35-5.09-2.38-6.16,2.53-.19-.36-.38-.72-.57-1.08Z"/>
  <path class="cls-1" d="M176.22,394.62c.34-.31.68-.61,1.01-.91,2.24,1.92,2.94,1.69,4.75-1.36-.13.85,0,2.05-.44,2.47-.66.64-1.72,1.06-2.58,1-.93-.07-1.82-.79-2.72-1.23,0,0-.02.03-.02.03Z"/>
  <path class="cls-1" d="M176.97,390.68c-.25,1.31-.5,2.63-.74,3.94,0,0,.02-.03.02-.03-1.02,0-2.04,0-3.51,0,1.61-1.47,2.93-2.68,4.25-3.89,0,0-.02-.03-.02-.03Z"/>
</svg>