<?xml version="1.0" encoding="UTF-8"?>
<svg id="Layer_1" data-name="Layer 1" xmlns="http://www.w3.org/2000/svg" viewBox="0 0 374.62 396">
  <defs>
    <style>
      .cls-1 {
        fill: #3cb54a;
        stroke-width: 0px;
      }
    </style>
  </defs>
  <path class="cls-1" d="M370.87,366.67c.19-.46.27-.81.46-1.07,1.15-1.6,2.42-3.13,2.62-5.21,1.25-1.54.44-3.13.12-4.7-.17-.8-.67-1.31-1.43-1.71-2.57-1.34-2.65-1.71-.84-3.96.86-1.07,1.06-2.12.38-3.33-.17-.29-.28-.61-.39-.85.25-1.08,1.23-1.84.84-3.05-.63-.51-1.26-1.11-1.97-1.58-.68-.45-1.21-1.01-1.43-1.77-.33-1.11-1.1-1.73-2.11-2.1-.96-.35-1.95-.62-2.94-.9-2.11-.6-4.52-.21-6.24-2.02-.49.17-.92.26-1.29.45-1.13.61-2.33.67-3.53.42-2.04-.42-4.09-.52-6.16-.51-.58,0-1.27-.11-1.71-.44-1.62-1.2-3.37-1.14-5.19-.75-1.54.33-3.06.32-4.61-.1-1.49-.41-3.02-.75-4.55-.98-1.66-.25-3.11-.88-4.5-1.81-2.31-1.56-5.18-1.43-7.5.15-.49.33-1,.82-1.54.87-1.33.12-2.25.66-2.93,1.81-.47.79-1.26,1.06-2.22,1-1.98-.11-3.96-.14-5.95-.16-1.4-.02-2.72-.1-3.84-1.17-.58-.56-.96-.4-1.75.32-.19.17-.35.37-.51.54-.98-.07-1.92-.14-2.86-.2-3.18-.2-6.36-.39-9.54-.6-.34-.02-.68-.11-1.02-.15-2.56-.28-5.13-.54-7.69-.84-1.96-.23-3.98-.3-5.86-.85-1.44-.42-2.82-.68-4.29-.7-.77,0-1.56-.06-2.31-.21-5.66-1.14-11.32-2.26-16.96-3.5-3.7-.81-7.37-1.77-11.05-2.71-4.09-1.04-8.18-2.12-12.26-3.21-1.91-.51-3.81-1.07-5.71-1.62-.49-.14-.96-.4-1.45-.54-4.05-1.16-8.12-2.26-12.16-3.47-2.89-.87-5.71-1.97-8.61-2.82-4.89-1.44-9.57-3.43-14.22-5.49-1.03-.45-2.01-.9-2.45-2.14-.17-.47-.83-.87-1.35-1.09-1.11-.46-2.29-.73-3.42-1.15-2.66-.99-5.31-2.01-7.96-3.05-1.99-.78-3.57-2.06-4.37-3.93-1.5-.65-2.87-1.18-4.18-1.83-.51-.25-1.2-.7-1.29-1.16-.23-1.15-1-1.51-1.91-1.86-2.6-.98-5.04-2.26-7.27-3.92-1.31-.98-2.58-2.01-3.86-3.03-2.83-2.26-5.77-4.39-8.45-6.81-3.2-2.89-6.67-5.45-9.74-8.49-3.42-3.39-7.15-6.47-10.66-9.78-2.38-2.24-4.72-4.54-6.87-6.99-2.27-2.58-4.37-5.33-6.43-8.1-2.16-2.91-4.22-5.9-5.76-9.19-1.68-3.59-3.27-7.21-4.51-11-.97-2.96-1.59-6-2.5-8.96-.16-.51-.01-1.12,0-1.75.6-.1,1.01-.21,1.43-.24,2.78-.19,5.51.12,8.17.96,2.08.66,4.17.97,6.35.6,1.44-.25,2.9-.36,4.35-.52,1.19-.13,2.4-.19,3.59-.37,1.81-.27,2.96-.24,4.47.27-.41.84-.38,1.23.16,1.38.49.14,1.01.27,1.51.26,5.76-.08,11.55.51,17.24-.88.55-.13,1.18.08,1.78.12,2.83.18,5.61.84,8.47.77,2.41-.06,4.83,0,7.25-.03,1.49-.01,2.91.22,4.22.99,1.28.75,2.68,1.06,4.16,1.29,1.94.3,3.95.41,5.71,1.51.45.28,1.2.34,1.73.2,1.08-.29,2.03-.07,3.03.26.98.32,1.98.69,2.99.79,1.97.19,3.69.98,5.22,2.09,1.81,1.31,3.6,1.39,5.62.69.96-.33,2.01-.51,3.03-.53,2.5-.05,5-.03,7.5.07.92.04,1.87.26,2.74.58,1.56.57,3.12.95,4.79.92.95-.02,1.89.07,2.84.14,1.71.12,3.43.39,5.14.36,3.96-.07,7.91.19,11.87-.43,2.96-.46,6-.44,9-.64.34-.02.68-.11,1.02-.15,2.48-.28,4.95-.69,7.43-.79,3.54-.14,6.98-.93,10.49-1.24,2.05-.18,4.09-.58,6.14-.83,2.73-.33,5.46-.62,8.2-.93,1.97-.22,3.93-.57,5.9-.62,2.5-.07,4.98-.16,7.45-.58,3.22-.56,6.46-.98,9.7-1.42,1.87-.26,3.76-.45,5.64-.64,3.59-.37,7.19-.71,10.78-1.09.85-.09,1.69-.36,2.54-.45,2.83-.28,5.65-.58,8.41-1.31.58-.15,1.19-.21,1.79-.25,2.83-.19,5.67-.35,8.5-.53.34-.02.69-.06,1.03-.13,3.56-.71,7.15-1.08,10.78-.89.6.03,1.22.03,1.81-.07,4.44-.76,8.75-1.83,12.55-4.46,2-1.39,3.23-3.34,4.25-5.41.5-1.03.55-2.35.55-3.54,0-1.89-.18-3.78-.32-5.66-.12-1.63-.25-3.26-.44-4.88-.32-2.65-.53-5.27-.29-7.96.4-4.46.52-8.94.75-13.41.04-.78.06-1.55.11-2.33.11-1.54.35-3.09.34-4.63-.02-3.61.01-7.22-.37-10.84-.5-4.78-2.02-9.04-4.85-12.87-1.04-1.41-1.88-2.87-1.66-4.75.07-.57-.12-1.19-.28-1.77-.61-2.33-.92-4.74-2.13-6.89-.29-.51-.32-1.16-.52-1.73-.88-2.51-1.32-5.15-2.5-7.58-.86-1.78-1.61-3.63-2.26-5.49-.74-2.13-1.8-4.08-3.04-5.95-2.13-3.24-4.19-6.51-6.34-9.74-1.14-1.72-2.34-3.4-3.6-5.04-1.67-2.18-3.55-4.22-5.11-6.48-1.91-2.77-4.34-5.11-6.13-7.98-1.08-1.74-2.6-3.2-3.87-4.82-1.27-1.62-2.43-3.34-3.75-4.93-1.15-1.37-2.48-2.59-3.68-3.93-.86-.96-1.6-2.01-2.72-2.74-.38-.25-.59-.8-.79-1.25-.17-.39-.15-.87-.35-1.23-.14-.25-.52-.51-.77-.49-.21.02-.37.45-.56.7-.14.18-.28.36-.49.63-.91-.64-1.73-1.23-2.57-1.81-1.27-.88-2.64-1.64-3.46-3.06-.15-.27-.53-.61-.78-.59-1.2.1-1.58-.86-2.21-1.53-.7-.75-1.4-1.57-2.24-2.13-1.43-.96-2.38-2.21-2.89-3.84-.42-1.33-1.17-2.48-1.99-3.59-.58-.79-1.21-1.23-2.18-.83-.99.41-1.8.08-2.65-.47-2.53-1.64-5.18-3.1-7.64-4.83-4.46-3.13-9.19-5.78-13.98-8.34-2.72-1.46-5.67-2.51-8.53-3.72-1.98-.84-4.01-1.58-5.97-2.47-2.59-1.17-5.11-2.48-7.7-3.66-1.41-.64-2.94-1.02-4.33-1.7-2.33-1.15-4.78-1.93-7.26-2.66-2.81-.83-5.59-1.75-8.39-2.59-1.81-.54-3.64-1.04-5.47-1.53-2.25-.6-4.54-1.04-6.75-1.77-3.79-1.26-7.69-1.85-11.63-2.21-2.39-.22-4.83.17-7.19-.84-.89,1.35-2.06,1.95-3.56,1.84-.34-.02-.7.02-1.02.13-1.19.41-2.35.3-3.56,0-1.25-.3-2.54-.55-3.82-.61-3.77-.17-7.17.76-9.9,3.56-1.81,1.85-3.96,2.91-6.57,3.21-1.6.19-3.15.83-4.72,1.25-1.26.34-2.13,1.03-2.53,2.34-.14.46-.47,1.09-.85,1.21-1.21.38-2.48.99-3.76.5-2.27-.87-4.54-.68-6.86-.33-.73.11-1.55,0-2.26-.21-.65-.2-.89-.75-.46-1.45.11-.17.02-.47.02-.82-2.36-.97-4.71-1.64-7.2-.4-.89.44-1.87.66-2.72.09-1.17-.78-2.43-.71-3.72-.7.36-.66.97-.86,1.66-1.06,2.05-.6,2.55-.93,3.63-2.1-.12-.1-.23-.28-.36-.3-.25-.02-.56-.03-.74.1-1.67,1.21-3.75.94-5.93,1.95.57-.93.88-1.44,1.38-2.27-1.43.24-2.48.52-3.55.58-1.18.07-2.39-.26-3.67.29.4.35.69.62,1.05.94-.29,1.03-.58,2.08-.85,3.04-3.23.91-3.36.85-4.49-1.92-.52.25-1.1.42-1.53.77-1.48,1.16-2.9,2.39-4.37,3.57-.26.21-.61.37-.94.41-1.45.2-2.5,1.11-3.61,1.92-1.04.76-2.03,1.61-3.11,2.32-2.31,1.5-4.71,2.88-6.02,5.47-.07.14-.24.25-.37.36-1.8,1.46-3.29,3.28-5.33,4.49-1.16.69-2.34,1.56-3.13,2.64-.89,1.22-1.96,2.15-3.11,3.05-.48.37-.98.71-1.41,1.13-2.76,2.72-5.51,5.46-8.25,8.21-.28.28-.46.65-.75,1.08,1.28.39,2.16-.97,3.42-.33-.54.77-.97,1.52-1.51,2.16-2.22,2.63-4.54,5.19-6.69,7.87-2.05,2.55-3.93,5.23-5.88,7.85-.97,1.31-1.91,2.65-2.91,3.94-1.16,1.5-2.45,2.9-3.55,4.44-2.2,3.08-4.31,6.24-6.47,9.35-.59.85-1.25,1.65-1.81,2.52-2.28,3.55-4.51,7.14-6.81,10.68-2.61,4-4.58,8.3-6.28,12.74-2.6,6.8-3.82,13.96-5.45,21.01-.67,2.91-1.24,5.9-1.21,8.95,0,.64-.27,1.36-.62,1.92-1.03,1.62-1.92,3.27-1.95,5.26,0,.25-.04.57-.19.74-1.13,1.22-1.46,2.68-1.45,4.28,0,.24-.1.53-.24.73-.75,1.07-.65,2.29-.66,3.5-.01,1.47-.13,2.94-.02,4.4.12,1.56-.28,2.84-1.43,3.75.14.76.28,1.35.34,1.95.07.68,0,1.39.13,2.06.11.54.42,1.04.57,1.38-.45.52-.95.85-1.05,1.27-.23.91-.48,1.91-.31,2.8.35,1.84-.31,3.49-.47,5.36-2.13-1.88-2.16-1.96-2.42-4.22-.34-2.91-.71-5.81-1.08-8.71-.1-.8-.38-1.51-1.31-1.75-.79.29-1.23.87-1.31,1.53.51,1.27,1.21,2.34,1.35,3.48.21,1.77.15,3.6,0,5.39-.08,1.03-.33,2.05-.02,3.07,1.08,3.46,1.65,7.04,2.22,10.61.26,1.62.34,3.22-.61,4.75-.72,1.15-1.18,2.45-1.76,3.69-.54.49-1.49.26-1.98.95.45.55.82,1,1.21,1.48-.33.47-.6.87-.8,1.16.32.6.7,1.09.84,1.64.19.73.29,1.51.25,2.26-.04.67-.38,1.32-.48,1.99-.1.73.02,1.49-.11,2.21-.18,1-.5,1.98-.76,2.97-.41.02-.83.05-1.34.08-.43-1.1-.92-2.2-1.29-3.34-.26-.78-.73-1.5-.48-2.46.13-.48-.29-1.13-.52-1.67-.23-.54-.53-1.05-.84-1.65.58-.5,1.13-.9,1.57-1.4.35-.4.45-.92-.01-1.36-.12-.47-.26-.93-.35-1.4-.13-.67.19-1.07.84-1.22-.17-.46-.28-.95-.53-1.35-.16-.26-.58-.35-.8-.6-.4-.45-.72-.98-.46-1.61.24-.57.8-.53,1.3-.56.17-.01.34,0,.5,0,0,0,0,0,0,0-.74-.39-1.49-.77-2.35-1.22-.06-.51-.21-1.1-.19-1.69.07-2.32-.25-4.66.3-6.96.12-.49.02-1.06-.88-1.1-.19.27-.48.59-.66.96-.42.84-.81,1.66-1.36,2.45-.47.67-.22,1.8-.41,2.7-.25,1.18-.56,2.33-.26,3.57.12.49.09,1.04,0,1.54-.54,2.85-.53,5.83-1.88,8.51-.11.22-.24.44-.35.64-.79.13-1.64.03-2.11,1.2.31.85.71,1.88,1.06,2.93.24.73.66,1.52.55,2.22-.33,2.14-.04,4.27-.16,6.38-.15,2.61.52,4.94,1.57,7.15.6,1.27.72,2.38.24,3.69,1.13.34,1.7,1.05,2.02,2,.43,1.22.88,2.43,1.31,3.64.75,2.11,1.39,4.26,2.25,6.32.93,2.25,1.59,4.54,1.92,6.95.14.99.51,2.03,1.04,2.88,1.4,2.22,1.95,4.78,3.04,7.11.87,1.85,1.6,3.77,2.49,5.61.67,1.39,1.48,2.7,2.26,4.04.82,1.41,1.45,2.93,2.68,4.09.77.73,1.93,1.27,1.63,2.68-.02.12.13.32.26.42,1.11.92,1.51,2.29,2.18,3.48.81,1.44,1.79,2.74,3.12,3.74.41.31.79.65,1.15.96v1.18c1.34,1.43,2.6,2.72,3.79,4.07.74.84,1.34,1.8,2.07,2.64,1.98,2.27,3.98,4.52,6.02,6.74.92,1,2.01,1.85,2.94,2.86,2.8,3.05,5.76,5.92,8.92,8.6,1.57,1.34,3.11,2.71,4.67,4.06.71.62,1.49,1.17,2.15,1.84,1.11,1.12,2.61,1.67,3.8,2.63,1.81,1.45,3.46,3.09,5.19,4.64,2.24,2.01,4.36,4.17,7.16,5.44.46.21.89.54,1.25.9,2.23,2.18,4.81,3.9,7.35,5.68.7.49,1.38,1.03,2.01,1.6,1.97,1.79,3.85,3.67,6.09,5.16,1.79,1.19,3.48,2.51,5.2,3.81,1.44,1.09,2.84,2.23,4.28,3.32.31.24.69.58,1.13.15-.08-1.52-.77-2.59-2.18-3.23-.45-.2-.88-.56-1.2-.95-2.02-2.51-4.62-4.38-7.1-6.37-1.88-1.51-3.79-2.98-5.67-4.49-3.22-2.59-6.42-5.2-9.65-7.78-1.75-1.4-3.57-2.7-5.28-4.14-3.63-3.04-7.2-6.15-10.82-9.2-3.49-2.94-6.75-6.14-10.42-8.87-1.38-1.03-2.86-2.07-3.83-3.44-1.9-2.68-4.65-4.58-6.27-7.53-1.02-1.85-2.76-3.29-4.05-5.01-1.5-1.99-2.86-4.08-4.27-6.14-.31-.45-.51-.92.04-1.34,1.53-.13,2.71.6,3.62,1.66,1.27,1.48,2.99,2.3,4.53,3.39.14.1.46-.05.89-.12-.47-.83-.79-1.46-1.58-2-1.48-1.01-2.98-2.13-4.05-3.53-.85-1.11-1.79-2.09-2.84-2.94-4.97-4.08-9.27-8.75-12.67-14.22-.49-.79-.97-1.67-1.15-2.58-.36-1.83-1.25-3.38-2.15-4.95-.34-.6-.68-1.19-.97-1.82-.08-.18.05-.46.12-.99.5.55.89.87,1.15,1.28,3.23,4.92,7.28,9.17,11.2,13.52,2.77,3.06,5.69,5.99,8.54,8.98q1.53,1.6,2.5,4.33c.05.15.17.29.29.38.14.09.36.07.48.17,2.3,1.93,4.68,3.81,5.54,6.89-.61.1-1.4-.22-1.71.71.62.91,1.33,1.69,2.42,1.98.14-.65.25-1.14.36-1.63.21.15.46.27.62.46,1.04,1.26,2.03,2.56,3.09,3.81,1.15,1.37,2.33,2.72,3.55,4.02.7.75,1.53,1.39,2.28,2.09,2.7,2.53,5.18,5.29,8.07,7.64,1.71,1.39,3.2,3.15,4.47,4.96.92,1.3,1.97,2.36,3.15,3.37.52.45,1.04.9,1.49,1.42,2.08,2.42,4.28,4.72,6.79,6.71,1.28,1.01,2.45,2.17,3.66,3.26.76.68,1.45,1.48,2.29,2.05,5.2,3.54,10.5,6.94,15.03,11.37.18.18.38.36.61.47,3.13,1.5,5.66,3.91,8.61,5.69,1.48.89,3.02,1.65,4.51,2.53,3.7,2.2,7.19,4.76,11.12,6.59,2.73,1.27,5.4,2.69,8.15,3.91,1.81.8,3.68,1.62,5.6,1.96,2.07.37,3.94,1.09,5.87,1.83,3.05,1.17,6.2,2.12,9.36,2.95,3.82,1.01,7.59,2.23,11.47,3.07,2.86.62,5.63,1.62,8.44,2.46.82.24,1.63.66,2.46.74,4.34.4,8.32,2.16,12.44,3.34,3.64,1.04,7.2,2.31,10.93,3.1,2.58.55,5.14,1.38,7.52,2.63.61.32,1.23.62,1.87.87,3.53,1.39,7.14,2.51,10.83,3.41,3.6.88,7.2,1.74,10.82,2.54,2.35.52,4.81.69,7.08,1.45,4.28,1.44,8.82,1.6,13.12,2.87,1.67-.22,2.98.45,4.1,1.64.1.1.33.08.57.13.53-.33,1.1-.69,1.63-1.02.81.31,1.53.83,2.23.8,1.14-.05,1.25,1.06,1.94,1.42.69-.17,1.34-.33,1.76-.44,1.74,1.04,2.67,2.43,3.49,3.99.54,1.03,1.48,1.89,2.36,2.69.4.37,1.09.58,1.65.59,2.42.02,4.81.43,7.2.52,6.11.21,12.23.09,18.34.6,2.06.17,4.12.35,6.18.41,2.5.07,5,.06,7.5,0,1.72-.05,3.43-.24,5.14-.43,2.22-.24,4.47-.36,6.64-.84,2.07-.46,4.27-.73,6.05-2.11.19-.15.48-.18.73-.25,2.07-.58,4.13-1.19,6.21-1.72.91-.23,1.88-.27,2.79-.48,2.19-.51,4.22-1.44,6.23-2.42.68-.33,1.29-.63,2.11-.75,1.77-.27,3.6-.93,4.85-2.2,1.48-1.51,3.17-2.29,5.14-2.71.24-.05.45-.22.61-.3.1-.13.18-.2.2-.27.66-2.15,1.73-3.94,4-4.72.31-.11.6-.36.81-.62,1.39-1.66,3.3-2.34,5.3-2.88.46-.13,1.17-.47,1.21-.77.12-1.05.91-1.32,1.55-1.85.63-.53,1.54-.85,1.75-1.75-.28-1.82-1.96-1.66-3.21-2.19ZM125.59,9.64c-.43.47-.86.94-1.29,1.41.24-.96.25-.97,1.29-1.41ZM122.64,12.04c-.7.81-1.39.67-2.58.48,1.08-.87,1.72-.96,2.58-.48ZM123.85,127.71c2.93-2.91,5.91-5.81,9.07-8.47,4.02-3.38,8.09-6.73,12.4-9.72,7.36-5.1,14.71-10.25,22.4-14.87,3.4-2.04,6.79-4.08,10.43-5.67,1.57-.69,3.1-1.49,4.64-2.26,1.02-.51,1.97-.4,2.95.14,3.09,1.7,6.22,3.31,9.55,4.52,1.21.44,2.32,1.14,3.48,1.7,1.51.73,2.8,1.77,3.69,3.16.69,1.09,1.65,1.74,2.72,2.29,3.44,1.78,6.9,3.52,10.34,5.3,1.6.83,3.2,1.68,4.76,2.59,2.9,1.69,5.78,3.43,8.66,5.16.37.22.75.44,1.06.73,2.96,2.76,5.96,5.49,8.84,8.33,1.41,1.38,2.68,2.93,3.88,4.5,2.98,3.9,5.9,7.85,8.75,11.85,2.76,3.88,4.48,8.14,5.74,12.63.3,1.06.34,2.2.4,3.31.05.88-.47,1.46-1.32,1.69-.66.18-1.33.35-2.01.44-1.62.2-3.25.32-4.88.51-5.64.67-11.27,1.39-16.9,2.04-3.67.42-7.36.72-11.04,1.15-3.33.39-6.65.88-9.98,1.31-2.13.27-4.27.51-6.4.75-1.71.19-3.42.37-5.13.55-5.05.53-10.1,1-15.14,1.6-3.59.43-7.2.65-10.78,1.06-3.53.4-7.05.3-10.58.47-2.23.11-4.46.38-6.69.4-1.45.01-2.9-.29-4.35-.47-.78-.1-1.28-.56-1.36-1.34-.11-1.15-.53-2.15-1.15-3.12-.31-.48-.34-1.14-.53-1.7-.21-.65-.4-1.32-.72-1.92-.45-.83-1.23-1.18-2.16-1.15-.17,0-.36-.01-.51.05-2.2.89-4.04-.07-5.84-1.15-2.36-1.42-4.61-2.94-6.56-4.96-1.21-1.25-2.55-2.43-4.38-3.05-1.38-.47-2.53-1.74-3.69-2.76-1.75-1.55-3.57-2.97-5.67-4.03-.69-.35-1.32-.81-1.97-1.23-.77-.51-.76-.52-1.49-2.43,2.5-2.67,4.89-5.39,7.45-7.94ZM8.9,195.67c.22-.09.48-.06.73-.09-.25.42-.51.84-.77,1.28-.7-.71-.69-.89.05-1.2ZM33,270.05c.15.19.27.46.27.7,0,.23-.11.54-.27.66-.17.11-.59.12-.7,0-1.17-1.34-2.69-2.42-3.15-4.35,1.52.74,2.8,1.73,3.84,2.99ZM25.56,141.41c.05.62.13,1.24.15,1.86.02.68,0,1.36-.02,2.04-.82-1.23-.84-2.52-.13-3.9ZM26.02,153.45c0,.08-.25.14-.53.29.17-2.11.38-4.14-.19-6.14-.09-.3.03-.68.09-1.01.08-.41.2-.82.3-1.23.05.07.12.13.14.2.57,2.62.46,5.26.19,7.9Z"/>
  <path class="cls-1" d="M10.16,188.84c-.16.45-.32.9-.5,1.43,1.38.48,1.34,1.53,1.04,2.66.54-.29.99-.72.87-1.36-.19-1.04-.32-2.15-1.41-2.74,0,0,0,0,0,0,0,0,0,0,0,0h0Z"/>
  <path class="cls-1" d="M302.33,49.87c-.31-.96-.78-1.32-1.82-1.25.32.95.78,1.33,1.82,1.25Z"/>
  <path class="cls-1" d="M298.6,47.12c.1-.05.13-.27.27-.59-.39-.18-.79-.37-1.19-.53-.01,0-.21.27-.18.38.14.51.73.91,1.1.74Z"/>
</svg>