<?xml version="1.0" encoding="UTF-8"?>
<svg id="Layer_1" data-name="Layer 1" xmlns="http://www.w3.org/2000/svg" viewBox="0 0 160.07 500">
  <defs>
    <style>
      .cls-1 {
        fill: #3cb54a;
        stroke-width: 0px;
      }
    </style>
  </defs>
  <path class="cls-1" d="M21.61,119.46c-1.22-7.89,1.3-13.71-4.66-18.17,1.63-2.41,5.91,3.99,5.13-4.15-2.23,1.01-2.14,1.22-4.69-.02,1.21-3.4,2.33-3.49,4.99-4.8-1.29-.56-2.11-.92-3.22-1.4.78-1.48,1.49-2.82,2.34-4.45-7.25-2.19-7.13-3.52-2.94-10.85,1.43,3.17,10.39-4.41,9.06-9.43,1.45.48,4.57.43,5.03,3.18.26,1.53-1.67,3.08-1.86,4.51,4.16-.55,9.54-5.77,10.2-9.75,6.47,3.95,6.25-1,6.25-9.04-3.24-.21-4.5,4.06-6.94,5.23.3,1.6.52,2.73.73,3.87-1.69-2.37-3.27-5.84-5.78-6.35-1.59-.32-5.76,2.08-7.57,2.5-1.33-2.16-.78-4.3,2.7-8.56-.52-3.39-1.58-3.11,2.73-11.27,2.06.64,3.01.78,4.71,2.65-1.56,1.8-2.23,1.95-4.13,2.63,2.91,1.48,5.61-.22,8.63.22-1.2,2.17-2.16,3.92-3.12,5.66.13.22.27.45.4.67,1-.94,1.99-1.87,3.08-2.89,3.4,5.48,4.22,1.41,5.91-3.36,1.63-4.62,2.35-7.54,6.53-7.6-1.21,2.33-2.46,4.52-3.83,6.7.15.31.29.62.44.92,1-1.03,2.11-1.77,3.31-2.21,1.01-.25,1.88.19,2.62,1.33,2.05-.47,3.48-2.15,5.26-3.59-1.26-3.41-1.36-3.86-3.51-5.04-1.02.92-2.06,1.02-3.13.31-.42-.63-.83-1.26-1.25-1.89-.46-1.47-1.18-1.91-2.15-1.32-.67,1.14-1.23,2.38-1.69,3.71-1.74.8-2.02-.67-3.85-.87-3.77-.41-5.25,1.71-6.51-2.9-.46-1.68.88-3.22-.1-4.93-.56-.99-5.23-1.91-6.16-2.33,2.15-2.19,3.4-3.88,4.91-6.9-1.48-.51-2.44-.83-3.39-1.16-.06-.36-.11-.73-.17-1.09,3.66-1.14,4.82,1.73,8.24,2.52-2.63-5.57,1.79-11.57,4.95-13.68-2.03-.48-3.29-.77-4.55-1.07-.07-.45-.14-.9-.21-1.35,5.27-2.4,11.13-.84,16.67-1.58,2.81-.37,5.61-1.21,8.42-1.49,2.68-.27,5.42,1.38,7.86.99,4.34-.7,6.93-2.19,11.88-1.25,5.29,1,10.8,3.33,15.74,6.01-2.44.65-4.19,1.11-5.62,1.49-.86-1.37-1.61-2.56-2.36-3.76-.66.78-1.31,1.56-2.18,2.59-5.28-2.43-.91,5.77-2.55,8.35-1,1.57-2.24.13-3.36,1.41-.92,1.05-2.05,4.98-2.7,6.42,2.68-1.78,4.71-3.12,6.91-4.57.2.65.51,1.64,1.04,3.33,4.02-3.26,15.73-15.04,18.67-3.72,2.33,8.98-10.99-.08-9.34,7.57,2.7-1.17,5.63-1,8.37.02,4.07-3.45,5.02-3.54,9.77-2.06.12-.29.46-1.17.88-2.23-1.79-1.3-1.99-2.3-2.93-4.66,2.73-.72,5.4-1.6,8.1-2.5-.04-.41-.07-.82-.11-1.22-2.11.32-4.23.63-7,1.05,3.89-6.1,10.62-3.22,15.68-2.2,4.82.97,11.86,2.21,15.77,6.39,4.03,4.3,5.43,13.37,5,19.75-.24,3.5-1.15,7.78-.23,11.07.84,3.01,3.51,4.49,3.33,8.29-.31,6.78-9.55,8.26-13.35,9.99-2.74,1.24-4.6,1.54-5.72,4.52-.54,1.44-1.1,6.71-1.32,8.37-1.12,8.23,1.55,17.45,2.15,25.68.6,8.27,1.22,16.03,2.23,24.25,3.02,4.81,4.59,9.55,9.59,6.57,2.92,8.6,2.17,22.05,2.72,31.48.66,11.37,1.43,22.74,1.98,34.13,1.13,23.31.06,46.61-1.81,69.81-3.82,47.24-12.09,93.55-17.29,140.47-1.05,9.52-2.76,19.83-.36,29.11.91,3.51,1.7,6.91,2.47,10.48.63,2.91,2.01,5.76,2.37,8.52.82,6.26-1.94,15.58-5.62,19.21-5.29,5.22-13.46,6.68-19.47,9.94-2.95,1.6-5.48,4.12-8.53,5.05-3.84,1.17-7.86.39-11.71.29-7.43-.2-15.11,2.87-22.45,4.46-7.21,1.56-14.9-.19-21.63-4.23-6.75-4.05-14.06-6.29-20.91-10.48-7.8-4.77-13.6-9.47-19.65-17.66-4.51-6.1-11.33-14.19-13.19-22.85-1.14-5.32.68-11.54.39-17.19-.32-6.26-.91-12.26-.85-18.57.06-6.47-.27-13.08.03-19.53.26-5.63,1.6-10.93,1.42-16.65,4.32-9.3,5.81-23.62,4.91-34.41,2.63-3.28,1.74-8.72,2.71-13.03,1.49-6.58,2.65-12.78,3.53-19.63-1.53.73-2.53,1.21-3.54,1.69-.09-.19-.18-.38-.26-.56,4.63-4.64,3.73-5.76,5.48-12.58,1.61-6.28,4.84-6.67,9.14-5.3q.01-6.23-4.55-7.22c-.72,1.6-1.43,3.17-2.14,4.73-.25-.17-.51-.35-.76-.52.22-4.87-1.45-7.4,2.82-7.99,2.99-.41,3.86,2.39,6.29-1.89-.85-5.22-4.74-3.81-7.87-3.81,2.01-4.27,5.11-1.32,7.66-2.65-1.23-1.09-2.23-1.98-3.57-3.16-.5.31-1.56.98-2.44,1.53,0-5.22-.09-7.74,1.91-12.14-1.13-1.55-.53-3.3,1.36-4.6-2.16-1.37-2.83-4.46-1.73-7.1,3.19,2.76,10.35-5.33,10.61-.7,1.05-.62,2.05-1.2,3.17-1.86-3.56-3.86-3.22-1.96-6.81-.4-2.53,1.1-5.64,2.08-7.16-2.13.64-.49,1.29-.99,1.64-1.25.27-2.24.5-4.13.73-6.01l-.03-.06c.36,2.68,1.47,5.15,2.3,7.61,2.69-.66,3.45-6.31,6.85-7.08-2.49-2.41-2.48-4.57-.24-9.55-.93-.88-1.87-1.76-3.09-2.91,2.01-1.85,3.68-3.38,5.78-5.31-2.97-1.85-4.03,1.97-5.92,2.52-1.99-2.5-.58-6.73,1.73-7.7,1.69-.71,4.25,1.76,5.81,2.56.11,2.08.03,11.81,3.6,8.24,2.89-2.89-.47-8.34-.55-11.55-1.1-.58-2.27-1.19-3.51-1.84.21-1.81.16-3.04,1.06-4.5.83-1.36,2.93-.44,3.49-2.4,2.03-7.13-5.8-3.63-7.29-2.65.14.73.29,1.55.5,2.69-1.36.41-2.6.79-4.11,1.25.93.49,1.7.89,2.75,1.44-3.49,1.22-5.23,4.28-4.12,7.71-1.44-.26-2.62-.47-4.11-.73,1.24-3.26,2.24-5.88,3.3-8.67h-2.79c-1.05-6.17-.69-9.86.16-15.82.59-4.14.59-6.07-1.22-9.9,5.34-2.56,10.55-5.07,15.76-7.57-.1-.59-.21-1.18-.31-1.77-3.25.73-6.5,1.46-10.18,2.28,2.24-4.65,5.06-7.25,8.85-9.08-3.44-4.35-10.83-.26-14.7.84-2.13-7.44,2.22-8.61,6.6-11.48-1.92-1.73-3.16-2.85-4.4-3.98-.14.17-.28.35-.41.52.31.79.61,1.58,1.3,3.37-1.94-.24-3.41-.42-4.87-.6,1.52-3.86,2.82-7.16,4.06-10.31-1.01-2.09-3.16.2-4.27-1.85-1.32-2.44.54-6.8,2.03-8.01-.13,1.49-.2,2.37-.37,4.34,2.53-2.28,4.52-4.07,6.76-6.09-1.81-4.09-5.63-2.88-8.05-1.14-1.21-1.61-1.31-3.31.83-4.66,1.71,2.62,3.85,2.11,7.09-1.8-1.2-2.1-2.24-4.45-5.06-3.91.83,1.39,1.35,2.25,2.1,3.51-1.56.85-2.86,1.56-4.16,2.27ZM142.65,199.04c-2.09.84-4.18,1.69-6.43,2.59-.85-.65-2.02-1.54-3.19-2.43,2.93,7.63,6.56,5.23,9.58-.21.81-.66,1.62-1.33,2.15-1.76-.98-1.59-1.73-2.8-2.75-4.45.25,2.43.45,4.35.65,6.26ZM131.82,103.95c-1.48,6.23-3.04,12.78-4.61,19.33,3.24,1.97,5.31-2.05,7.58-3.17-1.3,5.77-1.31,8.95-.75,14.9-1.67-.18-2.74-.3-3.9-.42,1.19,6.69,8.97.03,7.43-6.7,1.09-3.57,1.96-6.41,2.69-8.79-1.23-2.47-2.35-4.73-3.47-6.99,5.03-5.15-1.09-9.09-4.98-8.15ZM37.95,97.48c-2.17-5.93,3.2-5.23,4.21-8.95-1.24.45-1.99.73-2.77,1.01-.42-2.24-.78-4.16-1.23-6.56-1.1,1.27-1.73,1.99-2.36,2.72-.04-.3-.08-.6-.12-.89-3.04,0-6.04.52-3.73,5.68,1.32-.82,2.53-1.57,3.93-2.44v4.32c-3.7-1.9-4.64,2.58-6.9,4.93,7.02-1.49,7.14-1.49,8.97.2ZM126.52,104.67c-.13-.31-.26-.61-.39-.92-4,1.94-5.25,2.67-4.39,8.93.74,5.38,1.93,6.82,5.51,5.96-.64-3.65.68-9.74-3.01-9.87.88-1.58,1.58-2.84,2.28-4.1ZM88.63,73.13c-2.14-.17-5.01-.14-3.55-4.37.54-1.58,3.54-2.63,4.79-3.69-2.34-.71-4.06-1.23-6.19-1.88,1.27,4.42-.83,4-2.91,3.83.42,2.39.78,4.39,1.1,6.24,2.56,1.26,4.38,2.44,7.11,2.3-.15-1-.3-2-.36-2.42ZM114.78,103.65c-1.28,1.3-2.29,2.33-3.31,3.36,4.73,6.93,5.94,3.25,7.83-4.1-1.59-.32-3.01-.62-4.52-.93v1.67ZM86.2,4.07c-2.41,3.29-5.05,10.57,1.27,9.56-2.5-5.14,5.7-4.67,2.04-11.23-1.51,2.54-1.26,2.28-1.26,5.21-.93-1.61-1.38-2.4-2.05-3.55ZM133.61,158.61c3.39-1.05,6.02-1.86,9.04-2.8-1.59-2.95-2.75-5.1-4.37-8.1-1.68,3.92-3.03,7.08-4.67,10.9ZM71.86,13.26c3.3,1.78,2.87-.48,4.69-2.95,2.12-2.89,5.05-3.73,7.15-6.6-.15-.23-.3-.46-.45-.69-4.38,2.26-10.08,1.56-11.39,10.25ZM25.85,89.81l-.61-1.03c6.2-6.51-.42-2.78-3.01-.39,2.71,5.13.78,8.18,5.95,7.07.13-.36.27-.71.4-1.07-3.82-.94-1.25-3.25-.97-5.33-.73.31-1.25.53-1.76.75ZM64.22,44.39c1.1,1.35,5.4,3.09,6.55,1.12,1.58-2.7-1.79-7.18-2.75-9.12-2.22,2.52-.78,4.99-3.8,8ZM110.64,28.29c-.02.32-.05.65-.07.97,3.24,3.13,8.57,2.33,11.12-1.46-3.36-2.63-7.34-.39-11.05.49ZM127.69,98.65c.03.43.07.85.1,1.28,3.26.47,7.02,1.93,10.21,1.53-1.74-3.53-7.61-4.87-10.32-2.81ZM135,312.08c-7.63.7,4.11,14.51,4.27,4.15-1.45.15-2.74.28-4.04.41-.07-1.43-.15-2.87-.23-4.56ZM115.92,171.64c3.21,4.13,3.27-.46,3.06-4.41-.27-.09-.55-.18-.82-.27-1.84,2-3.67,4-5.51,6,.15.32.3.65.45.97.99-.81,1.99-1.61,2.82-2.29ZM132.01,23.86s.5-.49,1.04-1.03c-2.93-2.52-3.85-2.79-7.36-1.95.67,4.1,3.49,2.78,6.32,2.98ZM110.04,120.03c.29,1.63.48,2.72.68,3.8,1.92-2.48,2.91-4.11,3.61-7.72-2.64.45-2.9.79-4.29,3.92ZM138.95,184.49c.28,2.63.84,3.33,2.01,5.35,1.72-2.63,2.18-4.54,2.9-7.98-1.75.94-3.23,1.73-4.91,2.63ZM50.24,73.74c.43,1.2,2.1,7.95,4.11,4.66,2.77-4.52-1.5-6.92-4.11-4.66ZM42.93,69.87c1.18,3.39,3.57,4.01,6.46,2.32,2.19-1.28,1-3.1.73-5.24-2.25,2.38-3.86,6.56-7.19,2.92ZM133.52,297c.09.19.18.39.28.58,2.41-1.51,5.4-2.51,6.81-5.67-1.71-.8-1.96-.78-3.48-.33-1.44,2.16-2.52,3.79-3.61,5.41ZM135.09,144.52c.96-1.06,1.55-1.72,2.14-2.37-2.28-2.95-2.25-3.33-4.82-.92.81,1,1.63,2,2.68,3.29ZM97.15,84.49c.85.97,1.55,1.77,2.71,3.08.18-5.54-2.2-5.45-5.23-4.35.08.48.17.96.25,1.44.88-.06,1.76-.13,2.27-.16ZM31.96,226.41c.97,1.94,1.78,3.58,2.6,5.21,1.81-2.87.67-6.89-2.6-5.21ZM132.02,290.83c-.28.04-.57.08-.85.12-.85,2.1-1.69,4.2-2.91,7.21,3.64-1.66,3.42-2.02,3.76-7.33ZM122.68,179.36c-2.04-2.34-1.97-2.1-4.12.09,2.09,2.74,1.97,2.54,4.12-.09ZM52.71,67.61c.63-1.48,1.32-3.11,2.36-5.56-1.56-.55-2.8-.98-3.9-1.37.61,2.74,1.06,4.79,1.54,6.93ZM38.23,228.79c.34-.06.68-.12,1.02-.17-.28-2.21-.55-4.43-.83-6.64-.81.89-1.63,1.78-2.36,2.57.9,1.77,1.53,3,2.16,4.24ZM23.15,262.3c2.14-.69,5.52-3.37,1.66-6.01-.49,1.76-.89,3.22-1.66,6.01ZM131.66,333.18c-1.47,1.34-2.49,2.28-3.51,3.21.17.45.35.89.52,1.34,2.74-.94,2.99-.71,2.99-4.55ZM88.12,77.78c.13.17.26.34.38.51,2.43.19,3.41.6,5.19-1.59-1.7-2.21-3.57.04-5.57,1.08ZM99.86,76.9c2.4.08,2.98-2.21,3.62-4.62-1.02-.17-1.83-.3-2.35-.38-.44,1.74-.83,3.24-1.28,5ZM47.93,53.77c1.77.68,2.93,1.13,4.1,1.58l.2-.91c-.64-1.21-1.28-2.41-2.09-3.95-.67.99-1.22,1.81-2.21,3.27ZM114.65,178.82c-.29-.57-.58-1.14-.87-1.72-.9.71-1.79,1.42-2.69,2.13,1.48,2.62,1.68,1.52,3.56-.42ZM37.05,182.69c-1.72-3.47-3.24-3.67-5.08-.89,1.67.29,3.28.57,5.08.89ZM124.58,187.3c1.97,1.03,3.78,1.27,4.2-2.91-1.4.97-2.8,1.94-4.2,2.91ZM80.61,33.04c-.95,2.93-1.6,3.4.04,5.61,1.21-2.96,1.45-2.94-.04-5.61ZM96.94,31.47c1.8,3.78,2.92,1.3,4.24.51-.04-.38-.07-.76-.1-1.14-1.38.21-2.75.42-4.13.63ZM117.9,129.14c3.06,2.83,3.78,2.66,4.34-.38-1.52.13-2.93.25-4.34.38ZM102.17,88.1c-.04-.32-.09-.63-.13-.95-1.1.67-2.2,1.35-3.98,2.43,1.36,1.22,2.06,1.84,2.64,2.36.6-1.56,1.03-2.7,1.47-3.84ZM122.95,88.53c-1.4,1.42-2.27,2.3-3.13,3.17.06.36.11.73.17,1.09,2.86-.64,2.96-.31,2.96-4.26ZM112.39,167.42c.2.64.4,1.27.6,1.91,1.35-.91,2.7-1.83,4.05-2.74-.12-.42-.24-.84-.35-1.26-1.43.69-2.87,1.39-4.3,2.08ZM133.5,61.31c-.22-.54-.44-1.08-.66-1.63-1.77,1.29-2.36,1.13-1.76,3.78.81-.72,1.61-1.43,2.42-2.15ZM91.45,169.7c.16.33.33.65.49.98,1.53-1.4,3.94-1.32,4.51-4.94-1.87,1.48-3.44,2.72-5.01,3.96ZM42.96,228.22c-.34-.35-.68-.69-1.02-1.04-.68,1.28-1.36,2.55-2.04,3.83,1.69.95,2.01-.97,3.06-2.79ZM82.44,60.35c-.14-.35-.28-.71-.42-1.06-1,.76-1.99,1.51-2.99,2.27,2.01,2.18,2.65.29,3.41-1.2Z"/>
  <path class="cls-1" d="M40.22,162.33c.59,4.11,4.33,3.07,6.93,4.43-3.43,1.43-8.91-.08-8.05-4.17.37-.09.74-.17,1.12-.26Z"/>
  <path class="cls-1" d="M22.69,303.76c2.03-2.62,2.19-2.09,5.17-.61-1.87,3.09-3.54,1.71-5.2.57,0,0,.03.05.03.05Z"/>
  <path class="cls-1" d="M118.97,143.38c-1.77.9-3.38,1.71-5.38,2.72,2.06-4.57,2.24-4.65,5.38-2.72Z"/>
  <path class="cls-1" d="M111.81,142.67c-1.76-.46-3.53-.92-5.29-1.37.09-.38.19-.76.28-1.15,1.77.35,3.55.7,5.32,1.05-.11.49-.21.98-.32,1.47Z"/>
  <path class="cls-1" d="M104.43,143.34c-2.1,1.39-2.18,1.93-4.06.3,2.36-1.57,1.88-1.29,4.06-.3Z"/>
  <path class="cls-1" d="M97.55,146.01c-1.07.16-2.13.32-3.2.48.37-2.48.76-2.04,3.24-1.86-.02.46-.03.92-.05,1.38Z"/>
</svg>