<?xml version="1.0" encoding="UTF-8"?>
<svg id="Layer_1" data-name="Layer 1" xmlns="http://www.w3.org/2000/svg" viewBox="0 0 173.52 396">
  <defs>
    <style>
      .cls-1 {
        fill: #3cb54a;
        stroke-width: 0px;
      }
    </style>
  </defs>
  <path class="cls-1" d="M170.23,141.63c-.29-3.1-.5-6.2-.81-9.3-.7-7.1-1.44-14.2-2.15-21.3-.15-1.55-.7-2.59-2.5-2.15-2.48.61-4.43-.4-5.52-2.44-1.63-3.03-3.33-6.16-4.13-9.46-.89-3.7-.69-7.66-1.19-11.47-.81-6.15-2.22-12.24-2.55-18.41-.19-3.6.74-7.48,2.14-10.83.52-1.25,3.83-1.32,5.86-1.95.36-.11.67-.34,1.02-.48,2.67-1.09,5.29-2.35,8.03-3.22,5.32-1.69,6.63-4.63,3.17-9.01-3.38-4.27-2.71-8.62-1.69-13.3.32-1.47-.05-3.23-.53-4.72-.71-2.2-1.71-4.31-2.76-6.38-.61-1.21-1.3-2.79-2.38-3.29-2.87-1.33-5.89-2.55-8.99-3.12-5.64-1.04-11.36-1.76-17.08-2.25-2.63-.23-5.46,1.03-7.96.5-3.41-.73-6.88-.74-10.33-2-7.08-2.59-14.55-4.12-21.88-5.98-4.38-1.11-8.78-1.78-13.22.06-.93.39-2.21.02-3.32-.09-1.28-.13-2.58-.62-3.83-.49-2.59.28-5.14,1.08-7.73,1.27-7.73.56-15.55-.39-23.21,1.46-.24.06-.56-.2-.81-.17-2.55.38-5.31.32-7.6,1.31-3.35,1.45-4.13,5.01-2.73,8.56.29.74.18,2.24-.32,2.6-2.19,1.59-4.17,3.95-7.12,2.88-.71,2.11-1.35,4.03-2.05,6.1.31.26.92.77,1.6,1.34-4.74,2.23-8.54,10.76-7.77,16.01-1.26,1.27-2.46,1.9-2.51,2.62-.69,8.8-2.32,17.58-.68,26.46.45,2.46.31,5.03.56,7.54.14,1.38.48,2.75.82,4.1.73,2.86,1.97,5.67,2.2,8.56.43,5.48.27,11.01.41,16.52.02.73.4,1.45.49,2.19.5,4.25.96,8.51,1.44,12.77.18,1.58.43,3.16.57,4.74.25,2.77.5,5.53.64,8.31.1,2.05-.05,4.11.04,6.16.1,1.97.51,3.94.54,5.91.13,7.31.16,14.62.21,21.93,0,.55-.12,1.11-.19,1.67-.52,4.25-1.02,8.5-1.59,12.75-.13,1.01-.38,2.04-.77,2.98-1.63,3.93-2.81,7.86-1.12,12.1.23.58.28,1.33.17,1.95-.84,4.63-1.87,9.23-2.58,13.87-.53,3.48-2.78,6.35-2.5,10.25.44,6.18.17,12.53-4.65,16.35.07,2.24.15,3.85.16,5.47,0,.55-.36,1.17-.22,1.66,1.67,5.73-4.08,10.31-2.46,16.02-2.93,4.02-1.47,8.9-2.53,13.32-1.03,4.29-.65,8.92-2.71,13.03-1.11,2.21-2.74,4.26-1.5,6.99.15.34-.22.89-.29,1.36-.54,3.4-1.21,6.8-1.54,10.22-.3,3.07-.34,6.18-.27,9.27.11,5.34.47,10.67.58,16.02.07,3.61.11,7.25-.24,10.84-.26,2.64-1.03,5.15.8,7.57,1.8,2.38,3.37,4.93,5.16,7.33,1.17,1.57,2.48,3.06,3.84,4.49,3.09,3.27,6.24,6.49,9.39,9.71.72.73,1.46,1.54,2.35,1.97,7.38,3.52,14.65,7.35,22.24,10.32,7.39,2.9,15.11,4.98,22.73,7.27,5.27,1.59,10.64,1.95,16.11.87,6.37-1.26,12.76-2.46,19.18-3.41,2.36-.35,4.84,0,7.26.18,4.44.34,8.82.62,12.96-1.6,1.97-1.06,4-2.06,6.09-2.84,6.17-2.3,12.47-4.27,18.54-6.8,2.3-.96,5.05-2.68,5.95-4.77,1.52-3.53,1.99-7.6,2.39-11.5.16-1.59-1.02-3.31-1.57-4.98-1.05-3.18-2.14-6.36-3.13-9.56-.66-2.14-1.8-4.36-1.66-6.47.44-6.47,1.12-12.95,2.21-19.34,2.19-12.81,4.76-25.54,7.07-38.33,1.91-10.58,3.75-21.17,5.48-31.78,1.86-11.35,3.91-22.68,5.22-34.1,1.49-13,2.39-26.07,3.24-39.13.39-5.9.3-11.86-.03-17.77-.41-7.2-1.31-14.37-1.98-21.55Z"/>
</svg>