<?xml version="1.0" encoding="UTF-8"?>
<svg id="Layer_1" data-name="Layer 1" xmlns="http://www.w3.org/2000/svg" viewBox="0 0 91.81 396">
  <defs>
    <style>
      .cls-1 {
        fill: #3cb54a;
        stroke-width: 0px;
      }
    </style>
  </defs>
  <path class="cls-1" d="M72.36,331.27c-.1,0-.23-.23-.28-.37-.59-1.73-.63-3.46.09-5.16.36-.86.32-1.7.29-2.62-.06-1.77-.47-3.67.98-5.26-.48-.3-.88-.54-1.18-.73-.37-.96.51-2.08-.69-2.94-.07.41-.12.63-.16.86-.04.26-.09.52-.13.78-.96-1.67-.29-2.98.94-4.35-.55.08-.93.13-1.26.18-.56-2.66-.71-5.3-.47-8.01.17-1.96.61-3.98-.1-5.96-.09-.24.09-.58.12-.87.04-.34.17-.75.05-1.02-.8-1.74-.71-3.63-.94-5.46-.11-.87-.27-1.75.73-2.28.08-.04-.01-.4-.03-.68-.28.19-.45.31-.88.61.17-1.13.29-2,.45-3.05-1.04-.11-.93-.98-.84-1.75.09-.7.71-1.55.48-2.02-.34-.69-.55-1.36-.66-2.09-.05-.34.05-.7.01-1.04-.08-.76-.22-1.51-.3-2.26-.08-.69-.37-1.51-.11-2.07.55-1.2.51-2.43.56-3.67.04-.88.06-1.76.08-2.63.05-2.15.2-4.31.11-6.46-.11-2.75-.43-5.49-.64-8.24-.03-.36.07-.73.11-1.1.52,1.23.79,2.44.98,3.67.51,3.22.66,6.47,1.14,9.7.5,3.3.9,6.61,1.38,9.91.14,1,.79,2.14.5,2.96-.65,1.79.25,3.24.53,4.82.02.12.04.24.05.36.2,2.01.41,4.01.6,6.02.29,2.98.57,5.95.86,8.93.05.54.16,1.07.23,1.6.1.82.19,1.64.27,2.45.05.46.01.97.82,1.03.27-4.19-.71-8.29-.51-12.48-.9-.97-.86-.97-.84-2.29.02-1.72.12-3.45-.12-5.14-.12-.86-.2-1.57.33-2.36-1.17-.9-1.15-2.03-.66-3.04-.35-.31-.75-.51-.77-.73-.06-.77.05-1.55.02-2.32-.02-.58-.15-1.15-.24-1.73-.09-.58-.23-1.15-.29-1.73-.04-.41.06-.84,0-1.24-.28-1.86-.81-3.7-.84-5.56-.03-1.84.28-3.68-.59-5.41-.04-.09.02-.22.03-.34.09-1.06.21-2.12.25-3.18.04-1.16,0-2.32,0-3.67-.6-.13-.64-.81-.66-1.56-.11-2.94-.27-5.87-.4-8.81-.03-.59-.05-1.19.01-1.77.19-1.66.47-3.3.6-4.96.04-.49-.27-1.02-.47-1.51-.11-.27-.49-.49-.48-.72.09-1.29-.8-1.53-1.74-1.61-.29-3.66-.58-7.17-.83-10.68-.09-1.3-.08-2.61-.11-3.92-.05-1.79-.1-3.59-.14-5.38,0-.35.12-.73.04-1.06-.3-1.28-.11-2.46.37-3.69.38-.95.82-2.06-.54-2.8-.2-.11-.25-.66-.23-1.01.07-1.55,0-3.15.35-4.64.34-1.46.26-2.84.14-4.27-.03-.35-.09-.75.03-1.05.72-1.82.35-3.74.03-5.47-.67-3.69-.87-7.38-.95-11.11-.07-3.01-.5-5.98-1.66-8.8-.38-.94-.62-1.94-1.01-2.87-1.04-2.48-2.02-4.98-3.21-7.39-1.01-2.04-2.41-3.88-3.39-5.92-1.91-4-4.14-7.88-5.37-12.19-.1-.34-.31-.65-.51-.95-1.28-1.95-2.57-3.91-3.87-5.85-.37-.55-.68-1.17-1.17-1.59-3.49-3.01-6.42-6.62-10.23-9.29-2.71-1.9-5.38-3.81-8.71-4.52-1.11-.24-2.21-.62-3.23-1.1-1.84-.87-3.62-1.9-5.43-2.82-1.87-.95-3.73-1.85-5.85-.57-.39.24-1.05.06-1.58.06-1.01,0-1.72.42-2.06,1.4-.13.39-.3.77-.47,1.2-.51.04-.99.06-1.45.13-1.22.2-1.57.8-1.23,2.04.19.68.4,1.35.6,2.02-1.62.83-1.92,2.42-1.99,3.96-.1,2.1.08,4.2.12,6.31.07,3.03,1.19,5.99.69,9.07-.04.23.02.48.08.71.45,1.79.7,3.61.8,5.46.19,3.54.52,7.07.76,10.61.19,2.69.32,5.39.5,8.09.44,6.71.93,13.41,1.3,20.12.17,3.1.5,6.19.58,9.31.13,4.73.59,9.46.91,14.19.19,2.76.34,5.51.55,8.27.28,3.58.6,7.15.91,10.72.1,1.19.17,2.4.36,3.58.19,1.18-.07,2.33.19,3.57.4,1.88.33,3.89.59,5.83.31,2.32.42,4.66.62,6.99.12,1.43.21,2.87.39,4.29.49,3.98,1.02,7.96,1.51,11.94.34,2.73.64,5.46.94,8.2.29,2.56.58,5.13.83,7.69.23,2.27.43,4.54.6,6.82.27,3.59.51,7.18.77,10.77.05.72.02,1.46.17,2.16,1.13,5.25.91,10.62,1.55,15.92.49,4.08.37,8.24.43,12.37.06,4.87.15,9.74-.02,14.61-.13,3.89-.46,7.79-1.03,11.64-.47,3.21-.67,6.42.26,9.45.59,1.91.2,3.81.79,5.68.36,1.15-.17,2.56.12,3.75.46,1.89.94,3.94,2.04,5.47,1.22,1.7,3.13,2.91,4.79,4.28.61.51,1.5.72,2.03,1.28,1.1,1.16,2.04,2.46,3.1,3.77,1.49-.84,2.38-.02,3.16,1.08.48.69.9,1.36,1.9,1.48.4.05.76.65,1.1,1.02.3.33.55.69,1.02,1.3v-1.37c.37-.14.75-.28,1.21-.45,1.04,1.01-.21,2.97,1.41,3.94.42-1.13-.95-2.21-.06-3.23,1.21-.04.98,1.97,2.25,1.57,1.34-1.74,1.78-3.63,1.44-5.83,1.45.41,2.91.31,2.72,2.21.74.71.73,1.55.48,2.46-.03.1.18.27.3.42.35-.51.67-.98,1.05-1.54.63,1.41,1.15,2.58,1.67,3.74.7.07,1.4.25,1.67.7.59.98,1.44,1.38,2.45,1.64.28.07.66.17.78.38.7,1.19,1.79.78,2.75.69.92-.08,1.17-.55,1.06-1.51-.09-.78-.18-1.57-.31-2.65.88.97,1.49,1.64,2.12,2.33-.23.38-.46.76-.74,1.23,1.17.41,1.78-.46,2.63-.69.11-1.1-.1-1.97-.55-2.97-1.04-2.36-2.71-4.72-.64-7.5.54-.73.26-2.07.35-3.14-1.23-.41-.63-1.24-.47-1.98.04-.2-.03-.46-.12-.65-.82-1.78-.17-3.51.17-5.25.02-.1.35-.13.56-.19-.02-.51-.26-1.22-.02-1.5.99-1.12.47-2.49,1.08-4.04-.84.44-1.3.69-1.74.92.1.53.17.94.25,1.34-1.54.29-1.49.3-1.75,1.77-.33,1.89-.74,3.76-1.16,5.63-.08.34-.36.63-.75,1.29-.23-1.77-.42-3.12-.57-4.47-.03-.28.04-.81.14-.83,1-.19.5-.91.51-1.4.04-1.4.01-2.81.01-4.44q-1.21-1.2-.86-2.6c1.03-.09.71.82.87,1.3.36-.37.62-.89.98-.96.61-.12.69.48.79.97.13.68.54.97,1.32.85-.48-2.72-.92-5.36,1.43-7.75.73,1.5.76,3.21,2.33,3.95.12-1.01.24-1.98.36-2.95.7.84.84,1.84.51,2.81-.21.65.26,1.65-.83,1.92.03.76.23,1.55.07,2.27-.23,1.02.68,2.02,0,3.03-.04.06.46.48.82.84.41-1.83,1.49-3.22,1.16-4.98-.24.13-.42.22-.71.37.13-.88.24-1.62.37-2.51.6.25,1.06.43,1.74.72,0-.76.23-1.5-.04-1.86-.77-1.03-.48-1.95-.2-3.03.43-1.67.92-3.42-.66-4.86-.13-.12-.07-.44-.1-.66-.05-.46-.04-.94-.17-1.38-1.31-4.29-.9-8.56.35-12.75.7-2.36,1.21-4.75,1.66-7.16.05-.27.29-.51.49-.86.2.41.3.62.41.84.03-.55.93-1.39-.37-1.44ZM17.11,217.06l-.68-.65c.11-.1.23-.2.34-.3l.57.73c-.07.07-.15.14-.22.22ZM32.71,380.78c.13-.06.26-.13.38-.19.29.72.58,1.45.93,2.33q-1.3-.3-1.32-2.14ZM40.85,386.56c-.15.86-.29,1.71-.44,2.57-.2-.38-.53-.75-.56-1.14-.05-.68.1-1.38.17-2.19.61-.18.97-.04.83.76ZM48.25,384.76c-.92.12-1.26-.18-1.38-1.05-.08-.57-.3-1.12-.51-1.86.27-.41.51-.91.87-1.3.25-.27.73-.59.98-.5.28.09.66.72.57.93-.4.93-.15,1.66.27,2.51.33.66-.11,1.18-.8,1.27ZM56.77,378.39c-.13-.18-.31-.34-.37-.53-.02-.07.23-.33.34-.33.17.01.34.18.64.37-.3.24-.46.37-.61.49ZM58.23,372.66c-.27-.42-.54-.83-.81-1.25.14-.08.28-.17.42-.25.24.43.48.86.73,1.28-.11.07-.23.14-.34.22ZM60.03,379.39c.08.32.16.63.25.95-.09.03-.19.06-.28.09-.12-.29-.25-.59-.37-.88.14-.05.27-.11.41-.16ZM61.06,331.77c.19-2.71.27-5.47,2.45-7.8-.13,3.91.46,7.73-1.26,11.74-.43-.59-.82-.9-.9-1.27-.18-.87-.35-1.78-.29-2.66ZM62.46,357.29c.16.21.34.4.46.63.02.05-.25.35-.32.32-.23-.07-.43-.24-.76-.45.3-.24.46-.37.62-.5ZM62.37,361.79c-.08.45.17.96.27,1.44-1.19-.4-1.25-.71-.64-3.78.43.28.71.47,1.14.74-.29.56-.67,1.05-.77,1.59ZM62.4,355.3c.05-1.03.05-1.03.77-.84-.24.26-.47.52-.77.84ZM63.28,356.6c-.03-.7-.06-1.4-.09-2.1.53.63.9,1.28.09,2.1ZM64.35,330.88c.08-.28.24-.58.19-.84-.53-2.65.3-5.24.33-7.86,0-.34.38-.68.59-1.03.13.03.25.06.38.1.35,3.95.29,7.9-.08,11.93-1.81-.78-1.84-.84-1.41-2.3ZM64.14,353.98c.46-.03.91-.06,1.51-.1q-.58.94-1.51.1ZM65.88,358.35c-.11-.14-.27-.26-.3-.41-.03-.12.09-.28.21-.6.2.32.35.49.39.68.02.09-.19.22-.3.33ZM67.84,359.87c-.11-.34-.22-.69-.38-1.16.93.33.57.76.38,1.16Z"/>
  <path class="cls-1" d="M64.64,372.87s0,0,0,0c0,0-.02,0-.03,0,0,0,0,0,0,.01,0,0,.03-.02.03-.02Z"/>
  <path class="cls-1" d="M90.9,54.59c-.36.73-.61,1.25-.87,1.77-.13-.67-.03-1.23-.03-1.78,0-.14-.31-.28-.54-.47-.22.55-.38.97-.54,1.38-1.63-.27-1.92-.67-1.98-2.61.56-.31,1.12-.61,1.68-.92-.02-.09-.05-.19-.07-.28-.77.18-1.55.36-2.32.54-.15-.86-.22-1.73-.46-2.56-.45-1.59-.99-3.16-1.5-4.74-.39-1.22-.32-1.43.84-2.33.05-.04,0-.21-.03-.48-.96.47-1.85.55-2.38-.7.37-.93.81-1.89,1.05-2.98.34-1.55,1.61-2.71,3.04-3.54.07-.04.09-.18.12-.24l-1.04-1.1q1.72-.71,2.1-2.37c1.03-1.9,2.56-.96,3.77-1.41-2.77-.46-5.5-1.77-8.47-.3.59.33,1.03.57,1.54.85-1.2.23-2.21.42-3.23.61v-1.97c-.36-.04-.7-.09-1.04-.1-.31,0-.63.03-1.33.07.66-.58,1.02-.9,1.43-1.26-2.03.07-2.33-.4-1.67-2.17.34-.92,1.01-1.02,1.79-1.22.61-.15,1.59.34,1.64-.84.46.55.85,1.02,1.42,1.71q-.28-2.06,3.04-2.73c-1.03-.35-1.77-.47-2.36-.83-.62-.37-1.05-.31-1.65,0-1.57.82-2.08.71-3.27-.57-.36-.39-.66-.83-1-1.27.53-1.03.32-2.32,1.44-3.06.19-.12.18-.65.15-.97-.09-1.06-.73-1.82-1.41-2.6-.9-1.03-1.57-2.28-2.52-3.25-1.13-1.15-2.41-2.17-3.71-3.12-.75-.54-1.65-.92-2.53-1.22-2.02-.7-4.12-1.17-6.08-2-3-1.27-6.06-2.28-9.31-2.54-3.04-.24-6.1-.33-9.15-.46C41.03.3,36.61-.02,32.19,0c-2.23.01-4.46.68-6.69,1.01-.63.09-1.29.08-1.93.06-1.73-.05-3.41-.23-4.76,1.38-.64.76-1.73,1.34-2.72,1.56-1.42.32-2.56.95-3.58,1.91-.52.49-.97,1.09-1.55,1.49-.81.56-1.17,1.33-1.43,2.21-.27.91-.6,1.8-.88,2.71-.11.34-.27.72-.21,1.05.34,1.93-.96,3.38-1.44,5.07-.32,1.14-.95,2.22-1.15,3.37-.18,1.03-.35,1.93-1.02,2.8-.76.97-1.31,2.12-1.89,3.22-.16.3-.17.71-.13,1.06.21,1.66.52,3.31-.61,4.81-.14.18.04.58.04.88,0,.75-.24,1.28-1.11,1.32-.32.01-.63.13-.98.21.25,1.01,1.25,1.86.04,2.82-.27.22-.22,1.28.07,1.68.85,1.18.62,3.02,2.29,3.69.13.05.14.41.22.61.19.46.29,1.02.62,1.35,1,1.02,2.06,1.98,3.16,2.9,1.9,1.58,3.46,3.45,4.62,5.62.47.87.47,2.06,1.07,2.78.84,1.01.62,1.84.21,2.81-.3.71-.58,1.42-.91,2.23h1.74c.17.46.32.92.5,1.36.34.82.53,1.65,1.38,2.25.77.55,1.41,1.42,1.85,2.29,1.12,2.19,2.33,4.25,4.79,5.2.38.15.84.34,1.03.65.65,1.04,1.85,1.23,2.75,1.88,1.1.79,2.47,1.24,3.49,2.11,1.8,1.53,3.84,2.41,6.07,3.01,2.2.6,4.4,1.19,6.56,1.94,2.76.95,5.59,1.34,8.48,1.27,1.25-.03,2.45-.42,3.28-1.62-.02.42-.05.85-.07,1.26,1.24,0,2.36.01,3.48,0,.23,0,.55-.06.67-.21.53-.7,1.12-.43,2.04.1-.81-1.74.73-.69,1.04-1.51-.52-.35-1.05-.71-1.69-1.15.25-.37.5-.74.56-.84.95.14,1.67.24,2.41.35-.28.47-.56.94-.84,1.4.07.07.14.13.21.2.75-.61,1.51-1.22,2.34-1.89.42.54.75.96,1.09,1.39,3,.32,5.33-1.1,7.28-3.13.59-.61,1.03-1.07,1.87-1.09.63-.02,1.27-.08,1.83-.12.39-.44.95-1.19,1.03-1.14.8.48,1.05-.26,1.51-.56.48-.31,1.02-.53,1.52-.81.06-.03.04-.21.06-.32-.25-.06-.49-.11-.91-.2.64-.53,1.13-.94,1.67-1.39-.33-1.01-.64-1.98-.95-2.92.44-.13.93-.2.94-.28,0-.74.55-.67,1.01-.75.71-.13,1.41-.29,2.17-.45.56,1.13.5,1.32-1.08,2.85-.2-.54-.38-1.04-.66-1.81-.7,1.49-1.58,2.6-.72,4.04.75-.27,1.4-.5,1.76-.63.52-.79.84-1.43,1.3-1.94,1.03-1.15,1.08-1.51.12-2.9-.03-.05.07-.19.13-.36.37.12.75.24,1.06.34.45-1.21.86-2.35,1.28-3.5.66-.07,1.29-.14,2.13-.23-.66-1.09-1.36-1.11-2.18-.59-.46.29-.86.5-1.17-.31,1.48-1.47,2.62-3.4,4.91-3.97.55-.14.75-.52.73-1.08-.04-1.07-.03-2.15-.08-3.22-.01-.28-.19-.55-.34-.98ZM2.23,40.03c-.21-.14-.41-.29-.62-.43.06-.08.16-.25.19-.24.23.08.45.2.67.3-.08.12-.16.24-.23.37ZM66.84,80.89c.6-.33,1.2-.66,1.8-.99-.14,1.21-.95,1.14-1.8.99ZM80.37,32.78c-.58-1.42-.41-1.69,1.19-1.83.1.26.2.53.31.83-.49.32-.99.66-1.5.99ZM85.78,54.06c-.12.04-.24.07-.36.11-.09-.47-.18-.95-.3-1.57,1,.36.65.97.67,1.47Z"/>
  <path class="cls-1" d="M77.47,361.01c-.14.26-.3.55-.59,1.11-.09-.76-.15-1.22-.2-1.68-1.03,1.84-.12,3.94-1.04,6.1-.3-.67-.48-1.05-.68-1.51-.96,2.18-.94,2.33.12,2.63.02-.25.05-.51.07-.77.15-.04.31-.08.46-.12-.26,1.27,1.65,1.45,1.06,2.92-.39.99.35,2.34-.88,2.84.48.72.88,1.33,1.32,1.99,1.4-.83,1.54-2.24,1.57-3.7,0-.08-.11-.16-.18-.26-.21.35-.38.64-.62,1.05-1.28-1.95.18-3.62.08-5.4-.09-1.58.93-3.23,1.41-4.7-.6-.16-1.25-.33-1.9-.5Z"/>
  <path class="cls-1" d="M77.4,309.7c-.66-1.09-.75-2.17-.87-3.32-.08-.79-.23-1.58-.34-2.37-.14,0-.28,0-.42,0-.09.68-.29,1.36-.26,2.03.05,1.31.18,2.62.37,3.91.77,5.18.66,10.41.92,15.62.04.73.09,1.47.13,2.2h.48c.05-.47.18-.97.13-1.44-.23-2.19-.4-4.37,0-6.56.13-.7.22-1.49.02-2.15-.5-1.67.03-3.32-.09-4.98-.07-.99.35-2.21-.09-2.95Z"/>
  <path class="cls-1" d="M47.17,389.32c-.43,1.68-.35,2.02.95,3.57.91-2.13.7-2.86-.95-3.57Z"/>
  <path class="cls-1" d="M68.6,371.25c-1.34.76-.99,1.68-.8,2.51.19.84-.73,1.78.22,2.74.92-1.74.52-3.4.57-5.25Z"/>
  <path class="cls-1" d="M70.33,365c-.25,1.24,1.21,2,.6,3.2-.02.04.41.3.69.51q.14-3.36-1.29-3.71Z"/>
  <path class="cls-1" d="M73.68,353.97c1.25-1.02.66-2.17.9-3.11-1.13.73-.64,1.85-.9,3.11Z"/>
  <path class="cls-1" d="M76.67,341.27v2.86c.65-.95.43-1.91,0-2.86Z"/>
  <path class="cls-1" d="M72.54,368.33c.27-.96,1.04-1.92.19-3.19-.08,1.27-.13,2.23-.19,3.19Z"/>
  <path class="cls-1" d="M66.47,364.39c-.05-.57-.11-1.15-.16-1.72-.88.66-.74,1.24.16,1.72Z"/>
  <path class="cls-1" d="M73.31,356.1v2.05c.37-.66.7-1.23,1.02-1.8-.27-.07-.6-.15-1.02-.25Z"/>
  <path class="cls-1" d="M74.64,362.05c-.53-.42-.76.06-1.26.62.57.07.91.11,1.25.15.01-.26.13-.67.01-.76Z"/>
  <path class="cls-1" d="M77.46,329.51c-.15,0-.3,0-.45,0-.17.46-.36.92.56,1.37-.05-.59-.08-.98-.11-1.38Z"/>
  <path class="cls-1" d="M76.86,331.73c.03.46.05.93.1,1.75q.52-1.11-.1-1.75Z"/>
  <path class="cls-1" d="M76.82,350.86v-2.23q-.51,1.58,0,2.23Z"/>
  <path class="cls-1" d="M76.04,359.32q.43-.99-.29-1.53c.12.62.2,1.07.29,1.53Z"/>
  <path class="cls-1" d="M74.03,329.49c-1.23-.21-1.17.32-.92,1.28.37-.51.6-.83.92-1.28Z"/>
  <path class="cls-1" d="M85.82,36.73c.98.42,1.33.15,1.69-.76-.64.29-1.04.47-1.69.76Z"/>
  <path class="cls-1" d="M79.05,359.47c-.31.54-.49.86-.8,1.41,1.03-.13,1.13-.5.8-1.41Z"/>
  <path class="cls-1" d="M71.04,361.69c.73-.49.92-.82.22-1.46-.08.54-.13.88-.22,1.46Z"/>
  <path class="cls-1" d="M73.63,323.35c-.09-.02-.18-.04-.26-.06-.14.46-.28.91-.41,1.37.13.02.27.04.4.07.09-.46.18-.92.27-1.38Z"/>
  <path class="cls-1" d="M77.94,356.87c-.08,0-.16-.02-.24-.02-.04.42-.09.85-.13,1.27.09,0,.18.02.27.03.03-.42.07-.85.1-1.27Z"/>
  <path class="cls-1" d="M82.91,16.96c-.05-.1-.09-.19-.14-.29-.27.14-.53.27-.8.41.04.08.08.16.12.24.27-.12.54-.24.82-.36Z"/>
  <path class="cls-1" d="M88.19,41.26c-.3-.1-.6-.21-.91-.31-.04.12-.07.24-.11.35.31.09.62.18.93.26.03-.1.06-.2.09-.3Z"/>
  <path class="cls-1" d="M91.33,38.17c-.05.42-.1.84-.15,1.26.4-.41,1.11-.83.15-1.26Z"/>
  <path class="cls-1" d="M90.25,38.89c.41-.29.73-.52,1.04-.73-.78-.21-.78-.2-1.04.73Z"/>
  <path class="cls-1" d="M91.29,38.16s.01,0,.02,0c0,0,0,0,0-.02v.02s0,0,0,0c0-.01,0-.03,0-.04-.01,0-.03.02-.04.03Z"/>
  <path class="cls-1" d="M80,18.68c.21-.15.43-.29.62-.46.02-.02-.08-.19-.13-.29-.25.14-.5.29-.76.43.09.11.18.21.27.32Z"/>
  <path class="cls-1" d="M78.41,342.83v.98c.05,0,.11,0,.16,0v-.97c-.05,0-.11,0-.16,0Z"/>
  <path class="cls-1" d="M77.02,334.02c-.12.17-.29.3-.28.42,0,.12.19.23.3.34.12-.14.28-.26.33-.42.02-.06-.2-.21-.35-.35Z"/>
  <path class="cls-1" d="M65.08,374c-.21-.49-.33-.79-.45-1.09-.19.36-.56.75.45,1.09Z"/>
  <path class="cls-1" d="M64.62,372.92s.01-.03.02-.04c0,0-.03.02-.03.02,0,0,0,.01,0,.02Z"/>
  <path class="cls-1" d="M84.55,41.06c.1.02.2.04.31.07.05-.23.12-.46.15-.69,0-.03-.2-.09-.3-.13-.05.25-.1.5-.15.75Z"/>
</svg>