<?xml version="1.0" encoding="UTF-8"?>
<svg id="Layer_1" data-name="Layer 1" xmlns="http://www.w3.org/2000/svg" viewBox="0 0 76 396">
  <defs>
    <style>
      .cls-1 {
        fill: #3cb54a;
        stroke-width: 0px;
      }
    </style>
  </defs>
  <path class="cls-1" d="M75.86,342.65c-.22-3.82-.46-7.64-.76-11.45-.29-3.64-.72-7.27-1-10.91-.7-8.98-1.28-17.98-2.04-26.95-.54-6.5-1.28-12.99-1.93-19.48-.56-5.61-1.02-11.22-.76-16.86.07-1.63.17-3.26.17-4.88-.01-2.74-.1-5.48-.15-8.21-.03-1.8.1-3.62-.1-5.4-.33-2.98-.4-5.94-.07-8.92.04-.37-.04-.79-.17-1.15-.33-.92-.54-1.82-.11-2.78.13-.28.06-.67.05-1-.04-1.79-.07-3.58-.12-5.37-.1-3.42-.19-6.85-.31-10.27-.09-2.81-.29-5.61-.3-8.42-.02-5.23.03-10.46.09-15.69.02-1.79.36-3.59.16-5.35-.19-1.71-.11-3.35.15-5.02.09-.6.03-1.23.08-1.84.1-1.4.21-2.79.33-4.18.09-1,.26-2,.31-3.01.07-1.5-.1-3.04.13-4.51.74-4.78,1.1-9.56.97-14.4-.09-3.36.13-6.73.21-10.1,0-.06.02-.11.02-.17,0-2.58.24-5.16-.28-7.72-.27-1.31-.42-2.64.1-3.95.12-.3.1-.67.09-1-.02-.95-.06-1.89-.1-2.84-.17-3.81-.37-7.62-.52-11.43-.06-1.45-.03-2.9-.06-4.36-.06-3.35.41-6.72-.48-10.03-.05-.2.02-.44.03-.66.17-2.8.38-5.6.48-8.41.08-2.02-.09-4.06.04-6.07.11-1.78.49-3.55.71-5.33.42-3.52.84-7.04,1.18-10.56.22-2.29.23-4.6.48-6.89.27-2.45.26-4.93.95-7.33.19-.68.11-1.44.16-2.16.05-.78-.01-1.6.2-2.34.73-2.58,1.33-5.15,1.65-7.85.37-3.12.51-6.14-.13-9.19-.37-1.75-.67-3.55-1.31-5.2-.94-2.4-2.23-4.67-3.26-7.04-1.32-3.04-2.77-6.02-3.62-9.26-.57-2.15-1.82-3.98-3.43-5.54-.8-.77-4.36-1.46-5.36-1.06-.05.02-.1.05-.14.09-.64.65-1.42.52-2.22.47-1.41-.08-2.84-.21-3.83,1.18-.17.24-.56.43-.87.46-1.15.12-1.92.86-2.74,1.53-.34.28-.7.56-1.09.74-1.46.66-2.64,1.85-4.29,2.14-.23.04-.38.41-.62.54-1.67.94-3.03,2.48-5.04,2.73-1.36,2.48-3.13,4.29-6.14,4.57-1.41.13-2.5,1.07-3.18,2.29-.57,1.01-1.28,1.5-2.45,1.37-.32-.04-.78-.04-.96.15-1.22,1.27-2.52,2.39-4.31,2.77-.44,1.37-2.28,1.02-2.85,2.29-.05.1-.78.1-.89-.06-.75-1.11-1.41-.84-2.14,0-.16.19-.54.17-.73.35-.29.27-.66.6-.73.96-.29,1.48-.49,2.98-.7,4.48-.27,2.04-.98,4.03-.48,6.15.13.54-.22,1.19-.34,1.79-.12.6-.35,1.22-.29,1.81.33,3.17-.17,6.29-.5,9.41-.47,4.37-.94,8.74-.93,13.14,0,1.15.04,2.27,1.1,3.03-.23.67-.46,1.08-.5,1.52-.1,1.1-.08,2.22-.18,3.33-.3,3.24-.43,6.51-1.6,9.62-.25.66-.14,1.45-.21,2.42-.14.16-.47.53-.83.93.35.54.91,1.08-.15,1.43-.25.08-.53.41-.58.66-.29,1.7-.53,3.4-.77,5.11-.08.55-.12,1.11-.15,1.67-.25,4.49-.5,8.99-.72,13.48-.09,1.89-.07,3.79-.12,5.68-.08,3.15-.21,6.3-.24,9.45-.05,4.28-.02,8.56-.04,12.84-.02,4.45.03,8.9-.12,13.34-.15,4.16-.52,8.31-.8,12.46-.5,7.59-1.03,15.17-1.5,22.76-.33,5.39-.73,10.79-.83,16.19-.16,9.46-.18,18.92-.14,28.38.04,11.21.21,22.43.29,33.64.02,2.53-.15,5.07-.16,7.6-.02,3.78,0,7.55.04,11.33.04,4.39.17,8.78.16,13.18-.01,4.22-.18,8.44-.22,12.66-.01,1.51.2,3.02.21,4.54,0,.76-.37,1.54-.29,2.28.3,2.73.74,5.43,1.08,8.16.21,1.68.28,3.37.52,5.04.34,2.33.82,4.64,1.17,6.97.22,1.45.33,2.91.48,4.37.39,3.98.77,7.96,1.14,11.94.27,2.91.49,5.83.81,8.74.18,1.62.31,3.29.81,4.82.38,1.16.3,2.07-.29,3.03-.8,1.3-1.16,2.67-.93,4.2.07.48-.04.99-.07,1.44-.85.33-1.6.62-2.35.91.64,2.38,1.07,4.78,3.6,5.91-.21.13-.38.24-.66.41,1.82.54,2.72,1.87,3.49,3.43,1.68,3.42,3.47,6.79,5.23,10.17.13.24.32.48.54.64.94.65,1.55,1.55,2.16,2.48.46.7.99,1.37,1.58,1.95.7.7,1.32.46,1.52-.53.12-.55.11-1.14.3-1.66.3-.82.45-1.6-.01-2.41-.31-.54-.29-1.05.14-1.55.81-.94.62-1.97.19-3.01-.12-.29-.2-.6-.35-1.05,1.99-.2,3.6.4,5.38,1.3-2.42.97-2.62,1.4-2.06,3.64.4-.5.89-1.08,1.33-1.7.75-1.05,2-1.91,1.52-3.49-.41-1.36-.03-2.65.15-3.79.98-1.15,2.05.9,2.94-.31-.18-.71-.34-1.39-.52-2.09.45-.06.73-.1,1.1-.15-.5-1.82-.97-3.5-1.45-5.24.76-1.2,1.94-.99,3.12-.53.56-.87,1.06-1.66,1.58-2.47.23.3.4.51.56.71,1.39-.64,2.69-1.07,4.1-.67.72.2,1.43.4,2.09-.41.45-.55,1.25-.5,1.78.12.36.43.71.89.93,1.39,1.09,2.51,1.66,5.25,3.49,7.4.1.12.08.33.14.48.8,1.92,1.56,3.86,2.42,5.76.31.69.84,1.28,1.4,2.12v-4.04c.09,0,.46-.09.49-.02.56,1.3,1.09,2.62,1.69,4.13.83.07,1.81.15,2.78.23.15-.39.26-.59.3-.8.6-3.29,2.44-5.73,5.11-7.63.73-.52,1.46-1.07,2.11-1.68,2.45-2.33,4.6-4.91,6.67-7.58,1.65-2.12,2.77-4.48,3.65-6.98.24-.68.34-1.41.45-2.13.15-1,.15-2.03.38-3.01.76-3.27.78-6.59.84-9.91.03-1.79-.03-3.58-.13-5.37ZM6.6,211.71c-.75-.33-.93-.85-.57-1.47.09-.15.74-.21.82-.09.41.57.25,1.11-.25,1.56ZM10.01,214.31v-1.77c.53.51.48.98,0,1.77ZM11.6,335.51c-.29-1.88-.43-3.76.56-5.79.7.93.92,1.72.53,2.69-.18.45-.37.96-.32,1.42.12,1.05.02,2.3,1.59,2.63-1.69.64-2.16.44-2.37-.95ZM16.81,355.47c-.22-.26-.45-.53-.67-.79.21-.15.44-.45.61-.41.23.05.42.34.71.61-.29.27-.47.43-.65.6ZM25.31,342.41c-.02.74-.33,1.52-.68,2.19-.32.63-.89,1.05-.67,1.95.09.34-.49.95-.89,1.29-.4.34-.92.17-1.1-.33-.33-.94-.83-1.95-.19-2.9.68-1,.59-2.01.32-3.06-.1-.38-.26-.75-.29-1.14-.09-.89-.37-1.87-.12-2.67.6-1.91.69-3.84.73-5.8.02-1.11.74-1.6,2.47-1.88.15,1.27.37,2.43.4,3.59.07,2.92.09,5.85.03,8.77ZM28.83,375.57c-.09,0-.18,0-.26,0-.02-.22-.04-.43-.05-.65.14,0,.28-.02.42-.02-.03.22-.07.45-.1.67ZM50.4,376.77c.43.09.85.19,1.28.28-.08.17-.17.33-.25.5h0c-.37-.16-.73-.32-1.1-.48.02-.1.05-.2.07-.3ZM50.1,380.15c-.26-.58-.46-1.19-.7-1.81.46-.83,1.31-.64,2.03-.76.03.48.05.95.07,1.43.05.03.09.06.14.08.53.19,1.37-.08,1.43.8.02.22-.43.59-.73.69-.84.29-2.03.04-2.24-.43ZM50.32,382.44c.96-.55,1.73-1.65,2.95-.55-.38,1.45-.75,1.52-2.95.55ZM53.62,373.65c-.39-.07-.77-.14-1.16-.21,0-.08.02-.17.03-.25h1.19c-.02.16-.04.31-.06.47ZM55.4,385.59c-.1-.01-.2-.03-.3-.04.02-.27.03-.54.05-.81.13.04.39.09.38.12-.01.24-.08.48-.13.72ZM52.44,346.2c.35-.17.6-.3.86-.41.2-.08.41-.14.6-.2.76.85,1.47,1.66,2.28,2.57-1.53.11-2.51-.61-3.74-1.96ZM56.49,381.9c-.25-.11-.5-.23-.76-.34.03-.08.06-.16.08-.24.27.06.54.12.8.19-.04.13-.09.27-.13.4ZM58.6,377c-.1.1-.39,0-.74-.02.14-.29.19-.51.32-.64.25-.24.55-.44.85-.62.03-.02.32.28.29.31-.21.34-.44.7-.73.97Z"/>
  <path class="cls-1" d="M36.12,373.75c-.03.35-.22.84-.07,1.01.55.61,1.28.89,2.23.89-.52-.64-.88-1.18-1.33-1.62-.19-.19-.55-.19-.84-.28Z"/>
  <path class="cls-1" d="M.09,298.88c.13,1.77.27,3.53.4,5.3.11,0,.22.01.32.02-.2-1.78-.4-3.55-.59-5.33-.04,0-.09,0-.13.01Z"/>
  <path class="cls-1" d="M33.69,376.83c-.14,0-.39.23-.42.38-.15.79.43.7,1.05.74.15-.7.04-1.12-.63-1.12Z"/>
  <path class="cls-1" d="M53.96,389.18c-.03.21.4.48.58.69.18-.48.31-.85.48-1.31-.65-.27-1,.11-1.06.63Z"/>
  <path class="cls-1" d="M42.75,376.88c.05.13.16.23.25.34.05-.08.1-.17.26-.42-.09-.04-.23-.12-.37-.15-.03,0-.16.18-.14.24Z"/>
  <path class="cls-1" d="M.17,245.99C.08,246.53.04,246.78,0,247.04c.09.01.19.03.28.04-.03-.26-.06-.53-.12-1.09Z"/>
  <path class="cls-1" d="M37.35,371.66c-.09,0-.18.06-.27.09.05.11.1.21.14.32.07-.06.15-.12.22-.18-.03-.08-.06-.22-.1-.23Z"/>
  <path class="cls-1" d="M27.9,391.67c-.09,0-.18.09-.28.14.05.06.1.18.15.17.09,0,.19-.07.28-.11-.05-.07-.11-.2-.16-.2Z"/>
</svg>