<?xml version="1.0" encoding="UTF-8"?>
<svg id="Layer_1" data-name="Layer 1" xmlns="http://www.w3.org/2000/svg" viewBox="0 0 360.1 500">
  <defs>
    <style>
      .cls-1 {
        fill: #3cb54a;
        stroke-width: 0px;
      }
    </style>
  </defs>
  <path class="cls-1" d="M201.73,254.51c-.21,1.79-1.13,2.68-3.02,2.94-1.17.16-2.36,1.03-3.3,1.85-2.57,2.26-2.52,2.32-4.78,1.74-1.91,1.4-3.46,2.55-5.17,3.8,3.35,2.93,6.62,5.76,9.85,8.63,4.6,4.1,9.12,8.29,13.78,12.32,5.86,5.07,11.71,10.17,17.8,14.95,5.44,4.27,11.24,8.08,16.78,12.22,2.37,1.77,4.39,3.99,6.75,5.77,2.02,1.53,4.41,2.57,6.45,4.08,7.47,5.58,14.89,11.22,22.25,16.92,4.05,3.14,7.9,6.53,11.95,9.67,6.7,5.2,13.55,10.22,20.22,15.46,6.69,5.25,13.21,10.71,19.85,16.01,7.68,6.14,14.35,13.25,20.52,20.87,1.13,1.39,2.12,2.91,3.08,4.44,1.62,2.59,3.16,5.21,4.71,7.84.26.45.62,1.02.55,1.46-.95,5.69,1.77,11.76-1.78,17.18-.15.23-.17.59-.14.87.17,2.21-.86,3.32-3.05,3.59-3.03.38-4.41-.1-5.21-2.61-.8-2.51-3.07-3.26-4.81-4.64-.35-.27-1.06-.38-1.47-.23-4.87,1.82-8.04-.96-11.18-3.99-1-.96-2.09-1.96-3.32-2.51-2.75-1.23-3.07-1.47-3.39-4.51-2.09.55-4.25.92-6.17,1.8-.44.2-.15,2.22.02,3.38.05.34.81.58,1.4.96-1.54.2-2.61.52-3.64.43-1.34-.11-2.67-.5-3.98-.86-.49-.13-.91-.52-1.38-.75-2.04-1-2.6-.72-2.87,1.26-1.15-1.17-2.21-2.66-3.65-3.58-1.26-.8-2.93-.96-4.41-1.4-.07-.02-.15-.03-.21-.07-1.02-.62-2.18-1.89-3-1.69-.93.22-1.54,1.76-2.79,2.57.17-.59.47-1.17.48-1.76.01-.7-.23-1.4-.36-2.1-2.1.75-3.4-1.55-5.22-1.42-1.12.08-2.51.62-3.22,1.44-1.34,1.52-2.18,1.64-3.6.12-.58-.62-1.98-.82-2.92-.67-1.83.29-3.61.96-5.67,1.54-.39-2.41-1.25-3.83-3.69-3.6-.49.05-1.08-1.05-1.8-1.8-.2.63-.34,1.09-.49,1.55-.16.5-.32.99-.48,1.48-.48-.38-1.04-.7-1.42-1.17-.77-.95-1.3-2.14-2.19-2.94-1.7-1.52-3.28-2.01-5.69-.46-1.49.96-3.8,1.06-5.44,2.27-.5.37-.81.99-1.26,1.57-1.42,0-3.03.13-4.58-.08-.49-.07-1.22-1.07-1.2-1.61.07-1.51-.7-1.68-1.89-1.91-1.29-.25-2.49-.98-3.78-1.27-.72-.16-1.55.15-2.36.56-2.26-1.12-2.23-1.77.04-3.81-3.12-1.74-6.3-3.52-9.62-5.38-.62.99-1.53,2.44-2.45,3.9-.22-.09-.43-.18-.65-.27.14-.81.33-1.62.42-2.45.2-1.82-.54-2.88-2.47-2.99-1.12-.06-2.24-.3-3.36-.35-1.73-.08-3.41-.05-2.08-2.64.14-.27-1.1-1.79-1.59-1.73-1.81.19-3.57.79-5.35,1.25-.75.19-1.49.4-2.24.59-.07-.86-.23-1.72-.17-2.57.04-.48.43-.94.68-1.41.8-1.49.27-2.49-1.23-2.97-1.33-.43-3.02-.42-2.26-2.64.07-.2-.35-.8-.6-.83-2.81-.39-5.32-2.28-8.35-1.62-.71.15-1.55.1-2.24-.13-.73-.24-1.62-.68-1.93-1.29-.18-.36.66-1.22,1.11-1.97-1.35-2.26-3.78-1.22-5.8-1.47-1.09-.14-2.12-.04-1.95-1.62.33-.11.55-.16.75-.25.88-.37,1.78-.71,2.62-1.18.1-.06-.05-1.06-.27-1.14-1.07-.38-2.26-.96-3.3-.79-1.34.22-2.56,1.08-3.98,1.73-.14-.66-.22-1.16-.35-1.66-.43-1.71-1.8-2.33-3.37-1.56-.81.4-1.65.98-2.49.98-.62,0-1.25-.79-1.87-1.22.48-.41.98-.8,1.42-1.25.71-.72,1.82-1.41,1.96-2.24.24-1.54-1.13-.71-1.88-.9-.83-.21-1.57-.82-2.36-1.26-.47.54-.96,1.59-1.52,1.63-.7.05-1.44-1.06-2.19-1.1-3.99-.22-4.34-4.61-7.19-6.15-.89-.48-1.28-1.87-2.84-3.57.65-.26,1.39-.39,1.94-.79.98-.71,1.72-1.69.61-2.82-.42-.43-1.44-.88-1.81-.67-1.08.62-1.48,1.66-.62,2.86.06.09-.02.29-.07.68-.82-.11-1.63-.22-2.53-.34.11-.54.2-.95.29-1.43-.22-.08-.42-.14-.6-.24-1.18-.65-2.67-1.05-3.47-2.02-1.31-1.6-.24-2.72,2.84-2.75-.15-.79-.05-1.83-.49-2.19-.52-.42-1.52-.36-2.3-.3-.99.07-2.21.8-2.89.43-1.87-1.03-4.13-2.14-5.07-3.86-1.27-2.33-2.76-3.4-5.34-3.39-.08-.76-.16-1.4-.23-2.05-4.85-3.98-11.59-5.31-15.46-10.71-2.32,0-4.85-.04-7.37.01-2.98.06-4.8,2.1-4.75,5.06.15,7.83.25,15.66.34,23.49.08,6.63.21,13.25.12,19.88-.08,5.75-.49,11.5-.63,17.25-.15,6.16,0,12.32-.25,18.47-.32,8.21-.82,16.41-1.38,24.61-.35,5.03-.59,10.12-1.57,15.04-1.09,5.5-2.96,10.85-4.5,16.26-.39,1.36-.63,2.82-1.29,4.04-.82,1.52-1.97,2.87-3.02,4.26-.99,1.31-2.33,2.44-3,3.89-2.94,6.37-7.76,10.79-13.87,13.97-.2.1-.44.17-.59.33-6.51,6.54-14.56,4.89-22.43,4.23-2.39-.2-4.83-.16-7.17-.63-3.48-.71-6.9-1.74-10.33-2.71-1.88-.53-3.71-1.39-5.49-1.99-2.68-.9-4.12-2.91-6.1-4.42-1.35-1.02-2.56-2.22-3.82-3.36-2.67-2.44-5-5.08-6.01-8.71-.37-1.33-1.3-2.5-1.9-3.78-.34-.73-.59-1.51-.79-2.29-.28-1.13-.3-2.35-.72-3.42-1.11-2.84-1.96-5.9-3.65-8.36-3.9-5.66-2.25-11.87-2.32-17.88-.06-4.88.54-9.77.78-14.66.08-1.64,0-3.26,2.76-3.47-3.87-3.49-1.84-7.49-1.87-11.19-.04-5.54.3-11.08.41-16.61.16-7.78.19-15.57.42-23.35.11-3.9.63-7.79.78-11.7.15-3.75.04-7.5.08-11.26.04-4.43.14-8.86.16-13.3.02-4.02-.05-8.04-.07-12.07-.03-4.65.23-9.32-.18-13.93-.45-5.13-1.51-10.21-2.32-15.31-.52-3.27-1.03-6.54-1.59-9.8-.64-3.69-1.54-7.34-1.97-11.06-.51-4.46-.45-8.98-1-13.43-.46-3.69-1.55-7.29-2.15-10.97-.46-2.84-.54-5.73-.85-8.59-.6-5.66-1.3-11.31-1.82-16.98-.15-1.59.14-3.22.25-4.82,0-.13.23-.32.19-.37-1.98-2.94-.92-6.33-1.29-9.49-.59-5.03-.56-10.14-.8-15.21-.22-4.56-.5-9.13-.67-13.69-.12-3.22-.09-6.45-.12-9.67-.04-3.3-.02-6.61-.11-9.91-.14-4.87-.45-9.74-.51-14.62-.09-6.43-.07-12.87.01-19.3.09-7.27.26-14.54.51-21.8.05-1.45.65-2.88.97-4.33.1-.43.19-.87.19-1.31-.08-6.07-.32-12.15-.24-18.22.06-4.35.85-8.7.72-13.03-.16-5.23,1.35-10.14,1.92-15.21.34-3.04-.16-6.24-.68-9.3-.78-4.58-.39-8.95,1.53-13.14.31-.69,1.28-1.36,2.05-1.5,2.63-.5,3.52-2.26,3.93-4.6.5-2.81.99-5.63,1.69-8.4,1.41-5.59,4.81-9.76,9.62-12.84.13-.08.26-.19.4-.21,4.78-.61,8.89-4.19,14.21-2.8,2.79.73,5.89.19,8.81.55,2.03.25,3.99,1.02,5.97,1.61,5.28,1.58,9.48,5.48,15.63,5.55,8.09.09,16.18,1.49,24.22,2.7,4.96.74,9.81,2.22,14.73,3.27,2.34.5,4.74.74,7.1,1.2,2.7.53,5.39,1.16,8.07,1.78,5.61,1.3,11.23,2.57,16.82,3.96,2.92.73,5.8,1.65,8.68,2.52,5.59,1.69,11.26,3.19,16.74,5.19,6.18,2.26,12.21,4.93,18.26,7.51,3.86,1.65,7.56,3.69,11.48,5.13,2.35.86,5.01.89,7.53,1.29,1.99.31,4.02.48,5.96.95,1.73.43,3.47,1.01,5.04,1.84,4.77,2.53,9.55,5.06,14.16,7.87,4.34,2.64,8.47,5.61,12.67,8.47,1.24.84,2.47,1.72,3.62,2.69.97.82,1.82,1.8,2.71,2.71.26.26.42.7.72.83,4.18,1.73,6.12,5.51,7.99,9.16,3.51,6.84,5.8,14.17,7.23,21.7,1.36,7.15,2.64,14.36,3.22,21.6.59,7.34.38,14.75.32,22.13-.07,7.66.03,15.36-.72,22.97-.82,8.4-2.6,16.7-3.82,25.06-1.23,8.38-4.41,16.08-8.25,23.49-1.49,2.87-3.82,5.37-6.03,7.8-1.66,1.84-3.84,3.2-5.57,4.99-1.48,1.53-2.4,3.64-3.98,5.02-2.97,2.61-6.25,4.87-9.38,7.31-3.44,2.67-6.85,5.38-10.27,8.07-.06.05-.11.1-.18.14-3.97,2.37-7.91,4.78-11.94,7.05-.66.37-1.71.05-2.73.05ZM154.62,133.27c1.58-3.01-3.01-3.36-4.44-5.58-2.71,1.15-4.95-.11-7.22-1.35-.28-.15-.74,0-1.11.02-1.33.04-2.97.6-3.94.02-2.81-1.67-5.49-2.4-8.69-1.23-1.1.4-2.48,0-3.71.14-2.75.32-5.49.75-8.22,1.16-2.8.42-5.6.87-8.4,1.31-.76.12-1.68.04-2.25.45-2.62,1.86-5.29,3.7-7.64,5.86-1.48,1.36-3.01,3.14-3.5,5-.59,2.25-.17,4.79-.07,7.2.38,9.24.88,18.48,1.2,27.72.14,4.11-.2,8.24-.08,12.35.19,6.22.65,12.44.9,18.66.1,2.33.54,2.82,2.88,2.1,6.68-2.05,12.96-4.99,18.95-8.61,3.08-1.86,6.37-3.36,9.52-5.11,6.91-3.85,13.27-8.53,19.44-13.45,2.01-1.61,3.91-3.35,4.33-6.09.26-1.71.49-3.42.67-5.13.44-4.26,1.03-8.52,1.2-12.79.13-3.11-.49-6.25-.46-9.38.03-4.01.37-8.01.65-13.27ZM257.6,363.96c.68.51,1.88.93,2.06,1.62.5,1.93,1.73,1.52,2.98,1.33,1.17-.18,2.41-.26,3.48-.71.88-.36,1.56-1.19,2.32-1.82-.71-.54-1.39-1.12-2.14-1.6-.29-.19-.73-.16-1.1-.2-1.88-.22-3.75-.38-4.88-2.31-.2-.35-1.14-.56-1.56-.4-.4.16-.7.87-.82,1.39-.2.87-.23,1.79-.34,2.69ZM231.74,396.4c-.07.17-.14.34-.22.51,1.07.26,2.12.64,3.2.72.41.03.88-.65,1.32-1-.53-.27-1.06-.78-1.58-.77-.91.02-1.81.35-2.72.55ZM264.29,401.3c-.02-.26-.04-.51-.06-.77-.69-.05-1.9-.31-1.97-.13-.31.82-.29,1.76-.39,2.66.25.06.49.13.74.19.56-.65,1.12-1.3,1.68-1.95ZM60.38,370.49c-1.99,1.03-2.01,2.45,0,3.99v-3.99ZM316.26,418.62l.13-1.27c-.73-.09-1.48-.28-2.2-.21-.19.02-.29.85-.44,1.31.83.05,1.67.11,2.5.16ZM18.55,30.18c.15-.35.29-.7.44-1.04-.97-.38-1.93-.76-2.9-1.14-.13.32-.26.65-.4.97.95.41,1.91.81,2.86,1.22ZM249.88,331.68l-1.15.27c.13.75.27,1.51.4,2.26.43-.13,1.24-.3,1.23-.39-.08-.72-.3-1.43-.48-2.14Z"/>
  <path class="cls-1" d="M325.98,441.84c-.27-.52-.55-1.03-.83-1.55-.51.68-1.02,1.34-1.64,2.17-.33-1.17-.58-2.02-.66-2.31-1.42.19-2.39.27-3.35.45-2.2.42-4.39.88-6.58,1.33,0,.22-.02.43-.03.65-.47-.63-.95-1.26-1.42-1.89,2.12-.59,4.2-1.08,6.22-1.77.57-.2.95-.97,1.41-1.49-.65-.02-1.3-.11-1.94-.03-.73.09-1.44.33-2.44.57-.26-1.11-.48-2.08-.78-3.33h13.75c-.33,2.51-.65,4.85-.96,7.2-.25,0-.5,0-.75.01Z"/>
  <path class="cls-1" d="M323.77,429.64c-1.77.67-3.21,2.62-5.56.99-.51-.35-1.61.16-2.42.28.71-2.56,1.31-2.76,3.49-1.38.49.31,1.35.14,2.02.04.79-.13,1.54-.43,2.31-.65.05.24.11.48.16.73Z"/>
</svg>