<?xml version="1.0" encoding="UTF-8"?>
<svg id="Layer_1" data-name="Layer 1" xmlns="http://www.w3.org/2000/svg" viewBox="0 0 326.11 396">
  <defs>
    <style>
      .cls-1 {
        fill: #3cb54a;
        stroke-width: 0px;
      }
    </style>
  </defs>
  <path class="cls-1" d="M325.07,338.75c-.99-1.47-2.23-2.77-3.41-4.11-.64-.73-1.37-1.37-2.04-2.07-.27-.28-.61-.57-.7-.91-.29-1.05-1.06-1.71-1.78-2.43-1.47-1.47-2.91-2.97-4.41-4.41-2.2-2.12-4.44-4.19-6.64-6.29-.84-.8-1.62-1.67-2.47-2.46-1.84-1.71-3.69-3.39-5.56-5.07-2.16-1.93-3.94-4.22-6.24-6.03-2.16-1.7-4.04-3.76-6.05-5.66-1.87-1.76-3.71-3.55-5.61-5.27-3.34-3.02-6.72-6-10.08-8.99-2.28-2.02-4.56-4.05-6.85-6.06-1.64-1.44-3.3-2.85-4.93-4.29-2.83-2.5-5.63-5.03-8.48-7.51-4.71-4.1-9.45-8.17-14.18-12.24-2.24-1.93-4.44-3.89-6.74-5.75-2.29-1.85-4.65-3.63-7.02-5.38-4.01-2.96-8.01-5.94-12.11-8.77-4.46-3.08-9.03-6.01-13.57-8.97-3.57-2.33-7.19-4.58-10.76-6.9-3.7-2.39-7.37-4.83-11.06-7.23-4.1-2.67-8.21-5.32-12.31-7.99-2.03-1.32-4.04-2.65-6.07-3.97-2.55-1.67-5.13-3.3-7.64-5.03-2.23-1.53-4.38-3.19-6.6-4.76-.46-.32-1.13-.83-1.5-.69-1.12.41-1.75-.33-2.49-.78-1.28-.78-2.54-1.6-3.77-2.46-1.31-.91-2.58-1.88-3.85-2.85-.43-.33-.9-.83-.41-1.34.74-.76,1.63-1.51,2.78-1.36,1.97.26,3.84-.38,5.74-.59,3.8-.42,7.46-1.57,11.15-2.55.24-.06.43-.3.64-.46-.19-.27-.32-.46-.63-.91.87-.06,1.6-.33,2.08-.09,1.22.6,2.12.11,3.1-.48,1.57-.94,3.13-1.97,5.11-1.77.09,0,.19-.03.29-.04,2.93-.31,5.82-1,8.8-.81.52.03,1.09-.02,1.56-.22.68-.28,1.3-.22,1.98-.12.8.11,1.63.13,2.44.1.62-.02,1.24-.21,1.86-.24,2.98-.17,5.98-.08,8.88-1.16.91-.34,1.77-.69,2.63-1.13,1.67-.87,3.35-1.8,5.13-2.31,1.15-.33,2.18-.69,3.1-1.43.68-.54,1.39-1.05,2.09-1.55.87-.62,1.75-1.15,2.88-1.27,2.68-.29,5.16-1.06,7.17-3.04.92-.9,2.01-1.7,3.16-2.27.81-.4,1.47-.9,2.08-1.51.99-.98,1.97-1.95,3.04-2.87,1.31-1.12,2.66-2.18,3.98-3.29,2.84-2.39,5.58-4.92,8.19-7.56,1.96-1.98,3.88-4.06,5.11-6.64.1-.22.26-.41.41-.6,2.06-2.48,3.59-5.29,4.83-8.23,1.47-3.48,2.78-7.02,4.05-10.58.7-1.95,1.52-3.87,1.62-6.01.04-.74.4-1.49.7-2.2.66-1.55,1.46-3.05,2.05-4.63,1.31-3.48,2.47-7,3-10.7.06-.42.2-.86.39-1.24.68-1.32,1.09-2.69,1.01-4.19-.04-.75.2-1.39.6-2.04.4-.64.66-1.4.81-2.14.19-.99.22-2.02.31-3.03.1-1.01.29-2.02.28-3.03-.02-2.46-.15-4.92-.21-7.39-.06-2.72-.28-5.41-1.24-7.99-.12-.31-.2-.65-.23-.99-.23-3.59-2.16-6.58-3.47-9.78-.43-1.06-1.19-2-1.61-3.07-.83-2.09-2.17-3.87-3.39-5.71-.99-1.49-2.06-2.93-3.18-4.32-1.63-2.03-3.16-4.19-5.07-5.95-2.55-2.36-5.3-4.54-8.17-6.5-6.09-4.16-12.52-7.75-19.2-10.88-4.61-2.16-9.4-3.92-14.35-5.1-7.96-1.9-15.97-3.57-24.1-4.61-.86-.11-1.74-.14-2.6-.26-1.67-.23-3.34-.57-5.02-.72-2.99-.27-5.98-.44-8.97-.65-.1,0-.19-.02-.29-.03-1.92-.17-3.84-.36-5.77-.49-2.36-.16-4.73-.23-7.09-.4-4.82-.35-9.65-.74-14.47-1.11-.29-.02-.58-.06-.87-.08-3.23-.25-6.46-.51-9.69-.76-2.99-.23-5.98-.44-8.97-.65-2.51-.18-5.02-.46-7.53-.48-3.57-.02-7.14.12-10.71.25-4.16.15-8.31.44-12.47.53-3.15.07-6.29.18-9.41.68-2.58.41-5.16.82-7.72,1.32-2.14.42-4.23,1.07-6.37,1.46-5.62,1.03-11.24,2.05-16.89,2.91-3.2.49-6.44.71-9.67.98-4.01.33-8.04.48-12-.41-1.99-.45-3.26.54-4.14,1.95-.97,1.54-1.78,3.23-1.98,5.11-.04.34-.08.68-.18,1-.72,2.35-1.58,4.67-1.67,7.16-.03.67,0,1.33-.02,2-.01.43-.03.87-.11,1.29-.31,1.61-.7,3.21-.95,4.83-.26,1.67-.37,3.37-.6,5.04-.13.91-.47,1.79-.54,2.7-.29,3.92-.9,7.78-1.63,11.64-.25,1.33-.3,2.69-.44,4.03-.06.58-.04,1.17-.19,1.73C.24,59.06.02,61.98,0,64.95c-.01,1.52.65,2.43,1.99,2.81,2.61.73,5.21,1.63,7.88,1.96,3.78.46,7.62.51,11.44.67,1.89.08,3.78,0,5.67,0,.84,0,1.57.18,1.84,1.08.4,1.35.9,2.68,1.09,4.06.68,4.94,1.27,9.89,1.85,14.84.17,1.44.25,2.89.29,4.34.06,2.6.13,5.21.06,7.81-.08,3.34-.28,6.67-.43,10-.07,1.64-.11,3.28-.22,4.92-.08,1.16-.28,2.3-.39,3.46-.05.52-.06,1.06,0,1.59.09.81-.03,1.56-.51,2.21-.53.73-1.21,1.37-1.69,2.13-.8,1.25-1.98,2.26-2.41,3.75-.16.55-.44,1.07-.68,1.6-.37.83-.79,1.64-1.1,2.49-.28.77-.42,1.59-.63,2.39-.97,3.62-2.02,7.22-2.39,10.97-.17,1.73-.7,3.42-.85,5.15-.13,1.52-.55,2.93-1.01,4.36-.28.87-.43,1.79-.64,2.68-.25,1.08-.32,2.24-.77,3.24-.76,1.69-1.31,3.43-1.71,5.23-.57,2.59-1.19,5.17-1.79,7.75-.02.09-.04.19-.04.29.08,1.65-.59,3.13-1.11,4.62-.41,1.17-.62,2.31-.66,3.54-.04,1.1-.13,2.24-.46,3.29-.64,2.02-.29,3.41,1.38,4.71.61.47,1.25.94,1.73,1.52,1.1,1.34,2.06,2.8,3.19,4.12,1.47,1.73,3,3.42,4.61,5.03.7.7.92,1.4.88,2.32-.12,2.66-.2,5.32-.29,7.98-.03.82.04,1.66-.1,2.47-.6,3.48-1.23,6.96-1.92,10.43-.54,2.71-1.31,5.37-1.78,8.08-.94,5.44-1.68,10.91-2.63,16.34-1.05,5.94-1.13,11.94-1.41,17.94-.12,2.47-.2,4.93-.34,7.4-.07,1.11-.15,2.23-.4,3.31-.97,4.2-2.03,8.38-3.02,12.57-.91,3.87-1.87,7.72-2.65,11.62-1.03,5.13-1.63,10.33-1.78,15.57-.06,1.93-.08,3.9-.45,5.79-1.04,5.37-2.25,10.71-3.39,16.05-.22,1.04-.54,2.07-.69,3.12-.15,1.04.43,1.46,1.4,1.1.34-.12.61-.43.9-.67.33-.27.6-.67.98-.81,1.36-.5,2.74-.94,4.13-1.37,1.82-.56,3.42-1.41,4.35-3.16.95-1.79,1.81-3.62,2.73-5.42.74-1.46,1.49-2.91,2.25-4.36.09-.17.23-.31.37-.45,1.33-1.36,2.4-2.89,3.14-4.65.39-.92,1.04-.95,1.68-.13.08.11.2.19.29.28,1.68-.67,2.94-2.54,2.77-3.91.5-.56,1.07-.98,1.34-1.54.66-1.39,1.17-2.84,1.76-4.26.11-.26.27-.53.48-.72.81-.75,1.29-1.67,1.56-2.73.19-.79.43-1.58.72-2.34.17-.43.47-.82.73-1.22.46-.73,1.09-1.4,1.35-2.19.67-2.02,1.68-3.85,2.75-5.67.15-.25.23-.53.35-.79.61-1.36,1.14-2.79,2.89-3.11.35-.06.69-.36.97-.62.61-.54,1.3-.8,2.11-.85,1.33-.08,2.33-.69,2.69-2.04.25-.94.95-1.36,1.72-1.83.98-.59,1.9-1.31,2.74-2.08.6-.55,1.07-1.25,1.52-1.93.25-.39.44-.86.5-1.32.21-1.44.4-2.83,1.42-4.02.39-.46.43-1.25.56-1.9.08-.42-.02-.88.06-1.3.55-2.7,1.11-5.4,1.7-8.09.25-1.18.55-2.35.84-3.52.3-1.27.61-2.53.92-3.8.09-.38.22-.74.31-1.12.65-2.73,1.37-5.43,2.67-7.95.37-.71.52-1.55.68-2.35.27-1.37.38-2.76,1.1-4.03.36-.64.32-1.49.48-2.24.23-1.08.47-2.15.72-3.22.12-.51.38-1.01.45-1.52.25-1.9.46-3.82.7-5.92.42.18.87.3,1.24.54,3.32,2.17,6.64,4.35,9.95,6.55,2.1,1.39,4.16,2.83,6.25,4.23,2.53,1.7,5.07,3.39,7.6,5.1,2.6,1.76,5.17,3.56,7.78,5.33,1.32.9,2.69,1.73,4.02,2.61,2.79,1.83,5.54,3.72,8.36,5.51,2.98,1.89,6.04,3.66,9.04,5.53,3.24,2.02,6.45,4.1,9.68,6.14,1.02.65,2.06,1.26,3.08,1.92,2.07,1.33,4.14,2.68,6.21,4.01.65.42,1.28.93,1.99,1.17,1.26.44,2.41.97,3.24,2.07.19.25.54.41.83.57,1.83,1.06,3.67,2.11,5.5,3.18.16.1.33.22.44.37.68.86,1.43,1.55,2.59,1.71.33.05.62.43.91.67.37.31.69.68,1.09.95,1.59,1.08,3.34,1.98,4.78,3.24,1.85,1.6,4.04,2.63,5.99,4.04.39.28.82.52,1.26.72,1.41.65,2.73,1.43,3.85,2.53.48.47,1.07.83,1.65,1.17,1.25.74,2.31,1.62,3.16,2.85.5.73,1.4,1.32,2.25,1.65.77.3,1.44.62,1.84,1.29.55.93,1.29,1.39,2.08,1.26.99,1.13,1.8,2.13,2.68,3.06,1.09,1.14,2.27,2.2,3.35,3.35.59.64,1.11,1.29,1.95,1.68.53.25,1,.78,1.31,1.29.38.61.75,1.11,1.48,1.29.22.06.49.19.61.37.68,1.01,1.74,1.51,2.67,2.19.37.27.66.69.88,1.1.52.94.78,1.11,1.82.94.19-.03.38-.13.56-.12.68.03,3.23,2.19,3.28,2.86.15,2.14,1.69,3.17,3.28,4.1.74.43,1.43.85,1.81,1.6.46.93,1.12,1.27,2.12,1.05.22-.05.47,0,.77,0,.44.82.8,1.67,1.3,2.41.83,1.23,1.66,2.52,3.41,2.76-.09.3-.17.59-.31,1.08,1.38.97,2.79,1.89,4.13,2.91.95.73,1.82,1.56,2.66,2.42,1.02,1.03,1.93,2.17,2.96,3.19.34.33.91.52,1.4.6,1.04.16,1.21.26,1.46,1.24.11.44.28.87.45,1.4.45-.24.73-.39,1.05-.56.53.31,1.06.61,1.69.97-.65.54-.79,1.12-.23,1.68,1.19,1.2,2.26,2.52,3.82,3.31.66.34,1.39.87,1.69,1.51.98,2.05,2.77,3.32,4.28,4.87.8.83,1.66,1.62,2.4,2.5,1.88,2.27,3.77,4.51,6.27,6.15.31.21.61.51.79.83.87,1.5,2.16,2.59,3.45,3.7.58.5,1.17,1.05,1.57,1.69.49.78,1.12,1.31,1.93,1.68,2.75,1.28,5.4,2.8,8.31,3.72.09.03.19,0,.27,0,.3-.23.59-.46.86-.68.68.53,1.23,1.29,1.88,1.4,1.74.28,2.52,1.93,4.02,2.51.18.07.18.51.33.75.21.35.42.88.73.95,1.71.41,2.85,1.59,4.03,2.74.3.29.73.69,1.06.66,1.06-.1,1.85.38,2.69.88,1.02.59,1.95.34,2.4-.75.34-.82.56-1.8.46-2.67-.16-1.38-.58-2.74-.99-4.08-.19-.64-.29-1.2,0-1.82.28-.61.25-1.21-.11-1.8-1.34-2.18-2.64-4.38-3.99-6.56-.38-.61-.85-1.17-1.31-1.79.29-.07.53-.13.78-.19-.24-1.35.71-2.67-.3-3.88.86.27,1.55.63,2.27.68.86.06,1.41.38,1.94,1.05.75.95,1.62,1.8,2.47,2.66.32.32.71.69,1.23.32.23-.79-1.19-1.54.04-2.35.18.21.33.39.47.57.13.17.24.34.41.6.34-1.27.13-1.67-.89-2.38-.95-.66-1.89-1.35-2.74-2.12-1.12-1.03-1.19-2.25-.27-3.47-.33-.59-.67-1.22-1.02-1.85.08-.09.16-.18.24-.28,1.3,1.12,2.81,1.62,4.46,1.74.1-.49.29-.79.89-.53.51.22.85-.08.97-.57.19-.74.31-1.5.51-2.23.19-.67.05-1.21-.36-1.76-.4-.54-.76-1.12-1.02-1.73-.37-.84-.64-1.73-.88-2.42.6-.78,1.23-1.43,1.66-2.2,1.03-1.87,3.02-2.86,5.1-2.8,1.42.04,2.85-.35,4.27-.58.22-.04.43-.23.61-.38.67-.56.68-.93-.05-1.47-.56-.41-.74-.89-.86-1.57-.14-.82-.51-1.63-.93-2.37-.62-1.09-1.39-2.08-2.04-3.16-.35-.58-.24-1.1.53-1.4,1.35,1.51,2.68,3.01,4,4.49,1.33-.53,1.5-.96.78-1.99-.16-.23-.43-.4-.6-.62-.27-.34-.69-.69-.72-1.06-.07-.97-.57-1.61-1.25-2.2-.11-.1-.12-.31-.26-.7.5.26.79.39,1.07.56.28.16.54.36.78.51,1.28-.86,2.14-.92,3.11-.19.42.32.76.74,1.16,1.09.27.23.58.42,1.02.73.11-1.5-.34-2.46-1.4-3.15-1.16-.76-2.32-1.53-3.47-2.32-.24-.16-.47-.36-.64-.58-.81-1.05-.3-2.6.91-2.91.62-.16,1.07.11,1.39.54.86,1.15,1.66,2.35,2.51,3.51.21.29.49.65.8.72.69.15,1.42.14,2.13.17.55.03,1.11.03,1.77.04-.09,1.43.71,1.8,1.79,1.92.67.07,1.33.23,1.98.38.11.02.18.2.28.31-.24.19-.45.35-.71.55.49.98,1.18,1.59,2.47,1.94-.41-.65-.67-1.08-.93-1.5l.17-.21c1.38.68,2.75,1.37,3.9,1.94.84-.46,1.47-.88,2.15-1.16.53-.22.88-.51,1.09-1.06.47-1.2.82-1.29,1.91-.59.57.37,1.11.74,2.01.46-.35-1.08-.47-2.21-1.03-3.04ZM118.51,109.31c-4.18.42-8.39.58-12.58.85-2.89.19-5.79.39-8.68.55-1.5.08-3.02-.07-4.5.14-2.4.34-4.72-.06-7.06-.36-.66-.09-1.32-.3-1.94-.55-2.01-.82-2.15-1.04-1.95-3.24.18-2.02.36-4.05.65-6.06.31-2.19.01-4.34-.17-6.5-.04-.47-.15-1,0-1.41.91-2.44,1.02-4.99,1.27-7.54.18-1.82.36-3.63,1.05-5.38.49-1.24.69-2.61.91-3.94.12-.7.39-1.1,1.04-1.41,2.41-1.14,4.92-1.65,7.58-1.72,2.12-.05,4.24-.38,6.35-.61,3.8-.42,7.62-.55,11.44-.57,1.25,0,2.5-.21,3.76-.27,3.77-.18,7.54-.13,11.28.41,2.45.36,4.9.45,7.38.5,2.35.04,4.71.09,7.06.41,1.85.25,3.76.13,5.64.21,1.11.05,2.21.19,3.32.27,1.06.08,2.12.13,3.18.21,2.46.17,4.92.48,7.38.48,2.61,0,5.17.63,7.8.51,1.42-.06,2.86.36,4.29.55.57.08,1.15.2,1.72.19,2.2-.03,4.32.39,6.44.96,1.3.35,2.69.38,3.97.78,3.83,1.2,7.59,2.5,10.77,5.16,2.38,1.99,4.86,3.85,6.92,6.18,1.25,1.41,2.32,2.97,3.45,4.47.14.18.18.43.34.83-.69.27-1.21.54-1.77.68-3.66.93-7.32,1.85-10.99,2.75-2.21.54-4.42,1.05-6.65,1.52-2.32.48-4.67.79-6.96,1.37-3.32.84-6.79,1-10.03,2.21-.54.2-1.13.31-1.7.35-1.93.14-3.86.22-5.79.37-.66.05-1.3.25-1.95.4-.56.13-1.11.35-1.68.43-3.45.48-6.9.94-10.35,1.38-1.29.16-2.61.17-3.9.34-3.02.4-6.03.83-9.04,1.32-2.14.35-4.25.87-6.39,1.21-3.62.58-7.24,1.21-10.89,1.58ZM278.28,374.77c-.09-.22-.19-.43-.28-.65.08-.04.15-.08.23-.11.12.21.24.43.36.64-.1.04-.2.08-.3.13Z"/>
  <path class="cls-1" d="M303.69,347.82c.94-.11,1.26-.37,1.84-1.52-.95.19-1.45.61-1.84,1.52Z"/>
</svg>