<?xml version="1.0" encoding="UTF-8"?>
<svg id="Layer_1" data-name="Layer 1" xmlns="http://www.w3.org/2000/svg" viewBox="0 0 484.37 396">
  <defs>
    <style>
      .cls-1 {
        fill: #3cb54a;
        stroke-width: 0px;
      }
    </style>
  </defs>
  <path class="cls-1" d="M279.19,387.83s0-.05-.01-.07c0,.03-.01.07-.02.1l.03-.03Z"/>
  <path class="cls-1" d="M484.37,47.75c-3.06-4.05-7.03-6.86-11.54-9.06-2.9-1.41-6.24-1.93-8.65-4.36-.45-.46-1.24-.62-1.9-.84-2.7-.92-5.41-1.81-8.11-2.73-.36-.12-.69-.34-1.04-.5-2.18-.99-4.34-2.05-6.57-2.94-.99-.39-2.11-.56-3.18-.59-.48-.02-1.33.45-1.41.82-.36,1.66-1.48,1.74-2.82,1.73-4.5-.03-9.01.04-13.51-.04-1.46-.03-2.91-.4-4.37-.59-.98-.13-1.98-.33-2.96-.31-2.71.08-5.42.33-8.13.37-1.93.03-3.87-.23-5.81-.24-4.58-.04-9.16.06-13.74-.02-5.27-.09-10.53-.36-15.8-.45-5.74-.1-11.49,0-17.24-.16-6.59-.18-13.18-.56-19.77-.84-1.32-.06-2.64-.03-3.96-.11-6.42-.41-12.85-.82-19.26-1.27-4.72-.33-9.45-.6-14.14-1.15-10.55-1.22-21.07-2.62-31.62-3.87-2.45-.29-4.96-.05-7.4-.39-2.1-.3-4.48-.76-5.59-2.8-3-5.48-7.88-8.93-12.89-12.16-3.1-1.99-6.65-3.28-10.01-4.88-2.08-.99-4.11.36-6.19.15-1.16-.11-1.02,1.2-1.59,1.75-.27.26-.67.38-.97.62-.54.43-1.27.79-1.53,1.36-1.15,2.55-3.3,3.75-5.71,4.82-1.29.58-2.85,1.46-3.38,2.63-1.17,2.57-2.26,5.27-2.07,8.27.16,2.46-.37,3.04-2.84,3.23-4.95.39-9.9.72-14.85,1.07-2.79.2-5.58.36-8.36.6-6.03.52-12.05,1.05-18.07,1.64-5.33.52-10.66,1.02-15.96,1.73-7.69,1.03-15.36,2.18-23.03,3.37-8.28,1.29-16.57,2.5-24.8,4.06-11.82,2.24-23.63,4.46-35.58,5.92-1.92.24-3.45-.07-5.02-1.14-1.46-1-3.02-1.91-4.98-1.54-.41.08-1.03-.31-1.37-.67-.63-.67-1.21-1.42-1.65-2.22-.5-.91-1.14-1.49-2.18-1.45-2.61.1-4.6-1.57-6.31-2.97-2.35-1.92-4.33-4.48-5.89-7.11-1.45-2.43-4.07-3.34-5.63-5.56-.28.7-.15,1.47-.47,1.84-1.14,1.3-.56,3.36-2.1,4.45-.19.13-.17.58-.23.88-.24,1.44-.5,2.88-.69,4.33-.11.84-.17,1.7-.13,2.54.07,1.47.19,2.94.38,4.4.12.91,0,1.63-.7,2.32-.85.85-.66,1.8-.03,2.75.51.77.95,1.6,1.35,2.44.46.96.13,1.65-.85,2.03-.36.14-.73.26-1.11.35-4.75,1.12-9.5,2.25-14.26,3.34-2.34.54-4.71.95-7.05,1.51-1.6.39-2.99,1.47-3.24,3.02-.31,1.87-1.33,3.06-2.51,4.29-.47.49-.86,1.06-1.5,1.86,1.19.88,2.23,1.65,3.46,2.56-.82.32-1.45.45-1.93.78-.54.37-1.02.88-1.41,1.42-.48.66-.8,1.45-1.28,2.12-.91,1.27-1,2.62.21,3.48,1.29.92,1.32,1.92.65,3.34.94.55,1.74,1.21,2.66,1.52,4.55,1.53,9.13,2.98,13.72,4.41.73.23,1.53.22,2.3.29,2.54.22,5.08.45,7.62.64.53.04,1.09.03,1.62-.06,2.64-.45,5.09-.27,7.21,1.64.79.71,1.75.81,2.82.32,2.54-1.15,5.21-1.19,7.93-.77,1.68.26,3.41.6,5.07.44,2.92-.28,5.83-.81,8.7-1.45,3.78-.84,7.5-1.96,11.28-2.81,4.45-1.01,8.92-1.97,13.42-2.73,3.43-.58,6.94-.75,10.39-1.21,5.69-.76,11.37-1.59,17.06-2.43,9.44-1.39,18.87-2.82,28.31-4.21,5.25-.77,10.38-2.2,15.65-2.9,2.76-.36,5.5-.96,8.26-1.36,6.06-.89,12.14-1.65,18.19-2.61,7.19-1.14,14.35-2.45,21.53-3.66,1.2-.2,2.44-.48,3.65.2.05.34.15.64.14.94-.26,6.97-.53,13.95-.82,20.92-.06,1.55-.19,3.1-.27,4.65-.35,6.51-.76,13.01-1.03,19.52-.17,3.96,0,7.93-.24,11.88-.41,6.84-.01,13.66.27,20.48.03.84.27,1.69.56,2.49.78,2.19,1.42,4.4,2.01,6.65,1.44,5.57,2.02,11.13,1.19,16.83-.08.53-.02,1.09.01,1.63.24,3.87.68,7.74.7,11.61.04,6.41,1,12.67,2.56,18.85,2.68,10.6,3.94,21.37,3.57,32.29-.2,5.78.73,11.45,1.22,17.16.37,4.32,1.26,8.61,1.46,12.93.38,7.83.36,15.67.62,23.51.26,7.83.68,15.66.99,23.49.32,8.45.6,16.9.88,25.35.07,2.09.11,4.19.14,6.28,0,.45.09,1.04-.15,1.33-1.16,1.43-2.2,2.99-4.36,3.15-2.09.15-2.45.6-2.09,2.67.24,1.4.04,2.63-.59,3.81-.58,1.09-1.33,2.08-1.9,3.17-.48.94-1.01,1.93-1.14,2.95-.17,1.35.41,2.89-.02,4.1-.46,1.28-1.73,2.27-2.78,3.54.28.39.6.9.97,1.37,1.75,2.23.82,5-1.94,5.77-.39.11-.77.23-1.41.42.53.46.78.76,1.1.94,2.28,1.32,1.81,3.32.7,4.79-1.1,1.46-1.21,3.24-2.28,4.53,1.18,1.54,1.14,1.54,1.23,3.67.02.45.35,1.1.73,1.29,2.35,1.19,4.73,2.3,7.13,3.37,2.18.98,4.5,1.68,6.55,2.87,1.51.87,2.92,1.67,4.69,1.81,2.64.2,5.18.78,7.44,2.29.4.27,1.01.26,1.54.31.53.05,1.1-.12,1.59.02,2.23.62,4.43,1.31,6.64,1.99,1.11.34,1.78.08,2.21-1.02.19-.49.22-1.05.3-1.59.5-3.29,1.12-3.56,3.85-1.71,1.66,1.13,3.77.29,4.03-1.7.18-1.37.12-2.77.22-4.15.04-.51.12-1.09.38-1.51,1.09-1.76,1.17-3.62.74-5.58-.1-.47-.11-.96-.2-1.87,1.42,1.14,2.72,1.83,3.51,2.9,1.32,1.8,3.23,2.57,5.02,3.61.63.37,1.11.99,1.65,1.51.3.29.58.6,1.21,1.27.56-1.75,1.05-3.11,1.41-4.5.28-1.1.86-1.68,1.97-2.02,1.08-.33,2.13-.88,3.07-1.52,1.8-1.23,2.57-1.07,3.04,1.14.45,2.12.22,4.37,1.66,6.28.45.6.41,1.55.58,2.36.18-1.1.66-2.26.42-3.26-.98-4.06.02-8.03.31-12.03.07-.99.49-1.94.7-2.92.65-2.98,1.79-5.94.29-9-.46-.94-.02-1.78.44-2.63.35-.65.86-1.33.25-2.15-.9-1.21-1.03-2.61-.7-4.01.48-1.98-.18-3.97.39-6.04.4-1.47.48-3.38-.48-5.17-.8-1.51-.69-3.52-.98-5.31-.03-.21,0-.43,0-.69.67-.2,1.3-.39,2.25-.67-2.44-1.29-2.69-3.04-2.06-5.22.42-1.46-.68-3.17.61-4.56.05-.06-.1-.28-.11-.43-.09-.89-.17-1.79-.26-2.73-.37-.23-.8-.5-1.33-.83.52-1.02.88-1.98,1.45-2.78.63-.88.67-1.71.2-2.6-.46-.88-.96-1.74-1.18-2.13.47-1.5,1.07-2.54,1.08-3.58.03-3.24.14-6.45.41-9.69.41-4.85.12-9.77.05-14.66-.07-4.64-.24-9.28-.36-13.92-.05-2.1.05-4.2-.14-6.28-.52-5.79-1.13-11.57-1.73-17.35-.51-4.93-1.02-9.87-1.61-14.79-.51-4.24-1.13-8.46-1.68-12.69-.58-4.46-1.12-8.93-1.69-13.39-.31-2.39-.68-4.76-.97-7.15-.67-5.39-1.11-10.81-1.99-16.16-1.35-8.14-1.5-16.37-2.15-24.56-.34-4.32-.19-8.69-.13-13.03.13-8.45.33-16.9.55-25.35.09-3.33.25-6.66.45-9.99.25-4.1.54-8.21.88-12.3.36-4.32.77-8.65,1.22-12.96.27-2.54.67-5.07,1.03-7.6.31-2.14.64-4.28.97-6.42.42-2.68.8-5.37,1.28-8.04.36-1.97.45-2.07,2.43-1.96,3.71.2,7.42.52,11.12.81,2.09.16,4.17.43,6.26.47.88.02,1.76-.42,2.64-.67,1.09-.32,2.18-.91,3.27-.93,2.32-.04,4.65.17,6.97.36,4.64.38,9.27.8,13.9,1.24,5.4.51,10.8,1.06,16.2,1.59.77.08,1.54.18,2.31.25,4.63.43,9.26.89,13.9,1.27,3.47.28,6.92,1.06,10.43.27.39-.09.88.28,1.32.44.34.12.71.38,1,.31,1.7-.4,3.26.15,4.91.39,4.59.68,9.24,1.06,13.87,1.49,4.32.4,8.65.74,12.99,1.03,5.25.34,10.5.73,15.76.85,5.98.14,11.96-.05,17.94.03,3.13.04,6.17-.29,9.23-.91,2.27-.46,4.64-.91,6.92-.74,4.79.35,9.54,1.13,14.32,1.7,2.6.31,5.22.57,7.98.87.14-1.98,1.55-2.16,2.99-2.29.62-.06,1.33.05,1.83-.23.69-.39,1.43-.98,1.73-1.67.16-.36-.46-1.22-.91-1.66-1.59-1.57-1.51-2.47.58-3.41,1.4-.63,2.5-1.5,3.29-2.86-.39-.73-.77-1.46-1.17-2.21,2.52-.77,3.66-2.72,3.28-5.23-.07-.46.1-1.06.37-1.45.51-.73,1.17-1.34,1.82-2.07Z"/>
  <path class="cls-1" d="M281.5,377.12h0v.02h.01s0-.02,0-.03c0,0,0,0,0,0h0Z"/>
  <path class="cls-1" d="M281.03,374.23c-.11.04-.17.24-.22.31.24.88.47,1.73.7,2.58,1.51-.64,2.43-1.79,1.96-2.6-.64-1.12-1.58-.61-2.45-.28Z"/>
  <path class="cls-1" d="M275.8,394.82c1.51-1.95,1.4-3.26-.45-5.28.16,1.92.29,3.43.45,5.28Z"/>
  <path class="cls-1" d="M279.96,391.96c.97-2.39.78-3.28-.76-4.08.03,1.35-.36,2.79.76,4.08Z"/>
  <path class="cls-1" d="M279.19,387.83s-.03.03-.03.03c.01,0,.02.01.03.02,0-.02,0-.03,0-.05Z"/>
  <path class="cls-1" d="M280.88,377.57c.2-.14.4-.29.61-.43-.25-.05-.49-.11-.74-.16.04.2.09.4.13.59Z"/>
  <path class="cls-1" d="M281.48,377.14s.03,0,.04,0v-.02s-.03.01-.04.02Z"/>
</svg>