<?xml version="1.0" encoding="UTF-8"?>
<svg id="Layer_1" data-name="Layer 1" xmlns="http://www.w3.org/2000/svg" viewBox="0 0 463.75 496.58">
  <defs>
    <style>
      .cls-1 {
        fill: #000;
        stroke-width: 0px;
      }
    </style>
  </defs>
  <path class="cls-1" d="M453.37,271.54c.17,1.54,1.12,2.89.26,4.72-.3.65.85,2.23,1.34,3.39.21-.1.41-.21.62-.31v-3.25l.36-.35c.43.69.9,1.35,1.29,2.06.3.55.58,1.13.75,1.75.32,1.14.56,2.25-.87,2.72-.46.15-.98.61-1.17,1.09-.13.31.28.92.44,1.4.48-.4.96-.81,1.45-1.2.1-.08.25-.08.59-.18.19,1.87,2.15,3.2.9,5.53-.17.32.3,1.09.46,1.66.57,2.09,1.31,4.15,1.66,6.29.52,3.16,1.05,6.39,1.03,9.58-.02,3.32-.7,6.64-1.08,9.96-.05.43-.07.87-.05,1.3.08,1.83.63,3.77-1.05,5.13-.17.14-.24.55-.25.84-.03,1.31-.01,2.62-.01,4.02.91-1.49,1.93-3.16,2.95-4.84.21.06.43.13.64.19.04,1.01.23,2.05.09,3.03-.22,1.54-.68,3.02-1.02,4.54-.34,1.52-1.56,2.94-.14,4.64.29.34-.02,1.51-.23,2.23-1.9,6.53-3.84,13.04-5.76,19.57.12.09.22.23.33.25,1,.11,2.01.19,3.01.28-.27,1.31-.36,2.72-.86,3.9-.85,2.03-1.74,4.14-3,5.81-1.65,2.19-3.56,4.16-5.58,5.88-1.43,1.23-3.63,1.47-4.74,2.93-1.65,2.14-3.81,2.59-5.76,3.78-2.4,1.47-4.48,3.66-6.84,5.25-2.9,1.96-5.94,3.63-9.2,5.59,1.43.3,2.75.85,4.05.78,1.35-.08,2.67-.77,4.07-.93-2.27,3.1-5.48,3.37-8.65,3.77-.03.21-.06.42-.1.63.73.24,1.46.48,2.36.78-1.12.97-1.89,1.82-3.57,1.32-1.6-.47-3.61-.28-4.46,2.37-.27.85-1.14,1.58-1.88,2.05-1.03.65-2.2,1.01-3.41,1.53.46,1.79,1.53,1.68,2.56,1.21,2.49-1.15,4.93-2.42,7.4-3.64.22-.11.44-.22.89.11-1.01.83-1.98,1.73-3.05,2.46-1.37.94-2.8,1.75-4.23,2.57-.46.26-.98.5-1.48.51-2.71.07-5.43.05-8.14.11-.38,0-.92.11-1.11.41-1.98,3.13-5.29,3.02-7.92,4.56-1.86,1.09-3.52,2.67-5.69,4.35h20.31c.03.07.07.15.1.22-1.62.45-3.24.87-4.85,1.37-2.57.79-5.12,1.64-7.69,2.45-.51.16-1.17.5-1.54.28-2.87-1.75-5.03,1.2-7.62,1.14-.01.22-.03.44-.04.67,1.03.23,2.07.46,3.1.69,0,.15.01.3.02.45-3.26.38-6.52.76-9.78,1.14-.03-.27-.06-.54-.09-.82.98-.2,1.96-.4,3.16-.65-.81-1.67-1.65-1.5-2.76-.98-5.46,2.53-10.89,5.21-16.46,7.35-4.03,1.55-8.3,2.21-12.41,3.52-2.29.74-4.43,2.1-6.69,3-1.7.68-3.5,1.04-5.24,1.59-2.13.67-2.6,2.17-1.45,3.67-1.49.89-3.04,1.81-4.59,2.73-.3.18-.63.53-.9.48-3.37-.62-6.65,1.71-10.04.32-2.18-.9-4.34-.65-6.4.61-.18.11-.38.37-.52.33-3.04-1.04-4.77,3.11-7.7,2.81,1.3.3,2.6.59,3.63.83,3.01-2.38,6.36-.32,9.21-2.03.06.3.13.6.19.9-.69.28-1.4.5-2.07.85-5.46,2.81-11.1,3.27-16.86,1.64-2.31-.65-4.55-1.64-6.84-2.41-1-.34-2.03-.68-3.06-.72-2.9-.14-5.81-.14-8.72-.15-.77,0-1.54.15-2.38.63,2.62,1.99,6.39.11,9.01,3.96-2.56,0-4.65,0-6.73,0-1.19,0-2.39-.06-3.58-.04-3.61.04-7.22.12-10.84.14-.38,0-.82-.15-1.14-.4-4.38-3.45-9.23-1.5-13.89-1.66-.07,0-.14.23-.52.9,2.26.43,4.31,1.13,6.37,1.15,3.14.03,5.97.66,8.89,2.27,1.86,1.03,4.41.44,6.66.45,2.42,0,4.8-.32,7.18-1.05,1.09-.33,2.44.51,3.91.87,0,0,.2-.43.28-.6,2.58.36,4.98.7,7.38,1.04,0,.39.01.78.02,1.17-1.82.45-3.63,1.23-5.46,1.27-4.59.1-9.19-.24-13.79-.19-1.77.02-3.58.49-5.3,1.02-4.89,1.51-9.54.77-14.09-1.65-2.48-1.32-5-1.14-7.81.64.35.2.69.5,1.06.59,1.82.46,3.67.74,5.46,1.32,1.5.49,2.89,1.46,4.39,1.94,2.24.71,4.54,1.64,6.81,1.64,3.88,0,7.83.57,11.63-.96.22-.09.49-.01.98.5-.58.45-1.12,1.14-1.75,1.3-1.23.32-2.51.43-3.78.46-4.45.1-8.91.14-13.36.2-2.75.03-5.5.23-8.23-.03-1.29-.12-2.52-1.11-3.77-1.72-.7-.34-1.4-.69-2.67-1.32.52,1.08.71,1.49.91,1.91-9.44-.79-18.88-1.58-28.31-2.37-.05.28-.1.56-.15.85,1.6,2.41,4.84.17,6.63,3.15-2.44-.22-4.65-.34-6.84-.68-.37-.06-.63-1.05-1.02-1.75-.96,1.28-1.9,1.11-3.26.09-2.1-1.57-4.57-1.68-6.98-1.27-.04.26-.08.52-.12.77,1.06.27,2.13.53,3.19.8-.04.22-.07.44-.11.66-2.06-.38-4.12-.82-6.19-1.13-2.23-.34-4.48-.5-6.71-.85-1.29-.2-2.56-.62-3.84-.94-.58-.15-1.23-.56-1.74-.39-2.25.76-4.17-.77-6.22-1.03-3.79-.48-7.65-.21-11.48-.25-.52,0-1.09.15-1.56-.04-4.9-2.05-9.95-2.52-15.12-2.56-4.62-.03-9.23-.6-13.85-.87-2.89-.17-3.22.18-3.47,3.59-.25,3.43-.26,6.89-.61,10.3-.3,2.94-.78,5.87-1.43,8.73-.54,2.41-1.28,2.65-3.42,1.94-1.74-.58-3.19-1.37-3.96-3.56-.31-.89-1.26-1.64-2.06-2.12-1.88-1.11-2.97-.21-2.93,2.26q.04,2.91-2.38,2.56c-.13-.02-.26-.08-.4-.09-1.24-.03-5.35,4.56-5.5,6.03-.14,1.4,0,3.32-.71,4.07-1.64,1.73-3.62,3.1-5.64,4.2-1.61.88-3.51,1.03-5.21,1.74-.89.37-1.61,1.26-2.52,2.01-1.54-2.59-3.78-3.05-6.31-2.74-.76.09-1.56-.38-2.35-.48-1.78-.24-3.59-.26-5.35-.65-1.74-.38-3.42-1.07-5.12-1.66-.44-.15-1-.78-1.24-.63-2.49,1.55-3.9-1.19-5.72-2.02-1.09-.49-1.83-2.06-2.69-3.17-.31-.4-.5-.92-.79-1.34-1.04-1.5-2.08-3.01-3.18-4.44-.41-.54-1.04-1.26-1.51-1.21-.5.05-1.08.84-1.36,1.47-.51,1.18-.73,3.48-1.24,3.54-1.8.22-3.86.21-5.46-.65-2.43-1.31-4.65-3.04-6.12-6.11-1.54-3.22-3.61-6.21-5.87-8.8-2.89-3.3-3.47-7.44-4.1-11.67-.26-1.77-.35-3.58-.74-5.31-.52-2.31-.73-4.39.9-6.31.44-.52.5-1.59.54-2.43.16-3.88-.58-7.44-1.85-11.13-1.86-5.4-2.9-11.19-4.29-16.81-1.3-5.26-2.69-10.49-3.83-15.8-.61-2.85-.83-5.81-1.09-8.74-.07-.74.38-1.54.59-2.31.23.03.45.06.68.08.25,1.24.5,2.48.77,3.79,1.33-2.61,1.18-5.24.68-8-.59-3.28-.86-6.65-1.48-9.93-1.04-5.57-2.14-11.13-3.41-16.63-.86-3.74-2.52-7.29-2.98-11.07-.84-6.92-4.14-12.64-6-19.04-.21-.72-.45-1.69-.21-2.28.99-2.45-.33-4.5-.66-6.71-.09-.61-.69-1.1-.91-1.72-.26-.72-.41-1.5-.5-2.27-.07-.59.27-1.5.02-1.75-2.1-2.18-.84-5.36-1.81-8-.94-2.57-.35-5.85-.62-8.8-.36-4.03-.84-8.04-1.41-12.03-.1-.68-.99-1.17-1.38-1.85-.34-.6-.88-1.6-.68-2,1.64-3.36,1.11-5.64-2.38-7.3.92-.93,1.54-2.06,2.36-2.29,1.36-.38,1.63-1.26,1.44-2.54-.41-2.67-.93-5.31-1.4-7.96-.12-.69-.22-1.38-.37-2.05-.22-.99-.47-1.97-.78-3.22,2.14-.45,1.76-2.81,1.63-4.96-.31-4.84-.65-9.67-1.05-14.5-.09-1.14-.45-2.26-.69-3.38-.1-.45-.38-.92-.33-1.34.62-4.99-.73-9.78-1.07-14.68-.06-.82-.66-1.57-.96-2.38-.17-.46-.45-1.11-.3-1.43,1.02-2.15.17-4.06-.42-6.04-.72-2.44-1.99-4.71-.9-7.6.32-.86-.35-2.74-1.07-3.52-1.47-1.59-1.13-3.61-1.39-5.44-.18-1.28-.08-2.32-.75-3.71-1.1-2.3-1.09-5.34-1.49-8.08-.22-1.51-.43-3.04-.44-4.56,0-.81.21-2.04.68-2.34,1.42-.92.8-1.62.42-2.96-.69-2.38-2.98-4.01-2.44-6.89.12-.65.52-1.62.94-1.74,1.58-.45,1.5-1.87,1.16-2.95-.47-1.47,1.13-4.32-2.78-4,2.04-1.69-1.49-5.03,2.55-5.37-.11-.37-.23-1-.3-.99-1.27.14-1.35-.91-1.48-1.93-.2-1.49-.66-2.52-2.25-2.09-1.5.4-2.68-.59-2.95-2.08-.16-.85.76-2.05,1.33-2.97.29-.47.86-.73,1.33-1.04,3.31-2.2,3.81-5.72,3.19-9.94-.35-2.36-.5-2.33,1.34-3.47-.26-.28-.45-.58-.71-.75-.28-.19-.62-.26-1.14-.46,1.22-21.47,2.43-42.92,3.67-64.62,2.81.71,5.12,1.29,7.71,1.94-1.16-3.17-4.02-1.27-5.65-3.42,3.37-1.13,6.53,2.11,9.77-.14.77.33,1.84.78,2.91,1.22,1.33.55,2.53.42,3.44-.96,1.01-1.54,2.09-1.86,3.58-.75.91.68,2.06.93,3.17,1.41.18-.55.32-.82.36-1.11.36-2.86.53-2.94,2.65-1.35.39.29.89.78,1.25.69,2.9-.72,5.26,1.58,7.93,1.81,1.51.13,3.23-.26,4.59-1.03,2.09-1.18.48-2.88-.08-4.48.79-.69,1.57-1.37,2.41-2.11.63.47,1.23.92,1.98,1.47.63-1.56,1.41-2.65,3.05-2.03.21.08.91-.95,1.08-1.58.15-.52-.29-1.25-.2-1.82.14-.84.53-1.61.81-2.42.62.35,1.31.6,1.85,1.09.5.46.84,1.18,1.34,1.91.49-.47.87-.84,1.25-1.21.93.69,1.93,1.28,2.76,2.09,2.02,1.98,1.99,2.02,2.65-.86.17.09.42.13.46.26.47,1.54,1.18,2.59,2.79,2.34,1.52-.24,2.4-1.12,2.74-2.92.11-.57.65-1.37,1.05-1.43.42-.06,1.11.53,1.36,1.05.6,1.21,1.17,2.5,1.44,3.84.3,1.5,1.02,2.04,2.15,1.73,2.41-.68,3.69.93,4.6,3.07,1.25,2.94,2.47,5.91,3.44,8.98.63,2,1.27,2.16,2.74,1.07,7.82-5.79,15.57-11.72,23.56-17.15,8.22-5.59,16.52-11.13,25.12-15.87,8.9-4.9,18.1-9.13,27.35-13.1,19.9-8.55,40.54-13.22,61.67-15.01,12.76-1.08,25.51-.95,38.07,2.11,4.76,1.16,9.32,3.41,13.98,5.12,1.04.38,2.12.58,3.15,1.04.95.42,1.87,1.07,2.86,1.23,2.43.4,4.89.57,7.34.84.19.02.45.09.54.25,1.9,3.46,5.34,3.21,8.09,4.6,2.01,1.01,4.03,1.98,6.05,2.98.8.4,1.57,1.14,2.38,1.19,3.68.2,6.06,3.05,8.63,5.51,3.52,3.36,7.05,6.72,10.51,10.15,5.83,5.77,10.45,12.6,14.16,20.48,2.57,5.45,4.74,11.01,6.28,16.91.6,2.28.64,4.75,1.1,7.09.28,1.4,1.19,2.7,1.25,4.09.2,4.14.13,8.29.17,12.44,0,.16-.06.35,0,.46,2.06,3.94-.56,6.75-1.74,9.9-.25.67-.41,1.4-.61,2.1.26.25.52.49.78.74.41-.78.71-1.7,1.26-2.31.46-.51,1.23-.64,1.86-.94-.21.75-.36,1.54-.66,2.25-.42,1.02-.95,1.98-1.7,3.51,2.22-.82,3.18.06,2.59,1.82-.61,1.82-1.71,3.46-2.77,5.01-1.05,1.53-1.15,1.44-.11,2.88-1.83,2.24-3.66,4.48-5.51,6.74,1.95,2.27.67,4.54.25,6.52-.52,2.46-1.79,4.69-2.66,7.06-.38,1.03-.53,2.18-.88,3.22-.42,1.24-.94,2.43-1.48,3.8,2.87-.69,4.59-3.1,6.54-5.41-.54,1.58-1.06,3.17-1.62,4.74-.26.73-.45,1.68-.94,2.08-.59.49-1.57.87-2.21.64-2.21-.77-3.39.28-3.5,2.89-.05,1.23-.76,2.56-1.44,3.6-1.65,2.53-3.46,4.91-5.21,7.35l.03-.03c-1.35,1.58-2.71,3.16-4.06,4.73l.02-.03c-1.01.95-2.02,1.9-3.01,2.86-2.53,2.44-5.06,4.88-7.59,7.32-.12-.16-.23-.32-.35-.47,1.19-2.27,2.39-4.53,3.76-7.15-.79.11-1.52.02-2.09.33-3.3,1.76-6.58,3.58-9.83,5.47-.79.46-1.47,1.23-2.14,1.94-.93,1-1.82,2.05-2.69,3.12-.35.43-.62.96-.93,1.45.17.18.33.35.5.53.54-.57,1.08-1.13,1.62-1.7.03.19.06.37.09.56.93-.17,1.95-.13,2.77-.57,1.24-.67,1.76-.44,1.66,1.49,1.07-.83,1.96-1.53,3.13-2.44-.74,4.45-4.25,5.95-5.83,9.35.23.04.48.08,1.3.21-1.34,1.9-2.5,3.56-3.66,5.21.07.18.14.36.22.53.86-.59,1.83-1.04,2.57-1.79,2.8-2.85,5.53-5.8,8.3-8.69.18-.19.47-.24.71-.36.16.15.33.3.49.45-.66.99-1.26,2.04-1.98,2.97-3.2,4.07-6.43,8.1-9.65,12.14.13.17.26.35.39.52.43-.17.86-.35,1.29-.52.17.23.34.46.51.7-.94.65-1.88,1.31-2.82,1.96.1.25.2.5.3.75.53.13,1.06.33,1.6.39,12.62,1.32,25.28,2.25,37.85,4.02,13.79,1.94,27.41,5.09,40.5,10.8,3.89,1.7,7.71,3.58,11.59,5.31,1.7.76,3.38,2.01,5.35.83.23-.14,1,.28,1.1.62.95,2.98,2.95,3.83,5.37,3.49,2.31-.33,3.44,1.98,5.2,2.86,1.82.91,3.55,2.09,5.31,3.15.3.18.71.25.88.54,2.24,3.59,6.16,3.45,9.07,5.56.7.51,1.9.27,2.43.88,1,1.17,1.69,2.71,2.67,4.38-.92.34-1.37.51-2.45.91,1.51,1.51,2.73,2.72,3.83,3.82.72-.89,1.22-1.8,1.43-1.71,2.35.97,4.82,1.81,6.3,4.71-1.02.79-1.9,1.48-3,2.34,1.29,1.92,2.65,4.02,4.09,6.04.24.33.86.25,1.26.48,1.36.77,2.86,1.39,2.25,3.85-.15.58.33,1.38.83,2v-1.67c.79.71,1.39,1.26,2,1.81l-.02-.04ZM238.23,458.71c-.76-1.73-4.25-2.41-5.99-1.12,1.78,2.23,4,.91,6.02,1.09,2.07,1.47,4.73.94,7.12-1.66-.75-.14-1.29-.25-1.84-.34-2.06-.37-3.72.74-5.31,2.04ZM262.41,193.51c-.06.59-.12,1.18-.21,2.13.95-.13,1.87-.26,2.9-.41-.38,1.17-.65,1.97-.91,2.77.16.13.33.25.49.38.72-.64,1.4-1.35,2.18-1.89.33-.23.84-.09,1.27-.12,0,.58.1,1.61-.04,1.66-2.36.81-2.18,3.42-2.8,5.71.72-.02,1.37-.27,1.99-.57,1.47-.7,2.94-1.43,4.41-2.15-.55.53-1.09,1.07-1.66,1.59-1.38,1.25-2.76,2.49-4.15,3.73-.09.46-.17.91-.26,1.37,2.08-2.6,1.47-.27,1.57-.18,1.3,0,2.24-.14,3.14.03,2.54.49,3.95-.32,5.22-3.1.19-.42.48-.85.82-1.09.69-.48,1.55-.67,2.14-1.25,4.19-4.12,8.42-8.19,12.45-12.51,4.13-4.42,8.15-8.99,12.01-13.72,2.79-3.41,5.26-7.17,7.84-10.82.68-.96,1.72-1.89.63-3.42-.16-.23.27-1.18.58-1.68.87-1.4,1.82-2.73,2.73-4.09,1.85-2.68,3.7-5.37,5.55-8.05-.09-.11-.19-.23-.28-.34-.46.29-.92.58-1.61,1.02.05-.68.03-1.31.12-1.33,2.39-.57,2.62-3.49,3.99-5.17,1.04-1.27,1.81-3.67,1.55-5.33-.33-2.08.2-2.69,1.59-3.04-.14-.6-.45-1.16-.32-1.47.78-1.8,1.69-3.53,2.5-5.31.25-.56.39-1.24.45-1.88.09-.89-.02-1.82.1-2.7.15-1.13.49-2.22.67-3.35.46-2.83.84-5.67,1.34-8.49.21-1.14.7-2.2,1-3.32.33-1.25.59-2.52.87-3.78-.18-.1-.36-.2-.54-.29-.62.87-1.15,1.87-1.88,2.57-.71.67-1.6,1.15-2.47,1.49-.88.35-1.84.43-2.77.62.05.32.1.63.15.95h3.05c-.99,2.45-1.8,4.47-2.61,6.49-.26-.12-.52-.24-.78-.36.52-1.64,1.03-3.27,1.72-5.45-.59.57-.82.71-.95.93-1.11,1.83-2.07,3.82-3.35,5.46-.99,1.27-1.75,2.4-1.69,4.22.02.71-.57,1.45-.88,2.17l-.6-.35c.07-.5.26-1.4.2-1.43-2.05-.79-.46-1.93-.18-2.85.76-2.54,1.63-5.04,2.38-7.59.14-.48-.08-1.11-.17-1.98-1.79,1.13-2.06,2.81-2.48,4.52-.36,1.45-1.09,2.8-1.78,4.1-.51.96-1.3,1.71-1.84,2.65-.59,1.03-1.05,2.16-1.54,3.26-.3.67-.54,1.38-.81,2.07,1.58-1.81,4.07-2.26,5.93-.95.47,4.01-3.75,3.08-4.6,5.67.95-.12,1.78-.22,2.7-.34-.41,4.25-3.08,6.16-5.16,8.61-.04-2.73,2.89-3.87,2.72-6.61-.2-.14-.4-.29-.6-.43-2.18,3.32-4.37,6.65-6.31,9.61-.92.11-2.06-.16-2.5.37-1.07,1.28-1.81,2.93-2.68,4.43.25.22.5.44.74.66.77-1.14,1.54-2.27,2.37-3.49,1.8,1.1-.64,2.03-.08,3.36,1.55-1.21,3.07-2.41,4.6-3.6.19.11.38.22.57.33-.1,1.35-.2,2.7-.31,4.09.37-.1.83-.22,1.45-.38-1.6,3.19-3.07,6.13-4.55,9.08-1.88,1.54-3.78,3.05-5.63,4.64-.84.72-1.62,1.56-2.36,2.42-.93,1.07-2.31,2.08-2.56,3.36-.37,1.85-1.11,3-2.29,4.08-1.7,1.57-3.32,3.26-4.98,4.89.09.15.18.3.27.46.62-.19,1.25-.38,1.87-.57.06.23.12.46.18.69-2.02.84-4.05,1.69-6.09,2.54.04.33.09.77.17,1.43-.85-.47-1.47-.8-2.12-1.15,2.71-3.48,5.3-6.8,8.18-10.49-1.18.23-1.84.36-2.5.48-.08-.17-.15-.35-.23-.52.53-.48,1.1-.9,1.57-1.44.45-.52.79-1.18,1.17-1.77-.09-.07-.18-.13-.27-.2-1.12.69-2.24,1.39-3.36,2.08-.25-.35-.51-.7-.76-1.05.96-.48,1.91-.97,2.87-1.45-.26-.34-.52-.68-.78-1.02-.67.6-1.28,1.37-2.04,1.75-1.47.73-3.33,2.18-4.48,1.67-3.11-1.39-5.06.71-6.54,2.73-1.92,2.61-3.84,4.93-6.53,6.37-.5.27-.87.85-1.44,1.44.86.07,1.47.11,2.19.17-.54.78-.95,1.37-1.7,2.45,3.11-1.22,5.62-2.21,8.14-3.2-.07-.23-.14-.45-.21-.68-.36.05-.71.1-1.34.19.42-.94.74-1.65,1.05-2.35.14.29.28.58.42.87,2.67-1.12,5.35-2.16,7.94-3.77.1.66.2,1.3.33,2.07.53-.26.89-.43,1.24-.6.11.19.22.38.33.56-2.12,1.15-4.99,1.23-5.33,5.19-1.71-2.35-2.41-.63-3.52.34,1.22.28,2.18.5,3.24.74-.27,1.1-.44,1.82-.6,2.47,1.59,1.08,2.98-3.22,4.53.05,1.5-1.07,2.94-2.1,4.62-3.3-.4,1.24-.67,2.1-.95,2.97-.44.37-.88.75-1.32,1.12-2.8,2.76-5.61,5.52-8.41,8.28.14.21.28.43.42.64,1.12-.79,2.24-1.57,3.35-2.36.13.21.27.42.4.63-1.11,1.18-2.22,2.36-3.33,3.54.11.23.23.46.34.69,2.84-2.03,5.68-4.06,8.53-6.09.17.3.34.59.52.89-1.11,1.05-2.28,3.02-3.32,2.94-1.53-.12-1.78,1.1-2.59,1.71-1.44,1.08-2.87,2.17-4.31,3.26-.48.37-1.17.62-1.39,1.14-1.18,2.76-3.68,2.97-5.66,4.18.54-1.1,1.07-2.2,1.68-3.44-1.39.51-2.6.96-4.2,1.55,1.32-2.44,4.04-2.16,4.61-4.96-1.17-.32-2.16-.58-3.22-.87.84-1.24,1.56-2.31,2.29-3.38-1.27-.21-2.59-.36-3.08.31-1.75,2.37-3.84,3.13-6.38,2.85-.29-.03-.61.26-.92.41-2.16.99-4.39,1.84-6.47,3.04-1.46.84-2.61,2.42-4.08,3.21-1.58.85-3.5,1.88-5.04,1.53-1.87-.43-2.02.65-2.49,1.7,1.49,1.77,3.98-2.07,5.06,1.5,4.02-1.37,8.18-4.18,8.74-5.85h-1.72c1.06-1.04,2.27-1.36,3.24-2.12,1.03-.8,1.84-2.01,2.74-3.04ZM158.85,430.47s.03.03.03.03c1.92-2.21,3.84-4.42,5.8-6.66-.55-.78-.9-1.27-1.45-2.04,3.62-2.4,7.08-4.7,10.95-7.26-1-.26-1.49-.44-2-.52-2.53-.4-4.99-.89-7.63-.57-3.21.4-6.49-.09-9.74-.17-.25,0-.69.05-.74.21-.6,2.03-1.91,1.37-3.14,1.26-.38-.03-.8.51-1.2.8.29.37.51.9.87,1.08.6.31,1.29.41,2.29.71-1.6.36-2.93.26-3.82.94-1.5,1.15-2.41.93-3.29-.74-.41-.78-.91-1.51-1.36-2.23-2.28.89-2.86,1.91-2.72,4.73.24,4.83.48,9.65.76,14.48.19,3.28.9,3.69,3.7,3.59,2.91-.1,5.83.3,8.74.55.36.03.69.51,1.04.77-.02.2-.03.39-.05.59-1.91.45-3.83.9-5.88,1.38.83.4,1.57.92,2.37,1.1,1.69.38,3.51,1.11,5.07.68,1.21-.33,2.18-2.13,3.13-3.4,1.39-1.87,1.26-4.86,3.33-6.26.13-.09.18-.42.19-.65.12-2.53,1.04-4.29,3.31-4.8.07-.02.08-.37.24-1.23-2.04.99-3.71,1.87-5.42,2.6-1.09.46-2.25.7-3.38,1.04ZM207.62,36.97s-.02-.03-.02-.03c-1.98,1.08-3.93,2.28-5.96,3.23-3.22,1.51-6.52,2.79-9.75,4.28-2.28,1.05-4.49,2.27-7.16,3.63.56-1.04.85-1.57,1.14-2.1-.08-.15-.16-.29-.25-.44-1.44.71-2.88,1.43-4.31,2.14.06.2.11.4.17.6.73-.07,1.45-.15,2.18-.22.09.18.17.36.26.54-.56.51-1.06,1.26-1.7,1.5-2.87,1.08-5.26,3.22-8.33,4.11-3.23.94-6.14,3.75-8.99,6.07-5.05,4.1-10,8.36-14.89,12.7-5.52,4.9-10.95,9.94-16.37,14.99-.95.88-1.73,2.04-2.47,3.18-.47.73-.71,1.66-1.14,2.71-1.52-2.05-2.25-.79-2.95.38-.33.55-.4,1.37-.81,1.8-2.54,2.66-5.1,5.3-7.74,7.83-1.34,1.29-2.86,2.3-4.26,3.51-1.82,1.57-3.5,3.39-5.41,4.76-3.77,2.7-7.71,5.07-11.48,7.78-.82.59-1.71,2.05-1.68,3.07.22,7.27.24,14.6,1.17,21.76,1.28,9.88,3.34,19.63,4.98,29.45,1.21,7.2,2.38,14.42,3.4,21.66.68,4.84,1.02,9.75,1.6,14.61.75,6.35,1.83,12.67,2.33,19.04,1.02,13.02,1.79,26.06,2.57,39.1.64,10.57,1.84,21.05,4.22,31.27,2.55,10.94,5.7,21.7,7.98,32.72,2.02,9.79,3.31,19.8,4.71,29.76,1.15,8.19,2.23,16.37,4.59,24.25.58,1.93,1.61,2.72,3.14,3.13,3.01.79,5.99,1.72,9.01,2.43,9.14,2.14,18.24,4.53,27.44,6.23,16.2,3,32.58,3.59,48.95,3.62,11.06.02,22.14-.29,33.13-2.19,10.43-1.81,20.83-3.78,30.85-7.74,3.72-1.47,7.36-3.25,11.05-4.82,3.35-1.42,6.73-2.74,10.09-4.1.89-.36,1.79-.68,2.64-1.12,4.12-2.12,8.22-4.29,12.34-6.42,3.6-1.85,7.26-3.53,10.79-5.55,1.88-1.08,3.46-2.84,5.29-4.07,2.83-1.9,5.87-3.4,8.63-5.42,6.19-4.53,12.27-9.26,18.38-13.93,9.29-7.1,17.7-15.49,25.85-24.23,1.19-1.28,2.22-2.77,3.32-4.16-.1-.13-.2-.26-.29-.38-3.59,2.95-7.17,5.91-10.76,8.86,1.63-2.4,3.51-4.38,5.38-6.39,4.13-4.43,7.56-9.52,9.99-15.43,1.32-3.21,1.11-3.53-1.49-4.52.08-1.18.05-2.36.25-3.49.98-5.76-1.17-10.53-3.72-15-2.61-4.57-5.87-8.54-9.69-11.81-1.56-1.33-3.22-2.54-4.91-3.62-2.27-1.44-4.62-2.71-6.43-3.76.39-1.06.69-1.88.99-2.7-.17-.14-.34-.29-.52-.43-.92.53-1.84,1.05-2.78,1.59-1.48-1.19-.39-4.39-2.75-4.83-.14.11-.27.18-.35.28-1.92,2.58-2.56,2.46-3.69-.6-.11-.31-.46-.59-.75-.71-2.98-1.25-5.49-3.74-8.81-4.19-1.59-.22-3.05-1.62-4.66-1.98-4.73-1.05-9.49-2.01-14.27-2.71-5.83-.85-11.68-1.91-17.53-1.9-3.79,0-7.56-.73-11.45.04-4.07.8-8.34.21-12.53.23-.27,0-.53.05-.8.07-3.34.24-6.87,1.4-9.96.49-3.85-1.13-7.42.66-11.09.01-.33-.06-.75.64-1.13.98.38.31.74.84,1.13.88,1.05.1,2.15.18,3.17-.06,3.05-.7,6.07-1.25,9.15.05-2.62.71-5.26,1.19-7.9,1.69-6.82,1.28-13.61,2.7-20.02,5.91-3.07,1.54-6.39,2.53-9.23,4.48-1.87,1.28-3.71,2.02-5.72,2.77-5.23,1.94-10.34,4.31-15.49,6.53-.36.15-.67.44-1.07.71.32.75.58,1.37.79,1.88-.89.21-1.64.36-2.35.62-.06.02.02,1.17.17,1.22.77.25,1.62.56,2.36.39,1.5-.35,2.95-.97,4.42-1.52,1.92-.71,3.82-1.46,5.73-2.19.07.21.14.42.21.63-4.22,2.44-8.44,4.88-12.66,7.32.07.22.14.44.21.66.5.08.99.16,1.49.24.02.21.04.42.06.63-3.76-.93-6.63,1.18-9.67,3.72.28-2.78.52-5.2.79-7.93-3.7,1.19-7.1,2.2-10.45,3.42-.68.25-1.45,1.13-1.67,1.91-.5,1.84-.64,3.83-3.03,2.83-.17-.07-.46.27-.7.39-1.2.58-2.41,1.15-3.62,1.71-.42.19-.93.21-1.26.51-2.18,1.95-2.17,1.96-3.45-.83-.16-.35-.28-.72-.47-1.04-.63-1.06-1.21-1.25-1.68.17-.54,1.65-1.62,1.63-3.06,1.35,1.39-1.39,2.6-2.58,3.8-3.78-.15-.24-.3-.49-.44-.73-1.99,1.22-3.99,2.45-5.88,3.61-.94-2.44-.18-3.34,1.88-3.83,1.32-.31,2.45-1.65,3.67-2.53-.11-.21-.21-.43-.32-.64-.64.31-1.35.5-1.91.95-.88.69-1.61,1.08-2.44-.08-.2-.28-.69-.4-1.05-.41-1.76-.04-3.52-.02-5.28-.02-.04-.27-.08-.54-.11-.82,1.49-.92,2.97-1.84,4.44-2.75-1.39-1.03-4.9.73-6.21,2.83-1.03-.23-1.81-.51-2.6-.56-.83-.05-1.68.11-2.52.18v-.5c1.99-1.1,4-2.19,6.01-3.29-.04-.12-.08-.24-.11-.36h-1.97c.05-.47.09-.88.18-1.7-2.01,1.01-3.75,1.88-5.62,2.82.41.4.64.64.74.74-1.37.91-2.77,1.84-4.21,2.8.3.62.51,1.05.79,1.65-.78.24-1.42.43-2.24.68.13-1.51.24-2.81.34-4.03-1.61-.84-3.41-1.77-5.58-2.9,1.4-.75,2.69-.99,3.22-1.86.42-.7-.07-2.15-.16-3.4-3.84,1.99-7.23,4.02-11.07,4.34-.09-.27-.18-.53-.27-.8.85-.46,1.69-.92,2.54-1.38l-.1-.39c-1.22.3-2.44.6-3.66.89-.05-.18-.1-.37-.15-.55,1.44-.71,2.89-1.42,4.33-2.14-.08-.33-.16-.66-.24-.99-1,.15-2.15-.03-2.97.5-2,1.3-3.33.17-4.61-1.3-1.42-1.63-2.85-3.28-4.08-5.1-.95-1.41-2.02-3.03-2.26-4.71-.34-2.37.06-4.87.1-7.32,0-.53-.24-1.05-.29-1.59-.31-3.46-.61-6.91-.88-10.38-.03-.36.16-.75.29-1.11,1.05-3.15,3.08-5.31,5.5-6.95,3.81-2.58,7.55-5.77,12.3-4.84,3.43.67,6.36-.66,9.26-2.27,10.85-6,21.76-11.87,32.45-18.22,9.2-5.46,18.51-10.86,27.12-17.44,17.49-13.36,32.2-30.37,44.88-49.74,4.32-6.59,8.65-13.18,12.62-20.05,3.22-5.56,6.41-11.32,7.69-17.98,1.52-7.92,2.91-15.91,3.8-23.96.6-5.39.59-10.99-1.09-16.27-4.91-15.47-14.61-24.23-28.41-26.64-9.53-1.66-19.14-2.93-28.75-.4-.21.06-.47-.24-.72-.29-.76-.14-1.54-.35-2.3-.32-1.8.07-3.52.61-5.37.69-7.34.3-14.57,1.89-21.6,4.47-1.05.38-1.98,1.21-2.96,1.83.04.1.09.2.13.3,1.12-.12,2.24-.25,3.36-.37ZM189,421.17c-1.59,0-2.78-.15-3.94.05-.78.14-1.5.78-2.24,1.19.65.48,1.27,1.07,1.98,1.41.61.3,1.32.31,1.98.45-2.56.3-5.05.12-7.54-.09-.18-.02-.41-.12-.52-.27-1.3-1.83-2.68-.74-3.98-.08-.38.19-.81.95-.76,1.38.05.47.62,1.19.99,1.21,1.24.08,2.5-.11,3.81-.2-.46,1.79.65,2.47,2.01,2.78,1.7.38,3.44.51,5.13.95,1.94.51,3.84,1.22,5.75,1.87.8.27,1.57.63,2.35.95-.05.21-.1.42-.14.63-.59.24-1.17.47-1.76.71,2.88,1.21,5.42,3.48,8.68,3.06.89-.11,1.85.26,2.76.52,3.25.96,6.46,2.5,9.88.78.27-.14.66-.02.98.04,2.15.4,4.29,1.01,6.45,1.18,4.26.34,8.13,2.54,12.71,2.02,6.57-.76,13.28.13,19.93.35,2.05.07,4.11.21,6.16.37,2.72.22,5.43.51,8.14.72.71.05,1.43-.09,2.15-.14l-.03-.42c-.81-.4-1.61-.8-2.66-1.33,1.69-.61,3.93,1.61,4.36-1.74-1.7-2.41-6.19-.88-5.72-5.78,7-2.35,14.21,1.06,21.43-1.15-.32-.78-.52-1.26-.51-1.23,2.49-.28,5.04-.57,7.59-.86-.02-.28-.04-.56-.06-.83-.59,0-1.18-.03-1.77,0-4.02.26-8.03.6-12.05.75-1.24.05-2.99.07-3.63-.79-1.25-1.69-2.48-1.33-3.94-1.15-.73.09-1.51-.31-2.71-.59,1.32-1.22,2.14-1.97,2.95-2.72-1.31-1.91-1.03-2.77.84-3.24.84-.21,1.64-.65,2.45-.99-.06-.23-.11-.46-.17-.69-2.27.25-4.52.38-6.26-1.88.58-.4,1.02-.71,1.88-1.31-2.33-.32-4.13-.57-6.08-.84,2.62-2.18,3.32-2.1,5.56-.34.75.59,1.91.72,2.86.67,1.31-.08,2.6-.54,4.03-.87.1-1.74,1.14-1.98,2.58-2.2,2.85-.43,5.66-1.3,8.48-1.98-.04-.28-.08-.55-.12-.83-.81.09-1.61.17-2.42.27-4.8.62-9.59,1.37-14.41,1.82-2.6.24-5.41-.95-7.5,1.94-.16.23-.64.24-.95.21-2.42-.22-4.84-.66-7.26-.67-2.9-.02-5.81.17-8.69.56-2.14.28-4.22,1.07-6.34,1.54-1.51.33-3.05.51-4.57.76-2.58.42-5.15.95-7.74,1.22-5.62.57-11.26.95-16.88,1.49-3.47.33-6.93.89-10.4,1.21-2.78.26-5.57.37-8.36.42-1.19.02-2.38-.3-3.56-.46.01-.32.03-.65.04-.97.96-.19,1.91-.38,2.87-.58,0-.11,0-.21,0-.32-1.57-.3-3.13-.6-5.05-.96.4,1.21.58,1.76,1,3.03ZM319.08,417.52c.08.24.16.47.24.71-1.32.78-2.65,1.56-4.11,2.42.81.56,1.38.96,2.39,1.66-7.69,2.79-15.1,3.96-22.55,4.89.03.25.05.51.08.76,1.12-.11,2.25-.21,3.41-.32.54,1.68,1.65,1.96,3.04,1.39,3.01-1.25,6.34-1.42,9.08-3.64.41-.33,1.01-.36,1.53-.5,3.24-.92,6.49-1.77,9.71-2.78.86-.27,1.61-1.03,2.4-1.56-.08-.2-.15-.41-.23-.61-1.03.21-2.06.42-3.09.63,1.63-1.08,3.15-3.13,5.14-.79.21.25.93.12,1.31-.08,2.28-1.22,4.67-2.26,6.75-3.86,1.16-.9,1.88-1.79,3.44-1.08.79.36,1.92-.28,2.89-.47-.02-.15-.04-.3-.06-.45-.65-.23-1.31-.46-2.46-.88,1.39-.73,2.31-1.21,3.33-1.74-.49-.39-.82-.66-1.26-1,4.42-2.31,8.61-4.58,13.67-4.29-1.1.8-2.02,1.47-3.33,2.42,2.63.94,3.43-1.48,4.87-2.18.23-.11.03-1.4.03-2.22.3-.08.81-.08,1.18-.34,1.99-1.38,3.85-3.13,6.44-2.38.28.08.69-.38,1.02-.63,2.15-1.59,4.25-3.3,7.02-2.96.42.05.91-.43,1.34-.72.67-.47,1.29-1.08,1.99-1.48,1.8-1.03,3.6-2.08,5.47-2.93,2.18-.99,2.64-3.84,4.32-5.22,3.42-2.81,7.04-5.3,10.53-8.01,2.63-2.04,5.18-4.22,7.76-6.34-.09-.31-.17-.62-.26-.94-.85-.04-1.78-.37-2.54-.08-3.92,1.46-7.8,3.07-11.68,4.67-.41.17-.75.61-1.12.92-1.4,1.15-2.73,2.49-4.25,3.36-.6.34-1.96-.03-2.4-.64-1.07-1.51-2.19-1.62-3.56-.96-3.87,1.88-7.73,3.77-11.59,5.68-.05.03-.03.26-.05.46.47-.04.92-.08,1.44-.13-1.89,2.09-3.65,4.04-5.42,5.99.11.19.21.39.32.58,3.72-.27,6.59-3.39,10.02-4.62.08.19.17.38.25.57-4.19,2.8-8.38,5.59-12.92,8.62.73-2.39.65-2.65-.93-2.43-.91.12-1.78.76-2.64,1.21-1.66.87-3.32,1.74-4.95,2.67-1.71.97-3.38,2.06-5.11,2.99-.63.34-1.39.36-2.09.53-.09-.32-.18-.65-.26-.97,3.1-1.83,6.19-3.67,9.5-5.63-.95.07-1.77-.04-2.49.23-2.09.78-4.42,1.26-6.15,2.68-3.25,2.68-6.93,2-10.44,2.6-.6.1-1.31-.6-1.97-.93.05-.24.1-.47.15-.71,3.01-1.39,6.02-2.78,9.02-4.17-5.27-.44-10.65,1.52-15.88-1.23,2.79.57,5.25-.36,7.5-2.05.71-.54,1.3-1.32,1.88-2.05,1.97-2.48,4.58-2.9,6.95-3.54.71-.88,1.42-1.77,2.53-3.16-3.31,1.47-6.18,2.56-8.9,4-3.39,1.8-6.62,4.04-10.49,4.15-.46.01-.98.07-1.36.34-3.91,2.71-8.86,1.75-12.65,4.86-.84.69-1.74,1.3-2.62,1.94.07.23.15.47.22.7.84.32,1.68.65,2.52.97l-.12.64c-1.02-.09-2.33.25-3.02-.35-2.61-2.27-4.68.19-6.94.78-.44.12-.78.78-1.36,1.4,1.27-.21,2.12-.47,2.97-.44.49.02.97.51,1.45.79-.37.37-.69.86-1.12,1.09-2.65,1.43-5.32,2.8-7.98,4.19.04.09.07.19.11.28.88-.15,1.76-.29,2.64-.44.03.17.07.35.1.52-1.78.61-3.56,1.22-5.34,1.83.06.28.12.56.18.83,2.89.45,6.18.62,8.37-1.27,2.43-2.1,5.75-1.14,7.7-3.97.08-.12.48-.13.57-.02,1.72,2.17,3.76.91,5.41.26,2.95-1.16,4.78,1.37,7.22,2.51-1.28.65-2.56,1.31-3.84,1.96.03.2.06.39.1.59h2.13c-.72.8-1.54,1.16-2.39,1.31-2.03.35-4.1.41-6.09.95-2.62.71-2.68.79-2.88-2.16q-5.61-.58-7.3,1.15c1.29.41,2.56.82,4.22,1.35-.95.94-1.49,1.48-2.12,2.1.87.23,1.54.4,2.2.57.02.23.04.46.06.69-2.93,1.08-5.87,2.17-8.8,3.25-.08-.23-.16-.45-.24-.68,1.31-.71,2.62-1.42,4.3-2.32-4.5-1.33-7.31,1.07-10.11,4.53h5.49c0,.17,0,.35.01.52-1.14.37-2.29.73-3.43,1.1.07.32.14.63.21.95,2.83-.43,5.65-.86,9.01-1.36-.69-.59-.89-.75-1.08-.92-.48-.43-.95-.87-1.42-1.3.54-.4,1.12-1.19,1.61-1.12,1.21.16,2.38.71,3.56,1.1-.32.75-.49,1.14-.85,1.96,5.4-2.7,10.53-4.5,15.97-4.72ZM338.55,94.17c1.57.78,1.89-.3,2.07-1.84.15-1.3.28-2.78.9-3.78,1.57-2.58.79-4.75-.46-7.33-.23,1.34-.4,2.36-.57,3.37-.25-.03-.49-.05-.74-.08.12-1.56.21-3.12.38-4.67.17-1.5.7-3,.61-4.47-.14-2.26-.66-4.49-.91-6.07-.68-.76-1.09-1.14-1.42-1.59-.55-.76-1.38-2.33-1.53-2.24-1.08.63-2.75,1.46-2.87,2.46-.54,4.35-.62,8.77-.87,13.17.32-.07.63-.14.95-.21.15.63.46,1.26.44,1.87-.12,2.93-.91,5.87.13,9.31.71-2.2,1.26-3.89,1.82-5.63.64,2,1.23,3.83,1.67,5.22-.32,1.72-.61,3.25-.9,4.79.28.07.56.14.84.22.14-.78.28-1.55.44-2.5ZM327.5,37.61c-.21.2-.41.4-.62.6.94,2.32,1.78,4.71,2.85,6.95.87,1.83,2.74,2.39,4.01,3.97,3.16,3.93,4.97,8.19,5.29,13.49.05.77.62,1.72,1.19,2.19,1.44,1.19,1.3,4.06,3.49,4.37,1.11,4.22,2.21,8.44,3.35,12.65.12.44.47.8.72,1.19.28-.46.83-.96.78-1.36-.21-1.52-.53-3.04-.96-4.5-.51-1.73-1.03-3.32-.11-5.16.33-.66.23-2.42-.07-2.56-2.28-1.11-1.89-4.25-3.34-5.76-2.04-2.12-2.21-5.09-3.18-7.69-.91-2.43-1.71-4.94-2.76-7.29-.54-1.2-1.41-2.85-2.32-3.03-1.75-.36-2.19-1.75-2.84-3.12-1.24-2.62-3.49-3.53-5.46-4.94ZM169.34,436.7c3.59.92,6.99,2.06,10.45,2.61,3.48.55,6.9,2.34,10.57,1.3-1.99-1.55-3.99-2.98-6.16-3.81-2.71-1.03-5.56-1.6-8.36-2.29-.63-.15-1.42-.25-1.95.07-1.38.81-2.63,1.32-3.8-.91-.29,1.16-.46,1.88-.75,3.02ZM298.71,153.22c-2.19-2.26-6.6-1.79-7.06-.05,1.16,1.01,2.16,1.87,3.11,2.7-.48,2.33-1.3,3.2-3.06,1.53-.29-.27-.93-.04-1.9-.04,2.97,3.09,6.75,3.93,7.23,1.92-.33-.2-.68-.41-1.22-.73,1.25-1.63,4.07-.15,4.19-3.75-1.27.09-2.51.18-4.26.31,1.26-.81,2.09-1.34,2.97-1.9ZM390.81,272.58l.39-.45c-.82-1.16-1.48-2.58-2.49-3.42-3.7-3.06-7.45-6.05-11.31-8.83-2.23-1.61-4.7-2.78-7.05-4.14-.11.26-.22.52-.33.79,2.09,1.35,4.29,2.53,6.25,4.1,3.12,2.49,6.56,4.78,8.97,8.05,1.71,2.32,3.73,2.64,5.58,3.91ZM374.47,362.9c-5,5.11-11.97,6.48-17,12.04,2.7.8,15.95-8.56,17-12.04ZM262.81,186.31c1.75,1.54,1.16,2.34-.44,3.04-.51.23-.85,1.01-1.26,1.53.21.22.42.44.62.67,1.09-1.09,2.2-2.17,3.28-3.28.95-.99,1.75-2.22,2.81-2.99,2.38-1.74,2.45-1.68,2.6-3.02-.95.09-1.99.44-2.93.21-1.67-.42-2.81.25-3.92,1.62.49.4.87.71,1.42,1.16-.84.41-1.44.71-2.17,1.07ZM186.24,415.67c-2.56-.29-4.94-.63-7.33-.76-.53-.03-1.09.69-1.63,1.07.38.58.67,1.32,1.16,1.7.66.51,1.47.74,2.21,1.11,1.54.77,4.77-.89,5.59-3.12ZM325.26,159.3c1.68.69,2.68.14,3.12-1.71-.65.16-1.29.32-2.51.63,1.07-1.49,1.74-2.42,2.42-3.36-.1-.12-.21-.23-.31-.35-2.71,2.29-5.42,4.57-8.25,6.96,2.94,1.89,5.13.9,5.54-2.16ZM294.28,193.99c-.15-.22-.3-.44-.44-.66-4.07,3.68-8.15,7.36-12.61,11.39,4.09-1.26,11.67-7.65,13.05-10.73ZM216.13,457.9c.16.21.31.42.47.62,1.82.28,3.64.66,5.47.79.88.06,1.8-.27,2.66-.59.23-.09.42-.77.4-1.17,0-.22-.46-.57-.73-.6-2.13-.23-4.27-.53-6.41-.51-.62,0-1.24.95-1.86,1.46ZM335.86,102.16c-.17-.06-.33-.12-.5-.17-1.47,3.51-2.98,7-4.36,10.56-.2.5.19,1.32.31,1.99.5-.28,1.31-.44,1.44-.87,1.11-3.81,2.09-7.67,3.11-11.51ZM228.49,455.3c-1.04-2.62-11.22-4.04-13.42-2.49,4.49.83,8.95,1.66,13.42,2.49ZM301.37,203.01c-2.33-.99-5.59.26-7.43,2.73,3.55,1.43,6.04.56,7.43-2.73ZM382,377.29c3.44.95,5.06-3.36,8.03-3.21-2.47-1.7-5.72-.37-8.03,3.21ZM247.82,198.02c.21.29.43.58.64.87.98-.74,2.04-1.39,2.91-2.28.32-.32.46-1.37.25-1.8-.22-.45-1.16-.94-1.44-.74-1.38.98-2.64,2.17-3.95,3.29l.38.57c.82-.47,1.64-.93,2.45-1.4.15.23.29.46.44.68-.56.27-1.13.53-1.69.8ZM290.09,203.58c.11.21.22.42.33.62,3.44.37,4.62-3.47,6.93-5.22-.12-.22-.24-.44-.35-.66-2.3,1.75-4.6,3.5-6.91,5.25ZM205.16,450.63c2.82.34,4.21,4.12,7.18,2.87-4.18-3.65-5.02-4.02-7.18-2.87ZM269.68,456.26c-1.2-1.69-3.87-2.24-6.25-1.12,1.26.88,2.4,1.67,3.26,2.28,1.15-.45,2.08-.81,2.99-1.16ZM197.43,282.88c-.83-.63-1.34-1.29-1.6-1.17-1.23.54-2.39,1.3-3.78,2.1.59.72,1,1.24,1.44,1.77.65-.62,1.08-1.13,1.58-1.47.56-.39,1.19-.62,2.37-1.22ZM278.03,182.8c-1.96,1.55-3.92,3.09-5.88,4.64.15.24.3.49.45.73,2.62-.56,4.09-2.93,5.43-5.37ZM346.97,380.91c2.11,1,3.41.37,4.52-.8.31-.33.21-1.2.3-1.82-.17-.11-.34-.22-.51-.33-1.31.89-2.61,1.79-4.31,2.95ZM262.13,247.61c.04.27.08.54.13.8,1.71-.46,3.42-.92,5.27-1.41-1.45-1.66-3.39-1.37-5.39.61ZM306.68,178.42c.21.31.42.62.62.93,2.28-.73,2.53-4.08,4.69-4.98-.19-.25-.37-.49-.56-.74-1.58,1.6-3.17,3.19-4.75,4.79ZM391.78,419.24c-.05-.24-.11-.49-.16-.73-1.91-.41-3.78-.68-5.39,2.06,2.12-.51,3.84-.91,5.55-1.32ZM301.18,424.46l.21.88c2.56-.64,5.12-1.29,7.69-1.93-.04-.21-.09-.42-.13-.62-2.59.56-5.18,1.11-7.77,1.67ZM187.56,274.61c.12.33.24.66.35.99,1.7-.84,3.4-1.69,5.1-2.53-.13-.36-.25-.71-.38-1.07-1.69.87-3.39,1.74-5.08,2.61ZM240.89,211.44c-.07-.31-.15-.62-.22-.93-1.78.55-3.56,1.11-5.34,1.66.09.37.17.73.26,1.1,1.76-.61,3.53-1.23,5.29-1.84ZM349.61,409.81c-.16-.4-.33-.81-.49-1.21-1.24.78-2.48,1.55-3.73,2.33.11.27.23.55.34.82,1.29-.65,2.58-1.29,3.87-1.94ZM230.5,443.54c-.04.34-.09.68-.13,1.02,1.41.29,2.82.58,4.23.87.05-.35.09-.71.14-1.06-1.41-.28-2.83-.56-4.24-.83ZM256.01,461.59c1.47.61,2.55,1.06,4,1.66-.89-2.31-1.23-2.43-4-1.66ZM304.11,191.44c-.18-.22-.35-.44-.53-.66-.96,1.05-1.92,2.1-2.88,3.15.18.23.36.45.54.68.96-1.06,1.91-2.11,2.87-3.17ZM201.46,416.03c-1.44.17-2.41.29-3.37.41,1.05,1.12,2.09,2.49,3.37-.41Z"/>
  <path class="cls-1" d="M354.32,132.19c-1.19,2.03-2.31,4.12-3.64,6.03-.28.41-1.3.12-1.98.15.11-.7.08-1.49.36-2.07.7-1.39,1.45-2.79,2.38-3.97.47-.6,1.38-.75,2.09-1.1.26.32.53.64.79.96Z"/>
  <path class="cls-1" d="M334.92,165.33c2.24-.67,4.48-1.34,6.72-2,.1.3.2.61.3.91-1.15.78-2.28,1.62-3.47,2.32-1.53.91-3.12,1.67-4.65,2.56-.77.45-1.44,1.1-2.21,1.56-.11.07-.47-.44-.71-.67,0,0-.02.03-.02.03,2.09-.72,3.32-2.44,4.06-4.73l-.03.03Z"/>
  <path class="cls-1" d="M291.17,461.96c-1.99,1.71-7.16,1.63-9.07,0h9.07Z"/>
  <path class="cls-1" d="M321.44,455.59c-2.1.28-3.67.92-5.44-.17,1.85-1.79,3.26-1.8,5.44.17Z"/>
  <path class="cls-1" d="M453.39,271.57c-.31-.75-.61-1.5-.94-2.29,2.1.22,3.61,2.84,3.01,5.56-.77-1.2-1.43-2.25-2.1-3.3,0,0,.02.03.02.03Z"/>
  <path class="cls-1" d="M402.32,412.03c1.51-1.86,3.14-2.87,5.18-.68-1.73.23-3.46.45-5.18.68Z"/>
  <path class="cls-1" d="M292.91,462.23c1.8.09,3.59.19,5.57.29-1.47,1.62-3.6,1.59-5.57-.29Z"/>
  <path class="cls-1" d="M446.51,260.83c.37,1.03.66,1.83.94,2.63-.13.1-.26.19-.39.29-.71-1.15-1.42-2.31-2.47-4,1.56.11,2.67.18,3.78.26,0,.28,0,.55,0,.83h-1.86Z"/>
  <path class="cls-1" d="M332.79,177.41c.93-.87,1.86-1.75,3.14-2.95.04,3.11-1.68,2.84-2.77,3.49-.13-.18-.25-.36-.38-.55Z"/>
  <path class="cls-1" d="M288.43,180.48c.49-.19.99-.39,1.74-.68-1.25,4.06-4.57,5.13-6.43,7.95-.16-.17-.31-.35-.47-.52,1.28-1.87,2.56-3.75,3.84-5.62.44-.38.88-.75,1.32-1.12Z"/>
  <path class="cls-1" d="M207.62,36.97c1.47-.62,2.93-1.29,4.41-1.85,1.17-.44,2.38-.76,3.66-.76-2.61,1.21-5.27,2.21-8.1,2.59,0,0,.02.03.02.03Z"/>
  <path class="cls-1" d="M238.48,435.76c-4.43.62-8.85,1.24-13.28,1.86-.05-.18-.1-.36-.15-.55.16-.16.32-.33.5-.46.16-.12.34-.19.84-.47-4.47-1.35-9.01,1.36-13.03-2,.71-.04,1.42-.13,2.13-.1,2.03.08,4.05.17,6.08.35,1.73.15,3.48.26,5.15.71,1.87.5,3.69,1.51,5.29-.64.07-.1.25-.15.37-.14,2.02.23,4.03.48,6.05.73.02.24.04.47.06.71Z"/>
  <path class="cls-1" d="M242.6,432.92c1.19-1.58.55-4.54,3.36-4.6,1.16-.03,2.39-2.73,4.49-2.18-.43.72-.88,1.47-1.41,2.36.56.39,1.04.72,1.52,1.06-.11.16-.17.34-.27.38-2.56,1.01-5.12,2-7.69,3Z"/>
  <path class="cls-1" d="M245.56,417.94c2.19-.49,4.39-.98,6.58-1.47.05.36.11.73.16,1.09-2.22.51-4.43,1.01-6.65,1.52-.03-.38-.07-.76-.1-1.14Z"/>
  <path class="cls-1" d="M320.07,416.45c5.85-1.9,10.79-6.64,17-7.41.09.27.17.53.26.8-5.63,2.58-11.26,5.17-16.89,7.75-.12-.38-.25-.76-.37-1.13Z"/>
  <path class="cls-1" d="M366.47,394.74c-2.2,3.28-5.09,4.92-7.71,4.55,2.75-1.62,5.23-3.09,7.71-4.55Z"/>
  <path class="cls-1" d="M306.54,417.14c2.09-.52,3.93-.98,5.99-1.5-1.74,1.99-4.35,2.66-5.99,1.5Z"/>
  <path class="cls-1" d="M329.37,400.94c-3.33.8-3.81.54-3.45-1.56,1.06.48,2.12.96,3.45,1.56Z"/>
  <path class="cls-1" d="M355.2,402.63c-1.15.7-2.29,1.4-3.44,2.1-.14-.32-.27-.63-.41-.95,1.16-.66,2.32-1.33,3.48-1.99.12.28.24.56.37.85Z"/>
  <path class="cls-1" d="M306.73,154.97c2.48-3.46,4.95-6.92,7.45-10.35.28-.39.77-.59,1.16-.87.04.55.27,1.2.09,1.62-.54,1.24-1.14,2.48-1.91,3.53-.84,1.15-1.34,2.07-.25,3.41.36.45.33,1.33.52,2.24.69-.63,1.49-1.36,2.29-2.09.08.07.16.13.24.2-.51,1.09-1.01,2.18-1.52,3.28-1.47.55-2.95,1.11-4.57,1.72-.02-.14-.02-.49-.11-.8-.16-.55-.37-1.08-.56-1.61-.46.24-.94.43-1.36.73-.63.46-1.21,1.01-1.81,1.51-.18-.23-.37-.46-.55-.69.3-.61.6-1.22.9-1.83Z"/>
  <path class="cls-1" d="M302.69,159.35c.8,2.16,1.25,4.31-1.45,5.28.54-1.94.99-3.61,1.45-5.28Z"/>
  <path class="cls-1" d="M274.28,204.36c-1.1.79-2.2,1.58-3.59,2.58.21-2.37,1.05-2.98,3.59-2.58Z"/>
  <path class="cls-1" d="M290.58,184.82c.84-1.21,1.69-2.43,2.53-3.64.19.17.38.33.57.5-.76,1.29-1.52,2.59-2.29,3.88-.27-.24-.54-.49-.81-.73Z"/>
  <path class="cls-1" d="M276.72,170.02c1.13-.44,2.18-.84,3.44-1.32-1.04,1.94-2.49,2.49-3.44,1.32Z"/>
  <path class="cls-1" d="M158.85,430.47c.1.78.2,1.56.3,2.33-1.2.2-2.41.41-3.61.61-.08-.31-.17-.62-.25-.93,1.2-.66,2.39-1.33,3.59-1.99,0,0-.03-.03-.03-.03Z"/>
  <path class="cls-1" d="M146.38,426.97c-.61.32-1.21.66-1.85.9-.04.02-.3-.72-.46-1.1.61-.34,1.22-.67,1.83-1.01.16.4.32.81.48,1.21Z"/>
  <path class="cls-1" d="M154.54,418.36c1.13.2,2.25.4,3.38.61-.02.22-.03.44-.05.66-1.14-.09-2.29-.18-3.43-.27.04-.33.07-.66.1-.99Z"/>
  <path class="cls-1" d="M324.36,121.55c1.07-3.48,2.14-6.96,3.21-10.45,1.07,2.03-.98,9.18-2.52,10.73-.23-.09-.46-.19-.68-.28Z"/>
  <path class="cls-1" d="M322.51,127.11c.62-1.45,1.24-2.9,1.85-4.34.19.12.39.23.58.35.4,2.05-1.13,2.97-2.44,4Z"/>
  <path class="cls-1" d="M317.74,137.89c.81-1.21,1.62-2.42,2.43-3.63.17.15.35.3.52.44-.77,1.24-1.54,2.48-2.3,3.73-.22-.18-.44-.36-.65-.54Z"/>
</svg>