<?xml version="1.0" encoding="UTF-8"?>
<svg id="Layer_1" data-name="Layer 1" xmlns="http://www.w3.org/2000/svg" viewBox="0 0 391.05 496.58">
  <defs>
    <style>
      .cls-1 {
        fill: #000;
        stroke-width: 0px;
      }
    </style>
  </defs>
  <path class="cls-1" d="M357.15,419.05c-2.54,1.41-5.86-2.76-8.15,1.24,1.12,3.61,5.56.54,7.45,3.65-13.34,10.78-28.41,18.65-44.45,24.76-8.01,3.05-16.25,5.36-24.62,7.15-3.35.72-8.5,2.7-11.89,2.24-4.16-.56-3.23-1.83-3.23-5.85-.96.15-1.75.28-2.84.45.58.69.92,1.08,1.12,1.31-5.99.61-12.03,1.23-18.39,1.88-.04.11-.25.7-.61,1.71-2.87-3.87-7.29,1.91-10.17-2.23-2.23,1.57-4.67,2.31-7.61.49,1.19-.56,2.37-1.12,4.02-1.9-1.09-.73-1.98-1.33-2.86-1.92-.05.28-.1.56-.15.83-3.55.2-6.88-.5-9.12,2.94-.59-.84-.99-1.41-1.64-2.33-1.9,4.71-7.12,3.26-11.24,3.26-3.06,6.27-2.63.34-5.36-1.5-3.93-2.63-9.64,1.57-12.42,3.79.17-1.95.26-2.98.37-4.21-2.64-.69-5.15-1.27-6.53,2.04-4.88-3.87-12.63-1.68-17.08,1.26-4.71,3.1-9.58,4.61-14.72,7.35-1.09-.48-1.75-1.93-2.87-2.28-1.95-.6-2.54.93-3.9.77-3.05-.36-5.77-2.52-9.04-3.05-2.64-.43-6.34-1.56-8.85-1.64-4.54-.14-2.83.5-5.55,4.02-3.62,4.67-8.01,6.16-12.75,8.56-3.55,1.8-4.92,1.89-8.56,2.66-3.22.68-3.34,1.03-5.07,4.48,3.79,1.82,6.53-.07,10.79-.07-5.8,3.76-13.68,8.75-20.28,10.85-3.76,1.2-6.03,1.27-9.41-.34-2.44-1.16-2.69-2.74-5.14-.39.76.68,1.52,1.37,2.34,2.1-.89.68-3.1,2.95-4.41,2.84-2.19-.18-1.57-2.25-3.27-2.63-2.95-.67-6.8,1.96-9.72,2.39-5.51.81-10.87.53-16.45,1.69-4.84,1.01-7.56,1.72-12.42.58-4.11-.96-5.46-1.62-6.38-6.07-.83-4.02.15-4.13-3.83-6.3-3.06-1.66-4.62-2.51-7.97-.95-4.71,2.2-2.68,2.19,1.49,2.69-2.1,1.66-3.58,2.83-5.02,3.97-3.48-3.82-3.73-5.31-2.09-6.79-7.13-26.59-9.2-54.81-6.93-82.22-1.88-1.33-1.07-3.43.83-5.39-3.24-4.5-1.25-9.7-1.39-14.72-.16-6.03-.77-11.92-.58-18.02.38-12.51,1.3-25,1.75-37.51.44-12.15.78-24.32.75-36.47-.04-12.13-2.27-24.14-2.87-36.27-1.2-24.3,2.35-49.03,5.31-73.09,2.96-24.07,3.37-48.21,4.74-72.4.65-11.57,1.18-23.25,3.28-34.67,2.4-13.04,7.31-24.25,13.4-35.91,4.97-9.53,9.64-14.54,19.6-19.36,4.77-2.31,9.01-3.04,14.12-3.82,5.77-.87,9.02-4.18,13.84-6.92C84.22.29,93.92,1.27,104.38.21c10.52-1.07,19.6,2.18,29.63,5.74,22.36,7.92,39.65,24.67,57.6,39.65,20.1,16.76,40.99,34.28,55.89,56.06,6.87,10.05,13.75,20.14,19.12,31.09,4.91,10,12.77,25.01,9.76,36.17,2.91,1.12,1.29,3.7,1.29,5.87,0,3.74.69,7.2.91,10.92.4,6.93-1.37,14.61-2.41,21.58-2.19,14.81-5.96,28.44-12.83,41.78-2.7,5.23-9.97,12.98-5.62,17.7,2.1,2.27,8.02,3.8,10.85,5.13,3.62,1.7,7.25,3.39,10.89,5.05,14.72,6.74,29.49,13.45,44.63,19.21,22.88,8.7,57.7,17.99,64.74,45.1,3.94,15.14,2.55,30.4-3.65,44.73-2.8,6.46-6.41,12.48-10.74,18.02-4.22,5.41-10.17,14.52-16.41,17.43-.27-.72-.54-1.44-.89-2.37ZM239.74,348.08c1.98-.63,3.95-1.27,5.93-1.9l.25.75c-1.58,1.17-3.15,2.34-4.73,3.51.17.31.34.63.51.94.98-.28,1.96-.56,3.06-.87,1.71,4.04-5.5,3-7.47,3-.04.48-.07.97-.11,1.45,2.41.22,4.82.44,6.74.61,1.48-.99,2.66-1.77,3.84-2.56.34.27.67.54,1.01.81-1.41,2.48-2.43,4.45-3.03,7.22,7.05-.82,8.93-6.72,11.86-12.42h-.24c.59-2.72,1.17-5.43,1.74-8.06-2.3.26-5.58.06-7.71,1.06-1.32.62-1.88,1.93-3.16,2.54-4.52,2.17-6.76-2.19-11.33.53,1.65.23,2.55.35,3.65.5-.3,1.11-.55,2.02-.8,2.94-1.42-.92-5.14,1.18-4.03-2.85-3.69-.66-6.95-1.65-10.49-2.92l-.28.56c1.2,1.57,2.4,3.15,3.76,4.93,4.4-1.32,6.43,1,11,.24ZM136.94,356.51c-6.2-.67-15.83-4.14-16.62,4.03-.81,8.33,1.61,17.86,2.11,26.25.3,5.14-2.49,18.17,2.97,19.84,6.52,1.99,12.37-4,17.46-6.24,3.26-1.44,7.9-.76,11.4-1.26,4.55-.65,9.08-1.58,13.6-2.39,9.1-1.61,18.24-2.92,27.34-4.5,9.1-1.58,18.26-3.47,26.95-6.65,8.59-3.14,7.61-6.01,5.92-14.02.27-.19.53-.38.8-.57,3.91,2.92,14.13,6.71,16.78.29-.83-1.12-1.64-2.23-2.29-3.11,2.19-2.08,4.05-3.85,5.91-5.62-4.01,2.1-6.8-1.27-10.06-2.1-1.54,4.73-1.79,4.94-6.04,4.58.9,1.23,1.57,2.13,2.66,3.62-2.03.71-3.82,1.33-6.39,2.23.75-1.65,1.07-2.37,1.45-3.2-2.81-2.21-5.48-4.31-8.34-6.57.37-4.62-2.9-6.7-7.14-7.9.33-1.13.58-1.99,1-3.41-2.99,1.44-4.76,5.96-8.45,2.04-.51,1.07-.9,1.91-1.08,2.28-2.02.33-3.69.61-5.36.89.01.45.02.91.03,1.36,1.4.18,2.8.36,4.38.56-2.54,4.71-7.64.47-9.2-2.76,1.4-.68,2.82-.71,4.26-.09.1-.33.2-.67.31-1-4.77-1.73-10.1-1.22-14.73-3.28-1.56-.7-3.1-2.69-4.83-2.7-2.32,0-5.21,3.74-7.16,2.53.54-.63,1.05-1.24,2.03-2.39-2.83-1.62-10.09-6.72-13.27-5.19-2.34-1.25-5.96-4.03-8.58-4.13-3.18-.12-8.4,2.4-11.81,2.95.32-.48.85-1.28,1.64-2.48-2.75.76-5.64-.64-3.52-3.52.46.78.92,1.57,1.48,2.52,1.11-1.36,2.28-2.79,3.9-4.78-4.78.24-9.76,1.04-14.41.44-.84-.11-3.85-3.47-4.2-.21-.3,2.77,4.84,4.24,6.55,5.03-1.53,3.28.68,3.74-2.69,6.29q12.04,3.63,12.5,6.85c-2.69,1.32-6.93.51-7.27,5.47ZM119.87,215.12c.15,0,.29,0,.44,0,0,3.86-1.08,9.84-.05,13.47.96,3.36,1.12,3.05,4.96,3.21,5.77.25,16.89,1.54,21.69-2.13,5.12-3.92,8.71-14.71,9.77-20.73,1.38-7.81-.8-15.58-4.46-22.48-2.61-4.91-24.55-31.93-29.92-24.73-1.76,2.36-.79,9.3-.9,12.01-.16,4.24-.32,8.48-.48,12.72-.35,9.54-.7,19.09-1.05,28.63ZM345.73,420.16c-.61.81-1.12,1.48-1.36,1.8.54,1.69.96,3.03,1.38,4.36-.23.07-.47.15-.7.22-.76-.69-1.52-1.38-2.64-2.39-.76,1.69-1.35,3.01-1.94,4.33-.11-.2-.23-.4-.34-.59-1.93,1.3-3.86,2.6-5.79,3.9,2.64.69,10.37-1.62,12.37-2.9,4.77-3.06,2.8-6.38-.97-8.73ZM279.01,450.34c-1.97,1.01-3.41,1.75-5.06,2.59,0,3.22,4.74,1.44,6.26.97-.42-1.25-.84-2.49-1.2-3.56ZM8.27,470l.83.13c.36-.71.73-1.41,1.09-2.12,7.01,1.33-1.13-6.84-1.92,1.99ZM147.69,334.97c3.41,2.66,4.34,2.5,4.82-.5-1.13-.71-2.22-1.38-3.5-2.19-.43.89-.89,1.81-1.32,2.69ZM339.71,417.78c-2.24-.67-3.26-4.08-6.64-.8,2.56-.18,3.4,3.34,6.64.8ZM323.58,438.46c2.91,2.57,2.73,2.21,5.64-.38-.18-.26-.37-.53-.55-.79-1.33.3-2.66.61-5.09,1.16ZM71.85,485.39c3.61,1.51,5.53,1.2,7.75-1.36-2.79.49-4.94.87-7.75,1.36ZM251.77,331.7c-.05.36-.1.72-.15,1.07q3.9,2.14,5.38.21c-1.84-.45-3.53-.87-5.23-1.28ZM223.82,357.69c2.36,3.57,2.89,3.81,5.99,2.89-1.88-.91-3.74-1.8-5.99-2.89ZM3.29,369.72l1.38.08v-5.87c-.17,0-.33,0-.5,0-.3,1.93-.59,3.86-.89,5.79ZM134.12,350.42c.03.31.06.61.1.92,1.11.39,2.21.77,3.32,1.16l.54-.64c-1.46-2.04-1.52-2.03-3.95-1.44ZM271.91,449.47c.15.4.29.8.44,1.2,1.94.68,2.67-1.1,3.72-2.22-.12-.26-.24-.52-.36-.78-1.26.6-2.53,1.2-3.79,1.8ZM85.76,484.77c-2.07-1.78-3.82-.38-2.32,1.88.67-.55,1.35-1.09,2.32-1.88ZM235.4,361.46c.28.02.56.03.83.05.53-2.59.41-2.5-2.05-3.5-.16.22-.32.44-.49.66.57.93,1.13,1.86,1.7,2.79ZM222.75,334.79c-.03-.51-.06-1.01-.09-1.52-1.19.13-2.39.26-3.58.39.04.48.09.97.13,1.45,1.18-.11,2.36-.21,3.53-.32ZM200.84,341.52c.03-.19.06-.39.08-.58-3.09-.17-3.34-.26-5.18,2.18,2.24-.7,3.67-1.15,5.1-1.6Z"/>
  <path class="cls-1" d="M258.05,459.71c2.72-1.34,11.14-5.13,12.27-1.07-4.15.64-8.13,1.25-12.12,1.87-.05-.27-.1-.53-.15-.8Z"/>
  <path class="cls-1" d="M116.63,476.17c3.04,2.2.7,5.5-2.53,5.08.91-1.83,1.63-3.27,2.53-5.08Z"/>
  <path class="cls-1" d="M250.3,459.59h5.16c.01.38.02.75.04,1.13-1.7.09-3.41.19-5.11.28-.03-.47-.05-.94-.08-1.41Z"/>
  <path class="cls-1" d="M238.07,462.78c-3.85.41-7.71.82-11.56,1.24-.02-.25-.05-.51-.07-.76,3.84-.4,7.67-.8,11.51-1.2.04.24.08.48.13.73Z"/>
  <path class="cls-1" d="M236.54,367.23c1.52-1.64,2.59-2.8,3.67-3.95.57,2.78-.43,4.04-3.67,3.95Z"/>
  <path class="cls-1" d="M136.39,342.19c.66-.99,1.33-1.98,1.99-2.98,1.31,1.7.24,2.08-1.08,3.67-.3-.23-.6-.46-.91-.69Z"/>
</svg>