<?xml version="1.0" encoding="UTF-8"?>
<svg id="Layer_1" data-name="Layer 1" xmlns="http://www.w3.org/2000/svg" viewBox="0 0 375.89 500">
  <defs>
    <style>
      .cls-1 {
        fill: #000;
        stroke-width: 0px;
      }
    </style>
  </defs>
  <path class="cls-1" d="M82.86,206.18c2.69,5.24,4.72,6.14,9.51,4.9,2.48-.65,5.07-.66,7.85-.98.01,2.5.24,4.29-2.15,4.53-.38.04-.66,1.45-.64,2.51,2.62-1.32,4.66-2.78,7.07.22.52.65,3.05-.82,4.59-1.5.17-.07.08-2.04-.2-2.16-1.32-.57-2.74-.85-4.15-1.1-.26-.05-.6.52-.99.89-.23-.55-.49-1.03-.43-1.08,2.67-2.68.01-4.64-.79-6.67-.87-2.2-2.49-1.59-4.28-1.29-1.32.22-2.86-1.37-4.9-2.48,1.75-1.15,2.9-1.9,4.05-2.66-1.92-5.1,2.21-8.13,3-13.28,2.23,1.04,4.21,1.97,6.33,2.96-.72,2.55-1.95,3.28-3.85,3.32-1.12.03-2.81.4-3.21,1.27-.85,1.84.4,2.98,1.84,3.98,3.53,2.48,3.48,2.58,4.18,7.06.28-.97.47-1.99.88-2.88.36-.78.94-1.97,1.46-2.01,2.41-.16,5.17-1.98,4.96-4.01-.25-2.34-1.19-4.51-3.75-4.63-.31-.02-.61-.4-1.07-.72.61-1.05,1.14-1.99,1.95-3.39-1.69-1.03-3.19-1.99-4.72-2.87-3.86-2.23-4.14-3.73-.97-8.48.58,1.35,1.13,2.6,1.6,3.69,2.65-2.08,6.47-1.9,9.06-.42.49,2.89.91,5.37,1.47,8.67,1.66-1.31,2.89-2.28,4.11-3.25-.11-.25-.22-.51-.32-.76-.88.05-1.75.11-2.85.17-.15-1.39-.51-2.69-.38-3.91.46-4.38-.24-5.37-3.59-4.9-.79-3.94-.16-7.39,2.55-10.21.27-.28-.24-2-.73-2.75-.66-1.02-1.64-1.76-2.89-3.03.44.05.18-.07.1.02-2.72,3.13-4.98,2.11-7.12-.95-.56-.8-1.45-1.29-2.63-2.3-.49.75-.97,1.49-1.46,2.23-.12-.12-.31-.23-.36-.4-.29-1.03-.65-2.98-.8-2.96-1.42.2-3.31.24-4.09,1.3-2.44,3.32-5.22,3.83-8.6,2.58-.13.24-.44.63-.38.72,1.64,2.71,2.01,6.55,5.23,7.89.8.33,1.51,1.17,2.1,1.94,1.4,1.84,2.62,1.53,3.49-.45,1.26-2.86,2.58-5.07,5.81-3.21.46.27,1.5-.82,2.27-1.28.81,2.74-1.37,6-4.19,6.83-3,.89-5.9,2.21-8.96,3.85,3.88.92,7.64,1.71,7.43,8.07-1.3.11-2.94.25-4.84.41.1-1.28.15-2.07.2-2.62-1.97-.4-3.94-1.34-5.76-1.03-2.05.35-3.53-.72-3.67-2.32-.3-3.58-2.58-5.6-3.99-8.24-1.35-2.53-.86-3.8,1.13-5.22.9-.64,2.15-2.33,1.95-3.03-.6-2.06-2.07-2.01-3.61-.87-.37.28-1.12-.13-1.69-.22.23-.59.34-1.34.73-1.74,1.27-1.31,2.41-2.82,4.57-1.54.49.29,2.04-1.84,3.11-2.85.75,1.29,1.51,2.57,2.46,4.21,1.3-2.65,1.65-4.39-.46-5.8-.71.57-1.37,1.11-2.03,1.65.21-3.72.42-7.43.66-11.63,1.74,1.38,3.2,2.69,4.77,3.76,1.61,1.1,3.24,2.71,5.14.34.59-.73,1.56-1.08,2.4-1.49,1.36-.68,2.76-1.26,4.14-1.89-.62-1.54-1.24-3.08-1.87-4.64-.74.31-1.32.56-2.05.87-.22-.57-.32-1.12-.6-1.47-.51-.64-1.2-1.71-1.7-1.64-3.56.55-3.72.43-3.7-4.94.83.32,1.7.38,2.21.91,2.41,2.55,4.49,1.21,6.36-.74,3.81-3.97,4.25-3.89,5.99,1.46,1.48.58,2.68,1.05,4.17,1.63.16-.23.53-.76,1.02-1.48,1.38.92,2.8,1.86,4.44,2.96.54-1.12,1.01-2.27,1.62-3.31.27-.46.88-1.02,1.23-.93.39.09.85.81.96,1.35.34,1.56.65,3.17.7,4.77.02.72-.51,1.53-.93,2.19-1.27,2-1.21,3.73.49,5.37.85.82,1.55,1.84,2.36,2.73,3.12,3.42,3.13,4.67-.49,8.48-.38-.78-.77-1.59-1.46-3.04-.41,1.37-.58,2.12-.86,2.8-.37.9-.84,1.75-1.27,2.62-.51-.97-1.53-2.01-1.44-2.89.21-2-1.32-4.99,1.94-5.57-.1-1.11-.05-2.13-.34-3.01-.19-.59-.8-1.17-1.33-1.36-.37-.13-1.17.25-1.34.66-1.14,2.64-2.06,5.78-3.84.35-.15-.45-2.17-.06-3.56-.06.26,2.56,1.57,5.09-1.45,5.57.14.9.06,2.38.46,2.59,1.21.61,2.59.75,3.92,1.03.81.17,1.75.01,2.4.46.78.55,1.32,1.58,1.96,2.4-.68.39-1.37.76-2.03,1.19-.29.19-.52.5-1.4,1.36,1.63.21,2.59.34,3.73.48.15.85.52,1.8.46,2.71-.19,2.57,1.3,3.38,2.89,3.36.98-.01,2-1.16,2.91-1.94.85-.73,1.62-1.59,2.34-2.49,1.7-2.13,3.68-4.18,2.25-7.6-.11-.26-.07-.64-.03-.95.02-.2.17-.37.26-.56q4.23.86,4.04-4.34c-3.82-.6-4.64-1.99-2.74-5,1.41,1.67,2.53,1.85,3.88-.44.6-1.03,2.55-.9,3.81-1.52.78-.38,1.87-1.1,1.96-1.83.11-.8-.67-1.87-1.24-2.64-.4-.53-1.09-.77-1.66-1.13-3.7-2.32-3.71-2.42-.36-6.56,1.16,1.38,2.19,2.93,3.5,4.06.69.6,1.97.88,2.78.58,2.58-.96,5.06-2.25,6.89-3.1.62-1.01.87-1.72,1.33-2.08.67-.53,1.48-.82,2.23-1.21-.71-1.08-1.27-2.39-2.17-3.16-.76-.65-1.91-.68-2.58-.89-.7-2.16-1.32-4.09-1.95-6.03l-.04.03c1.14-.4,2.27-.81,3.41-1.21,0-.35,0-.7,0-1.05,1.06.58,2.21,1.01,3.17,1.77,2.64,2.07,3.71,1.51,4.37-2.49-1.62-.27-3.25-.44-4.83-.89-.33-.09-.45-1.22-.8-2.27,1.24.2,2.08.34,2.77.45.68-4.69,1.35-9.25,2.01-13.8,2.17,1.54,3.83,2.77,5.54,3.9.33.22.97.24,1.27,0,1.45-1.12,2.83-2.36,3.78-3.15.29-1.61.52-2.86.75-4.12.86.38,1.72.76,2.95,1.3.08-.13.48-.81,1.16-1.94-1.68-1.08-3.18-2.69-4.82-2.93-1.94-.29-4,.89-6.01.88-1.12,0-2.23-1.14-3.34-1.76,1-1.05,1.89-2.33,3.03-3.08,1.63-1.07,3.48-1.69,5.14-2.7.21-.13.12-1.89-.25-2.16-.99-.76-7.92,2.51-8.68,4.03-2.85-.82-2.04-4.21-3.27-6.42-3.16,1.5-4.48-1.17-5.76-3.98-2.43.74-1.47,2.52-1.08,4.06.94,3.74,2.97,7.32.52,12.18,3.5-2.34,5.47-.29,7.63,1.75-.39,1.36-.81,2.79-1.22,4.21-.27-.02-.55-.04-.82-.05-.17-1.35-.34-2.69-.52-4.16-2.69-1.69-5.47,5.06-7.88-.21q-2.75,2.38-1.07,5.84c-1.13.93-2.47,1.75-3.45,2.95-.71.87-.95,2.26-1.55,3.81-4.1-2.19-4.03-7.14-5.81-11.25.95.21,1.56.34,2.37.52-.08-2.91-1.98-2.71-3.32-3.2-1.21-.44-3.04-.15-3.61-1.04-1.24-1.92-2.38-4.34-2.58-6.67-.2-2.31-.07-3.98-3.25-3.02.08-.36.17-.73.25-1.09,2.13-2.33,4.25-4.65,6.62-7.24.71,1.8.97,3.52,1.84,4.49,2.24,2.47,7.29,1.87,9-1.08.55-.95.19-2.61.25-3.94-1.08.08-2.19.04-3.25.28-1.05.23-2.05.74-3.07,1.13-.2-1.24-.4-2.49-.7-4.37,1.06.52,1.46.72,1.91.95.03-1.78-.11-2.96-2.09-2.9-1.86.06-1.85-1.43-.89-2.85.44-.66,1.09-1.21,1.74-1.58,1.86-1.05,3.76-1.97,5.51-2.87,1.13,1.55,2.32,3.17,3.51,4.8.34-.27.69-.54,1.03-.81-.62-1.13-1.31-2.21-1.83-3.4-.36-.82-.87-2.01-.61-2.63.39-.93,1.34-1.6,2.16-2.2.98-.71,2.49-.9,3.02-1.87,1.79-3.26,4.39-4.18,7.41-4.42.56-.04,1.38-.28,1.61-.75,1.22-2.46,2.71-2.18,4.69-.58.55-1.92,1.05-3.69,1.58-5.54,2.91-1.4,6.05-2.89,9.18-4.43,2.02-.99,4.05-1.97,6-3.11,3.16-1.84,6.16-4.13,9.42-5.63,2.33-1.07,4.99-1.08,7.49-1.69,1.13-.28,2.25-.75,3.31-1.29,1.84-.94,3.61-2.09,5.46-2.99,3.79-1.85,7.58-3.69,11.44-5.35,3.37-1.45,6.83-2.24,10.5-.88,2.14-4.54,6.26-4.23,10.11-4.71,1.27-.16,2.52-.5,4.24-.86.79,1.4,1.69,4.34,4.65,2,.43,1.17.76,2.09,1.1,3.01l.76-.06c0-1.31.3-2.75-.06-3.9-.77-2.41-1.14-3.54,1.8-4.42,1.73-.52,3.41-1.57,5.29-1.33,1.65.21,3.27.69,4.91,1.04-.01.45-.03.89-.04,1.34,5.67-1.78,11.32-3.74,17.04-5.28,2.66-.71,5.5-.46,8.23-.94,1.74-.3,3.37-1.34,5.11-1.66,2.23-.42,3.64,1.49,3.27,5.19,2.23-.84,4.76-.92,5.91-2.43,1.85-2.45,3.88-1.52,5.5-1.08,4.97,1.35,7.91.56,11.2-4.32,1.98,1.61,3.98,3.23,6.23,5.05.37-.33.98-.88,1.29-1.16,1.53.84,2.8,1.53,4.87,2.66-.97-3.03-1.63-5.09-2.29-7.15.15-.13.3-.26.46-.38.64,1.02,1.47,1.95,1.89,3.08,1.15,3.07,2.59,4.33,5.2,3.24,2.65-1.11,3.25-.07,2.84,2.86,2.02,0,4-.65,5.33,1.75.29.52,1.48.37,2.25.52.05-.95.11-1.9.21-3.76,1.04.79,1.79,1.39,2.56,1.95,1.3.94,2.76,2.81,3.91,2.58,3.3-.64,5.84.13,7.96,3.73,1.21-1.55,2.23-2.85,3.52-4.51.75,1.1,1.55,2.08,2.16,3.2,1.42,2.62,2.44,5.74,6.05,4.47.5-.18,1.6.72,1.97,1.43,2.57,5,4.18,10.53,3.21,16.24-.41,2.44-2.66,5.27-4.69,6.34-3.11,1.64-4.5,4.42-5.49,7.61-1.07,3.47-3.23,4.96-5.93,6.25-1.39.66-2.49,2.23-3.62,3.5-1.6,1.79-2.92,3.99-4.7,5.45-3.53,2.89-3.62,2.73-2.08,7.16.12.35.04.79-.49,1.58-.64-1.02-1.15-2.22-1.96-3.02-.68-.67-1.74-1.33-2.54-1.21-3.04.44-5.86,1.38-8.1,4.3-1.01,1.32-2.9,1.81-4.47,2.44-2.51,1-5.06,1.85-7.62,2.66-1.62.51-3.15.88-3.98,3.01-.27.68-1.53.99-2.38,1.18-5.13,1.16-10.63,1.3-15.3,3.65-3.81,1.92-6.82,2.19-10.86,1.6-4.15-.6-8.92.23-12.8,3.6-1.42,1.23-3.31,2.18-5.06,2.35-5.55.54-8.56,6-12.99,8.67-3.45,2.08-6.66,3.7-10.7,2.11-1.17-.46-3.5.59-4.32,1.83-3.15,4.77-7.15,8.31-11.28,11.72-.59.48-1.62.68-2.31.45-2.35-.75-8.34,4.26-7.91,6.96.17,1.07,1.24,1.95,2.02,3.08-.87.75-1.88,1.62-3.12,2.7-.3-1.9.93-4.77-2.03-4.19-.69.14-1.51.93-1.84,1.68-1.54,3.48-2.32,7.58-6.69,8.05-.87.09-2.07,1.96-2.27,3.2-.33,2-1.2,2.81-2.63,3.69-2.17,1.34-4.35,2.92-6.08,4.92-.84.98-.89,3.13-.93,4.77-.12,4.28-.04,4.26-3.7,3.98-.63-.05-1.34,0-1.9.28-1.38.68-2.19.32-2.92-1.27-.36-.77-1.38-1.13-2.1-1.67-.31.82-.64,1.62-.92,2.45-.59,1.75-1.16,3.51-1.82,5.51h3.19c1.39,6.19.23,8.67-4.72,10.58-3.93,1.52-4.51,5.9-5.61,9.6-.52,1.76.1,3.98.2,5.99.29.31.58.62.87.93-1.16.12-2.86.86-3.37.25-2.16-2.58-3.3-1.49-4.41,1.04-.15.34-.51.56-.98,1.05-.74-1.1-1.39-2.08-2-2.99-1.38,1.4-2.75,2.71-4.03,4.12-1.28,1.42-.92,2.62.72,2.93,1.22.23,2.52-.19,3.77-.1.78.06,2.16.45,2.2.83.1,1.08-.05,2.57-.65,3.29-.78.94-2.09,1.27-3.14,1.93-.67.43-1.28,1-2.51,1.98,1.94.51,3.04.79,4.13,1.08.06.27.11.54.17.81-.91.43-1.8,1.14-2.73,1.22-2.19.18-4.39.06-6.33.06-1.39-2.3-2.64-4.71-4.17-6.83-1.63-2.26-4.21-1.47-5.01,1.35-1.02,3.56.2,6.26,3.23,7.19,3.08.94,4.6,3.85,4.97,9.91-2.44.31-4.96,1.14-7.36.82-2.99-.39-3.35,1.62-3.97,4.02-.71,2.73.66,3.49,2.42,4.07.62.21,1.32.28,1.86.65.51.35,1.29,1.37,1.21,1.49-1.3,2.15-2.4,5.29-4.19,6.01-2.09.84-4.39.79-5.97,3.02-.18.25-.4.45-.62.65-.94.87-3.29.77-2.24,3.04.84,1.84,1.87,4.47,4.76,2.73.14.3.28.59.41.89-.64.99-1.24,2.76-1.92,2.8-.96.05-1.96-1.17-3.19-2.02-3.15-.28-6.76-.65-10.38-.86-.56-.03-1.15.68-1.72,1.05.36.63.66,1.73,1.09,1.81,1.31.24,2.68.09,4.17.09.07,3.8-2.17,2.28-3.61,2.63-1.54.38-2.99,1.19-4.39,2.46.48.13,1,.48,1.42.37,2.41-.65,4.6-1.1,5.48,2.75.1.43,2.21.33,3.38.29.85-.03,2.22-.85,2.43-.52.53.84.86,2.2.7,3.24-.35,2.32-.97,4.6-1.62,6.85-.51,1.77-2.45,2.21-3.88,1-2.18-1.84-4.11-1.42-5.54,1.19-.35.63-.63,1.37-1.11,1.84-1.69,1.68-1.79,3.11.19,4.6.47.36.66,1.23,1.06,2.01.57-.15,1.2-.51,1.8-.44.92.11,1.82.5,2.73.77-.5.76-.96,1.57-1.51,2.27-.94,1.19-2.09,2.19-2.84,3.52-.4.71-.29,1.98-.09,2.91.23,1.13,1.13,2.17,1.13,3.25,0,1.14-.49,2.59-1.2,3.32-.49.5-1.73,0-2.63-.06-.67-.05-1.53-.45-1.97-.11-.49.38-.88,1.44-.85,2.17.18,3.47,2.74,5.85,5.83,5.96,1.06.04,2.65.57,3,1.43.36.89-.37,2.52-.86,3.69-.89,2.11-2.81,4.18-2.72,6.17.11,2.57,1.34,5.53,2.9,7.42,1.34,1.63,3.96,1.73,5.74,3.01,2.73,1.97,5.17,4.49,8.67,4.51.36,0,.69,1.37,1.09,2.07.41.72.85,1.44,1.35,2.07.6.75,1.28,1.4,1.92,2.09-.64.77-1.27,1.54-2.07,2.51,1.47,1.86.23,2.67-1.45,3.15-1.44.41-2.92.63-4.35,1.04-1.73.5-3.44,1.11-5.72,1.85-.86-.69-2.35-1.74-3.68-3.03-.45-.43-.48-1.43-.7-2.18.7-.06,1.48-.39,2.08-.14,2.09.89,7-1.27,7.97-3.64.63-1.54-.84-3.6-2.77-3.78-3.55-.33-7.11-.55-10.66-.94-.6-.07-1.32-.61-1.69-1.19-2.1-3.21-3.93-6.69-6.22-9.68-.95-1.24-2.86-1.43-4.27-2.24-1.12-.64-2.16-1.5-3.38-2.36.55-.98.97-1.73,1.53-2.72-3.58-2.09-4.13-8.48-9.27-8.17-.26.79-.47,1.5-.71,2.2-1.12,3.28-1.78,3.54-4.13,1.34-1.37-1.28-2.47-.96-4.17-.64-2.56.49-5.15,1.32-7.73,1.43-3.91.15-7.85-.37-12.01-.62-1.44-3.67-2.25-3.86-10.21-1.52-.5-2.61-1.03-5.2-1.49-7.81-.29-1.67-.57-3.36-.68-5.06-.06-.99.23-2.01.36-3.01.72.21,1.48.31,2.15.64,3.34,1.65,6.5,3.9,10.31,3.83.28,0,.68.35.83.66,1.01,2.12,2.42,3.06,4.57,2.84.54-.06,1.19,1.13,1.78,1.77,1.14,1.23,2.19,2.58,3.4,3.69,1.67,1.54,3.17.89,4.69-.61,1.15-1.14,2.56-1.94,4.17-3.12-.02-.26-.08-1.05-.2-2.54,1.43.78,2.5,1.37,3.94,2.16,0-1.22.28-2.45-.1-3.26-.26-.57-1.47-.9-2.18-.76-1.54.31-2.71.49-3.9-1.29-.5-.75-2.3-.3-3.74-.42-.28-.93-.63-2.12-.84-2.8.82-.82,1.94-1.38,2.02-2.11.28-2.39-1.02-4.4-2.87-4.29-2.31.14-3.61-1.24-5.32-2.42-2.84-1.95-5.72-.19-8.52.83-2.65.96-5.18-.81-6.28-4.73,3.76,2.02,4.39-1.39,5.86-4.36-7.27,3.8-7.61-2.21-8.07-8.03-.24.15-.48.29-.72.44-.4,1.05-.8,2.1-1.53,4.04-.78-2.68-1.32-4.53-1.91-6.57h-6.74c.9,1.28,1.43,2.04,2.49,3.55-1.56-.5-2.34-.75-3.45-1.11,1.29,2.83.37,3.72-1.97,4.64-3.26,1.29-6.28,3.48-9.3,5.5-.56.37-.67,1.75-.87,2.7-.19.88-.17,1.82-.35,2.71-.86,4.14-3.52,4.46-6.55,4.36-.96-.03-1.91,1.02-2.92,1.23-1.71.36-3.49.83-5.18.58-3.21-.47-4.23.36-4.47,4.7h9.43c.99-2.01,2.37-2.53,4.56.32,1,1.3,3.28,1.21,4.96,1.84,1.29.48,2.53,1.11,4.11,1.81.49-.34,1.33-.92,2.24-1.55.2,2.84-.11,3.6-2.58,4.35-2.02.62-3.56,1.37-2.93,4.28-2.02-.23-3.75-.42-5.52-.62-.36-.91-.87-2.48-1.62-3.86-.24-.45-1.24-.73-1.72-.53-1.42.6-2.75,1.62-3.77-.71-.03-.08-1.86.65-1.84.86.13,1.24.26,2.9.96,3.53.71.63,2.1.28,3.19.26.67-.01,1.34-.22,2.14-.36-1.01,5.28-2.16,6.62-5.32,6.54-2.3-.06-3.56,1.98-2.72,4.47.23.69.82,1.24.98,1.94.23.97.21,2.02.3,3.04-.81.02-1.62.05-2.44.04-.52,0-1.34-.37-1.51-.1-2.49,3.68-4.76,1.43-7.09-.21-.28-.2-.7-.25-1.04-.21-.24.03-.45.33-.91.69.59.79,1.13,1.51,1.48,1.97-1.39.65-2.83,1.31-4.24,1.97-1.58-6.42-1.56-6.52.97-7.15.27-1.41.18-3.07.73-3.45,1.97-1.37,2.99.36,3.88,2.87,1.6-1.65,2.95-3.04,4.3-4.43-.23-.28-.47-.55-.7-.83-.35.57-.65,1.19-1.07,1.69-.3.36-.74.79-1.12.79-1.53,0-4.72-6.27-4.4-7.17,3.12,0,5.91.08,8.69-.06.59-.03,1.35-.7,1.68-1.32.67-1.28,1.14-2.71,1.61-4.12,1.15-3.5,1.02-3.72-2.51-4.37v2.19c-1.08.88-1.77,1.55-2.55,2.04-.69.44-1.48.67-2.22.99-.2-.83-.46-1.66-.57-2.51-.12-.93-.17-1.89-.1-2.82.05-.76.11-1.86.53-2.19,2.85-2.24,4.25-4.93,3.47-9.2-.19-1.04,1.65-2.59,2.75-4.19,3.39,5.5,6.1-.87,8.62.53.35-3.73.68-7.18,1.05-11.06-.26-.08-1.06-.34-1.19-.38-.99,1.55-1.49,3.09-2.42,3.62-1.71.98-3.71,2.23-4.87.76.31-2.88.89-4.91.56-6.71-.17-.94-1.89-1.6-2.99-2.2-.83-.45-1.77-.62-2.66-.91l.03.03c.06-.2.14-.4.18-.61q1.11-5.46,5.24-2.51c2.8,2,5.97.8,7.25-2.7.26-.71.77-1.29,1.24-2.04,2.49,4.36,3.1,4.41,6.98.22-2.34-.53-4.31-.84-6.21-1.47-.67-.22-1.15-1.21-1.71-1.84.53-.56.99-1.45,1.59-1.62,1.87-.53,2.49-1.42,1.07-3.27-1.34-1.76-.92-2.77.86-3.56.79-.35,1.63-1.03,2.1-1.84,1.09-1.88,2.19-3.33,5.12-1.16-.62-3.11-1.02-5.1-1.46-7.31-.77.11-1.45.45-1.97.24-.93-.37-1.75-1.08-2.62-1.64.78-.77,1.47-1.92,2.37-2.23,2.05-.71,4.19-1.01,6.35-1.49.77,2.33,5.04,4.72,7.36,3.89,1.81-.65,3.46-4.35,2.97-6.74-.84.82-1.66,1.64-2.48,2.45-.2-.12-.4-.25-.6-.37.9-2.4,1.55-4.95-1.31-5.51-.7-.14-1.73,1.99-2.82,3.33-1.55-.82-3.82-2.01-6.09-3.21v.05c1.31-.42,2.64-.84,4.1-1.3-.06-.68-.12-1.38-.18-2.07.21.17.41.34.62.51.65-.89,1.9-1.82,1.85-2.65-.12-2.11-1.76-2.14-2.97-1.5-2.76,1.45-3.53-1.73-5.3-2.53.06-.29.11-.58.17-.87,3.76.68,7.52,1.36,11.36,2.06-.03-.41-.1-1.39-.23-3.17,1.8.64,3.33.91,4.62,1.71,1.62,1,2.46-.1,2.79-1.39.31-1.22.37-3.3-.25-3.92-2.2-2.19-4.73-3.91-7.79-6.32h7.75c0-.26,0-.52,0-.78-.45-.06-.98.04-1.34-.2-.48-.33-1.14-.9-1.16-1.4-.02-.59.44-1.47.91-1.74.44-.26,1.47-.15,1.69.23,2.3,3.98,5.44,3.31,8.72,2.44.71-.19,1.55.24,2.33.4,1.8.37,3.6.9,5.41,1.05.54.05,1.14-.94,1.68-1.42q3.82,2.44,7.14-3.57c-.86-.4-1.67-1.12-2.46-1.08-3.67.19-3.84.1-4.5-4.99-2.7,2.99-5.05,5.59-7.54,8.35-.49-2.5-3.88-4.31-.83-7.03-1.89-.73-3.5-1.35-5.41-2.08.22.96.42,2.02.69,3.05.25.96.57,1.89.86,2.83-.98.07-1.96.24-2.93.17-.5-.04-.98-.49-1.18-.6.46-1.8.87-3.39,1.26-4.98.51-2.08,1.39-3.64,3.53-3.05,2.12.59,2.14-.75,1.9-2.49-.96-.2-1.83-.38-2.71-.56.53-.88,1.1-1.72,1.57-2.64.55-1.08,1.01-2.23,1.61-3.55,1.2,0,2.85-.1,4.48.06.52.05,1.47,1.03,1.42,1.15-.37.95-.94,1.79-1.73,3.15,1.43.08,2.76.16,4.11.23-.12-1.05-.25-2.2-.38-3.35,1.11-.17,2.21-.34,2.59-.4,1.45,2.19,2.51,3.66,3.45,5.24.9,1.52,1.52,3.3,2.56,4.66.88,1.15,2.11,2.08,3.33,2.72,1.53.79,3.22,1.18,4.84,1.74-1.04,1.66-1.78,4.07-3.19,4.85-4.14,2.3-6.11,7.71-10.52,9.45-2.26-.69-4.52-1.38-6.78-2.07-.17.26-.34.53-.51.79.68.95,1.39,2.73,2.04,2.7,1.77-.08,3.51-.92,5.27-1.46ZM75.59,254.99c-1.33-1.31-2.88-2.42-3.95-3.98-2.35-3.41-3.27-3.67-6.59-1.15-.65.49-1.43.76-2.09,1.1-.96-2.92,2.77-5.2.23-7.42-1.86-1.63-4.02-.89-5.02.3,0,2.47-.32,4.11.06,5.47.98,3.44,2.26,6.76,3.49,10.1.1.28.68.27.99.49,1.81,1.24,3.62.04,5.33.13,2.45.13,3.41-.83,4.53-2.94.56-1.04,2-1.44,3.05-2.13.8.65,1.53,1.59,2.42,1.9,1.83.65,2.36,1.79,1.27,4.24-.39-.25-.4-.96-.71-1.25-1.41-1.36-5.88-.32-5.93,1.58-.05,2.05.79,4.4,1.85,6.1.79,1.27,2.38,2.5,4.09.76,1.1-1.12,2.13-.92,2.93.73.37.76,1.18,1.23,1.88,1.93.97-1.61,1.77-2.95,2.59-4.3-2.51-1.55-3.85-6.19-3.62-13.17,1.24,2.06,2.2,3.66,3.16,5.25,2.74-1.16,3.23-2.19,2.66-5.91-2.54,1.31-3.85-.98-4.76-2.86-.3-.62,1.45-2.76,2.47-3.98.76-.91,1.85-1.46,2.79-2.17-.88-.99-1.64-2.27-2.69-2.9-.87-.53-2.12-.13-3.13-.45-1.47-.47-3.14-.85-4.25-1.93-1.44-1.39-2.58-3.32-3.56-5.23-.55-1.08-1.05-2.98-.61-3.78.55-.99,2.37-2.01,3.15-1.63,1.5.71,2.66,2.4,4.36,4.07,3.75-2.47,4.72,2.94,7.44,5.5,1.34-4.59,2.51-9.34,8.63-5.7-1.02-2.83-1.61-4.49-2.27-6.33.55-.4,1.37-1,2.14-1.56-.55-1.73-1.02-3.24-1.6-5.05-.46,1.2-.82,2.11-1.42,3.7-.58-1.55-.92-2.48-1.25-3.38-2.23,1.65-6.63.89-8.91-1.67.53-.78,1.07-1.56,2.13-3.12-1.71.1-2.72.18-3.73.2-1.66.04-3.36.86-4.51-1.82-.37-.86-2.81-1.1-4.1-.7-3.36,1.03-6.6,2.57-10.48,4.15.84,1.56,1.53,2.84,2.33,4.32q3.83-6,5.39-3.26c-.64.26-1.24.51-1.9.78.83,1.59,1.58,2.77,2.8.89,1.01-1.55,1.99-1.56,2.8.1.88,1.79,1.87,1.75,3.21.73.43-.33,1.14-.39,1.66-.26.24.06.56,1.06.42,1.36-.27.59-.8,1.31-1.3,1.42-1.06.22-2.18.07-3.28.07.14.24.28.47.42.71-.66.78-1.2,1.88-2,2.3-3.15,1.68-4.65-1.11-6.16-3.68-2.23,5.12-3.03,8.33-.6,11.85-1.85,1.23-2.56,3.95-1.14,4.98,1.93,1.41,4.01,3.08,6.16,3.38,2.33.32,3.02,2.04,4.11,3.69.81,1.24,1.58,2.53,2.53,3.62,1.14,1.32,1.49,2.67.08,3.77-1.19.92-2.64,1.38-3.97,2.04ZM98.29,283.78c.14-.67.42-1.29.34-1.83-.44-2.87-.55-5.54,2.07-7.25.16-.11.03-1.57-.29-1.81-1.92-1.41-3.97-2.57-5.89-3.97-1.59-1.16-2.59-.91-3.68.97-.63,1.09-1.88,1.73-2.9,2.47-.84.6-1.77,1.05-2.9,1.7,3.07,2,5.87,3.79,8.64,5.65.71.47,1.39,1.05,1.96,1.72.4.48.76,1.19.78,1.82,0,.34-.71.76-1.15,1.04-.44.28-.93.44-1.81.83,1.79,1.85,3.3,3.42,4.29,4.44,2.31-1.11,4.31-2.07,6.39-3.07-.12-3.25-.8-3.62-5.85-2.72ZM45.74,260.96c-1.19,1.6-2.82,2.8-1.46,6.05,1.22,2.89,1.97,4.59,4.67,2.27.13-.11.36-.09.54-.07,2.68.24,3.52-2.12,4.05-4.35.54-2.26.34-4.61-1.36-6.37-.31,1.64-.59,3.13-.97,5.18-2.02-1-3.66-1.82-5.47-2.72ZM93.7,248.8c.43,2.39.93,3.62.81,4.76-.34,3.18.84,4.55,3.39,4.78,2.5-6.85,2.73-7.83.72-9.16-1.26-.83-3.18-.3-4.92-.38ZM110.33,287.51c1.34,2.58,6.44,3.2,7.41.92.48-1.12.18-2.89-.19-4.2-.14-.48-1.71-.97-2.25-.63-1.76,1.1-3.34,2.58-4.96,3.9ZM51.53,244.04c.15-.28.31-.55.46-.83-1.16-.97-2.25-2.54-3.5-2.73-1.21-.19-2.61.97-3.84,1.72-.26.16-.41,1.23-.22,1.64.9,1.97,5.22,3.31,7.6,2.23-1.2-1.06-2.26-2-3.32-2.94.12-.19.23-.38.35-.56.83.49,1.65.97,2.48,1.46ZM110.21,144.14c.74-1.56,1.31-2.75,1.87-3.94.42,1.19.83,2.39,1.33,3.8.74-.55,1.69-1.26,3.34-2.49-2.34-1.34-3.96-2.48-5.71-3.16-.66-.26-1.89.29-2.37.95-.36.5-.12,1.85.16,2.68.28.83.94,1.5,1.38,2.16ZM99.56,231.09c.87,1.95,1.48,3.31,2.39,5.35.94-.67,2.55-1.16,2.9-2.22.67-2.02-.8-2.6-2.33-3.01-.75-.2-1.32-1.3-2.04-2.07-.39.83-.77,1.65-.91,1.95ZM208.57,48.72c-2.47,2.36-2.5,6.33-.06,8.75,1.84-2.93,1.86-6.16.06-8.75ZM142.36,153.81c1.72-1.25,2.99-2.17,4.25-3.08-.53-.93-1.07-1.86-1.74-3.03-.6,1.2-.87,1.76-1.12,2.25-.85-.9-1.52-1.62-2.19-2.34-.17.15-.35.29-.52.44.37,1.62.75,3.24,1.33,5.76ZM160.23,70.96c1.04-1.52,1.85-2.55,2.43-3.73.08-.16-1.28-1.71-1.51-1.57-1.05.64-1.93,1.64-2.87,2.52.53.75,1.05,1.5,1.96,2.78ZM187.44,67.74c3.2-3.93,3.06-4.56-1-6.4-1.79,2.53.78,3.9,1,6.4ZM284.16,16.24c-2.25-.47-4.57-1.23-6.1,2,2.81,1.72,4.3-.72,6.1-2ZM77.75,184.83c2.31,4.07,3.09,4.09,6.32.85-2.08-.28-3.83-.52-6.32-.85ZM57.91,255.29c0-.4,0-.81-.01-1.21-1.32,0-2.67-.15-3.95.13-.24.05-.21,1.8-.37,3.35,1.91-1,3.12-1.64,4.32-2.27ZM278.75,11.32c-.12-.5-.24-1-.36-1.51-.96.12-2.14-.12-2.8.45-.66.57-.8,1.96-1.16,2.98.24.21.48.42.72.63,1.2-.85,2.4-1.71,3.61-2.56ZM37.91,279.36c1.25-1.85,5.17-2.54,2.15-6.74-.8,2.53-1.47,4.63-2.15,6.74ZM56.55,215.14c-.19.37-.37.73-.56,1.1.95,1.16,1.89,2.32,2.84,3.48.26-.1.52-.19.78-.29,0-.94.33-2.32-.07-2.74-.78-.8-1.97-1.06-2.99-1.55ZM106.11,148.73c-1.11-.65-1.78-1.36-2.41-1.32-.53.03-1.03.93-1.54,1.45.58.71,1.08,1.79,1.77,1.98.44.13,1.15-1.06,2.19-2.11ZM228.63,25.32c-.93-.8-1.47-1.6-2.11-1.71-.4-.07-1.4,1.16-1.33,1.34.36.83.92,1.63,1.58,2.13.17.13.97-.89,1.86-1.75ZM127.28,183.13c-1.92-.4-3.03-.63-4.81-1.01.96,1.68,1.56,2.74,2.42,4.24.82-1.11,1.4-1.89,2.4-3.24ZM67.67,246.84c1.19-1.67,2.06-2.88,2.93-4.1-.2-.18-.4-.36-.59-.55-1.04.52-2.07,1.05-3.18,1.61.22.8.44,1.59.85,3.04ZM241.12,38.31l1.22-1.06c-.78-1.23-1.56-2.45-2.34-3.68-.36.3-.72.61-1.08.91.73,1.28,1.46,2.56,2.2,3.83ZM137.58,235.56c1.27-.23,2.55-.47,4.25-.78-2.26-2.35-2.8-2.28-4.25.78ZM115.9,135.21c-.26.38-.52.76-.78,1.14,1.19,1.07,2.38,2.14,3.56,3.21.26-.38.52-.77.78-1.15-1.19-1.07-2.38-2.13-3.57-3.2ZM75.17,276.98c2.49,2.1,3.76.48,5.21-.11-.06-.36-.12-.72-.18-1.07-1.49.35-2.98.7-5.03,1.18ZM156.22,63.05c-2.81,2.28-2.91,2.86-.89,5.11.3-1.71.57-3.26.89-5.11ZM259.99,24.04c-.31.15-.62.3-.92.46-.08,1.11-.16,2.21-.28,3.87.9-.42,1.63-.77,2.36-1.12-.39-1.07-.77-2.14-1.16-3.22Z"/>
  <path class="cls-1" d="M317.91,332.32c2.64.32,5.34,1.13,7.9.74,1.08-.17,2.08-2.77,2.7-4.47.19-.53-.83-1.92-1.52-2.59-1.54-1.49-3.64-2.53-2.47-6.21,1.45,1.32,2.5,2.28,3.42,3.12,1.46-.9,2.76-1.69,4.06-2.49.14.23.28.46.42.7.14-.81.13-1.74.48-2.41.33-.63,1.05-.98,1.6-1.45.41.67.91,1.28,1.2,2.02.66,1.68,1.37,3.38,1.74,5.16.19.94-.12,2.19-.56,3.06-.29.6-1.19.79-2.41,1.52,1.36.8,2.33,1.14,3,1.85.67.71,1.41,1.82,1.4,2.74,0,.69-1.08,1.49-1.8,2.02-.52.39-1.22.53-1.85.6-3.11.36-3.74,2.49-3.08,5.39.9.67,1.67,1.24,2.45,1.82-.44.75-.91,1.49-1.32,2.27-.44.83-1.35,2.03-1.14,2.49.58,1.24,1.51,2.49,2.56,3.1.53.31,1.67-.7,2.47-1.24.35-.24.53-.82.8-1.25,2.43.11,4.23,4.3,6.34,1.77,2.11.7,3.79,1.07,5.34,1.83.99.49,2.18,1.37,2.51,2.41.2.65-1.08,1.88-1.61,2.91-1.05,2.04-2.15,4.06-3.01,6.21-.55,1.4-.7,3.02-1.1,4.85-2.1-1.36-3.81-2.48-5.51-3.59-.25.31-.5.63-.76.94,1.69,2.28,3.39,4.57,5.08,6.85-.09.15-.19.29-.28.44-.5-.4-1.01-.8-1.56-1.25-.83,3.91,1.16,8.41,4.1,10.11,1.05.61,1.81,1.88,2.71,2.85-.32.45-.63.9-.95,1.35-2.22-1.8-4.53-3.47-6.64-5.44-1.72-1.61-3.03-1.69-3.9.07-1.4-1.27-2.81-2.48-4.15-3.8-.6-.59-1.03-1.42-1.6-2.07-1.01-1.17-2.07-2.28-3.09-3.44-.43-.5-1.11-1.03-1.15-1.61-.19-2.61-1.68-2.03-2.85-2.04.15,1.05.29,1.98.42,2.91-.27.11-.54.22-.81.33-.64-1.22-1.29-2.44-2.09-3.95-.74,1.78-1.43,3.42-2.36,5.66,2.26,1.02,4.23,1.92,5.73,2.6-.78,1.85-1.65,3.9-2.46,5.81-1.78.43-3.99-1.95-6.35.3-.4.38-1.27,0-1.84.24-.65.28-1.21.87-1.81,1.32.62.49,1.36,1.53,1.82,1.39,1.73-.55,2.83.07,3.82,1.69.23.37,1.08.17,1.63.34.81.25,1.61.59,2.41.89-.24.59-.38,1.57-.74,1.7-.93.35-2.06.69-2.94.37-1.05-.39-1.91-1.46-2.82-2.21-.38,1.31-.69,2.35-.99,3.38-.81-.61-1.7-1.12-2.4-1.87-1.8-1.91-3.46-3.98-5.28-5.87-.61-.63-1.51-.89-2.83-1.62.49,1.98.77,3.15,1.07,4.37-2.46.01-3.55-1.56-2.55-3.95,1.12-2.68.17-4.09-1.68-5.25-1.22-.76-2.45-1.58-3.77-2.05-1.28-.46-2.92-.26-1.16-3.67-.47.2-.94.39-1.41.59-.57,1.56-1.07,3.15-1.72,4.66-.3.7-.78,1.41-1.34,1.81-2.37,1.68-2.57,4.28-.16,5.89,2.45,1.63,4.95,4.07,8.25,1.3.82,1.74,1.63,3.44,2.43,5.14-.17.2-.33.4-.5.6-.87-.57-1.74-1.13-2.89-1.88.61,2.81-.3,5.54,2.58,7.44,1.43.94,1.7,4.2,3.89,5.3.21.1-.51,3.34-1.15,4.92-.49,1.21-1.56,2.1-2.55,3.36-.73-.59-1.81-1.46-2.88-2.33-.32.17-.64.34-.96.51.6,2.54,1.07,5.14,1.83,7.62,1.44,4.69-2.37,10.34-6.83,9.8.89-1.48,2.36-2.88,2.43-4.35.06-1.43-1.33-2.94-1.71-3.69-2.31-1.28-4.16-2.3-6.04-3.33-1.32,2.54-3.04,5.36-4.3,8.43-.88,2.16.67,2.44,2.13,2.46,1.83.01,3.66.12,5.49.18.07.54.14,1.07.21,1.61-1.33.54-2.63,1.23-4,1.59-1.42.37-2.92.32-4.36.64-3.21.7-4.22,2.35-4.05,6.42.09,2.24-2.38,3.51-4.66,2.82-.18-2.39-.26-4.59-.63-6.72-.05-.28-2.15-.56-2.26-.28-.9,2.27-1.55,4.68-2.28,7.05l.73.81c-1.22.21-2.45.4-3.66.63-.78.15-1.93.05-2.27.6-1.81,2.92-4.14,1.8-6.34,1.29-1.87-.44-3.69-1.23-5.53-1.86.35.54.7,1.08,1.05,1.62-.88.34-1.75.84-2.66,1-1.93.34-2.62,1.79-2.06,3.66.4,1.35,1.51,2.42,1.84,2.91,1.72-1.6,2.74-2.81,3.95-3.58.62-.4,1.6-.03,2.42,0-.39,1.33-.56,2.87-1.25,3.94-.63.96-1.84,1.4-2.96,2.18q3.75,3.45,1.02,5.63c-.4-.34-.83-.72-1.28-1.07-.37-.28-.77-.5-1.66-.37.37.96.74,1.93,1.42,3.69-1.55.33-3.04,1.14-4.31.82-3.41-.86-6.14.23-8.95,3.28,1.55,1.78,3.18,3.47,4.62,5.34.73.95,1.12,2.24,1.66,3.38-1.02-.08-2.42.3-2.98-.34-2.07-2.33-4.8-2.24-7.19-3.32-1.41-.64-2.47-2.33-3.68-3.55-.27.12-.54.25-.82.37.19,1.35.38,2.7.64,4.51-2.96-2.1-5.8-2.25-8.05,1.63-.27-.13-.54-.25-.82-.38-.09-1.24-.18-2.48-.29-3.72-.11-1.22-.04-2.52-.4-3.63-1.26-3.84-7.44-4.75-9.66-1.57-1.46,2.09-3.31,3.9-2.08,7.08.14.36-.28,1.36-.65,1.58-1.99,1.17-4,2.89-6.09,3.09-3.51.32-3.94-1.15-2.29-5.8-2.42,1.54-4.83,3.08-7.94,5.07-1.28,1.79-2.99,4.46-4.94,6.87-1.39,1.72-3.46,1.15-5.3-1.34-.17,2.95-1.22,3.89-3.43,2.38-.37-.26-1.5.01-1.53.17-.45,3.4-2.6,1.77-4.16,2.12-2.58.58-5.09,1.57-7.64,2.38-.75.24-1.5.45-2.52.76v-2.89c-1.51,1.1-3.52,3.62-4.66,3.17-2.08-.82-3.99-3.25-2.6-6.82-1.97,1.94-4.01,3.8-5.87,5.88-.45.5-.31,1.72-.47,2.78q-3.97,2.73-5.02-3.76c-.68,1.07-1.4,2.1-2,3.22-.23.44,0,1.33-.28,1.6-1.03.99-2.18,1.8-3.28,2.68-.64-1.38-1.28-2.75-2.19-4.7,1.58.69,2.44,1.06,3.3,1.43-3.51-3.24-6.87-2.86-9.17.6q5.17.77,5.84,2.49c-2.71-.6-4.95-.39-7.26,1.92-2.66,2.65-5.84,1.04-7.21-2.67-1.01-2.74-2.3-5.34-3.34-7.7-2.38.89-4.28,1.61-6.18,2.32-.05.25-.1.49-.15.74,2.17.59,4.34,1.17,6.93,1.87-2.36,1.05-4.34,1.93-6.32,2.82,0,.19,0,.37,0,.56,2.8.47,5.61.95,8.61,1.46-.34.34-.56.77-.83.82-3.16.54-6.33,1.01-9.49,1.53-1.14.19-1.42-.52-2.1-1.54-1.54-2.28-3.84-2.65-6.84-.67,1.6.49,2.62.8,4.41,1.35-1.02.93-1.6,1.74-2.33,2.04-.75.31-1.67.24-2.48.1-.86-.15-1.68-.58-2.52-.88.41-.87.82-1.74,1.22-2.58-3.25-1.1-4.16-.38-3.95,3.37-1.92.32-3.85.64-5.79.97-.49.08-.98.19-1.48.26-.94.13-1.89.25-2.84.38-.06-1.04-.22-2.08-.16-3.11.04-.73.55-1.45.52-2.16-.04-1.08-.06-2.55-.63-3.11-.59-.58-2.01-.71-2.74-.28-2.26,1.3-3.89.54-5.44-1.43-.55-.71-1.19-1.4-1.91-1.83-1.16-.69-2.75-1.1-1.93-3.12.61-1.47,1.65-2.76,2.67-3.92.53-.6,1.42-.76,2.59-1.34-4.19-5.75-7.71-.63-11.43.5,1.02.38,2.04.75,3.86,1.43-1.62,1.39-2.77,2.38-4.46,3.84.76.46,1.56.93,2.36,1.41-.03.34-.06.68-.09,1.01-1.25.39-2.5.78-3.83,1.19-.24,2.78,1.33,3.14,8.96,1.54-.18,1.04-.4,1.89-.46,2.76-.09,1.43-.24,2.9-.04,4.29.36,2.54-.24,3.4-2.48,2.77-1.58-.44-3.06-1.34-4.64-1.78-.92-.25-1.96-.09-2.92.06-1.82.28-3.66.76-4-2.16-2.11-.27-4.07-.52-6.03-.78-.53-4.01-1.54-4.4-4.56-1.9-.41.34-1.49.43-1.72.1-2.04-2.83-4.86-2.43-7.99-2.3.74-1.26,1.17-2.01,1.84-3.16-1.89-.47-3.63-.61-5.16-1.34-4.52-2.16-4.99-3.64-3.29-10.04,1.33,1.8,2.4,3.44,3.64,4.87,2.29,2.64,4.87,4.09,8.23,2.7.93-.39,2.22-.17,3.19.26,2.15.95,4.2,2.21,6.53,3.47-.47.72-.85,1.31-1.5,2.31,2.39,1.14,4.55,2.32,6.81,3.15.51.19,1.77-.64,1.95-1.27,1.12-4.07,2.03-8.21,2.93-12.03-2.34-1.5-4.99-3.19-7.43-4.76,1.41-.97,2.72-1.53,3.65-2.57,3.17-3.56,9.17-4.57,13.29-2.49,1.21.61,2.89.04,4.35-.14.7-.09,1.36-.53,2.1-.84-2.75-2.54-.21-4.37.78-6.33.64-1.26,1.55-2.37,2.48-3.37.44-.48,1.21-.55,1.82-.83.79-.35,1.57-.73,2.73-1.27-4.15-2.86-4.27-3.28-2.64-7.64,1.74.88,3.69.09,5.54,1.86,1.05,1,3.38.18,5.95.18,1.23,1.04,6.14,1.07,7.96-.84.52-.54.7-1.65.84-2.54.42-2.72,1.53-3.36,4.1-2.02-.4.73-.77,1.44-1.46,2.71,1.66-.12,2.83-.2,4.04-.28-.91-6.1-5.2-4.33-8.08-5.42-2.69-1.01-5.57-1.3-8.28-2.22-2.59-.88-3.68.94-5.15,3.24,1.02.11,1.71.19,3.02.33-3.22,2.41-6.33,1.77-9.2,1.75-3.04-.03-6.07-.89-9.1-1.4-2.44-.41-5.1-.31-7.23-1.49-1.28-.71-1.72-3.45-2.54-5.29.22-.27.44-.54.67-.81,1.03.18,2.14.12,3.06.58,1.89.95,3.42,3.1,5.85,2,.23-.1.69.27.96.54,3.84,3.79,5.85,3.22,7.68-2.23.13-.4.24-.81.32-1.12,1.62.31,3.16.71,4.71.82.36.03,1.18-1.09,1.08-1.39-.63-1.99-1.39-3.93-2.21-5.82-.83-1.91-1.98-3.22-4.09-1.8-.49,2.39-3.48,3.58-5.28,1.77-.77-.77-1.46-1.67-2.07-2.62-1.67-2.62-4.38-3.79-6.6-3.25-3.39.82-5.59,0-7.11-3.65-1.91,1.62-3.44,4.12-5.68,1.44-.53-.64-1.01-1.35-1.51-2.03.81-.23,1.64-.72,2.42-.63,1.64.19,5.99-2.33,6.72-4.13l.03-.04c3.24-5.35,7.52-4.38,11.93-2.7.51.2,1.01.44,1.46,1.05h-8.98c.4,3.43,1.47,6.42,5.15,7.56,1.27.39,2.27,1.95,3.83,3.39-.15-1.39-.23-2.14-.33-3.13.49.04.86-.02,1.16.11,1.52.64,2.7,2.83,4.72.99,1.33-1.21,3.12-1.74,4.37-3.03,2.8-2.91,8.8-3.01,10.5.07,1.25-3.92,4.1-1.5,5.42-1.01,5.56,2.05,11.17,1.3,16.67.8,2.04-.18,3.94-3.36,5.75-5.37.55-.61.54-1.89.79-2.86l1.09-.08c.19,1.22.81,2.63.48,3.61-.83,2.5.3,2.53,1.79,2.47,2.11-.09,4.22-.21,6.33-.25,2.39-.04,4.5.06,6.53,2.44,2.54,2.98,7.88.93,9.33-2.98.49-1.31,1.11-2.56,1.68-3.83-1.28-.49-2.58-.93-3.84-1.5-.94-.43-1.83-1.02-2.72-1.53-2.33,2.57-9.24,4.12-12.14,2.49,1.6-2.26,3.15-4.47,4.74-6.63.21-.28.85-.57.95-.46,2.63,3,6.19.52,9.13,2.16,1.28.71,3.15.12,4.74-.07,2.23-.27,4.46-1.06,6.67-.96.95.05,2.05,1.61,2.72,2.78.8,1.41,1.48,2.05,2.89,1.15.89-.56,1.88-1.09,2.87-1.2,2.49-.29,2.69-2.65,2.54-4.45-.14-1.73-.95-3.95-2.11-4.9-2.84-2.35-4.95-1.64-7.44,1.52-.47.59-1.21,1.27-1.82,1.27-2.02,0-4.04-.35-5.58,1.77-.18.25-.97.2-1.31-.04-2.5-1.8-5.08-.63-7.63-.41-.59.05-1.26.16-1.77-.11-1.84-.97-3.62-2.09-5.39-3.13.12-1.02.19-1.98.37-2.91.15-.73.44-1.43.67-2.14.56.48,1.31.81,1.65,1.45,1.46,2.77,3.56,3.94,6.28,3.92.92,0,1.87.09,2.74.4,3.4,1.23,5.72-1.39,7.82-3.49,1.76-1.75.71-4.34-.4-6.49-.21-.41.04-1.54.4-1.88,1.2-1.15,2.47-2.26,3.86-3.03.46-.26,1.6.33,2,.92.6.9.75,2.19,1.24,3.22.4.84,1.03,2.18,1.53,2.17,1.28-.03,2.85-.29,3.75-1.2,1.89-1.93,3.32-4.47,5.16-6.46.53-.57,2.18-.6,2.76-.06,1.93,1.77,3.87,2.08,6.24,1.67,2.64-.45,5.52,1.21,7.97-1.31.19-.19,1.2.39,1.59.87,1.67,2.08,3.25,4.26,4.26,5.6,5.23-2.23,9.4-4.3,13.73-5.69,1.62-.52,3.67,1.03,5.44.81,3.25-.42,6.47-1.36,8.74-4.41-.06-.43-.12-.86-.18-1.3-1.34.15-2.8-.04-3.99.54-1.85.89-2.56-.57-2.92-1.84-.18-.64.92-1.79,1.46-2.7.04-.07.17-.07.26-.07,10.35-.59,13.54-10.29,17.66-18.84.67-1.39,1.4-2.87,2.42-3.88,3.17-3.16,5.06-6.96,5.18-11.89.01-.43.4-.92.71-1.26,1.59-1.73,3.19-3.46,4.85-5.1.38-.38,1.05-.64,1.53-.56,2.93.51,4.04-1.71,5.21-4.24,1.32-2.85,2.96-5.5,4.42-8.17-.48-1.02-1.01-2.16-1.54-3.3,1.13-.57,2.31-1.03,3.38-1.73,1.14-.73,2.2-1.63,3.24-2.54,2.46-2.12,4.67-5.37,7.4-6.18,4.45-1.31,6.06-6.65,9.5-8.65.95-1.55,1.9-3.09,2.86-4.63.11-.17.36-.25.41-.43.67-2.73,2.39-3.74,4.53-4.84,1.48-.76,4.28-1.61,3.43-5.23-.08-.32,2.44-2.27,3.09-1.89,5.09,2.96,10.45,2.85,16.08,2.97-.63.43-1.24.95-1.91,1.28-2.56,1.24-2.87,2.15-1.18,4.71,1.07,1.62,2.23,3.35,3.69,4.37,3.33,2.34,4.01,6.39,5.54,9.98.76,1.79,2.44,3.05,3.7,4.56.89,1.06,1.78,2.13,2.67,3.2-.15.25-.3.5-.46.74-.6,0-1.21.11-1.78-.02-1.48-.35-2.93-.93-4.42-1.18-1.64-.28-2.42-.8-.93-2.64h-4.43c.17.22.34.43.52.65-1.03,1.62-2.05,3.25-3.5,5.53-.59-2-.9-3.05-1.42-4.79-1.26.76-2.38,1.46-3.52,2.1-.71.4-1.48.7-2.2,1.09-.47.25-1.19.49-1.3.91-.82,3.1-1.54,6.25-2.22,9.4-.12.55.08,1.18.13,1.78.3.15.6.3.9.46.83-1.73,1.65-3.47,2.53-5.33.24.25.78.84,1.72,1.84,1.66-5.79,4.93-8.51,10.28-7.76-.53.85-.97,1.57-1.42,2.28,2.4,2.63,2.16,6.61-.76,8.48-1.61,1.04-1.72,2.29-1.45,4-2.03,0-4.05-.39-4.86,2.9-.27,1.11-1.94,2.46-2.92,2.4-.79-.04-1.52-2.01-2.23-3.17-.53-.86-.83-2-1.5-2.63-.41-.39-1.38-.22-1.99.05-.31.14-.63,1.19-.48,1.61,1.07,3.07,2.25,6.08,3.49,9.36,1.43-.37,2.94-1.06,4.45-1.09,2.49-.05,3.58-.8,2.41-3.87-.17-.45.64-1.92.71-1.89,1.08.42,2.88.83,3.02,1.6.36,2.04.1,4.27-.19,6.37-.05.33-1.59.3-2.4.58-1,.35-2.23.54-2.9,1.34-1.64,1.96-2.07,4.12.23,6.09.56.48.87,1.36,1.31,2.08-3.02,1.36-3.07,1.81-1.83,5.38.33.95.03,2.45-.41,3.44-.56,1.3-1.57,2.32-2.35,3.5-1.81,2.75.29,9.36,3.02,8.77,2.84-.62,5.37-3.21,7.97-5.06.23-.16.18-1.35-.07-1.84-1.69-3.38-.85-5.68,2.04-7.3.36-.2.53-.84,1.05-1.72-1.73-1.29-3.39-2.47-4.99-3.75-.39-.31-.74-.96-.79-1.5-.03-.36.41-.98.77-1.17,1.91-1.02,3.9-1.84,5.77-2.95.75-.44,1.26-1.44,1.87-2.18-.87-.78-1.69-1.67-2.63-2.3-.43-.28-1.11-.05-2.7-.05,3.55-2.32,2.08-4.45,1-6.44-1.22-2.26-2.62-4.4-3.93-6.6ZM149.65,469.5c3.43-.06,7.01.54,10.24-.42,2.07-.62,3.64-3.54,5.37-5.37-1.16-.35-2.9-.49-4.27-1.39-2.11-1.39-5.84-1.2-7.5.89-.43.54-.79,1.52-1.26,1.58-2.64.36-2.59,2.52-2.54,4.75-2.83-.82-2.44-3.42-2.6-6.22-1.3.88-2.4,1.95-3.21,3.25-.25.4.14,1.99.49,2.13,1.82.71,3.73,1.12,5.6,1.63-.11-.28-.22-.56-.33-.84ZM127.94,458.49c-.31-1-.57-2.84-.93-2.87-1.4-.11-2.83.36-4.26.61.02.32.04.64.06.96,1.72.42,3.44.84,5.17,1.26-.34,1.95-.69,3.9-1.09,6.14.2,0-.4.12-.44-.02-.49-1.43-.9-2.91-1.33-4.36-4.06,1.07-6.84,4.06-6.86,7.89,0,1.41.73,3.23,1.66,4.11.69.66,2.84.7,3.27.04,1.84-2.77,3.18-1.46,4.72.59.88-.87,1.63-1.63,2.39-2.38,4.54-4.48,4.49-4.44,1.29-10.27-.95-1.72-1.94-2.53-3.64-1.72ZM192.34,409.78c-.2.2-.41.4-.61.6-.75-.4-1.57-.67-2.22-1.23-.81-.7-1.42-1.71-2.19-2.47-2.65-2.63-3.67-2.36-5.26,1.2-.6,1.33-1.1,2.85-2.01,3.83-2.22,2.4-.52,4.4.64,5.82.66.81,3.28.9,3.76.18,1.95-2.97,6.57-.9,7.42-5.58.03-.14.52-.3.75-.23,3.25.95,3.69-1.04,3.1-3.65,2.66-.92,5.22-1.57,7.58-2.77.8-.41,1.09-2.19,1.62-3.35-2.02-.83-4.01-1.83-6.08-2.4-1.19-.33-2.51.06-4.03.14-1.91,2.57-5.23,5.04-2.45,9.92ZM125.22,431.94c.02.33.04.65.06.98,2.5.19,5,.38,7.5.57,3.7.27,4.11-.21,3.69-3,1.18-2.27,2.93-4.76,2.62-5.18-1.51-2.04-3.48-3.74-5.51-5.08-.55-.36-1.91.97-2.9,1.51-.41.22-.82.51-1.25.56-3.32.41-6.65.77-9.98,1.14.13.26.26.51.39.77-.66,1.27-1.31,2.55-1.97,3.82-.81-.74-1.57-1.57-2.44-2.18-.8-.56-1.72-.9-2.59-1.33-.16.96-.31,1.92-.48,2.88-.16.9-.34,1.8-.58,3.06,3.86.1,7.43.58,10.47-2.54,1.34-1.37,2.73-1.3,3.78.53,1.17,2.03,2.28,2.04,3.83.39.65-.69,1.89-.9,2.84-.84.6.04,1.16.99,1.74,1.53-.66.29-1.29.68-1.97.84-2.41.57-4.83,1.07-7.25,1.59ZM336.95,370.84c.2-.43.4-.86.6-1.29-.48-.62-.93-1.27-1.45-1.84-1.79-1.96-1.61-4.07.47-5.36,2.27-1.42,4.52-2.89,6.77-4.34-.02-.46-.03-.92-.05-1.38-1.43-.73-2.81-1.74-4.31-2.13-2.03-.53-4.21-.32-6.23-.89-3.41-.97-6.83,1.18-7.56,5.29-.15.85.17,2.4.68,2.72,1.88,1.18,3.95,1.97,5.93,2.93.37.18.69.48,1.17.83-.93.45-1.61.77-2.89,1.38,2.66,1.58,4.76,2.83,6.86,4.08ZM85.05,469.07c1.65,1.06,3.11,2.8,4.13,2.5,2.14-.64,3.25.24,4.18,2.02,2.13-.98,4.29-2.95,6.08-2.58,2.9.61,3.39-1.7,3.8-3.36.67-2.71-1.47-1.74-2.67-2.1-.91-.27-1.68-1.18-2.51-1.8.83-.31,1.66-.61,2.49-.94.25-.1.47-.29.79-.5.06-1.25.12-2.51.17-3.77-4.21-.4-5.64.78-7.13,5.54-.18.59-1.14,1.37-1.59,1.25-3.09-.79-5.07,1.38-7.74,3.74ZM128.08,443.97c-2.88.34-5.58.59-8.25,1.03-.63.1-1.17.87-1.75,1.33.66.73,1.26,1.97,2.01,2.11,2.43.47,4.91.54,7.6.79-.43,1.07-.75,1.88-1.15,2.89,4.16.99,5.23-3.75,7.84-5.34.94-.57.74-3.69,1.04-5.52-5.42-2.8-7.75-1.97-7.33,2.71ZM186.77,399.62c1.56-1.62,3.09-3.01,4.39-4.63.72-.9,1.67-3.01,1.48-3.2-1.12-1.14-2.49-2.49-3.86-2.62-2.13-.21-4.38.28-6.49.87-1.95.54-3.08,4.88-1.61,6.06,1.7,1.37,3.72,2.19,6.09,3.52ZM140.58,440.26c1.49-.58,2.47-1.05,3.5-1.35.65-.19,1.74-.47,1.96-.13,2.23,3.53,3.91.87,5.4-.77.71-.78,1.19-2.48.98-3.56-.21-1.07-1.27-2.28-2.2-2.71-2.12-.99-4.39-1.55-6.74-2.33-.08.61.03,2.07-.34,2.26-3.24,1.69-2.13,5.01-2.55,8.58ZM101.36,485.77c1.87,3.01,3.07,2.73,5.26-.3,2.48-3.44,4.46-8.04,9.27-7.89.22,0,.44-.3.6-.41-3.76-2.3-7.48-4.85-11.54-2.97-.73,2.17-1.43,4.26-2.11,6.3,1.03.19,2.01.38,2.99.56.04.27.08.55.12.82-1.47,1.24-2.94,2.49-4.59,3.88ZM216.51,388.98c-1.44.3-2.67.45-3.84.85-.74.25-1.69.67-2.03,1.36-.86,1.74-1.51,3.64-2.05,5.55-.12.41.47,1.5.9,1.65,2.82,1,5.81,3.27,8.14-1.12.23-.44,1.02-.44,1.5-.76,2.08-1.4,2.17-3.46.24-5.14-1.02-.89-2.08-1.74-2.85-2.39ZM289.23,405.13c1.25,2.96,2.26,3.22,4.83,1.56.87-.56,2.09-.34,3.11-.64.68-.2,1.62-.47,1.89-1.05,1.44-3.18-.59-7.16-3.63-7.5-2.05-.23-3.25.96-4.3,2.81-.51.89-1.57,2.28-2.04,2.12-2.78-.95-3.69,1.42-5.16,3.26,2.18,2.57,3.27-1.26,5.3-.56ZM121.1,459.03c-1.06-2.06-2.22-3.42-2.45-4.97-.5-3.43-2.65-2.71-4.22-2.36-2.22.5-4.31,1.73-6.34,2.59-.15,1.06-.39,2.67-.66,4.47,1.66-.13,4.01-1.73,4.19,2.8,3.29-.88,6.38-1.71,9.48-2.53ZM123.33,435.81c-1.42-1.41-2.53-3.26-3.96-3.71-1.56-.49-3.43.27-5.16.56-.82.14-1.63.64-2.43.61-1.58-.06-3.15-.39-4.72-.6-.85-.11-2.08-.64-2.47-.2-.49.56-.65,2.22-.28,2.89.46.82,1.6,1.41,2.49,1.53.84.11,1.79-.43,2.63-.85,2.22-1.11,3.95-.61,5.76,1.37.86.94,2.65,1.24,3.91.99,1.34-.26,2.54-1.5,4.22-2.58ZM143.15,482.23c.07-.41.39-1.12.21-1.4-1.82-2.82-1.29-5.72-.48-8.73.11-.4-.56-1.52-.65-1.49-.74.26-1.47.63-2.1,1.14-.82.66-1.5,1.96-2.34,2.09-.74.11-1.61-1.01-2.49-1.64,1.17,3.72-2,3.48-3.89,5.16,2.36,1.7,4.42,3.19,6.56,4.73.05-.16.28-.96.56-1.93,1.6.71,2.99,1.33,4.65,2.06ZM94.6,422.1c-.34.73-.66,1.89-1.3,2.73-1.62,2.15-.34,3.17,1.16,3.26,3.25.21,6.55.16,9.78-.29.8-.11,1.4-2.16,2.09-3.32-.84-.46-1.64-1.2-2.51-1.33-2.92-.45-5.86-.69-9.22-1.06ZM160.31,425.37c.64-.13,1-.16,1.34-.28,4.27-1.61,4.98-1.32,7.83,2.84.31.45,1.2.82,1.6.63,1.36-.66,1.65-7.19.32-7.75-2.87-1.2-5.78-2.07-8.86-.55-1.95.96-2.59,2.44-2.22,5.12ZM166.2,481.54c1.4,0,2.64.39,3.52-.09,1.21-.66,2.18-1.96,3.2-3.04.54-.57.88-1.46,1.49-1.83.84-.52,1.84-.7,2.76-1.03-1.01-3.87-1.97-4.12-4.13-1.8-.66.71-2.13,1.14-2.91.78-1.09-.5-2.03-2.58-3.16-.67-.91,1.54-3.7,2.7-1.51,5.56.46.6.56,1.57.74,2.12ZM145.81,457.26c-1.17-1.6-2.17-4.01-3.05-3.95-2.54.17-5.02,1.34-7.53,2.11-.01.36-.02.73-.04,1.09,1.29.43,2.58.85,4.07,1.35-1.03.86-1.93,1.62-2.83,2.38.09.37.18.75.28,1.12,3.89-.93,7.77-1.85,11.66-2.78.02-.33.04-.66.06-.98-1.07-.14-2.13-.27-2.62-.33ZM167.85,446.17c-.06-.29-.13-.58-.19-.87-2.01-.58-2.61-5.15-5.65-2.63-1.87,1.55-3.52,3.47-5.26,5.22.1.35.2.71.3,1.06,1.41.3,2.86,1.01,4.21.78,1.62-.28,3.15-1.3,4.69-2.1.69-.36,1.28-.96,1.91-1.45ZM176.36,437.23c1.8-.9,3.17-1.51,4.48-2.25,1.23-.7,2.84-1.44,1.58-3.52-1.03-1.7-2.32-3.2-4.36-1.43-.63.55-1.63.58-2.16,1.2-.86,1.01-1.99,2.29-2.01,3.49-.02.83,1.62,1.71,2.47,2.51ZM211.12,409.86c-1.89-.76-3.54-2.14-5.12.51-.2.34-.82.68-1.11.57-1.62-.61-2.36.46-2.47,1.98-.07.86.46,2.46.92,2.58,1.12.28,2.66.35,3.5-.35,1.51-1.27,2.63-3.18,4.28-5.28ZM231.72,454.24c.63,4.94,1.8,5.67,4.91,3.27.22-.17.51-.29.77-.32,1.6-.15,2.3-1.38,1.62-2.84-.44-.93-1.83-1.83-2.74-1.76-1.49.11-2.94,1.01-4.57,1.65ZM114.21,465.78c-2.8-.64-5.39-1.31-8.01-1.76-.53-.09-1.17.63-1.76.97.33.55.57,1.42,1.01,1.59,2.01.77,4.07,1.79,6.13,1.84,1.46.03,3.01-1.23,4.39-2.17.34-.23.17-1.48.23-2.26-.22-.06-.44-.12-.65-.18-.48.71-.96,1.41-1.33,1.97ZM257.76,425.11c3.19-.57,5.75-1.78,7.28-4.94.26-.53.2-1.42.02-2.02-.07-.22-1.03-.29-1.45-.08-1.58.82-3.06,1.94-4.67,2.67-1.92.87-1.84,2.3-1.17,4.37ZM275.48,414.4c2.02,0,2.46-.27,2.22-2.43-.14-1.2-.88-2.93-1.7-3.27-1.39-.57-4.35,2.51-4.27,3.99.18,3.3,2.18,1.57,3.74,1.71ZM181,457.05c-1.22-1.65-2.05-2.98-3.09-4.02-.26-.26-1.82.66-1.8.72.75,3.11-.62,4.07-3.28,4.38.76,1,1.72,1.99,2.36,1.77,2-.7,3.89-1.86,5.82-2.84ZM89.23,488.22c.93,4.73,3,6.76,5.69,6.06v-5.54c-1.63-.15-3.51-.32-5.69-.52ZM242.79,428.46c-1.36,1.79-2.69,3.42-3.85,5.19-.19.29.35,1.23.56,1.86,1.47-.65,2.95-1.27,4.4-1.97.31-.15.6-.58.72-.95.24-.75.66-1.68.45-2.29-.21-.62-1.08-.92-2.29-1.84ZM288.11,392.34c-1.05-1.41-2.06-3.09-2.25-2.97-1.11.69-3.44.17-2.93,2.74.27,1.39,1.36,2.56,2.08,3.83.93-1.08,1.86-2.16,3.1-3.6ZM314.63,304.29c-1.93,4.48-.49,7.36,2.85,7.11.41-.03,1.23-1.98,1.02-2.31-1.05-1.63-2.38-3.02-3.87-4.79ZM169.18,435.99c0-.44,0-.88,0-1.32-2.1,0-4.21-.15-6.3.09-.66.08-1.24,1.18-1.85,1.81.79.48,1.65,1.48,2.35,1.34,1.97-.39,3.88-1.25,5.81-1.92ZM224.21,442.17c-.97-.24-2.57-1.15-3.04-.65-1.19,1.29-1.96,3.16-2.7,4.92-.19.46.36,1.35.77,2.66,1.76-2.46,3.13-4.37,4.97-6.93ZM197.5,423.75c-1.9-1.81-3.32-3.92-5.82-2.25,1.14,3.19,3.39,3.67,5.69,3.37.55-.07.91-2.05,1.36-3.15-.16-.08-.32-.16-.62-.31-.18.68-.34,1.33-.61,2.34ZM187.61,426.08c.06-.45.13-.89.19-1.34-.73-.33-1.87-1.17-2.12-.89-1.52,1.64-2.59.63-3.87-.37-.32-.25-1.14.36-1.73.57.33.68.62,1.91.99,1.95,2.17.19,4.35.09,6.53.09ZM178.92,406.01c1.78-1.26,2.46-3.01,1.6-5.28-.13-.35-1.53-.51-2-.15-2.32,1.82-1.06,3.58.39,5.43ZM153.22,478.82c-.2-2.5-.32-4.01-.49-6.13-1.49.77-2.6,1.34-3.7,1.91.76.8,1.51,1.6,2.28,2.39.39.4.8.77,1.92,1.84ZM228.93,464.24c.28-.35.56-.7.84-1.06-.88-1.15-1.65-2.45-2.7-3.32-.25-.21-1.38,1.03-2.61,2,1.94,1.03,3.21,1.71,4.47,2.38ZM304.37,363.8c2.83-2.59,2.87-3.87.4-6.98-.14,2.53-.25,4.36-.4,6.98ZM175.24,464.34c-1.55-1.35-3.01-3.64-5.21-1.04,1.44,2.79,3.49.93,5.21,1.04ZM148.94,445.14h-3.62c.54,1.31,1.08,2.63,1.94,4.71.71-2,1.03-2.88,1.68-4.71ZM96.22,432.24c-.17.31-.34.62-.51.93.92,1.85,1.2,4.97,4.58,2.45-1.47-1.22-2.77-2.3-4.07-3.38ZM197.6,464.53c.05-.65.09-1.29.14-1.94-1.02,0-2.04-.09-3.04.07-.21.04-.31,1.01-.46,1.55l3.36.32ZM160.5,455.66c-1.31-.77-1.9-1.42-2.42-1.35-.56.08-1.05.84-1.57,1.31.5.47.97,1.24,1.51,1.32.54.08,1.15-.55,2.49-1.28ZM169.1,415.38c.2-.2.4-.39.61-.59-.34-.84-.5-2.01-1.07-2.42-.48-.34-1.43.2-2.17.35,0,.27-.01.55-.02.82.89.61,1.77,1.22,2.66,1.83Z"/>
  <path class="cls-1" d="M92.89,340.17c-.78-.11-1.56-.26-2.34-.33-1.57-.15-2.93-1.09-4.68.64-1.13,1.13-3.62.46-5.5.47-.59,0-1.19-.39-2.1-.37,1.13,2.32.28,4.98,2.34,7.35,2.03,2.35,4.2,4.17,6.52,5.95,2.98,2.29.24,5.17.98,7.71-.24.08-.47.16-.71.24-.43-.71-.86-1.43-.89-1.48-1.7-.62-2.92-1.47-4.08-1.39-1.62.11-3.21.92-4.82,1.43l.04.91c-.71-.62-1.42-1.24-2.21-1.94.99-.86,1.94-1.48,2.66-2.36,1.21-1.48,2.37-2.23,4.16-1.19.56.33,1.52-.26,2.3-.44-.04-.38-.08-.77-.12-1.15-1.88-.27-3.79-.38-5.61-.89-.73-.21-1.66-1.21-1.82-2.03-.5-2.51-1.72-2.78-3.51-2.12q-4.44,1.63-6.5-3.27c-.11-.26-.37-.43-.82-.93-.05,1-.19,1.7-.1,2.35.57,4.19-.08,5.3-3.63,5.36-.69.01-1.84-.97-1.97-1.7-.15-.8.46-2.04,1.06-2.69.43-.47,1.39-.27,2.12-.37.73-4.63.26-5.09-3.57-4.19-.89.21-2.49-.32-2.83-1.08-.52-1.17-.65-3.09-.15-4.2.35-.79,2-.95,3.1-1.07.55-.06,1.32.42,1.72.93,2.24,2.94,5.16,2.25,8,2.35.97.04,2.07.81,2.83,1.61.67.7.94,1.91,1.39,2.89.32-.12.65-.25.97-.37-.27-1.03-.35-2.21-.83-3.07-.91-1.61-.69-2.53.83-3.22,1.88-.84,3.78-1.66,5.57-2.73.58-.34.83-1.43,1.32-2.33-1.85,0-3.45.48-3.84-.12-.53-.81-.13-2.45-.13-4.22-2.71,2.64-3.95,2.48-5.85-.19-1.86-2.62-5.99-1.63-7.68,1.01-.98,1.53-3.33,1.93-5.12,2.68-.64.27-1.44.04-2.17.04.17-2.86,1.94-3.9,6.03-3.69.12-.16.29-.29.36-.48,1.78-4.31,3.92-5.53,8-4.52.91.22,1.79.65,2.7.75.79.08,1.62-.18,2.42-.29-.01.32-.02.64-.03.96,1.04.12,2.07.24,3.11.35.63.06,1.31-.06,1.89.17,3.18,1.25,6.88,1.45,8.61,5.71.11.28.64.33.44.24,1.38-.89,2.4-1.55,3.11-2.01.59-1.4.93-3.57,1.81-3.93,1.25-.51,2.91.3,4.46.56.2,1.5.38,2.84.55,4.17l-.55.44c-.78-.84-1.57-1.67-3.09-3.3-.44,3.65-.86,6.68-1.15,9.73-.21,2.14,2.24,3.85.81,6.24,1.14.72,2.28,1.43,3.91,2.46-.56,1.46-1.38,3.62-2.31,6.04-3.07-3.47-5.4-7.08-5.47-12.11.31-1.22.95-2.49.83-3.66-.09-.89-1.12-2.3-1.76-2.32-1.21-.04-2.45.74-3.6,1.15,1.74,1.85,3.15,3.35,4.56,4.85Z"/>
  <path class="cls-1" d="M80.96,462.1c-1.08,2.21-1.78,3.63-2.74,5.61-3.81-1.6-8.48-.5-12.29-4.35-1.53-1.55-4.01-1.84-6.27-2.13.58.34,1.34.53,1.68,1.07.34.54.43,1.5.28,2.17-.06.27-1.27.61-1.55.34-1.18-1.15-1.94-.42-3.16.09-1.99.83-4.28.68-6.44.95-.15-.4-.3-.79-.46-1.18.81-1.33,1.58-2.71,2.44-3.99,1.71-2.54,1.27-5-1.23-6.51-.9-.55-1.97-.85-2.72-1.59-.62-.61-1.13-1.66-1.27-2.61-.32-2.11-.39-4.28-.56-6.45,1.9.2,3.83.99,4.07,4.52.06.85.96,1.84,1.69,2.36.71.5,1.7.65,2.54.56.26-.03.73-1.52.54-2.07-.36-1.04-1.03-2.03-1.76-2.78-.68-.69-1.61-1.05-2.44-1.55.68-.57,1.3-1.26,2.04-1.7,1.76-1.06,3.65-1.86,5.35-3.02,2.36-1.61,2.52-3.57.36-5.63-1.15-1.1-2.69-1.65-4.43-2.66,1.29-1.26,2.48-2.42,3.68-3.6,3.31,4.43,12.43,4.22,18.1,1.12,1.26,1.06,2.45,2.08,3.65,3.09-1.33,2.1-6.89,3.78-8.76,2.5-1.5-1.03-2.84-1.73-4.66-.72-.72.4-1.95-.46-3.01-.77-.24,2.07,3.81,3.09,1.55,5.67-1.32,1.51-3.28,2.25-5.08,3.42.66.35,1.24.66,1.82.97.05.3.09.61.14.91-1.56.59-3.11,1.18-4.67,1.77,1.07,5.1,4.08,7.79,8.05,5.79,3.55-1.8,7.17-.11,9.21,3.28-2.16,3.71-1.67,4.81,2.26,5.57,1.37.27,2.68,1.01,4.08,1.55ZM59.09,459.51c.23-.62.47-1.24.7-1.86-1.03-.63-2.07-1.26-3.1-1.89-.25.72-.79,2.01-.71,2.07.98.67,2.06,1.15,3.11,1.68Z"/>
  <path class="cls-1" d="M107.68,113.37c2.07-3,4.62-1.6,6.79-2.06,1.11-.23,2.24-.39,3.36-.52.59-.07,1.2-.05,1.8.02.9.11,2.36.76,2.59.37.63-1.05,1.04-2.55.97-3.83-.11-1.84-1.28-3.64.19-5.46.16-.19-.19-1.41-.49-1.53-.61-.23-1.39-.23-2,.01-2.91,1.18-4.14.44-4.23-2.95.9.23,1.75.44,2.95.75v-3.79c.99-1.56,1.73-2.92,2.65-4.09.7-.88,1.8-2.25,2.43-2.06.92.27,2.01,1.62,2.27,2.74.39,1.71.23,3.62.12,5.44-.11,1.83.41,2.86,2,3.23,1.88.45,3.03,1.61,3.41,4.06.18,1.13,1.34,2.16,2.22,3.01,2.23,2.15,2.08,3.52-.27,5.58-1.62,1.42-2.92,3.34-4.51,5.22-.66-1.05-1.17-2.17-1.92-2.97-.79-.83-1.82-1.36-2.7-1.99-3.58,5.27.22,8.26,2.38,11.7.71,1.13,1.59,2.12,2.24,3.28.21.38.1,1.5-.12,1.62-.48.26-1.4.38-1.66.04-1.7-2.18-3.64-3.52-6.25-3.08-1.07.18-2.14.39-3.32.6-.46-2.53-1.47-3.64-4.18-2.01-1.47.89-3.51.5-5.88.75,1.22-2.89,2.45-5.8,3.5-8.28-1.28-1.13-2.68-2.36-4.35-3.83ZM120.7,118.6c-3.24-3.72-3.74-3.73-6.02-.99,2,.33,4.01.66,6.02.99Z"/>
  <path class="cls-1" d="M63.74,369.54c-1.43-1.02-3.03-2.17-4.62-3.32.14-.38.28-.76.42-1.14.97.2,1.94.4,2.92.6,1.54-2.66,1.12-3.76-1.52-4.11-2.58-.34-5.15-.78-7.26-1.1-.76-2.17-1.25-3.59-1.87-5.36.9-2.57,2.72-1.26,4.85-.86-.76.8-1.4,1.17-1.6,1.74-.23.7-.38,1.89-.04,2.29.48.59,1.53,1.1,2.14.88,4.65-1.67,5.39-1.5,8.08,2.53,1.88-2.81,3.06-2.88,5.06-.27,1.33,1.73,1.96,1.59,3.85-1.29,2.56,3.69,3.38,9.8,9.06,9.02-.33,3.52.68,5.36,3.71,5.6.73.06,1.8,1.92,1.91,3.06.18,1.89-1.22,1.24-2.31,1.47-2.41.5-4.36-.21-6.58-1.17-1.29-.56-3.19.87-4.84,1.28-.69.17-1.44.02-2.17.01.36-.75.67-1.54,1.08-2.25.2-.33.58-.54.9-.74,1.59-.93,2.27-2.62,1.48-4.27-.5-1.03-2.01-1.39-3.46-2.3,0-.22.05-1.33.08-1.97-3.68-2.65-5.95,1.17-9.28,1.67Z"/>
  <path class="cls-1" d="M116.05,404.25c-.57-1.08-1.28-2.42-1.98-3.74q-3.51,1.09-5.99-3c2.34.19,4.76.56,7.16.49,1.01-.03,2.87-1.05,2.84-1.47-.11-1.51-.03-3.6-2.07-3.91-.21-.03-.39-.39-.58-.59.11-.25.2-.59.27-.59,3.25.23,5.98-1.14,8.92-2.76,2.48-1.36,5.81-1,8.72-.73,1.64.15,3.18,1.66,4.75,2.54-1.36,2.31-4.73,3.61-6.99,2.65-1.61-.68-3.28-1.22-4.96-1.62-1.43-.35-2.88-.78-3.29,1.96-.13.89-1.83,1.46-2.8,2.17,2.36,5.18,5.89,5.8,9.36,1.76.4-.47,1.04-.72,1.61-.91,2.29-.77,5.01,1.09,7.05-1.61.13-.18,1.26.66,1.92,1.03-.6,1.46,1.17,4.14-1.39,4.51-5.65.81-11.34,1.26-16.99,2.05-1.78.25-3.49,1.09-5.55,1.77Z"/>
  <path class="cls-1" d="M89.15,388.66c-1.07,1.03-1.39,1.56-1.83,1.72-1.4.53-3.05.53-4.22,1.42-4.95,3.77-10.04,1.78-15.13.93-.98-.16-2.01-.08-2.96-.37-1.32-.39-2.58-1.02-3.87-1.55.01-.39.02-.78.04-1.18,1.7-.91,3.44-1.72,5.07-2.77.59-.38,1.4-1.66,1.26-1.94-.39-.78-1.19-1.64-1.91-1.74-1.52-.21-3.14-.23-4.63.16-4.03,1.07-7.01-.81-9.56-4.23-.81.37-1.55.7-2.49,1.13-.26-2.87.42-5.22,2.46-6.05,1.28-.53,2.95-3.5,4.69-.03-.86.31-1.58.57-3.07,1.1,2.14,1.61,3.75,2.82,5.19,3.91.73-.2,1.59-.8,2.21-.56,4.15,1.56,7.66.53,11.03-3.01-.74,1.93-1.48,3.86-2.23,5.79-1.66,4.3,1.36,9.2,5.3,9.72,3.45.45,6.15-1.15,9.13-2.36,1.4-.57,3.11-.1,5.5-.1Z"/>
  <path class="cls-1" d="M90.72,413.12c.11.98.19,1.66.24,2.09-3.53-1.79-7.01-3.55-10.49-5.3.21-.57.31-.93.34-.92,2.75.7,5.11-1.11,7.59-1.54,3.33-.56,6.88.66,10.33,1.14.25.03.61.23.7.47,1.46,3.8,4.52,2.38,6.75,2.29,2.34-.09,5,0,6.86-3.03,1.74-2.82,3.98-2.67,7.06-.19-2.36,2.11-4.56,4.08-6.86,6.13-7.3-.37-14.84-.75-22.53-1.14Z"/>
  <path class="cls-1" d="M99.77,324.34c-.64-1.75-1.14-3.24-1.73-4.67-.82-1.99-2.02-2.26-3.87-1.64-1.83.62-3.89.74-5.79.47-.84-.12-1.53-1.72-2.29-2.66,1.17-1.25,2.49-3.7,3.47-3.52,3.48.61,6.92,1.9,10.23,3.38,1.7.76,1.75,6.87-.02,8.64Z"/>
  <path class="cls-1" d="M161.07,345.09c-1.83,2.7-1.52,6.14-4.72,6.61-.69.1-1.42.61-1.96,1.17-3.75,3.84-7.27,1.44-10.73-.62-.27-.16-.05-2.48.13-2.52,1.68-.35,3.44-.73,5.11-.47,2.02.31,3.64.24,5.46-1.21,1.7-1.35,3.93-1.79,6.7-2.96Z"/>
  <path class="cls-1" d="M54.85,301.38c2.59-.6,2.92,2.07,3.59,3.62.47,1.08-.02,2.83-.32,4.21-.08.36-1.12.82-1.55.65-3.38-1.32-6.74-2.72-10.06-4.26-.54-.25-.81-1.28-1.21-1.95,1.35-1.08,2.6-2.62,4.08-3.05.85-.25,2.11,1.26,3.14,2.07.73.57,1.38,1.29,2.07,1.94.08-.97.15-1.93.26-3.23Z"/>
  <path class="cls-1" d="M232.51,323.79c2.45-.28,4.77-.7,7.1-.74,1-.02,2.02.76,3.03,1.17-.55,1.26-.97,2.63-1.69,3.73-.38.57-1.3.64-1.95.93-.07.27-.15.46-.18.67-.14,1.29-.28,2.58-.41,3.87-.99-.88-2.01-1.72-2.97-2.65-.56-.54-.92-1.54-1.53-1.78-2.47-.94-2.56-2.69-1.4-5.19Z"/>
  <path class="cls-1" d="M255.23,326.36c-1.23,0-2.46-.01-3.7.01-.16,0-.34.3-.49.27-1.23-.19-2.46-.39-3.67-.71-.09-.02-.17-1.25.01-1.38,1.1-.76,2.26-1.44,3.46-1.99.45-.21,1.28.29,1.53,0,2.03-2.44,4.32-2.26,6.89-.59.21-1.15.24-1.89.49-2.5.26-.61.81-1.59,1.12-1.54.85.14,1.75.6,2.42,1.24.24.23.1,1.68-.24,1.96-1.8,1.47-3.73,2.74-5.6,4.1-.78.57-1.53,1.18-2.29,1.78.02-.22.05-.44.07-.66Z"/>
  <path class="cls-1" d="M46.88,413.66c-.33-.62-1.31-1.8-1.12-2.21.59-1.22,1.87-3.17,2.47-2.99,1.82.55,2.91.41,4.41-1.18.74-.78,3.22-.33,4.27.57,1.07.92,1.39,3.07,1.88,4.75.04.13-1.42,1.25-1.66,1.06-3.01-2.51-6-2.42-9.09-.31-.15.1-.36.1-1.17.31Z"/>
  <path class="cls-1" d="M39.23,241.35c-1.32.62-2.59,1.41-3.95,1.82-2.98.91-3.4,1.94-1.63,4.89-.41.23-.91.75-1.15.61-1.82-1.04-2.35.18-3.04,1.85-.44,1.07-1.48,1.86-2.37,2.56-.13.1-1.49-1.3-1.39-1.59.39-1.14,1.01-2.29,1.79-3.12,1.67-1.79,3.51-3.28,3.56-6.4.01-.8,1.15-2.24,1.79-2.26,2.08-.06,4.17.41,6.25.68.05.32.1.64.15.96Z"/>
  <path class="cls-1" d="M203.49,374.84c2.59-.5,4.58-.85,6.54-1.28,1.66-.36,2.9-.26,4.02,1.74.64,1.14,2.41,1.41,3.67,2.08.46.25.91.51,1.37.76-.35.54-.6,1.27-1.06,1.57-.53.34-1.28.53-1.88.4-4.27-.97-8.53-2.01-12.78-3.14-.45-.12-.76-.95-1.13-1.44.58-.32,1.15-.65,1.24-.7Z"/>
  <path class="cls-1" d="M239.66,336.89c-2.99,2.12-5.53,3.22-8.51,1.46-1.6-.94-3.52-2.04-2.44-4.09.75-1.42,3.34-2.76,4.61-2.29,2.24.83,4.09,3.07,6.35,4.91Z"/>
  <path class="cls-1" d="M216.81,325.7c4.56-1.41,9.11-2.82,14.01-4.34-1.04,3.56-4.83,6.54-7.4,6.41-.51-.03-1.26-.01-1.52.35-2.4,3.44-3.46.08-4.96-1-.04-.47-.08-.95-.13-1.42Z"/>
  <path class="cls-1" d="M229.94,360.42c1.7-1.52,2.69-3.1.93-5.3-.29-.36-.11-1.88.27-2.2,1.22-1.04,2.6-1.88,4.02-2.48.18-.07,1.01,1.73,1.41,2.73.18.45.07,1.06.08,1.6.11,5.47-1.59,6.98-6.71,5.66Z"/>
  <path class="cls-1" d="M68.38,321.52c-1.37-2.1-.59-3.51,1.24-3.58,2.63-.09,4.29-1.49,6.17-3.48,2.7-2.86,6.22-1.21,9.39-1.38.12.41.24.83.36,1.24-1.3.58-2.6,1.17-3.9,1.75-.85.37-1.7.73-2.59,1.44-1.37.53-2.73,1.11-4.12,1.57-.57.19-1.32.44-1.79.17-2.28-1.29-3.71-.51-4.75,2.26Z"/>
  <path class="cls-1" d="M281.99,450.64c-2.65,2.81-4.86,5.37-7.26,7.63-1.96,1.84-3.12,1.3-4.54-1.86.66-.12,1.26-.43,1.77-.29,1.43.38,1.93-.14,2.62-1.76.87-2.03,2.6-3.56,4.1-5.49-.12-.2-.56-.93-1-1.66l.7-.82c1.23,1.45,2.47,2.9,3.61,4.25Z"/>
  <path class="cls-1" d="M189.63,367.28c-1.26.47-2.82,1.05-4.44,1.65-.16.7-.41,1.84-.66,2.98-.78-.44-2.02-.69-2.23-1.38-.28-.89.23-2.14.44-3.22.22-1.1.46-2.2.75-3.28.25-.93.58-1.82.88-2.73.74.62,1.55,1.14,2.19,1.88.95,1.09,1.77,2.33,3.08,4.1Z"/>
  <path class="cls-1" d="M86.37,404.1c-3.4-.23-6.1-.1-8.65-.75-1.1-.28-2.54-2.07-2.71-3.37-.31-2.45,1.78-1.72,2.84-1.62,3.33.32,5.95,2.28,8.52,5.73Z"/>
  <path class="cls-1" d="M46.09,221.77c-.43,2.24-.51,4.74-3.63,2.87-.49-.29-2.36,2.3-3.44,3.72-.37.48-.05,1.7-.43,2.13-.68.78-1.65,1.23-2.5,1.81-.02-.94-.27-1.97-.01-2.8.8-2.65,1.79-5.22,2.33-6.74,3.21-.39,5.44-.67,7.67-.94,0,0,.01-.05.01-.05Z"/>
  <path class="cls-1" d="M208.12,331.68c-3.86,1.47-4.18,5.73-5.86,8.91-.6,1.13-2.02,1.68-3.11,2.53-1.26-5.14,4.26-12.57,8.97-11.44Z"/>
  <path class="cls-1" d="M11.61,362.87c-1.74-.87-2.57-1.28-3.37-1.68.47-1.68.9-3.25,1.34-4.86-1.54-.86-4.49,1.57-4.08-2.97,3.71,1.39,7.85-2.68,10.94,2.44-.99-.26-1.97-.72-2.96-.7-.83,0-1.87.32-2.4.97-.35.41.03,1.67.1,2.54.1,1.16.22,2.31.42,4.26Z"/>
  <path class="cls-1" d="M79.94,500c-.69-2.62-1.24-4.7-1.8-6.85,2.9-.64,5.69-1.44,7.25,2.43.23.56.31,1.79.14,1.87-1.92.98-3.9,1.8-5.59,2.55Z"/>
  <path class="cls-1" d="M228.82,337.55c-1.99,2.96-3.45,5.23-5.02,7.39-.48.66-1.26,1.05-1.93,1.5-1.25.81-2.5,1.65-3.81,2.32-.56.29-1.26.19-1.9.26.05-.87-.07-2.43.16-2.51,4.18-1.34,7.11-4.65,9.98-8.14.35-.43,1.13-.39,2.52-.81Z"/>
  <path class="cls-1" d="M149.24,393.38c-.64-.71-1.66-1.41-1.58-1.84.17-1.01.7-2.42,1.39-2.72,1.96-.86,4.06-1.36,6.13-1.74.65-.12,1.42.6,2.13.94-.37.77-.58,1.94-1.14,2.23-2.17,1.16-4.44,2.03-6.94,3.13Z"/>
  <path class="cls-1" d="M266.56,103.5c1.78-.52,3.24-.94,4.71-1.37.2.3.39.59.59.89-.86,1.05-1.72,2.11-2.55,3.13.75,1.18,2.1,2.38,2.23,3.73.14,1.48-.84,3.11-1.34,4.68-.3,0-.59.02-.89.03-.87-3.5-1.73-6.99-2.75-11.09Z"/>
  <path class="cls-1" d="M172.21,377.8c-2.3,1.31-4.13,3.02-6.06,3.21-1.38.13-2.9-1.8-4.63-3.01,2.13-1.35,3.84-2.44,4.91-3.12,2.11,1.07,3.75,1.89,5.78,2.92Z"/>
  <path class="cls-1" d="M97.75,386.88c.49,1.11.85,1.69,1.01,2.35.71,2.93,1.75,3.6,4.1,2.35,1.72-.91,3.13-.71,5,1.79-3.57.44-6.52,1.14-9.43.94-.8-.05-1.64-2.72-2.09-4.33-.17-.61.7-1.62,1.41-3.1Z"/>
  <path class="cls-1" d="M60.1,311.26c.21-2.25-.16-4.65.69-5.74.99-1.26,3.03-1.46,4.67-1.88.24-.06,1.14,1.33,1.04,1.87-.21,1.12-.68,2.46-1.43,3.1-1.14.97-2.6,1.43-4.97,2.65Z"/>
  <path class="cls-1" d="M191.75,376.52q1.56,1.45,4.58-.35c.27.59.53,1.19.88,1.98.45-.42.81-1.02,1.28-1.15.6-.17,1.48-.24,1.88.16.49.49.85,1.53.76,2.25-.05.4-1.12.89-1.73.9-2.57.04-5.15-.05-7.72-.19-.47-.03-.91-.51-1.37-.78.47-.92.94-1.84,1.43-2.8Z"/>
  <path class="cls-1" d="M25.49,348.21c-1.09-1.78-2.06-3.08-2.74-4.56-.47-1.03-.53-2.32-.78-3.49,1.51-.26,3.03-.68,4.53-.61.26.01.78,2.14.61,3.16-.33,1.92-1.07,3.74-1.62,5.5Z"/>
  <path class="cls-1" d="M346.29,348.44c-3.32-5.2-3.05-6.75,2.55-10.78.43.56.95,1.25,1.14,1.5-1.39,3.49-2.53,6.35-3.7,9.28Z"/>
  <path class="cls-1" d="M41.53,362.57c-.47-1.45-1.38-2.81-1.13-3.72.84-3.01-.75-4.58-2.31-6.28,1.06-.67,1.98-1.3,2.94-1.82.65-.35,1.36-.53,2.05-.79.21.9.72,1.86.58,2.68-.54,3.07-1.28,6.1-2.13,9.94Z"/>
  <path class="cls-1" d="M118.76,82.19c.63-.88,1.21-1.82,1.9-2.63,1.81-2.1,3.62-4.22,5.54-6.18,1.24-1.27,2.69-2.18,4.25-1.04-1.84,1.99-3.56,3.97-5.4,5.79-1.79,1.77-3.7,3.36-5.55,5.03-.25-.32-.5-.65-.75-.97Z"/>
  <path class="cls-1" d="M52.4,313.84c-.1,4.34-.94,5.85-3.42,5.98-.82.04-1.99-.34-2.39-1.01-.34-.59-.05-2.03.37-2.81,1.21-2.3,3.14-2.59,5.44-2.16Z"/>
  <path class="cls-1" d="M136.48,117.99c1.35-3.65,2.48-6.99,6.16-8.27.8,1.55,1.59,3.08,2.38,4.61-.1.31-.21.62-.31.93-3.72-2.82-5.08,2.33-8.23,2.72Z"/>
  <path class="cls-1" d="M17.09,277.41c1.81,1.37,3.07,2.13,4.09,3.2.43.45.7,1.72.46,2.3-.45,1.1-1.31,1.97-1.8,2.64-1.46-1.3-3.23-2.12-3.72-3.55-.42-1.23.61-3.14.96-4.59Z"/>
  <path class="cls-1" d="M10.87,326.98c2.08.37,3.75.67,6.02,1.07-.77,1.94-1.29,3.71-2.15,5.23-.74,1.31-2.58.44-3.09-1.5-.35-1.31-.45-2.72-.77-4.81Z"/>
  <path class="cls-1" d="M105.16,127.36c-1.62.73-3.19,1.59-4.84,2.09-.6.18-1.73-.26-2-.82-.28-.58-.05-1.9.38-2.47,2.37-3.13,4.59-2.71,6.46,1.2Z"/>
  <path class="cls-1" d="M51.76,297.43c-1.18-1.85-.97-3.72.67-4.64,1.53-.86,3.41-.9,5.14-1.3.1.66.45,1.75.24,1.93-1.65,1.41-3.41,2.66-5.16,3.92-.2.15-.53.06-.89.09Z"/>
  <path class="cls-1" d="M43.22,372.89c-.59.72-.89,1.31-1.32,1.55-.32.18-.94.09-1.23-.17-1.14-1.04-2.34-2.06-3.22-3.36-.4-.59-.33-1.96-.02-2.73.25-.62,1.63-1.33,1.74-1.2,1.41,1.86,2.68,3.85,4.06,5.91Z"/>
  <path class="cls-1" d="M212.11,368.75c1.8-1.58,3.58-3.2,5.47-4.63.12-.09,1.37,1.22,1.58,2.06.43,1.73-.26,3.02-1.9,3.14-1.61.12-3.22.03-4.84.03l-.31-.6Z"/>
  <path class="cls-1" d="M173.61,356.46c1.1-2.39,1.79-4.6,4.28-4.27,2.02.27,2.86,1.7,2.67,4.27h-6.95Z"/>
  <path class="cls-1" d="M47.28,425.58c3.32-.6,6.47-1.16,10.17-1.82-1.46,4.52-4.79,2.87-6.93,4.01-1.39.74-3.05-.16-3.24-2.18Z"/>
  <path class="cls-1" d="M164.85,368.47q1.02-2.7,7.17-1.72c-1.11,1.81-2.18,3.56-3.47,5.67-.04-.06-.81-.63-.77-1.1.21-2.53-.3-3.98-2.93-2.84Z"/>
  <path class="cls-1" d="M67.22,415.58c-1.87-.33-3.73-.66-6.23-1.1,1.03-1.03,1.54-1.54,1.88-1.87-.97-1.37-1.9-2.66-2.82-3.96.35-.37.7-.73,1.05-1.1,2.05,2.67,4.1,5.33,6.15,8,0,0-.03.04-.03.04Z"/>
  <path class="cls-1" d="M276.51,444.97c-.82,1.52-1.51,3.17-2.5,4.52-.53.72-1.57.92-2.38,1.36-.05-1.42-.63-3.44-.04-4.14,1.08-1.31,2.84-1.85,4.31-2.71.21.33.41.65.62.98Z"/>
  <path class="cls-1" d="M68.41,279.53c-.98,4.89-5.35,3.68-6.89,7.25-.91-3.7.82-5.38,6.89-7.25Z"/>
  <path class="cls-1" d="M18.55,342.97c-.32-2.23-3.62-2.4-2.55-6.02,1.69.62,3.29,1.21,4.89,1.79-.4,1.47-.8,2.94-1.2,4.41l-1.14-.19Z"/>
  <path class="cls-1" d="M22.64,262.75c1.46,5.05-1.85,8.18-3.59,11.95.37-4.31,1.71-8.23,3.63-11.92,0,0-.03-.03-.03-.03Z"/>
  <path class="cls-1" d="M148.58,119.09c-1.58-.32-3.15-.63-4.73-.95,1.7-1.61,2.11-5.67,4.95-3.78,1.96,1.31.26,3.18-.26,4.76,0,0,.04-.03.04-.03Z"/>
  <path class="cls-1" d="M7.86,295.32c1.76-.6,3.18-1.2,4.64-1.51.32-.07,1.21,1,1.14,1.37-.22,1.16-.61,2.41-1.27,3.26-.34.43-1.59.35-2.13-.05-.8-.59-1.34-1.67-2.38-3.07Z"/>
  <path class="cls-1" d="M7.62,346.61c.84-1.57,1.52-3.31,2.58-4.64.52-.65,1.74-.52,2.64-.75.06.94.47,2.43.13,2.72-1.56,1.32-3.33,2.31-5.02,3.42-.11-.25-.22-.5-.33-.75Z"/>
  <path class="cls-1" d="M230.81,483.61c1.77,1.33,3.45,2.59,5.57,4.18-3.02,2.3-4.9.09-7.28,0,.66-1.61,1.11-2.7,1.71-4.18Z"/>
  <path class="cls-1" d="M220.98,337.26c-1.57,1.18-2.58,2.07-3.7,2.65-.19.1-1.35-1.53-1.26-1.68.83-1.35,1.85-2.56,2.81-3.81.52.68,1.04,1.36,2.16,2.83Z"/>
  <path class="cls-1" d="M100.04,362.73c-1.7,0-3.43.19-5.09-.11-.53-.09-1.37-1.68-1.2-2.22.23-.75,1.49-1.82,1.93-1.61,1.63.75,3.09,1.97,4.62,3.01l-.26.94Z"/>
  <path class="cls-1" d="M232.34,340.81c.68,1.46,2.22,3.75,1.89,4.22-1.02,1.43-2.74,2.24-4.26,3.09-.23.13-.89-.81-1.35-1.26.36-.5.71-1.42,1.07-1.42,2.86-.01,3.01-1.6,1.49-4.32.39-.11.78-.21,1.17-.32Z"/>
  <path class="cls-1" d="M73.98,170.89c1.09-1.77,1.85-3.28,2.87-4.5.33-.39,1.65-.32,1.96.1.47.64.87,2.32.59,2.6-1.12,1.13-2.46,2.05-3.84,2.69-.43.2-1.24-.69-1.58-.89Z"/>
  <path class="cls-1" d="M50.28,330.64c-1.42,1.15-2.36,2.47-3.02,2.3-.81-.21-2.04-1.86-1.9-2.54.21-1.01,1.39-2.09,2.33-2.4.47-.16,1.34,1.31,2.58,2.64Z"/>
  <path class="cls-1" d="M97.58,383.5c.7-3.01,7.75-5.68,10.15-4.3-3.37,1.43-6.6,2.79-10.15,4.3Z"/>
  <path class="cls-1" d="M43.82,339.01c1.49,3.61.39,5.34-.92,6.56-.64.59-2.02.1-3.06.1-.16-.38-.32-.77-.49-1.15,1.36-1.68,2.72-3.36,4.47-5.51Z"/>
  <path class="cls-1" d="M190.78,343.72c1.02,1.55,1.75,2.67,2.48,3.79-.71.48-1.69,1.56-2.08,1.32-1.06-.64-1.88-1.85-2.79-2.83.61-.58,1.23-1.17,2.39-2.28Z"/>
  <path class="cls-1" d="M86.5,448.83c-.22,2.08-.39,3.68-.59,5.59-1.49-.61-2.57-1.05-3.78-1.55.2-2.91,1.73-3.75,4.37-4.04Z"/>
  <path class="cls-1" d="M25.77,467.51c-2.16-.57-4.16-1.09-6.15-1.62l.02-.95c1.44-.36,3.99.85,2.88-2.76q1.67.35,3.25,5.33Z"/>
  <path class="cls-1" d="M87.73,289.4c.44,1.32,1.54,3.42,1.19,3.83-1.01,1.19-2.61,1.71-3.98,2.49-.19-.31-.38-.62-.57-.93.8-1.69,1.59-3.39,2.39-5.08.33-.1.65-.2.98-.31Z"/>
  <path class="cls-1" d="M22.32,359.41c.57.4,1.36.96,2.15,1.51-.29.36-.7,1.1-.85,1.03-.98-.43-2.4-.76-2.75-1.63-.63-1.57-.61-3.49-.86-5.26.43-.1.85-.21,1.28-.31.34,1.54.68,3.08,1.02,4.66Z"/>
  <path class="cls-1" d="M30.55,318.58c1.15-1.78,2.06-3.29,3.08-4.69.2-.28.89-.37,1.18-.17.32.22.58.83.62,1.31.17,2.11-2.44,4.27-4.88,3.56Z"/>
  <path class="cls-1" d="M52.07,193.53c.83-2.5,1.38-4.33,3.27-2.94.75.55,1.61,2.6,1.33,3.08-1.76,2.96-2.66-1.17-4.6-.14Z"/>
  <path class="cls-1" d="M68.85,168.88c-.39,4.37-2.41,5.25-5.77,2.62,2.05-.93,3.69-1.67,5.77-2.62Z"/>
  <path class="cls-1" d="M263.3,460.73c-1.64,0-2.81.39-3.2-.08-.84-1.02-1.28-2.48-1.89-3.76.82-.18,1.94-.83,2.39-.44.9.79,1.42,2.15,2.7,4.28Z"/>
  <path class="cls-1" d="M32.49,363.81v5.34c-.95-.1-2.14-.23-4.1-.44,1.36-2.29,2.35-3.95,3.33-5.61.26.24.51.47.77.71Z"/>
  <path class="cls-1" d="M15.13,357.07c1.55,2.31,2.61,3.9,3.67,5.49-.24.34-.49.68-.73,1.01-1.4-.95-2.89-1.77-4.12-2.96-.22-.21.62-1.92,1.18-3.54Z"/>
  <path class="cls-1" d="M232.93,362.02c1.95,3.71,1.55,4.98-2.21,5.59.44-2.12.84-4.01,1.23-5.9.33.1.65.21.98.31Z"/>
  <path class="cls-1" d="M8.67,307.57c-1.2-.83-2.05-1.24-2.67-1.94-.25-.28-.19-1.57.05-1.73,1.22-.8,2.55-1.39,4.29-2.27-.56,1.98-1.05,3.74-1.66,5.94Z"/>
  <path class="cls-1" d="M127.56,411.14c-1.76-.32-2.73-.38-3.64-.69-.63-.22-1.39-.65-1.66-1.25-.19-.42.21-1.66.61-1.88.64-.35,1.79-.55,2.21-.12.9.91,1.47,2.26,2.48,3.94Z"/>
  <path class="cls-1" d="M90.04,367.47c0-2.09-.04-4.01.08-5.92,0-.15,1.51-.55,1.77-.22,1.08,1.34.06,4.91-1.86,6.14Z"/>
  <path class="cls-1" d="M63.55,315.77c-.62.87-1.23,1.74-2.43,3.43-.73-1.99-1.26-3.42-1.79-4.86,1.38.06,2.76.12,4.14.18.03.42.06.83.08,1.25Z"/>
  <path class="cls-1" d="M109.91,317.78c-1.11,1.26-1.59,1.74-2.01,2.29-.35.46-.64.98-1.73,1.52-.22-1.63-.45-3.26-.8-5.86,1.7.77,2.88,1.3,4.54,2.05Z"/>
  <path class="cls-1" d="M104.66,363.78c1.69,1.26,3.39,2.53,5.43,4.05-.56.58-1.35,1.6-1.48,1.49-1.65-1.32-3.21-2.81-4.79-4.25.28-.43.56-.86.84-1.29Z"/>
  <path class="cls-1" d="M121.85,377.74c.42.07,1.03-.04,1.25.25.87,1.18,1.62,2.48,2.42,3.73-.54.14-1.14.51-1.62.37-1.97-.56-2.43-1.59-2.04-4.36Z"/>
  <path class="cls-1" d="M227.54,362.56c-1.81.53-3.05.9-4.29,1.26-.04-1.08-.48-2.75-.05-3.14,1.4-1.29,2.67-.43,4.34,1.87Z"/>
  <path class="cls-1" d="M73.2,154.9c2.62,1.83,2.41,3.6,1.19,5.25-.21.28-1.59-.15-1.59-.2.07-1.69.24-3.37.4-5.06Z"/>
  <path class="cls-1" d="M46.07,350.55c1.06,1.29,2.11,2.58,3.17,3.86-1.15,0-2.43.35-3.41-.13-.61-.3-.75-1.86-1.11-2.85.45-.29.9-.59,1.35-.88Z"/>
  <path class="cls-1" d="M138.08,123.85c0,2.76-2.18,5-3.51,4.15-.33-.21-.42-1.99-.15-2.2,1.04-.81,2.29-1.26,3.65-1.95Z"/>
  <path class="cls-1" d="M212.58,326.12c.95,1.29,1.97,2.38,1.86,2.57-.69,1.18-1.63,2.16-2.49,3.21-.36-.42-1.09-.97-1.02-1.24.36-1.34.92-2.61,1.65-4.54Z"/>
  <path class="cls-1" d="M95.42,402.93c-1.46,2.72-2.86,2.78-4.1,1.13-.33-.44-.07-1.48-.09-2.25,1.4.37,2.79.75,4.19,1.12Z"/>
  <path class="cls-1" d="M143.17,367.96c2.84.37,4.74.62,6.65.87.06.24.12.48.18.72-1.64.44-3.28,1.07-4.94,1.21-.45.04-.98-1.4-1.89-2.8Z"/>
  <path class="cls-1" d="M228.94,484.39c-.82.88-1.33,1.43-1.83,1.98-.66-.9-1.51-1.72-1.85-2.77-.11-.33,1.14-1.27,1.76-1.93.56.79,1.12,1.58,1.92,2.72Z"/>
  <path class="cls-1" d="M124.22,337.66h3.67c-.38,1.76-.7,3.24-1.03,4.73-.24.09-.48.19-.72.28-.57-1.48-1.14-2.97-1.93-5.01Z"/>
  <path class="cls-1" d="M174.63,341.84c1.3,1.41,2.6,2.82,4.06,4.4-.66.67-1.31,1.33-1.92,1.96-.97-2.16-1.83-4.06-2.69-5.96.18-.13.37-.27.55-.4Z"/>
  <path class="cls-1" d="M258.36,450.2c.75-1.18,1.49-2.36,2.24-3.54.6.57,1.2,1.13,1.8,1.7-.94,1.03-1.89,2.06-2.83,3.08-.4-.41-.81-.83-1.21-1.24Z"/>
  <path class="cls-1" d="M49.58,338.43c1.14-.69,2.27-1.39,3.41-2.08.23.19.46.39.69.58-.46,1.23-.71,2.7-1.48,3.55-.31.35-1.74-.68-2.66-1.08.01-.32.03-.64.04-.97Z"/>
  <path class="cls-1" d="M53.74,386.8c3.15-.77,4.36.66,4.11,4.59-1.4-1.56-2.59-2.89-4.11-4.59Z"/>
  <path class="cls-1" d="M333.39,383.49c1.29-.62,2.33-1.12,3.1-1.48.63,1.61,1.28,3.27,2.18,5.57-1.94-1.5-3.55-2.75-5.28-4.09Z"/>
  <path class="cls-1" d="M205.39,154.09c.8-.18,2.23-.67,2.3-.47.55,1.48.84,3.1,1.29,5.06-2.68-.45-.47-4.74-4.38-2.99.26-.53.52-1.07.79-1.6Z"/>
  <path class="cls-1" d="M251.52,330.3c.82,1.64,1.65,2.57,1.53,3.27-.13.75-1.16,1.29-1.8,1.92-.35-.6-1.03-1.23-.99-1.8.06-.88.6-1.71,1.27-3.38Z"/>
  <path class="cls-1" d="M5.7,318.49c-.35,1.56-.7,3.12-1.12,4.97-2.67-2.37-2.49-3.4,1.12-4.97Z"/>
  <path class="cls-1" d="M61.09,399.27c.21.6.6,1.21.57,1.8-.04.83-.38,1.65-.59,2.47-.68-.25-1.72-.29-1.94-.81-.27-.64-.06-1.81.3-2.5.27-.51,1.1-.62,1.68-.91l-.02-.05Z"/>
  <path class="cls-1" d="M24.39,357.69c-.36-1.27-.92-2.52-.98-3.8-.03-.63.89-1.31,1.91-2.68v6.07c-.31.14-.62.27-.94.41Z"/>
  <path class="cls-1" d="M38.72,380.68c-1.82-3.04-1.67-3.71,1.35-5.49-.52,2.11-.87,3.53-1.35,5.49Z"/>
  <path class="cls-1" d="M51.23,404.51c-.85-.94-1.69-1.88-2.54-2.83.61-.31,1.5-1.09,1.77-.86.77.63,1.28,1.69,1.9,2.58-.38.37-.76.74-1.14,1.11Z"/>
  <path class="cls-1" d="M45.2,421.74c-.8.61-1.39,1.27-1.55,1.15-.81-.62-1.52-1.43-2.26-2.18.33-.43.86-1.29.96-1.22.89.58,1.71,1.31,2.85,2.25Z"/>
  <path class="cls-1" d="M61.11,399.31c2.02-2.85,3.42.2,5.18-.17-.07.53-.15,1.07-.22,1.6-1.66-.49-3.32-.99-4.98-1.48,0,0,.02.05.02.05Z"/>
  <path class="cls-1" d="M46.15,377.45c-1.16.74-1.79,1.38-2.46,1.47-.33.05-1.17-1.2-1.09-1.35.41-.74.96-1.53,1.62-1.83.3-.14.97.82,1.93,1.7Z"/>
  <path class="cls-1" d="M25.2,369.91c-.99,2.18-1.54,3.58-2.25,4.86-.2.37-.87.38-1.32.56-.11-.66-.5-1.66-.28-1.92.98-1.11,2.14-1.99,3.85-3.5Z"/>
  <path class="cls-1" d="M22.59,381.08c1.04-.52,2.07-1.04,3.11-1.56.18.54.56,1.54.52,1.56-1,.59-2.04,1.08-3.08,1.58-.19-.53-.37-1.06-.56-1.59Z"/>
  <path class="cls-1" d="M104.37,118.49c-.29-3.03.67-4.09,3.45-3.22-1.39,1.3-2.42,2.26-3.45,3.22Z"/>
  <path class="cls-1" d="M247.25,335.44c-1.11.71-1.7,1.39-2.22,1.33-.53-.06-.99-.86-1.48-1.34.49-.55.94-1.45,1.48-1.54.5-.08,1.1.72,2.22,1.55Z"/>
  <path class="cls-1" d="M108.06,326.1c.12,1.21.25,2.43.46,4.47-1.03-.7-2.06-1.08-2.07-1.47,0-1.08.42-2.17.67-3.25.31.08.63.17.94.25Z"/>
  <path class="cls-1" d="M3.19,327.33c-.26,4.34-.77,4.8-3.19,3.37.95-1,1.79-1.89,3.19-3.37Z"/>
  <path class="cls-1" d="M18.38,292.8c-.75,1.55-1.5,3.09-2.25,4.64-.31-.2-.62-.4-.92-.6-.6-2.41,1.72-2.99,2.51-4.53.22.17.44.33.66.5Z"/>
  <path class="cls-1" d="M33.49,342.86c-.28,1.13-.56,2.27-.83,3.4-.48-.19-1.4-.47-1.39-.55.17-1.11.47-2.19.74-3.28.49.14.98.28,1.47.42Z"/>
  <path class="cls-1" d="M91.67,355.28c.97-3.64,1.87-4.11,3.81-2.11-1.24.69-2.35,1.3-3.81,2.11Z"/>
  <path class="cls-1" d="M334.29,389.2c-.72-1.15-1.44-2.29-2.12-3.46,0-.02.73-.69.75-.66.83,1.02,1.61,2.1,2.4,3.16-.34.32-.69.64-1.03.96Z"/>
  <path class="cls-1" d="M33.18,457.92c-.98-1.01-1.96-2.01-2.93-3.02.41-.48.82-.96,1.23-1.44.9,1.09,1.8,2.18,2.7,3.27-.33.4-.66.79-1,1.19Z"/>
  <path class="cls-1" d="M14.24,308.97c-.97-1.24-1.94-2.48-2.91-3.72.27-.29.53-.59.8-.88.97,1.2,1.94,2.4,2.9,3.6-.27.34-.53.67-.8,1.01Z"/>
  <path class="cls-1" d="M319.69,359.91c-.93,1.68-2.03,3.18-4.04,2.46-.4-.14-.5-1.39-.74-2.13,1.5-.49,2.99-.97,4.49-1.46.1.37.2.75.3,1.12Z"/>
</svg>