<?xml version="1.0" encoding="UTF-8"?>
<svg id="Layer_1" data-name="Layer 1" xmlns="http://www.w3.org/2000/svg" viewBox="0 0 402.45 309.8">
  <defs>
    <style>
      .cls-1 {
        fill: #000;
        stroke-width: 0px;
      }
    </style>
  </defs>
  <path class="cls-1" d="M6.18,145.95c.08-1.02.16-2.04.25-3.15-2.91-.62-3.06,1.92-4.64,3.13.3-3.15,1.74-5.08,1.37-8.31-.09-.82-1.16-1.44-1.23-2.31-.16-2.02,1.02-5.51,1.39-7.49-1.93-1.66-1.94-1.77-.12-3.25-4.6-4.85,3.03-5.8,1.86-10.55C3.39,114.66,1.69,115.31,0,115.97q3.91-6.77,1.95-10.96c.23-1.17,3.39-1.46.87-3.39,4.12-2.52,4.27-11.46,9.3-12.35,2.07-.37,3.06,1.52,5.25.87,3.04-.91,4.48-6.28,5.29-8.72-.95.05-1.82.09-2.68.14-.15-.2-.3-.41-.45-.61,2.65-2.56,5.28-4.53,8.3-6.63,3.82-2.67,1.32-1.72,3.41-4.33,3.06-3.82,6.75-6.07,10.89-8.71-.43-3.36,4.39-8.74,7.1-8.66,2.38-2.17,4.34-3.96,6.63-6.05.44,1.25.65,1.86.73,2.06,3.11,1.03,3.79,2.19,5.34-.32,1.42-2.27.31-4.13,2.94-5.93,1.6-1.1,4.24-.61,5.64-1.87,1.8-1.62,1.7-3.52,4.07-5.51v4.55c.25.18.51.37.76.55,4.13-3.18,12.84-12.43,18.72-9.23,2.52-6.43,16.01-8.76,21.65-11.02,9.37-3.75,18.94-5.57,28.78-7.73.49,1.23,1.15,2.86,1.8,4.5.29-.04.59-.09.88-.13.16-1.25,2.07-3.06,2.8-4.04.42-.56-.63-1.46.14-2.14,3.33-3,9.14-.65,12.81-1.61,2.1-.55,3.63-2.87,5.76-3.15,1.97-.26,2.93,1.22,4.74,1.06,1.73-.16,3.3-1.97,5.02-2.45,2.75-.76,5.4-.14,8.11.35,2.65-2.7,4.32-.6,7.28-.31,3.15.31,4.93-2.11,7.76-.07,3.12-3.17,5.09-.4,7.6,1.88-4.06,1.81-9.9,1.14-11.9,4.55,3.21.55,6.09,1.04,9.52,1.63,3.04-1.91,4.29-5.7,4.53-10.31q2.42,2.5,6.66,1.31c1.64,1.27,2.43,4.95.85,6.64-1.46,1.57-3.28.25-4.68,1.18-1.34.89-.93,2.21-1.43,3.72-1.09,3.27-3.01,2.27.1,5.59,1.49-.9,3.02-1.83,5.13-3.11.77,1.42,1.56,2.87,2.45,4.51,1.8-.18,2.3-1,1.59-4.29,1.18.97,1.99,1.63,2.82,2.32,1.34-.23,2.81-1.08,4.03-1.6.77,2.99,1.49,5.81,1.78,8.88,1.49-.29,2.98-.57,4.48-.86-.61-1.96-.97-2.1-2.84-3.01,2.48-1.28,5.65-1.39,4.42-5.36,1.32,1.26,4.98,1.07,6.69,1.72,2.07.78,4.39,2.28,5.48,4.07,1.14,1.88.37,5.48,3.74,5.52,3.04.03,3.97-5.77,4.8-7.88,1.73,3.25,2.01,6.63,3.54,10.08.73-.53,1.26-.92,2.36-1.71v6.05c2.53-2.09,2.4-3.38-.5-8.71,1.41.17,2.83.22,4.25.17.15-1.32.3-2.54.44-3.76l1.02-.1c.54,4.39-.97,8.15-2.15,12.38,3.61,2.51,11.23,2.52,7.73-3.44,2.87-.25,1.82-4.39,2.17-6.43,1.63.91,4.25,2.12,4.24,4.43-.01,1.66-3.22,1.4-2.87,3.44.26,1.49,8.83,4.33,10.24,4.46.44,1.86.94,3.97,1.43,6.03,2.55-1.75,1.53-3.79,2.52-6.33,1.33-3.44,1.47-1.96,4.35-2.34,5.34-.71,7.87,3.38,12.26,6.44-3.05,3.57-2.4,5.39-1.24,9.98,1.16,4.6,2.12,6.76,1.77,11.7-.22,3.16,0,5.47-1.12,8.19-1.63,3.97-1.51,4.91.12,9.19-1.58,1.06-2.86,1.91-4.4,2.94v-3.11c-.21-.09-.42-.18-.62-.26-.7,1.69-1.01,2.77-2.37,4.03-1.49-2.58.4-2.43.54-5.23.13-2.7-1.92-4.72-3.55-6.65-1.52,5.47-2.13,9.6,2.02,13.54,2.41,2.29,2.4,1.78,2.98,4.98.5,2.75.14,4.85,3.45,5.79-.82,1.48-1.42,2.58-2.23,4.03-1.97-2.9-.42-4.25-3.79-6.56.23-.76.44-1.48.46-1.57-1.49-2.36-2.28-3.41-4.43-4.87-1.54-1.05-3.2.03-3.73-2.41-.71-3.29,3.35-6.99-.07-10.25-2.2,4.98.6,13.32-4.73,17.39,2.72,4.76-1.85,7.49-4.06,11.11-2.26,3.71-3.54,7.56-3.54,11.84.26.04.52.08.77.11-1.79,2.17-5.13,3.38-7.25,5.38-2.53,2.39-3.57,4.33-6.85,5.61.71-2.63,1.24-4.6,1.85-6.84-3.5,0-3.86-.82-5.36,2-1.63,3.06.45,10.88-3.13,12.57v-5.33c-3.35-.28-1.3,4.83-2.39,6.62-2.13-2.31-1.95-6.56-3.38-9.43-3.39,2.63-4.12,6.42-5.61,10.39-4.14.08-2.57,4.83-4.04,7.22-1.71,2.77-7.7,5.59-10.75,5.11,1.42-.8,2.83-1.61,4.62-2.62.32-4.5,5.87-1.58,1.99-7.34-1.86,2.16-2.69,4.21-5.88,3.35-1.12,2.5-4.4,4.45-7.18,4.26q-2.43,3.97-6.82,2.17c-1.91,3.96-2.62,6.59-7.49,4.75,1.78-2.15,7.5-4.49,4.57-8.53-2.89-3.99-5.42,3.36-6.86,5.28-2.53,3.39-2.78,3.82-3.82,7.81-.95,3.64-1.3,4.42-.91,8.63-1.41-.49-2.1-.73-2.78-.96.2.22.4.44.59.66-5.47,4.27-15.29,10.22-22.55,9.51.77-1.37,1.52-2.75,2.25-4.14-2.46-.1-3.18.48-5.21,1.94.62.8,1.07,1.39,1.97,2.57-1.84-.09-4.09-1.82-5.62-1.46-1.62.38-2.36,2.71-3.32,3.98-.59-2.93-.77-5.17-.54-8.15-3.98,1.18-4.29,1.93-1.99,4.54-1.19,1.47-2.38,2.94-3.97,4.92-.35-1.45-.49-2.01-.63-2.57-4.14,4.2-4.93.84-5.69-2.49-1.23-.08-7.08,3.55-9.08,4.27-1.48.54-1.4,2.26-3.4,1.16-2.14-1.17-.93-5.23-.44-6.83-3.83,2.38-7.29,3.86-11.24,5.58-2.92,1.27-3.93,3.66-6.08-.02-1.05.92-1.99,1.74-3.65,3.19-.22-2.58-.32-4.98-1.1-7.46-1.24,1.79-2.22,3.22-2.9,4.22-5.37.3-10.88,2.04-8.79,8.43,2.01,6.13,6.52,13.21,11.15,17.61,2.05,1.95,5.01,5.54,7.65,6.56,2.3.9,3.2-.13,5.03,1.81,1.41,1.5,1.57,4.49,2.88,6.22,1.84,2.41,4.16,3.23,5.73,5.82,3.81,2.14,7.24,4.95,10.97,7.08,3.85,2.19,8.5,3.52,12.57,5.69,4.1,2.19,8.49,3.4,12.23,6.17,1.55,1.15,2.62,2.35,4.54,2.94,2.07.65,3.83-.42,5.65-.03,3.46.75,6.58,4.51,9.64,6.18,1.86,1.01,2.06,1.64,4.14,1.21,3.18-.67,2.37-1.94,6.03-1.04,3.96.98,7.77,2.9,11.76,3.85,4.81,1.15,10.01.74,14.67,2.77,3.87,1.68,4.5,3.88,8.71,3.57,2.05-.15,3.94-1.2,6.04-.97,2.31.26,4.74,1.71,7.22,2.01,11.49,1.39,22.28.79,33.85.49,10.8-.28,21.29-2.45,32.06-3.39,11.1-.97,22.52-2.15,32.46-7.1,2.33-1.16,4.21-1.27,6.7-1.71,2.36-.41,4.86-1.85,7.2-1.9,2.4-.04,4.35,1.53,6.61,2.19,2.82.83,4.73.58,7.58.16,3.97-.58,8.06.22,10.26,4.2.65,1.17-.14,3.48,1.08,4.26,1.09.7,4.4-.85,5.32-1.13-1.44,4.52-2.69,8.45-4.04,12.68,1.99-.73,3.34-1.23,4.8-1.77.73,7.28-5.34,5.66-10.18,6.15-5.68.58-10.68,4.51-16.44,5.73-6.44,1.36-12.5,3.35-18.68,5.56-5.98,2.13-11.02,2.84-16.14,6.51-.17-.17-.34-.33-.51-.5.19-.69.37-1.39.73-2.71-5.84.83-9.39,4.02-14.52,6.59-4.76,2.39-9.92,3.35-15.05,4.47-4.33.95-7.76,1.33-12.02,1.56-2.79.14-5.1,1.37-8.05,1.23-1.41-.07-4.14-1.02-5.61-.61-2.17.6-3.26,2.09-5.91,2.33-2.39.22-4.94-.03-7.36.13-6.13.41-12.25.86-18.39,1.12-12.01.51-23.62-.92-35.26-3.9-19.59-5.02-38.6-10.52-58.23-15.17-9.56-2.26-18.46-5.95-28.03-8.02-5.41-1.17-10.72-2.32-16.01-3.98-4.94-1.56-9.28-4.71-14.39-5-2.49-2.62-5.6-2.57-8.86-3.28-3.11-.68-3.42-2.07-5.01,1.73-.52-1.39-.75-4.13-2.15-4.74-1.16.4-2.35.65-3.57.75-1.21-.45-2.26-1.15-3.15-2.09.8-.37,1.49-.69,2.19-1.01-.62-1.26-.82-2.02-1.91-2.91-1.36-1.11-3.2-.54-4.18-1.22-2.67-1.85.31-2.13-.98-4.49-.89-1.63-6.62-1.05-8.22-1.23-3.15-.35-3.3.17-6.11-2.38-1.71-1.55-4.64-3.63-4.96-5.98-.16-1.22,1.54-1.7,1.08-3.24-.39-1.32-2.13-1.47-2.92-2.44-3.03-3.75-4.23-9.29-7.62-12.4-.56.95-1.13,1.89-1.7,2.83-5.56-2.44-1.8-1.64-.93-5.4.95-4.08-4.52-4.61-7.25-4.78-.44-5.92.14-12.68-6.75-7.52,0-3.12-1.18-6.97-.47-9.97.74-3.08,4.52-5.18,1.42-8.47-2.51,1.55-4.95,3.06-7.39,4.57-.19-.12-.38-.24-.57-.35.57-2.5,2.24-6.17,1.69-8.63-.81-3.62-2.99-2.07-5.01-3.9-1.31-1.19-1.73-3.81-2.13-5.52-.84-3.6-1.16-5.05,2.58-5.53.09-1.12.2-2.46.31-3.79.2-.01.39-.03.59-.04-.73-.83-1.47-1.65-2.2-2.48-.76,1.91-1.13,2.92-2.51,4.51-1.61-1.73-.49-1.9-1.24-3.71-.88-2.11-2.75-3.55-3.5-5.54-1.03-2.76.85-6.78-3.2-7.58.1,1.18.19,2.14.26,3.1-3.16.97-3.2-4.39-5.3-6.75,2.02-2.35,3.74-4.36,5.76-6.71-.87-.43-1.56-.77-2.26-1.11l.02.03ZM188.68,62.75c-.19-.24-.38-.49-.57-.73-1.81.59-5.91,1.24-7.27,2.12-2.76,1.78-2.59,6.39-5.9.99-.36-.58-1.06-3.91-2.03-4.24-1.35-.46-2.72,1.57-3.88,1.74-3.8.55-5.79-3.04-9.39-2.57-1.68.22-2.58,1.88-4.21,2.27-1.84.44-3.94-.47-5.77-.74-4.61-.66-8.09.22-12.4,1.73-3.3,1.15-7.39,1.02-10.39,2.21-.96.38-2.93,3.29-3.45,3.4-1.63.34-1.88-.89-3.4-1.08-.32.61-.64,1.22-1.07,2.05-1.59-1.93-1.99-2.24-4.46-2.55.01,4.51,2.74,6.1-.76,9.12-3.11,2.68-7.15,3.73-11.01,4.65.49-3.81,6.75-4.8,5.5-8.52h2.48c.11-.28.21-.55.32-.83-3.64-1.66-16.8,5.73-13.73,9.08.96,1.05,6.1-1.54,4.4,3.06-1.08,2.9-9.67,3.96-12.33,4.74.36,1.96.64,3.47.92,4.97-.2.04-.41.09-.61.13-.43-.67-.87-1.34-1.13-1.75-4.32,2.32-7.02,2.99-7.41,7.94-.3,3.77-.73,4.07,3.64,3.63,1.27-.13.77-1.81,2.03-2.04,2.38-.45,4.7,3.5,7.01,2.97,1.08-.25,1.34-2.18,2.66-2.59,1.75-.54,5.5,1.75,7.09,2.35,8.89-1.44,16.11-1.46,24.92,1.03,7.31,2.07,11.25,5.58,17.31,9.78,3.85,2.67,4.89,1.44,9.04.87,3.57-.49,6.85.08,10.35-1.08,6.01-2,11.96-5.5,16.83-9.51,5.61-4.62,9.73-8.3,13.5-14.4,1.19-1.93,2.16-3.66,3.04-5.56.33-.71-.05-1.65.39-2.47.68-1.26,2.1-1.54,2.79-2.96,1.35-2.79-.37-5.97-.88-8.69-.51-2.69-.04-5.67-1.2-8.23-1.93-4.25-8.64-4.77-10.93-.26ZM299.55,46.52c-.48.01-.97.03-1.45.04,0,4.66-5.78,18.96-.44,21.92,4.37,2.42,4.41-5.28,3.71-7.45-1.7-5.28-1.19-8.96-1.82-14.51ZM288.31,56.29c-1.28-4.59-3.37-4.94-7.71-3.89,1.18,4.52.84,12.09,5.08,15.11,0-2.5-1.76-11.2,2.63-11.23ZM277.11,88.72c.04-2.39-3.21-6.85-6.15-5.52-2.56,1.16-1.73,8.64-1.55,10.53,2.61-.65,7.34-1.63,7.7-5.02ZM198.18,163.07c.8-4.96-8.47-.65-7.87,2.97.88,5.33,7.64.89,7.87-2.97ZM281.92,96.82c-1.45-6.76-7.28-1-6.23,3.29,1.38,5.66,5.25-.21,6.23-3.29ZM108.73,230.69c-.57-3.8-.45-5.27-3.65-7.61-1.78,3.88-.61,7.12,2.7,9.8.35-.82.71-1.63.95-2.18ZM200.9,15.06c-.3.13-.61.26-.91.39-.53,2.63-1,8.64,4.25,5.92,3.64-1.89-1.47-4.71-3.33-6.31ZM19.44,146.8c.55-1.99,2.48-5.4.52-7.1-1.77-1.54-3.94,1.64-5.45,3.02,3.62-.66,2.93,2.82,4.93,4.08ZM274.95,58.31c-1.83.91-4.75,1.41-5.76,3.29-.6,1.11-.76,4.44.98,4.82.91.2,4.78-6.79,4.78-8.11ZM46.02,190.14c.36.06.72.11,1.08.17.64-3.18,1.62-5.68.32-8.7-3.43,2.31-2.52,4.8-1.41,8.53ZM237.56,104.03c0-1.63.1-8.19-3.61-5.76-3.19,2.09,2.11,4.84,3.61,5.76ZM191.66,10.05c-.37.19-.74.37-1.1.56-.11,1.05-.23,2.11-.35,3.27,1.21-.57,1.97-.93,2.74-1.29.1,1.63.14,3.26.11,4.89,6.77-1.22,1.28-4.96-1.4-7.43ZM92.79,205.17c-1.87,2.24-2.44,3.01-2.55,5.89,3.7-.39,5.61-2.6,2.55-5.89ZM69.69,205.12c1.42,2.48,1.95,4.64,4.85,5.14.02-2.68-2.23-8.98-4.85-5.14ZM101.47,219.01c-.01-.06-.39-4.02-.94-4.23-1.41-.55-2.98,1.14-3.05,2.51-.14,2.79,2.47,3.77,3.99,1.72ZM64.82,201.8c.27.08.54.16.81.24,1.47-3.48,2.38-4.25.12-7.21-2.06,2.73-1.67,3.57-.93,6.98ZM81.95,188.3c-.78-.92-1.28-1.51-1.78-2.09-2.85,2.63-3.29,2.55-1.13,5.73.91-1.14,1.82-2.28,2.91-3.64ZM102.6,200.2c2.83,3.46,5.13,5.54,5.66-.51-1.91.17-3.26.29-5.66.51ZM130.59,213.18c-.7,1.03-4.33,6.23.06,5.71,3.33-.39.62-4.51-.06-5.71ZM106.24,113.03c-.14.25-.28.49-.42.74,1.47,3.21,5.12,4.49,7,2.16-2.24-.99-4.41-1.95-6.58-2.91ZM59.86,186.92c.24-.02.48-.04.72-.06.44-7.45-5.31-5.02-.72.06ZM89.62,223.99c-.95-.86-1.51-1.37-2.06-1.88-2.06,2.43-2.52,2.42-.29,4.68.7-.83,1.4-1.66,2.35-2.8ZM258.09,120.57c.99-1.45,3.97-2.24,1.41-4.13-3.39-2.5-2.46,2.55-1.41,4.13ZM215.92,76.59c-1.35.67-2.15,1.06-3.28,1.62.97,1.42,1.74,2.56,2.51,3.7.26-.12.52-.24.78-.36v-4.95ZM94.08,83.84c.04-.29.08-.59.12-.88-2.43-1.76-2.45-.73-4.34,1.52.21.26.42.51.64.77,1.2-.47,2.39-.94,3.59-1.42ZM305.64,61.06c.4,0,.8-.01,1.2-.02-.09-1.86.52-3.14-1.5-3.27.1,1.1.2,2.19.3,3.29Z"/>
  <path class="cls-1" d="M296.61,91.54c0,2.61.6,5.5-1.6,7.35-2.56,2.14-3.04-.86-3.62,3.02-.21,1.39-.38,13.24-4.8,8.63-2.18-2.27,1.43-8.69,3.02-10.6,1.01-1.22,2.48-2.47,3.25-3.97,1.15-2.24-.42-4.9,3.76-4.43Z"/>
  <path class="cls-1" d="M230.68,6.33c3.37,2.35,4.19,3.34,5.53,7.22-2.16.6-5.86,2.61-7.61.41-.88-1.1,1.18-7.12,2.07-7.63Z"/>
  <path class="cls-1" d="M224.7,2.69c.37,6.04-1.13,9.78-5.07,14.41-2.53-4.22-.56-2.83,1.53-5.65,1.76-2.37,2.04-6.09,2.78-8.9.25.05.51.1.76.15Z"/>
  <path class="cls-1" d="M232.05,151.17c-1.69,2.45-3.78,5.43-5.95,7.1-.31-.19-.61-.39-.92-.58.8-6.34.93-6.39,6.87-6.52Z"/>
  <path class="cls-1" d="M253.13,5.28c1-5.33,5.03-6.72,9.22-3.74-.17.22-.35.45-.52.67-1.86-.34-4.81-1.68-6.43-.24-1.37,1.22,1.38,4.4-2.27,3.3Z"/>
  <path class="cls-1" d="M243.71,7.63h7.03c-1.09,1.8-4.85,2.08-7.03,0Z"/>
  <path class="cls-1" d="M6.16,145.92c-.36,1.37-.37,3.08-2.53,2.6-.05.73-.09,1.43-.14,2.12-.23.04-.46.08-.69.13-.59-1.92.2-5.89,3.38-4.81,0,0-.02-.03-.02-.03Z"/>
  <path class="cls-1" d="M246.47,4.77c-.85-.73-1.71-1.47-2.56-2.2,1.81-1.4,1.97-.36,3.47,1.26-.3.31-.61.63-.91.94Z"/>
  <path class="cls-1" d="M283.09,121.77c-.2-1.49-.34-2.55-.49-3.74,2.64.95,2.8,1.75.49,3.74Z"/>
  <path class="cls-1" d="M296.66,111.33c1.03-.29,2.07-.57,3.1-.86.14.18.28.36.42.54-1.67,1.4-1.83,1.9-3.8,1.02.09-.23.18-.47.27-.7Z"/>
</svg>