<?xml version="1.0" encoding="UTF-8"?>
<svg id="Layer_1" data-name="Layer 1" xmlns="http://www.w3.org/2000/svg" viewBox="0 0 477.46 500">
  <defs>
    <style>
      .cls-1 {
        fill: #000;
        stroke-width: 0px;
      }
    </style>
  </defs>
  <path class="cls-1" d="M398.6,473.09c.31.83,1.11,2.12.84,2.42-1.11,1.19-2.5,2.16-3.9,3.04-.41.26-1.19-.06-1.8-.12-.25,2.18.63,3.99,2.54,4.27,1.76.25,3.67-.59,5.96-1.03.15.9.8,2.42.4,2.79-1.3,1.2-2.71,3-4.83,2.06-1.89-.84-3.28-.29-4.85.69-.62.39-1.85.55-2.37.19-1.83-1.26-3.46-2.79-5.18-4.2-.42-.34-.88-.87-1.34-.89-3.4-.12-6.81-1.78-10.2.06-.36.2-.98.29-1.31.11-1.56-.81-3.07-1.74-4.6-2.61-1.64-.93-3.24-2.08-5.26-.87-.3.18-.87.23-1.13.06-2.69-1.69-5.48-3.27-7.98-5.21-2.23-1.73-4.24-1.9-6.24.4-1.28-4.77-4.63-3.35-7.86-2.93.41-.21,1.03-.32,1.19-.65.41-.84.99-1.88.78-2.64-.15-.55-1.44-.94-2.28-1.09-.9-.16-1.87.04-3.02.09.2-1.07.41-1.68.4-2.28-.02-.74-.24-1.47-.38-2.2-.88.56-2.38.98-2.53,1.7-.59,2.75-1.89,3.83-4.76,3.49-.72-.08-1.6,1.3-2.58,1.97-1.74,1.93-3.49,3.86-5.25,5.8-.21-.17-.39-.24-.42-.36-.63-1.93.83-4.68-2.08-5.71-1.86-.66-3.95-.83-5.66-1.74-1.08-.58-2.42-2.17-2.33-3.21.37-4.52-.5-8.86-1.25-13.24-.01-.08-.09-.18-.07-.22,1.75-2.64-.47-5.2-.19-7.87.35-3.36-.02-6.8-.04-10.21-.01-3.38-.07-6.76.1-10.13.08-1.51.57-3.02,1.08-4.46.09-.25,1.47-.41,1.82-.11.45.38.73,1.33.6,1.94-.39,1.91.11,2.95,2.15,3.35.56.11.91,1.26,1.65,2.39v-5.7c1.46.21,2.63.37,3.8.54l.35-.57c-1.63-1.62-6.02-1.52-3.11-6.15-3.03,1.68-5.32,2.62-7.24,1.67-.3-1.64-.62-2.68-.66-3.74-.03-.97-.09-2.29.47-2.83.51-.49,1.95-.43,2.78-.1,2.79,1.11,3.06.98,2.99-2.07-.01-.62.07-1.24.15-2.31-1.06-.22-2.2-.47-3.35-.71.13.92.26,1.84.45,3.14-.94-.19-1.85-.37-3.37-.68.41-5.01.87-9.92,1.19-14.85.07-1.13-.36-2.29-.43-3.45-.15-2.29-.3-4.58-.24-6.87.01-.51.8-1.14,1.38-1.44.52-.27,1.3-.02,1.84-.27.79-.37,1.93-.87,2.09-1.51.17-.7-.61-1.63-1.17-2.89-.71.98-.94,1.51-1.34,1.8-.47.34-1.11.68-1.62.61-.32-.04-.78-.82-.78-1.27-.04-2.51-.09-5.04.16-7.53.09-.85,1.03-1.62,1.68-2.55-.57-.45-1.16-.9-2.18-1.71,1.49-.22,2.49-.36,4.03-.59-.97-.51-1.46-.87-2.01-1.03-1.72-.49-1.97-1.4-1.68-3.18.35-2.19-.02-4.5-.09-6.76-.02-.63-.28-1.3-.14-1.88.36-1.4,1.66-3.19,1.18-4.05-.83-1.48-.69-2.66-.62-4.15.08-1.51-.69-3.04-.8-4.58-.15-2.2-.04-4.43-.04-7.26-.92-.86-1.91-1.91,1.55-4.1-.89-.27-1.57-.47-2.64-.79.27-1.21.83-2.47.77-3.69-.08-1.63-.76-3.23-.96-4.87-.34-2.78-.45-5.59-.77-8.37-.27-2.37-.69-4.71-1.08-7.28-1.22.54-2.16.8-2.91,1.32-2.3,1.61-4.51,2.29-7.49,1.41-1.42-.42-3.42,1.23-5.19,1.86-2.27.81-4.55,1.58-6.85,2.29-1.11.34-2.38.3-3.37.83-2.02,1.08-3.62.51-5.23-.77-.53-.42-1.17-.7-1.76-1.05.13.64.26,1.29.32,1.56-2.24,1.39-4.39,2.76-6.58,4.07-2.84,1.7-6.24.67-7.6-2.8-.71.76-1.62,1.27-1.69,1.89-.33,2.76-3.37,2.49-4.51,4.27-.72-.53-1.45-1.05-2.39-1.74-.06.05-.54.35-.81.78-2.15,3.51-2.7,3.68-6.48,2.55-.69-.21-1.59.29-2.59.51,0-.52.06-.88-.01-1.21-.25-1.12-.22-2.66-.93-3.2-.64-.49-2.32-.19-3.19.33-1.66,1.01-3.06,2.43-4.54,4.21,1.84-.21,3.68-.41,5.56-.62-1.52,1.46-2.78,3.48-4.56,4.15-1.72.65-4.78.68-5.79-.4-1.78-1.89-3.57-2.07-6.68-1.93,1.47,1.09,2.49,1.84,3.47,2.57-1.88,3.39-4.74,4.5-8.31,4.2-.53-.04-1.14-.03-1.61.18-3.7,1.68-7.52,2.59-11.61,2.2-.55-.05-1.13.44-1.72.62-.81.25-1.65.63-2.47.61-2.42-.06-4.84-.3-7.26-.45-.39-.02-.96-.09-1.15.12-2.44,2.69-5.77,1.11-8.63,1.74-2.33.51-4.82.34-7.24.34-1.36,0-2.71-.28-4-.23-2.04.25-4.12.87-6.11.66-3-.31-5.84-.61-8.88.15-2.56.64-5.34.47-8.03.51-1.92.03-2.8.47-2.69,2.75.2,4.28-.12,8.58-.07,12.87.01,1.3.79,2.61.77,3.9-.03,2.33-.4,4.65-.69,7.61,2.48,2.76,2.6,5.06-.61,7.64.82,1.25,1.84,2.47,2.46,3.86.49,1.11.85,2.49.66,3.64-.59,3.44.75,6.59,1.08,9.88.29,2.9.64,5.8.68,8.71.03,2.05-1.78,3.47-3.81,3.41-2.12-.06-2.67,1.57-3.65,3.44,2.23.55,4.26,1.01,6.26,1.57.58.16,1.58.71,1.54.89-.63,2.84,2.04,5.69-.04,8.51-.14.18-.08.7.09.89,2.75,3.16,1.4,7.02,1.82,10.57.14,1.17.33,2.36.27,3.53-.09,1.79-.38,3.57-.8,5.32.43,2.29,2.19,4.37,1.58,7.62-4.07-3.21-2.85-7.2-2.96-10.93-.12-.1-.31-.39-.47-.37-1.35.13-2.69.32-4.03.49.22,1.57.29,3.18.7,4.7.33,1.2,1.09,2.29,1.63,3.39-4,1.69-6.72-.35-9.73-2.22,1.36-.56,2.61-1.08,3.86-1.59-.06-.27-.12-.55-.18-.82-.94.04-1.88.04-2.81.14-2.16.25-3.1-.89-2.33-2.88,1.01-2.6-1.05-7.03-3.72-7.78-.41-.12-1.26.25-1.46.63-1.33,2.49-.76,4.66,1.57,6.55.97.78,1.87,5.72,1.79,6.86-.1,1.27.26,2.69.81,3.86.52,1.11,1.47,1.22,2.45.12.2-.22,1.36.18,1.9.55,1.54,1.06,2.9,1.29,3.61.05,1.6-.22,2.67-.37,4.31-.59.13.44.84,1.53.59,2.33-.22.72-1.44,1.23-2.31,1.62-.81.36-1.75.45-3.05.75,2.26,2.03,2.32,3.84.53,5.78-.24.26.03,1.34.39,1.73,1.07,1.15,2.23,2.11.82,3.81-.25.31-.22,1.21.05,1.53,1.38,1.69.39,2.62-1.03,3.29-2.26,1.07-2.31,2.19-.79,4.14,1.33,1.72,3.29,3.15,2.68,6.1-.44,2.13-1.7,3.03-2.84,4.37.1-2.04.19-3.83.26-5.62,0-.23-.04-.49-.14-.7-1.19-2.51-2.33-5.04-3.63-7.5-.7-1.33-1.37-.99-2.6,1.39-.7-.12-1.44-.25-2.22-.39q.15,1.75,3.29,2.35c-.49,1.2-1.1,2.29-1.35,3.45-.15.65.06,1.88.48,2.08,1.97.94,3.13,2.01,2.02,4.36-.2.43.24,1.16.45,2.03-2-.53-4.15,1.51-5.69-1.05-.09-.14-1.27.07-1.31.26-.15.69-.29,1.89.03,2.07.93.53,2.09.65,3.2.95-.23,2.07-.38,2.12-3.3.95-1.37,2.14-4.65,2.24-6.75-.1.75-.23,1.37-.64,1.91-.55,2.46.41,2.83-.62,2-2.64-.09-.22-.11-.46-.15-.69-.65-3.54-2.88-4.66-6.08-2.86-.45.25-.63,1.58-.43,2.26.29,1.02,1.17,1.87,1.52,2.89.6,1.73-.11,2.86-1.9,3.26-2.2-2.93-.9-3.53-7.7-1.91.24.49.48.92.66,1.38.29.73.87,1.57.69,2.18-.16.53-1.35,1.23-1.81,1.06-.57-.2-.86-1.21-1.37-2.02-.23.05-.7.29-1.11.23-.91-.14-1.96-.22-2.61-.75-.28-.23.37-1.5.47-2.31.09-.72.1-2.09,0-2.11-1.35-.18-2.72-.18-4.08-.22.01.44-.06.9.06,1.31.18.65.49,1.27.91,2.32-1.1-.07-1.79-.12-2.62-.18,1.23,1.6,2.41,3.13,3.59,4.67-1.12.58-2.07,1.44-3.04,1.47-.72.02-1.63-.9-2.19-1.61-.86-1.11-1.49-2.41-2.21-3.63-1.08,1.95-1.95,3.52-2.82,5.08-.94-.61-1.88-1.22-2.51-1.63.73-1.15,1.33-2.08,2.2-3.45-1.42-.13-2.18-.25-2.94-.26-2.48-.05-4.45-.48-5.68-3.23-.78-1.74-2.82-2.92-4.3-4.34-.48-.46-1-.89-1.74-1.56,2.66-.92,6.42,2.51,7.25-1.71.82-4.14-.44-5.58-3.68-6.43.08-.8,0-1.69.28-2.45,1.39-3.75-.77-6.15-3.16-8.42-1.52-1.44-3.95-1.49-5.16-.19-1.55,1.67-.49,3.03.56,4.4.43.56.74,1.23,1.25,1.7,1.11,1.03,2.3,1.97,3.59,3.06-.1.12-.61.7-1.2,1.39.49,1.7,4.45,2.19,1.81,4.94.51.28.88.48,1.31.71-.25.2-.36.36-.49.38-2.75.32-3.66,1.27-4.33,4.57-.38,1.85-4.03,4.54-6.16,4.42-.02-.52-.07-1.05-.07-1.58.02-2.38-.36-2.59-2.62-1.69-.63.25-1.4.16-2.1.23l-.17-.85c.7-.11,1.45-.1,2.08-.36.61-.25,1.58-.82,1.56-1.19-.08-1.13-.37-2.35-.95-3.32-.46-.77-1.45-1.22-2.2-1.82.12-.18.25-.35.37-.53.5.26.98.65,1.51.75.6.11,1.27.04,1.87-.12.75-.2,1.43-.64,2.17-.86.52-.15,1.26.09,1.61-.2.95-.76,1.74-1.72,2.6-2.6-.86-.53-1.67-1.19-2.59-1.56-1.29-.52-3.23-.22-2.66-2.64.05-.19-.61-.56-.97-.87-1.28,2.97-1.24,2.85-4.49,1.61-1.22-.47-2.98-1.15-3.22,1.51-.14,1.64-3.27,4.26-5.42,4.52,3.62-3.12,1.97-8.66,6.98-10.51-.43-.58-.78-.9-.93-1.3-.24-.62-.57-1.35-.41-1.92.09-.32,1.05-.55,1.62-.58,2.65-.13,2.77-.15,1.67-2.68-1.07-2.47.94-3.54,2.32-5.36-1.21-.55-2.21-1.36-3.25-1.41-2.57-.12-5.16.11-7.88.2.62,3.32,3.78,2.97,5.11,5.05-1.42-.17-2.85-.35-4.29-.52-1.2,2.52-.92,2.95,2.01,2.93-.33,2.64-.92,2.89-3.25,2.27-1.18-.32-2.57.15-3.87.26-.01.24-.03.49-.04.73-.43-.53-.87-1.05-.94-1.14-1.63-.1-2.89-.49-3.94-.18-1.43.43-2.69,1.4-4.03,2.14.28.44.48,1.14.86,1.24.54.15,1.19-.14,1.81-.24.25,1.94.58,3.75.63,5.56,0,.33-1.11.91-1.75.99-1.97.26-2.44,1.05-1.97,3.06.37,1.57-.14,3.33-.1,4.99.01.55.53,1.08.82,1.62.38-.47,1.02-.91,1.1-1.42.15-1.12-.09-2.29.04-3.42.07-.63.42-1.34.88-1.78.28-.27,1.31-.28,1.45-.06.26.43.04,1.13.2,1.67.26.93.66,1.83,1,2.75.69-.81,1.41-1.59,2.07-2.42.35-.44.57-1.28.94-1.33.48-.07,1.06.44,1.58.74.12.07.2.25.24.4,1.02,3.91,3.27,6.22,8.43,5.32-.91,1.25-1.17,1.92-1.66,2.23-2.19,1.37-5.5.68-7.18-1.4-1.6-1.98-3.15-1.92-4.94,0-1.09,1.17-2.31,2.27-3.64,3.14-1.35.88-1.56,1.78-1.24,3.34.49,2.43.17,4.81-2.21,6.35l.02-.02c-2.03,1.36-4.1,2.66-6.04,4.13-.28.21-.23,1.53.08,1.75,1.43,1.01,3.01,1.82,4.53,2.7l-.03-.02c-1.17,2.76-3.85.54-5.69,1.53.41-.44.82-.89,1.35-1.46-.84-.41-1.57-.89-2.36-1.13-1.65-.51-2.05-1.29-1.34-3,.25-.61-.59-1.78-1.12-2.57-.43-.65-1.1-1.14-1.71-1.65-.56-.47-1.19-.86-1.78-1.29-.21.66-.51,1.31-.59,1.98-.06.52.16,1.08.24,1.52-1.14,1.08-2.19,2.06-3.23,3.04-.12-.1-.25-.2-.37-.3.23-.6.47-1.2.68-1.75-.19-.23-.32-.47-.39-.45-3.88.95-6.66-2.26-10.16-2.68-1.33-.16-2.68-.1-4-.29-.7-.1-1.78-.42-1.91-.87-.2-.72-.03-2.03.47-2.36,1.34-.89,1.21-1.92,1.13-3.25-.06-1.02.52-2.09.86-3.29-1.54-.84-4.88-.5-3.14-4.11,2.79,2.57,1.65-1.49,3.26-1.6,1.03,1.82,2.56,3.29,5.14,2.79.14-.03.51,1.12.98,2.17.76-2.02,1.42-3.78,1.83-4.87-.6-2.97-1.12-5.52-1.72-8.46-.54.75-.95,1.32-1.47,2.04-.05-.71-.09-1.35-.15-2.14-1.52,1.15-2.22,2.21-1.08,3.91.29.44.1,1.83-.2,1.94-2.1.79-4.27,1.37-6.42,2.01-.17-.27-.35-.54-.52-.81.91-.74,1.82-1.47,2.64-2.13-.8-.86-1.67-1.56-2.16-2.46-.14-.26.81-1.11,1.4-1.87-.5-.83-1.15-1.89-2.15-3.55,1.32.1,2.28.15,3.23.26.86.1,1.76.48,2.55.32.34-.07.85-1.5.63-1.76-.56-.67-1.43-1.25-2.28-1.45-1.43-.33-2.94-.35-5.04-.55,1.14-1.71,2.03-3.04,3.24-4.85-1.25.39-1.93.61-2.68.84.17-1.47.33-2.89.51-4.54,2.48,0,2.06-2.26,2.59-4.17-1.37-.5-2.8-1.03-4.22-1.55.07-.22.15-.44.22-.66,1.8-.08,3.24-1.38,5.51-.28,1.38.67,3.83-.66,5.69-1.38.31-.12.42-2.14-.04-2.55-1.31-1.18-2.9-2.13-4.52-2.87-.51-.23-1.53.38-2.19.81-1.29.85-2.49,1.83-3.72,2.76-.19-.2-.38-.4-.58-.6.39-.88.78-1.76,1.32-2.96-.1-.13-.58-.71-1.19-1.45.78-.29,1.38-.51,2.19-.82-.95-.71-1.69-1.26-2.64-1.97,2.11-.54,3.82-.98,5.74-1.47-.3-.52-.54-.94-.78-1.37,2.12-1.17,2.28-2.9.16-3.87-1.71-.78-3.66-1.02-5.42-1.48-.26-2.07-.61-4.4-.77-6.73-.01-.21,1.24-.82,1.8-.71,1.92.37,2.84-.3,3.07-2.65-.93.32-1.66.44-2.25.8-1.39.86-2.1.19-2.48-1.04-.46-1.5-.86-3.03-1.13-4.58-.1-.58.26-1.25.4-1.87.67.28,1.5.4,1.97.87,1.35,1.35,2.56,2.85,3.81,4.28,2.58-1.99,4.47-1.94,5.8.08.29-2.35,1.19-2.69,2.61-.73.52-.98.94-1.78,1.45-2.74-3.53-1.71-6.57-4.4-10.95-2.26-1.23.6-3.13-.17-4.4-.28-.12-1.31-.09-2.24-.31-3.12-.25-1.03-.72-2.01-1.41-3.87,2.49.27,4.33.51,6.17.66,1.94.15,3.98.62,5.78.17,1.1-.27,1.84-2,2.87-3.24-1.66.03-3.52-1.43-4.7,1.56-.27-.99-.36-1.68-.64-2.27-.38-.81-1.17-2.26-1.31-2.21-1.22.48-2.98.99-3.34,1.95-.52,1.4-1.04,1.61-2.32,1.6-1.21,0-2.42,0-2.51-1.42-.05-.92.48-1.92.92-2.8.32-.63.92-1.11,1.82-2.13-1.28.21-1.87.31-2.6.43-.33-.94-.66-1.87-1-2.83,3.57-.7,3.58-.94.26-6.45.77-.45,1.54-.9,2.24-1.31-.72-1.09-1.91-2.14-2-3.28-.08-.94,1.14-1.99,1.86-3.11-1.96-3.01-2.55-6.49-1.8-10.4.29-1.52-.57-3.27-.92-4.95,1.42-.91,4.15,0,3.64-3.24-1.12.7-2.12,1.31-3.64,2.26.68-3.24,2.59-3.64,5.24-3.33-.5-1.23-.84-2.07-1.17-2.88-.51.81-.76,1.64-1.3,1.91-.46.24-1.72-.02-1.81-.31-.36-1.14-.5-2.38-.51-3.59,0-.7.4-1.39.69-2.29.98-1.37,2.1-2.94,3.04-4.27-1.3-.81-2.87-1.28-3.47-2.32-.54-.92-.02-2.47.05-4.17-.09-1.29-.22-3.01-.33-4.61.99-.32,1.95-.61,2.88-.96.05-.02-.07-.79-.14-.8-.89-.06-1.78-.04-3.3-.04.19-1.27.02-3.41.64-3.68,1.79-.76,3.9-.75,6.31-1.11.24-.64.95-1.87,1.05-3.14.04-.55-1.16-1.21-1.94-1.94-.6,1.15-.83,2.26-1.5,2.7-.84.56-2.73,1.06-2.97.73-.74-1.04-1.01-2.46-1.28-3.76-.2-.96-.32-2.02-.1-2.95.52-2.14,1.25-4.22,1.93-6.32.13-.41.41-.78.94-1.77-1.18.72-1.78,1.09-2.66,1.63-.1-1.33-.27-2.45-.25-3.57.03-1.71.41-3.44.24-5.13-.33-3.49.68-6.26,3.97-8.09-.12-.17-.23-.33-.35-.5h-2.95c.34-1.17.66-2.28,1.02-3.52-1.22-2.26-.75-4.8-.05-7.39.32-1.19.55-2.43.61-3.65.11-2.61,0-5.22.13-7.82.14-2.64.4-5.29.75-7.91.12-.94.63-1.82,1.06-2.97-1.13-2.55-.87-5.31.55-8.04.28-.54.56-1.33.37-1.81-.66-1.64-.99-3.14.31-4.65.18-.21-.21-.86-.22-1.31-.08-3.87-.6-7.75.62-11.56.24-.74.11-1.63,0-2.43-.16-1.22-.58-2.41-.65-3.63-.2-3.58-.21-7.17-.43-10.75-.36-5.78-.79-11.55-1.3-17.32-.23-2.58-1.24-5.2-.92-7.68.37-2.87.07-5.52-.21-8.33-.7-6.99-1.06-14.04-1.14-21.06-.06-5.27.64-10.55.78-15.83.1-3.52-.7-7.12-.17-10.55.54-3.46-.37-6.51-1.02-9.71-.75-3.66-1.45-7.34-2.33-10.97-.68-2.82-1.58-5.59-2.38-8.38-.06-.23-.14-.46-.14-.69-.03-4.92-.36-9.86.06-14.73.18-2.08,1.71-4.2,3.08-5.97,1.68-2.17,3.77-4.03,5.77-5.92,4.62-4.38,10.95-5.8,16.14-9.21.64-.42,1.06-1.18,1.56-1.8.96-1.2,1.64-2.95,2.88-3.53,3.77-1.76,7.71-3.19,11.66-4.49,1.42-.47,3.15.07,4.63-.3,4.71-1.2,10.29-.55,13.01-6.18,1.01-2.1,3.47-2.54,5.92-2.32,1.86.17,3.97,0,5.66-.72,3.75-1.61,7.27-3.73,10.95-5.51,1.61-.78,3.41-1.14,5.05-1.85,3.93-1.71,7.7-3.83,11.75-5.16,2.62-.86,5.07-1.53,7.37-3.29,2.3-1.76,6.89-.59,9.09,1.54.6.58,1.31,1.03,1.97,1.55-.03.24-.06.49-.08.73-.87,0-1.74-.03-2.61,0-.81.03-1.62.13-2.43.2.13.89.06,1.87.44,2.63.44.86,1.22,1.56,1.96,2.23,2.36,2.15,4.76,4.24,7.14,6.37.11.1.23.27.23.4-.1,2.89,2.07,4.12,3.96,5.64,2.97,2.4,4.66,6.44,2.88,10.1,1.63.74,3.27,1.47,4.9,2.23,2.19,1.03,2.5,2.91,2.45,5.1-.03,1.17.24,2.48.78,3.5,1.72,3.23,4.48,6.15,5.29,9.56,1.69,7.12,4.03,14.12,3.76,21.71-.26,7.27.57,14.57.91,21.86.04.95.05,1.9.1,2.84.21,4.61.49,9.22.61,13.83.06,2.47-.31,4.94-.22,7.41.09,2.35.72,4.69.76,7.04.08,4.46-.11,8.92-.12,13.38,0,1.22.37,2.44.41,3.67.08,2.29.05,4.58.05,6.87-.01,3.41.72,4.22,3.78,4.49,9.49.84,18.95.32,28.37-.72,4.37-.48,8.67-1.65,12.99-2.61,2.05-.46,4.34.06,6.17-1.48.17-.15,1.06.32,1.41.69.51.53.83,1.24,1.24,1.88-1.13.41-2.39.86-4.26,1.54,3.59,1.42,5.95-.33,9-1.21-1.82-1.26-3.3-2.29-5.17-3.59,2.62-.63,5.04-1.21,7.48-1.8-.24,1.28-.42,2.22-.59,3.16,1.41.18,2.83.53,4.23.48,1.36-.05,2.7-.53,4.16-.57,2.04-1.84.47-3.58-.89-5.79,2.02-.13,3.57-2.34,5.42.32.67.96,4.32-.54,4.93-1.86.41-.88.93-1.71,1.41-2.56.27.02.55.04.82.06.24,1.23.48,2.45.79,4.06.3-.12,1.31-.27,1.39-.63.23-1.03.08-2.14.08-3.78,2.07-2.09,2.02-2.06,3.51,1.15.25.54,1.15.77,2.05,1.33-.89.54-1.75.9-2.38,1.5-.54.51-.82,1.3-1.21,1.96.7.17,1.47.64,2.07.47,2.43-.67,4.86-1.4,7.17-2.41.78-.34,1.6-1.55,1.63-2.39.04-1.23-.66-2.2-2.38-1.67-.37.11-1.15-1.12-1.75-1.73,1.02-.91,1.93-2.06,3.12-2.63.53-.25,1.9.46,2.4,1.11,1.17,1.51,1.96,3.3,3.09,4.85.28.38,1.31.44,1.92.31,3.15-.68,6.3-1.41,9.42-2.24,2.82-.75,5.58-1.76,8.42-2.44,1.91-.46,3.42-1.1,3.5-3.43,1.17.17,2.14.31,3.87.56-1.16,1.01-1.88,1.64-2.63,2.3,1.54-.16,3.43.48,4.08-1.93.05-.17,1.44-.27,1.53-.08.68,1.46,1.68,1.06,2.8.72,1.72-.53,3.47-.94,4.82-1.3-.15-2.03-.28-3.87-.44-6.07-.51-.28-1.55-.85-2.7-1.48,1.58-1.45,4.28-1.02,5.1,1.07,1.18,2.99,3.33,3.88,6.12,4.01.9.04,1.82-.26,2.72-.43.12-.02.25-.35.29-.33,3.04,1.22,4.94-.19,6.53-2.64.19-.3,1.18-.1,1.8-.11,2.28,0,4.56.01,6.84-.02.27,0,.69-.21.79-.43.96-2.08,1.88-4.18,2.54-6.66-3.18,1.38-5.77.79-8.28-1.13.4-1.67,1.36-2.28,3.08-1.74,1.25.4,2.64.51,3.78,1.1,2,1.03,2.16-.3,1.95-1.52-.42-2.46-1.16-4.85-1.68-7.29-.24-1.13-.25-2.3-.43-3.45-.17-1.06-.27-2.18-.67-3.16-1.07-2.61-2.43-5.1-3.4-7.74-1.08-2.93-1.97-5.94-2.72-8.97-.52-2.1-.67-4.28-.99-6.43.21-.07.42-.13.63-.2-.72-.43-1.44-.86-2.45-1.47,2.58-1,1.9-2.12.44-3.01,1.41-1.11,2.69-2.13,4.34-3.43-.49,2.21-.82,3.71-1.15,5.21l.46.16c.76-1.23,2.1-2.44,2.12-3.68.02-1.17-1.18-2.51-2.12-3.51-.71-.75-1.87-1.09-2.62-1.91,2.26-1.56,2.68-2.71,1.32-4.21-.18-.2-.29-.7-.17-.88,1.88-2.72,1.95-6.51,5.13-8.49,2.26-1.4,4.3-3.18,6.64-4.41,1.66-.86,3.68-1.01,5.49-1.61.81-.27,1.52-.85,1.72-.96,2.31.26,4.17.47,6.04.68.72-1.63,1.37-3.12,2.13-4.84-.02,0,.33-.11.55.02.88.49,1.7,1.08,2.58,1.58.11.07.5-.12.6-.29.66-1.05,1.27-2.13,2.06-3.49-1.12-.38-2.14-.54-2.95-1.04-1.12-.69-2.14-1.57-3.05-2.52-.15-.15.47-1.54.81-1.57,1.4-.12,3.12-.42,4.18.23,1.68,1.03,2.93,2.76,4.43,4.28.16-4.04.33-8.26.49-12.52-.07.05-.87.27-1.1.75-.76,1.62-1.49,2.92-3.63,3.14-.97.1-1.74,1.52-2.74,2.11-.63.37-1.52.3-2.3.42-.08-.73-.25-1.46-.23-2.19.06-2.51.19-5.01.3-7.9.65.13,1.75.3,2.82.6,1.56.44,3.08,1.09,4.66,1.39.56.11,1.83-.57,1.82-.87-.04-2.48-.25-4.97-.57-7.43-.05-.4-.9-.69-1.85-1.11,1.18,2.52-.16,2.69-1.74,2.77-.97.05-1.94.3-2.91.46.05.29.09.58.14.86h3.52c-3.29,2.14-4.61,1.59-5.18-1.66-.04-.23-.06-.54-.21-.66-1.75-1.38-.7-2.54.07-3.96.84-1.57,1.96-2,3.61-2.15.79-.07,1.5-1,2.25-1.53-.82-.26-1.65-.79-2.45-.73-1.59.11-2.37-.26-2.39-2.02-.02-1.48-.53-2.95-.55-4.43-.01-1.32.36-2.65,1.11-3.89-.62-1.95-1.29-3.9-1.83-5.87-.09-.32.35-1.13.58-1.14.58-.03,1.17.26,1.82.43.68-.8,1.42-1.68,2.35-2.79-.68-.14-1.12-.35-1.51-.28-2.21.37-2.64-.14-2.1-2.25,1.46-5.68,4.7-10.32,8.38-14.72.43-.51,1.2-1.11,1.76-1.05,2.66.26,5.4-1.65,8.03.33.29.22,1.25-.34,1.84-.65.55-.29,1.15-.65,1.51-1.13.42-.56.75-1.27.85-1.95.1-.73-.44-1.9-.11-2.18.61-.53,1.96-1.02,2.47-.7.91.58,1.92,1.75,1.97,2.72.07,1.41-.67,2.87-1.1,4.45,1.62.47,2.63.34,3.86-1.12,1.13-1.35,3.14-1.96,5.22-3.16-1.43-.43-2.83-.86-4.23-1.28.71-1.75,3.19-2.21,4.48-.86.11.11.18.26.27.39.63.85.68,4.04.41,5.14-.2.81-.13,2.31.31,2.53,1.33.66,2.88.87,4.37,1.18.09.02.53-.84.43-.94-.44-.48-1.01-.83-1.71-1.36.04-.14.15-.49.25-.85.23-.81.45-1.61.68-2.42.92.45,2,.72,2.74,1.38,2.7,2.4,3.24,2.33,5.51-.35.66-.78,2.09-1.43,3.04-1.29,1.04.16,2.52,1.17,2.74,2.07.53,2.13,1.54,1.82,2.9,1.14,1.02-.51,2.03-1.05,2.96-1.54,1.74,1.58-1.94,2.77.13,4.12-.5.62-1.51,1.67-1.4,1.79.83,1,1.87,1.83,3,2.86-.49-1.91-.84-3.28-1.18-4.65.51-1.08,1.01-2.16,1.61-3.42.27.05.81.08,1.29.26,1.47.53,2.73.92,4.4,0,2-1.09,4.37-.33,6.33.56,3.25,1.48,3.54,4.21.98,6.67-.31.3-.52.71-.8,1.1,2.1.72,6.15-1.03,6.66-2.8.09-.32-.02-.79-.2-1.1-.85-1.52.09-2.29,1.14-3.13.71-.57,1.3-1.31,2.06-2.1.79.93,1.81,2.14,3.19,3.77-.54.58-1.28,1.35-1.99,2.16-.62.72-1.57,1.43-1.68,2.24-.1.72.6,2.08,1.21,2.25.76.22,1.79-.47,2.68-.81,1.02-.39,2.3-.58,2.96-1.32.99-1.09,1.65-2.54,2.24-3.93.22-.52-.17-1.29-.28-1.9,1.65.3,3.07.55,4.49.81.23-.16.47-.31.7-.47.23,2.15.46,4.29.72,6.75,1.98-1.83,3.72-.62,5.31.84.65-1.6,1.2-2.95,1.91-4.71.95,2.27,1.23,4.56,2.48,5.42.97.66,3.16-.49,4.81-.84v-.62c.49.52.99,1.04,1.62,1.71.66-.83,1.22-1.52,2.08-2.59.42,1.08.8,1.81.99,2.58.7,2.78,2.41,4.07,5.26,3.89,2.29-.15,3.92,1.04,4.92,4.28.92,3,1.37,6.14,2.09,9.2.25,1.06.83,2.04,1.06,3.1,1.57,7.05,3.83,13.93,4.41,21.21.32,4.01,1.47,7.95,1.96,11.96.3,2.44.06,4.94.06,7.67,1.1.2,1.24,1.15,1.44,2.71.29,2.27-1.45,4.1-.7,6.47.33,1.02-1.05,2.59-1.66,3.91.63.3,2.22.59,2.85,1.52.58.86.12,2.42-.25,3.7,1.79,2.1,2.47,4.35.74,6.95-.11.17-.14.55-.03.68,2.19,2.59-.05,5.65.91,8.41.35,1.01.24,2.47-.24,3.43-.81,1.63-.3,2.47,1.02,3.32.43.27.66.87.98,1.32-.48.07-.96.19-1.44.2-3.03.07-5.75.91-8.07,2.85.07.22.14.45.21.67.73-.3,1.63-.43,2.17-.94.94-.89,1.56-.67,2.4.1,2.03,1.86,3.17,3.95,1.91,6.84.88.22,1.51.39,1.59.41-.78,1.46-2.16,2.92-2.22,4.43-.07,1.63.7,3.67,3.25,3.54-.17,3.05-2.4,2.46-3.81,2.52-.21,3.8-.42,7.42-.64,11.34-1.51-.88-2.51-1.47-3.47-2.03-.73,1.34-1.27,2.33-1.99,3.65,1.63.14,3.25.27,4.99.42v5.16c-1.57-.93-2.75-1.89-4.11-2.31-.65-.2-1.87.44-2.35,1.07-.29.39.14,1.63.6,2.21,1.28,1.59,2.35,3.07,2.95,5.2.56,2.01-.39,3.36-1.3,3.78-2.43,1.13-1.58,3.48-3.03,5.38.89-.19,1.25-.36,1.57-.31.51.09,1,.33,1.5.51-.41.46-.78,1.24-1.24,1.31-1.97.28-3.92,1.14-5.98-.12-.57-.35-1.93.35-2.74.86-.2.12.2,1.55.61,2.19,2.62,4.01,1.65,3.48,6.86,1.35-.39-.57-.76-1.11-1.57-2.29,1.35.12,2.2.19,3.05.26-.15,1.18.11,2.77-.55,3.45-1.06,1.08-2.74,1.56-4.02,2.22.14,1.1.33,2.52.48,3.67-2.05-.2-3.58-.49-5.07-.35-.28.03-.39,1.79-.58,2.75,1.09.13,2.18.26,3.14.38,1.52,1.16,3.03,2.32,5.02,3.83-1.47.44-2.48.59-3.33,1.04-.63.33-1.05,1.05-1.57,1.59.44.38.84.85,1.34,1.12,1.42.78,2.29,1.55,1.12,3.33-.37.56.29,1.73.3,2.62.01.8-.15,2.26-.35,2.28-1.06.11-2.47.51-2.62-1.41-.05-.6-.62-1.15-.95-1.72-.61.52-1.3.98-1.82,1.59-.44.51-.67,1.21-1.05,1.79-1.16,1.78-.71,3.76.95,5.03.85.65,1.55,1.57,2.13,2.49.84,1.34,1.58,2.54,3.2.77q.29,1.45-3.1,3.96c-.34-.77-.68-1.56-1.02-2.35-.26.06-.52.11-.77.17-.17,2.37,1.35,5.61-3.67,5.45.25.26.5.51.75.77,1.14.23,2.36.29,3.4.74,1.23.54,1.91,1.56.97,3.44-1.7-3.33-6.24.48-7.36-4.01-.21.05-.42.1-.62.15-1.12,2-2.24,4-3.47,6.21,2.81,1.24,5.76,2.53,8.9,3.92.11,6.61.04,6.74-4.22,7.01,1.37,2.22.59,4.17-2.29,5.74-1.53-2.96-2.54-3.37-5.94-1.55.73.17,1.12.22,1.48.37.25.1.46.33.34.24-.54.99-1.37,1.81-1.29,2.53.11.92.78,1.98,1.53,2.56,2.24,1.75,4.78,1.79,7.43.4.64,2.43.85,4.3-1.81,5.21-.73.25-1.53.69-1.98,1.28-1.86,2.44-4.1,1.78-6.66.97.15-1.15.3-2.27.43-3.39.04-.38.12-.81,0-1.15-.7-1.82-7.31-3.18-8.62-1.8-.86.9-.58,3.07.67,3.65,1.74.8,3.6,1.34,5.67,2.08-.41.82-.8,1.6-1.19,2.39,1.63.55,3.23,1.27,4.91,1.56.84.14,1.83-.51,3.25-.97,1.85,1.07,4.25,2.43,6.6,3.88.18.11-.04.86-.09,1.46-1.05-.08-1.98-.15-3.25-.24.53.95.85,1.53,1.23,2.21-2.05,1.32-4.62,1.93-5.01,4.95-.06.48-2.33.66-3.46.95-.46-1.06-.87-1.82-1.1-2.64-.15-.52-.21-1.21,0-1.67.99-2.13-1.12-6.27-3.43-6.59-.15-.02-.39-.07-.46,0-.48.56-1.42,1.51-1.3,1.68,1.25,1.78-3.02,3.71.02,5.11,2.02.93,1.73,2.59,1.98,4.09.15.92-.17,1.92-.33,3.32-.44.26-1.34.79-2.23,1.32,0,.2,0,.41,0,.61,2.39-.27,3.08,3.52,6.16,2.07-.37-.71-.69-1.34-1.09-2.09,4.65,1.63,4.68,1.68,4.54,6.04,1.33.74,2.53,1.4,3.72,2.06-.09.3-.19.61-.28.91-1.79.24-3.58.49-6.02.82-.35-.65-1.02-1.89-1.77-3.27.44-.46.89-.93,1.32-1.38-.17-.27-.22-.47-.33-.52-1.29-.55-2.55-1.23-3.89-1.55-.7-.17-1.73.08-2.3.53-.92.73-1.59,1.78-2.36,2.7.77.48,1.5,1.26,2.33,1.37,2.02.27,3.49,1.01,4.58,2.86.83,1.41,2.36,2.15,4.1,1.55,1.63-.57,2.62-.08,3.5,1.4.71,1.19,1.81,2.15,2.89,3.38-.7.31-1.34.6-2.06.93.37.66.7,1.24,1.19,2.11-1.23.47-2.3.88-3.67,1.41,1.64,2.5,3.31,5.04,5.34,8.12-1.54-.34-2.67-.58-4.39-.96-.22.45-.93,1.4-1.03,2.42-.03.33,1.56.8,2.4,1.23.4.21,1.06.45,1.08.71.03.47-.23,1.07-.58,1.4-.44.42-1.19.51-1.61.94-.3.31-.38.95-.34,1.42.01.19.85.52.88.48,1.26-1.73,2.46.6,3.67.04.26.7.52,1.41.84,2.27.38-.31.99-.8,1.81-1.47.4.54.77,1.04,1.06,1.44-1.52.98-2.87,1.74-4.09,2.67-.94.71-1.58,1.49-.17,2.64.65.52.7,1.79,1.07,2.87-.5.18-1.13.4-1.94.69.29.8.55,1.5.8,2.18-1.28,1.21-2.55,2.42-3.74,3.55,2.42,2.28,4.79,4.51,7.26,6.84-.62.47-1.42,1.06-2.59,1.95,1.34.74,2.45,1.36,3.91,2.18-.98.5-1.61.83-2.41,1.23.52,2.65,4.17,3.89,3.26,7.36-.63-.59-1.1-1.4-1.73-1.54-.86-.19-1.83.14-2.75.25.15.83.29,1.66.47,2.48.02.11.26.16.38.27.91.84,2.71,2.02,2.54,2.49-.55,1.52-1.81,2.78-2.95,4.34.76.18,2.09.5,3.41.82,0,.15-.02.29-.03.44-1.84.45-3.67.89-5.76,1.4,1.27,2.48,3.19,4.68,6.43,5.68-.14.2-.27.39-.41.59-.76-.18-1.51-.36-2.45-.58-.2,1.69-1.66,3.73,1.81,3.59-1.92,2.49-1.76,4.88-.28,7.36.49.81-.23,2.34-.44,3.87.21.15.75.54,1.42,1.01-.9.51-1.7.97-3.01,1.72,2.36.64,4.02,1.57,5.34-.8.34-.61,1.58-.72,2.28-1-1,1.56-1.97,3.07-2.96,4.61-1.6-.75-2.05-.43-2.08,1.71,0,.51-.38,1.02-.59,1.53-1.12,2.72-3.18,2.69-5.64,2.18-1.07-.23-2.31.32-3.46,1.05,2.74-.29,4.54,2.84,7.5,1.77.79-.29,2.93.86,3.07,1.6.22,1.21-.37,2.88-1.19,3.91-2.37,2.96-2.16,4.98,1,6.98.84.53,1.47,1.4,2.2,2.11-.91.27-1.83.55-2.94.88.04.41.1.97.25,2.32-1.2-.67-2.23-.93-2.76-1.59-2.38-2.94-7.05-2.67-8.9.86.83.13,1.6.17,2.32.39.65.19,1.65.44,1.8.89.87,2.61,2.68,1.91,4.45,1.45,1.49-.38,2.99-1.3,4.39.21-.85.83-1.71,1.66-2.82,2.73,1.98.15,3.39.26,4.81.37.03.26.06.51.09.77-.86.28-1.72.56-2.65.87,1.23.24,2.43.48,3.63.71,0,.24,0,.48,0,.72-3.89.82-7.79,1.64-11.68,2.45v.68c4.17.74,7.65,4.72,12.92,1.57-.48,1.69-.74,2.61-.91,3.22-.99-.07-1.79-.13-2.59-.19.31,1.02.63,2.03.79,2.55-1.49,1.01-3.08,1.97-4.5,3.13-.25.2-.04,1.56.35,1.84,1.73,1.26,3.61,2.32,5.84,3.7-2.67-.72-2.99,1.4-4.07,2.76-.38.48-1.44.78-2.08.64-1.13-.25-2.15-.99-3.27-1.35-2.25-.73-4.52-1.41-6.83-1.92-.38-.08-1.35.79-1.39,1.29-.06.59.45,1.68.93,1.82,2.26.67,4.58,1.17,6.9,1.56,1.38.23,2.83.28,4.23.15,1.44-.14,2.84-.61,4.48-.98-.81,2.22-4.77,2.78-3.04,5.72.56.96,2.5,1.12,4.35,1.87-.33.86-.88,2.29-1.24,3.25-1.32-.07-2.29-.04-3.24-.19-.81-.13-1.74-.28-2.33-.76-1.04-.84-1.87-1.95-3.26-3.46-.68,1.63-1.1,2.63-1.52,3.63,1.1.45,2.2.89,3.12,1.26-3.05,2.61-2.95,3.27,1.63,5.83-1.58.23-2.65.77-3.76-.91-.92-1.41-2.56-2.43-4.05-3.33-.5-.3-1.54.31-2.47.53-.36-1.02-.96-2.13-1.12-3.3-.3-2.26-2.1-2.39-3.48-2.13-.73.14-1.2,1.83-1.7,2.87-.39.79-.66,1.65-1.06,2.68,2.77,2.07-.26,3.08-1.21,4.56-.73-.47-1.55-1.42-2.16-1.3-.7.14-1.21,1.22-1.92,2.02,2.27.47,2.68,1.66,1.35,5.1-.69-1.32-1.37-2.63-1.91-3.66-1.67-.53-3.12-1-4.29-1.37.39,2.15.85,4.18,1.09,6.24.1.84-.3,1.74-.47,2.61-.91-.28-2.02-.34-2.68-.91-.77-.66-1.15-1.77-1.36-2.13-2.25.12-4.21.3-6.17.28-.63,0-1.36-.43-1.86-.87-1.87-1.63-3.63-3.38-5.52-4.98-.35-.3-1.16-.22-1.7-.08-.5.14-.89.83-1.37.89-2.86.33-4.78,1.65-6.1,4.35-.37.76-2.49.67-3.81.97-.21-.42-.32-1-.66-1.21-.59-.38-1.41-.85-1.99-.7-.62.16-1.3.91-1.5,1.55-.16.5.37,1.22.47,1.49,1.5-.47,2.6-.81,3.7-1.16ZM68.98,357.23c-.47-.97-.93-1.95-1.31-2.73.11-.91.21-1.74.31-2.57-.79.14-2.01.03-2.25.47-.38.67-.44,2.04,0,2.54.85.96,2.15,1.53,3.26,2.26,1.94,2.87,3.41,3.01,5.38.41-1.69-1.76-3.51-1.52-5.4-.39ZM20.56,273.18c-.35-.56-.71-1.12-1.06-1.69-.25.05-.49.1-.74.14.11,1.11.19,2.23.39,3.33.03.15.67.19,1.03.28.12-.7.24-1.4.35-2.1,1.31-.67,2.62-1.34,3.92-2.01-.18-.06-.37-.12-.55-.19.21-.86.42-1.72.65-2.57.22-.83.69-1.68.63-2.49-.06-.71-.7-1.38-1.09-2.07-.57.53-1.45.97-1.64,1.61-.75,2.55-1.28,5.16-1.89,7.75ZM442.73,165.84c.22-1.39.51-2.78.63-4.18.06-.71-.02-1.94-.36-2.07-1.56-.59-3.23-1.11-4.89-1.2-1.4-.07-1.79,1.12-.86,2.08.89.91,2.17,1.44,3.25,2.16.35.23.62.57.93.87-.41.22-.82.47-1.25.64-.32.13-.67.16-1.01.24-.02.28-.05.55-.07.83,1.21.2,2.43.39,3.64.59.76,1.15,1.66,1.83,3.24.9-.89-1.7-1.8-2.31-3.26-.87ZM74.2,411.86c-.21-1.55-.41-3.09-.67-5.04-1.24-.07-3.08-.13-4.9-.31-.58-.06-1.47-.33-1.62-.73-.99-2.68-2.58-2.38-4.66-1.31-.85.44-2.01.25-3.03.35-.78.08-1.56.18-2.35.27-.03.2-.05.39-.08.59,2.22,1.47,4.44,2.95,7.07,4.7-1.51.2-2.76.44-4.03.52-1.25.08-2.01.47-1.66,1.89.36,1.47.73,2.93,1.13,4.58-2.03-.06-3.24.81-2.96,3.14.55-.48,1.1-.96,1.64-1.43.17.04.38.03.47.12.51.56,1.4,1.15,1.39,1.72,0,1-.84.77-1.75.85-1.78.15-3.5,1.14-5.53,1.88.62.5.88.84,1.21.94,3.12.95,6.23,1.93,9.4,2.7.49.12,1.57-.66,1.79-1.25.4-1.07.23-2.13-1.29-2.54-.59-.16-1-1.01-1.5-1.55.86-.55,1.8-1.65,2.57-1.55,2.16.29,4.36.85,6.35,1.73,1.83.81,3.14.28,4.57-.69.54-.37,1.2-.56,1.78-.88.43-.23,1.2-.54,1.18-.78-.03-.54-.35-1.41-.73-1.51-1.48-.4-3.07-.88-4.54-.71-1.16.14-1.76.16-2.2-.96-.12-.31-.61-.77-.82-.72-2.32.63-4.86-1.01-7.1.76-.48.38-1.53.48-2.06.2-.42-.22-.75-1.36-.53-1.82.26-.54,1.11-1.02,1.76-1.11,3.43-.48,4.38-1.9,3.15-5.1,2-.38,3.56-.14,4.97,1.69.66.86,2.37.91,3.61,1.32.54.99,1.08,1.98,1.62,2.97.84-1.07,1.68-2.15,2.53-3.22l-.52-.71c-1.22.33-2.44.66-3.65.98ZM50.53,372.92c.77.41,1.64,1.28,2.29,1.14,3.15-.67,4.1-.13,4.21,2.96.02.72-.27,1.5-.58,2.18-.31.68-.82,1.26-1.25,1.89-.67-.55-1.69-.97-1.95-1.67-.44-1.19-.4-2.56-.61-4.28-.77.66-1.57,1.02-1.72,1.55-.63,2.18-1.33,4.41-1.45,6.65-.07,1.26.61,2.8,2.67,2.57,1.14-.13,2.32.24,3.49.34,1.48.12,2.42.67,2.2,2.37-.21,1.69.64,2.26,2.26,2.16.73-.05,1.49.26,2.77.5-1.46.39-2.52.37-2.94.88-.39.47-.08,1.5-.08,2.79-.94-.83-1.47-1.3-2.07-1.84-.82.55-1.58,1.07-2.47,1.67.78,1.81,5.85,2,1.91,5.16,2.23,1.54,3.7.91,5.02-1.07.37-.55,1.38-.79,2.14-.92,1.87-.33,2.74-1.94,1.83-3.37-.78-1.23-1.33-2.61-1.99-3.92.17-.09.35-.19.52-.28-1.72-.97-3.45-1.95-5.2-2.93.65-.75,1.35-1.56,2.11-2.43-.72-.77-1.28-1.38-1.68-1.8.3-.92.53-1.6.87-2.63-1.33.46-2.12.74-2.92,1.01-.14-.29-.28-.57-.41-.86,1-.52,2.14-1.62,2.99-1.43,2.29.5,4.43,1.63,6.69,2.33.74.23,1.87.21,2.43-.21,1.04-.79,1.84-1.93,2.64-3,.77-1.03,1.08-1.9-.36-2.94-1.87-1.34-1.72-2.68.14-4.15.96-.76,2.01-1.39,3.05-2.09-2.65-1.45-2.97-1.34-5.5,1.82-1.98-.29-3.82-.35-4.97,1.86-.36.7-1.26,1.23-2.03,1.57-.37.17-1.48-.27-1.47-.44.01-3.15-2.68-4.35-3.74-5.63-1.77.05-3.38.57-3.94.02-2.02-1.96-3.63-1.05-5.44-.06q1.07,4.28,2.53,4.52ZM386.97,356.7c-.2-2.72-3.57-4.36-1.44-6.44,1.3-1.27,3.76-1.35,5.81-2-.39-3.71-3.25-5.79-6.7-4.51-.91.34-2,.21-3,.3-.15.01-.29.09-.48.16.09.42.19.85.3,1.33-.69.19-1.29.34-1.89.52-.52.16-1.03.34-1.55.51,2.37-2.41,2.39-3.3.44-6.07-1.45-2.06-3.67-3.72-3.52-6.72.03-.52-1.06-1.09-1.41-1.43-1.14,1.24-2.03,2.22-2.92,3.19.08.02.16.05.25.07-.72,1.39-1.45,2.78-2.22,4.25-.81-.23-1.42-.41-2.68-.77,1.61,2.19,2.84,3.87,4.21,5.72,1.19-.82,2.15-1.55,3.18-2.16.33-.2.92-.25,1.25-.09.34.17.81.88.71,1.03-.52.81-1.18,1.55-1.84,2.27-.43.47-.95.87-1.57,1.43-1.46.12-3.23.29-5,.38-.62.03-1.25-.13-1.87-.2.21-.67.42-1.35.68-2.18-.63-.7-1.45-1.61-2.26-2.52-3.08,2.69-3.43,3.97-1.96,6.7.48.88.85,1.82,1.35,2.69.16.29.68.69.81.62.34-.18.76-.59.78-.92.07-1.42-.04-2.73,2.15-2.41,1.25.18,2.62-.43,3.85-.21,1.32.24,1.8,1.25,1.29,2.74-.23.68-.05,2.07.41,2.33,1.48.84,3.15,1.36,4.78,1.91,1.3.43,2.44.35,3.14-1.18.26-.57,1.07-.9,1.71-1.4.17,1.49.25,3.35.41,3.36,1.57.08,3.15-.16,4.83-.31ZM327.47,392.65c.36,3.96,3.14,5.41,6.95,5.94-2.26,1.87-3.69,3.33-2.41,5.36-1.28.63-2.39,1.18-3.51,1.72l-.08.95c1.17.51,2.33,1.04,3.51,1.52,1.91.78,4.16,1.08,4.99,4.09.46-.82.67-1.31.99-1.71.49-.61,1.01-1.59,1.61-1.67,2.35-.31,1.8-1.69,1.09-2.87-.75-1.25-1.85-2.29-2.85-3.49.52-.77,1.04-1.64,1.66-2.43.87-1.1,2.86-.94,3.05.37.31,2.13,1.98,1.5,3.63,2.51-.11-1.7.26-3.32-.36-3.92-.87-.83-2.47-.91-3.76-1.27-.96-.26-2.78-.43-2.78-.68-.08-3.2-3.43-3.07-4.88-4.91-1.46-1.86-3.94-2.93-6.02-4.27-.45-.29-1.16-.38-1.7-.28-.35.06-.93.8-.86.93.27.48.71.92,1.19,1.22.53.32,1.37.3,1.72.72.78.94,2.13,2.63,1.86,3-1.15,1.56-1.59-.62-2.5-.84-.15-.04-.31,0-.52,0ZM14.16,420.28c2.51-1.01,3.89.56,5.42,1.81.16.13.45.1.69.13,2.48.29,2.83.8,1.99,3.11-.62,1.68-1.14,3.34-3.08,4.23-1.47.67-1.31,2.15.21,2.83,2.08.93,4.2,1.8,6.38,2.47,1.39.43,2.9.45,4.2.63-.32-2.12-.57-3.82-.89-5.95-.23-.1-.91-.47-1.64-.73q-4.51-1.58-2.19-5.46c-.53-.61-1.05-1.23-1.58-1.84,1.18-.29,2.02.02,2.84-.01.78-.03,1.97-.2,2.21-.69.35-.71.28-1.93-.15-2.59-.28-.43-1.64-.57-2.27-.3-1.61.7-2.45.23-3.26-1.2-.38-.68-1.26-1.33-2.02-1.49-2.58-.54-5.51,1.55-6.85,5.06ZM383.09,360.96c.14.48.25.77.29,1.07.05.35.04.7.05,1.02q-5.58,1.47-5.87,2.81c1.45.49,2.91.98,4.58,1.54-.07.91-.25,1.92-.18,2.91.06.82.18,2.11.66,2.34,2.96,1.36,1.64,2.55.04,3.67.25,1.03.39,1.93.7,2.77.12.34.59.56.9.83.26-.32.68-.61.74-.97.08-.46-.13-.96-.21-1.42,2.66,1.11,5.18,2.16,7.77,3.24-.02.03-.3.43-.66.93.65.47,1.25.9,2.09,1.5.09-.82.26-1.29.16-1.7-.33-1.42-1.11-2.82-1.06-4.21.06-1.53-.5-2.24-1.75-2.61-1.77-.53-1.92-1.91-1.86-3.38.09-2.19-.32-2.48-2.51-1.79-.69.22-1.44.22-2.17.32-.02-.17-.05-.34-.07-.52,1.56-.68,3.11-1.37,4.08-1.8-.89-1.48-1.76-2.82-2.54-4.22-.67-1.19-.93-2.81-3.2-2.36ZM358.14,411.75c-.12.2-.25.41-.37.61.98.7,2.51,1.25,2.78,2.16.28.96-.66,2.27-1.12,3.58.66.15,1.28.29,1.37.31.25,1.03.2,1.88.59,2.26,1.59,1.5,6.15,1.78,8.1.71,1.25-.68,1.14-1.38.15-2.13-1.06-.81-2.07-1.84-3.29-2.28-2.05-.74-1.72-2.07-1.41-3.6.12-.62.18-1.35-.04-1.91-.64-1.62-1.4-3.19-2.18-4.75-.36-.72-.77-1.48-1.35-2.03-1-.94-2.1-1.79-3.25-2.55-.53-.35-1.38-.67-1.88-.47-.49.19-.92,1.03-1,1.63-.16,1.14-.05,2.32-.05,3.93,1.4,1.3,4.19,1.99,5.37,4.98-1.13-.2-1.78-.32-2.43-.44ZM30.83,438.56c-.16-.17-.33-.35-.49-.52-1.92,1.32-4.01,2.45-5.69,4.02-1.06.99-1.82,2.48-.48,4.2.46.59.09,2.05-.25,2.98-.8,2.15-2.44,4.24.46,6.09.22.14.36.5.43.79.68,2.97,1.47,3.36,4.87,2.28-.1-2.35-1.86-1.6-3.27-1.49l-.36-.61c1.83-2.11,3.67-4.22,5.57-6.42-.36-.05-.71,0-.94-.15-.59-.38-1.12-.85-1.67-1.28.59-.22,1.21-.39,1.78-.68.55-.27,1.35-.55,1.52-1.01.82-2.25-.18-4.76-2.29-6.12.27-.69.54-1.38.82-2.08ZM79.94,436.2c2.44-3.76,2.29-4.38-1.01-7.09-.79-.65-1.83-2.05-1.59-2.63.35-.85,1.73-1.3,2.7-1.86.68-.4,1.93-.64,2-1.09.14-.89-.37-1.89-.62-2.87-.75,1.04-1.1,1.89-1.73,2.34-.82.59-1.93.76-2.8,1.3-1.66,1.04-3.2,2.28-4.88,3.29-.77.46-2.24.33-2.55.91-1.12,2.13-2.93,1.78-4.71,1.77-.9,0-1.8,0-2.71,0l-.27.84c.74.33,1.5.98,2.21.93,1.96-.16,3.91-.53,5.83-.97,2.3-.52,5.14.51,5.56,2.69.39,1.98,3.61,2.78,2.1,5.41-.02.03.57.59.88.59,1.2.01,2.4-.1,3.6-.17-.54-.97-1.09-1.94-1.64-2.91-.08-.13-.2-.24-.38-.47ZM17.72,328.46c1.75,1.31,3.87,2.96,6.06,4.5,1.04.73,2.17.49,2.33-.85.22-1.79.05-3.62.05-5.57-1.09.12-1.73.33-2.31.23-.71-.12-1.38-.5-2.06-.77.25-.62.52-1.22.74-1.85.62-1.73.78-3.64,2.15-5.07.14-.15-.04-.6-.06-.91-.08-.96-.15-1.93-.26-3.26-1.38-.45-3.2-1.1-5.07-1.61-.45-.12-1.22.04-1.51.37-1.57,1.78-2.94,2.32-4.48-.34v4.59c1.36-.32,2.71-.64,4.06-.96.12.81.28,1.94.49,3.39,1.78-1.42,3-2.39,4.32-3.45.2.97.4,1.9.61,2.91-.87.34-1.58.62-2.29.9.16.09.31.18.47.27-.97,2.24-1.93,4.47-3.24,7.48ZM327.57,419.3c-.77-.34-1.33-.68-1.93-.8-.2-.04-.76.51-.74.75.21,2.13-.58,3.84-1.92,5.43-.21.25.19,1.23.55,1.68.34.43.97.69,1.52.9,2.07.79,4.15,1.53,6.43,2.37-.04.47-.12,1.61-.21,2.77,2.24-.39,4.36-3.9,3.6-5.82-.11-.28-.28-.69-.51-.75-2.68-.78-3.09-2.49-2.67-5.08.41-2.55-2.23-1.92-3.6-2.71-.2.47-.38.89-.53,1.25ZM22.42,304.77c-.35,1.79-.65,3.32-.92,4.69,1.68.77,3.18,1.56,4.76,2.13.85.31,1.9.48,2.73.24.42-.12.94-1.63.69-1.93-.49-.61-1.48-.84-2.52-1.35.17-.66.42-1.58.66-2.49-.62-.19-1.17-.37-1.83-.57.31-.81.56-1.45,1.03-2.67-1.38,0-2.45-.02-3.52,0-3.1.07-6.28,1.54-9.24-.85-.44-.36-1.82.14-2.57.58-.46.27-.88,1.37-.68,1.79.31.65,1.11,1.14,1.8,1.5.52.27,1.21.22,1.83.31-.02.15-.04.31-.05.46-.61.15-1.21.29-1.82.44l.1.6c1.08-.23,2.7-.1,3.16-.77,1.56-2.29,3.79-1.77,6.4-2.12ZM362.4,325.72c.16.86.08,2.13.65,2.95.56.81,1.98,1.83,2.65,1.61,1.31-.42,2.11-.31,3.23.42.53.35,1.97.09,2.41-.41.61-.68,1.12-2.57.88-2.72-2.97-1.93-3.1-5.21-4.19-8.24.61-.03,1.16-.06,1.71-.08.05-.16.1-.33.16-.49-1.05-.53-2.09-1.05-2.5-1.26-1.36,1.12-2.09,1.97-3.02,2.43-1.35.67-2.19,1.43-1.79,2.97,1.24.27,2.3.5,3.37.73.03.29.05.57.08.86-1.08.37-2.15.73-3.63,1.23ZM388.35,339c-1.55-2.82-.95-6.84-5.1-8.14-2.72-.85-4.67-.32-4.89,2.37-.14,1.75.35,3.8,1.23,5.33,1.7,2.94,5.01,2.62,7.87,3.02.21.03.47-.28.53-.32-.81-.78-1.55-1.5-2.3-2.23.16-.22.31-.44.47-.67.73.21,1.45.43,2.18.64ZM376.29,401.9c-3.83-3.76-3.55-7.94-2.17-12.16-1.24-.62-3-.99-3.94-2.06-1.73-1.98-3.45-1.51-5-.36-.93.69-1.29,2.17-1.9,3.29.2.14.41.29.61.43.54-.21,1.08-.41,1.9-.73.47,2.67,2.07,3.98,4.56,4.45,2.17.41,1.75,2.29,1.82,3.81.05,1.12.01,2.25.01,3.33h4.1ZM356.65,439.84c.4,1.05.57,2.1.84,2.13.75.07,2.12-.17,2.19-.52.18-.79.02-2.1-.52-2.52-2.39-1.86-2.69-4.39-3.38-7.11-.71-2.83-.54-4.01,2.41-4.25.07,0,.13-.26.35-.73-2.09-1.13-4.11-2.56-6.37-3.35-2.16-.75-3.56.48-3.49,2.42.56,0,1.34-.24,1.65.04,1.1.99,2.11,2.09,2.99,3.27.37.5.46,1.3.47,1.98.04,1.68-.12,3.37-.05,5.06.08,2.06.26,4.16,2.91,3.57ZM19.46,367.44c-.64.81-1.16,1.47-1.74,2.19-.45-.67-.8-1.21-1.2-1.8-1.38,2.13-.93,3.6,1.08,4.02,2.3.49,4.6.99,6.92,1.42,1.88.35,3.93-2.13,3.25-3.99-.58-1.59-1.12-3.36-2.22-4.53-.52-.55-2.34.13-3.57.22-.7.05-1.42-.05-2.1.06-.58.1-1.12.4-1.87.69.54.63.92,1.09,1.46,1.72ZM25.07,357.9c.75-1.75,1.47-3.11,1.89-4.56.17-.61-.23-1.44-.55-2.08-.08-.16-1.19-.09-1.25.08-.2.56,0,1.26-.21,1.82-.54,1.41-1.04,2.9-1.94,4.07-.27.35-2.03.02-2.7-.51-1.63-1.27-2.34-.18-2.49,1-.21,1.62-.7,2.48-2.42,2.47-.22,0-.44.65-.65,1,.39.18.78.52,1.16.51,1.53-.03,3.05-.19,4.58-.26.67-.03,1.34.05,1.94.08.44.63,1.12,2.12,1.5,2.05,1.72-.32,3.39-1.02,5.01-1.74.41-.18.56-.93.83-1.42-.52-.06-1.05-.22-1.55-.15-.49.07-.95.37-1.36.55-.74-1.21-1.38-2.25-1.79-2.92ZM298.04,296.29c-.04-.23-.09-.46-.13-.7-1.94.13-3.95.62-5.81.29-2.51-.44-3.43.5-4.2,2.69-.64,1.82.1,2.52,1.53,2.6,2.84.16,5.7.05,8.68.05.25,2.2,1.75.82,2.97.72q-.81-3.71-5.26-4.34c.82-.49,1.52-.9,2.22-1.32ZM69.54,292.55c-.85-3.07-1.09-3.34-2.58-3.14-1.52.2-3.31,2.11-2.92,3.5.84,2.98,3.32.16,4.78,1.17-1.84,3.63-1.7,3.94,2.13,5.49.72.29,1.35.83,2.14,1.32-.11.09.27-.19.63-.5,2.03-1.69,1.85-2.81-.48-4.14-.83-.47-1.46-1.29-2.03-1.81.65-.99,1.11-1.69,1.57-2.39-.16-.15-.33-.29-.49-.44-.86.29-1.72.58-2.75.93ZM23.44,285.86c-.71,2.88-1.28,5.51-2.03,8.09-.35,1.22-1.33,2.31-1.49,3.53-.09.74.66,1.89,1.37,2.36.76.51,1.9.45,3.07.67v-2.27c.79.73,1.41,1.31,1.87,1.74,1.04-1.24,1.84-2.2,2.57-3.07-4.34-1.2-5.21-3.66-2.75-8.05.25-.45.22-1.52-.09-1.74-.87-.64-1.95-.99-2.52-1.26ZM331.47,455.44c-.53-1.69-1.07-3.56-1.71-5.4-.12-.35-.67-.76-1.03-.76-.32,0-.75.45-.96.81-.5.82-.97,1.67-1.31,2.56-.23.61-.38,1.33-.3,1.97.46,3.68,3.62,4.84,6.25,6.44.33.2,1.42-.12,1.53-.43.54-1.51.88-3.09,1.28-4.64-1.14-.17-2.28-.33-3.76-.54ZM328.39,435.84c0,.62.01,1.46,0,2.29-.04,2.23.81,3.03,3.82,3.49,1.98.3,3.55.05,4.17-2.33.64-2.43-.93-5.17,1.07-7.42.1-.12-.59-.94-.91-1.44-.48.32-1.18.54-1.37.98-.23.51.15,1.27-.02,1.83-.2.71-.58,1.82-1.07,1.93-1.82.4-3.71.46-5.7.66ZM75.04,442.46c-.18-.32-.36-.64-.54-.96-.63.56-1.25,1.12-1.88,1.68.65.68,1.27,1.9,1.95,1.95,1.99.12,3.3.74,3.81,2.77.09.36.75.94.9.87,1.37-.62,2.91-1.13,3.95-2.13,1.5-1.44.63-3.39-.49-4.43-.9-.83-2.67-1.02-4.04-.97-1.24.04-2.45.79-3.68,1.23ZM16.17,377.47c.88.73,1.95,1.19,2.21,1.93.65,1.87,1.95,1.52,3,.93.67-.37.9-1.52,1.54-2.7-2.26-.03-3.3-.47-3.1-2.34.04-.39-1.05-1.3-1.6-1.28-2.25.07-4.53.25-6.72.74-.69.16-1.75,1.76-1.55,2.12.49.92,1.58,2.08,2.46,2.1,1.23.03,3.21,1.2,3.77-1.51ZM370.73,371.7c.19-.1.38-.21.57-.31.64.68,1.9,1.44,1.82,2.02-.26,1.87.73,2.15,2.1,2.33.93.12,1.84.38,2.78.46.56.05,1.14-.12,1.71-.18-.11-.51-.21-1.02-.33-1.53-.25-1.01-.52-2.02-.77-3.03-.37-1.49-.72-2.97-1.04-4.28-1.65.09-2.91.15-4.32.23.06.52.12,1.07.2,1.72h-2.56c-.05.91-.1,1.74-.15,2.57ZM72.25,438.31c-1.73-.77-3.18-1.51-4.7-2.06-2.15-.77-4.43,1.2-6.65-.2-.14-.09-1.52,1.14-1.42,1.43.46,1.28.95,2.88,1.97,3.56,2.19,1.46,8.5-.18,10.8-2.73ZM349.07,464.72c-.8-.99-1.41-1.73-2-2.48-.48-.6-1.2-1.16-1.36-1.84-.96-4.26-3.19-5.69-7.77-4.58.77,1.07,1.27,2.5,2.24,2.96,1.35.64,1.68,1.04,1.34,2.59-.66,2.92,2.03,4.96,4.87,3.94.64-.23,1.33-.3,2.68-.58ZM322.5,439.15c-3.19-1.66-4.3-1.16-3.97,1.85.25,2.25,1.21,4.44,1.97,6.61.1.3,1.1.66,1.23.54,1.46-1.46,3.46-.83,5.11-1.46.44-.17.8-.52,1.2-.79-.29-.43-.49-1-.89-1.26-.61-.4-1.83-.45-1.98-.91-.61-1.88-2.1-2.18-3.65-2.55-.24-.06-.42-.37-.73-.66.59-.47,1.05-.84,1.71-1.37ZM70.51,307.86c-.88-1.84-1.66-3.54-2.52-5.2-.95-1.83-3.04-2.69-4.82-1.89-1.37.62-2.41,1.64-1.84,3.35,1.1,3.28,5.92,5.25,9.17,3.75ZM112.4,444.55c.11.07-.24-.33-.49-.27-2.86.63-5.12-.35-7.03-2.43-.19-.21-.56-.28-.86-.34-2.22-.43-3.28.72-2.68,2.89.82,2.99,3.83,3.49,5.87,5.08.18.14,1.14-.51,1.58-.95,1.23-1.25,2.37-2.59,3.62-3.97ZM278.71,304.71c-.37,1.05-.56,1.58-.81,2.27,2.46,0,4.7.03,6.94-.01,1.2-.02,2.33-1.76,1.95-2.9-.97-2.93-3.67-3.82-6.38-2.29-1.21.68-2.21,2.05-4.06,1.33-.57-.22-1.56.62-2.36.98l.14.62h4.59ZM333.76,452.28c.19-.17.37-.33.56-.5.89.37,1.79.72,2.67,1.11.86.38,1.76,1.23,2.53,1.12,1.08-.15,2.07-.99,3.1-1.54-.45-.51-.81-1.33-1.36-1.48-2.99-.84-6.2-4.42-6.64-7.96-1.1.47-2.09.89-2.81,1.19.71,2.92,1.33,5.49,1.95,8.06ZM49.6,435.28c-1.26.85-2.53,1.61-3.67,2.52-.32.26-.45,1-.35,1.46.07.31.71.78,1.02.72,2.95-.51,2.93,1.14,2.47,3.22-.15.69-.43,1.53-.17,2.08.51,1.1,1.2,2.74,2.07,2.93,1.73.37,1.73-1.46,1.79-2.64.17-3.59-.6-6.95-3.16-10.29ZM450.21,390.65c-1.19-.3-2.36-.7-3.56-.89-1.29-.21-2.61-.17-3.9-.34-1.31-.18-2.6-.53-3.92-.73-1.42-.21-2.12.73-1.61,1.82.56,1.2,1.59,2.86,2.64,3.04,3.6.63,7.15.06,10.36-2.9ZM377.11,381.42c-1.27.62-2.29,1.13-3.32,1.63,1.34,1.17,2.69,2.33,4.03,3.5,2.03-1.86,3.75-.14,5.6.42.82.25,1.76.1,2.65.14-.15-.93-.15-1.92-.49-2.77-.28-.68-.91-1.3-1.54-1.74-.37-.26-1.3-.35-1.49-.11-2.2,2.65-2.83.26-3.83-1.1-.48-.65-1.06-1.22-1.6-1.83-.17.14-.34.29-.51.43.2.56.4,1.11.52,1.43ZM71.57,385.78c-.67.13-1.62.2-2.51.5-.67.23-1.82.91-1.77,1.09.55,1.84,1.06,3.8,2.15,5.31.36.5,2.64.2,3.56-.43,1.19-.82,3.12-1.55,2.66-3.66-.44-1.99-1.88-2.78-4.09-2.81ZM23,461.11c-.08,1.03-.11,1.87-.23,2.71-.29,2.14.96,3.4,3.07,3.11.58-.08,1.31-.11,1.77.17,2.08,1.23,2.96-1.18,4.53-1.45.1-.02.22-.91.07-1.29-.46-1.19-4.65-3.33-6.1-3.25-1,.05-2,0-3.11,0ZM70.83,315.92c-1.32-3.28-3.66-4.07-5.66-2.04-.63.64-1.25,1.91-1.01,2.61.21.63,1.56.95,2.46,1.24,1.08.35,2.36.29,3.28.85,2.12,1.28,3.51,1.09,4.75-1.18.36-.66.25-1.57.35-2.37-.87.02-1.75-.04-2.6.09-.5.08-.95.47-1.58.8ZM375.13,317.46c-2.88.47-3.06,2.98-3.62,5.1-.1.37.62,1.28,1.11,1.43,2.51.75,4.87.1,7.45-.91-.61-.78-1.01-1.3-1.41-1.82,1.24-.78,3.55.47,3.87-2.26-2.68.45-5.36,1.34-7.4-1.54ZM374.48,409.25c-.04.28-.09.55-.13.83-.64.17-1.29.34-1.69.44-.19,1.16-.34,2.07-.43,2.64.69,1.07,1.23,1.99,1.85,2.86.35.48.86,1.25,1.23,1.21.58-.06,1.27-.57,1.64-1.09,1.38-1.95.69-5.22-1.46-7.51-2.21-2.34-5.16-2.31-6.83.15.95.76,1.72,1.39,3.07.34.55-.43,1.81.06,2.75.14ZM48.16,434.65c2.91-.11,3.79-.97,3.43-3.94-.18-1.49-.05-3.61-2.56-3.5-2.42.1-4.59,2.26-4.6,4.48,0,1.5,1.93,3.03,3.73,2.97ZM452.61,421.24c-.03-.34-.06-.67-.09-1.01h-18.09c3.9,5.08,9.54,1.38,14.15,2.88,1.03.34,2.67-1.2,4.03-1.87ZM45.16,392.72c1.71-2.57,3.22-3.5,5.52-2.09.61.37,1.74.21,2.48-.08.34-.13.56-1.66.43-1.72-1.55-.73-3.17-1.31-4.86-1.95-1.25-.33-2.6-1.15-3.57-.83-1.05.35-2.49,1.82-2.42,2.69.1,1.26,1.4,2.43,2.41,3.98ZM365.03,381.64c2.38.67,2.96-1.77,4.44-2.57,2-1.07.32-2.25-.24-3.3-.71-1.33-1.69-.73-2.3-.01-1.46,1.72-2.8,1.33-4.55.4-1.5-.8-3.26-.75-4.67.09,1.26,1.17,2.25,2.12,3.3,3.01.26.22.86.46,1.03.33,2.82-2.11,2.76.18,3,2.05ZM377.76,309.41c-1.43-1.66-2.58-3-3.32-3.85-3.38,1.44-6.14,2.62-8.9,3.79.07.33.15.66.22.99,1.94-.27,3.89-.53,6.02-.83-.44.99-.88,2.02-1.57,3.58,3.08-.33,4.93-2.1,7.54-3.68ZM302.44,181.62c.09-.27.18-.54.27-.82-2.31-1.73-2.63-3.14-1.31-5.81,1.08-2.17.56-3.66-1.74-3.9-1.55-.16-3.36.15-4.72.88-.8.42,1.19,3.05,3.25,3.78,1.08.39,1.61.75,1.01,2.03-.3.63-.33,1.89.06,2.23.88.75,2.1,1.09,3.18,1.6ZM144.08,391.25c.02.21.05.43.07.64.5-.27.99-.54,1.49-.82-.36-.62-.57-1.51-1.1-1.8-1.56-.85-3.13-1.33-3.79-3.43-.24-.77-2.47-1.34-3.71-1.21-.67.07-1.52,1.76-1.62,2.79-.08.74.79,2.08,1.5,2.3,2.32.72,4.77,1.05,7.17,1.53ZM134.11,377.6c0,1.11.18,1.91,1.92,1.38,1.12-.34,2.49-.33,3.63-.02,1.41.38,2.66,1.31,4.05,1.81.51.18,1.36.01,1.78-.33.33-.27.52-1.26.29-1.56-.35-.45-1.12-.58-1.7-.86-.55-.26-1.34-.39-1.59-.82-.82-1.42-1.36-3.06-3.43-1.37-.2.16-.86-.11-1.23-.3-2.2-1.16-3.43-.56-3.73,2.06ZM17.84,341.12c-.08.34-.15.69-.23,1.03.62.29,1.53,1,1.82.8,2.39-1.63,3.33-.36,3.87,2.3,2.21-2.28,4.55-2.24,7.05-.92.11-.25.22-.51.32-.76-1.44-1.85-2.88-3.7-4.47-5.75-1.06.81-1.94,1.55-2.88,2.19-.52.35-1.13.65-1.74.75-1.23.2-2.49.25-3.73.36ZM446.57,240.51c.43-.73.69-1.16,1-1.69.45.33.72.63,1.07.78.67.28,1.37.48,2.06.71-.01-.71-.06-1.41-.03-2.12.04-.7.16-1.4.24-1.99-.86-.59-1.82-1-2.44-1.71-1.43-1.64-2.39-1.72-3.78-.07-.56.67-1.16,1.31-2.08,2.36-.23,2.23,2.56,2.14,3.96,3.71ZM112.34,460.6c.24-.02.48-.05.72-.07.28-1.15.78-2.31.77-3.46,0-1.61-2.89-3.55-3.72-2.58-1.45,1.7-3.02,1.56-4.83,1.36-1.48-.16-2.02.79-1.75,2.09.35,1.73,1.54,1.67,2.92,1.2,2.21-.75,4.43-1.33,5.9,1.46ZM384.3,430.34c0-1.98.23-3.73-.05-5.39-.52-3.12-4.29-.71-5.52-2.95-.08-.15-1.69.15-1.81.5-.33.96-.23,2.06-.31,3.22.63,0,.95.08,1.22-.01,1.44-.47,2.14-.68,2.28,1.53.09,1.53,1.99,2.83,4.2,3.11ZM434.87,238.25c-.79-.82-1.26-1.32-1.91-2-.49,2.61-1.85.6-2.97.66-.08.4-.33.94-.19,1.07,1.07,1.01.98,2.08.8,3.48-.28,2.14,1.43,4.17,2.94,3.98,1.33-.17,2.62-.55,4.46-.96-1.42-.93-2.48-1.63-3.53-2.33.13-.23.25-.46.38-.69h1.88c.07-.2.15-.41.22-.61-1.15-.53-2.3-1.07-3.85-1.78.68-.31,1.18-.53,1.78-.81ZM382.9,400.65l.88.11c.49-1.15,1-2.3,1.46-3.46.24-.61.42-1.25.56-1.89.14-.61.49-1.49.22-1.8-.34-.4-1.2-.44-1.85-.46-1.13-.03-2.27.05-3.41.13-.68.04-1.36.16-2.04.25.16.68.15,1.47.51,2.02,1.14,1.75,2.43,3.41,3.66,5.1ZM24.09,476.73c1.22.94,2.32,1.81,3.45,2.63,1.67,1.22,3.38,1.35,4.77-.33,1.07-1.28,2.09-2.91.87-4.5-1.35-1.74-2.29.18-3.28.8-1.09.68-2.04,1.15-3.17.04-.32-.31-1.06-.5-1.44-.35-.4.16-.6.81-1.19,1.7ZM44.97,416.95c-.47.81-1.84,2.13-1.6,3,.32,1.12,1.93,1.87,2.94,2.81.34.32.49.85.86,1.11,1.08.77,2.49,1.03,2.92-.42.42-1.43.49-3.27-.1-4.56-.38-.83-2.22-1-3.42-1.44-.5-.19-1.02-.32-1.61-.51ZM13.63,339.5c2.96.02,3.41-1.77,3.05-3.83-.15-.87-1-2.17-1.7-2.28-2.91-.48-4.33.56-4.92,2.83-1.08.38-1.99.7-2.91,1.02.1.33.21.66.31.99,1.44-.23,2.9-.35,4.3-.72,1.81-.47,2.59-.12,1.86,1.97ZM50.9,278.24c-.42,2.72.14,3.36,2.52,3.21.75-.05,1.51.13,2.27.25.83.13,1.65.3,2.47.45,0-.93.11-1.89-.06-2.79-.12-.66-.45-1.55-.97-1.83-1.27-.7-2.7-1.1-4.33-1.72v2.27c-.73.06-1.34.11-1.91.16ZM437.17,225.27c.26.05.52.09.78.14,1.03.34,2.06.98,3.07.94,1.3-.05,2.59-.63,3.88-.99-.55-1.08-.84-2.46-1.7-3.16-1.29-1.06-2.97-1.63-4.86-2.61-.43,2.09-.8,3.88-1.17,5.68ZM328.46,364.15c1.5,2.46,5.29,5,7.78,4.54,2.81-.52-.67-3.13,1-4.29-.42-.4-.82-.82-1.26-1.2-.07-.06-.29.08-.45.09-2.34.29-4.69.57-7.07.86ZM20.71,391.81c-.05.18-.1.37-.15.55.71-.22,1.42-.6,2.14-.62,1.68-.04,1.69-1.3,1.2-2.08-.39-.63-1.61-.95-2.49-1.02-4.37-.35-5.73-2.16-3.44-5.86-1.57.39-2.64.66-4.27,1.06,2.11,1.98,3.33,3.72,1.25,5.88,2.01.73,3.88,1.41,5.75,2.09ZM34.53,479.7c2.72,5.78,3.12,6.14,5.14,4.97,2.19-1.27,2.64-5.01.68-7.88-.58,3.49-3.25,2.9-5.81,2.9ZM76.37,405.77c.75-1.63,1.89-3.35,2.22-5.21.16-.91-1.09-2.85-1.91-2.98-1.35-.21-2.88.67-4.33,1.09.58,1.2,1.1,2.42,1.74,3.58.57,1.03,1.28,1.99,2.28,3.52ZM369.4,356.93c-.17.16-.34.32-.51.49-1,0-2,.01-3,0-.79-.01-1.6-.2-2.35-.04-.51.11-1.28.65-1.31,1.05-.04.6.34,1.36.78,1.82.21.22.98-.14,1.5-.16.52-.02,1.1-.09,1.54.12,2.12,1,4.21,2.09,6.31,3.15l.6-.57c-1.18-1.95-2.37-3.9-3.55-5.85ZM335.43,418.61c.73,3.35,4.01,2.59,6.07,4.22.43-.85.84-1.65,1.24-2.45.85-.02,1.53-.35,2.05-.85.11-.11-.29-1.11-.63-1.24-1.32-.49-2.71-.8-4.16-1.19,0,0-.08.43-.19,1.04-.93-.54-1.64-.95-2.33-1.35-.75.66-1.38,1.22-2.06,1.82ZM351.53,384.21l-.25.9c2.08.65,4.15,1.36,6.25,1.9.6.15,1.32-.18,1.99-.28-.39-.7-.66-1.89-1.18-2-1.98-.43-2.72-1.8-3.41-3.43-.35-.83-1.01-1.54-1.62-2.43-.77.43-1.42.79-2.21,1.23.42.79.72,1.41,1.06,2.01.33.57.7,1.12,1.16,1.87-.8.11-1.31.18-1.81.24ZM433.33,170.39c.22.06.45.11.67.17.17-1.16.88-2.95.41-3.36-1.3-1.11-.31-2.2-.56-3.23-.04-.17-.33-.34-.54-.41-2.02-.73-3.96-.29-5.52.97-.48.39-.41,1.93-.06,2.71.24.52,1.51,1.03,2.12.86,2.47-.7,3.01-.44,3.47,2.29ZM372.17,315.1c-.09-.38-.18-.76-.27-1.14-1,.16-2,.37-3.01.45-.56.04-1.61-.06-1.64-.23-.5-3.01-2.8-1.33-4.34-1.92-.21,1.59-.48,2.98-.54,4.38-.02.52.31,1.4.67,1.51.56.18,1.68.07,1.88-.29,1.11-2,3.13-1.53,4.8-2,.82-.24,1.64-.5,2.45-.76ZM440.8,401.7c2,1.18,3.7,2.43,5.6,3.16.68.26,1.99-.55,2.74-1.19.43-.37.66-1.69.36-2.02-.6-.66-1.6-1.04-2.5-1.33-.63-.2-1.61.21-2.02-.14-2.1-1.76-2.77.15-4.19,1.52ZM345.99,434.52c.36,1.17.72,1.83.74,2.5.07,2.5,1.04,3.11,3.92,1.98-1.88-1-2.44-2.32-2.37-4.4.04-1.15-1.67-2.49-2.83-3.46-.32-.27-1.62.29-2.21.78-.38.32-.47,1.25-.34,1.83.26,1.2.75,2.35,1.26,3.85.55-.94,1.02-1.74,1.82-3.08ZM19.4,349.73c1.32-1.82,2.24-3.32.63-4.44-.96-.67-2.65-.81-3.83-.5-1,.26-1.75,1.51-2.61,2.32-.72-.51-1.45-1.04-2.18-1.56-.25.15-.49.3-.74.46.37.87.54,1.96,1.16,2.57,1.13,1.11,4.74,1,5.9,0-.19-.23-.55-.46-.55-.7,0-.59.15-1.18.23-1.78.39.4.88.75,1.15,1.22.32.58.45,1.26.83,2.42ZM446.82,230.92c-2.05-3.12-5.19-2.42-7.81-2.83-2.3-.36-3.27,1.57-4.71,3.79,1.21-.29,2.2-.27,2.32-.59.84-2.19,1.76-1.2,3.01-.36,2.18,1.48,4.52,1.54,7.2-.02ZM27.53,404.31q2.49-3.83-1.1-5.86c-.48-.27-.91-.65-1.41-.85-.57-.23-1.55-.63-1.74-.41-.56.62-1.06,1.51-1.1,2.31-.03.72.77,2.15.88,2.12,2.44-.69,3.19,1.49,4.48,2.69ZM306.88,294.07c-.23-1.73-.12-2.94-.59-3.85-.38-.73-1.45-1.53-2.22-1.54-1.19,0-2.42.54-3.55,1.05-.57.26-1.39,1.01-1.32,1.42.1.62.77,1.47,1.36,1.64,1.92.54,3.92.81,6.32,1.27ZM112.76,473.01c2.53,0,4.48-1.14,4.37-2.38-.1-1.1-2.97-3.18-4.41-3.08-1.79.12-2.76,1.31-2.77,2.95-.01,1.91,1.51,2.36,2.81,2.51ZM21.53,182.05c-1.63-1.73-3.08-3.11-4.34-4.65-1.76-2.15-1.93-2.17-3.06.39-.88,1.99-.07,4.4,1.69,4.51,1.73.11,3.47-.14,5.72-.25ZM140.9,408.19c.16-1.3.85-2.89.38-3.98-.74-1.72-2.32-3.05-4.55-2.54-.89.2-1.71.67-2.57,1.01.55.77.95,1.72,1.67,2.27,1.37,1.06,2.92,1.89,5.06,3.24ZM448.77,434.57c-.39,1.14-.6,1.75-.84,2.43,2.1-.16,2.89-1.39,2-3.09-.54-1.03-1.3-2.02-2.17-2.78-1.19-1.04-2.48-.93-3.5.39-.82,1.07-.37,3.9.77,4.79,1.54,1.2,1.76-.41,2.42-1.15.18-.2.52-.25,1.31-.59ZM323.95,382.39c-.14-.01-.29-.02-.43-.04.32.7.81,1.38.92,2.12.19,1.24.58,2.36,1.97,2.08,1.04-.21,2.33-.84,2.79-1.68.31-.58-.52-1.87-1.01-2.76-.53-.97-1.2-1.87-1.9-2.73-.29-.36-.84-.81-1.19-.75-.33.05-.7.7-.8,1.14-.2.85-.24,1.75-.34,2.63ZM50.15,337.86c-.38.2-.76.4-1.14.61.59,2.22,1.19,4.45,1.78,6.67.32-.03.63-.05.95-.08.33-.81.66-1.63,1.06-2.6,2.28,2.1,3.85-.47,6.2-.61q-2.99-1.77-6.95-1.21c-.64-.94-1.27-1.86-1.89-2.78ZM356.52,415.28c-2.91-5.07-5.85-5.68-9.02-1.58,1.1.24,2,.42,2.89.65.65.17,1.64.22,1.86.65,1.28,2.48,2.65,1.46,4.27.28ZM28.68,415.82c.66-.41,1.74-.72,1.83-1.21.17-.91.09-2.3-.49-2.81-.67-.6-1.98-.53-3.03-.63-.72-.07-1.47,0-2.19.14-.55.1-1.27.24-1.55.63-.37.51-.54,1.3-.45,1.91.04.26.98.4,1.53.55.83.22,1.69.37,2.51.62.58.18,1.12.48,1.83.8ZM28.47,383.56l-.68-.47c.26.87.52,1.75.93,3.11.61-.92.91-1.38,1.18-1.77,2.07,2.39,4.43.29,6.86.98-.67-1.84-1.17-3.31-1.78-4.73-.05-.12-.97,0-1.39.22-1.72.85-3.41,1.77-5.1,2.67ZM53.5,292.06c1.3.55,2.47.96,3.57,1.51,3.32,1.66,4.49,1.05,4.94-2.67-2.86-1.01-5.71-1.98-8.51,1.16ZM441.45,409.19c-1.76-3.92-2.79-4.57-5.97-3.44-.9.32-1.65,1.05-2.46,1.6,1.02.8,2.01,1.66,3.09,2.36.27.17.87-.23,1.32-.27,1.3-.11,2.6-.16,4.02-.24ZM135.13,398.82c.44-.45,1.52-1.06,1.57-1.74.12-1.63.74-3.71-1.17-4.66-.84-.42-2.25-.02-3.26.36-.56.21-1.3,1.41-1.13,1.74.36.7,1.32,1.06,1.92,1.68.62.63,1.11,1.38,2.07,2.63ZM63.08,284.69c.35,1.44,1.43,1.01,2.65.7.65-.17,1.71-.06,2.09.37.87.98,1.47,1.2,2.53.26.53-.47,1.41-.54,2.13-.8-.38-3.37-2.23-4.2-5.22-2.45-1.21.71-2.57,1.18-4.18,1.91ZM321.69,410.72c-.07.76-.43,1.64-.16,2.25.5,1.13,1.19,2.34,2.14,3.04.64.47,1.88.11,2.85.12-.26-1-.52-2.01-.78-3.01-.08-.3-.17-.6-.26-.9-.74-2.33-1.39-2.59-3.78-1.5ZM209.08,326.2c-.08-.27-.17-.64-.3-1-.89-2.46-3.88-3.52-6.03-2.05-.44.3-.87,1.43-.84,1.45,1.45.91,2.88,1.92,4.47,2.51.63.23,1.61-.5,2.71-.9ZM442.68,168.28c.96,3.81,1.13,3.99,4.08,5.24.21.09.36.37.57.4.71.11,2.03.32,2.07.18.33-1.11.59-2.3-1.02-2.86-.83-.29-1.53-.95-2.33-1.37-.94-.5-1.92-.91-3.37-1.59ZM129.4,431.21c-.98-.82-1.75-1.88-2.74-2.16-1.17-.34-2.62-.25-3.77.16-.36.13-.4,2.69-.15,2.77,1.74.55,3.59.81,5.42.97.3.03.68-.93,1.24-1.74ZM373.46,296.19c-.15.27-.29.53-.44.8-1.61-.65-3.21-1.3-5.15-2.08.42,1.74.64,3.51,1.31,5.09.4.95,1.45,1.77,2.6.47.92-1.04,1.88-2.06,3.11-3.4-.56-.61-1.45-1.61-2.35-2.6l-.45.43c.46.43.92.85,1.37,1.28ZM54.07,359.26c-1.86-.34-4,.02-3.71-2.64-.66.01-1.56-.25-1.94.08-1.21,1.07-.72,3.47.88,4.72.94.74,1.96,1.38,3.09,2.17.53-1.35,1.05-2.68,1.69-4.34ZM15,232.05c2.35-.43,3.02-.91,2.82-3.17-.08-.92-1.25-2.01-2.2-2.5-.91-.47-3.81,2.4-3.32,3.31.52.98,1.77,1.58,2.7,2.35ZM331.73,378.55c-.04.09.44-.54.29-.76-1.67-2.59-2.69-5.72-5.47-7.27-.24,1.9-.47,3.68-.68,5.38,1.69.76,3.54,1.6,5.86,2.65ZM65.84,367.07c-.22-1.21-.05-2.8-.76-3.53-.89-.92-2.5-1.15-3.8-1.68-.17,1-.66,2.08-.46,2.99.5,2.18,1.79,2.68,5.02,2.23ZM46.63,396.63c-.88.51-1.96.87-2.55,1.61-.27.33.37,1.46.7,2.18.36.79.77,1.57,1.29,2.25.36.48.95.78,1.43,1.16.22-.67.51-1.34.64-2.03.17-.88.03-1.84.34-2.65.67-1.73.23-2.42-1.84-2.53ZM41,406.83c-.16.24-.33.48-.49.71,1.4,2.01,5.43.28,6.01,3.98.96-1.24,1.66-2.35,1.7-3.48.02-.62-1.04-1.78-1.67-1.83-1.14-.09-2.34.47-3.51.76.04.17.08.35.12.52-.72-.22-1.44-.45-2.16-.67ZM292.11,181.92c-1.52-1.01-2.67-1.94-3.97-2.58-.66-.32-1.73-.42-2.34-.09-1.11.59-2.01,1.57-3.24,2.57.91.37,1.76,1.02,2.58.98,2.22-.12,4.43-.54,6.97-.88ZM62.54,270.29c-.88,2.41.29,3.8,1.68,4.87.59.45,1.78.38,2.6.17.5-.13,1.18-1.03,1.12-1.5-.09-.72-.59-1.67-1.19-1.99-1.28-.69-2.74-1.03-4.21-1.54ZM46.97,376.96q-.98-1.13-7.08-.53c.45,1.04.59,2.3,1.27,2.73,2.72,1.75,3.95-.88,5.81-2.2ZM364.3,334.15c.24,0,.47,0,.71,0,.32.77.63,1.54.95,2.32.18.02.36.04.54.06.34-1.01.68-2.01,1.11-3.27-1.82-.09-3.27-.44-4.57-.15-1.16.25-2.16,1.2-3.23,1.85.73,1.03,1.47,2.06,2.37,3.33.93-1.81,1.52-2.97,2.12-4.13ZM220.42,180.16c1.59,3.69,5.16,3.7,7.82.13-2.59-.97-5.18-1.58-7.82-.13ZM348,359.72c-1.91-.18-2.95-3.89-5.3-1.26-.98,1.09.12,3.54,2.1,4.27,2.64.97,1.9-2.14,3.2-3ZM408.62,12.59c.13-.74.32-1.78.54-3.04-1.54.1-3.26,1.37-2.66-1.79-1.66,1.94-2.92,3.31-4.06,4.78-.78,1-.34,1.62.86,1.65.61.02,1.23-.15,1.56-.2.2-.68.32-1.66.51-1.68.96-.06,1.93.13,3.25.26ZM441.03,194.22c.16.19.33.38.49.57.64-1.14,2.03-2.49,1.78-3.38-.74-2.58-3.35-1.84-5.92-2.45.37,1.19.42,2.13.9,2.73.77.96,1.82,1.69,2.75,2.52ZM11.25,362.21c-1.85,1.54-3.52,2.95-5.19,4.35.11.21.21.42.32.64h5.26q1.15-3.52-.39-4.98ZM361.59,366.28c.33.53.54,1.26,1.01,1.49.44.23,1.18.04,1.7-.17.16-.06.22-.9.03-1.21-.76-1.23-1.64-2.4-2.6-3.77-.46.65-.84,1.19-1.02,1.44-1.15.06-2.1.1-3.46.17q3.1,3.4,4.35,2.05ZM70.8,321.66c-4.75-1.88-6.23-1.85-7.22,1.27,1.13.24,2.39.24,3.35.77,2.35,1.29,3.02-.22,3.87-2.04ZM430.39,208.65c.42,3.72,3.24,4.54,7.31,1.97-2.37-1.19-4.26-3.59-7.31-1.97ZM72.78,347.3c.18-.23.37-.45.55-.68-.84-.58-1.61-1.36-2.53-1.7-2.14-.78-3.77.33-5.36,1.6,2.32,3.39,4.95.62,7.35.78ZM447.49,165.73c0,.24.01.48.02.72.86.13,1.93.63,2.54.3,1-.56,1.81-1.59,2.43-2.59.11-.18-.99-1.21-1.62-1.75-.65-.56-1.4-1.01-2.11-1.51.09,1.15.18,2.3.26,3.45.01.15,0,.31,0,.55-.5.27-1.01.55-1.52.83ZM22.59,280.72c2.83-.67,5.25-1.24,7.66-1.82-.02-.31-.03-.63-.05-.94-2.26-.48-4.51-.95-6.76-1.43-.31,1.5-.53,2.62-.85,4.19ZM431.62,190.36c-1.02.07-2.13.12-3.23.21-1.65.14-1.73.93-1.02,2.24.32.6.25,1.41.39,2.3.65.09,1.58.21,2.76.38.35-1.64.69-3.21,1.11-5.14ZM149.48,419.85c-1.55-1.03-2.49-1.98-3.59-2.24-.52-.13-2.03,1.42-1.94,1.59.63,1.17,1.56,2.18,2.4,3.24.84-.7,1.68-1.39,3.13-2.59ZM23.76,171.48c-.09-.18-.19-.36-.28-.54-.63.55-1.81,1.12-1.79,1.64.08,2.09,2.04,2.13,3.5,2.45.49.11,1.73-.79,1.67-1-.35-1.52-.68-3.31-3.11-2.55ZM72,454.3c-.58,1.01-.84,1.93-1.45,2.43-1.79,1.48-.64,2.13.46,2.87.97-.61,1.82-1.14,2.65-1.68.42-.27,1.19-.63,1.16-.87-.08-.63-.38-1.35-.83-1.79-.47-.45-1.23-.61-1.98-.96ZM443.39,445.34c-1.93.56-4.42-.58-4.79,2.39-.06.45,1.1,1.44,1.76,1.51,1.93.19,3-1.18,3.03-3.9ZM350.97,395.53c1.06.73,1.89,1.61,2.88,1.88.82.22,1.83-.27,2.75-.44-.16-.74-.1-1.67-.53-2.17-1.47-1.71-2.55-1.53-5.1.73ZM23.29,380.1c.33,1.25.42,2.06.78,2.73.19.37.92.76,1.26.66.38-.11.93-.95.82-1.18-.81-1.63.04-2.76.92-3.97.2-.27.14-1.01-.1-1.25-.24-.24-1.07-.34-1.23-.15-.94,1.06-1.75,2.24-2.44,3.15ZM86.58,433.3c-.24.16-.48.33-.72.49.28.71.35,1.71.87,2.09,1.41,1.03,3,1.79,4.79,2.81.15-.78.66-2.08.39-2.27-1.68-1.18-3.53-2.11-5.32-3.12ZM341.39,378.54c.26-.16.51-.32.77-.47-.46-1.3-.62-2.89-1.49-3.79-.49-.51-2.16.13-3.3.25.3.75.39,1.72.93,2.2.88.78,2.04,1.23,3.09,1.81ZM313.25,385.27c.16,2.68.26,4.92.5,7.15.02.19.96.28,1.47.42-.01-2.41-.01-4.83-.1-7.24,0-.09-.83-.16-1.87-.34ZM58.68,356.3c.33-.24.65-.48.98-.72-.7-1.36-1.26-2.83-2.19-4-.23-.29-1.71.28-2.51.67-.16.08-.03,1.43.35,1.76,1.01.89,2.23,1.54,3.37,2.29ZM352.75,457.92c-.74-2.49-2.73-3.37-4.43-4.5-.23-.15-.91-.03-1.03.17-.21.34-.26.89-.15,1.27.59,1.97,2.55,3.09,5.61,3.05ZM24.06,194.31c1.36-1.15,2.16-1.82,2.96-2.5-1.14-.71-2.23-1.54-3.45-2.04-.25-.1-1.53,1.15-1.42,1.55.24.91,1.03,1.68,1.92,2.99ZM251.09,313.68c-1.54-3.74-4.33-1.2-6.9-1.5,1.72,4.18,4.68.9,6.9,1.5ZM358.56,361.79c.41-.16.81-.33,1.22-.49-.38-2.05-.5-4.22-1.33-6.07-.21-.46-2.71.1-4.15.19-.15.33-.3.66-.45.98,4.14-.33,4.19,2.72,4.71,5.39ZM453.28,71.52c1.24,1.46,2.23,2.63,3.22,3.79.47-.6,1.46-1.54,1.33-1.75-.78-1.22-1.82-2.29-2.84-3.34-.04-.04-.79.6-1.71,1.3ZM447.11,381.93c-.09.25-.19.5-.28.76.72.8,1.38,1.67,2.18,2.36.48.42,1.4.93,1.77.74.58-.31,1.19-1.19,1.17-1.81-.02-.6-.7-1.53-1.27-1.71-1.12-.34-2.37-.25-3.56-.33ZM106.92,467.84c.7-1.17,1.21-1.66,1.3-2.23.32-1.93-.8-3.65-2.35-3.54-.51.04-1.46,1.11-1.36,1.36.54,1.33,1.35,2.56,2.41,4.41ZM286.92,292.51c.02.37.03.74.05,1.11,1.47.21,2.96.6,4.42.52.54-.03,1.03-1.14,1.55-1.76-.63-.36-1.31-1.09-1.88-1.02-1.4.19-2.75.74-4.13,1.15ZM374.6,448.54c0-2.03.08-3.51-.09-4.96-.03-.22-1.34-.62-1.8-.4-.84.39-1.49,1.19-2.06,1.68,1.4,1.31,2.39,2.23,3.95,3.69ZM346.97,340.3c-.41.64-.81,1.26-1.2,1.88.12.22.24.44.37.66l4.92-1.6c-2.22,0-1.84-4.42-4.97-2.85.33.71.61,1.32.89,1.92ZM37.26,393.8c-.26-.05-.51-.1-.77-.15-.21.48-.43.96-.84,1.89-.78-1.42-1.34-2.44-1.98-3.59-2.13,1.79-.78,3.23.3,4.28.58.56,1.9.37,2.88.52.13-.98.27-1.97.4-2.95ZM126.68,460.84c-1.23-.24-2.15-.46-3.09-.59-1.32-.19-2.12.46-1.7,1.72.23.69,1.24,1.64,1.83,1.59,1.54-.11,3.13-.62,2.96-2.72ZM136.52,455.52c-2.57-.92-4.45-.55-4.48.91-.01.74.91,2.02,1.58,2.14,2.11.38,2.3-1.48,2.9-3.05ZM14.36,288.59c.96-1.35,1.89-2.2,2.14-3.21.13-.53-.92-1.36-1.43-2.06-.82,1.02-1.73,1.99-2.39,3.12-.13.22.78,1.03,1.67,2.15ZM24.77,472.93c1.71-.15,3.18-.18,4.61-.44.48-.09.92-.73,1.23-1.22.1-.15-.23-.75-.5-.93-1.83-1.18-4.67.03-5.34,2.59ZM30.42,319.59c-1.12,3.28-3.08,2.29-5.08,1.26,1.25,3.25,2.01,3.61,4.66,2.52,1.99-.81,1.35-2.04.42-3.79ZM382.36,439.67l.43.53c.82-.3,1.63-.6,2.45-.9-.38-.77-.75-1.55-.9-1.86-.08-1.55-.14-2.7-.21-3.97-3.49,1.74-1,4.26-1.77,6.21ZM11.08,294.84c.47-.23.93-.45,1.4-.68.42-.96,1.05-1.89,1.15-2.88.04-.42-1.32-1.47-1.56-1.34-.93.51-2.15,1.26-2.34,2.13-.17.79.86,1.84,1.35,2.77ZM14.3,262.4c.26.09.53.18.79.28,0-1.16.35-2.48-.1-3.42-.4-.82-4.69.68-5.17,1.62,1.48.51,2.98,1.02,4.48,1.53ZM430.12,176.73c-.18.33-.37.66-.55.99.91.78,1.71,1.97,2.75,2.23,1,.25,2.23-.46,3.36-.75l-.09-1.18c-1.83-.43-3.65-.87-5.48-1.3ZM16.22,453.31c.79.19,1.54.59,2.2.48.56-.1,1.26-.71,1.45-1.25.46-1.29.65-2.67.96-4.05-1.56-.31-2.68.02-2.8,2.17-.04.73-.93,1.41-1.81,2.66ZM343.83,41.64c.33-1.82.62-3.35,1.03-5.6-2.07,1.21-3.43,2-5.1,2.97,1.21.78,2.39,1.55,4.06,2.63ZM316.19,429.54c-1.06,1.37-3.89-.11-3.26,2.69.18.78,1.87,2.01,2.18,1.83,1.49-.85,1.95-2.32,1.08-4.52ZM31.67,424.81c-.74-.31-1.42-.6-1.86-.79-.69,1.05-1.22,1.86-1.99,3.03,1.49-.26,2.81-.53,4.13-.72,2.16-.31,2.48-1.24.9-3.33-.4.61-.76,1.16-1.18,1.81ZM424.07,456.69c-.61.78-1.36,1.74-2.1,2.7,1.96-.82,4.88,2.21,6.28-1.42-1.59-.49-2.93-.9-4.17-1.28ZM27.61,256.92c.12-.52.24-1.04.36-1.56-1.28-.59-2.56-1.17-3.85-1.76-.14,1.01-.29,2.01-.43,3.02,1.31.1,2.61.2,3.92.29ZM444.6,218.63c1.53,1.05,2.38,1.97,3.38,2.18.51.11,1.88-1.13,1.82-1.63-.09-.77-1.04-1.93-1.72-2-.88-.09-1.86.72-3.48,1.46ZM23.49,237.99c1.29-.38,2.36-.57,3.32-1.02.42-.2.59-.91.87-1.38-1.31-.29-2.8-1.1-3.87-.72-1.21.43-1.31,1.98-.32,3.12ZM18.79,199.05c-1.06-1.18-1.72-1.92-2.38-2.66-.6.98-1.33,1.92-1.71,2.98-.09.26,1.02,1.38,1.42,1.3.8-.15,1.49-.86,2.67-1.62ZM140.44,365.43c-1.2-1.32-3.59-1.73-4.7-.66-.26.25-.15,1.32.16,1.63,1.28,1.27,2.88.88,4.54-.97ZM185.67,192.37c1.97-.52,3.7-.98,5.43-1.44-.08-.4-.16-.81-.24-1.21-2.14.14-4.29.27-6.79.43.7.98,1.1,1.54,1.59,2.22ZM28.74,354.98c1.39-.11,2.69-.02,3.86-.38.65-.2,1.16-1.1,1.51-1.79.09-.17-.67-1.03-1.14-1.16-1.01-.28-3.88,2.08-4.22,3.33ZM464.9,110.84c1.47.96,2.52,1.73,3.67,2.3.15.07,1.26-1.26,1.18-1.36-.79-1-1.66-1.96-2.68-2.69-.17-.12-1.17.93-2.16,1.75ZM427.47,465.59c-1.32-1.78-2.62-1.82-3.92-.92-1.19.82-1.52,1.93-.17,3.33,1.28-.75,2.57-1.52,4.09-2.41ZM34.12,292.52l.44-.93c-1.16-.73-2.33-1.45-3.49-2.18-.28.9-1.05,2.05-.74,2.65.93,1.8,2.46.84,3.79.46ZM37.96,440.35c.42-.19.84-.38,1.26-.56-.17-1.04-.02-2.37-.62-3.03-.58-.65-1.92-.62-2.93-.89-.2.31-.4.62-.6.94.96,1.18,1.93,2.36,2.89,3.54ZM69.29,336.84c0-.17.01-.34.02-.52-.9-.71-1.71-1.63-2.73-2.05-.7-.28-1.68.16-2.54.28.46.76.78,2,1.41,2.18,1.18.35,2.55.1,3.83.1ZM367.95,433.33c-1.99-1.28-3.98-2.56-6-3.87-.59,2.63,1.25,4.05,6,3.87ZM431.5,397.85c2.23.3,3.74.5,5.29.71-.21-1.61-2.57-3.57-3.88-3.08-.61.23-.87,1.41-1.41,2.37ZM21.08,211.29c1,.99,1.61,1.92,2.44,2.24.36.14,1.21-.99,1.83-1.54-.77-.77-1.49-1.61-2.37-2.23-.15-.1-.99.78-1.9,1.54ZM17.95,324.61c-3.6-1.5-4.85-1.29-6.02,1.21h1.85c-.18.75-.32,1.32-.41,1.69,1.49-.94,3-1.9,4.57-2.9ZM309.61,181.82c2.17-1.67,1.12-3.72,1.54-5.67-3.04,1.05-3.31,2.1-1.54,5.67ZM437,249.46c1.3,1.61,4.4,1.88,5.9.33.27-.27.49-.93.34-1.18-.16-.28-.81-.49-1.18-.41-1.68.35-3.34.82-5.07,1.26ZM360.86,444.74c1.26,3.22,3.14,3.66,6.34,1.34-2.39-.51-4.18-.88-6.34-1.34ZM15.69,483.95c.82.33,1.63.76,2.48.97.98.24,2,.3,3.01.43.09-2.44-2.55-3.49-5.49-1.39ZM139.18,447.22c-.78,1.14-1.72,1.97-1.56,2.39.29.78,1.21,1.32,1.87,1.97.53-.76,1.29-1.46,1.49-2.29.1-.39-.88-1.04-1.81-2.06ZM27.17,482.31c-.91.86-1.78,1.31-1.96,1.95-.21.73-.09,1.99.39,2.36.55.42,1.65.1,2.61.1-.41-1.75-.73-3.09-1.04-4.41ZM14.19,275.63v-7.24c-2.11,2.03-2.11,5.9,0,7.24ZM15.37,244.87c1.79-1,2.72-4.2,1.73-5.09-.26-.23-1.63.19-1.65.39-.15,1.48-.08,2.98-.08,4.7ZM34.16,361.9c-.33-.04-.66-.07-.99-.11-.28,1.42-.56,2.84-.84,4.26.69-.09,1.59.06,2.02-.32,1.5-1.32.68-2.62-.19-3.83ZM301.36,184.04c1.08,2.06,2.44,1.22,3.58.78.54-.21.88-.96,1.31-1.47-.72-.31-1.5-.97-2.13-.84-.93.19-1.74.93-2.76,1.53ZM319.32,394.21c.59-1.5,1.03-2.42,1.3-3.39.12-.44.07-1.28-.18-1.41-.65-.35-1.46-.51-2.21-.53-.23,0-.77.78-.68,1.03.48,1.38,1.1,2.72,1.78,4.3ZM387.54,6.46q-5.12,1.54-2.29,4.43c-.86-2.72,3.47-1.43,2.29-4.43ZM128.54,442.17c-.42.27-.84.54-1.25.8.45,1.23.9,2.46,1.35,3.7.62-.7,1.81-1.48,1.72-2.07-.13-.88-1.17-1.62-1.82-2.42ZM346.77,444.15l-.02,1.69c1.31-2.82,1.39-.95,1.96-.67.77.38,1.68.56,2.55.62.19.01.44-.83.66-1.27-1-.38-1.98-.93-3.02-1.07-.67-.09-1.42.45-2.13.7ZM322.33,460.52c-.24-.02-.48-.03-.72-.05.17,1.88.34,3.76.52,5.64.37.06.74.11,1.11.17.34-.83,1.1-1.76.92-2.45-.3-1.18-1.19-2.21-1.83-3.3ZM14.12,478.59c.1.33.2.65.29.98,1.82-.24,3.64-.44,5.43-.79.26-.05.37-.84.56-1.29-.5-.15-1.03-.49-1.5-.42-1.12.17-2.22.5-3.31.83-.51.16-.98.46-1.47.69ZM72.62,267.63c.33-.15.67-.31,1-.46-.55-1.29-1.1-2.58-1.65-3.87-.5.37-1.36.66-1.45,1.11-.35,1.72.47,2.81,2.1,3.22ZM29.1,376.42c2.49-2.46,2.24-5,0-6.07v6.07ZM456.78,138.46c-.71-1.12-1.19-1.99-1.78-2.77-.28-.37-.76-.57-1.16-.85-.24.5-.75,1.04-.68,1.5.16,1.03.6,2.02.99,3.22.92-.39,1.68-.7,2.63-1.1ZM455.92,195.91c-1.14.76-1.94,1.3-2.74,1.83.89.68,1.77,1.35,2.66,2.03.43-.64,1.1-1.23,1.22-1.92.08-.48-.6-1.08-1.14-1.94ZM18.76,160.66c-.11.34-.22.67-.33,1.01,1.14.5,2.24,1.11,3.43,1.41.3.08.98-.78,1.22-1.32.08-.17-.67-.98-1.11-1.05-1.05-.16-2.14-.05-3.21-.05ZM139.34,359.87c1.26.85,2.3,2.15,3.86.92.29-.23.26-1.54-.04-1.75-1.37-.96-2.7-.85-3.81.84ZM93.47,473.66c.33-.06.67-.13,1-.19-.19-1.2-.38-2.41-.56-3.61-.66.18-1.65.14-1.93.56-1.2,1.84.79,2.25,1.49,3.24ZM47.86,444.7c-1.48,0-2.61-.32-3.03.09-.42.41-.28,1.58-.12,2.36.08.39.74.66,1.14.98.55-.95,1.11-1.9,2-3.43ZM393.56,392c.49-1.08,1.02-1.71.87-2.03-.42-.91-1.12-1.68-1.71-2.51-.39.69-1.17,1.45-1.08,2.07.11.73.98,1.34,1.92,2.47ZM178.58,326.47c.06.33.12.66.18.99,1.31-.2,2.63-.4,3.94-.6-.3-.57-.45-1.4-.92-1.68-1.58-.93-2.43.17-3.19,1.29ZM444.02,454.84c.85-1.02,1.87-1.75,1.76-2.21-.17-.71-1.12-1.22-1.73-1.82-.52.58-1.39,1.12-1.45,1.74-.06.59.74,1.26,1.43,2.29ZM50.61,331.14c.24-.03.48-.07.72-.1.24-.65.82-1.45.63-1.93-.33-.79-1.16-1.37-1.78-2.04-.32.55-.99,1.19-.88,1.64.2.87.85,1.63,1.31,2.43ZM447.63,198.57c1.52.8,2.82,1.31,4.11-.02.2-.21.06-1.18-.22-1.36-1.48-.98-2.66-.43-3.89,1.38ZM426.78,250.46c.42-.15.84-.31,1.25-.46-.09-1.02-.18-2.03-.27-3.05-.92.35-1.84.71-2.76,1.06.59.82,1.19,1.63,1.78,2.45ZM387.07,299.78c-.2.02-.39.05-.59.07,0,1.44-.09,2.89.06,4.31.04.39.83.7,1.27,1.05.2-.45.64-.96.55-1.33-.34-1.39-.85-2.74-1.29-4.1ZM433,201.33c1.18-.75,2.31-1.16,2.28-1.5-.09-1.16-.57-2.28-.91-3.42-.28.05-.56.09-.83.14-.15,1.32-.3,2.64-.54,4.78ZM131.05,413.04c-.05.28-.1.56-.15.84.9.43,1.81.86,2.71,1.29.4-.93.81-1.86,1.21-2.79-.2-.13-.4-.26-.6-.4-1.06.35-2.12.7-3.18,1.05ZM395.58,358.69c-1.19-1.78-2.68-1.85-4.23-1.64-.19.03-.31.6-.46.91,1.17.37,2.33.77,3.51,1.09.24.06.56-.16,1.18-.36ZM342.13,348.84l-.67-.05c-.6-1.17-1.2-2.35-1.8-3.52-.23.05-.46.1-.69.15,0,.87-.34,2.19.07,2.5.8.61,2.04.64,3.09.92ZM18.16,209.05c-1.41.88-2.26,1.42-3.11,1.95.88.66,1.76,1.31,3.11,2.32v-4.27ZM224.66,186.51c-.06.34-.13.69-.19,1.03.97.11,1.97.4,2.9.26.71-.1,1.34-.74,2-1.14-.13-.29-.25-.59-.38-.88-1.44.24-2.89.48-4.33.72ZM437.66,359.33c.83,1.08,1.34,1.74,1.83,2.38,1.16-.52,2.12-.95,3.3-1.47-1.4-1.9-3.07-.83-5.13-.91ZM367.5,452.68c.18-.11.36-.21.53-.32-.46-.93-.75-2.02-1.45-2.7-.34-.33-1.44.12-2.2.22.28.56.42,1.29.86,1.65.64.52,1.49.78,2.25,1.16ZM27.15,225.23l.36-.73c-.85-.53-1.67-1.35-2.58-1.46-.44-.05-1.05,1.21-1.58,1.88.16.17.31.33.47.5l3.32-.19ZM178.12,196.73c-1.78.09-3.3.16-5.31.25,3.24,2.44,4.41,2.37,5.31-.25ZM58.57,445.1c-.01-.34-.03-.68-.04-1.03-1.06.05-2.12.1-3.19.15.08.61-.06,1.53.28,1.79,1.33,1,2.24.19,2.95-.92ZM369.72,304.81c.88-.63,1.48-1.07,2.08-1.5-.68-.4-1.34-1.08-2.04-1.12-.56-.03-1.15.73-1.73,1.14.48.42.96.84,1.69,1.48ZM425.18,196.99c0,.28,0,.56-.01.84.57.61,1.14,1.22,1.7,1.83.23-.02.47-.04.7-.05.15-1.02.29-2.03.44-3.05-.95.14-1.89.29-2.84.43ZM450.28,321.6c.83-.89,1.48-1.58,2.07-2.32.02-.02-.72-.84-.84-.77-.97.51-1.88,1.15-2.81,1.75.43.36.85.72,1.59,1.34ZM438.08,234.5c-.78.83-1.47,1.58-2.25,2.4.67,1.14,1.75,1.63,2.95.48,1.32-1.26.06-2.03-.7-2.88ZM388.1,382.43c-.39.25-.78.51-1.17.76.44.9.89,1.8,1.33,2.69.55-.46,1.1-.91,1.65-1.37-.6-.7-1.21-1.39-1.81-2.09ZM27.13,395c0-1.33.07-2.43-.06-3.51-.02-.19-1.08-.55-1.3-.38-1,.78-.43,2.94,1.36,3.89ZM346.34,369.49c-.39,1.85-1.36,3.25.4,5.19.44-1.99,1.73-3.34-.4-5.19ZM385.78,415.78c-.18.12-.36.25-.53.37,0,.9-.25,1.9.05,2.68.65,1.64,1.9,1.21,2.08-.09.12-.89-1.02-1.96-1.6-2.96ZM172.47,192.21c1.23,1.06,2.17,1.88,3.37,2.9.1-1.42.17-2.5.25-3.65-1.25.26-2.18.45-3.62.75ZM16.72,270.96c-.31.05-.62.1-.93.15-1.06,1.47-.91,2.68.48,3.62.3-.05.6-.11.9-.16-.15-1.2-.3-2.4-.45-3.61ZM138.16,416.97c-.12.6-.37,1.07-.23,1.3.49.82,1.08,1.59,1.72,2.3.08.09.64-.26.99-.4-.4-.76-.75-1.56-1.22-2.28-.23-.35-.7-.53-1.25-.92ZM166.57,205.94c3.59-.47,2.48-2.21,2.24-3.62-.23-.09-.46-.18-.7-.28-.45,1.13-.9,2.27-1.54,3.9ZM312.75,113.42c-2.66-1.77-3.53-1.53-4.59,1.04,1.49-.34,2.78-.63,4.59-1.04ZM324.88,400.77c.83.68,1.41,1.38,1.61,1.28.69-.34,1.25-.95,1.85-1.46-.43-.35-.89-1.02-1.3-.99-.6.05-1.16.59-2.17,1.17ZM386.76,388.6c-.17.16-.35.32-.52.48.17.45.35.9.57,1.47h-2.23c0,.21,0,.42-.01.62h3.75c.13-.17.25-.35.38-.52l-1.93-2.06ZM393.31,482.64c-1.4.08-2.37-2.11-3.9-.29,1.91,2.08,2.42,2.14,3.9.29ZM450.2,458.51c-.04-.79-.08-1.48-.11-2.17-1.19.37-2.39.73-3.58,1.1.07.23.14.47.21.7,1.04.11,2.08.22,3.49.37ZM143.23,349.62c.68-1,1.46-1.74,1.32-2.02-.3-.6-1.03-1.06-1.68-1.38-.17-.08-1.04.67-.99.84.24.74.7,1.4,1.34,2.56ZM343.97,387.44c.18,1.62.33,3.02.49,4.5,2.28-3.04,2.22-3.73-.49-4.5ZM13.87,448.8c1.13-1.22,1.74-1.87,2.57-2.76-1.06-.54-1.76-.9-2.91-1.48.12,1.49.19,2.48.33,4.24ZM213.7,319.64c-.4-.03-.79-.06-1.19-.09-.15,1.03-.3,2.06-.45,3.08.55-.11,1.52-.14,1.57-.36.19-.84.08-1.75.08-2.64ZM360.11,394.64c-2.25-.11-1.45,1.64-1.47,2.65,0,.38,1.07.78,1.96,1.37-.21-1.69-.34-2.76-.49-4.01ZM349.6,64.03c2.74-1.55,2.81-1.96.74-4.11-.27,1.49-.47,2.59-.74,4.11ZM344.72,347.74c-.27-.06-.55-.12-.82-.18-.28.88-.78,1.78-.73,2.65.02.41,1.1.76,2.3,1.51-.34-1.81-.54-2.89-.74-3.97ZM337.01,85.22c-.09-.37-.18-.74-.27-1.11-.76.11-1.69,0-2.21.42-.39.3-.24,1.29-.33,1.97.94-.42,1.88-.85,2.81-1.27ZM438.36,439.26l-.58.92c1.1.69,2.2,1.39,3.3,2.08.18-.31.53-.87.5-.89-1.05-.74-2.14-1.42-3.22-2.11ZM34.28,459.59c.44-.9.94-1.49.81-1.74-.33-.62-.94-1.09-1.44-1.63-.34.34-1.04.85-.97,1,.32.71.86,1.32,1.6,2.36ZM130.64,386.45c.75-.83,1.49-1.65,2.58-2.85-2.52-.14-3.53.46-2.58,2.85ZM10.58,385.66c.54-.77,1.17-1.51,1.09-1.59-.48-.53-1.09-1-1.74-1.29-.16-.07-1,.8-.94.91.34.6.85,1.11,1.59,1.98ZM399.34,341.45c-.95-.77-1.45-1.35-2.08-1.6-.24-.1-.78.54-1.18.84.51.49.96,1.09,1.56,1.43.24.14.81-.29,1.7-.66ZM434.03,366.62c-.03-.34-.06-.67-.1-1.01h-3.1c.17.45.32,1.27.51,1.28.89.03,1.79-.16,2.68-.27ZM464.54,79.62c.61-.85,1.26-1.37,1.18-1.74-.11-.53-.76-.95-1.18-1.42-.39.36-1.12.75-1.1,1.08.04.57.55,1.12,1.1,2.08ZM40.53,386.41c-.43.12-.86.24-1.29.35.34,1.13.69,2.26,1.03,3.39.36-.1.72-.2,1.09-.29-.28-1.15-.55-2.3-.83-3.45ZM45.57,356.08c-.35.12-.71.24-1.06.37.27.82.46,1.68.86,2.42.09.17.9-.04,1.37-.07-.39-.91-.78-1.81-1.17-2.72ZM447.42,185.49c.16-.25.32-.49.48-.74-.92-.46-1.84-.91-3.05-1.51-.19.84-.32,1.43-.47,2.08,1.21.07,2.12.12,3.04.17ZM386.59,407.42c.19-.19.38-.38.57-.56-.36-.62-.58-1.56-1.1-1.78-.5-.22-1.32.3-1.99.5,0,.2-.02.41-.03.61.85.41,1.71.83,2.56,1.24ZM208.27,318.85c1.25-.5,2.28-.91,3.62-1.45-2.73-1.29-2.98-1.18-3.62,1.45ZM424.27,185.48c.7-.74,1.26-1.21,1.62-1.8.07-.12-.77-1.03-.86-.98-.63.36-1.23.83-1.71,1.37-.08.09.48.73.95,1.41ZM317.75,425.68c.77.47,1.32,1.01,1.54.89.53-.26,1.03-.78,1.27-1.31.1-.21-.52-.74-.81-1.13-.56.43-1.12.86-2,1.54ZM59.59,322.62c.4,0,.79-.01,1.19-.02,0-.71.14-1.47-.08-2.11-.07-.22-1.02-.16-1.56-.23.15.79.3,1.58.45,2.36ZM372.78,463.74c-.66-.61-1.03-1.14-1.51-1.3-.22-.07-1.03.67-.97.87.15.53.56,1.07,1.02,1.39.13.1.76-.49,1.47-.97ZM356.09,353.59c-.05-.44-.1-.87-.15-1.31-.99.19-1.98.38-2.96.57.06.34.11.68.17,1.03.98-.1,1.96-.19,2.94-.29ZM427.2,156.16c.52-.68,1.02-1.08,1.11-1.57.05-.27-.78-1.01-.88-.95-.53.3-1.01.75-1.37,1.25-.06.08.59.66,1.14,1.27ZM362.98,303.89c.09.99.17,1.79.28,2.97.92-1.18,1.64-2.1,2.34-2.99-.34-.3-.41-.41-.45-.4-.68.12-1.35.26-2.17.42Z"/>
  <path class="cls-1" d="M261.01,164.07c-.43,2.38-.78,4.32-1.21,6.69-.95-.8-2.06-1.73-3.17-2.67-.19.17-.38.34-.57.52.15.64.31,1.28.55,2.28-.85,0-2.01.33-2.33-.05-2.33-2.73-4.88-3.45-8.01-1.44-.09.06-.29-.05-.44-.09.36-1.79,1.6-2.77,3.5-2.95,1.61-.15,3.24-.28,4.79-.71,2.73-.77,2.71-.86,4.27,1.25.87-.94,1.73-1.87,2.62-2.83Z"/>
  <path class="cls-1" d="M464.65,463.53c.19-.78.33-1.35.46-1.9.24-.02.41-.08.55-.04,2.76.73,1.05,2.55.76,3.79-.41,1.76-1.43.78-2.26.17-.18-.13-.48-.27-.65-.21-3.04,1.11-5.09-1.4-7.61-2.13-.65-.19-1.03-1.32-1.53-2.02.79-.11,1.58-.23,2.37-.31,2.44-.25,4.49.55,6.25,2.25.29.28.89.23,1.66.4Z"/>
  <path class="cls-1" d="M449.64,274.68c1.39.71,2.87,1.08,3.75,2.02.67.72,1.14,2.5.71,3.18-.84,1.31-2.39,2.11-4,.67-.58-.52-1.2-1.03-1.68-1.64-.62-.79-1.13-1.66-1.69-2.5.84-.5,1.68-1,2.9-1.73Z"/>
  <path class="cls-1" d="M44.76,486.41c1.13.45,2.27.91,3.4,1.36.2-.18.4-.36.6-.54.22,1.35.58,2.7.64,4.06.14,2.88-.29,3.15-3.17,3.03-.96-.04-1.94.41-2.91.63,0,0,.03.02.03.02.1-.88-.11-2.02.36-2.61,1.28-1.6,2.29-3.06.88-5.08-.12-.17.11-.59.18-.9l-.02.02Z"/>
  <path class="cls-1" d="M148.51,449.03c1.19-1.6,3.04-1.72,4.83-.44,1.68,1.2,1.62,2.89.45,4.55-.17.24-.07.65-.23.9-.34.54-.76,1.02-1.14,1.53-.48-.47-1.11-.86-1.41-1.43-.86-1.59-1.59-3.24-2.49-5.11Z"/>
  <path class="cls-1" d="M53.32,461.49c.29-.8.63-1.72,1.04-2.85.85.46,1.55.77,2.17,1.19,1.15.79,2.23,1.35,3.7.57.4-.21,1.25.41,1.89.65-.45.9-.89,1.8-1.34,2.7-2.3-1.24-5.48,1.02-7.46-2.25Z"/>
  <path class="cls-1" d="M453.48,246.77c1.21-1.71,2.34-3.25,4.78-1.3.81.64,2.22.55,3.37.74.63.11,1.27.12,1.9.17-.2.63-.4,1.27-.62,1.9-.1.29-.22.57-.44,1.11-.69-.36-1.25-.77-1.88-.96-1.11-.32-2.25-.6-3.4-.71-1.2-.12-2.42-.03-3.64-.03-.02-.31-.05-.61-.07-.92Z"/>
  <path class="cls-1" d="M428.84,479.11c-1.13,2.46-2.57,3.18-4.96,2.65-.75-.17-1.69.09-2.29-.28-.68-.41-1.07-1.29-1.58-1.97.59-.32,1.19-.92,1.76-.9,1.67.07,3.32.41,4.99.59.63.06,1.28-.05,2.08-.09Z"/>
  <path class="cls-1" d="M448.48,472.08c-2.28-1.06-4.61-2.14-7.36-3.42,2.48-.54,4.77-1.03,6.38-1.38.82,1.38,1.43,2.42,2.05,3.46.41-.41.83-.82,1.24-1.23-.78.86-1.56,1.73-2.31,2.57Z"/>
  <path class="cls-1" d="M148.53,459.78c2.44-2.63,4.12-3,5.79-1.32.72.72,1.52,1.42.27,2.5-2.28,1.96-3.52,1.79-6.06-1.18Z"/>
  <path class="cls-1" d="M124.6,486.2c1.57-.92,2.95-1.98,4.5-2.57,1.05-.4,2.35-.19,3.52-.1.15.01.49,1.09.3,1.39-.26.41-.98.79-1.44.73-.81-.11-1.57-.57-2.61-.99-.36,2.75-2.03,3.86-4.39,3.17-1.21-.35-2.5-1.48-1.35-3.42.53.65.99,1.21,1.47,1.79Z"/>
  <path class="cls-1" d="M303.73,153.26c-.71.55-1.42,1.55-2.14,1.56-2.17,0-3.19.98-3.5,3.01-.04.28-.52.49-.8.74-2.42-2.87-1.95-4.66,1.47-5.45,1.5-.34,3.09-.27,4.64-.39.11.18.22.35.34.53Z"/>
  <path class="cls-1" d="M154.63,466.02c2.44,1.61,1.35,3.47,1.04,5.09-.44,2.33-2.5,1.73-4.53,1.74,1.12-2.19,2.24-4.39,3.48-6.83Z"/>
  <path class="cls-1" d="M458.77,478.98c1.83-2.24,4.03-2.41,7.32-.69-1.54,2.46-5.44,2.89-7.32.69Z"/>
  <path class="cls-1" d="M391.4,497.61c.98,2.14-.04,2.51-1.75,2.37-1.35-.12-2.72-.05-4.06-.24-.36-.05-.81-.69-.9-1.12-.07-.32.35-1.01.63-1.06.44-.07,1.12.12,1.38.46,1.09,1.38,1.71,1.14,2.57-.3,1.11-1.85,2.75-1.26,4.9-.3-1.17.09-1.78.13-2.77.2Z"/>
  <path class="cls-1" d="M263.42,165.68c2.55-.79,5.28-1.65,8.39-2.62-.64,1.18-.93,2.39-1.69,2.91-.88.6-2.19.83-3.28.76-1.21-.09-2.38-.7-3.43-1.04Z"/>
  <path class="cls-1" d="M277.85,159.03c-.62,1.1-3.69,1.2-.92,3.37-.88.06-1.57.33-1.92.09-.78-.52-1.38-1.29-2.06-1.95.77-.5,1.48-1.18,2.33-1.46.74-.25,1.63-.05,2.56-.05Z"/>
  <path class="cls-1" d="M452.76,475.53c-1.4.35-1.69,3.21-3.75,1.33-.38-.35-.5-1.57-.2-1.96,1.27-1.63,2.55-.96,3.94.63Z"/>
  <path class="cls-1" d="M389.64,492.24c-1.01,2.04-2.47,1.06-3.62.58-.39-.17-.35-1.37-.5-2.09.62-.03,1.32-.25,1.84-.04.77.31,1.4.94,2.28,1.56Z"/>
  <path class="cls-1" d="M453.97,467.4c1.52-.76,2.75-.71,3.3.93.12.35-.52,1.29-.96,1.42-1.86.54-2.25-.7-2.34-2.35Z"/>
  <path class="cls-1" d="M458.56,359.52c1.53-1.1,2.78-2.01,4.04-2.91.22.19.43.38.65.57-.31.55-.76,1.6-.9,1.56-1.4-.4-1.66,3.04-3.79.78Z"/>
  <path class="cls-1" d="M294.93,158.75c-1.74,2.51-4.27.18-6.39.46,2.07-.41,4.13-.83,6.2-1.24l.19.78Z"/>
  <path class="cls-1" d="M460.33,471.52v-3.48c.2-.15.4-.3.6-.45.72.72,1.44,1.44,2.15,2.16-.77.49-1.54.98-2.76,1.76Z"/>
  <path class="cls-1" d="M300.96,156.55c.1.85.59,1.99.21,2.48-.47.62-1.64.72-2.93,1.2.88-1.65,1.45-2.72,2.02-3.79.23.04.47.07.7.11Z"/>
  <path class="cls-1" d="M87.27,484.37c-.47-.81-.94-1.62-1.41-2.44.52-.2,1.42-.66,1.5-.56.49.72.81,1.56,1.18,2.36-.42.21-.84.42-1.27.64Z"/>
  <path class="cls-1" d="M465.84,469.29c.4,1.56,3.06,1.84,1.97,4.77-1.1-1.67-1.98-2.98-2.85-4.3.29-.15.59-.31.88-.46Z"/>
  <path class="cls-1" d="M466.54,315.02c-.66-.4-1.57-.66-1.89-1.24-.25-.45.25-1.31.41-1.98.22-.03.44-.05.66-.08.47.88.94,1.77,1.41,2.65-.2.21-.4.43-.59.64Z"/>
  <path class="cls-1" d="M131.39,494.36c-.3-1-.56-1.86-.92-3.09,1.37.67,2.49,1.21,4.3,2.09-1.6.47-2.52.75-3.38,1Z"/>
  <path class="cls-1" d="M436.18,476.4c-.38-1.36-.65-2.3-.99-3.5,1.1.14,1.96.24,3.26.4-.77,1.05-1.42,1.94-2.27,3.1Z"/>
  <path class="cls-1" d="M149.21,454.42c.09.85.22,1.69.21,2.54,0,.12-.73.22-1.13.33-.12-.9-.25-1.8-.37-2.7.43-.06.86-.12,1.3-.18Z"/>
  <path class="cls-1" d="M312.87,478.22c-.66-1.03-1.31-2.05-1.97-3.08.32-.2.64-.4.96-.6.62,1.05,1.25,2.09,1.87,3.14-.29.18-.57.36-.86.54Z"/>
  <path class="cls-1" d="M383.16,489.83c.33,1.1.67,2.2,1,3.3-.28.1-.55.21-.83.31-.46-1.04-.92-2.09-1.38-3.13.4-.16.81-.32,1.21-.48Z"/>
  <path class="cls-1" d="M408.04,477.05c-1.31-.15-2.09-.23-3.42-.38.86-1.02,1.37-1.62,2.15-2.55.46,1.06.77,1.77,1.27,2.93Z"/>
  <path class="cls-1" d="M445.02,462.29c.45,2.93.21,3.25-2.07,3.25.65-1.02,1.18-1.85,2.07-3.25Z"/>
  <path class="cls-1" d="M18.84,369.52h4.7c-1.57,1.55-3.75,1.51-4.7,0Z"/>
</svg>