<?xml version="1.0" encoding="UTF-8"?>
<svg id="Layer_1" data-name="Layer 1" xmlns="http://www.w3.org/2000/svg" viewBox="0 0 362.22 500">
  <defs>
    <style>
      .cls-1 {
        fill: #000;
        stroke-width: 0px;
      }
    </style>
  </defs>
  <path class="cls-1" d="M227.78,482.73c.55.71.77,1,1.15,1.49-.86,0-1.56.05-2.25,0-5.17-.42-10.33-.9-15.5-1.29-3.18-.24-6.37-.42-9.56-.55-6.63-.26-13.2-1.07-19.74-2.16-2.84-.47-5.69-.83-8.53-1.3-1.31-.22-2.6-.59-3.89-.89l.04-.49c.39-.04.8-.17,1.17-.1,5.43.92,10.84,2.02,16.29,2.76,4.42.6,8.89.83,13.34,1.15,4.53.33,9.06.58,13.59.86.46.03.93.04,1.6.07-1.44-.87-2.93-1.21-5.49-1.33-3.47-.17-6.95-.49-10.42-.45-3.71.04-7.31-.61-10.93-1.22-2.59-.43-5.21-.71-7.8-1.12-.77-.12-1.5-.48-2.25-.72-.37-.12-.79-.41-1.1-.32-2.26.66-4.42-.13-6.62-.36-3.79-.4-7.57-.89-11.36-1.33-.3-.03-.61.07-1.06.12.13.53.24.96.35,1.39-.12.09-.25.26-.37.26-6.65-.02-13.2-1.03-19.77-1.87-2.14-.27-4.29-.37-6.44-.6-5.16-.54-10.34-.91-15.46-1.72-8.12-1.28-16.17-2.97-24.29-4.3-7.16-1.17-14.31-2.42-21.6-2.74-3.98-.17-7.93-.83-11.9-1.2-3.02-.28-6.06-.32-9.07-.65-6.75-.75-13.53-.81-20.31-1.04-5.97-.2-11.95-.64-17.8-2.08-2.78-.68-5.65-1.01-8.49-1.44-2.86-.44-3.59-2.54-3.24-4.7.55-3.34.16-6.66.03-9.99-.03-.86.2-1.73.39-2.58.38-1.7,1.01-3.37.39-5.16-.12-.34-.06-.83.11-1.15.95-1.74,1.95-3.45,2.95-5.17.27-.48.68-.91.83-1.42.29-.98.53-1.73,1.87-1.73.49,0,1.4-1.04,1.39-1.6-.06-3.81,2.42-6.52,4-9.59,1.35-2.62,2.81-5.22,4.54-7.6,1.94-2.67,2.71-5.87,4.45-8.61,1.26-1.99,1.9-4.38,4-5.8.23-.16.4-.54.42-.83.1-1.16.16-2.32,1.38-2.95,1.73-6.27,5.24-11.78,7.66-17.75,4.08-10.07,8.33-20.07,12.31-30.17,2.25-5.71,4.1-11.58,6.15-17.37.34-.97.74-1.93,1.2-2.86.73-1.51,1.24-3.01,1.38-4.75.17-2.12.91-4.2,1.5-6.27,1.43-4.98,2.89-9.95,4.38-14.92.3-.99.75-1.93,1.18-2.87,1.09-2.36,1.58-4.77,1.37-7.42-.11-1.43.47-2.95.87-4.38.84-2.98,1.76-5.93,2.67-8.89.61-1.98,1.26-3.95,1.94-6.11-.37-.03-.69-.07-1.19-.11.19-.93.29-1.89.6-2.77.97-2.79,2.13-5.51,3.01-8.33,1.21-3.88,2.29-7.81,3.29-11.75.28-1.1.19-2.26.03-3.48-.19-1.44.41-3.17,1.15-4.51,1.59-2.87,1.94-6.05,2.94-9.4-.65.1-1.05.16-1.57.25-.87-.99-.71-2.11-.42-3.31.98-4.03,1.77-8.11,2.88-12.1,1.27-4.56,1.8-9.22,2.47-13.88.55-3.77,1.4-7.49,2.12-11.23.02-.08.06-.16.04-.23-.67-2.59.35-5.05.58-7.56.36-3.94.73-7.88,1.05-11.82.29-3.56.54-7.12-.27-10.66-.13-.55.17-1.21.3-1.82.28-1.31.81-2.61.82-3.93.05-5.12.58-10.19,1.34-15.24.13-.86.09-1.75.14-2.63.14-2.47.28-4.93.41-7.4.04-.8.04-1.6.05-2.4.07-3.98.19-7.96.18-11.95,0-2.28-.19-4.56-.5-6.86-1.67,2.11-.92,4.85-2.02,7.4-.77-1.18-.45-2.26-.38-3.29.26-3.9.74-7.8.74-11.69,0-3.82-.47-7.64-.74-11.45-.2-2.79-.46-5.57-.6-8.35-.16-3.26-.14-6.53-.32-9.79-.11-2.04-.56-4.07-.66-6.12-.08-1.74-.02-3.51.23-5.24.26-1.81-.1-3.51-.72-5.13-1.72-4.47-1.68-9.04-1.06-13.82.73.08,1.38.16,2.16.25.25-1.55-.23-2.82-.76-4.04-.42-.99-.71-1.84-.25-2.95.25-.61-.1-1.48-.25-2.22-.09-.43-.34-.82-.65-1.55,1.7.3,2.99,2.02,4.62.15.27,1.74.49,3.11.74,4.73.62-.52,1.05-.88,1.65-1.37.68,1.97-.48,3.22-1.2,4.65.86.49,1.67.96,2.5,1.43-.29-3.13.24-6.22,1.45-9.21.26-.63.26-1.37.37-2.06.05-.31-.09-.76.08-.92,2.29-2.26.9-5.34,1.74-7.95.31-.95-.39-2.29-.8-3.38-.31-.81-.95-1.48-1.36-2.25-1.06-1.99-.94-2.54.96-4.57.51.4,1.07.8,1.57,1.25.23.21.3.6.54.79,2.45,1.97,2.64,4.73,2.72,7.55.01.41.34.82.53,1.23.17-.04.34-.08.52-.11.16-1.79.62-3.61.4-5.35-.19-1.51-1.18-2.92-1.74-4.4-.25-.67-.32-1.42-.53-2.41,1.96.42,1.72,2.19,2.83,2.98.28-.15.64-.29.94-.52.86-.64,1.64-.57,2.32.22,1.09,1.27,2.54,1.83,4.04,2.45,1.22.5,2.34,1.33,3.4,2.15.88.68,1.72,1.47,2.37,2.37,1.75,2.43,4.3,3.34,7.14,4.09.58-1.43,1.5-2.69.73-4.3-.06-.13-.11-.37-.04-.46,1.74-2.32.67-5.71,3.21-8.03,1.08,1.6,2.01,3.21,1.74,5.17-.23,1.64-.72,3.25-1.13,4.87-.24.93-.47,1.71-1.84,1.7-.96,0-.98,1.12-.73,1.92.18.6.61,1.12.81,1.72,1.04,3.09.22,5.86-1.73,8.3-2.04,2.55-4.14,5.08-6.41,7.43-2.05,2.12-4.3,4.05-6.58,5.92-1.22,1-1.44,2.05-1.37,3.55.22,4.3.25,8.6.33,12.91,0,.39-.02.87-.24,1.15-2.09,2.74-1.34,5.87-.83,8.74.79,4.49.68,8.89.04,13.34-.02.14-.16.26-.45.71-.66-1.72-.35-3.29-.38-4.79-.03-1.49.13-2.98.22-4.74-.35.31-.6.42-.61.56-.64,5.64-.86,11.28-.21,16.96.66,5.8.3,11.62-.07,17.43-.21,3.34-.37,6.7-.8,10.02-.64,4.97-1.49,9.9-2.32,15.32-1.73-4.09-.61-7.74-.41-11.48-1.35.2-1.44,1.08-1.52,1.94-.11,1.11-.21,2.22-.27,3.34-.33,6.29-1.71,12.51-1.19,18.85.07.89.3,1.77.46,2.66.17,0,.34.01.51.02.14-.32.36-.63.42-.97.61-3.53,1.14-7.08,1.83-10.6.22-1.12.85-2.15,1.54-3.18.7,1.54.51,3.11.41,4.65-.24,3.98-.59,7.95-.84,11.93-.42,6.69-1.05,13.34-2.51,19.92-.93,4.19-1.25,8.52-1.84,12.78-.24,1.74-.47,3.48-.7,5.22-.1.78-.17,1.57.05,2.44.67-1.76,1.33-3.52,2.08-5.51,1.05.95.81,1.86.69,2.65-.42,2.6-.94,5.18-1.38,7.77-.41,2.44-.61,4.92-1.15,7.33-.95,4.29-2.31,8.49-3.07,12.81-.66,3.74-.72,7.59-1.04,11.39.19.07.38.13.57.2.78-1.13,1.56-2.25,2.48-3.59.19.55.41.93.44,1.32.04.47-.04.96-.14,1.42-1.27,6.02-3.02,11.89-5.52,17.53-.02.04-.14.04-.36.09-.46-2.74,1.35-5.18,1.11-8.37-.53.83-.89,1.22-1.06,1.69-1.29,3.71-2.36,7.47-2.62,11.41-.03.48-.04.97-.16,1.43-.87,3.15-1.78,6.29-2.65,9.43-.23.84-.35,1.71-.54,2.56-.94,4.26-1.36,8.66-3.63,12.57-.91,1.57-1.36,3.4-2.01,5.12-.08.22-.18.47-.16.7.35,3.36-1.81,6.06-2.38,9.18-.58,3.14-1.22,6.27-1.79,9.41-.09.48.07,1.01.3,1.53,1.08-4.18,2.03-8.36,3.18-12.49.22.05.43.1.65.15-.76,4.06-1.51,8.11-2.27,12.17.15.06.31.12.46.19,1.17-2.47,2.35-4.94,3.52-7.41.18.06.35.12.53.18-.38,1.42-.74,2.84-1.16,4.25-.58,1.99-1.14,3.99-1.84,5.94-.53,1.49-1.24,2.92-1.92,4.36-1.89,4.01-2.72,8.33-3.39,12.7.28-.87.59-1.73.82-2.61.23-.87.43-1.71,1.86-1.67-.08.68-.05,1.31-.23,1.86-.71,2.12-1.38,4.27-2.28,6.31-.8,1.81-1.91,3.49-2.85,5.24-.34.63-.71,1.28-.86,1.97-1.1,5.31-2.16,10.63-3.21,15.95-.04.22.02.47.04.79.37-.14.69-.27,1.02-.4,1.05,2.14.67,4.61-1.4,6.41-1.82,1.58-2.14,3.53-2.52,5.7-.5,2.89-1.32,5.75-2.2,8.56-.44,1.41-.83,2.72-.41,4.19.42,1.47-.02,2.85-.6,4.19-1.83,4.17-3.7,8.32-5.47,12.51-.55,1.31-.97,2.71-1.24,4.11-.86,4.47-1.67,8.95-2.39,13.44-.33,2.04-.46,4.13.33,6.15.41,1.06,1.06,1.76,2.21,1.95.71.12,1.43.41,2.12.36,3.51-.28,6.78.92,10.15,1.48,5.11.84,10.25,1.57,15.38,2.23,2.77.36,5.59.3,8.34.75,2.89.47,5.71,1.32,8.79,2.06-.91,1.35-2.15,1.01-3.25,1.03-2.23.04-4.46.02-6.68.05-.45,0-.9.16-1.37.67,1.94.16,3.89.32,5.9.49-.15.47-.25.76-.35,1.06.12.09.24.24.37.25,4.9.56,9.86.53,14.72,1.6,3.33.73,6.72,1.35,10.11,1.52,1.63.08,3.02.21,4.4,1.08.47.29,1.23.11,1.86.15.47.03,1.13-.1,1.37.15,1.35,1.43,3.1,1.01,4.73,1.22,6.33.81,12.65,1.72,18.98,2.45,2.82.33,5.7.17,8.52.51,3.08.36,6.15.92,9.16,1.64,1.28.31,2.43.54,3.73.17,1.45-.41,2.95-.82,4.51.03-.17.31-.33.61-.58,1.08,1.01.22,1.93.9,2.54-.65.12-.29.97-.45,1.47-.41,4.13.38,8.24.88,12.37,1.2,2.13.17,4.29.03,6.46-.1-7.46-2.1-15.22-2.54-22.8-3.95-7.59-1.41-15.35-1.29-22.94-2.96.93,0,1.86-.06,2.78.01,4.45.34,8.9.83,13.36,1.03,4.3.19,8.47,1.32,12.73,1.63,4.56.33,8.95,1.46,13.43,2.12,2.5.37,5.08.22,7.62.29.63.02,1.37-.26,1.87-.01,1.76.85,3.59.66,5.42.64,8.49-.09,16.9.69,25.25,2.17,2.04.36,4.12.52,6.19.7,4.29.38,8.61.55,12.88,1.11,6.73.87,13.46,1.79,20.13,3.05,9.65,1.82,19.23,4.01,28.85,5.94,10.32,2.07,20.19,5.57,29.7,9.97,6.66,3.08,13.06,6.72,18.62,11.67,2.07,1.84,4.46,3.36,6.81,4.85,2.56,1.62,3.79,3.75,3.42,6.8-.22,1.82-.22,3.66-.53,5.46-.31,1.82-.96,2.27-2.7,2.48-2.45.3-4.88.7-7.34.91-1.09.1-2.36.16-3.27-.3-2.68-1.34-5.18-.97-7.5.52-3.85,2.47-7.69,2.16-11.65.47-2.19-.93-2.84-.72-4.32,1.11-.65.81-1.33,1.59-2.02,2.37-1.72,1.95-2.89,2.09-5.22.95-1.7-.83-3.49-1.52-5.28-2.17-4.75-1.72-9.78-1.3-14.68-1.9-6.09-.75-12.2-1.41-18.29-2.22-8.31-1.1-16.59-2.42-24.91-3.44-4.75-.58-9.55-.73-14.32-1.11-2.7-.21-5.4-.47-8.09-.74-.36-.04-.91-.23-1-.48-.53-1.53-1.74-1.04-3.26-1.23ZM68.13,276.61c-1.44,2.79-2.65,6.48-2.62,8.46,1.04-3.08,2.59-5.52,2.61-8.47,1.46-2.01,1.62-4.42,2.12-6.72-1.02,2.15-2.14,4.26-2.11,6.72ZM76.3,458.84c-2.3.81-4.61,1.4-7.04.26.86-.21,1.73-.41,2.76-.66-.71-1.09-1.63-.93-2.46-.98-1.59-.09-3.21-.02-4.78-.24-4.34-.6-8.66-1.42-13.01-1.95-3.24-.4-6.52-.53-9.78-.68-.74-.03-1.63.18-2.23.6-2,1.4-3.22,1.41-5.17-.09-.4-.31-.99-.52-1.5-.53-4.97-.01-9.87-.52-14.69-1.82-1.05-.28-2.28-.39-3.43.46,1.7,1.38,4.07.27,5.7,2.02-3.85.93-7.3-1.47-11.41-.45,1.08.43,1.64.78,2.24.88,5.35.88,10.71,1.71,16.07,2.55.31.05.63-.05.95-.05,3.01-.08,6.04-.34,9.04-.17,3.4.19,6.78.77,10.17,1.16,2.14.25,4.28.52,6.42.69,2.38.2,4.77.28,7.15.45,1.83.13,3.65.31,5.47.5,2.18.22,4.35.47,6.64.72-.54,1.15-.96,2.04-1.39,2.95,1.78.68,5.27.94,6.57.56-.32-.76-.65-1.52-1.03-2.43.68-.15,1.14-.37,1.58-.33,2.61.23,5.22.44,7.81.82,3.31.48,6.6,1.1,9.9,1.68.86.15,1.72.37,2.58.55,4.45.9,8.89,1.85,13.35,2.66,2.27.41,4.58.54,6.86.89,2.27.35,4.51.86,6.78,1.22,1.39.22,2.94.71,4.18.32,1.61-.51,2.93.01,4.4.12,3.32.25,6.65.24,9.98.36.63.02,1.27.15,1.9.23,4.67.54,9.34,1.1,14.01,1.62,4.2.46,8.41.8,12.6,1.33,4.1.51,8.18,1.22,12.28,1.78,1.57.21,3.16.23,4.74.37,3.18.29,6.35.61,9.52.89,3.33.3,6.67.66,10.01.84,2.42.13,4.85.03,7.74.03-1.33-1.25-2.16-2.65-3.28-2.94-1.92-.51-4.02-1.12-6.04.07-1.08.63-2.23.72-3.1-.44-1.66,2.08-4.42,1.66-6.43-.85-1.67.36-3.3,2.96-5.09.28-1.14.48-2.15,1.26-3.44.62-.08-.63-.16-1.21-.21-1.58-3.73-.86-7.22-1.68-10.72-2.45-1.81-.4-3.64-.52-5.43.17l.03.02c-1.06-.3-2.1-.78-3.17-.87-1.74-.15-3.53-.2-5.26-.01-1.73.18-3.57-.36-5.22.78-.46.32-1.33.05-2.22.05.39-.71.61-1.1.89-1.63-1.62-.14-2.83-.04-4.14.65-1.65.86-3.55,1.44-5.53.53v-2.38c-3.64.54-7.18-1.25-10.66.71-.79.45-1.85.47-2.8.59-.95.12-1.88.05-2.71-.86.59-.48,1.08-.88,1.57-1.28-2.86-.09-5.6-1.99-8.39-.09-.4.27-1.09.12-1.64.19-1.32.17-2.64.38-3.96.5-.3.03-.63-.22-.95-.34-.01-.17-.02-.35-.04-.52,1.24-.37,2.48-.74,3.73-1.11-5.4-.95-10.74-1.88-16.08-2.82-7.39-1.3-14.76-2.72-22.17-3.86-2.36-.36-4.85-1.08-7.28.11-.44.22-1.19-.21-1.8-.34.21-1.01-.42-.85-1.2-.81.51.35.87.58,1.22.82ZM169.26,448.32c.02-.15.05-.31.07-.46-.75-.16-1.49-.36-2.25-.49-5.34-.87-10.83-.7-16.08-2.28-.45-.13-.95-.07-1.43-.13-4.04-.48-8.1-.85-12.12-1.46-5.36-.82-10.69-1.82-16.04-2.73-1.42-.24-2.89-.26-4.25-.67-3.87-1.18-7.84-1.38-11.84-1.41-.95,0-1.91-.09-2.86-.23-3.78-.53-7.55-1.22-11.35-1.63-5.31-.57-10.54-1.81-15.91-1.77-.08,0-.16-.03-.24-.04-2.93-.38-5.85-.87-8.79-1.11-5.32-.43-10.69-.28-15.96-1.32-.71-.14-1.47.03-2.5.07.58,1.34,1.44,1.47,2.27,1.68,3.57.89,7.19,1.28,10.88,1.38,2.94.08,5.86.69,8.8.96,4.53.42,9.07.66,13.59,1.13,2.37.25,4.71.8,7.06,1.23,2.74.5,5.47,1.11,8.23,1.5,2.68.38,5.4.48,8.09.81,2.36.29,4.69.81,7.05,1.1,3.17.38,6.36.58,9.52.96,3.56.43,7.11,1.02,10.67,1.48,5.22.67,10.45,1.3,15.68,1.89,2.21.25,4.45.34,6.67.48,1.99.13,3.98.18,5.96.34,2.35.19,4.69.47,7.03.71ZM149.14,462.6c-.05.12-.1.24-.14.36.72.1,1.43.27,2.15.29,1.04.03,2.09-.17,3.1-.05.62.08,1.32.46,1.74.93,1.03,1.14,2.11,1.82,3.72,1.33.58-.17,1.25-.11,1.87-.07,3.18.19,6.36.41,9.55.63,2.22.15,4.44.17,6.5,1.31.79.44,1.84.48,2.79.54,3.42.23,6.85.38,10.27.59.55.03,1.14.11,1.62.34.99.48,1.74.2,2.68-.25,1.1-.53,2.38-.75,3.61-.9,1.25-.15,2.52-.07,3.78-.03.45.01.9.21,1.85.44-1.18.64-1.84,1-2.76,1.49,1.12.27,1.92.46,2.81.67-.25.55-.43.94-.59,1.27,1.93.55,3.73,1.32,5.6,1.54,1.78.21,3.63-.16,5.58-.29v-1.91c.76-.42,1.43-.78,2.16-1.18-.61-1.88-2.23-2.32-3.61-2.47-3.56-.37-7.16-.41-10.74-.57-.71-.03-1.43-.04-2.14.03-1.41.13-2.83.23-4.22.5-1.19.23-2.34.76-3.06-.8-.14-.3-.6-.54-.96-.63-1.7-.42-3.41-.9-5.14-1.11-2.53-.31-5.1-.31-7.62-.63-3.63-.46-7.25-1.09-10.87-1.63-.68-.1-1.15-.09-1.69.69-.64.92-1.72.59-2.63-.37-.3-.31-.79-.66-1.17-.63-1.13.08-2.25.34-3.46.54-.09-.14-.27-.67-.52-.71-1.25-.21-2.55-.49-3.79-.36-2.1.21-4.17.72-6.25,1.1ZM89.22,454.08c-.04.21-.08.43-.11.64,1.37.34,2.73.72,4.11,1.01,1.62.34,3.27.55,4.87.93,1.85.44,3.63,1.27,5.49,1.49,5.35.63,10.59,1.96,16.07,1.88,3.14-.05,6.3,1.12,9.46,1.68.82.15,1.77.3,2.51.03,2.63-.96,4.95-.5,6.98,1.05,1.31-.24,2.51-.45,3.86-.69.05-1.35,1.27-1.35,2.3-1.68-8.61-.82-17.23-1.64-25.83-2.45-.08.41-.15.75-.23,1.2-1.25-.38-2.48-.04-3.61-.8.45-.33.74-.54,1.29-.94-9.25-.99-18.13-2.75-27.15-3.35ZM228.13,474.98c-.47.52-.71.72-.88.98-.97,1.49-2.19,2.14-4.04,1.65-.77-.2-1.82-.52-2.86.45,2.76,1.02,5.68-.34,8.09,1.32-.16.52-.3.96-.43,1.38,1.77,1.03,1.85,1.03,2.58.04,1.43-1.92,2.2-2.13,4.43-1.46.97.29,2,.48,3.02.55,5.08.34,10.16.63,15.24.91,1.35.07,2.75.31,4.05-.37-.37-.3-.73-.41-1.1-.46-2.53-.3-5.06-.57-7.58-.89-2.99-.37-5.97-.85-8.96-1.13-1.02-.1-1.77-.32-2.51-1.07-1.14-1.16-2.31-2.44-3.73-3.13-2.35-1.13-4.9-1.88-7.4-2.68-1.13-.36-2.28-.28-3.38,1.42,3.05-1.07,3.42,1.78,5.46,2.5ZM53.86,420.84c.44-.35.71-.67,1.05-.8.94-.37,1.89-.75,2.88-.94.88-.17,1.39.5,1.92,1.15.29.35.96.46,1.48.55,3.82.61,7.64,1.31,11.49,1.75,3.54.41,7.08,1.24,10.69.54.68-.13,1.39-.11,2.08-.16,0-.18,0-.36,0-.53-.65-.17-1.41-.18-1.93-.54-2.66-1.84-5.8-1.62-8.74-1.93-2.31-.25-4.56-.5-6.79-1.14-.97-.28-2.03-.42-3.03-.35-2.72.18-5.41.27-8.06-.48-.6-.17-1.25-.21-1.88-.21-.89.01-1.77.13-2.82.21-.7,1.56.99,1.86,1.65,2.89ZM174.23,438.66c.04-.24.08-.48.12-.72-1.51-.38-3.01-.89-4.55-1.11-4.01-.55-8.03-.98-12.05-1.45-1.56-.18-3.02.04-4.48,1.22,2.42.49,4.67-.31,7.14.69-1.04.57-1.74.95-2.92,1.59,5.95.9,11.33-.53,16.74-.22ZM54.28,426.53c1.76.83,3.78.89,5.18.25.29-.13.72-.25.98-.13,2.31.98,4.05-.46,5.9-1.37.2-.1.24-.52.41-.91-.39-.16-.67-.4-.93-.38-3.16.29-6.32.57-9.47.96-.9.11-1.87.42-2.07,1.59ZM27.42,448.27c1.29,1.47,2.99.87,4.49,1.18,1.54.32,3.18.3,4.77.23,1.47-.06,3.07.54,4.8-.66-4.83-2.22-9.49-.71-14.06-.75ZM50.67,428.44c.26.91,1.14,1.34,1.9,1.34,2.57,0,5.23.91,7.7-.81-3.17-.18-6.34-.35-9.6-.53ZM106.21,468.79c-.55-.18-1.16-.62-1.63-.51-2.25.54-4.4-.09-6.58-.39-.31-.04-.62,0-.94,0,2.7,1.33,7.66,1.96,9.15.9ZM132.3,434.41c-.02-.22-.05-.44-.07-.65-2.37.21-4.75.42-7.12.63l.05.66c2.44.66,4.77-.26,7.14-.63ZM90.74,465.51c-1.75.14-3.22.26-5.12.41,3.48,1.42,4.09,1.37,5.12-.41ZM136.07,473.79l-.04-.48c-2.38-.07-4.72-.9-7.11-.63,0,.16-.02.31-.03.47,2.4.22,4.79.43,7.19.65ZM76.63,453.13c1.25.21,2.49,1.08,4.1.37-1.44-1.22-2.76-.87-4.1-.37ZM80.56,465.1c-.01.19-.03.37-.04.56.97.36,1.96.48,2.98.17.01-.17.02-.34.03-.51-.99-.07-1.98-.14-2.97-.22ZM97.41,179.89c.16,0,.32-.01.48-.02.11-.69.24-1.37.31-2.06.08-.76.09-1.52.13-2.28-.12,0-.23-.02-.35-.03-.19,1.46-.38,2.92-.57,4.38ZM64.27,464.04c0-.17-.02-.34-.02-.51h-1.7c0,.13,0,.26,0,.39.57.04,1.15.08,1.72.12ZM69.94,464.58c.01-.12.02-.24.03-.36-.87-.08-1.73-.16-2.6-.24l-.04.48c.87.04,1.74.08,2.61.12ZM232.9,483.12c0,.16,0,.33,0,.49h1.63c0-.1,0-.19.01-.29-.55-.07-1.1-.14-1.65-.21ZM36.06,454.81c.02.14.04.28.05.42.36-.05.72-.1,1.08-.15-.05-.13-.11-.37-.16-.37-.33,0-.65.06-.98.1ZM113.74,470.85c-.01.15-.03.29-.04.44.54.08,1.08.16,1.62.24.02-.13.04-.25.06-.38-.55-.1-1.09-.2-1.64-.3ZM263.62,481.07v-.43h-1.25c0,.08,0,.15-.01.23l1.26.21ZM37.38,461c.31.39.43.61.49.59.25-.06.47-.19.71-.3-.31-.08-.62-.15-1.2-.29ZM151.58,475.3c-.09-.19-.14-.41-.21-.42-.19,0-.39.06-.58.11.06.12.1.33.18.35.18.04.39-.02.61-.03ZM128.68,456.25c-.01.17-.02.33-.04.5.32.02.64.03.96.05.01-.11.03-.22.04-.33l-.97-.22ZM225.74,482.69c0-.06.01-.12.02-.19-.43-.02-.85-.05-1.28-.07,0,.09,0,.17-.01.26h1.27ZM57.54,462.51c-.18.14-.4.26-.39.3.07.17.2.32.31.48.11-.08.32-.18.31-.25-.02-.18-.14-.34-.23-.53ZM149.81,460.89c.01.06.03.16.05.31.41-.02.82-.05,1.23-.07,0-.08,0-.16,0-.24h-1.27ZM120.42,471.84l.02.38c.33-.02.66-.04.99-.05,0-.09,0-.18,0-.28l-1.01-.05ZM125.15,472.38c.01.1.02.2.03.3.32-.03.64-.07.96-.1,0-.09-.02-.17-.03-.26-.32.02-.64.04-.96.06ZM6.07,431.01c-.07-.11-.14-.22-.22-.33-.11.08-.33.21-.31.25.06.16.19.29.29.44.08-.12.16-.24.24-.36ZM267.14,481.3c-.13-.04-.25-.09-.38-.1-.03,0-.11.15-.1.16.08.09.18.17.27.25.07-.1.14-.21.2-.31ZM94.49,429.22c.03.12.05.23.08.35.32-.04.63-.07.95-.11,0-.08-.01-.16-.02-.24h-1Z"/>
  <path class="cls-1" d="M99.5,226.56c1.1,1.77,1.92,3.08,2.88,4.62.61-.63,1.28-1.31,2.02-2.08.73.88.25,1.63-.01,2.31-.83,2.18-.85,4.32-.18,6.56.73,2.44.6,4.91-.49,7.24-1.12,2.38-2.33,4.72-3.52,7.07-.17.33-.47.59-.89,1.1-.84-1.8-.93-3.78-2.76-4.88-1.37,2.18-1.82,4.71-2.58,7.1-.74,2.31-1.26,4.69-2.16,6.99-.52-1.24-.15-2.41.1-3.57.28-1.32.62-2.63.92-3.95.61-2.71,1.21-5.43,1.8-8.15.1-.47.3-.99.18-1.41-.81-2.7.26-5.17.91-7.67.76-2.93,1.66-5.82,2.55-8.71.22-.72.66-1.37,1.24-2.55Z"/>
  <path class="cls-1" d="M106.98,171.12c-.41.58-.81,1.16-1.45,2.07-.06-.74-.17-1.15-.1-1.54.28-1.65.68-3.28.19-4.96-.07-.22-.04-.48-.01-.71.48-4.75,1.04-9.49,1.43-14.24.23-2.71,1.65-4.84,3.01-7.61.55,2.75.25,4.93-.81,6.89-.95,1.77-1.3,3.5-1.16,5.49.11,1.48-.26,3-.47,4.5-.19,1.35-.33,2.63,1.61,2.86-.1.61-.05,1.12-.26,1.5-.6,1.11-.62,2.17-.42,3.43.29,1.78,0,3.59-1.14,5.46-.91-1.17-.26-2.22-.44-3.15.22-.41.43-.82.65-1.23-.12-.04-.24-.09-.36-.13-.09.46-.18.92-.27,1.37Z"/>
  <path class="cls-1" d="M113.5,76.49c-.1-.7-.26-1.36-.28-2.03-.05-1.76.04-3.52-.07-5.27-.08-1.34-.38-2.66-.58-3.99-.11-.71-.29-1.41-.3-2.12-.05-2.56-.06-5.11-.04-7.67,0-.59.19-1.17.34-2.09.48.44.82.6.87.82.47,2.1.9,4.2,1.3,6.31.37,1.96.61,3.95,1.05,5.89.76,3.38-.29,6.47-1.31,9.59-.05.14-.18.28-.3.36-.12.08-.28.09-.7.2Z"/>
  <path class="cls-1" d="M79.44,315.8c.94,3.04-3.94,17.32-7.18,21.12-.11-2.15,0-3.94,1.09-5.73,1.15-1.89,1.94-4.01,2.82-6.05.14-.33.08-1-.15-1.2-.61-.52-.45-1.05-.09-1.46,1.52-1.73,2.2-3.84,2.86-5.97.06-.2.3-.34.64-.71Z"/>
  <path class="cls-1" d="M109.06,80.96c-.26-.37-.52-.57-.49-.73.85-5.4-.2-10.75-.43-16.12,0-.17.27-.34.55-.69.28.49.48.86.7,1.22.39.65.65,1.49,1.21,1.89.92.65,1.24,1.45,1.15,2.44-.19,1.89-.38,3.79-.72,5.67-.31,1.72-.8,3.4-1.26,5.09-.11.4-.41.74-.71,1.24Z"/>
  <path class="cls-1" d="M109.85,99.3c0-.85.03-1.7,0-2.55-.04-1.03.05-2.11-.24-3.08-.79-2.64-.43-5.15.4-7.69.31-.93.38-1.94.77-2.9,1.05,2.67.3,5.38.19,8.06-.11,2.74-.37,5.47-.56,8.2-.19-.01-.37-.02-.56-.03Z"/>
  <path class="cls-1" d="M91.65,264.2c1,2.85-.14,4.95-.4,7.24.42.24.85.5,1.22.72-.1,2.3-2.08,2.19-3.78,3.31.54-2.13.95-3.81,1.39-5.48.38-1.45,1.04-2.85.62-4.44-.07-.25.43-.65.94-1.35Z"/>
  <path class="cls-1" d="M110.42,103.89c.57,2.88-.22,14.65-1.12,16.38-.62-1.19-.35-2.25-.16-3.29.36-2.01.96-3.96-.06-6.03-.57-1.17.44-5.58,1.34-7.05Z"/>
  <path class="cls-1" d="M103.68,206.17c-.17,3.62-2.17,6.55-3.36,9.8-.83-1.23-.1-2.31.25-3.44.35-1.14.57-2.32.91-3.46.35-1.21.83-2.35,2.21-2.9Z"/>
  <path class="cls-1" d="M115.69,93.05c.52,1.92-.13,8.27-1.04,10.11-.12-.08-.36-.15-.36-.23-.04-2.53-.13-5.06-.03-7.58.03-.85.58-1.67.89-2.51.18.07.36.14.54.21Z"/>
  <path class="cls-1" d="M83.46,298.3c0-.82-.14-1.68.03-2.47.47-2.16,1.04-4.31,1.62-6.44.22-.78.59-1.53,1.11-2.2.68,4.04-1.42,7.44-2.17,11.14-.2,0-.39-.01-.59-.02Z"/>
  <path class="cls-1" d="M103.02,197.39c-.57-2.72-.15-4.59,1.72-7.95.94,3.04-.32,5.36-1.72,7.95Z"/>
  <path class="cls-1" d="M96.74,4.15C94.76,3.51,94.43,2.28,95.63,0c1.95,1.06,2.18,1.92,1.11,4.15Z"/>
  <path class="cls-1" d="M105.9,175.5c.13,2.87.06,5.67-1.78,8.13.14-.72.15-1.51.45-2.16.88-1.91-.04-4.2,1.34-5.97Z"/>
  <path class="cls-1" d="M118.94,424.32c2.85.66,5.71,1.33,8.56,1.99-3.11.59-5.86-.58-8.67-1.47.04-.17.07-.34.11-.52Z"/>
  <path class="cls-1" d="M115.05,88.18q.67,1.29.02,2.62c-1.12-1.32-1.12-1.39-.02-2.62Z"/>
  <path class="cls-1" d="M94.93,257.97c.39-1.12.78-2.25,1.17-3.37.46,1.37.4,2.59-.52,3.59-.22-.07-.43-.15-.65-.22Z"/>
  <path class="cls-1" d="M278.66,497.69c.54-.82,1.16-1.49,2.4-1.19.14,1.09-.02,1.78-1.29,1.55-.38-.07-.75-.25-1.12-.38l.02.02Z"/>
  <path class="cls-1" d="M81,306.08q-.39-1.56.65-2.69.39,1.21-.65,2.69Z"/>
  <path class="cls-1" d="M104.83,160.8c.87,1.08.81,2.13,0,3.67v-3.67Z"/>
  <path class="cls-1" d="M85.87,143.86c-.07,1.14-.13,2.29-.2,3.43-.17-.01-.35-.02-.52-.04-.47-1.18-.09-2.3.72-3.39Z"/>
  <path class="cls-1" d="M164.23,477.36h-3.69q1.58-.81,3.69,0Z"/>
  <path class="cls-1" d="M337.93,448.94c.56-.36,1.11-.71,2.07-1.33-.28,1.63-.83,2-1.7,1.9-.13-.19-.25-.38-.38-.56Z"/>
  <path class="cls-1" d="M97.55,259.51c-.11-.92.1-1.74,1.27-2.26-.21.81-.42,1.62-.63,2.43-.21-.06-.43-.11-.64-.17Z"/>
  <path class="cls-1" d="M106.76,88.8v-2.27c.15,0,.3,0,.45-.01v2.25c-.15,0-.3.02-.45.03Z"/>
  <path class="cls-1" d="M278.64,497.67c-.22.78-.44,1.55-.67,2.33-.72-1.16-.65-2.01.69-2.31,0,0-.02-.02-.02-.02Z"/>
  <path class="cls-1" d="M101.62,174.82c-.16.84-.31,1.67-.47,2.51-.14-.02-.28-.04-.42-.06.08-.85.15-1.7.23-2.55.22.03.44.07.66.1Z"/>
  <path class="cls-1" d="M113.54,423.59h2.24c-.6.78-1.2.79-2.24,0Z"/>
  <path class="cls-1" d="M87.63,281.14c-.16.54-.31,1.09-.46,1.6-.7-.04-.67-.25.46-1.6Z"/>
  <path class="cls-1" d="M81.35,324.92l.66-1.59c.16.06.32.13.48.19-.21.54-.41,1.07-.62,1.61-.17-.07-.35-.14-.52-.21Z"/>
  <path class="cls-1" d="M101.12,204.06c-.06.56-.12,1.12-.22,2-.35-.38-.59-.53-.57-.64.09-.49.26-.96.4-1.44.13.03.26.05.39.08Z"/>
  <path class="cls-1" d="M104.45,422.92c.45-.11.9-.22,1.36-.33.03.14.07.29.1.43-.46.09-.92.18-1.37.27-.03-.12-.06-.25-.08-.37Z"/>
  <path class="cls-1" d="M73.65,236.73c.29.27.57.54.86.8-.09.1-.18.19-.28.29-.28-.28-.56-.55-.84-.83.09-.09.17-.18.26-.26Z"/>
  <path class="cls-1" d="M82.75,320.43c.21-.36.42-.72.63-1.07.12.06.24.11.36.17-.16.38-.33.77-.49,1.15-.16-.08-.33-.16-.49-.25Z"/>
  <path class="cls-1" d="M105.07,146.67c.05-.42.09-.85.14-1.27.12,0,.24.01.35.02v1.31c-.16-.02-.33-.04-.49-.06Z"/>
  <path class="cls-1" d="M94.94,262.69c.09.09.18.19.26.28-.11.07-.21.15-.32.21-.01,0-.13-.12-.12-.16.04-.12.12-.23.18-.34Z"/>
  <path class="cls-1" d="M109.31,127.07c-.14.14-.28.27-.42.4-.05-.12-.16-.25-.14-.37.02-.12.15-.22.23-.33.09.08.18.17.33.3Z"/>
  <path class="cls-1" d="M166.33,477.88c-.12-.07-.24-.13-.36-.2.14-.1.26-.23.42-.28.05-.02.17.18.26.28-.11.07-.21.13-.32.2Z"/>
  <path class="cls-1" d="M111.44,169.63c-.11.1-.21.2-.32.3-.06-.19-.13-.37-.15-.56,0-.04.23-.1.35-.15.04.14.08.28.11.41Z"/>
  <path class="cls-1" d="M174.09,470.82c1.63.32,3.27.63,4.89.98.56.12,1.1.34,2.12.66-1.76.97-3.05.82-4.36.47-.46-.12-1.05-.6-1.32-.45-2.03,1.12-3.58-.47-5.34-.83-.82-.17-1.67-.19-2.75-.3.77-.89,1.52-.77,2.3-.71,1.49.11,2.99.14,4.48.2,0,0-.03-.02-.03-.02Z"/>
  <path class="cls-1" d="M92.87,462.16c1.91-.23,3.63-.9,5.24.59-1.43,1-3.42.79-5.24-.59Z"/>
  <path class="cls-1" d="M91.4,461.2c-1.55.49-3.12,1.3-4.99.11,1.82-1.55,3.41-.69,4.99-.11Z"/>
  <path class="cls-1" d="M118.26,465.55c-1.63,1.86-2.96,1.83-5.05.25,1.83-.09,3.44-.17,5.05-.25Z"/>
  <path class="cls-1" d="M108.41,464.58c-1.11-.02-2.28.82-3.45-.12,1.53-1.12,1.92-1.09,3.44.14v-.02Z"/>
  <path class="cls-1" d="M99.23,463.25c1.32-.84,2.26-.53,3.37-.06q-1.26,1.02-3.37.06Z"/>
  <path class="cls-1" d="M63.13,459.04c-.82-.1-1.65-.2-2.47-.3.02-.19.03-.37.05-.56.87-.46,1.72-.51,2.56.11l-.14.75Z"/>
  <path class="cls-1" d="M184.58,473.22c.71-.7,1.32-.41,2.02.04q-1.03.89-2.02-.04Z"/>
  <path class="cls-1" d="M22.69,455.17c.69-.17,1.39-.34,2.49-.6-.74,1.45-1.53,1.4-2.38,1.17-.04-.19-.07-.38-.11-.57Z"/>
  <path class="cls-1" d="M148.15,470.2c-.52-.21-1.05-.43-1.96-.8,1.25-.73,1.81-.62,2.21.14-.08.22-.17.44-.25.66Z"/>
  <path class="cls-1" d="M41.14,455.51c.75.06,1.5.12,2.26.18-.85.83-1.61.89-2.26-.18Z"/>
  <path class="cls-1" d="M67.06,458.63c-.65.19-1.3.39-2.42.72.67-1.52,1.44-1.45,2.21-1.37.07.22.15.43.22.65Z"/>
  <path class="cls-1" d="M142.31,469.49c-.35.05-.7.11-1.06.16-.02-.14-.05-.29-.07-.43.35-.05.71-.09,1.06-.14.02.14.04.27.06.41Z"/>
  <path class="cls-1" d="M47.26,456.52c-.31.08-.63.16-.94.25-.04-.11-.08-.23-.12-.34.31-.13.62-.27.93-.4.04.17.09.33.13.5Z"/>
  <path class="cls-1" d="M108.4,464.6c.44.13.87.26,1.31.39-.07.13-.14.27-.2.4-.36-.27-.73-.54-1.09-.81v.02Z"/>
  <path class="cls-1" d="M159.59,463.94c1.6-.74,3.09.09,4.61.55h-4.63l.02-.55Z"/>
  <path class="cls-1" d="M131.16,459.98h.99c-.01.19-.03.39-.04.58-.33-.05-.67-.11-1-.16.02-.14.03-.28.05-.42Z"/>
  <path class="cls-1" d="M126.05,460.06c-.34-.04-.68-.09-1.01-.13,0-.12,0-.24-.01-.36.35-.03.69-.06,1.04-.1l-.02.59Z"/>
  <path class="cls-1" d="M230.52,476.48c2.42-1.54,2.5-1.52,5.46,1.15-2.58-.1-5.16.71-7.7-1.49.42-.41.82-.79,1.33-1.3.42.76.63,1.14.91,1.64Z"/>
</svg>