<?xml version="1.0" encoding="UTF-8"?>
<svg id="Layer_1" data-name="Layer 1" xmlns="http://www.w3.org/2000/svg" viewBox="0 0 488.85 500">
  <defs>
    <style>
      .cls-1 {
        fill: #000;
        stroke-width: 0px;
      }
    </style>
  </defs>
  <path class="cls-1" d="M297.63,0C320.84,0,344.04,0,367.25,0c-.19,1.32-.05,2.83-.65,3.94-1.49,2.75-2.02,5,1.82,5.9,2.05.48,4.33.27,6.22,1.05,1.86.78,3.37,2.42,5.28,3.88,1.21-2.29,2.39-4.51,3.88-7.31,1.96,2.72,3.27,4.54,4.92,6.82-2.25,1.43-4.24,2.7-6.23,3.97,1.48,1.53,2.97,3.06,4.72,4.87.77,1.74,1.48,4.3,3.03,6.19.38.46,3.47-1.3,6.32-2.44.37,1.37.87,2.99,1.23,4.65.47,2.14.26,4.65,1.33,6.39,3.37,5.45,1.08,10.88.43,16.29-.12,1.01-1.49,2.32-2.56,2.68-3.17,1.07-6.47,1.73-9.72,2.55.02.41.04.82.06,1.23h8.52c1.27,4.78-3.69,9.36.33,12.1,2.05-1.74,3.7-3.14,5.46-4.62,9.05,12.33,7.75,14.7-.74,20.48,1.08,3.55,2.17,7.1,3.25,10.66.56-.1,1.13-.21,1.69-.31-.18-2.04-.35-4.08-.56-6.53,1.95-.16,3.82-.32,5.76-.48.08.88.32,1.46.14,1.85-2.27,4.91-2.51,9.13,2.2,13.18,1.59,1.37,2.95,4.84.06,7.45-.68.62-1.21,2.6-.8,3.06,3.72,4.23.22,6.51-2.78,9.26,2.34,2.19,4.47,4.19,6.83,6.42-1.27,4.26-6.95,7.78-3.37,13.46.09.15-.27.57-.4.87-1.63,3.89-.03,6.08,3.56,7.81,1.44.7,2.21,2.79,3.28,4.25-1.34.45-2.8.71-3.98,1.42-1.01.61-1.69,1.74-2.52,2.65,1.07.71,2.09,1.9,3.23,2.02,1.34.14,2.78-.65,4.18-1.03.11.31.23.63.34.94-1.54,1.13-3.08,2.27-5.1,3.76,2.57,1.23,5.26,1.68,6.46,3.26,2.37,3.13,3.96,6.87,5.79,10.4.42.81.91,1.88.72,2.67-1.14,4.64.24,10.25-5.05,13.38-.53.31-.89,1.5-.78,2.2.54,3.49,1.26,6.96,1.93,10.48,4.61,1.16,6.1,5.21,3.88,11.3.98.77,1.95,2.17,3.07,2.31,6.67.82,6.25,5.68,5.57,10.12-.63,4.07-.1,7.13,4.01,8.9-3.35,8.76-3.95,16.93,3.07,24.08.39.4.07,1.41.28,2.08,1.33,4.31-1.1,8.84,1.51,13.36,1.54,2.67,3.7,6.95-.6,9.54.95,1.52,1.73,2.75,2.46,3.92-.99,1.19-1.85,2.21-2.73,3.27,2.7,1.78,4.97,3.28,7.29,4.81-4.46,5.08-3.72,10.84,1.37,10.87,4.53.03,6.23,2.11,8.81,5.21,4.54,5.45,5.22,11.25,4.02,17.57-1.04,5.47-.7,6.36,4.28,7.39,2.04,4.71,4.13,8.96,5.71,13.4.77,2.15-.15,5.17,1.03,6.87,2.55,3.67,1.47,5.99-1.54,8.27-2.54,1.93-2.36,3.64.05,5.67.9.76,1.74,2.48,1.52,3.53-.57,2.72-1.75,5.3-2.76,8.15,3.61,1.53,4.9,3.74,1.85,7.14-.67.75-1.23,2.8-1.1,2.88,3,1.63.08,3.14.05,4.66-.06,2.46.18,4.93.26,6.86,2.37-1.29,3.96-1.88,5.2-2.9,1.19-.99,2.67-2.37,2.79-3.69.11-1.26-1.36-2.67-2.13-4.02,1.9-.12,3.78.29,4.16,1.27,1.17,3.03,2.12,6.24,2.46,9.45.18,1.72-1.03,3.61-1.65,5.41-1.26,3.66-2.6,7.3-3.76,10.99-.13.42.65,1.11.99,1.69,1.06,1.77,2.11,3.55,3.17,5.33.4-.39.81-.77,1.21-1.16-1.32,2.93-2.63,5.86-3.95,8.79-1.87-4.22-2.48-8.11-3.25-11.97-.31-1.55-.86-3.11-1.65-4.46-.15-.26-2.68.21-2.85.74-.49,1.56-1.09,4.14-.31,4.85,3.17,2.88,2.18,4.87-.45,7.21-.53.47-.27,1.83-.34,2.49,1.87.62,3.45,1.15,5.35,1.78-3.4,1-6.71,1.01-7.65,2.51-1.07,1.71-.02,4.74.11,7.19.77.29,1.53.59,2.3.88.91-1.84,1.81-3.69,2.47-5.02,1.24,3.74,2.2,6.63,2.78,8.35-1.97-.42-4.62-1.58-7.11-1.3-1.37.16-3.73,3.12-3.42,4.13.57,1.84,2.8,3.16,4.83,5.18-.58,7.62-2.9,8.85-9.77,4.25-3.84-2.57-6.39-1.26-7.06,3.3-.3,2.07-1.4,4.02-2.14,6.03-.64.21-1.28.42-1.92.63-2.41-2.66-4.81-5.32-7.24-8-2.06,3.04-8.36-4.32-10.38,2.47,2.2.53,4.06.98,5.92,1.43-1.47,2.45-2.95,4.89-4.56,7.57-2.59-2-4.37-3.37-6.22-4.8.92-1.69,1.64-3.01,3.01-5.53-3.04,1.68-5.32,2.28-6.58,3.76-2.93,3.45-4.68,3.58-7.36-.31-1.78-2.59-2.81-2.87-4.45.4-.71,1.42-3.61,1.73-5.52,2.55-.37-1.72-.55-3.5-1.15-5.13-1.01-2.75-2.26-5.41-3.56-8.03-.06-.11-2.27.41-2.32.79-.67,5.19-5.58,3.95-8.79,5.69.5-3.74,1.01-7.48,1.57-11.64-1.12-.64-2.77-1.59-4.43-2.53,3.99-.47,9.47,4,10.63-2.28,1.33-7.22-6.12-1.27-8.46-4.24v-4.36c2.93,6.63,8.59-2.52,12.03,3.36.85-3.5,1.46-6.03,2.2-9.08-6.09,3.48-11-.12-16.06-.28-3.49-.12-5.39-4.99-9.47-2.98.92-2.09,1.85-4.18,2.88-6.51-.84-.16-1.63-.26-2.39-.45-5.12-1.32-5.57-.89-4.71,4.54.1.66.11,1.32.16,1.99-5.95-4.55-3.83-10.32-2.37-16.18,2.03-.1,4.11-.2,6.58-.32-.4-1.79-.7-3.16-.92-4.14-2.38-.39-4.27-.7-6.03-.99,1.21-3.94,3.68-7.7,3.02-10.81-1.07-5.05,1.2-6.4,5.13-7.32-1.65-4.63-5.25-3.96-8.63-3.74-.37-1.08-.8-1.99-.98-2.95-.59-3.18-1.03-6.15-5.3-2.86-.91.7-2.81.1-4.25.1,0-.53,0-1.07,0-1.6,1.55-.24,3.1-.49,4.17-.66.18-3,1.01-5.91.31-8.37-.71-2.49-2.98-4.52-4.5-6.8-.25-.37-.13-.97-.27-1.44-.63-2.17-1.4-4.31-1.89-6.51-.38-1.71-.44-3.5-.64-5.25,1.47.28,2.95.84,4.41.77,2.04-.09,4.36-.17,6.01-1.16,1.44-.86,2.5-2.99.15-4.59,2.35,1.15,4.71,2.38,5.95-1.33.29-.87.35-1.84.77-2.64.72-1.37,1.64-2.65,2.47-3.96-1.55-.68-3.1-1.36-4.87-2.15-.4,2.62-.37,4.7-1.11,6.46-.59,1.41-2.1,2.43-3.2,3.63-.95,1.01-1.89,2.01-2.97,3.16-6.83-6.75.83-9.3,3.71-13.21-8.17-1.99-8.89,3.44-9.81,9.06-2.78-.92-5.06-1.68-7.76-2.57,1.08-1.47,1.81-2.47,2.99-4.1-2.12.42-3.51.69-5.03.98,0-3.4-1.14-7.36.31-9.7,1.56-2.51,5.57-3.51,8.22-5.01,2.37,1.91,1.69,6.82,7.15,4.14-1.73-2.92-3.34-5.66-4.96-8.39-.33.6-.65,1.19-.98,1.79-3.16-.57-6.3-1.56-9.47-1.63-5.81-.13-4.25-4.39-4.74-7.58-.1-.66-.11-1.41-.42-1.96-3.17-5.49-.4-10.63.89-16.12-.99,0-1.92-.05-2.85,0-3.11.21-5.72-2.44-5.78-5.37-.08-4.04-.54-8.07-.84-12.11-.35-2.1,5.58,1.13,3.48-4.52-1.75.32-3.36.61-6.23,1.13-.39-3.03-1.95-6.57-.88-8.89,1.76-3.81,5.23-6.83,8.42-10.73-2.1-1.39-3.79-2.5-5.42-3.58-1.76,1.55-3.2,2.83-4.89,4.32-1.94-5.19-5.15-7.67-11.28-6.42,4.65-6.65,4.86-14.19,6.41-21.29-1.1-.28-1.89-.48-2.68-.68,1.81-1.63,3.61-3.26,6.05-5.46-1.6-.79-3.76-1.4-5.32-2.73-1.94-1.65-3.53-3.78-4.92-5.93-.32-.5.53-2.49,1.27-2.81,5.2-2.22,3.02-5.8,1.16-8.42-2.45-3.46-3.88-6.41-2.53-10.91,2.43-8.1,1.44-15.88-5.82-23.76v10.92c-2.77-1.93-5.32-3.46-7.52-5.39-.78-.68-.73-2.34-.97-3.57-.05-.24.39-.54.49-.85.8-2.58,1.57-5.17,2.34-7.76-.73-.23-1.46-.46-2.19-.69-.84,2.14-1.67,4.28-2.52,6.46-.2-.04-.51-.09-.81-.15-1.27-.25-3.32-1.11-3.66-.66-1.54,2-.43,2.27,1.75,2.94,1.92.6,1.69,2.97-.11,4.76-2.35,2.34-4.38,5.01-6.55,7.54-1.55.74-2.7,1.81-3.81,2.93-.45.45-.72,1.34-1.2,1.44-5.92,1.3-4.7,3.73-1.51,7.13.87.93,1.98,3.47-1.66,4.12-1.89.34-3.38,2.96-5.05,4.56-1.4.65-2.92,1.33-3.86,2.49-2.37,2.93-4.48,6.08-7.25,9.9,1.33,4.18-1.24,8.5-4.56,12.66-1.09,1.37-2.26,2.86-2.74,4.48-1.08,3.69-1.37,7.64-2.67,11.24-1.97,5.51-4.85,10.69-6.73,16.22-2,5.92.94,10.21,6.71,11.1-1.63,2.97-3.29,6-4.33,7.91-2.83-.13-6.63-1.42-8.17-.08-1.92,1.66-3.53,4.8-1.68,8.66,1.88,3.93,3.18,8.65.51,14.33-.71-2.37-1.1-3.66-1.47-4.89-8.07,1.47-6.11,9.66-9.22,13.36.87,2.26,2.58,4.51,2.02,5.61-3.55,6.99-3.58,8.81,1.38,14.5-1.6,2.75-3.24,5.58-4.2,7.22-2.32.21-3.41.31-4.5.42.2.8.43,1.6.59,2.41.15.76.38,1.55.31,2.31-.43,4.62-.94,9.24-1.55,15.1-2.24.13-5.57.32-9.16.53v10.22c-.62-.44-1.24-.87-1.86-1.31-3.27,2.19-6.53,4.38-9.85,6.6.59,1.78,1.14,3.42,1.73,5.21q-4.21-.75-2.78-5.44c-4.58-2.87-11.84-2.57-15.98,1.54,3.78.21,6.72.17,9.58.63,1.19.19,2.53,1.23,3.18,2.27.34.54-.4,2.49-1.12,2.83-2.24,1.07-4.66,2.03-7.1,2.4-3.98.6-5.05,2.79-4.67,7.73,1.8-2.5,2.88-3.99,4.72-6.54.56,2.3,1.42,3.84,1.04,4.95-.25.72-2.29.88-3.55,1.19-6.62,1.63-13.17,3.04-14.04-5.32-3.11-.88-5.31-2.25-7.13-1.86-3.45.75-7.68-4.82-11,2.27,1.72,1.07,3.68,2.29,5.71,3.55-8.83,7.36-13.32,10.17-15.76,4.43.65-2.99,10.02,1.44,5.55-5.41,1.03-1.66,1.79-2.87,2.54-4.09-1.31-.65-2.56-1.64-3.93-1.88-1.95-.35-4.77-1.01-5.88-.03-4.4,3.89-5.85-.91-9.15-2.12,2.92-2.27,5.38-4,7.62-6,1-.89,1.56-2.3,2.31-3.47-1.51-.8-2.99-2.09-4.56-2.22-.9-.07-1.95,1.73-2.94,2.7.27.3.53.59.8.89-1.51.38-3.03.76-3.52.88-.25-2.47-.49-4.78-.78-7.61-3.91,2.84-6.95,5.05-10.43,7.58,1.27,3.59,10.42-.63,8.36,8.32-2.33-1.79-4.07-4.1-6.14-4.45-2.25-.38-4.8,1.07-7.38,1.76-.4-1.25-.96-3.03-1.59-5.01,1.17-.65,2.24-1.25,3.34-1.87-3.42-4.53-6.68-8.84-9.94-13.15,7.33,1.03,7.53.94,6.99-3.37-2.31-.36-4.56-.71-6.75-1.05-.29-4.12-2.32-7.41-5.27-9.35-1.01-.66-2.53-2.39-2.31-2.77,2.43-4.25-.02-9.93,4.34-13.68,2.73-2.35,2.39-4.68-1.6-5.55-1.44-.32-2.97-.51-4.27-1.14-.67-.32-1.13-1.44-1.3-2.28-.12-.6.39-1.33.61-2-1.02.05-2.06-.02-3.06.18-1.61.32-3.97,1.71-4.64,1.11-4.81-4.31-6.43.07-9.33,2.94,7.28-1.22.93,5.29,4.61,6.19.83-.62,1.95-1.24,2.8-2.13,2.58-2.67,3.74-1.34,5,1.34.71,1.5,2.21,2.63,4.23,4.91-1.8,1.9-4.26,4.48-6.71,7.06-.64-.28-1.28-.56-1.91-.84-.11-1.79.05-3.66-.43-5.35-.29-1.02-1.55-1.76-2.37-2.63-.64.85-1.6,1.63-1.83,2.58-.26,1.08-.06,2.38.28,3.47.76,2.38,1.73,4.7,2.77,7.44.39.07,1.65.29,2.9.5-.06.53-.12,1.06-.18,1.59-1.82-.25-3.64-.5-5.85-.79.11,3.98-3.76,8.21.86,10.29-1.04,3.31-1.96,6.28-2.78,8.89,2.18.1,3.79.18,5.4.26-.83,1.42-1.58,2.9-2.52,4.24-1.75,2.51-3.6,4.94-5.36,7.33,5.62,5.09,5.58,14.13.79,20.11,2.22,1.14,5.74,1.77,6.63,3.65,1.85,3.91,2.31,8.48,3.43,13.14-2.16,1.32-4.86,2.8-2.33,6.3.36.5.19,2.02-.26,2.35-3.98,2.88-1.77,5.68.21,8.77-2.4,1.98-4.76,3.94-6.84,5.66-.23,1.32-.45,2.56-.66,3.8-.41-.04-.82-.08-1.23-.12-.13-1.05-.26-2.1-.39-3.21-7.03,2.15-9.11,5.9-4.85,8.43,3.48,2.07,2.12,3.91,2.37,6.7-6.19-6.22-16.79-6.96-22-2.49,2.24,1.62,5.33,2.86,6.69,5.13,1.27,2.11.69,5.32,1.02,9.04-.79,1.23-1.91,4.96-3.8,5.4-2.15.5-4.99-1.93-6.8-2.76.91-4.08,1.56-6.99,2.21-9.91-.63-.29-1.27-.59-1.9-.88-3.45,3.18-6.89,6.37-10.33,9.54-6.32-3.56-9.09-3.21-12.6,1.5-2.78-1.93-5.55-3.87-8.12-5.66,2.46-1.71,4.39-3.06,6.33-4.41-.21-.43-.42-.87-.63-1.3-1.95.42-3.94,1.3-5.83,1.12-1.98-.19-3.93-1.27-5.7-2.3-.23-.14.71-2.28,1.17-3.69-.35-.29-1.04-.86-1.73-1.43,1.89-.89,3.59-.53,5.22-.74,1.07-.14,2.62-.93,2.89-1.77.31-.96-.34-3.16-.97-3.32-2.13-.55-4.59-1.02-6.64-.46-2.78.77-5.29,2.52-9.48,4.63,1.12-4.32,1.89-7.27,2.67-10.27-2.91-1.86-2.83-1.72-6,.17-1.05.63-2.99.82-3.92.25-.69-.43-.59-2.44-.52-3.72.07-1.17.57-2.31.89-3.47-.52-.26-1.04-.52-1.55-.78-1.25,1.94-2.5,3.88-3.75,5.82-.14-.23-.29-.46-.43-.69-1.82,1.67-3.64,3.33-5.47,5C0,442.61,0,439.24,0,435.88c3.68-1.16,7.37-2.33,11.23-3.55-3.19-4.01-5.57-7-8.08-10.16-1.52,1.75-2.33,2.68-3.15,3.62,0-2.02,0-4.04,0-6.05,2.54-.33,5.09-.65,7.41-.95.44,2.34.79,4.19,1.14,6.04.58-.1,1.16-.2,1.75-.3.23-3.93.46-7.87.62-10.54-3.96-.48-7.44-.9-10.91-1.31,0-2.35,0-4.71,0-7.06,2.61.21,5.22.42,9.13.73-2.89-2.48-4.57-3.81-6.11-5.28-1.11-1.07-2.02-2.34-3.02-3.51,0-4.71,0-9.42,0-14.13,3.5-.34,7.27-.09,9.81-5.02-3.6-.75-6.71-1.39-9.81-2.04,0-16.82,0-33.63,0-50.45,2.9,2.87,6.51,2.2,9.95-1.85.92.5,1.84,1.01,3.03,1.66-.63-3.58-1.18-6.69-1.9-10.79-1.33,2.6-2.31,4.53-3.01,5.89-3.02.78-5.55,1.42-8.07,2.07,0-9.08,0-18.16,0-27.24,1.56-.18,3.13-.36,5.59-.65-1.26-2.09-2.62-4.35-3.99-6.62.23-.21.47-.43.7-.64,1.23.59,2.46,1.18,3.65,1.75,1.2-1.87,2.34-3.65,3.23-5.04,2.74.73,5.21,1.38,7.27,1.92v-12.84c-1.79,1.71-2.77,3.36-4.13,3.77-1.67.51-4.35.72-5.36-.24-3.83-3.64-3.49-6.77.43-10.76.59-.6,1.19-1.19,1.71-1.83,2.75-3.42,4.97-3.52,8.67.66.85-1.33,2.1-2.5,2.39-3.87.66-3.15,1.29-6.43,1.05-9.59-.12-1.51-2.24-2.87-3.86-4.77-.44,3.28-.19,6.34-1.37,8.66-1.03,2.03-3.68,3.24-5.95,5.09-.32-3.32-.7-5.16-.62-6.97.22-5.01,3.2-8.74,6.12-12.49,6.95.5,7.77-.27,9.5-9.66-1.93.89-4.71,1.7-4.65,2.21.43,3.99-3,5.21-4.83,7.53-3.06-4.18-3.32-8.19,1.16-11.48,1.85-1.36,4.14-2.12,6.02-3.05-1.64-3.61-3.37-7.22-4.89-10.92-.32-.79-.23-2.39.29-2.77,3.89-2.8,7.94-5.39,12.26-8.25.17-1.04.41-2.55.52-3.25-2.09-.16-4.27-.33-6.33-.49.93-4.05,1.61-6.97,2.24-9.7,2.68,1.73,4.31,3.48,6.17,3.78,1.64.26,3.54-1.08,5.25-1.69-.47-1.54-.84-2.76-1.27-4.14-2.06.27-3.99.52-6.13.8-.36-1.37-.77-2.93-1.18-4.48.35.26.7.51,1.04.77,1.82-2.64,3.65-5.28,5.47-7.92,2.37.62,4.71,1.41,7.12,1.78.93.14,2.08-.58,2.96-1.15.29-.19.28-1.61.05-1.71-2.28-1.05-4.59-2.39-6.99-2.66-.86-.1-2.02,2.49-3.04,3.86-1.84-.73-4.6-.96-5.31-2.29-1.38-2.59.33-4.13,3.18-5.2,4.12-1.55,7.94-3.91,12.03-5.99.25-.99.61-2.71,1.11-4.39.35-1.18.87-2.32,1.31-3.48-1.32.35-2.91.36-3.9,1.13-1.71,1.34-3.04,3.15-5.42,5.71,0-3.28-.13-4.74.03-6.17.36-3.24.35-6.89,5.58-4.56.89.4,2.61-1.05,4.59-1.94-1.71-1.9-2.69-2.99-2.99-3.33-3.04.81-5.01,1.34-6.98,1.87,2.68-4.84,6.04-7.09,11.15-6.89,2.31.09,6.61.1,6.38-4.16-3.1-.47-5.59-.84-7.82-1.18.49-2.46,1.49-4.41.92-5.16-3.9-5.1.54-8.02,2.61-11.63,1.03-1.81,2.86-5.13,2.41-5.51-3.44-2.92.37-3.81,1.24-5.35,1.57-2.76,5.33-6.13,4.66-7.94-1.73-4.63,1.92-4.71,3.68-6.5,1.01-1.03,1.89-2.18,2.4-2.79,1.95.82,3.7,1.87,5.57,2.16.64.1,1.58-1.7,2.53-2.81-3.5-.88-6.12-1.55-9.79-2.47,1.96-1.9,3.24-3.15,4.52-4.4,3.05,3.66,6.35-.06,9.42.43,1.39.22,2.92,1.96,3.6,3.38.41.86-.87,2.41-1.05,3.7-.11.8.4,1.7.63,2.55.86-.24,1.98-.21,2.52-.76,1.91-1.91,1.26-10.78-.46-13.53,5.18,1.92,10.37,3.84,15.72,5.83.2-7.64-5.24-7.14-9.57-8.91,3.51-1.87-2.45-8.34,4.25-7.81,2.95.23,5.69,3.16,8.48,4.83,0,.52-.08.88.01,1.18.48,1.51,1,3.01,1.51,4.51.53-1.42,1.07-2.84,1.6-4.27.7-1.92,1.39-3.85,2.03-5.61,2.7,3.03,4.78,5.37,7.05,7.91-2.65,4.24.51,6.39,4.66,9.32.74-2.94,1.34-5.34,2.09-8.32.69.32,1.71.84,2.76,1.28,1.11.47,2.26.87,3.39,1.3.39-1.17.99-2.33,1.12-3.53.19-1.71.05-3.46.05-6.87,2.56,2.22,5.11,3.5,5.01,4.52-.31,3.1-1.32,6.25-2.7,9.07-.8,1.64-2.84,2.67-4.75,4.35,2.6,1.09,3.93,1.65,5.68,2.38.54-4.43,2.35-7.42,6.9-7.8.33-.03.73-.7.89-1.15,1.86-5.07,5.55-3.24,8.7-2.03,1.21.46,1.74,2.49,2.79,3.6,3.76,4,9.5,2.17,14.38,4.95-.78,1.81-1.23,4.03-2.5,5.58-2.47,3.02-3.28,5.76.35,9.47,1.09-3.2,2.04-5.97,2.97-8.71.86.82,2.33,1.63,2.88,2.86.94,2.13,2.21,4.71,1.76,6.74-1.15,5.11-3.28,9.99-4.79,15.03-.24.81.39,2.31,1.11,2.9,6.71,5.53,9.02,13.48,6.04,21.38-1.86,4.93.53,8.41,5.86,9.12,2.87.38,4.27,2.54,3.14,5.32-1.35,3.32-3.19,6.44-4.6,9.21,1.41,1.74,2.83,3.42,4.14,5.17.64.85.98,2.54,1.63,2.64,1.01.15,2.82-.44,3.18-1.23,2.16-4.66,4-9.47,6.29-15.08,4.13-1.92,9.62-4.46,15.32-7.1-3.53-1.99-6.31-3.55-10-5.63,5.63-4.18,9.8-7.28,14.35-10.67-1.9-1.42-3.36-2.51-5.56-4.15,7.06-.91,12.9-1.66,18.69-2.41-.75-1.89-1.5-3.79-2.25-5.7-1.75.18-3.51.37-5.21.55-.13-1.92.33-3.88-.45-4.89-2.99-3.93.31-4.87,2.65-6.3,1.47-.9,3.83-1.29,4.39-2.54,2.37-5.28,4.03-10.86,6.31-16.18,1.15-2.67,3.08-4.99,4.65-7.47,1.32-.96,1.94-3.53,2.52-3.52,1.63.02,3.25,1.11,5.02,1.84-3.11,3.68-5.55,6.57-7.99,9.45.4.58.79,1.16,1.19,1.75,1.2-.58,2.62-.94,3.54-1.81,1.18-1.12,1.87-2.73,2.94-3.99,3.08-3.63,6.24-7.18,9.29-10.67-5.17-5.97-6.65,5-11.08,1.13.44-4.63.53-8.88,6.93-10.42,2.63-.63,7.98-2.87,5.47-8.72-.79-1.85.32-3.39,3.17-2.58,1.66.47,3.69-.38,5.55-.64.02-.67.05-1.33.07-2-2.25-.75-4.49-1.5-7.48-2.49.79-2.01,1.1-5.39,2.54-5.97,3.48-1.39,5.57-3.31,6.76-6.79,2.65-7.76,11.06-12.56,11.28-21.65.01-.46.84-1.14,1.41-1.32,4.24-1.31,8.78-1.86,11.84-5.76.34-.43,2.18.5,3.32.47,2.25-.05,4.58-.06,6.7-.68.66-.19.76-2.29,1.11-3.52-1.84-.48-3.73-1.51-5.49-1.31-2.06.23-4,1.54-6.21,2.47-1.14-5.78.96-8.39,5.05-9.77,1.06-.36,2.09-.77,3.14-1.16ZM188.01,178.66c-.35.42-.7.85-1.05,1.27,1.36,1.25,2.55,3.08,4.14,3.53.98.28,2.58-1.5,3.87-2.4.33-.23.46-.83.8-.96,5.67-2.12,6.67-8.4,2.05-13.03q-5.05,11.65-9.8,11.58ZM248.11,102.98c-3.93,3.02-5.46,9.96-3.25,12.99.97,1.33,3.3,1.68,5.01,2.48.36-.53.72-1.05,1.08-1.58-1.05-2.65-2.1-5.3-3.15-7.95-.18.22-.36.43-.53.65.24-1.88.48-3.76.85-6.59ZM127.11,316.96c-.19-.4-.38-.81-.58-1.21-2.6.59-5.24,1.05-7.79,1.81-1.14.34-2.95,1.27-2.97,1.97-.06,2.08.52,4.21,1.11,6.25.09.31,2.26.45,2.34.24.57-1.56.86-3.23,1.25-4.86.07-.31.19-.6.25-.79,2.18-1.17,4.28-2.3,6.37-3.43ZM280.32,24.51c-2.56,4.21-2.81,7.78.68,10.2.68.47,3.72-2.47,6.03-4.08-2.68-2.44-4.47-4.07-6.72-6.12ZM463.69,462.67c.43.11.85.22,1.28.32,1.2-2.93,2.74-5.77,3.44-8.82.29-1.27-1.21-2.96-2.5-5.78-1.72,2.72-2.8,4.44-3.88,6.15,2.61,1.19,1.56,2.76.78,4.65-.37.89.54,2.3.88,3.48ZM35,221.26c-.16-4.99-.91-5.47-11-7.34v9.45c1.86-2.98,2.96-4.75,3.86-6.19,2.18,1.24,4.38,2.5,7.15,4.08ZM458.39,325.12c.34-.57.68-1.13,1.02-1.7-2.31-2.22-4.61-4.44-6.92-6.65-.38.34-.76.68-1.14,1.02v8.44c2.6-.41,4.82-.76,7.04-1.1ZM15.36,313.88c.28-.4.56-.79.84-1.19-3.57-2.54-7.08-5.17-10.78-7.5-.5-.31-2.18.66-2.83,1.44-.29.35.35,2.22.98,2.5,3.87,1.73,7.86,3.19,11.8,4.75ZM258.52,72.72c.79-.03,1.58-.05,2.37-.08.45-2.69,1.07-5.38,1.23-8.09.04-.61-1.59-1.91-2.35-1.83-1.11.11-3.06,1.28-3.01,1.82.29,2.76,1.12,5.46,1.76,8.18ZM205.46,187.15c1.45-2.69,2.99-5.12,4.08-7.74.46-1.11.46-3.38-.17-3.78-1.18-.74-2.98-.49-3.84-.58-.23,3.02.36,5.68-.71,6.86-1.85,2.06-2.28,2.05.63,5.24ZM351.59,294.81c.41.37.83.75,1.24,1.12,1.86-1.79,4.75-3.31,5.29-5.43.5-2-1.47-4.62-2.78-8.1-1.6,5.3-2.67,8.85-3.75,12.4ZM217.23,172.39c-2.62-4.59,7.13-7.65,1.38-12.71-4.94,8.27-5.28,10.53-1.38,12.71ZM354.85,232.8c-2.71,1.2-4.81,2.12-7.02,3.1,2.22,3.03,3.88,5.29,6.25,8.54.24-3.59.46-6.95.76-11.64ZM32.09,242.18c-1.82.92-3.39,1.72-4.31,2.19-.43,2.32-.8,4.3-1.16,6.28,7.75-2.32,8.91-4.02,5.48-8.47ZM409.69,111.56c-1.55-3.97-2.46-6.3-3.37-8.63-.41-.09-.83-.17-1.24-.26-1.06,2.81-2.12,5.62-3.18,8.43,2.11.12,4.23.25,7.8.46ZM353.45,317.52c.14.89.28,1.79.43,2.68,2.15.14,4.29.29,6.44.43.07-1.94.15-3.87.22-5.81-2.36.9-4.72,1.8-7.09,2.7ZM6.14,350.15c.56.04,1.12.07,1.68.11,1.08-1.53,2.17-3.06,3.82-5.4-2.83-1.03-5.04-1.83-7.25-2.62-.32.37-.64.74-.96,1.11.9,2.27,1.8,4.53,2.7,6.8ZM445.46,331.11c2.9,1.4,5.15,2.49,7.4,3.58.35-.16.71-.32,1.06-.47-1.48-3.19-2.96-6.37-4.97-10.69-1.5,3.25-2.53,5.49-3.5,7.59ZM118.81,344.42c1.01,2.85-.56,6.95,4.45,7.51,1.95-7.11,1.7-7.55-4.45-7.51ZM3.38,330.99c-.44.17-.89.34-1.33.52,1.27,2.31,2.54,4.62,4.3,7.85,1.99-2.51,3.16-4,4.43-5.6-3-1.12-5.2-1.94-7.41-2.76ZM416.49,187.28c.35-.25.69-.5,1.04-.74-.31-2.73-.62-5.46-1.1-9.65-2.22,2.01-5.06,4.11-4.85,4.48,1.25,2.19,3.2,3.99,4.92,5.92ZM282.57,61.24c.83-4.95-3.35-4.2-5.76-4.58-1.65-.26-5.11-.59-4.22,2.67,3.64.7,6.72,1.29,9.98,1.91ZM55.8,157.92c.24-.06.48-.11.73-.17.69-1.96,1.17-4.04,2.12-5.86,2.07-3.95,1.84-4.47-2.85-5.17v11.2ZM25.15,270.82c-6.84,5.29-3.01,7.93.92,11.14-.32-3.8-.58-7.05-.92-11.14ZM17.7,376.97c-.88-2.03-1.73-3.97-2.99-6.88-1.94,3.07-3.18,5.04-4.97,7.89,3.31-.42,5.16-.65,7.97-1.01ZM10.24,387.41c-.87-.05-1.75-.1-2.62-.15-.34,1.72-1.35,3.71-.8,5.07.39.96,2.89,1.07,4.45,1.56-.34-2.16-.68-4.32-1.03-6.48ZM459.83,359.39c-.28.46-.56.91-.85,1.37,1.52.85,3.04,1.7,4.55,2.55.92-2.22,1.93-4.41,2.64-6.69.07-.23-1.7-1.02-3.34-1.98.7,2.01,1.1,3.13,1.66,4.75h-4.66ZM324.98,187.67c1.77,2.02,2.98,4.2,3.67,4.05,2.15-.48,4.11-1.85,6.14-2.87-.16-.62-.32-1.24-.48-1.86-2.55.19-5.1.38-9.33.69ZM13.45,434.19c.3.47.59.94.89,1.41,1.67-.82,3.83-1.26,4.84-2.59.84-1.09.31-3.23.38-4.9-.42-.09-.85-.19-1.27-.28-1.61,2.12-3.23,4.24-4.84,6.36ZM9.94,355.84c-.61-.5-1.22-1.01-1.83-1.51-1.4,1.2-2.8,2.4-4.21,3.61,1.01,1.13,2.02,2.25,3.02,3.38,1-1.83,2.01-3.65,3.01-5.48ZM237.52,130.64c.99,2.69,1.72,4.67,2.44,6.65.38.05.75.1,1.13.15.33-2.85.66-5.69.99-8.54-.46-.16-.92-.32-1.39-.49-1.27.89-2.54,1.78-3.17,2.22Z"/>
  <path class="cls-1" d="M382.58,446.8c-.61,1.29-1.23,2.57-2.51,5.25,3.31-.31,5.62-.53,8.43-.8.77,1.05,1.99,2.72,2.4,3.28-1.36.97-2.87,1.59-3.68,2.72-2.5,3.48-6.42,5.02-8.91,2.72-2.61-2.42-2.57-5.54-.54-8.52,1.24-1.82,2.52-3.61,3.78-5.42.34.26.68.52,1.03.77Z"/>
  <path class="cls-1" d="M179.69,407.57q-3.8-2.38.23-6.94c-1.88-.59-3.68-.79-5.02-1.68-1.26-.83-2.03-2.39-3.01-3.63.17-.54.35-1.08.52-1.63,2.38.54,5.12.5,7.04,1.75,3.05,1.98,2.91,6.3.25,12.13Z"/>
  <path class="cls-1" d="M4.32,458.78v-8.68c2.46-.34,4.79-.66,7.29-1,1.06,3.76.16,5.08-7.29,9.68Z"/>
  <path class="cls-1" d="M433.32,486.54c-5.95-.97-8.21,1.92-7.7,7.55-3.64-1.73-4.82-3.79-3.39-6.04,2.95-4.63,7.13-1.74,11.09-1.51Z"/>
  <path class="cls-1" d="M320.38,199.48c-1.68,1.59-2.88,2.74-4.08,3.88-1.09-1.2-2.18-2.39-3.27-3.59,1.21-1.08,2.29-2.58,3.7-3.05.69-.23,2.02,1.47,3.65,2.76Z"/>
  <path class="cls-1" d="M46.37,485.06c-5.12-.95-7.69-6.03-4.52-10.36,1.57,3.61,3.07,7.05,4.52,10.36Z"/>
  <path class="cls-1" d="M438.08,492.29c.56,2.36,1.11,4.73,1.67,7.09-1.07.21-2.14.41-3.21.62-.26-2.45-.52-4.9-.78-7.36.78-.12,1.55-.23,2.33-.35Z"/>
  <path class="cls-1" d="M21.35,473.41c-.26.37-1.21,2.32-1.63,2.21-2.73-.7-5.34-1.85-7.67-3.64,2.8.43,5.6.86,9.29,1.43Z"/>
  <path class="cls-1" d="M85.54,75.5c-.98,5.27-3.82,5.18-7.63,3.79,1.15-4.3,3.29-5.85,7.63-3.79Z"/>
</svg>