<?xml version="1.0" encoding="UTF-8"?>
<svg id="Layer_1" data-name="Layer 1" xmlns="http://www.w3.org/2000/svg" viewBox="0 0 344.15 500">
  <defs>
    <style>
      .cls-1 {
        fill: #000;
        stroke-width: 0px;
      }
    </style>
  </defs>
  <path class="cls-1" d="M211.15,378.16c.87-.35,1.74-.69,2.93-1.16-.71-.28-1.11-.44-1.68-.66.34-.66.63-1.22.89-1.71.77.52,1.41,1.02,2.11,1.4,1.02.56,1.51,3.03,1.01,4.06-.48.98-.52,2.17-.91,3.21-.33.88-.69,1.91-1.36,2.47-1.75,1.46-2.77,5.07-1.65,7.13-1.56,1.17-3.72,2.21-1.73,5.01-1.57-.34-2.81-.61-4.42-.95.61-.4,1.1-.73,1.63-1.08-1.73-1.38-2.74-1.14-3.06.77-.22,1.37-.95,3.02,1.51,3.46.5.09.98,1.55,1.05,2.41.11,1.37.75,1.91,1.84,2.06,1.25-3.5,2.05-7.21,7-7.13.56,1.04,1.26,2.32,2.06,3.79-2.17-.99-3,.49-3.73,1.95-.74,1.48-1.59,2.42-3.46,2-.53-.12-1.5.35-1.77.84-.46.84-.67,1.9-.67,2.87,0,.22,1.31.43,2,.66.23.08.43.25.66.32.64.2,1.3.37,1.95.55v-.02c-.38.19-.72.47-1.11.56-2.51.6-2.98,1.83-1.35,4.25.05-.55.08-.91.13-1.44.52.38,1.13.62,1.4,1.07.22.38.16,1.04,0,1.49-.09.23-.81.48-1.04.35-1.5-.86-2.16-.02-2.83,1.16-.33.58-.98.98-1.89,1.84.09-1.86.15-3.17.22-4.69.57-.21,1.28-.46,2.08-.75-.35-1.78.11-3.84-2.29-4.63-.28-.09-.3-.94-.48-1.43-.18-.47-.4-.93-.61-1.39-.43.24-1.01.38-1.25.74-.7,1.04-1.25,2.16-1.83,3.18-.84-.46-1.48-.89-2.18-1.17-1.44-.58-2.01-2.9-.95-4.04.21-.22.4-.48.66-.62,1.98-1.01,3.47-2.22,2.01-4.71-1.03.23-2.22.27-3.14.79-.56.32-1.09,1.48-.94,2.08.34,1.34-.35,1.24-1.26,1.32-.1-.54-.04-1.15-.31-1.41-.32-.31-1.18-.61-1.38-.43-1.39,1.24-2.77,2.52-3.96,3.96-.52.63-.58,1.64-.64,2.59-2.01,1.21-2.57,3.02-2.18,5.35.13.78-.04,1.71-.35,2.45-.5,1.2-1.4,1.41-2.45.52-.36-.31-.69-.82-1.1-.89-.66-.13-1.37.03-2.06.06.18.56.2,1.28.58,1.65,1.23,1.2,2.56,2.3,3.93,3.35.2.15.92-.07,1.17-.34.4-.42.52-1.11.93-1.53.45-.46,1.09-.74,1.64-1.11.23.62.69,1.26.66,1.87-.07,1.42-2.16,2.79-3.57,2.48-1.55-.34-3.13,1.19-3.34,2.98,1.27.56,2.48,1.08,3.68,1.61-.1.23-.2.46-.3.7-4.2.85-7.06-1.71-10.44-4.25,1.45-.41,2.46-.69,3.47-.97-1.25-.62-2.32-2.01-4-.81-.38.27-1.14.46-1.48.26-1.81-1.05-4.48-1.29-4.34-4.35.03-.56-.47-1.12-.56-1.7-.22-1.39,0-2.6,1.75-2.73,1.57-.12,1.54-.83.75-1.87-.36-.48-.65-1.04-1.09-1.43-.76-.68-2.2-1.17-2.31-1.9-.37-2.48-.33-5.01.9-7.39.55-1.07.78-2.3,1.25-3.75-.91,0-1.38.06-1.82-.02-.38-.07-.92-.19-1.07-.46-1.06-1.94-2.07-3.91-3.03-5.91-.15-.31.05-.79.11-1.18.27-1.81-.02-3.39-1.29-4.87-1.09-1.28-1.86-2.84-2.9-4.48,2.88-2.03,5.03-4.62,8.46-5.46.91-.22,1.61-1.32,2.8-2.35-2.16-.4-4.29.05-4.86-2.48-.6.56-1.01.96-1.44,1.37-.66-1.37-.39-2.02.94-1.98,1.06.03,2.1.59,3.16.63.93.03,2.21-.02,2.72-.59.76-.84,2.35-1.61,1.4-3.31-.14-.25.16-.72.18-1.09.04-.59,0-1.19.05-1.77.05-.56.05-1.17.29-1.65.9-1.78.23-2.99-1.82-3.12-.72-.05-1.46.02-2.17-.1-.36-.06-.86-.35-.96-.66-.09-.26.22-.76.48-1.02,1.86-1.81,1.53-4.96-.61-6.38-.48-.32-1.03-1.05-.99-1.54.12-1.34-.16-2.04-1.63-2.13-.33-.02-.97-.82-.88-1.07.67-1.93,0-3.5-1.62-5.21.89-.52,1.61-.94,2.33-1.36-.13-.25-.26-.5-.4-.76-.84.19-1.66.45-2.51.55-.5.06-1.04-.13-1.56-.21.18-.46.23-1.11.57-1.34,1.38-.95,2-1.93.61-3.36-.14-.15-.23-.46-.19-.67.34-2.05.69-4.1,1.07-6.14.08-.46.26-.9.43-1.48.51.2.93.36,1.41.55.15-.19.37-.35.42-.56.55-2.29-.14-3.75-2.15-5.04-.56-.36-.89-1.09-1.24-1.54.77-1.54,1.63-2.91,2.1-4.4.19-.61-.37-1.54-.74-2.25-.93-1.75-2.05-3.52-1.47-5.55.4-1.41.27-2.26-.87-3.26-.78-.69-1.8-1.91-.04-2.95.26-.16.21-.84.31-1.27-.5-.06-1-.12-1.86-.22.67-.82,1.25-1.52,1.89-2.31-2.87-1.85-2.47-4.63-2.33-7.31.07-1.26.27-2.51.41-3.77.02-.18-.02-.46.07-.52,2.02-1.28.86-3.08.95-4.75.15-2.69.81-5.35,1.26-8.02.8-4.67,1.65-9.34,2.4-14.01.42-2.62.93-5.26.94-7.89,0-2.42-.62-4.84-.92-7.26-.29-2.37-.44-4.76-.84-7.11-.14-.82-.76-1.6-1.27-2.32-.73-1.02-1.6-1.94-2.35-2.95-.22-.29-.27-.74-.32-1.13-.05-.4.16-.97-.05-1.2-1.33-1.5-1.79-3.76-3.93-4.52-.55-.19-1.2-.38-1.74-.27-1.7.35-1.92-.76-1.78-1.89.17-1.4-.09-2.94,1.4-4.03.53-.39.45-1.61.56-2.09-1.04-.5-2.01-.64-2.35-1.18-1.47-2.34-1.41-2.38-4.02-2.47.6-.49,1.3-.9,1.76-1.49.62-.8,1.56-1.8,1.46-2.6-.18-1.39-1.49-1.76-2.93-1.79-2.29-.05-3.79.75-5.33,2.61-1.9,2.29-3.5,4.52-3.97,7.49-.07.41-.54.76-1.09,1.51-.67-2.7.69-4.4,1.3-6.26.89-2.71,1.93-5.37,2.76-8.1.2-.66-.05-1.58-.36-2.26-.66-1.45-1.56-1.48-2.49-.22-1.51,2.06-3.03,4.1-4.53,6.16-.2.28-.41.66-.39.99.27,4.64-2.15,8.23-4.45,11.92-1.03,1.65-1.78,3.52-2.33,5.39-.57,1.91-1.66,3.57-1.87,5.72-.21,2.03-1.86,3.91-2.8,5.89-.72,1.51-1.39,3.06-1.96,4.64-.86,2.35-1.39,4.86-2.49,7.09-1.04,2.11-1.13,4.12-.9,6.35.07.65-.79,1.39-1.22,2.09-.13.2-.39.42-.37.61.32,2.86-1.71,4.84-2.64,7.23-.45,1.15-.44,2.47-.79,3.67-.47,1.59-1.15,3.12-1.61,4.72-.26.91-.5,1.92-.36,2.83.24,1.62.24,3.03-.89,4.41-.49.6-.4,1.69-.54,2.56-.04.28.17.64.07.88-.95,2.37-2.02,4.69-2.89,7.08-.37,1.02-.37,2.18-.5,3.29-.11.93-.14,1.87-.27,2.8-.16,1.13-.5,2.24-.58,3.38-.14,1.92-.29,3.58-1.75,5.27-1.11,1.28-.96,3.6-1.5,5.43-.74,2.52-1.58,5.01-2.42,7.5-.47,1.39-.6,2.62.48,3.88.42.49.51,1.56.31,2.23-.42,1.42-1.14,2.76-1.72,4.14-.44,1.05-.31,2.03.85,2.35,1.28.36,2.65.42,3.98.61.13-.18.26-.35.38-.53.04.6.21,1.22.11,1.78-.89,4.84-1.77,9.68-2.77,14.5-1.5,7.18-3.11,14.33-4.65,21.5-.13.58-.09,1.19-.18,1.79-.31,2.01-.65,4.01-.95,6.02-.19,1.29-.33,2.58-.5,3.87-.07.52-.05,1.11-.3,1.53-1.22,2.07-.96,3.98.38,5.88.26.37.44.9.42,1.34-.17,4.57,2.03,8.41,3.63,12.46.73,1.86,1.21,3.93,1.24,5.92.01.79-1.36,2.05-2.31,2.31-2.63.72-5.27.19-7.73-.96-.66-.31-1.15-.98-1.87-1.61-1.66,2.05-3.21.47-4.91-.28-1.85-.81-3.79-1.42-5.71-2.06-4.73-1.59-9.46-3.21-14.23-4.68-2.16-.67-4.51-.77-6.64-1.53-4.96-1.77-9.85-3.72-14.74-5.7-4.07-1.64-8.06-3.46-12.13-5.11-1.72-.7-3.61-1.02-5.28-1.81-2.63-1.24-5.14-2.74-7.7-4.13-.1-.06-.26-.13-.28-.22-.61-3.05-3.89-4.45-4.6-7.41-.16-.65-.18-1.45.07-2.05.86-2.12,1.74-4.25,2.83-6.25,2.28-4.17,3.48-8.72,4.75-13.23,1.02-3.63,1.74-7.34,2.63-11,.78-3.21,1.49-6.44,2.42-9.6,1-3.39,2.23-6.72,3.37-10.07.12-.34.27-.71.51-.95,2.95-2.82,3.22-6.76,4.4-10.33.15-.44.2-.94.17-1.41-.21-3.32,0-6.52,1.98-9.41.89-1.31.28-5-.59-6.31-.47-.72-.84-1.79-.68-2.59,1.12-5.41,2.28-10.82,3.66-16.16.6-2.3,1.86-4.42,2.62-6.69.35-1.05.2-2.27.34-3.41.2-1.55.41-3.1.71-4.64.2-1.07.56-2.11.82-3.17.05-.22-.08-.5,0-.71,1.33-3.79,2.63-7.6,4.05-11.36.32-.86,1.16-1.5,1.66-2.31.52-.85,1.12-1.74,1.3-2.69.46-2.37.9-4.64,2.3-6.77,1.01-1.55,1.21-3.62,1.82-5.44.44-1.3.98-2.56,1.45-3.85.2-.56.33-1.14.46-1.72.11-.47.02-1.05.27-1.4,1.75-2.41,2.13-5.35,3.27-7.99.86-2,2.17-3.83,3.47-5.6,1.31-1.79,1.57-3.56.29-5.36,2-1.35,2.17-3.51,2.46-5.68.13-.99.58-1.96,1.02-2.87.97-2.04,2.05-4.03,3.04-6.07.2-.42.25-.93.3-1.4.16-1.37.68-2.38,1.82-3.34.87-.73,1.18-2.2,1.63-3.37.31-.82.3-1.78.7-2.53.93-1.76,2.12-3.38,3.04-5.14.84-1.63,1.9-3.32,2.08-5.07.33-3.19,2.31-5.27,3.94-7.7,1.03-1.54,1.39-3.52,2.06-5.29.29-.77.58-1.55.93-2.29,1.78-3.72,3.59-7.43,5.39-11.15.16-.32.22-.72.45-.98,3.03-3.53,4.09-8.1,6.42-12.01,3.24-5.46,6.3-11.03,9.43-16.56,1.98-3.49,3.92-7.01,5.92-10.49.6-1.04,1.34-2,2.02-2.99,3.51-5.06,7.02-10.11,10.52-15.16.51-.74.98-1.51,1.47-2.28.89-1.4,1.89-2.55,3.96-1.62.04-.71-.03-1.26.11-1.75.3-1.07.43-2.33,1.09-3.14,2.92-3.58,6.07-6.98,8.99-10.56,1.51-1.85,2.85-3.87,4.05-5.95,2.32-4.03,6.24-5.84,10.15-7.71,2.05-.98,4.03-2.16,6.14-2.98,2.31-.89,4.72-1.46,7.26-.77,1.52.42,2.57,1.2,3.08,2.74.4,1.2,1.1,2.31,1.39,3.53.63,2.67,1.14,5.38,1.59,8.09.11.67-.06,1.48-.36,2.1-1.13,2.34-1.4,4.75-1.44,7.34-.04,2.5-.87,4.98-1.21,7.48-.25,1.83-.42,3.7-.29,5.53.04.58,1.11,1.12,1.77,1.61.44.33,1.37.52,1.39.82.04.63-.18,1.47-.62,1.92-2.96,3.07-2.99,3.05-.31,6.25,1.13,1.36,2.95,2.03,4.65,1.8.34-.05.72.19,1.41.39-3.05,2.24-4.67,4.96-5,8.8.91-.23,1.49-.42,2.09-.51.44-.06.91.01,1.36.03-.02.51.16,1.19-.1,1.49-.69.78-1.57,1.39-2.47,2.14.34.33.68.64,1.02.97,1.13,1.09,1.08,1.68-.37,2.34-1.09.5-1.09,1.24-.3,1.75,1.34.88,1.07,1.49.15,2.52-.93,1.04-.07,3.65,1.22,4.36.34-.89.6-1.83,1.04-2.67.5-.95,1.31-1.1,2.04-.25.83.96,1.75.85,2.79.51,1.25-.4,3.79.66,4.07,2.05.21,1.07-.25,2.41-.78,3.45-.37.74-1.2,1.11-.98,2.28.1.55-.73,1.5-1.37,1.91-1.12.72-1.27,1.65-1.18,2.8.08,1.03.06,2.07.17,3.1.03.29.31.76.53.79.37.05.92-.07,1.13-.33.48-.61.72-1.4,1.2-1.99.25-.31.81-.38,1.23-.56-.03.42.1.95-.1,1.25-1.06,1.53-2.2,3-3.3,4.5-.17.24-.36.53-.37.81-.1,2.01-.15,4.02-.21,6.03,0,.18.14.4.07.53-1.61,2.96.29,6.27-.96,9.25-.37.89-.48,1.6.69,1.98.29.09.43.62.64.95-.34.17-.74.28-1.02.52-.85.75-1.66,1.55-2.49,2.33.74.66,1.46,1.34,2.21,1.99.21.18.66.26.7.45.23,1.1.79,2.38.45,3.31-.87,2.42,1.21,4.32.79,6.61-.18.99.08,2.06.15,3.31.51-.68.83-1.43,1.4-1.79.71-.45,1.68-.88,2.42-.73.41.09.68,1.35.83,2.11.17.82.06,1.68.18,2.51.63,4.41,1.29,8.82,1.94,13.22.26,1.77.66,3.53.75,5.31.15,3.1.05,6.21.17,9.32.2,5.05.34,10.1.78,15.13.35,3.95,1.18,7.85,1.68,11.79.14,1.14-.38,2.38-.17,3.49.41,2.16,1.18,4.26,1.69,6.4.74,3.06,1.32,6.17,2.08,9.22.66,2.64,1.26,5.33,2.29,7.83.52,1.26,1.93,2.19,3,3.19.84.79,1.79,1.47,2.84,2.33-.73.56-1.13.86-1.57,1.2.27.25.52.48.89.83-.62.24-1.14.44-1.88.72,1.18,2.18,2.31,4.24,3.39,6.34.16.3.12.78.01,1.13-.17.56-.79,1.47-.66,1.57.88.74,1.83,1.59,2.9,1.87.98.26,2.21.05,3.18-.33.69-.27,1.2-1.11,1.66-1.79.39-.57.58-1.27.85-1.92.32.1.63.2.95.3-.12.77-.24,1.53-.43,2.72,1.26.98.2,2.8-.3,4.17-.51,1.37-2,2.38-3.16,3.66,1.72,1.8.09,5.49,3.57,6.41-.17.36-.21.55-.28.56-2.85.47-2.96.73-1.46,3.37.47.84.86,1.72,1.31,2.57.07.14.28.2.83.57.19-1.83.22-3.46.56-5.02.21-.98.89-1.85,1.37-2.77,0,0-.02-.01-.02-.01.9.13,1.79.25,2.69.38.06-.67.12-1.34.17-2.01.09-1.13.22-2.25.26-3.38.02-.65.08-1.4-.19-1.95-1.44-2.86.18-5.14,1.16-7.55.19-.03.38-.07.57-.1.41,1.64.83,3.29,1.37,5.44.05-2.3,1.29-2.45,2.75-2.49,2.07-.06,1.71-1.55,1.58-3.05-.55.12-1.01.23-1.86.42.25-1.11.18-2.21.69-2.86,2.26-2.9,2.46-6.12,2.11-9.59-.28-2.78-.2-5.59-.19-8.39.01-3.7.24-7.41.15-11.11-.08-3.12-.62-6.23-.71-9.35-.14-4.98.57-9.93,2.72-14.4.76-1.57,1.3-3.23,2.1-4.76,1.64-3.12,1.98-6.52,2.65-9.88.56-2.75,1.59-5.41,2.46-8.1.8-2.49,1.57-5.01,2.52-7.45,2.03-5.19,4.16-10.35,6.26-15.51,1.71-4.2,3.47-8.39,5.16-12.61.4-1,.58-2.09.98-3.09,1.8-4.45,3.72-8.85,5.42-13.33.63-1.66.67-3.52,1.14-5.25.22-.82.65-1.79,1.3-2.23,2.05-1.4,2.19-3.28,2.47-5.56.21-1.74.59-4.12,2.73-5.24,1.21-.63,1.56-3,.77-4.42-.41-.74-.88-1.44-1.26-2.2-.18-.36-.37-.84-.26-1.18.85-2.69,1.56-5.44,2.7-8,1.92-4.29,3.84-8.63,7.65-11.73,1.32-1.07,1.71-2.47,1.41-4.2-.14-.82.29-1.74.5-2.61.19-.79.3-1.62.66-2.32.29-.57.82-1.25,1.38-1.4,1.26-.35,1.62-1.06,1.19-2.14-.64-1.61-.38-2.61,1.39-3.22.4-.14.85-1.35.65-1.8-.86-1.97-.34-4.42,1.26-5.94.61-.58.91-1.53,1.24-2.36.31-.77.46-1.61.7-2.41.5-1.73,1.01-3.45,1.51-5.17.12-.4.1-.96.36-1.17,2.45-2.02,2.31-4.81,2.37-7.57.01-.55.33-1.13.62-1.62.2-.35.6-.58.92-.86,1.25-1.12-.69-3.99,2.27-4.18.63-1.81.36-3.49-.43-5.23-.25-.54.11-1.5.44-2.14.89-1.76,1.96-3.44,2.85-5.2.27-.54.43-1.37.22-1.9-.78-1.89.51-2.25,1.78-2.5.74-.14,1.57.23,2.32.11.63-.1,1.46-.44,1.73-.93.26-.47.15-1.57-.22-1.87-2.25-1.82-2-3.84-.93-6.14.25-.54.03-1.34-.07-2.01-.1-.72-.31-1.42-.29-2.27,1.73,2.08,3.75.36,5.51.83.41-2.12-.73-4.01-2.6-4.5-2.32-.61-2.8-1.44-1.83-3.62.58-1.31.56-2.19-.44-3.4-.55-.67-.42-2.41.08-3.29.57-1.01,1.77-1.96,2.89-2.3,4.69-1.41,9.43-2.67,14.2-3.8,2.57-.61,5.27,1.65,6.07,4.17.4,1.27,1.74,2.21,2.51,3.39.88,1.33,2.05,2.69,2.3,4.17.65,3.9.81,7.87,1.29,11.8.48,3.87,1.19,7.7,1.65,11.57.28,2.32.47,4.68.4,7.02-.2,6.07.89,11.96,1.99,17.88,1,5.39,1.59,10.85,2.46,16.27.52,3.23,1.28,6.41,1.84,9.63.52,3.02,1.09,6.06,1.34,9.11.48,5.81.88,11.63,1.09,17.45.19,5.03.04,10.08.1,15.12.05,3.49.28,6.98.3,10.47.02,3.96-.28,7.92-.09,11.87.09,1.95.16,3.8-.41,5.68-.12.4.16.92.2,1.39.06.64.36,1.54.05,1.9-1.3,1.51-.84,3.21-.77,4.85.08,1.91-.45,3.81-.52,5.58-.11,2.79-1.85,5.36-.79,8.36.47,1.33-.38,3.13-.62,4.72-.09.64-.2,1.29-.2,1.94-.02,3.77,0,7.53,0,11.29-2.43.51-2.66,1.22-1.16,3.15.29.38.62,1.08.47,1.41-1.13,2.4-.35,4.73,0,7.1.1.69-.19,1.44-.31,2.17-.69-.18-1.38-.36-2.29-.6-.79.71-.34,1.41.42,2.04,1.06.89,1.93,1.91,1.74,3.37-.06.51-.55,1.12-1.01,1.38-.73.41-1.66.48-2.41.87-.41.22-.97,1.09-.89,1.18.45.53,1.07.91,1.63,1.33.7.53,1.49.98,2.04,1.63.14.16-.52.94-.72,1.47-.57,1.59-1.88,2.12-3.52,2.2.02.16.03.32.05.48.55.24,1.08.54,1.65.71,1.24.36,1.39,1.29,1.16,2.29-.26,1.16-1.1.65-1.88.58-.87-.07-2.17-.05-2.55.47-.39.55-.13,1.85.28,2.58.24.43,1.31.4,2.5.69.61.88.29,1.62-1.36,1.89-.35.06-.87.31-.95.58-.5,1.73-1.01,3.46-1.26,5.23-.09.63.51,1.36.79,2.05-.14.1-.27.2-.41.3-.62-.47-1.25-.94-1.87-1.42.16.2.31.4.47.6-1.13.64-2.25,1.28-3.21,1.83,1.19.8,1.99,1.34,2.8,1.88-.48.64-.95,1.28-1.58,2.11.28.76,1.17,1.91-.38,2.81-.05.03.19.82.45,1.12.91,1.02,1.9,1.97,2.85,2.95-.15.25-.3.5-.45.74-1-.38-2.01-.75-3.01-1.13-.43-.17-.89-.57-1.28-.51-1.55.27-3.08.68-5.17,1.17,1.28,1.32,2.29,2.36,3.3,3.41.16-.13.33-.25.49-.38-.3-.8-.61-1.6-.91-2.4.13-.07.27-.14.4-.21.29.33.55.68.86.99.71.71,1.46,1.29,2.55.68.2-.11.53-.24.69-.15.67.38,1.3.83,1.94,1.26-.52.38-1.17,1.19-1.53,1.08-1.75-.56-3.4,1.24-5.16.11-.23-.15-.96.49-1.35.7-1.03-.45-2.03-1.24-2.97-1.18-.66.04-1.26,1.24-2.11,2.17,2.12,0,3.96.16,5.76-.04,2.33-.26,2.7.09,2.93,2.4.14,1.41.85,2.77,1.35,4.27-2.13.54-1.06,2.25-.9,3.76-1.59.26-2.74.73-1.76,2.7.36.71-.16,1.31-1.1.91-.44-.19-.85-.45-1.28-.68.16-.59.63-1.44.41-1.72-.34-.42-1.17-.46-1.8-.65-.14.21-.28.42-.43.63.61.58,1.22,1.15,1.84,1.73-.26,1.55-.59,3.09-.74,4.65-.04.41.5.87.77,1.3.13-.07.26-.14.39-.21-.11-.35-.22-.7-.38-1.19.3.1.54.13.72.24.36.23.68.5,1.02.75,1.88,1.38,1.61,3.16-.52,4.28-.49.25-1.02,1-1.01,1.51.03,2.34-1.51,3.83-3.91,3.61-.42-.04-.94-.25-1.24-.07-.52.3-1.05.78-1.28,1.31-.12.27.3,1,.66,1.21.74.44,1.6.68,2.42,1,.31.12.63.22.94.33-.17.34-.27.78-.54,1.01-.45.37-1.02.61-1.63.96v-1.58c-.86.21-1.6.39-2.45.6.22.61.41,1.15.6,1.69-.08.17-.16.34-.25.51-2.77-.93-5.54-1.85-8.57-2.87-.06,1.93.49,3.25,2.42,4.06-2.11,2.55.41,3.86,1.49,5.71-.4.16-.74.3-1.16.47.18.16.28.32.42.36.58.18,1.16.32,1.75.47,2.17.57,3.05,2.81,1.92,4.76-.21.36-.36.97-.2,1.29,1.21,2.47.49,3.92-2.29,4.44-2.64.5-3.51,1.79-3.02,4.5-.67.35-1.34.7-1.95,1.02,1.75,2.22,3.89,1.12,5.93.76.03.16.06.33.09.49-1.21.62-2.41,1.24-3.82,1.96-.49-.43-1.09-.97-1.88-1.67.13,2.07.55,3.59,3.27,3.51-1.24,1.4-2.15,2.52-3.19,3.51-.16.15-.88-.3-1.35-.45-.32-.1-.67-.27-.96-.2-.17.04-.42.52-.35.7.1.28.4.59.69.68,1.44.45,2.85.8,4.34-.08.6-.35,1.5-.19,2.74-.31-2.25,2.12-1.91,4.42.82,7.63-1.35-.59-2.36-1.3-3.44-1.42-.99-.11-2.06.41-3.02.64-.07,2.9,2.2,3.13,3.92,4.03l-4.6.73c-.01.13-.02.26-.03.38.63.16,1.3.24,1.88.51,1.94.9,2.09,1.84,1.06,4.31-.52,1.25-.75,2.62-1.15,4.08-.47-.08-1.09-.19-2.21-.38.5,1.43.67,2.79,1.4,3.71.73.93,2.01,1.43,3.36,2.32-.94.45-1.6.77-2.63,1.26.83.62,1.52,1.1,2.18,1.62.31.24.76.49.82.8.36,1.87.58,3.76.93,5.63.14.74.38,1.52.79,2.14,1.75,2.66,2.35,5.38.84,8.35-.05.11.1.32.11.35.87.05,1.64.09,2.42.14-.21,1.13-.42,2.27-.67,3.63.13.06.75.19,1.16.55.42.37.71.94.93,1.47.34.82.55,1.7.86,2.54.7,1.89,1.44,3.77,2.16,5.66.91,2.41,1.84,4.81,2.72,7.23.27.73.36,1.52.62,2.25.23.64.57,1.24.86,1.86.3.64.6,1.28.88,1.93.42.96.82,1.92,1.25,2.88.1.22.41.46.37.6-.65,1.81.77,2.55,1.66,3.67.44.55.21,1.65.22,2.5,0,.45-.13.9-.2,1.35,1.84.21,1.75,2.12,2.7,3.13.57.61.97,1.58,1.04,2.42.16,1.89,1.45,3.14,2.3,4.63,1.04,1.83,2.27,3.57,3.33,5.39.42.71.84,1.54.86,2.32.01.6-.7,1.18-.92,1.83-.17.51-.08,1.11-.1,1.69-1.2.6-2.48,1.23-3.75,1.88-.2.1-.48.31-.49.49-.23,2.3-.46,4.61-.56,6.92-.02.44.51.9.86,1.49-.86.26-1.61.5-2.31.71,0,.27-.05.45,0,.5,1.83,1.54,1.73,1.44.11,3.18-.8.86-1.15,2.13-1.71,3.21l.54.46c-.83.26-1.66.52-2.75.86.28.78.46,1.74.95,2.5.45.71,1.23,1.21,1.72,2.16-.77-.11-1.54-.22-1.82-.26-.95.93-1.69,1.53-2.27,2.26-.61.76-1.53,1.64-1.52,2.46,0,1.62-.99,2.22-2.06,2.81-2.54,1.42-2.56,1.41-1.92,4.24.07.33.01.68.01.88-1.15.27-2.15.5-3.42.79.51.89.92,1.58,1.47,2.55-.64.11-1.21.22-1.78.32-.64.11-1.29.17-1.91.35-1.25.38-1.6.95-.48,2,1.23,1.16,1.73,2.58,1.23,4.32-.3,1.05-.63,1.47-1.76.92-.56-.27-1.85-.32-1.88-.21-.31,1.08-.53,2.22-.54,3.34,0,.6.45,1.21.6,1.59-2.02-.1-3.71-.33-5.37-.21-1.87.13-2.23.96-1.73,2.71.11.4-.28,1.18-.67,1.42-.46.28-1.16.15-1.76.21-2.07.23-4.14.45-6.21.71-1.85.23-1.93-1.38-2.79-2.44,1.11-.62,2.07-1.16,3.31-1.85-1.72-1.43-3.11-.51-4.68,0,.56-2.96-1.8-1.37-3.48-2.09.85-.5,1.32-.88,1.86-1.07.53-.19,1.13-.19,1.7-.27,0-.21.01-.42.02-.63-.57-.13-1.13-.35-1.71-.39-2.59-.18-3.06-.9-1.82-3.13-1.5-.84-3.37-1.38-4.38-2.62-.98-1.21-1.07-3.14-1.66-5.09-1.23-.35-1.25,1.29-1.86,2.18-.17-.03-.34-.05-.52-.08,0-.51-.15-1.09.03-1.53.5-1.2.13-1.73-1.08-2.12-.8-.26-1.5-.9-2.18-1.46-.36-.3-.56-.78-.83-1.18-.71-1.01-2.01-2.04-1.99-3.03.03-1,1.38-1.96,2.13-2.96,2.7-3.62,6.23-6.39,9.6-9.32,2.56-2.23,5.01-4.6,7.6-6.8.63-.54,1.67-.56,2.44-.97,2-1.04,3.95-2.18,5.93-3.25,1.04-.56,2.28-.85,2.45-2.37.03-.26.71-.56,1.13-.63.76-.13,1.55-.1,2.43-.14.05-.3.11-.57.12-.85,0-.28-.04-.56-.06-.73,1.64-.36,3.22-.53,4.66-1.06,1.08-.4,2.1-1.15,2.92-1.97.41-.42.61-1.46.39-2.02-.56-1.43-1.41-2.74-2.14-4.1-.25-.46-.42-.98-.71-1.41-.5-.73-.94-1.62-1.64-2.05-.85-.52-1.14-.94-1.04-1.98.1-1.06-.01-2.3-.5-3.21-1.17-2.2-2.22-4.4-2.37-6.94-.03-.53-.26-1.05-.45-1.56-.96-2.55-1.9-5.12-2.93-7.64-.34-.82-.88-1.57-1.42-2.29-1.1-1.45-2.68-2.65-2.25-4.81.02-.1-.06-.26-.15-.32-2.07-1.36-2.01-3.78-2.71-5.76-.75-2.11-1.04-4.42-1.34-6.66-.28-2.13-1.08-3.8-2.79-5.21-1.95-1.6-2.39-4.11-3.13-6.38-.3-.95-.45-1.94-.67-2.92-.1-.45-.45-1.1-.27-1.33,1.03-1.31.2-2.1-.67-2.91-.59-.55-.92-.92-.11-1.73.85-.86-.77-3.4-2.52-4.05,1.86-1.93.08-3.95.13-5.93.01-.45-.32-.9-.48-1.35-.63-1.76-2.42-4.33-3.46-5.08.63-1.58,1.39-3.06,1.79-4.63.3-1.2.55-2.1,1.98-1.83.08-4.43,1.84-8.73-.92-12.61-.43-.57-1.21-1.15-1.22-1.72,0-1.49,0-3.14.66-4.4.35-.68,2.03-.96,3.09-.91,1.22.05,1.41-.28,1.44-1.37.1-3.27.28-6.53.54-9.79.1-1.16.76-2.05,2.16-1.91.6.06,1.2.17,1.79.17.66,0,1.64.13,1.89-.23.31-.43,0-1.3-.02-1.98-.05-1.19-.11-2.39-.15-3.58-.02-.6,0-1.2,0-1.8-.2-.05-.4-.09-.6-.14-.32.84-.64,1.68-.95,2.52-.18.5-.21,1.16-.56,1.47-.35.31-1,.27-1.53.39.06-.46-.04-1.07.22-1.37.76-.9.8-1.65.62-2.88-.14-.9.37-2-.38-2.94-.18-.23-.36-.62-.56-.63-1.4-.08-1.28-1.16-.89-1.8.4-.68,1.31-1.46,1.99-1.46.54,0,1.18,1.07,1.57,1.78.31.56.3,1.3.44,2,2.34-.62,2.03-2.41,2.17-3.87.03-.27-.68-.76-1.12-.88-.49-.13-1.13.2-1.6.04-.93-.32-1.91-.71-2.6-1.36-.23-.21.36-1.34.63-2.02.35-.89.84-1.74,1.13-2.65.59-1.87,1.09-3.76,1.74-6.04,1.14,1.49,2.21,2.88,3.2,4.17.51-.84.97-1.73,1.55-2.55.77-1.1.35-1.87-.66-2.35-1.21-.57-1.25-1.24-.79-2.43.91-2.34,1.59-4.77,2.4-7.16.18-.53.45-1.04.73-1.66,1.23.69,1.94,2.66,3.39,1.26.5-.49.21-1.77.29-2.7-1.08-.07-2.17-.15-3.35-.23.69-2.08,1.33-4.4,2.22-6.61.67-1.66.06-2.6-1.51-3.59-.67,1.2-1.32,2.36-1.97,3.52-.14-.05-.29-.1-.43-.16.46-1.19,1-2.36,1.35-3.58.58-2.01,1.12-4.05,1.47-6.11.09-.5-.62-1.14-1.01-1.79.53,0,1.25-.12,1.9.03,1.14.26,1.98.8,1.67,2.27-.24,1.16-.26,2.37-.07,3.74.23-.32.56-.61.68-.96.45-1.37.88-2.75,1.24-4.15.59-2.31-.32-3.27-2.98-2.87.21-1.05.41-2.02.61-2.99-1.88-1.03-1.78-1.1-.83-3.06.53-1.09.52-2.45.74-3.69.1-.56.15-1.14.27-1.7.09-.45.5-1.06.33-1.31-.99-1.43-.41-2.11.87-2.97,1.61-1.09,2.17-5.22,1.72-7.09-.31-1.29.16-2.77.25-4.16.12-1.66.14-3.34.33-4.99.18-1.53.54-3.05.83-4.57.47-2.45.87-4.92,1.46-7.35.16-.66.91-1.17,1.73-2.16-.05-.05-.44-.55-.95-.85-1.43-.85-1.94-1.81-.97-3.4,1.81-2.97.47-5.66-.98-8.27-1.16-2.1-1.92-4.51-4.39-5.68-.45-.21-.58-1.24-.72-1.92-.15-.74-.13-1.52-.2-2.53-.83.29-1.41.59-2.02.68-.89.13-1.84.28-2.71.12-1.46-.27-3.67.74-4.53,2.3-1.25,2.29-1.37,2.29-3.3.48-.39-.36-.91-.58-1.32-.93-.25-.21-.62-.59-.56-.81.33-1.4.75-2.77,1.16-4.14.08-.28.43-.73.39-.76-1.24-.93-2.41-2.15-3.82-2.62-1.14-.38-2.06.87-1.94,2.04.1.93.81,1.81,1.28,2.7.11.21.4.35.45.56.42,1.93,1.14,3.7,2.42,5.25.13.15-.21.95-.52,1.18-1.37,1-2.29,2.9-4.59,2.33-.22-.05-1.01,1.88-1.38,2.94-.13.38.42,1.09.24,1.36-1.24,1.84-.85,3.39,1,4.82-.55.23-.8.39-1.06.42-.75.08-1.9-.19-2.18.19-.76,1.04-1.25,2.31-1.6,3.56-.1.36.53,1.14,1.01,1.42,2,1.17,2.34,2.66.97,4.59-.52.74-.91,1.59-1.51,2.25-.45.49-1.09.91-1.73,1.1-1.24.37-2.54.57-3.8.83-.09,1.07-.18,1.96-.23,2.86-.15,2.57,0,2.68,2.51,3.09,1.17.19,1.6-.26,1.91-1.32.35-1.2.91-2.36,1.5-3.47.17-.32.78-.4,1.18-.59.16.36.48.75.45,1.09-.17,1.69,1.1,3.26.03,5.14-.52.92.66,2.04,2.02,2.21,4.39.56,4.34.55,3.32,4.9-.36,1.55-.93,2.72-2.92,2.9.52.61.91,1.06,1.29,1.51-.04.12-.08.25-.12.37-.44-.1-.89-.17-1.32-.32-1.6-.57-3.17-1.25-4.8-1.7-.32-.09-1,.58-1.29,1.04-.34.53-.39,1.23-.63,1.83-.95,2.38-3.23,1.98-5.37,2.58.07-.71,0-1.26.2-1.68.69-1.43,1.64-2.75,2.16-4.23.26-.74.08-1.96-.41-2.54-.32-.37-1.64-.17-2.35.14-1.19.51-2.06,1.34-1.77,2.96.08.45-.61,1.24-1.13,1.58-1.16.74-1.49,1.61-1.1,2.91.3.99.62,1.49,1.88,1.29,1.78-.29,2.33.28,2.37,1.84.61.18,1.22.35,2.06.6-.87,1.6-1.86,2.03-3.47,1.53-.51-.16-1.67.28-1.78.66-.18.63,0,1.78.45,2.12,2.38,1.76,2.43,1.7-.09,3.2.27.25.49.5.76.69.24.17.52.28.82.43-.13.82-.24,1.58-.36,2.34-.17,1.16-.26,2.23.89,3.08.38.28.35,1.1.51,1.68-.17.15-.34.31-.51.46-1.24-.78-2.43-1.66-3.75-2.29-.57-.27-1.8-.3-2.02.04-.5.76-.56,1.8-.8,2.73.79-.03,1.59-.03,2.38-.11.61-.06,1.2-.24,1.81-.37-.1.75-.19,1.5-.31,2.24-.09.57-.45,1.22-.28,1.69.52,1.39,0,2.78-1.37,3.55-.66.38-1.12,1.09-1.7,1.62-.38.34-.83.9-1.21.87-1.13-.08-1.58.67-2.35,1.24-1.89,1.42-1.74,3-.86,5.18-1.1,0-2.07,0-3.04,0-2.24,0-2.84.53-3.21,2.77-.06.34-.14.87-.34.94-1.26.45-1.2,1.49-1.33,2.51-.07.58-.39,1.13-.65,1.82-1.82-.29-2.86.68-3.53,2.28-.79,1.89-.51,3.66.94,4.99,1.93,1.76,2.36,3.45,1.08,5.87-.94,1.78-.07,3.94,1.51,5.23-.46,1.01-.92,2.03-1.45,3.22-.42-.3-1.06-.75-1.97-1.4-.73,1.27-1.27,2.53-2.09,3.58-1.39,1.79-1.69,3.32-.02,5.21.64.72,1.42,2.09.35,3.26-.96,1.05-2.14,1.07-3.27.64.8-.98,1.57-1.91,2.7-3.29-2.04-.41-3.4-.79-4.79-.92-1.58-.15-2.26.86-1.51,2.25.47.88,1.24,1.6,2.13,2.71-.81,1.09-1.73,2.34-2.65,3.58-.16-.09-.32-.17-.48-.26.2.4.4.8.75,1.5-.57-.24-.83-.33-1.07-.47-1.78-1.03-2.67-.7-3.31,1.26-.36,1.08-.68,2.18-1.05,3.26-.45,1.32-.31,2.22,1.33,2.48.33.05.89.88.79,1.12-.62,1.51-.14,3.55-2.12,4.46-.3.14-.29.98-.4,1.5-.29,1.42-.88,2.27-2.59,1.99-1.98-.32-2.74.23-2.72,1.81.61-.33,1.08-.73,1.62-.84.59-.12,1.41-.18,1.8.13.33.27.24,1.12.26,1.71.02.99-.29,2.74.01,2.85,1.58.57,1.04-1.29,1.72-1.89.39-.34.63-.85.93-1.28.19.1.39.19.58.29-.52,1.07-1.09,2.12-1.55,3.21-.39.92-.89,1.89-.94,2.85-.06,1.15.35,2.32-.8,3.19-.05.04.15.4.28.74-1.36.09-2.08-.22-1.87-1.67.15-.99-.43-1.6-1.37-1.36-.49.12-.89.81-1.2,1.32-.56.92-1,1.92-1.55,2.85-.24.4-.96.8-.9,1.04.71,2.49-1.57,4.31-1.4,6.64.02.34.24.89.47.95.31.08,1.01-.15,1.05-.35.62-2.93,2.7-2.74,5.16-2.11-.34-.71-.53-1.11-.78-1.61.3-.05.56-.18.73-.1.41.18.92.37,1.1.71.12.23-.16.95-.42,1.05-.65.25-1.38.37-2.08.36-1.27-.01-2.14.09-2.3,1.76-.1.99-.69,2.22-2.37,1.63-1.05-.37-2.09,1.16-1.39,2.25,1.23,1.89,1.4,3.49-.61,5.04-1.06-2.76-3.67-.69-5.75-1.83.67-.24,1.15-.33,1.52-.57.31-.2.69-.59.69-.9,0-.33-.34-.88-.63-.95-.37-.09-1.09.08-1.21.35-.55,1.19-.99,2.44-1.36,3.7-.05.18.46.63.78.78,1.37.6,2.76,1.13,4.24,1.72-.44.29-.25,1.49-1.69.62-.78-.47-2.31.32-3.81.59,1.49,2.02.69,3.16-.64,4.33-1.57,1.37-3.22,2.77-4.36,4.47-.94,1.4-2.24,2.94-1.62,4.96-.63-.19-1.25-.49-1.88-.53-.63-.04-1.28.17-1.92.27.11.66.14,1.34.34,1.98.23.75.63,1.45.91,2.19.17.44.26.91.54,1.9,1.06-1.8,1.9-3.06,2.54-4.42.15-.31-.35-.92-.55-1.39ZM128.08,184.55c-.93,1.62-2.36,2.91-2.02,5.04.1.65-.68,1.88-1.33,2.12-1.92.71-1.92,2.47-2.19,3.85-.23,1.16.6,2.06,2.18,1.87,1.92-.23,1.82-1.56,1.94-2.89.04-.48.35-1.35.41-1.34,1.73.32,2.07-1.23,2.79-2.11,1.59-1.96,3.03-4.04,4.55-6.06.47-.62,1.01-1.19,1.77-2.07-.16-1.33.26-2.88,1.57-4.3.77-.84,1.29-2.07,1.53-3.21.34-1.61.33-3.29-1.01-4.81-.4.48-.65.8-.92,1.1-1.6,1.75-2.85,3.9-5.5,4.42-.45.09-.87.91-1.1,1.48-.84,2.09-.84,4.75-4.14,5.16.62.73.99,1.17,1.48,1.75ZM192.03,401.73c2.34-.02,3.51-1.19,3.19-2.53-.53-2.25-.03-2.76,2.33-2.48.41.05.98-.07,1.26-.34.22-.21.28-.83.14-1.16-.54-1.33-3.79-1.87-4.61-.72-.93,1.32-2,1.77-3.63,1.85-.71.03-1.44,1.47-1.97,2.39-.23.39-.14,1.41.13,1.57,1.17.67,2.46,1.13,3.14,1.42ZM317.83,192.49l.79-.28c0-1.57.56-3.45-.11-4.64-1.44-2.54-1.81-4.97-.99-7.68.03-.11.07-.25.03-.36-.19-.58-.39-1.15-.6-1.72-.43.43-1.15.8-1.23,1.29-.49,2.95-.85,5.91-1.18,8.88-.04.38.33,1.16.54,1.18,1.97.11,2.89,1.17,2.76,3.33ZM189.13,196.93c.19-.02.37-.05.56-.07-.09-.87-.16-1.74-.28-2.61-.43-3.23-.84-6.47-1.32-9.7-.37-2.47-.77-4.94-1.32-7.38-.1-.44-.98-.71-1.51-1.06-.29.53-.92,1.14-.81,1.56.22.86.83,1.63,1.3,2.42.29.49.9.95.89,1.42-.08,3.5-.21,6.99.98,10.38.58,1.65,1.01,3.35,1.5,5.03ZM181.79,385.42c-.23.09-.46.17-.69.26-.58-.77-1.34-1.47-1.7-2.33-.48-1.14-.94-.91-1.53-.23-1.01,1.16-.83,4.32.27,5.19,1.7,1.35,3.97.97,5.25-.79.49-.67,1.14-1.22,1.76-1.87-.33-.09-.8-.22-1.36-.37.27-1.65.03-2.95-1.83-3.14-.05,1.1-.1,2.19-.15,3.27ZM186.64,387.67c-.55.7-1.13,1.26-1.47,1.93-.15.31.01,1.03.29,1.25.63.51,1.42.8,2.12,1.22,1.07.63,2.09,1.12,3.29.17.48-.38,1.18-.49,1.79-.67.69-.2,1.4-.35,2.1-.52-1.18-.55-2.31-.66-3.37-1.01-1.09-.36-1.56-1.05-.67-2.18.31-.39.31-1.02.46-1.59.68-.11,1.48-.25,2.27-.38.01-.23.03-.46.04-.7-1.11-.1-2.22-.2-3.31-.29q-1.68,4.08-3.55,2.77ZM250.32,291.98c.13-1.32.3-2.64.37-3.96.02-.42-.19-.85-.29-1.27-.4.2-.8.39-1.18.61-2.46,1.44-2.17,4.12-2.7,6.37-.24,1,.32,1.79,1.74,1.45,1.75-.42,2.27-1.58,2.07-3.19ZM291.61,349.34c-.74-1-1.15-1.71-1.71-2.27-.5-.5-1.16-.83-1.75-1.24.08.72.04,1.48.28,2.15.32.89.71,2.3,1.31,2.44,1.54.36,3.21.22,4.82.11.46-.03,1.15-.57,1.24-.99.1-.46-.23-1.33-.61-1.5-.48-.22-1.24-.02-1.79.2-.68.27-1.27.76-1.8,1.09ZM153.25,80.65c-.23-2.07-1.76-3.54-3.56-3.09-.89.22-1.68,1.31-2.22,2.19-.23.38.15,1.68.48,1.77,1.14.33,2.37.32,3.71.45-.16-.89-.24-1.37-.38-2.16.79.33,1.3.55,1.97.83ZM190.31,402.86c-2.15-.31-4.2-.6-6.5-.93.29,1.78.53,2.82,2.18,2.56.35-.06.79.23,1.15.43,2.22,1.22,2.88.88,3.17-2.07ZM192.67,313.55c1.83.9,3.18,1.57,4.62,2.28.31-1.03,1.59-2.24.18-3.33-1.03-.78-2.46-1.04-3.71-1.52-.33.96-.66,1.92-.99,2.88-.02.05.03.11-.1-.31ZM294.82,356.09c-1.1,1.91-.25,3.2,1.09,4.19.46.34,1.74.43,1.87.19.4-.71.73-1.72.53-2.46-.45-1.65-1.88-2.01-3.49-1.93ZM309.46,376.51c-.71,1.03-1.33,1.55-1.44,2.16-.27,1.52.79,3.29,1.78,2.98.93-.29,1.65-1.27,2.46-1.95-.82-.93-1.64-1.87-2.81-3.19ZM301.89,379.23c-.26-1.5-.28-2.74-.72-3.81-.25-.61-1.12-1.09-1.81-1.33-.26-.09-1.09.6-1.17,1.03-.1.59.14,1.33.45,1.89.46.83,1.07,1.6,1.69,2.32.24.28.7.53,1.03.49.26-.03.47-.52.52-.59ZM196.27,306.13c.08-.14.16-.28.24-.42-.62-.5-1.2-1.07-1.87-1.49-.48-.3-1.25-.72-1.58-.54-.71.39-1.41,1.05-1.75,1.77-.36.77-.32,1.74-.37,2.63-.01.27.28.56.43.83.26-.25.77-.54.73-.74-.31-1.9,1.13-1.82,2.25-2.03.62-.11,1.28-.02,1.92-.02ZM303.13,386.12c.61-.23,1.16-.65,1.44-.52,1.57.75,1.52-.25,1.39-1.23-.09-.64-.39-1.25-.61-1.87-.43-1.21-1.2-1.21-2.09-.52-1.4,1.1-1.4,2.51-.13,4.14ZM299.48,368.82c.38-.42,1.23-.95,1.43-1.67.29-1.05-1.32-2.5-2.48-2.56-.99-.05-1.46.32-1.37,1.35.12,1.28.22,2.56,2.42,2.88ZM299.5,305.92c.3.14.6.27.9.41.81-1.17,1.77-2.28,2.36-3.55.19-.41-.47-1.5-1.01-1.83-.32-.19-1.59.4-1.71.83-.37,1.33-.38,2.75-.54,4.14ZM232.73,323.77c.35-.19,1.13-.45,1.61-.98.16-.18-.48-1.03-.66-1.6-.16-.49-.13-1.04-.29-1.53-.1-.29-.37-.59-.64-.71-.14-.06-.55.22-.66.43-.41.77-.75,1.58-1.11,2.38-.52,1.16.05,2.02,1.75,2.01ZM128.55,198.78c-.19-.07-.39-.15-.58-.22-1.01,2.26-2.03,4.53-3.31,7.39.99-.41,1.87-.48,2.1-.91,1.05-1.94,1.89-3.99,1.79-6.26ZM120.63,202.37c1.1-2.48.42-3.89-2.18-4.47-.39-.09-.85.17-1.28.28.1.43.07,1,.34,1.28.95,1,2.01,1.9,3.12,2.92ZM203.65,390.65c.89,1.62,1.37,3.32,3.38,2.52.48-.19,1.01-1.36.85-1.85-.88-2.57-2.57-.57-4.23-.67ZM92.73,235.46c1.34-.56,3.53,1.29,3.66-1.34.02-.5-1.37-1.48-2.15-1.53-2.2-.14-1.02,1.82-1.51,2.87ZM299.71,317.26c0-.93.1-1.6-.04-2.21-.08-.39-.53-1.02-.78-1-.97.07-1.96.27-2.87.6-.25.09-.28.8-.38,1.24-.02.07.12.24.21.27,1.39.41,2.78.79,3.86,1.1ZM196.79,291.6c.7.76,1.18,1.67,1.91,1.97.73.29,1.71-.04,2.58-.1-.23-.57-.32-1.27-.71-1.69-1.15-1.27-2.46-1.06-3.79-.18ZM231.57,332.36c-.92.86-1.82,1.5-2.45,2.35-.35.47-.24,1.28-.34,1.93.65-.07,1.4.06,1.93-.23,1.54-.85,1.2-2.3.86-4.05ZM310.15,285.03c.66.88,1,1.48,1.48,1.91.38.34,1.14.8,1.39.65.65-.39,1.11-1.09,1.65-1.66-.42-.35-.81-.96-1.26-1.01-1.04-.11-2.1.05-3.26.1ZM102.69,216.93c.11.05.23.1.34.15,0,.66-.08,1.33.03,1.97.06.37.43.69.66,1.04.35-.32.85-.58,1-.97.23-.59.28-1.28.28-1.93,0-.55-.09-1.13-.29-1.63-.06-.15-.79-.27-.94-.12-.44.42-.73.99-1.08,1.5ZM193.86,282.74c1.07,1.61,1.96,2.74,3.4,3.15.34.1,1.12-.58,1.31-1.06.12-.29-.42-1.14-.82-1.28-1.04-.36-2.17-.48-3.89-.81ZM228.28,325.33c-.55-.95-.88-1.51-1.2-2.06-.65.93-1.37,1.83-1.89,2.82-.08.15,1.04,1.16,1.11,1.11.69-.51,1.27-1.17,1.98-1.87ZM167.82,380.68c.28.85.3,1.53.65,1.8.3.23,1.04.13,1.45-.08,1.06-.55,2.09-1.18,3.04-1.89.53-.4.88-1.04,1.32-1.57l-.4-.42c-1.73,1.09-3.07,3.19-6.07,2.17ZM305.99,279.27c.99-.22,1.87-.21,2.45-.62.44-.31.69-1.18.64-1.77-.03-.35-1.07-.99-1.21-.88-1.02.73-2.21,1.47-1.88,3.27ZM319.67,272.33c-1.35-.32-2.66-.72-3.99-.91-.38-.05-.87.48-1.23.83-.06.06.24.75.47.82,1.64.49,3.38,1.37,4.75-.73ZM210.57,387.36c.18.08.35.16.53.25.85-1.83,1.71-3.66,2.57-5.51-2.02.19-3.66,2.98-3.1,5.26ZM309.53,162.57c-.37.86-.79,1.36-.73,1.79.13.92.51,1.81.78,2.7.59-.85,1.35-1.65,1.66-2.59.11-.34-.9-1.04-1.72-1.91ZM293.77,324.8c-.14.01-.29.03-.43.04-.31,1.05-.77,2.08-.88,3.15-.05.46.61.99.94,1.48.49-.45,1.42-.94,1.37-1.33-.13-1.14-.64-2.24-1.01-3.35ZM218.83,352.7c.05,1.85.8,2.78,2.11,2.48.53-.12.92-.88,1.38-1.35-.41-.31-.77-.77-1.23-.9-.67-.19-1.42-.15-2.26-.22ZM118.33,186.02c-.16,1.72.15,2.83,1.6,2.75.57-.03,1.61-1.09,1.54-1.53-.32-2.05-2.04-.31-3.14-1.22ZM115.69,194.06c.89-.54,1.51-.92,2.13-1.3-.42-.29-.84-.56-1.24-.86-.14-.1-.21-.29-.35-.38-.43-.29-.88-.55-1.33-.82-.05.66-.22,1.34-.11,1.97.07.45.52.83.89,1.4ZM307.77,362.79c-1.32-.82-2.28-1.42-3.24-2.02.05.79-.15,1.72.2,2.35.78,1.43,1.63.34,3.04-.33ZM299.87,286.23c-.17-.03-.35-.07-.52-.1-.44,1.22-.95,2.41-1.27,3.66-.07.3.52.76.81,1.15.33-.32.9-.62.94-.97.12-1.23.05-2.49.05-3.73ZM100.42,188.5c.18.2.36.41.54.61.82-.71,1.64-1.41,2.46-2.12-.35-.34-.72-.99-1.04-.96-1.5.12-1.62,1.4-1.95,2.47ZM303.73,311.77c-.8-.68-1.27-1.08-1.75-1.49-.29.42-.83.87-.8,1.27.05.65.48,1.26.76,1.89.49-.46.99-.92,1.79-1.67ZM174.59,392.03c-1.09-.83-1.86-1.42-2.62-2.01-.22.55-.75,1.23-.59,1.63.47,1.17,1.46,1.2,3.21.38ZM111.7,203.83c-1.31-.71-2.21-1.5-2.73-.25-.23.56.41,1.48.66,2.23.61-.59,1.23-1.17,2.08-1.98ZM311.8,151.61c1.02,0,1.89.05,2.76-.02.35-.03.79-.23.97-.49.13-.18,0-.74-.21-.92-.8-.74-3.17.23-3.53,1.44ZM215.38,367.27c-.37-1.14-.37-2.44-1.96-2.36-.26.01-.74.65-.69.92.26,1.4,1.23,1.72,2.65,1.44ZM111.37,183.1c-.71-.56-1.27-1.24-1.5-1.14-.49.21-1.01.78-1.12,1.29-.08.36.51.86.8,1.29.52-.41,1.03-.82,1.83-1.45ZM318.48,403.6c.71.8,1.25,1.4,1.78,2,.27-.31.83-.76.76-.9-.37-.75-.89-1.41-1.36-2.11-.3.26-.6.52-1.18,1.01ZM109.37,149.1c.46.37.69.69.99.78.72.2,1.47.3,2.21.43.02-.32.15-.89.05-.93-.78-.33-1.6-.59-2.43-.8-.15-.04-.38.23-.82.53ZM222.81,337.66c.09,1.01-.02,1.91.33,2.58.13.25,1.31-.04,2.48-.12-1.16-1.02-1.81-1.59-2.81-2.46ZM302.78,331.92c-.62-.59-1.08-1.3-1.37-1.24-.51.12-.91.7-1.35,1.1.4.41.75,1.03,1.23,1.16.32.08.82-.53,1.49-1.01ZM123.96,173.29c-.67.93-1.12,1.43-1.38,2.02-.06.13.71.87.85.8.53-.25,1.08-.65,1.36-1.14.13-.22-.37-.79-.83-1.68ZM305.62,167.59c-.64-.65-1.09-1.12-1.55-1.59-.27.4-.84.92-.74,1.17.22.55.79.97,1.21,1.44.3-.28.59-.56,1.08-1.02ZM306.75,289.27c-3.34-.16-3.85.2-3.41,2.21,1.05-.68,2.05-1.33,3.41-2.21ZM328.47,412.25c-.38-.08-.75-.16-1.13-.23-.16.88-.34,1.76-.44,2.65,0,.04.69.16,1.06.25.17-.89.34-1.77.51-2.66ZM318.16,283.7c-.31-.01-.61-.02-.92-.04-.07.88-.14,1.75-.21,2.63.37.03.75.06,1.12.08v-2.67ZM302.03,323.2c-2.1-.77-2.74-.09-2.34,2.34.96-.95,1.65-1.65,2.34-2.34ZM180.75,406.1c-.53.57-.86.92-1.18,1.26.5.37.97.81,1.53,1.04.14.06.86-.68.8-.87-.15-.46-.62-.82-1.14-1.43ZM305.64,276.57c.1-.15.21-.3.31-.45-.39-.38-.77-1.08-1.16-1.08-.61,0-1.22.47-1.82.74.06.22.13.44.19.66.83.05,1.65.09,2.48.14ZM315.91,394.59c-.32-.11-.65-.21-.97-.32-.2.59-.52,1.18-.55,1.78-.01.22.64.48.98.72.18-.73.36-1.45.54-2.18ZM309.88,371.49c.04-.23.07-.46.11-.69-.84-1.16-1.79-1.14-2.87.28.92.14,1.84.27,2.76.41ZM315.62,386.91c-.18.1-.37.19-.55.29.56.99,1.12,1.98,1.89,3.35.91-2.19-.59-2.74-1.34-3.64ZM313.89,399.63c1.77.97,2.38.75,2.83-.93-1.1.36-1.96.65-2.83.93ZM298.71,321.52c.15.07.29.14.44.21.24-.6.68-1.21.66-1.79-.02-.39-.69-.76-1.07-1.14l-.47.32.45,2.4ZM303.07,355.25c-.69-.9-1.23-1.61-1.91-2.51-.41,2.32,0,2.89,1.91,2.51ZM99.14,219.74c-.33.9-.66,1.33-.58,1.67.11.45.54.82.84,1.22.26-.4.72-.8.72-1.2,0-.41-.45-.82-.98-1.69ZM325.19,270.77c.08-.25.15-.5.23-.75-1.06-.38-2.13-.77-3.19-1.15-.1.29-.2.59-.29.88,1.09.34,2.17.69,3.26,1.03ZM199.45,302.03c.86-.58,1.63-1.1,2.39-1.61-.09-.19-.18-.38-.27-.56-.9.27-1.8.54-2.82.84.29.55.47.9.7,1.34ZM317.25,212.33c.27.13.55.26.82.39.3-.75.61-1.5.86-2.27.02-.06-.44-.26-.68-.4-.33.76-.66,1.53-1,2.29ZM125.32,208.33c.02-.2.04-.4.07-.59-.5-.14-1.11-.51-1.48-.35-.44.19-.68.85-1.01,1.3.11.1.21.2.32.3.7-.22,1.4-.44,2.1-.65ZM312.99,477.72c.03-.33.07-.65.1-.98-.61-.09-1.22-.18-1.84-.27-.03.38-.06.76-.09,1.14.61.04,1.22.07,1.82.11ZM307.14,315.72c0,.31.01.63.02.94.52.02,1.08.18,1.53.01.2-.07.18-.78.25-1.19-.6.08-1.2.16-1.8.24ZM305.98,319.98c-.3-.12-.6-.24-.9-.36-.19.51-.48,1.01-.52,1.52-.01.18.57.41.88.62.18-.6.36-1.19.54-1.79ZM302.41,345.51c0-.29-.02-.59-.03-.88h-2.13c0,.26-.02.52-.03.78.73.03,1.46.07,2.19.1Z"/>
  <path class="cls-1" d="M278.58,320c-.14,1.77.06,3.23,1.68,4.46.52.39.39,2.51-.18,3.3-2.28,3.13-3.16,6.57-3.49,10.36-.24,2.84-1.12,5.58-2.95,7.96-1.12,1.46-1.81,3.24-2.76,4.85-.41.7-.97,1.32-1.46,1.98-.22-.04-.44-.07-.66-.11,0-.61-.22-1.34.04-1.8,1.16-2.03,2.71-3.88,3.61-6.01.62-1.47.42-3.29.55-4.95.03-.38-.26-.82-.14-1.14.95-2.57,1.95-5.12,2.97-7.67.33-.83.82-1.6,1.09-2.45.23-.71.53-1.57.32-2.21-.8-2.45-.2-4.56,1.38-6.58Z"/>
  <path class="cls-1" d="M253.8,382.11c.94-1.84,1.88-3.69,2.82-5.53,1.37-2.7,2.78-5.38,4.11-8.1.78-1.58,1.22-3.38,2.21-4.79.88-1.26.55-3.33,2.52-3.85.04-.01.09-.12.08-.15-1.26-2.75,1.88-2.42,2.79-3.71-.31.8-.65,1.6-.91,2.42-.57,1.81-1.01,3.67-1.67,5.45-.43,1.16-1.04,2.28-1.75,3.29-1.58,2.26-1.8,5.04-2.93,7.4-1.52,3.17-3.35,6.31-6.71,7.98-.19-.14-.38-.27-.56-.41Z"/>
  <path class="cls-1" d="M304.76,189.65c.25-1.81.36-3.14.67-4.42.08-.33.8-.51,1.22-.76.25.44.74.9.7,1.3-.14,1.24-.4,2.48-.77,3.66-.72,2.29-1.94,4.5-2.18,6.82-.16,1.55-.81,2.78-1.2,4.16-.1.36-.54.62-.82.92-.32-.31-.91-.63-.9-.93.06-1.42.16-2.85.47-4.23.36-1.62,1.4-3.21,1.31-4.76-.1-1.65,1.2-1.38,1.5-1.76Z"/>
  <path class="cls-1" d="M263.65,270.81c4.95-1.55,6.42-6.59,10.47-9.36-.12.53-.33,1.05-.34,1.58-.01.38.22.78.35,1.16.85-1.11,1.74-.11,2.61-.09.14,0,.28-.47.62-1.1.66,1.16,1.22,1.82,1.36,2.56.05.29-.92,1.13-1.33,1.07-1.3-.19-2.56-.68-3.84-1.06-.59-.17-1.47-.69-1.7-.48-.62.56-1.12,1.39-1.34,2.2-.15.56.3,1.27.36,1.92.04.42-.05,1.22-.2,1.25-2.2.44-4.43.77-6.65,1.13-.13-.26-.26-.52-.39-.78Z"/>
  <path class="cls-1" d="M280.88,354.21c.26-.38.33-.59.47-.67,1.69-.91,2.66.61,3.74,1.32.51.33.47,1.57.58,2.4.02.18-.37.61-.56.6-1.91-.08-1.84,1.51-1.68,2.48.21,1.25,1.03,2.4,1.66,3.56.3.55.78,1,1.18,1.49-.75,0-1.52.09-2.24-.05-.48-.09-.96-.81-1.35-.73-1.8.34-1.88-.69-1.79-1.98.1-1.51-.19-2.97.73-4.48.71-1.16,1.19-2.88-.73-3.93Z"/>
  <path class="cls-1" d="M246.5,316.31c-1.23.4-2.24.73-3.35,1.08-.5-1.16-1.08-2.14.76-2.62.51-.13.97-.81,1.26-1.34.74-1.3.63-3.55,3.2-2.61.13.05.34-.14.5-.14.7.01,1.59-.19,2.03.16.43.35.4,1.27.65,2.25,2.45,1.55,2.48,1.86-.02,4.75-.58-2.36-2.85-4.07-1.01-6.88-1.38.56-2.51.82-3.4,1.44-1.32.91-1.38,2.3-.63,3.9Z"/>
  <path class="cls-1" d="M191.77,141.96c-.37-.14-.8-.31-1.22-.47l-.55.26c.34,1.09.67,2.17,1.05,3.41-.09.15-.65.71-.54.98.83,1.92-.21,3.06-1.73,4.29.48.83.97,1.68,1.59,2.74,0-.19.04,0,0,.03-.92.56-1.85,1.1-2.78,1.65-.05-.84-.22-1.69-.14-2.52.1-1.07.24-2.2.68-3.16.24-.54,1.12-.78,1.84-1.24-2.03-1.19-1.32-3.01-1.06-4.62.17-1.04.63-2.14,1.29-2.94.46-.56,1.47-.67,2.24-.97.07.15.14.31.21.46-.27.65-.55,1.3-.88,2.1Z"/>
  <path class="cls-1" d="M220.4,396.44c.1.51.21,1.01.37,1.8-1.17-.13-2.17-.23-3.34-.36.26-.38.52-.76.94-1.37-.87-.36-1.65-.76-2.47-.99-1.42-.39-1.5-1.25-.88-2.31,1.08-1.87,3.84-1.86,4.91-.04.29.5.76.9,1.13,1.36.34.42.65.85.98,1.27-.49.19-.98.39-1.63.65Z"/>
  <path class="cls-1" d="M284.1,419.32c-.79.14-1.53.34-2.27.38-1.24.08-1.87-.83-1.13-1.86,1.2-1.67.45-2.21-1.14-2.48-.23-.04-.45-.12-.27-.07-.28-1.96-.52-3.68-.77-5.46.57.07,1.2.19,1.84.23,1.18.09,1.59.82,1.45,1.85-.36,2.58.64,4.68,2.12,6.66.09.13.08.33.17.74Z"/>
  <path class="cls-1" d="M304.79,496.81c.14-1.06.27-2.11.42-3.24.95,0,1.89.04,2.82,0,1.21-.06,1.76.55,1.45,1.65-.24.9-.67,1.8-1.23,2.54-.54.72-1.21,1.25.32,1.76-2.39.92-3.29.57-4.51-1.58.35-.33.73-.68,1.1-1.03-.12-.03-.25-.07-.37-.1Z"/>
  <path class="cls-1" d="M278.59,251.35c.63.06,1.44.14,2.45.25-.33.54-.55,1.38-1.06,1.65-1.35.72-1.18,1.91-1.41,3.08-.42,2.07-1.02,4.1-1.58,6.27-2.78-1.76-2.8-2.41-1.36-4.87,1.2-2.05,2.02-4.31,2.97-6.38Z"/>
  <path class="cls-1" d="M283.89,377.24c-1.92.84-3.62.42-4.82-.72-.46-.44-1.35-.6-2.03-.57-1,.05-1.17-.29-.93-1.14.17-.6.29-1.23.44-1.84.31-1.29.41-2.7,1.02-3.84.36-.67,1.53-.91,2.48-1.19-.51,1.01.27,2.48-1.24,2.99-.08.03-.13.2-.17.31-.42,1.07,1.01,4.1,2.1,4.54,1,.41,1.96.9,3.15,1.46Z"/>
  <path class="cls-1" d="M187.44,156.14c-.04.86-.08,1.72-.12,2.57,2.29.34,2.16.31,1.52,2.69-.19.72.45,1.71.81,2.54.46,1.06.33,1.9-.79,2.34-1.22.47-1.64-.43-1.87-1.35-.72-2.94-.82-5.89-.23-8.82.22.01.45.03.67.04Z"/>
  <path class="cls-1" d="M318.85,296.56c.27,1.34.49,2.42.73,3.56-1.6,1.19-3.96,1.41-5.55.37-.2-.13-.13-.68-.21-1.13-.56.1-1.22.21-1.76.3.09-.95.17-1.75.25-2.6,1.78-.72,1.98-.62,2.62,1.38q2.74.59,3.92-1.88Z"/>
  <path class="cls-1" d="M285.39,419.7c-1.3,1.48.71,3.42-1.04,4.96-.48.42-.13,1.68-.43,2.45-.17.42-1.03.95-1.36.83-.48-.18-.96-.85-1.08-1.39-.38-1.68-.69-3.41,1.72-4,.37-.09.64-.79.87-1.25.28-.57.46-1.18.68-1.77l.64.17Z"/>
  <path class="cls-1" d="M294.01,186.77c-.37,1.13-.54,2.39-1.18,3.34-.57.86-1.05,1.46-.67,2.57.16.46-.2,1.33-.61,1.68-.38.33-1.32.48-1.68.23-.36-.25-.6-1.25-.39-1.66,1.16-2.21,1.4-5,4.54-6.17Z"/>
  <path class="cls-1" d="M261.23,294.89c.74,1.16,1.32,2.48,2.26,3.43,1.77,1.78-.81,2.39-.53,3.96-1.73-1.07-3.15-1.91-3.03-3.83.04-.62.55-1.22.85-1.83.19.06.37.12.56.17-.21-.52-.42-1.03-.63-1.55.17-.12.35-.24.52-.36Z"/>
  <path class="cls-1" d="M169.59,355.99c.08,1.73-.97,2.23-2.22,2.59-.52.15-1.05.28-1.54.49-.74.32-1.62.81-1.86-.36-.18-.86-.14-1.89,1.2-2.22.69-.17,1.22-.91,1.89-1.26.58-.31,1.26-.57,1.9-.58.2,0,.42.86.63,1.33Z"/>
  <path class="cls-1" d="M222.99,416.03c-.82,1.45-1.73,1.2-2.75.18-.06.55-.1,1.01-.15,1.47-.15.07-.3.13-.44.2-.78-2.02-3.34-2.8-3.6-5.91,2.54,1.48,4.65,2.71,6.95,4.05Z"/>
  <path class="cls-1" d="M258.54,286.26c.55.44,1.05.84,1.63,1.3-.43.85-.86,1.68-1.34,2.62-1.89-1.41-2.34-3.42-2.38-5.55,0-.47.5-1.25.89-1.34.44-.1,1.2.29,1.49.7.25.36.08,1.04.04,1.58-.02.21-.19.41-.33.68Z"/>
  <path class="cls-1" d="M230.72,366.9c-.45,1.53-.8,3.1-1.4,4.56-.25.6-1.04.98-1.59,1.46-.38-.56-.96-1.07-1.11-1.68-.42-1.73,2.38-4.63,4.1-4.34Z"/>
  <path class="cls-1" d="M266.79,284.12c-1.07-.25-2.01-.45-2.94-.71-.26-.07-.55-.29-.67-.53-.79-1.5-.19-4.35.97-5.4.86,2.17,1.75,4.4,2.64,6.64Z"/>
  <path class="cls-1" d="M292.7,441.95c-1.34-.01-2.68-.04-4.03-.03-.48,0-.97.21-1.43.15-.49-.07-1.05-.26-1.4-.58-.17-.16-.07-.96.14-1.1.45-.3,1.21-.64,1.58-.44,1.14.6,2.02.47,3.16-.08.68-.33,1.74.14,2.79.26-.39.86-.61,1.34-.82,1.82h0Z"/>
  <path class="cls-1" d="M241.75,324.3c-.73,1.92-1.15,3.48-1.92,4.84-.33.58-1.42.72-2.16,1.06-.05-.67-.35-1.47-.1-1.99.59-1.2,1.36-2.34,2.24-3.35.32-.38,1.13-.34,1.94-.55Z"/>
  <path class="cls-1" d="M243.92,325.87c-.38-4.44-.63-4.7-3.28-3.32.49-1.14.97-2.28,1.46-3.42.67.32,1.62.47,1.95,1.01.61.98.9,2.18,1.23,3.31.34,1.19-.01,2.07-1.35,2.43Z"/>
  <path class="cls-1" d="M255.69,308.1c-1.27,0-2.57.14-3.82-.04-1.14-.17-.83-1.05-.29-1.58.92-.9,2.17-1.49,2.23-3.05,0-.17.65-.31,1-.47.09.42.4.94.25,1.23-.72,1.41-.7,2.59.87,3.52-.08.13-.16.26-.24.39Z"/>
  <path class="cls-1" d="M232.24,363.14c-.63-.32-1.05-.54-1.41-.73.14-1.21.28-2.34.46-3.89.91-.23,2.13-.54,3.86-.98-1.14,2.2-2.01,3.88-2.91,5.6Z"/>
  <path class="cls-1" d="M303.97,414.44c1.26,1.6,2.52,3.2,3.81,4.84-1.79,2.35,2.02,3.43,1.07,5.77-1.8-3.39-3.61-6.78-5.41-10.16.18-.15.35-.29.53-.44Z"/>
  <path class="cls-1" d="M283.77,244.84c-.83.43-1.4.73-2,1.05.16.44.54.94.41,1.2-.5,1.03-1.13,2-1.78,2.96-.06.08-.76-.14-.76-.16.19-1.14.18-2.4.7-3.38,1.34-2.55,1.43-2.5,3.42-1.67Z"/>
  <path class="cls-1" d="M185.24,111.24c0,.88.29,1.86-.06,2.25-.73.79-1.78,1.3-2.76,1.83-.11.06-.89-.67-.83-.83.34-.88.73-1.81,1.35-2.51.37-.41,1.19-.41,2.3-.74Z"/>
  <path class="cls-1" d="M287.77,204.43c-.15-.54-.35-1.08-.45-1.64-.21-1.15-.41-2.31-.55-3.47-.06-.46-.09-1.01.11-1.4.12-.24.9-.46,1.02-.34.33.35.63.87.65,1.33.07,1.75.03,3.51.03,5.26-.27.08-.54.17-.81.25Z"/>
  <path class="cls-1" d="M275.07,387.08c-1.87-1.6-.14-3.97-1.2-5.79.16-.07.31-.15.47-.22.19.34.44.65.56,1.01.15.49.19,1.01.32,1.75.84-.4,1.45-.69,2.17-1.04.3,1.09.7,1.94-.81,2.46-.62.21-.98,1.17-1.51,1.84Z"/>
  <path class="cls-1" d="M166.16,362.63c-.33-.41-.65-.8-.96-1.19.99-.59,1.95-1.27,3.01-1.71.22-.09,1.17.69,1.16,1.06-.04,2.12-1.97,1.09-3.21,1.84Z"/>
  <path class="cls-1" d="M230.53,400.08c-1.42-1.07-3.04-1.14-2.95-3.09.02-.46-.88-.91-1.24-1.45-.34-.52-.54-1.13-.59-1.84,1.35,2.11,4.59,2.76,4.77,6.37Z"/>
  <path class="cls-1" d="M304.45,428.04c-.99.88-1.7,1.52-2.42,2.16-.49-.68-1.38-1.37-1.36-2.03.02-.56,1.02-1.39,1.7-1.53.48-.1,1.16.75,2.07,1.4Z"/>
  <path class="cls-1" d="M191.99,134.25v-5.77c.78.88,1.71,1.63,2.24,2.6.51.95.32,2-.93,2.48-.37.14-.7.36-1.3.68Z"/>
  <path class="cls-1" d="M279.88,384.11c-.27-2.07-.48-3.47,1.3-4.02.44-.14,1.2-.17,1.39.07.26.33.33,1.17.08,1.46-.7.82-1.6,1.47-2.77,2.49Z"/>
  <path class="cls-1" d="M224.36,402.29c-2.19.42-2.32,2.25-2.13,4.5-1.06-1.28-.75-5.83.13-7.16.59.79,1.18,1.57,2,2.66Z"/>
  <path class="cls-1" d="M219.02,387.65c-.96.43-1.75.88-2.6,1.13-.31.09-.76-.28-1.14-.44.64-.88,1.25-1.78,1.97-2.58.05-.05.97.64,1.44,1.03.15.13.17.42.33.87Z"/>
  <path class="cls-1" d="M245.03,326.89c.77-.54,1.41-1.06,1.45-1.01.74.77,1.4,1.62,2.08,2.45-.54.4-1.08.8-1.62,1.2-.58-.8-1.16-1.59-1.92-2.63Z"/>
  <path class="cls-1" d="M311.23,319.72c.14-1.33.23-2.24.34-3.25,1.26.58,2.47,1.15,3.69,1.71.02.21.04.41.06.62-1.25.28-2.5.57-4.08.92Z"/>
  <path class="cls-1" d="M226.22,264.94c.93.48,1.97.83,1.94,1.04-.18,1.42,1.03,3.12-1.02,4.59-.3-1.85-.56-3.44-.92-5.63Z"/>
  <path class="cls-1" d="M283.48,411.24c.3-.74.61-1.49.92-2.27,1.13-.32,2.32-.66,3.51-.99.1.23.2.45.3.68l-4.24,3.17c-.16-.2-.33-.39-.49-.59Z"/>
  <path class="cls-1" d="M170.07,365.57c-1.08,1.12.02,3.29-2.29,3.1-.39-.03-1.09-.77-1.03-1.05.32-1.44,1.25-2.24,3.32-2.05Z"/>
  <path class="cls-1" d="M221.8,387.48c1.23.53,2.46,1.07,3.7,1.6,0,.21.01.42.02.63-1.11.08-2.26.35-3.32.14-.45-.09-.69-1.2-1.02-1.84.21-.17.42-.35.63-.52Z"/>
  <path class="cls-1" d="M150.73,219.07c-.76-.06-1.95.16-2.23-.24-.71-1.04-1.55-2.36-.08-3.69.7,1.19,1.36,2.32,2.31,3.93Z"/>
  <path class="cls-1" d="M247.39,338.02c-.25,1.54-.35,2.73-.7,3.83-.09.28-.98.31-1.5.46.2-1.16.29-2.36.65-3.47.12-.37.93-.51,1.54-.82Z"/>
  <path class="cls-1" d="M287.51,434.64c.28.17.75.33.99.65.14.2.04.8-.16.96-.32.26-.8.39-1.23.41-.67.04-1.35-.03-2.02-.12-.3-.04-.58-.24-.86-.37.16-.29.26-.74.49-.82.84-.29,1.72-.45,2.79-.71Z"/>
  <path class="cls-1" d="M292.69,441.95c.39.71.91,1.38,1.12,2.14.14.52-.17,1.16-.28,1.75-.48-.12-1.19-.09-1.4-.4-.34-.5-.54-1.25-.44-1.83.11-.6.65-1.11,1-1.67h0Z"/>
  <path class="cls-1" d="M288.17,442.66c.73.52,1.28.92,1.84,1.32-.69.47-1.34,1.2-2.07,1.3-.42.06-.99-.91-1.49-1.41.51-.36,1.02-.72,1.72-1.21Z"/>
  <path class="cls-1" d="M213.34,410.42c2.2-1.02,4.16-.34,6.08.7.02.19.03.38.05.56-.77.06-1.59.31-2.29.13-1.32-.34-2.57-.93-3.85-1.42,0,0,.01.02.01.02Z"/>
  <path class="cls-1" d="M249.72,335.11c-.41-.14-1.15-.17-1.45-.54-.26-.32-.03-1.04.02-1.58.03-.33.07-.69.22-.98.2-.37.52-.67.79-1,.26.45.71.9.74,1.36.05.8-.17,1.62-.32,2.73Z"/>
  <path class="cls-1" d="M292.48,217.43c-1.72-1.18-3.01-2.07-4.31-2.96.14-.24.28-.49.42-.73.8.42,1.59.84,2.54,1.34.25-.21.62-.53,1.11-.95.07,1.03.14,1.91.24,3.3Z"/>
  <path class="cls-1" d="M203.34,417.62c1.54,1.38,1.52,1.51-.74,4.22-1.01-1.18-.9-1.89.74-4.22Z"/>
  <path class="cls-1" d="M235.08,385.03c-2.11,2.16-3.3-.17-5.28.44.52-.83.82-1.55.97-1.52,1.34.25,2.65.64,4.3,1.08Z"/>
  <path class="cls-1" d="M284.63,242.99c-.69-1.02-1.24-1.83-1.79-2.64.53-.17,1.2-.64,1.57-.47,1.12.51,1.65,1.39.22,3.11Z"/>
  <path class="cls-1" d="M278.64,267.39c-.55,1.17-.96,2.19-1.5,3.13-.14.25-.77.48-1.01.37-.26-.13-.56-.78-.44-.99.58-1.08.93-2.49,2.94-2.5Z"/>
  <path class="cls-1" d="M264.14,277.1c-.26-1.5-.4-2.31-.55-3.17q.83-.38,2.93,1.59c-.8.53-1.53,1.01-2.39,1.58Z"/>
  <path class="cls-1" d="M246.21,348.78c-1.17-.64-2.4-1.2-3.47-1.98-.28-.2-.04-1.1.24-1.71.74,1.65,3.71,1.28,3.23,3.69Z"/>
  <path class="cls-1" d="M240.23,336.39c.07-1.34,0-2.45.2-3.5.21-1.12,1.43-1.02,3.22.5-2.62-.53-2.04,2.06-3.42,3Z"/>
  <path class="cls-1" d="M243.4,398.66c.88-1.33,1.53-2.32,2.3-3.49,1.13,1.69.17,2.72-.62,3.68-.17.2-.93-.09-1.68-.19Z"/>
  <path class="cls-1" d="M299.26,440.32c-.5.34-.84.62-1.22.82-.47.25-.95.5-1.46.64-.29.08-.78.04-.91-.14-.15-.2-.12-.81.05-.92.77-.51,1.58-.96,2.44-1.29.18-.07.59.47,1.1.9Z"/>
  <path class="cls-1" d="M232.67,345.81c-1.28.68-2.1,1.16-2.97,1.53-.09.04-.47-.6-.71-.92.76-.49,1.49-1.02,2.3-1.42.17-.08.58.33,1.38.82Z"/>
  <path class="cls-1" d="M313.05,435.57c-.16-.92-.23-1.35-.31-1.79-.08.1-.16.2-.24.3-.84-.69-1.67-1.38-2.51-2.07.11-.14.22-.27.33-.41,1,.45,2.04.82,2.99,1.36,1.16.67.58,1.43-.27,2.61Z"/>
  <path class="cls-1" d="M233.8,390.3c-1.67.11-3.34.21-5.28.33.17-.49.34-1.33.48-1.32,1.62.07,3.23.27,4.84.44-.01.18-.02.37-.03.55Z"/>
  <path class="cls-1" d="M217.45,371.35c1.06-.22,2.12-.47,3.19-.62.11-.02.47.61.41.86-.08.34-.46.85-.72.86-.95,0-1.89-.16-2.84-.27-.01-.27-.03-.55-.04-.82Z"/>
  <path class="cls-1" d="M288.2,378.09c-.63,1.22-.54,2.99-2.59,2.38.31-1.02.62-2,1-3.23.59.32,1.07.57,1.59.85Z"/>
  <path class="cls-1" d="M214.61,423.92c-3.89.88-3.96.85-4.51-1.53,1.36.46,2.71.92,4.51,1.53Z"/>
  <path class="cls-1" d="M213.61,406.45h3.58c-.04.52-.01,1.04-.13,1.54-.07.3-.33.73-.56.76-.26.04-.61-.26-.86-.48-.7-.6-1.37-1.23-2.02-1.82Z"/>
  <path class="cls-1" d="M235.3,379.83c1.78.13,3.57.26,5.35.39-.01.26-.02.52-.04.78-1.78-.13-3.57-.27-5.35-.4.01-.26.03-.51.04-.77Z"/>
  <path class="cls-1" d="M254.93,298.86c.59.47,1.19.95,1.87,1.49-.83.6-1.47,1.06-2.42,1.75v-2.98l.55-.26Z"/>
  <path class="cls-1" d="M276.6,470.79c.56.86,1.05,1.32,1.11,1.83.04.3-.75,1.05-.9.99-.53-.24-1.12-.66-1.34-1.16-.11-.25.54-.83,1.13-1.66Z"/>
  <path class="cls-1" d="M269.04,261.65c-.16,1.13-.27,1.92-.43,3.04-.54-.37-1.32-.64-1.38-1.02-.11-.63.08-1.46.46-1.97.2-.27,1.07-.05,1.36-.05Z"/>
  <path class="cls-1" d="M299.06,269.31c2.26,1.46,2.49,2.14,1.06,3.54.54-1.58-2.31-1.63-1.06-3.54Z"/>
  <path class="cls-1" d="M279.46,402.56c.53-.68,1.05-1.36,1.58-2.03.23.03.46.07.7.1,0,.72.26,1.62-.08,2.11-.28.4-1.26.33-1.92.46-.09-.21-.18-.42-.27-.64Z"/>
  <path class="cls-1" d="M299.6,495.34c.4-.62.8-1.24,1.19-1.86l1.79,1.17c-.08.15-.16.3-.24.45l-2.27.6c-.16-.12-.32-.24-.48-.36Z"/>
  <path class="cls-1" d="M278.15,317.31c1.27.1,2.02.15,2.87.22-.14.83-.28,1.65-.52,3.06-.89-1.25-1.51-2.1-2.35-3.28Z"/>
  <path class="cls-1" d="M183.27,103.33c-.81-.25-1.62-.5-2.43-.74.36-.43.9-1.27,1.06-1.2.64.27,1.17.82,1.74,1.26-.12.23-.24.46-.37.68Z"/>
  <path class="cls-1" d="M281.35,233.46c-.82-.23-1.64-.46-2.72-.76.33-.65.62-1.23.97-1.94.79.87,1.42,1.56,2.05,2.26-.1.15-.2.29-.3.44Z"/>
  <path class="cls-1" d="M223.36,379.32c.39.65.78,1.31,1.16,1.96-.41.2-.81.39-1.22.59-.3-.7-.59-1.4-.89-2.11.32-.15.63-.3.95-.44Z"/>
  <path class="cls-1" d="M282.3,392.54c-.42.45-.79.97-1.28,1.32-.39.28-.94.34-1.41.5.21-.55.28-1.25.67-1.61.42-.39,1.13-.45,1.72-.66.1.15.2.3.3.44Z"/>
  <path class="cls-1" d="M283.63,207.81c.66-.22,1.32-.5,2-.64.33-.07.71.14,1.07.22-.16.35-.29.96-.5.99-.87.11-1.76.05-2.65.05.03-.21.06-.41.08-.62Z"/>
  <path class="cls-1" d="M281.28,371.72c.93-2.19,1.91-1.1,2.92-.16-.97.05-1.94.11-2.92.16Z"/>
  <path class="cls-1" d="M218.2,408.07c.2-.58.27-1.28.65-1.71.19-.22.93.05,1.42.1-.45.66-.91,1.31-1.36,1.97-.24-.12-.48-.24-.72-.36Z"/>
  <path class="cls-1" d="M282.01,314.31c-.61-1.33-1.37-1.91-2.57-.25-.05-.2-.09-.39-.14-.59.11-.39.21-1.12.34-1.13.81-.03,1.66-.01,2.42.24.23.08.21.92.3,1.41-.12.1-.24.21-.36.31Z"/>
  <path class="cls-1" d="M221.8,275.08c-.64.27-1.28.56-1.94.77-.04.01-.28-.59-.43-.91.66-.27,1.31-.55,1.97-.82.13.32.26.64.4.96Z"/>
  <path class="cls-1" d="M209.17,266.56c-.37-.47-.76-.89-.72-.93.43-.49.92-.93,1.4-1.38.23.28.71.72.65.82-.32.5-.78.91-1.32,1.49Z"/>
  <path class="cls-1" d="M280.27,303.75c.26.82.52,1.63.77,2.45-.31.07-.87.24-.88.2-.3-.79-.53-1.61-.78-2.42l.89-.22Z"/>
  <path class="cls-1" d="M288.46,416.44c-.62-1.2-1.01-1.95-1.4-2.7.08-.12.16-.24.24-.36.6.25,1.53.35,1.71.78.2.48-.27,1.25-.56,2.29Z"/>
  <path class="cls-1" d="M255.72,277.79c2.14.21,2.39.64,1.49,2.56-.53-.92-.95-1.63-1.49-2.56Z"/>
  <path class="cls-1" d="M277.02,390.79c-.21-.54-.57-1.09-.56-1.62,0-.28.68-.54,1.05-.81.11.73.22,1.46.34,2.19l-.83.24Z"/>
  <path class="cls-1" d="M238.67,355.83c.29-.72.52-1.47.91-2.13.13-.21.7-.15,1.07-.22-.05.36.03.82-.17,1.06-.43.52-1,.93-1.52,1.38-.1-.03-.2-.07-.3-.1Z"/>
  <path class="cls-1" d="M290.97,306.88c-.04.68-.09,1.37-.13,2.05-.37-.04-.74-.08-1.1-.12.12-.68.25-1.37.37-2.05.29.04.58.07.87.11Z"/>
  <path class="cls-1" d="M302.1,409.09c.75-1.86,1.05-1.85,2.68,0h-2.68Z"/>
  <path class="cls-1" d="M232.65,382.86c-.66-.59-1.31-1.18-2.26-2.03,1.91-.57,2.23.57,2.67,1.51-.14.17-.28.35-.42.52Z"/>
  <path class="cls-1" d="M187.16,169.39c1.44-.15,2.4-.73,2.04-2.47.19.05.39.11.58.16,0,.74.3,1.79-.07,2.16-.52.51-1.54.51-2.34.73-.07-.19-.14-.39-.21-.58Z"/>
  <path class="cls-1" d="M282.81,404.48c.8.65,1.44,1.18,2.19,1.8-1.84.66-2.05.48-2.19-1.8Z"/>
  <path class="cls-1" d="M301.98,262.9c-.05.72-.09,1.43-.18,2.15,0,.03-.49,0-.75-.02.04-.73.07-1.45.11-2.18.27.02.54.03.82.05Z"/>
  <path class="cls-1" d="M200.64,415.05c.04-.47-.09-1.18.16-1.35.38-.27,1.02-.18,1.55-.24.07.16.15.31.22.47-.46.44-.93.88-1.39,1.32-.18-.07-.36-.13-.54-.2Z"/>
  <path class="cls-1" d="M238.13,377.68c-1.34-.41-2.68-.82-4.02-1.24.08-.2.15-.39.23-.59,1.35.47,2.71.95,4.06,1.42l-.27.4Z"/>
  <path class="cls-1" d="M288.51,449.35c.73-.16,1.47-.33,2.2-.49.05.26.17.74.13.76-.7.25-1.42.44-2.13.64-.07-.3-.14-.6-.21-.9Z"/>
  <path class="cls-1" d="M264.56,290.8c-.76-.06-1.52-.13-2.44-.21.97-1.41,1.16-1.4,2.44.21Z"/>
  <path class="cls-1" d="M219.15,289.76c-.12-1.18-.25-2.35-.37-3.53.26,0,.53-.02.79-.02-.27,1.18.9,2.39-.44,3.54,0,0,.02.01.02.01Z"/>
  <path class="cls-1" d="M225.66,409.32c.87.19,1.67.24,1.7.41.09.58-.08,1.2-.58,1.95-.3-.64-.6-1.27-1.12-2.36Z"/>
  <path class="cls-1" d="M204.21,413.86c.41.45.82.89,1.24,1.34-.33.17-.86.56-.95.48-.39-.36-.64-.86-.95-1.31.22-.17.44-.34.66-.5Z"/>
  <path class="cls-1" d="M0,183.56c.88-.11,1.76-.22,2.64-.33.03.25.07.5.1.74-.88.11-1.75.22-2.63.33C.07,184.06.04,183.81,0,183.56Z"/>
  <path class="cls-1" d="M252.15,320.98q2.31-.19,2.43,1.93c-.85-.68-1.44-1.15-2.43-1.93Z"/>
  <path class="cls-1" d="M163.04,350.66c.1-.64.19-1.28.33-1.92,0-.03.73.07.73.09-.03.65-.12,1.3-.19,1.94-.29-.04-.58-.08-.87-.12Z"/>
</svg>