<?xml version="1.0" encoding="UTF-8"?>
<svg id="Layer_1" data-name="Layer 1" xmlns="http://www.w3.org/2000/svg" viewBox="0 0 404.69 500">
  <defs>
    <style>
      .cls-1 {
        fill: #000;
        stroke-width: 0px;
      }
    </style>
  </defs>
  <path class="cls-1" d="M349.36,0c.18,0,.35,0,.53,0,1.38,1.65,2.81,3.26,4.13,4.96,1,1.28-.34,5.26-1.94,6.39v9.58c3.81-.44,5.78-4.45,3.95-7.82-.69-1.28-.83-1.92.75-2.58.97-.4,1.66-1.48,2.48-2.26.41-.39.95-1.19,1.21-1.11,4.24,1.28,8.26-3.7,12.58-.45.26.2,1-.15,1.47-.35,1.55-.68,2.94-.86,4.33.51.78.77,1.93,1.16,2.84,1.68-.07.72-.14,1.42-.21,2.21,1.58.17,3.71-1.12,3.58,1.77,0,.17.52.41.82.55,2.23,1.03,4.46,2.03,6.88,3.13-.82.25-1.65.5-2.48.75,1.25.56,2.52.66,3.76.54,1.52-.16,3.31-1.13,4.43-.59,1.05.5,1.37,2.52,2.01,3.86.3.79,1.23,1.05,2.06,1.48.66.34,1.42.78,1.75,1.38.96,1.77-.04,7.14-1.3,8.65-.42.5-.51,1.33-.63,2.03-.25,1.4-.42,2.81-.69,4.73.11.47.59,1.58.56,2.67-.09,3.7-.18,7.42-.61,11.1-.25,2.1.32,4.34-1.8,6.3-.9.83-.55,4.29.47,5.57,1.09,1.38,1.24,2.58.45,3.34-2.94,2.84-.96,7.39-3.8,10.19-.18.18.13.82.15,1.26.05,1.22.26,2.49.04,3.66-.5,2.56-1.47,5.34-1.47,7.64,0,5.11-3.92,9.69-1.76,14.95.08.2-.09.51-.13.77-.41,2.65-.79,5.3-1.25,7.94-.08.46-.5.86-.69,1.31-.35.83-.71,1.66-.93,2.53-.27,1.1-.13,2.36-.62,3.32-1.76,3.41-1.18,6.89-.69,10.41.07.5.3,1.1.12,1.5-2.07,4.55-3.77,9.16-3.3,14.3.06.64-.39,1.31-.49,1.98-.6,4.03-1.14,8.06-1.77,12.09-.42,2.71-.15,6.07-1.68,7.91-1.69,2.04-1.48,3.85-1.67,5.91-.04.43-.06.86-.16,1.27-.71,2.84-1.42,5.68-2.16,8.51-.26,1.01-.36,2.21-.98,2.96-1.57,1.92-2.06,3.81-1.24,6.24.33.98-.14,2.31-.48,3.41-.69,2.19-2,4.28-2.23,6.5-.33,3.32.06,6.71.11,10.07,0,.42-.17.85-.31,1.26-1.14,3.32-2.27,6.64-3.44,9.95-.17.47-.55.87-.75,1.33-.3.71-.74,1.45-.74,2.18,0,1.57.34,3.13.34,4.7,0,1.53-.3,3.07-.39,4.6-.07,1.22.15,2.22-.82,3.51-1.16,1.55-1.85,4.03-1.58,5.94.49,3.47-.92,6.43-1.52,9.6-.09.48-.56.88-.72,1.37-.29.87-.56,1.77-.68,2.67-.33,2.33,1.16,5-1.71,6.86-.73.47-1.38,2.06.13,3.3.59.48.71,2.76.42,2.9-2.74,1.3-1.52,3.51-1.51,5.44,0,.61.07,1.25-.1,1.81-.72,2.4-1.55,4.76-2.28,7.16-.29.95-.52,1.94-.59,2.92-.18,2.37.06,4.82-.44,7.1-.75,3.39-1.89,6.66-2.32,10.18-.35,2.84-1.13,5.7-2.59,8.46-1.24,2.35-.59,5.69-.78,8.6-.17,2.63-.14,5.29-.58,7.87-.48,2.83-1.64,5.56-2.04,8.4-.52,3.62-.55,7.31-.88,10.97-.05.55-.67,1.02-.89,1.59-.45,1.16-.9,2.33-1.19,3.53-1,4.11-2.07,8.21-2.87,12.36-.62,3.21-1.13,6.48-1.19,9.73-.04,1.76.23,3.13-1.7,3.06,0,1.52.23,2.8-.04,3.96-.86,3.6-1.97,7.14-2.85,10.73-.56,2.29-2.54,4.17-1.17,7.08.61,1.3-.7,3.47-1.08,5.26-.3,1.41-.54,2.83-.74,4.26-.08.55.23,1.22,0,1.67-1.2,2.45-2.52,4.84-3.91,7.48-.67-1.03-1.12-1.72-1.57-2.4-.26-.01-.52-.03-.78-.04-.32,1.51-.7,3.01-.88,4.53-.02.17,1.07.48,1.28.56-.58.65-1.34,1.5-2.1,2.34.75.59,1.51,1.18,2.17,1.69-2.52.99-3.87,3.04-3.9,5.71-.03,2.14-.4,4.27-.48,6.41-.03.92.29,1.86.45,2.82-.29.52-.77,1.25-1.12,2.03-.78,1.72-1.58,3.44-2.22,5.22-.9,2.51-1.8,5.04-2.43,7.63-.66,2.7-.74,5.56-1.56,8.2-.69,2.2-2.08,4.18-3.17,6.25-.48.91-.91,1.87-1.49,2.72-1.59,2.34-3.24,4.65-4.99,7.14-4.3-3.7-6.22-8.16-6.87-14.09-1.47.61-3.81,1.07-3.85,1.69-.15,2.03-1.2,1.97-2.6,2.02-.42.02-.9.45-1.2.82-.67.84-1.19,1.8-1.88,2.63-1.15,1.39-3.47,2.8-3.37,4.06.26,3.25-.5,5.12-3.57,5.27.35,1.69.61,2.94.88,4.27-.4.22-1.38.64-1.35.78.76,2.77-1.15,4.35-2.46,6.31-1,1.5-1.35,1.08-2.54.22-1.38-.99-3.19-1.9-4.81-1.89-2.11,0-4.22.9-6.32,1.48-3.06.83-5.9-.16-7.77-2.67-.36-.49-1.02-1.07-1.55-1.09-3.48-.1-5.25-2.04-5.78-4.92-1.62,0-3.08.27-4.37-.07-1.49-.4-2.99-1.15-4.22-2.09-1.19-.92-2.12-1.05-3.28-.19-.05.04-.26-.13-.54-.27.34-.55.68-1.08,1.25-2-1.63-.2-2.94-.35-4.01-.48-1.01-2.05-2.05-4.02-2.95-6.05-.55-1.24-1.05-2.54-1.29-3.86-.47-2.6-.6-5.27-1.17-7.84-.21-.94-1.12-2.17-1.97-2.43-2.42-.74-3.27-2.33-3.17-4.64-3.79.51-7.74-2.54-10.82-7.29.57-1.9,1.62-3.47,1.31-4.71-.73-2.9-.99-2.83,2.14-3.07,2.34-.18,4.15-1.68,3.8-3.3-.31-1.46-1.49-2.49-1.79-4.21-.32-1.89-2.37-3.47-3.59-5.24-2.03-2.93-3.39-6.15-4.18-9.64-.2-.9-.99-1.67-1.56-2.47-.81-1.16-2.59-2.57-2.34-3.38,1.06-3.49-2.03-5.37-3.47-6.38-3.42-2.37-3.18-5.27-3.02-8.09-.63-.39-1.1-.55-1.38-.88-1.53-1.76-3.03-3.55-4.51-5.36-1.31-1.6-3.38-2.79-2.73-5.47.12-.5-.63-1.33-1.14-1.84-3.02-3.03-6.32-5.79-6.9-10.54-.14-1.15-1.31-2.15-.5-3.56.16-.27-.2-.95-.47-1.33-1.84-2.48-4.32-4.67-3.37-7.82-1.27-.61-2.49-.84-3.12-1.57-.99-1.14-1.73-2.57-2.33-3.98-.71-1.68-1.17-3.46-1.74-5.2-.47-1.23-1.01-2.51-1.74-3.66-1.88-2.97-3.87-5.88-5.76-8.85-.69-1.09-1.21-2.29-1.82-3.44-.67-1.27-1.23-2.62-2.06-3.78-.79-1.11-2.69-2.04-2.67-3.01.12-4.93-5.17-5.47-6.79-8.91-.43-.91-1.27-1.81-2.16-2.26-2.89-1.47-4.26-3.53-3.95-5.77-2.32-1.87-4.4-3.53-6.54-5.25-.54,1.66-.93,2.87-1.34,4.13.59.08,1.16.17,1.15.17,0,1.44-.03,2.65,0,3.86.08,2.82-.12,5.69.38,8.43.66,3.63-1.62,7.13-.11,10.79.33.8-.61,2.11-.92,3.2-.22.77-.56,1.59-.5,2.36.28,3.31.83,6.6.99,9.92.07,1.4-.8,2.82-.87,4.25-.14,3.2-.59,6.54.1,9.59.69,3.04-2.7,6.09.33,8.89.04.04.02.19-.02.25-2.52,3.03.16,6.22-.14,9.4-.35,3.81-.25,7.32-3.89,10.32,1.48.78,2.82,1.49,4.16,2.2-.08.16-.16.32-.24.48-1.13-.19-2.26-.38-3.42-.58.04,2,1.24,3.31.91,5.55-.48,3.27-.52,7.19,1.75,10.37.37.52.51,1.47.31,2.09-.66,2.07-.18,3.81,1.23,5.32,1.35,1.44,2.87,2.71,4.19,4.18.53.59.69,1.51,1.02,2.28-.77.11-1.59.44-2.3.29-1.51-.32-2.06-.07-1.56,1.57.24.78.17,1.66.27,2.88.71-.47,1.58-.73,1.71-1.19.65-2.45,2.11-1.79,3.35-.83,2.25,1.75,4.34,3.69,7.81,2.27-.61,2.06-1.1,3.87-2.17,5.21-1.03,1.29-2.67,2.09-4.03,3.11-1.47,1.1-2.8,2.56-4.44,3.25-3.49,1.48-6.9,2.77-7.49,7.23-.13.99-.68,2.05-1.35,2.8-.62.7-2.05,1.66-2.44,1.41-1.71-1.07-3.83-1.49-4.79-3.84-2.18-5.36-3.65-6.05-8.32-3.05-.3.19-.68.3-.89.55-2.16,2.57-4.79,2.01-7.43,1.08-1.29-.46-2.51-1.13-3.93-1.78-.15.59-.29,1.11-.63,2.39-.85-1.33-1.21-2.19-1.82-2.78-1.06-1.03-2.53-1.73-3.37-2.9-.77-1.07-.76-2.66-1.41-3.85-1.02-1.87-2.3-3.6-3.62-5.63-.61.73-.99.99-.99,1.25,0,.36.27.73.44,1.08,1.1,2.34.45,3.87-1.92,5.06-.64.32-1.53,1.2-1.46,1.72.29,2.2-.51,3.53-2.77,4.13.43.52.73.9,1.03,1.26-2.03,1.63-4.02,3.24-6.09,4.9-.89-1.43-.21-4.82-3.83-3.53-1.93.69-3.74,3.71-3.21,5.56.38,1.31.97,2.2,2.6,1.46-.11-.38-.2-.62-.24-.86-.14-.8-.27-1.6-.4-2.4.72.06,1.59-.11,2.14.24,1.09.68,2,1.63,3.14,2.6-.64.58-1.11,1.01-1.69,1.54.84.7,1.58,1.31,2.83,2.35-3.52.29-6.43.52-9.27.76v6.87c-.47.79-1.39,2.35-2.37,4.01,3.64,2.35-.72,3.54-.69,5.47.74.38,1.44.74,1.92.98-3.24,3.73-7.71,2.47-11.64,3.45-5.29,1.31-7.12-4.74-11.67-3.83.34-2.18-2.67-4.39-8.73-6.71.09-.52.19-1.06.31-1.69-1.35.21-3.24.93-3.59.48-1.49-1.94-2.9-.48-4.36-.36-.82.07-2.25.12-2.41-.24-.77-1.79-1.47-3.7-1.67-5.62-.22-2.08.36-4.3-2.69-4.71-.42-.06-.78-.65-1.16-1.01-.88-.85-1.76-1.7-2.61-2.53.22-.13.82-.47,1.41-.82-.08-.26-.15-.53-.23-.79-1.34.33-2.66.81-4.02.95-1.47.15-3.03.23-4.43-.12-1.13-.28-2.39-1.03-3.05-1.96-1.32-1.86,1.44-1.76,1.67-2.81.96-4.27,4.5-2.65,7.43-3.85-1.43,1.76-2.42,2.97-3.4,4.18l.27.63c1.15-.3,2.32-.52,3.43-.93,1.22-.45,2.36-1.09,3.55-1.61.94-.41,2.74,1.15,2.92-1.16-2.21-.89-4.28-1.75-6.37-2.56-1.31-.51-3.04-.58-3.87-1.5-.8-.89-.68-2.6-.94-3.87-1.31-.15-3.03.17-3.8-.53-2.52-2.31-5.4-3.24-8.67-3.43-.23-.01-.45-.22-.72-.36.32-.54.61-1.04.89-1.52-1.51-1.23-3.89-1.15-4.08-3.82-.08-1.07-1.05-2.41-2-3-3.34-2.1-3.55-4.33-.39-6.65-1.34-3.21-.12-11.66,1.36-12.79.31-1.47.51-2.41.78-3.67-.44-.59-.51-5.28.02-6.2.55-.97.89-2.07,1.26-3.13.24-.71.37-1.47.54-2.2.89-3.77,1.85-7.52,2.62-11.31.4-1.99.4-4.05.7-6.07.37-2.51,1.45-5.09,1.15-7.5-.41-3.29.98-5.27,3.14-7.16-1.36-3.05-.08-9.7,2.11-11.09-.23-.76-.75-1.55-.65-2.25.33-2.17.93-4.31,1.36-6.47.1-.52-.24-1.2-.02-1.62,1.02-1.99,2.19-3.88,1.22-6.29-.24-.59-.05-1.48.21-2.11.52-1.27,1.89-2.55,1.73-3.66-.41-2.83.43-5.38.97-8.01.5-2.4,1.14-4.77,1.6-7.17.53-2.8.94-5.62,1.39-8.43.49-3.14.97-6.29,1.45-9.44.5-1.16.92-2.41,1.24-3.69.24-.95.28-1.95.53-2.89.61-2.3,2.07-4.7,1.77-6.86-.42-3.01,2.06-5.57.69-8.54-.23-.49.29-1.33.46-2,1.06-4,3.3-7.71,3.05-12.01-.14-2.39.4-4.26,2.36-4.88-.28-1.17-.79-2.09-.65-2.91.33-1.91,1.13-3.75,1.42-5.66.23-1.54-.02-3.15-.06-4.73-.45-1.54,2.41-2.47.31-4.57.66-.26,1.25-.49,1.97-.77-.45-.66-1.13-1.2-1.07-1.62.52-3.5.68-7.16,1.92-10.4,1.41-3.7,2.79-7.24,2.73-11.3-.03-2.01.54-4.07,1.08-6.03.35-1.26,1.39-2.35,1.67-3.62.37-1.67.3-3.43.43-5.3-.18-.03-.61-.16-1.03-.15-1.53.05-3.14.62-3.86-1.61-.49-1.51-1.43-2.87-2.15-4.31-.05-.11.05-.36.15-.48,2.19-2.42,1.9-5.32,1.78-8.27-.08-1.83.47-3.52,2.9-3.6.5-.02,1.27-.49,1.41-.92,1-3.02,2.74-5.37,5.45-7.09.63-.4,1.29-1.61,1.13-2.23-.73-2.73.75-4.86,1.58-7.17.2-.56.4-1.15.4-1.73,0-2.24,0-4.42,1.78-6.17.45-.44.95-1.49.74-1.86-1.84-3.11,1.11-4.14,2.29-5.97-2.04-1.49-1.48-6.15.84-9.31-.16-1.28-.02-2.51.23-3.72.34-1.58,1.01-3.14,1.06-4.72.03-.86-1.38-1.77-1.36-2.63.08-2.89.19-5.87.98-8.61.34-1.16,2.36-1.92,3.73-2.66.61-.32,1.49-.13,1.98-.15.47-1.63.84-2.94,1.3-4.53-1.1.24-2.15.47-3.21.7.12.87.24,1.7.39,2.72-1.4-.41-2.46-1.11-3.29-.9-3.08.78-5.23-.82-6.35-3.06-2.08-4.13-4.66-8.16-3.57-13.36.45-2.18.15-4.14,3.09-4.3.28-.01.52-.73.77-1.1.95.36,1.93.74,2.91,1.11-.44.36-.88.71-1.39,1.13.87.91,1.6,1.68,2.84,2.98.18-2.11,1.22-3.72-1.49-4.08.67-.48,1.34-.95,2.02-1.44-.58-.65-.92-1.04-1.54-1.73,1.33-.27,2.3-.74,3.16-.58,2.28.42,3.6-.68,4.8-2.37.63-.89,1.51-1.59,2.28-2.38.95-2.04,1.29-4.48,1.82-6.87.14-.65,1.11-1.11,1.28-1.77,1.12-4.47.82-9.36,3.95-13.23.1-.13.21-.35.17-.49-.76-2.68,1.73-4.03,2.58-6.04.74-1.76,2.32-3.16,3.08-4.14,1.93.19,3.41.66,4.75.4,2.75-.53,5.8-.4,7.9-2.91.38-.45,1.42-.49,2.15-.48,1.44.02,2.87.21,4.05.3.83.58,1.58,1.08,2.29,1.63.64.5,1.26,1.03,1.86,1.59,1.58,1.46,3.04,3.07,4.77,4.3.41.29,1.68-.74,2.6-.98.56-.14,1.23,0,1.81.14,3.4.87,6.8,1.76,10.19,2.68,1.84.5,2.82,1.3,2.82,3.67,0,1.7,1.67,3.4,2.6,5.11.51.53.19,1.57.57,2.03,2.32,2.78.97,5.9.74,8.77-.39,4.97.67,6.98,4.32,7.71,1.14.23,2.38-.08,3.59-.15.18,1.4.75,2.09,2.4,1.41,1.75-.73,2.91-.28,3.51,1.8.68,2.36,1.83,4.57,2.67,6.89,1.51,4.1,2.88,8.26,4.43,12.34.81,2.13.65,4.45,2.25,6.51,1.33,1.71,1.55,4.31,2.19,6.54.29,1.04.4,2.13.64,3.51,3.17,1.93,6.52,4.19,6.08,8.14,1.39,2.47,2.41,4.27,3.8,6.72,1.36.28,2.35,1.62,3.09,4.03.79,2.61,3.07,4.75,4.6,7.15,1.27,2,2.18,4.27,3.65,6.08,2.14,2.63,3.45,6.11,7.01,7.42.2.07.14.74.29,1.09.54,1.22.85,3.18,1.73,3.49,2.47.87,2.05,1.82.46,3.15,2.68.93,5.57,1.19,4.96,5.15-.13.86,1.43,1.98,2.21,2.97,1.07-1.2,1.02.03,1.45.59,1.88,2.45,3.85,4.83,5.84,7.31-.14.12-.61.5-1.25,1.03,3.89,1.33,5.9,3.88,6.43,7.62,2.07.79,3.41,3.23,2.73,5.08.85.12,1.69.24,2.53.36.38,1.08,1.03,1.67,1.73,2.19,1.32.96,2.87,1.69,3.96,2.86,1.98,2.14,3.76,4.46,5.47,6.82,1.82,2.5,3.36,5.2,5.2,7.68,1.73,2.33,2.14,5.33,4.84,7.29,2.16,1.58,3.34,4.52,4.87,6.9.37.57.21,1.79.62,1.97,2.15.95,3.4,2.62,4.26,4.66.61,1.46,1.09,2.98,1.68,4.61,2,.45,3.76,3.52,3.37,6.08.84.68,2.4,1.55,2.29,1.92-.57,1.89,2.04,1.47,1.99,3.11-.02.61,2.24-.3,2.3-1.69.07-1.67.09-3.34-.02-5-.05-.82-.17-2.07-.68-2.35-1.9-1.06-1.4-2.61-.75-3.81,1.41-2.57,1.25-4.82-.81-6.9,2.48-1.44,2.93-3.16,1.78-5.66-.25-.55-.21-1.28-.17-1.91.07-1.11.25-2.22.39-3.33-.2-.05-.4-.09-.6-.14.92-1.14,1.83-2.29,2.44-3.05-.29-.91-.84-1.76-.62-2.08,1.78-2.62-.03-5.95,1.79-8.52.13-.18.19-.64.07-.74-2.13-2.01.32-4,.55-5.72.28-2.1,1.15-4.39,1.48-6.7.17-1.23.87-2.39,1.45-3.89.03.03-.39-.37-.27-.26.29-2.21.41-3.87.73-5.49.38-1.88,1.77-3.43.95-5.72-.51-1.42.2-3.27.36-4.92.21-1.4.65-2.75.84-4.13.24-1.75-.39-4.15.55-5.19,2.35-2.6,1.08-5.99,2.63-8.65.32-.55.16-1.39.25-2.59.22-.2.93-.82,1.83-1.61-2.45-.95-2.21-2.29-.89-3.87.3-.36.35-.94.52-1.41.66-1.83,1.32-3.65,1.96-5.43-3.22-.69,2.04-3.54-.02-4.18.95-1.42,1.86-2.79,2.85-4.29-.98-.34-1.57-.54-2.65-.91,1.55-.52,2.59-.87,3.9-1.31-1.24-.78-2.1-1.32-2.95-1.86.1-.24.2-.48.31-.72h3.46c-.74-1.39-1.38-2.59-2.1-3.94,1.5-.35,2.58-.6,4.09-.96-1.09-.59-1.77-.95-2.27-1.22,1.16-2.12,2.21-4.03,3.21-5.88-1.05-.15-1.99-.29-3.46-.51,3.2-3.05,3.05-5.98,1.65-9.17-.5-1.13-1.03-2.65-.66-3.67.84-2.31.96-4.31-.53-6.35-.3-.41-.57-1.25-.36-1.56,1.22-1.83,1.99-4.2,4.79-4.36.59-.03,1.16-.49,1.83-.79-2.66-2.79-2.64-3.15.38-7.62-.82-.62-1.65-1.25-2.34-1.78,1.05-1.8,3.55-2.09,3.99-5.07.37-2.53-.35-4.59-.6-6.86-.11-.97.61-2.46.16-2.89-2.6-2.48.27-2.97,1.19-3.99-1.02-1.46-2.01-2.88-2.99-4.3.68-.9.79-1.78.81-2.68.03-1.14-.5-2.79.06-3.32,1.92-1.82,3-3.89,3.52-6.45.34-1.65,1.12-3.2,1.74-4.92-.04-.04-.37-.32-.44-.38.74-.96,1.92-1.85,1.79-2.43-.65-2.73,1.09-4.36,2.43-6.19,1.38-1.88,3.1-1.7,4.49-.21,2.26,2.43,4.9,3.02,8.03,2.51.85-.14,1.83.19,2.69.48,3.11,1.04,6.16,2.27,9.32,3.14.76.21,1.89-.64,2.73-1.18.87-.56,1.58-1.35,2.37-2.04.15-1.02.46-2.47,1.17-2.71,2.76-.91,3.57-3.11,4.28-5.1-.63-.87-1.61-1.72-1.45-2.1.31-.77,1.19-1.37,1.95-1.86.64-.42,1.45-.59,2.18-.88l-.04.03c.67-.18,1.34-.43,2.02-.54,3.65-.58,7.92-.45,6.72-6.28-.09-.46.51-1.07.79-1.6.47-.89,1.09-1.73,1.37-2.67.49-1.69.52-3.55,1.22-5.13.73-1.64,1.77-3.96,3.13-4.34,2.85-.8,4.48-2.49,5.85-4.8ZM78.83,436.21c2.79-.03,5.05,2.9,7.88.9-.37-1.62-.7-3.08-1.08-4.73.71-.15,1.45-.36,2.2-.47,2.99-.43,3.56-1.2,3.27-4.23-.07-.68.11-1.38.21-2.07.34-2.31.7-4.62,1.05-6.93-2.32-.4-5.32,1.48-5.96,3.18-.93,2.47-2.68,3.19-4.54,2.13-.97.72-1.81,1.35-2.7,2.01.27.96.55,1.94.84,2.94.84-.06,1.59-.11,1.87-.13,3.52,4.42.92,6.14-3.04,7.39ZM57.8,101.22c1.34.65,2.5,1.22,3.67,1.79.24-.12.48-.25.72-.37-.22-1.1-.07-2.8-.72-3.2-1.57-.97-2.98-.21-3.67,1.78ZM331.93,64.64c.85-1.11,1.7-2.22,2.8-3.66-3.81-.57-4.09-.23-2.8,3.66ZM329.4,52.9c-.39-1.02-.74-1.93-1.24-3.21-.76.52-1.65,1.12-2.65,1.81,1.4,1.46,2.33,3.02,3.89,1.4ZM326.93,31.97l-.41.76c.93,1.18,1.34,3.43,4.36,1.44-1.59-.88-2.77-1.54-3.95-2.2Z"/>
  <path class="cls-1" d="M328.29,25.32c-.91-.31-1.81-.61-2.54-.86.15-1.39.04-2.73.49-3.85.44-1.09,1.3-2.19,2.28-2.81.47-.3,2.08.26,2.39.84.62,1.17,1.37,2.6-.28,3.87-.96.74-1.6,1.88-2.39,2.84,0,0,.04-.03.04-.03Z"/>
  <path class="cls-1" d="M86.72,466.69c-1.44,1.08-2.14,1.94-3.03,2.2-1.78.53-2.25-1.33-2.1-2.17.15-.84,1.45-1.7,2.42-2.06.42-.15,1.29.93,2.7,2.04Z"/>
</svg>