<?xml version="1.0" encoding="UTF-8"?>
<svg id="Layer_1" data-name="Layer 1" xmlns="http://www.w3.org/2000/svg" viewBox="0 0 308.64 500">
  <defs>
    <style>
      .cls-1 {
        fill: #000;
        stroke-width: 0px;
      }
    </style>
  </defs>
  <path class="cls-1" d="M183.04,222.91c2.14,4.62,4.27,9.26,6.42,13.87,4.06,8.72,8.01,17.59,12.25,26.09,2.23,4.48,5.02,8.27,7.46,12.5.66,1.14.97,2.77,1.48,4.29,1.74-.79,2.42,1.9,3.28,3.84,1.52,3.44,3.17,6.39,5.59,8.54,1.85,1.64,3.19,4.68,4.85,6.93,2.91,3.94,5.9,7.75,8.85,11.61.17-.3.35-.6.52-.91-1.77-2.55-3.54-5.09-5.31-7.64-.9-1.3-2.61-2.4-1.61-4.56.32-.68,2.59.3,3.7,1.29,2.03,1.8,3.84,4.19,5.77,6.27.32.35.8.33,1.2.47,1.61-5.85.62-22.81-1.31-24.18.69-12.77-.86-25.29-2-37.79-1.39-15.21-3-30.39-4.87-45.49-.65-5.27-2.54-10.17-3.49-15.4-1.25-6.89-2.09-13.94-3.17-20.91-.79-5.11-.89-10.24-3.16-15.03-1.75-3.7-4.01-7.72-3.98-13.34.02-3.65-1.26-6.88-3.44-9.24-1.08-1.18-1.95-3.66-2.24-5.76-.94-6.9-1.81-13.87-2.22-20.87-.17-2.89-.25-5.65-1.02-8.32-.18-.61-.3-1.27-.5-1.85-.43-1.22-1.45-3.06-1.24-3.51.74-1.61,1.77-3.48,2.91-3.91,2.21-.84,3.73-2.38,4.37-6.61,1.12,1.63,2.15,2.79,2.89,4.29,1.55,3.13,3.37,5.51,5.88,6.21.82.23,1.7-.04,2.92-.11,1.2,1.88,2.73,3.97,5.1,2.15.38-.29,1.37.65,1.83,1.41,1.47,2.42,3.02,2.5,4.02.34,1.88,1.68,3.68,3.53,5.6,4.88.66.46,1.65-.33,2.5-.5,1.13-.22,2.26-.38,3.39-.56-.53-4.41-2.9-7.71-5.45-8.11-.79-.13-1.51-1.27-2.3-1.79-.85-.56-1.74-.95-2.61-1.42l.04.04c.48-.31,1.01-1.01,1.43-.86,1.24.45,2.5,1.03,3.64,1.92,1.74,1.36,3.24,3.48,5.39,3.41.54-.02,1.1,1.28,1.69,1.87,1,.99,1.97,2.4,3.05,2.72,2.28.67,3.78,1.91,4.06,6.02.09,1.35,1.11,3.05,1.97,3.72,1.79,1.39,3.84,1.9,5.63,3.31,2.19,1.72,4.21,3.98,6.31,6.01.3.29.57.69.89.9,6.47,4.31,11.14,11.26,14.27,21.46,2.39,7.76,2.73,15.73,2.89,23.78.37,19.25,1.04,38.4,3.37,57.45,1.51,12.32,2.29,24.85,3.31,37.3,1.05,12.77,1.98,25.56,2.99,38.33.83,10.55,1.81,21.08,2.51,31.64.49,7.35.43,14.78.95,22.13.82,11.64-.72,22.92-1.21,34.36-.28,6.53.12,13.15.19,19.73.05,4.25-.04,8.51.1,12.75.25,8.04.79,15.99,3.15,23.44.58,1.84.56,4.14.87,6.21.63,4.2,1.28,8.39,1.97,12.57.12.74.44,1.4.57,1.79.73-.17,1.68-.74,1.87-.36.47.94.88,2.36.82,3.5-.21,3.55-4.71,9.04-6.91,8.19-1.22-.47-2.28-2.15-3.36-3.39-.68-.78-1.28-1.76-2.25-3.12-.18,1.93-.28,2.96-.41,4.37-.87-.36-1.64-.69-2.57-1.08-.54,2.09-.38,5.32-2.73,5.03-.16-.02-.42,1.47-.54,2.3-.18,1.18-.29,2.39-.42,3.56-2.5-.17-4.04,2.38-4.13,5.95-1.39.54-2.65,1.03-4.28,1.67,1.59,2.4-2.34,6.18,2.08,7.63-1.9,1.17-3.25,2.25-4.69,2.83-2.28.91-4.61,1.66-6.95,2.14-2.97.61-6,.64-8.94,1.41-2.49.65-4.94,1.77-7.32,3.1-2.02,1.13-3.85,3.04-5.87,4.17-.48.27-1.65-.91-2-1.87-.73-1.99-.87-4.7-2.94-4.36,0-.98-.22-2.65.02-2.83,1.69-1.26,1.58-3.3,1.57-5.84-.02-4.1-.65-7.83-1.31-11.76-.54-3.23.28-7.21.95-10.62.79-4.04.64-7.03-1.26-9.99-.1-.16-.25-.25-.33-.44-1.83-4.61-4.15-8.41-7.21-11.03-.3-.25-.52-.78-.73-1.23-.12-.25-.14-.61-.41-1.85,1.17,1.24,1.88,2.43,2.72,2.77,1.13.46,2.48.8,3.5.21,1.23-.7.92-2.89,1.06-4.83.47-6.46-3.08-8.4-5.13-11.68-4.54-7.25-10.76-9.05-16.7-11.55-.55-.23-1.15-.39-1.61-.86-1.72-1.72-3.5-1.63-5.33-.83-.48.21-1.11.76-1.42.47-1.08-1-2.05-2.31-3.06-3.5.89-.82,1.73-1.85,2.68-2.4.98-.56,2.18-.32,3.09-1.02,2.17-1.67,2.13-4.08.2-6.6-.85-1.12-1.45-2.74-2.15-4.14-.04-.08-.03-.28-.08-.31-3.33-1.89-2.44-6.43-3.06-10.36-.86-5.43-2.73-10.5-4.17-15.72-.08-.3-.24-.57-.37-.83-4.37-8.46-8.22-17.53-12.64-25.94-.91-1.73-1.49-4.1-1.83-6.31-.61-3.95-2.68-5.93-4.15-8.76-2.48-4.76-4.68-9.87-7-14.84-.87-1.86-1.73-3.72-2.68-5.75-.24.78-.45,1.48-.96,3.14-1.04-7.22-1.53-13.87-5.22-18.97.05,1.66.09,2.67.12,3.68-.14.17-.28.35-.43.52-.81-1.52-1.74-2.91-2.4-4.57-2.67-6.67-5.11-13.58-7.9-20.13-11.61-27.27-23.31-54.44-34.97-81.65-5.65-13.19-11.25-26.41-16.89-39.61-.49-1.15-1.09-2.19-2.07-2.85.34,1.29.69,2.59,1.2,4.51-3.89-8.58-7.22-17.02-11.26-24.54-4.07-7.58-8.83-14.24-13.59-21.8l1.85-.09c-4.2-10.01-8.38-19.66-14.77-26.38.14-.32.27-.64.41-.96,1.08.42,2.15.84,3.3,1.29-.86-3.64-5.11-8.88-7.21-9.1-.22-.02-.44-.45-.63-.73-1.45-2.13-2.9-4.27-4.35-6.4,0,0,.03.05.03.05-.88-2.5-1.75-5-2.63-7.5.19-.27.37-.55.56-.82.58.73,1.33,1.29,1.72,2.21,1.05,2.49,4.31,4.93,6.05,4.13,1.2-.55,1.97-1.73.84-3.63-.81-1.36-1.81-2.43-2.76-3.58-.73-.89-1.5-1.7-2.25-2.54.53-1.04,1.06-2.07,1.42-2.78-.1-2.94-.28-5.73-.21-8.51.02-.68.9-1.92,1.26-1.81,1.26.41,2.47,1.29,4.05,2.2.8-.94,1.97-2.3,3.31-3.87,1.72,2.87,3.85,3.19,6.2,2.2.34-.14,1.08.73,1.32,1.41,1.03,2.85,1.82,5.94,2.98,8.65.38.89,1.67,1.31,2.45,1.12.46-.11,1.14-2.01,1-2.79-.17-.91-1.11-1.52-1.76-2.15-.34-.33-.77-.41-1.41-1.53,1.29-1.06,2.57-2.11,3.9-3.21-.39-.52-.9-1.18-2-2.64,2-.83,3.48-1.52,4.99-2.01.25-.08.92.84.88,1.09-.13.83-.49,1.57-.84,2.58.6.35,1.25,1.11,1.76.94,3.16-1.04,4.38,2.45,5.62,5.89,1.15,3.2,1.29,3.33,3.34,1.25,1.88,4.07,3.78,8.2,5.7,12.31,1.16,2.48,1.63,5.51,3.97,6.86,1.65.95,2.89,4.18,4.1,6.64,4.2,8.55,8.42,17.08,12.41,25.86,4,8.79,7.74,17.86,11.58,26.84,1.95,4.56,3.89,9.13,5.76,13.77.85,2.1,1.62,4.31,2.2,6.61.2.78-.33,2-.53,3.06.3.08.76-.01.91.28,1.41,2.77,2.77,5.59,4.13,8.42.24.5.42,1.1.53,1.7.33,1.87.6,3.75.9,5.63.29-.07.58-.14.87-.21-.05-1.47-.1-2.93-.17-5.27,2.6,3.64,1.48,8.01,2.01,12.08.41-.89.73-1.57,1.23-2.66,1.52,3.31,2.91,6.32,4.23,9.2-.67,1.83-1.33,3.64-1.99,5.45.08.34.15.69.23,1.03,2.3-3.64,3.96-1.03,5.75,1.29-.48,2.81-1.02,6.02-1.63,9.64.88-.17,1.47-.29,2.17-.43-.12-1.22-.22-2.16-.32-3.11.18-.24.35-.47.53-.71,1.7,2.96,3.4,5.92,4.94,8.59.03.98-.16,2.16.13,2.83,1.76,4.06,3.68,7.96,5.45,12.02,1.59,3.65,2.97,7.52,4.58,11.15,2.88,6.48,5.85,12.86,8.81,19.26.47,1.01,1.05,1.89,1.58,2.83.15-.18.31-.37.46-.55-1.28-3.03-2.61-6.03-3.84-9.11-1.79-4.47-3.51-9.01-5.26-13.52l-.03.04ZM117.01,91.54c.35,2.89,1.64,2.5,3.05,1.73-.45-.89-1.03-1.43-1.66-1.7-.44-.19-.95,0-1.42.02-.55-1.92-1.07-3.85-1.64-5.75-.63-2.09-1.53-3.27-2.65-2.58.87,1.82,1.67,3.55,2.52,5.21.56,1.08,1.2,2.05,1.8,3.07ZM224.66,409.98c.06-.59.12-1.18.18-1.76-1.93-1.11-3.86-2.22-5.92-3.4-.07,1.94-.12,3.54-.17,4.93,1.09.14,2.06.32,3.02.36.96.04,1.93-.08,2.89-.13ZM138.98,125.96c-.3.28-.61.56-.91.85.98,2.39,1.93,4.81,2.96,7.15.12.28.65.29.94.16.14-.06.32-.88.23-1.09-1.04-2.38-2.14-4.72-3.22-7.06ZM166.89,198.12l3.28,7.31c.4-4.07-1.25-5.93-3.28-7.31ZM252.46,96.38c-.06-3.82-.28-4.35-1.95-4.96-.24,4.08-.17,4.27,1.95,4.96ZM123.17,98.59c-1.06,1.94.04,4.93,3.09,7.23-1.08-2.54-2.1-4.93-3.09-7.23ZM136.81,125.56c1.87-1.65.54-3.03-.12-4.16-.29-.48-1.03-.29-2.09-.51,1.03,2.18,1.58,3.33,2.21,4.67ZM147.5,155.48c-.64-3.17-1.42-3.66-3.38-2.09,1.12.7,2.17,1.35,3.38,2.09Z"/>
  <path class="cls-1" d="M24.12,474.04c-.43-2.92-3.65-5.56-5.07-4.2-.41.39-.87.67-1.3,1,.01-.85.03-1.7.05-3.12-6.33-1.06-11.8-6.1-17.26-10.83,1.15-2.45,2.15-4.59,3.25-6.95,2.99,1.89,5.68-1.28,8.55-2.76,1.33-.69.93-2.49.03-3.68-.53-.7-1.23-1.08-1.82-2.18,1.06-.05,2.13.06,3.17-.2,2.21-.56,4.43-1.13,6.57-2.1.56-.25,1.19-1.97,1.19-3.03-.09-11.75-.29-23.5-.47-35.25-.2-13.1-.46-26.21-.6-39.31-.2-19.24-.22-38.48-.5-57.72-.11-7.34-1.04-14.68-1.07-22.01-.06-14.63.21-29.26.41-43.89.08-5.81.41-11.6.39-17.41,0-1.58-.87-3.18-1.41-5,2.47.01,2.11-2.98,2-5.54-.48-11.18-1.11-22.35-1.52-33.53-.3-8.39-.31-16.79-.51-25.19-.38-16.34-.83-32.67-1.18-49-.08-3.79.24-7.6.18-11.39-.02-1.09-.63-2.99-1.1-3.1-1.59-.39-1.35-1.78-1.43-3.59-.33-7.46-.83-14.91-1.27-22.36-.01-.22-.03-.5-.11-.64-1.51-2.53-2.76-5.02-.16-7.69.11-.11-.13-1.48-.41-1.99-1.62-2.98-3.18-6.09-5.01-8.71-1.02-1.47-2.48-2.55-3.84-2.96-1.5-.45-2.54-.72-2.67-3.64C1.13,34.78.36,33.56,0,32.57c.27-1.6.62-3.03.75-4.51.3-3.41.6-6.84.67-10.28.03-1.64-.5-3.3-.7-4.97C.11,7.87,2.39,5.17,4.06,2.03c.41-.76.96-1.33,1.48-2.03.43.5.85,1.36,1.34,1.49,3.35.9,4.22,5.05,5.51,9.16.58,1.84,2.74,2.79,4.3,3.49,1.68.75,3.58.3,5.22,1.2,1.45.8,2.64,2.79,3.99,4.13,1.68,1.67,3.37,3.36,5.14,4.79,4.76,3.85,9.56,7.57,14.34,11.34,2.38,1.88,4.78,3.69,7.12,5.69.49.42.76,1.51,1.1,2.33,1.08,2.58,2.13,5.2,3.24,7.75.65,1.48,1.36,2.9,2.1,4.27.95,1.75,1.96,3.43,2.94,5.14,0,0-.03-.05-.03-.05.56,1.3.99,2.83,1.71,3.85,1.99,2.8,2.36,6.43,2.28,10.16-.19,8.36-.62,16.7-.76,25.07-.03,1.75.46,4.39,1.26,5.21,3.37,3.39,3.87,9.13,5.17,14.38-2.01-3.14-4.02-6.29-6.53-10.22-.16,2.35-.31,3.57-.31,4.8,0,28.45,2.47,56.52,5.76,84.54,2.18,18.53,3.94,37.2,5.4,55.89,1.13,14.55,1.82,29.22,2.13,43.85.33,15.43-.09,30.87-.06,46.31.03,15.11.2,30.22.32,45.34.06,7.93-.01,15.86.23,23.78.35,11.33,1,22.65,1.41,33.97.18,5.14.1,10.29.1,15.43,0,.72-.33,1.42-.37,2.15-.1,1.94-.27,3.92-.12,5.83.1,1.32.69,2.57,1.23,4.46-1.02-.23-1.6-.43-2.18-.48-2.23-.19-3.88,1.32-5.13,4.14-1.22,2.74-2.81,2.05-4.92.97.92-.98,1.43-1.53,2.35-2.51-3.71-2.38-7.19,1.98-10.67-1.19-.38,2.68-.72,5.04-1.02,7.19-1.46.07-2.98.04-4.48.29-.44.07-1.02.8-1.2,1.46-.39,1.46.91,3.97-1.19,4.41-1.06.23-2.08.92-3.45,1.55-.09.4-.31,1.41-.62,2.82-.61-.36-1.32-.44-1.7-1.04-3.61-5.66-7.99-9.38-12.53-12.64-3.25-2.33-6.59-4.35-9.89-6.5l.04.04ZM14.32,462.57c.84,3.32,2.35,3.01,3.68,2.94.4-.02.76-1.01,1.15-1.55-.4-.53-.77-1.44-1.19-1.5-1.09-.17-2.21.04-3.64.11Z"/>
  <path class="cls-1" d="M106.66,190.32c-1.92-4.23-3.75-8.06-5.44-12.02-4.86-11.38-9.66-22.83-14.51-34.22-.7-1.64-1.32-3.47-3.05-2.52-1.57.86-2.9,1.7-2.7,5.75-3.13-8.31-5.96-15.83-8.8-23.36,3.11,3.33,4.99,8.03,6.58,13.06.56,1.77.63,5.23,2.37,3.66.82-.73.8-4.53.63-6.85-.1-1.42-1.33-2.59-1.84-4.06-1.05-3-1.95-6.13-2.74-9.33,5.73,5.78,30.46,64.11,29.5,69.89Z"/>
  <path class="cls-1" d="M175.06,307.86c-14.14-22.83-23.6-50.72-34.24-77.33.34-.38.68-.77,1.01-1.15,1.69,3.66,3.43,7.25,5.05,10.98,5.25,12.1,10.47,24.22,15.67,36.38,1.91,4.47,3.63,9.13,5.57,13.56,1.75,3.98,3.71,7.71,5.52,11.63.77,1.67,1.38,3.52,2.06,5.29-.21.21-.42.42-.63.64Z"/>
  <path class="cls-1" d="M155.84,283.43c-4.15-9.65-8.32-19.28-12.43-28.97-.62-1.47-.97-3.22-1.44-4.85.28-.24.57-.48.85-.72,4.56,11.29,9.12,22.58,13.68,33.86l-.66.67Z"/>
  <path class="cls-1" d="M171.89,316.45c-4.55-5.08-7.2-12.39-10.2-19.77,1.81.33,7.84,12.38,10.2,19.77Z"/>
  <path class="cls-1" d="M96.65,186.92c-2.32-8.26-4.64-16.52-6.97-24.77.17-.11.34-.23.5-.34,2.9,7.87,5.46,15.96,6.94,24.79-.16.11-.32.22-.48.33Z"/>
  <path class="cls-1" d="M199.91,367.9c-3.46-.97-4.18-5.9-5.1-10.56,1.91,3.17,3.82,6.34,5.73,9.5l-.63,1.05Z"/>
  <path class="cls-1" d="M235.93,80.09c.51,1.42,1.02,2.83,1.53,4.25-.11.21-.22.42-.34.63-1.53-1.34-3.11-2.57-4.56-4.1-.29-.3-.11-1.73-.15-2.65.55.17,1.25.06,1.62.56.6.81.84,2.52,1.94,1.34,0,0-.04-.04-.04-.04Z"/>
  <path class="cls-1" d="M225.81,82.03c-.7-2.16-1.43-4.3-2.06-6.51-.06-.22.63-1.28.68-1.23.6.63,1.47,1.24,1.65,2.15.31,1.6.18,3.39.24,5.11-.17.16-.33.32-.5.49Z"/>
  <path class="cls-1" d="M197.28,352.77c1.61,2.73,3.23,5.46,5.09,8.61-2.25-.69-4.12-3.85-5.09-8.61Z"/>
  <path class="cls-1" d="M182.89,332.32c-1.85-2.11-3.71-4.23-5.92-6.75,2.4-.08,2.58.13,5.92,6.75Z"/>
  <path class="cls-1" d="M136.51,256.75c1.22,3.41,2.44,6.82,3.66,10.24-.18.16-.36.32-.55.47-1.27-3.37-2.54-6.73-3.8-10.1.23-.2.46-.41.69-.61Z"/>
  <path class="cls-1" d="M24.08,473.99c.57.77,1.14,1.55,1.71,2.32-.1.31-.2.62-.3.93-1.48-1.09-2.97-2.19-4.45-3.28.08-.38.17-.75.25-1.13.94.4,1.89.8,2.83,1.2,0,0-.04-.04-.04-.04Z"/>
  <path class="cls-1" d="M183.07,222.86c-1.5-2.9-3-5.79-4.5-8.69.18-.21.36-.42.54-.63,1.5,2.9,3.17,5.6,3.94,9.36,0,0,.03-.04.03-.04Z"/>
  <path class="cls-1" d="M197.53,372.77c.37,1.9.75,3.79,1.26,6.36-2.19-1.77-2.49-3.76-1.88-6.23.21-.04.42-.09.62-.13Z"/>
  <path class="cls-1" d="M220.24,430.7c1.5,2.57,3,5.13,4.5,7.7-.1.15-.2.3-.29.45-1.56-2.46-3.12-4.93-4.68-7.39.16-.25.32-.5.48-.76Z"/>
  <path class="cls-1" d="M229.11,68.08c.68,1.44,1.36,2.88,2.04,4.32-.23.27-.45.54-.68.82-.72-1.46-1.44-2.92-2.17-4.37.27-.25.54-.51.8-.76Z"/>
</svg>