<?xml version="1.0" encoding="UTF-8"?>
<svg id="Layer_1" data-name="Layer 1" xmlns="http://www.w3.org/2000/svg" viewBox="0 0 361.1 396">
  <defs>
    <style>
      .cls-1 {
        fill: #000;
        stroke-width: 0px;
      }
    </style>
  </defs>
  <path class="cls-1" d="M352.69,120.67s0,.04,0,.07c.01-.01.02-.03.03-.04,0,0-.03-.02-.04-.02Z"/>
  <path class="cls-1" d="M331.31,54.73s0,0,0,0c-.01-.01-.03-.02-.04-.04l.04.04Z"/>
  <path class="cls-1" d="M360.65,108.75c.53-.87.59-1.76.19-2.69-.61-.06-1.21-.12-1.81-.19-.04.21-.09.43-.14.65-1.03-.14-1.35-.79-1.48-1.67.35-.03.64-.05.96-.07.06-.46.11-.88.11-.88-.64-.87-1.07-1.45-1.5-2.04.44-.34.68-.51.98-.74-.52-.03-.95-.06-1.48-.09.11-.73.2-1.38.32-2.16-.16-.13-.48-.39-.85-.69.75-.86.6-1.71.28-2.65-.34-.98-.7-1.93-.71-3.04,0-.77.15-1.56.02-2.28-.15-.9-.69-1.73-.99-2.61-.58-1.69-1.34-1.97-2.81-.99-.05.03-.21-.09-.14-.06-.08-.85.06-1.7-.26-2.3-.8-1.49-1.18-2.95-.57-4.58.03-.08-.31-.3-.48-.46.3-.1.53-.17.83-.27-.3-1.21.09-2.45-.93-3.52-.57-.59-.72-1.58-1.05-2.4-.5.63-.97,1.28-1.52,1.87-.42.44-.9.38-1.38-.28.18-.48.43-1.04.6-1.63.12-.4.31-1.03.13-1.19-.3-.27-.86-.29-1.32-.34-.23-.03-.48.11-.67.16-.17-.09-.3-.13-.39-.21-1.47-1.23-1.74-1.14-2.45.66-.37.94-.77,1.89-1.33,2.71-.73,1.07-1.84,1.85-2.18,3.25-.11.45-.78.79-1.23,1.12-.46.34-1.06.74-1.49.16-.2-.27-.08-.99.15-1.35.96-1.48,1.96-2.94,3.05-4.33.5-.64.86-1.15.57-2.01-.26-.76.03-1.43.61-2.05.49-.53,1.1-1.2,1.14-1.84.1-1.38.67-1.91,2.01-1.9.26,0,.66-.35.76-.62.19-.53-.16-.8-.7-.85-.1-.01-.19-.14-.37-.28.16-.43.35-.89.48-1.37.01-.05-.3-.18-.48-.28-.48-1.41.04-2.41,1.31-3.15-.82.13-1.65.25-2.67.41.18-.9.32-1.56.47-2.32.79.14,1.67.61,2.08-.28.41-.86,1.01-1.81-.05-2.74-.26-.23-.21-.8-.27-1.08-2.82,2.52-3.54,6.3-5.33,9.31.34.66.87,1.2.78,1.59-.19.8-1.04.45-1.64.51-.17.02-.35-.1-.73-.21.51-1.25.53-2.51-.02-3.79-.27.08-.51.08-.59.2-.28.41-.52.85-.76,1.28-.56,1.01-1.18,1.25-2.17.7-.47-.26-.84-.71-1.25-1.08.51-.56,1.42-3.09,1.53-3.4.4-1.16.9-2.28,1.37-3.4-2.06.61-1.47.46-3.02-1.39-.3.42-.57.8-.84,1.18.25.21.65.43.64.62-.06.65-.29,1.29-.4,1.76-1-.52-1.83-.96-2.73-1.43-1.13-2.92-3.13-5.01-6.44-5.65-.87-.17-1.73-.37-2.59-.56-1.61-.36-2.43-1.61-2.5-3.22-.06-1.31.49-2.74-.58-3.95-.18-.2.08-.79.15-1.23-.71-.07-1.33-.13-2.02-.19-.03-.45-.05-.83-.08-1.35-.65.21-1.15.38-1.69.56.42.76.79,1.4,1.13,2.01-.56.85-1.12,1-1.74.28-.4-.47-.87-.94-1.08-1.5-.47-1.24-1.16-2.21-2.54-2.61q1.58-1.25.73-2.95c-.19-.39-.36-.8-.51-1.2-.02-.06.1-.17.52-.84.28.65.5,1.14.84,1.94v-3.96q-1.23.35-2.77-.21c-.59.72-1.22,1.49-1.85,2.27-.29-.26-.67-.56-1-.89-.37-.37-1.03-.59-.87-1.07,1.45-.43,2.71-.81,3.97-1.19-.21-.18-.42-.36-.64-.54l.04-.04s-.04.04-.04.04c0,0,0,0,0,0-1.01.95-2.18.08-3.3.41v-1.32c-.52.08-.98.15-1.38.21-.69-.92-1.31-1.74-2.16-2.88,2.01.2,2.17-.92,2.29-2.11.06-.64.23-1.28.35-1.92-1.27-.31-1.28-.32-1.7.53-.51,1.02-1,2.05-1.6,3.27.05.05.3.34.65.73-.44.3-.79.53-1.14.76-.52-.8-1.44-1.42-1.18-2.57-1.16,1.19-.79,2.81-.87,4.17-.08,1.37-.83,1.97-1.48,2.8-1.24-.61-.35-1.4-.4-2.15-1.16,1.31-.61,3.22-1.56,4.55q-1.74,0-3.17-1.9c.56-.92,1.13-1.86,1.71-2.81-.39-.21-.86-.46-1.4-.75.14-.37.18-.72.37-.93.9-.98,1.26-2.03,1.12-3.42-.15-1.56.1-3.13,1.34-4.35.35-.34.78-.81.81-1.24.11-1.61.77-2.96,1.64-4.25.33-.49.36-.92-.08-1.21-1.01.21-1.91.4-2.8.59.78,1.74.78,1.75-.43,2.87-.12-2.46-.21-2.6-1.97-2.72-.22-.46-.43-.92-.66-1.41-.6.55-1.09,1-1.59,1.46l-.04-.04s.04.04.04.04c0,0,0,0,0,0,.1.14.25.29.25.43-.05,1.7.18,3.29,1.35,4.65.21.24.19,1.04-.01,1.2-.9.72-1.85,1.47-2.91,1.87-.79.29-1.77.06-2.81.06.15-.78.78-1.42.09-2.02-.02-.02.19-.29.3-.44-.59.48-1.15,1.08-2.28.66.8-.76,1.45-1.16,2.37-.68-.32-.61-.64-1.22-.99-1.89.47-.66.94-1.3,1.67-2.31-.78.52-1.19.77-1.58,1.06-.4.3-.78.63-1.2.97-.77-.3-1.49-.59-2.07-.82.38-.71.89-1.26.95-1.87.06-.61-.32-1.26-.5-1.9,1.05-.86,1.28-1.11,1.04-1.99-.33-1.21-.07-2.22.68-3.23-1.68.82-3.4,1.43-4.47,3.04-.73,1.09-1.36,2.37-2.36,3.14-1.21.94-1.76,1.91-1.45,3.41-1.16.7-2.52,1.25-1.89,3.02.08.23-.23.74-.49.93-2.06,1.46-4.08,3-6.25,4.26-1.22.71-2.72.94-4.1,1.39-.03-.09-.07-.19-.1-.28,1.24-1.41,2.47-2.82,3.76-4.3-.34-.63-.62-1.16-1.02-1.92-1.26.79-2.5,1.35-3.46,2.22-2.94,2.7-5.67,5.63-8.68,8.25-1.95,1.7-2.76,3.78-3.24,6.27.45-.35.81-.63,1.41-1.09-1.27,4.83-2.46,9.34-3.64,13.86-.16.61-.09,1.37-.44,1.81-1.03,1.28-1.01,2.86-1.48,4.3-.33,1-.74,1.97-1.22,3.2-1.01-1.1-1.59-.51-1.98.16-.67,1.14-1.61,1.74-2.88,1.88-.37-.47-.74-.95-1.18-1.51-.35.38-.59.58-.75.83-.82,1.33-.64,2.82-.54,4.27.14,1.95.42,3.89.56,5.84.43,6.06-.24,12.02-1.68,17.91-.24.98-.63,2.05-.45,2.98.36,1.93-.3,3.71-1,5.26-1.07,2.38-1.44,4.85-1.83,7.32-.77,4.94-1.36,9.91-1.89,14.89-.34,3.21-.61,6.45-.61,9.67,0,3.53.36,7.05.56,10.58.06,1.01.05,2.03.17,3.03.2,1.73.62,3.46.69,5.19.18,4.66.52,9.32.08,13.99-.34,3.64-.28,7.31-1.1,10.91-.24,1.03-.18,2.14-.53,3.12-.68,1.95-1.54,3.84-2.33,5.75-.1.23-.23.45-.34.68-.68,1.32-1.52,2.33-3.33,1.6-.23.98-.32,1.8-.62,2.54-.67,1.64-1.54,3.19-2.14,4.85-.96,2.68-1.8,5.4-2.64,8.12-1.45,4.66-2.85,9.33-4.3,13.99-.22.72-.36,1.73-.88,2.04-.89.54-.91,1.31-1.1,2.08-.62,2.47-2.07,4.1-4.5,4.97-1.46.52-2.99.84-4.29,1.88-1.06.85-2.42.01-2.77-1.48-.12-.51.24-1.18-.6-1.51-.42.68-.84,1.36-1.28,2.07-.74-.06-1.42-.11-2.2-.17.1-1.48-1.14-1.27-2.09-1.58.29-1.09.55-2.09.85-3.24-1.33-.13-1.1-1.06-1.08-1.88.03-1.32-.31-2.39-1.75-2.78-.07-.02-.1-.2-.16-.33.19-.15.38-.3.52-.41-.97-1.81-2.2-3.33-3.1-5.11-.81-1.58-1.82-3.14-2.79-4.69-.72-1.14-.89-1.03-.75-2.29-.53-.08-1.07-.16-1.6-.24.79-1.49.5-3.12-.75-4.24-.21-.19-.38-.47-.49-.74-.88-2.18-1.56-4.48-3.84-5.62.54-2.63-.82-5.4-3.3-6.92.37-.86.39-.87,0-1.42-.69-.98-1.56-1.86-2.08-2.92-1.12-2.3-2.1-4.66-3.75-6.65-.14-.16-.19-.42-.23-.64-.11-.65-.02-1.4-.33-1.92-1.4-2.4-1.91-5.28-3.96-7.33-.13-.13-.21-.32-.27-.49-.58-1.58-1.17-3.15-1.7-4.75-.42-1.24-.77-2.5-1.13-3.76-.18-.64-.37-1.21-1.24-1.14-.35.03-.72-.11-.85-.13,0-.95.29-1.91-.06-2.49-.71-1.17-1.28-2.67-3.05-2.75-.29-.01-.56-.25-1.12-.52.9-.42,1.27-.59,1.63-.75-.3-1.64-1.12-2.84-2.23-3.45-.75-3.12-.53-6.09-1.78-8.91-.62-1.39-1.18-2.26-2.5-2.41-1.2-2.05-2.33-3.98-3.45-5.88-1.37-.45-2.79-.91-4.22-1.38.24-1.56-1.68-1.23-1.99-2.29-.06-.68-.1-1.88-.38-1.94-1.3-.28-1.71-1.42-2.38-2.06-.94-.05-1.71-.09-2.56-.14.71-1.83.37-2.78-1.11-3.61-.86-.48-1.87-.8-2.23-1.95.42-.4.82-.78,1.22-1.16-.06-.09-.13-.19-.19-.28-.62.2-1.24.4-1.96.64.25-1.27-.62-1.59-1.58-2.16v4.16c.55.57,1.18,1.49,2.03,2.05.9.59,2.02.83,3.05,1.23-.27,1.5-1.68.59-2.41,1.03-.41,1.06-.02,1.89.33,2.8.32.82.34,1.76.49,2.64,1.65-.69,2.38-.19,2.58,1.57.24,2.14-.09,4.17-.96,6.55-.33-.49-.51-.9-.81-1.17-.3-.27-.72-.39-1.12-.6,1.47-1.67,1.44-1.65.36-3.54-.19-.32.02-.87.05-1.35-1.86-.88-1.95-2.84-1.8-4.33.19-1.78-1.41-2.5-1.57-3.97-.07-.57-.77-1.08-1.18-1.61l.04.02s-.04-.02-.04-.02c0,0,0,0,0,0-.41-.27-1.58-.05-.77-1.12,0,0-.01,0-.02,0-.54-.8-1.08-1.61-1.68-2.5.39-1.01,1.29.05,1.87-.22.75-1.47.73-1.71-.57-2.1-1.24-.37-2.22-1-2.62-2.21-.73-2.26-2.3-3.75-4.2-4.97-1-.64-2.25-.98-3.08-1.78-1.65-1.58-3.63-1.74-5.72-1.98-2.15-.25-4.25-.83-6.38-1.27-.12-.02-.25-.1-.33-.18-1.43-1.61-3.4-1.41-5.27-1.58-.75-.07-1.63-.06-2.19-.45-.94-.67-1.77-.44-2.69-.19-.97.26-1.94.64-2.93.7-3.03.2-6.07.25-9.1.42-3.16.18-6.33.3-9.46.69-2.15.27-4.18.37-6.34-.09-1.6-.34-3.39-.25-5,.39-1.98.78-3.29,2.32-4.28,4.15-1.42,2.63-2.13,5.49-1.88,8.44.3,3.59.87,7.16,1.52,10.71.27,1.49,0,2.72-.63,4.01-1.15,2.32-2.28,4.65-3.35,7.01-3.91,8.67-7.63,17.4-10.42,26.52-2.67,8.72-5.47,17.4-8.16,26.12-1.21,3.93-2.25,7.91-3.45,11.83-1.73,5.62-3.6,11.2-5.29,16.83-1.55,5.15-3.01,10.33-4.36,15.53-1.48,5.68-2.8,11.41-4.15,17.12-.63,2.65-1.17,5.31-1.72,7.97-.71,3.41-1.48,6.81-2.05,10.24-1.14,6.86-2.14,13.74-3.25,20.61-.55,3.43-1.23,6.83-1.81,10.25-.39,2.31-.7,4.63-1.09,6.94-.83,4.87-1.76,9.72-2.54,14.6-.74,4.62-1.26,9.28-2.01,13.9-.89,5.48-2.02,10.92-2.86,16.4-.56,3.68-.81,7.4-1.16,10.74.55.78,1.21,1.32,1.12,1.66-.44,1.7.4,2.74,1.55,3.72.18.15.21.48.38.65.3.31.64.78.99.79,1.14.05,1.46.84,1.78,1.68.42,1.06,1.03,1.78,2.29,1.99,1.05.17,1.92.81,2.6,1.77.48.67,1.27,1.21,2.04,1.56.37.17,1-.23,1.52-.37.31,1.77,1.49,2.55,3.05,2.98.38.1.95.37,1.02.65.19.87.86.98,1.49,1.24.52.21,1.14.34,1.53.7.82.76,1.7,1.27,2.84,1.28.67,0,1.16.35,1.15,1-.02.95.69,1.17,1.29,1.44.8.36,1.7.51,2.48.89.73.36,1.38.9,2.04,1.38,1.61,1.17,3.76,1.25,5.27,2.67.85.8,1.83,1.56,2.88,2.05,2.22,1.03,4.5,1.9,6.26,3.7.29.29.79.37,1.2.54,1.29.56,2.92.55,3.61,2.13.06.14.31.2.48.27,2.05.96,4.09,1.96,6.17,2.87,1.8.78,3.64,1.75,5.63,1.48,2.82-.38,5.62-1.04,8.06-2.65,2.66-1.76,5.01-3.84,6.95-6.41,1.06-1.41,2.33-2.66,3.49-3.99.96-1.1,2.01-2.13,2.81-3.33,1.54-2.31,2.95-4.71,4.36-7.11.93-1.58,1.82-3.19,2.64-4.83,1.44-2.88,2.86-5.78,4.2-8.71,1.39-3.04,2.69-6.13,4-9.2.15-.34.17-.74.26-1.11.97-4.25,1.8-8.54,2.97-12.74,1.01-3.63,1.3-7.34,1.86-11.03.32-2.13.55-4.27.89-6.39.5-3.06,1.07-6.1,1.59-9.15.47-2.81.87-5.63,1.37-8.43.51-2.87,1.13-5.71,1.68-8.57.35-1.85.56-3.74,1.02-5.57,1.06-4.17,2.29-8.29,3.35-12.46.9-3.54,1.61-7.13,2.5-10.68.93-3.68,2.04-7.31,2.95-10.99,1.07-4.35,1.99-8.74,3.02-13.11.25-1.06.69-2.08,1.05-3.16,1.52.65,1.73,1.93,2.25,2.98,1.18,2.38,2.23,4.82,3.47,7.17,1.09,2.06,2.47,3.98,3.52,6.06,1.25,2.48,2.3,5.06,3.44,7.6.5,1.1,1.03,2.14,2.18,2.79.45.25.78.81,1.02,1.3,1.54,3.2,3.04,6.41,4.55,9.62,1.35,2.86,2.72,5.71,4.05,8.59.98,2.13,2.15,4.21,2.8,6.44.9,3.13,2.66,5.73,4.45,8.32,1.17,1.7,2.76,3.11,4.09,4.7.55.66,1.16,1.43,1.33,2.24.69,3.35,2.3,6.3,3.77,9.32,1.56,3.18,3.79,5.86,6.24,8.34,1.7,1.72,3.77,3.02,6.3,2.16,1.26-.43,2.44-1.33,3.43-2.26,2.44-2.3,3.76-5.36,5.2-8.33.07-.15.03-.36.06-.85-1.07,1.78-1.86,3.31-2.86,4.69-1.03,1.43-2.19,2.79-3.45,4.03-1.02,1-2.48,1.55-3.83,1.14-1.05-.32-1.89-1.31-3.11-2.21,1.66-.47,3.15-.3,4.55-1.35-.94.06-1.56.14-2.18.12-.42-.01-.89-.07-1.24-.27-2.22-1.27-3.7-3.18-4.49-5.59-.53-1.61-1.04-3.24-1.38-4.9-.28-1.34-.31-2.74-.41-4.11-.02-.27.18-.55.28-.85.29.07.49.07.65.15,2.9,1.35,5.88,2.33,9.14,2.09.9-.07,1.49.31,1.49,1.29,0,1.45.89,2.12,2.11,2.58.91.35,1.79.79,2.95,1.31,1.23-.82,2.7.27,4.23.3.24,0,.48.35.71.55.56.5,1.13,1,1.67,1.52.55.52,1.19.98,1.61,1.6,1.17,1.74,2.64,3.17,4.17,4.58,1.05.98,2.26,1.95,2.88,3.19.66,1.31,1.55,2.25,2.59,3.18,1.22,1.09,2.44,2.2,3.51,3.44,1.8,2.11,3.39,4.41,5.24,6.47,1.81,2.01,3.54,4.15,5.94,5.56,2.34,1.37,4.7,2.71,7,4.14,1.77,1.1,3.57,2.18,5.14,3.53,1.59,1.37,3.28,1.79,5.26,1.53.93-.12,1.88-.19,2.82-.24,1.2-.07,2.51.67,3.53-.58.08-.1.37-.05.55-.03,1.15.16,2.09-.36,3.03-.9.38-.22.77-.5,1.19-.55.38-.05.92.05,1.16.31,1.18,1.22,2.28,2.51,3.57,3.97.53-.36,1.2-.62,1.57-1.11.5-.65.98-.84,1.77-.73,1.17.15,2.37.15,3.5.21.27-.54.37-1.1.69-1.27,1.15-.63,2.34-1.33,3.6-1.57.55-.1,1.3.84,1.97,1.29.15.1.35.15.54.18.11.02.23-.06.37-.1-.11-.34-.21-.67-.24-.76.82-.74,1.72-1.23,2.1-1.99.38-.75,1.67-.91,1.19-2.06,1.19.08,2.25.15,3.53.23-.71-1.93,1.38-2.31,1.71-3.77.33-1.47,1.99-1.91,3.08-2.71.18.14.24.17.27.22.56.9.28,1.58-.16,2.55-.98,2.16-2.77,3.76-3.67,6-.56,1.39-2.19,2.38-2.96,3.87-.14.27-.61.38-.93.53-.57.26-1.37.35-1.68.79-.6.84-1.28.9-2.14.76-.64-.1-1.13.05-1.29.84,1.53.32,1.22,1.85,1.8,2.92.6-.26,1.14-.49,1.78-.76.16.89.28,1.61.41,2.33.41-.54.35-1.11.56-1.54.37-.77,1.12-.17,1.69-.3.06-.01.12-.05.17-.08,1.43-.8,2.82-.52,4.08.3.71.47,1.22.45,1.86,0,.3-.21.69-.29,1.04-.43.08-.25.14-.71.26-.73.94-.15,1.24-.75,1.3-1.6.08-1.17.71-1.66,2.02-1.28-.29-.45-.46-.7-.7-1.07.27-.17.51-.37.78-.46.22-.08.49-.04.73-.06.56,2.16,1.11,2.55,3.19,1.78,1.35-.49,2.63-.56,4.04-.33.31,2.06-1.87,2.36-2.49,3.69q-1.51-.15-3.04.53c1.45.54.57,1.85,1.02,2.88-.52-.25-1.04-.51-1.57-.76-.81,1.06.96.91.79,1.85-.33.21-.77.5-1.23.79-.5-.92-.54-.94-1.73-1.32,1.57-1.15.28-2.79,1.13-4.52-1.1.31-1.78.48-2.44.7-.46.15-.9.38-1.34.57,0,.29,0,.58-.01.87-.41.04-.81.07-.95.09-.4,1.49.27,2.99-.81,4.2-1.24-.46-2.38-.88-3.51-1.3-.1.1-.2.2-.31.3,1.4,1.47,2.53,3.09,2.96,5.07,0,0,.02,0,.03,0-.19.49-.33,1.02-.61,1.45-.31.47-1.19.39-1.11,1.33.05.53-.24,1.11-.46,1.62-.22.51-.56.97-.9,1.56h1.22c.07-.2.13-.39.19-.58,1.01.62,1.65,1.05,1.43,2.06-.1.47.63.64,1.16.27q1.49-1.03,2.14.75c-1.82.26-3.78-.54-5.38.71.03.36.05.7.1,1.32-1.78-.8-3.3-1.48-4.61-2.07-.21-.56-.24-1.13-.54-1.35-.84-.62-1.73-1.29-2.71-1.59-1.05-.32-1.77-.93-2.44-1.7-1.53-1.76-3.06-3.52-4.61-5.27-.04-.04-.22.03-.33.05-.03.12-.12.28-.07.34,1.21,1.68,2.4,3.37,3.66,5,.72.93,1.48,1.85,2.36,2.63,1.99,1.76,4.07,3.41,6.08,5.13,1.55,1.33,3.29,2.06,5.34,2.21,1.14.09,2.43-.08,3.28,1.09.15.21.7.25,1.04.19,1.11-.18,2.22-.7,3.29-.62,1.97.14,3.04-.95,4.05-2.32.41-.56.85-1.11,1.33-1.61.27-.28.65-.44,1.31-.86-.21.93-.32,1.47-.47,2-.15.52-.34,1.04-.52,1.55.13.06.26.11.38.17.77-1.54,1.53-3.09,2.42-4.86-.68.31-1.02.47-1.36.63.57-1.26,1.39-2.22,2.04-3.29.44-.72,2.27-.97.96-2.41-.02-.02.12-.21.22-.28,1.04-.87,1.41-2.07,1.72-3.34.16-.66.37-1.51.85-1.84.92-.64,1.07-1.53,1.3-2.43.41-1.63.76-3.28,1.11-4.93.05-.22-.08-.48-.15-.83-.47.49-.77,1.08-1.13,1.11-.33.03-.73-.52-1.05-.86-.08-.08,0-.31.03-.5,2.06.07.16-1.48,1-2.14,1.34.48,2.78.44,3.7-1.12,2.14.65,4.07.49,5.85-.81.35-.26.75-.49,1.17-.63,1.9-.66,3.02-2.03,3.57-3.89.34-1.13.57-2.29.78-3.45.23-1.26.08-2.64,1.36-3.51.22-.15.36-.5.43-.79.47-1.89,1.03-3.77,1.05-5.74,0-.08-.15-.15-.23-.23-.3.28-.59.56-.94.88-.61-2.25-.43-2.61,1.37-2.82.06-.34.11-.72.2-1.07.59-2.19.54-2.34-1.18-3.64-.96-.73-1.15-.71-2.01.24-.16.17-.31.35-.43.49-.96-.97-1.86-1.87-2.98-3-.27,1.17-.45,1.96-.62,2.75-.12-.02-.24-.04-.35-.05.19-1.83.37-3.66.58-5.63,1.06.68,2.38-.07,3.13.94.67.9,2.36.22,2.59,1.84-.45-.05-.85-.1-1.25-.15-.03.13-.05.25-.08.38.37.11.73.24,1.11.31.36.07,1.01-.02,1.05.12.41,1.25,1.02.38,1.75.27,0-2.94.02-5.81-.01-8.69,0-.85-.54-1.14-1.27-.65-.7.47-1.3,1.09-1.95,1.65.06-.64.16-1.27.18-1.91.05-1.66.1-1.73,1.83-1.76-.1-.35-.11-.79-.34-.99-.98-.87-.89-1.88-.56-2.96.14-.47.24-.95.36-1.45.77.3.97.85,1.09,1.61.14.89.33,1.94,1.67,1.9.6-1.61.89-3.22.43-4.94-1.21-.77-1.83-1.78-1.34-2.38.37.13.76.27,1.38.49.26-1.29.69-2.54,0-3.63-.77-1.21-.74-2.4-.56-3.78.54-.21,1.11-.44,1.74-.68.16-1.47.22-2.93.48-4.35.52-2.86,1.25-5.69,1.71-8.56.63-3.93,1.09-7.88,1.58-11.83.04-.36-.19-.8-.42-1.12-.78-1.1-.72-1.51.28-2.53.51-.53,1.13-1.11,1.31-1.77.34-1.27.44-2.61.57-3.93.18-1.81.05-3.7.52-5.43.33-1.21.67-2.24-.03-3.5,1.04-.2,1.24-.8.98-1.63-.48-.08-.87-.15-1.25-.22-.02-.12-.03-.24-.05-.37.55-.17,1.09-.34,1.75-.54.16-.54.51-1.14.5-1.74-.02-2.02.41-3.94.81-5.91.47-2.28.64-4.63.8-6.96.04-.62-.44-1.28-.7-1.98,1.11-1,1.51-2.33,1.16-3.96-.12-.55-.06-1.27.2-1.76.59-1.1.8-2.24.81-3.46-1.02-.66-2.04-1.31-3.06-1.97.1-.19.2-.53.31-.53,1.01-.04,2.03-.02,3.08-.02.12-.5.27-.92.32-1.36.53-4.33,1.07-8.66,1.56-12.99.48-4.21.96-8.42,1.35-12.64.18-1.99.46-4.02-.44-5.97-.22-.48-.2-1.13-.15-1.69.11-1.36.29-2.72.47-4.08.14-1.04.36-2.08.49-3.12.04-.32.03-.78-.17-.97-.97-.93-.75-2.05-.18-2.87.57-.82.63-1.59.67-2.48.21-5.63.49-11.26.65-16.89.07-2.4-.11-4.8-.16-7.2-.03-1.4-.26-2.82.18-4.53.31.57.46.84.68,1.25.11-.67.19-1.21.29-1.81h-1.17c-.17-2.87-.34-5.7-.5-8.53.65-.32,1.22-.69,1.28-1.12.13-.95-.9-.54-1.4-.91-.22-1.6-.34-3.17-.18-4.84.28-2.94.07-5.92.2-8.87.13-2.78.54-5.54.62-8.32.05-1.85,1.39-2.97,2.19-4.51.16.57.33,1.15.49,1.73.33-.2.63-.39,1.1-.68.06.47.23.82.12,1.04-.73,1.46-1.46,2.93-2.33,4.3-.42.66-.87,1.17-.64,2.04.14.53,0,1.13-.03,1.69-.06,1.26-.2,2.52-.16,3.78.05,1.58.28,1.73,2.26,1.92-.03-1.36-.17-2.78,1.22-3.87-.57-.44-1.06-.72-1.41-1.12-.29-.34-.66-.89-.57-1.23.4-1.39.72-2.9,1.52-4.05,1.2-1.73,2.78-3.19,3.48-5.29.13.04.25.07.38.11-.09.91-.18,1.82-.28,2.74.12.05.25.1.37.15.61-.86,1.22-1.71,1.97-2.76-.03,1.72,1.45,2.82,1.07,4.57,1.86-.82,2.88-2.37,4.17-4.05.37.69.68,1.28.99,1.85.46.85.79,1.57.17,2.62-.54.91-.56,2.13-.88,3.5,1.32-1.37,2.67-2.29,3.07-4.06.11-.47.76-.82,1.4-1.47.36,2.15-.1,3.82-.26,5.55.54-.47.89-1.06,1.39-1.49.33-.28.86-.34,1.31-.49.07.45.15.9.21,1.35,0,.06-.04.12-.06.18-.68,1.96-1.34,3.93-2.05,5.88-.11.3-.4.54-.61.81-.13-.02-.27-.04-.4-.07-.07-.95-.14-1.9-.21-2.85-1.3,1.65-.03,3.05.37,4.74.35-.34.6-.47.68-.67.52-1.28,1.01-2.58,1.5-3.87.79-2.04,1.11-4.28,2.78-5.94.34-.34.27-1.1.4-1.67.05-.21.11-.58.21-.59.27-.04.75,0,.8.14.18.5.3,1.05.28,1.57-.02.5-.24.99-.37,1.49.95-.67,1.42-1.53,1.42-2.57,0-1.55-.06-3.11-.09-4.66-.01.01-.02.02-.03.03ZM341.38,60.13c.36.39.87.76.82.92-.35.94.48.99.89,1.34-.25,2.08-.35,2.11-2.86.98.35-1,.71-1.99,1.15-3.25ZM134.54,118.31c.09-.17.17-.33.26-.5.89-.3,1.32.05,1.32,1.47-.67-.41-1.12-.69-1.57-.97ZM100.61,95.12c-.09-.04-.18-.16-.2-.25,0-.06.12-.15.18-.22.1.11.21.22.33.35-.14.06-.26.15-.31.12ZM130.51,125.63c.88.35,1.55.62,2.27.91-.08.21-.26.47-.24.7.02.25.24.49.37.73-1.49-.15-1.87-1.14-2.4-2.34ZM136.77,154.14c-.24-.18-.48-.36-.72-.55.06-.08.11-.15.17-.23.24.18.48.37.72.55-.06.07-.11.15-.17.22ZM139.26,131.58c-.59-.19-1.18-.38-1.77-.57.15-.41.31-.81.53-1.38.57.69.95,1.14,1.33,1.59-.03.12-.05.25-.08.37ZM139.25,121.69c-.79-.46-1.61-.94-2.58-1.49.57-.43,1-.75,1.43-1.07.97.36,1.76.65,2.59.96-.42.47-.86.95-1.45,1.61ZM141.4,123.94c-.17-.02-.33-.1-.49-.16.09-.12.17-.34.26-.34.15,0,.3.13.45.22-.1.13-.17.29-.22.28ZM146.05,126.71c-.12-.12-.23-.25-.35-.37.47-.38.95-.76,1.42-1.14.05.97-.6,1.15-1.07,1.51ZM158.05,296.12c-.43-1.02-1.13-1.93-1.6-2.95-.91-1.99-.18-3.1,2.03-3.23.25-.01.5-.04.86-.07.72,1.39,1,2.65.75,4.2-.23,1.42.29,2.96.52,4.74-1.21-.84-2.07-1.53-2.56-2.7ZM165.53,265.1c-.13-.02-.32-.21-.33-.34,0-.11.21-.32.33-.32.13,0,.26.19.45.36-.19.14-.34.32-.45.3ZM167.87,265.74c-.21-.64-.34-1.02-.6-1.78.87.55,1.3.83.6,1.78ZM175.81,264.64c-.06-.16-.2-.34-.16-.47.04-.13.26-.21.4-.31.08.15.15.31.26.52-.2.1-.35.18-.49.26ZM179.61,266.91c-.24.01-.67.05-.68.01-.22-1.19-2.16-.84-2.14-2.45,1.39.44,2.79.62,2.94,2.38-.04.03-.08.06-.12.06ZM179.77,266.88c.35.18.69.36,1.04.54-1.03.33-1.05.33-1.04-.54ZM185.08,255.5c-.33-.26-.42-.33-.5-.4.16-.13.32-.26.49-.39.06.1.17.2.16.29-.02.18-.1.36-.15.5ZM191.33,228.93c.1.14.27.28.27.42,0,.15-.16.3-.3.53-.16-.19-.37-.36-.34-.45.06-.19.24-.34.37-.51ZM189.92,226.56c.31.18.62.36.93.55-.07.11-.13.22-.2.33-.31-.19-.61-.37-.92-.56.06-.1.12-.21.19-.32ZM189.53,308.84c-.11-.27-.24-.53-.31-.8,0-.03.34-.22.37-.2.16.18.27.39.4.6-.15.13-.3.27-.46.4ZM189.13,233.01c1.83-1.5,1.96-1.52,3.38-.56-1.26.21-2.15.35-3.38.56ZM191.91,233.54c-.01-.1-.06-.28-.03-.3.15-.08.32-.11.49-.16.05.1.09.2.14.29-.2.06-.4.11-.6.17ZM193.54,234.8c-.48-.03-.95-.06-1.43-.09l.02-.46,1.44.27c-.01.09-.03.19-.04.28ZM193.52,228.53c-.09-.03-.15-.26-.16-.41,0-.05.22-.18.29-.15.13.05.23.2.42.37-.26.1-.43.23-.55.19ZM195.16,310.8c-.17-.15-.34-.3-.51-.45.05-.06.11-.12.16-.18.17.15.35.29.52.44-.06.06-.11.13-.17.19ZM219.59,229.4c-.01.05-.06.1-.1.14-.03-.04-.05-.07-.1-.13.03-.33.05-.67.08-1.02.11,0,.22.01.33.02-.07.33-.14.66-.22.98ZM257.03,146.36c-.05-.14-.14-.29-.13-.43,0-.07.19-.12.5-.3-.19.36-.28.55-.37.73ZM261.46,53.55c-.89-1.45.33-2.02,1-2.79.58,1.23-.07,1.98-1,2.79ZM265.29,35.98c-.33.09-.68.15-1.02.21-.03-.21-.06-.42-.08-.64.35-.02.7-.05,1.05-.04.03,0,.08.46.05.46ZM274.32,330.56l.76-.5c.06.08.13.16.19.24-.22.21-.45.43-.67.64-.09-.13-.18-.25-.27-.38ZM275.2,336.08c-.13-.17-.3-.33-.36-.53-.03-.08.18-.24.34-.44.2.23.35.39.49.56l-.47.41ZM279.58,365.08c-.45.78-.92,1.5-2.13.42.96-.19,1.54-.31,2.13-.42ZM277.52,362.41c.16-.04.34-.14.49-.11.13.03.22.21.46.47-.38.02-.6.07-.79.03-.08-.02-.11-.25-.16-.39ZM279.34,358.46c-1.16.65-1.33.59-2.49-.82.76.25,1.53.5,2.49.82ZM276.95,359.24c1.16.35,1.13.85.47,1.56h1.76q-1.51.92-3.02.47c.26-.67.52-1.33.79-2.03ZM272.49,371.3c.25-.76.5-1.5.82-2.44.5.89.81,1.44,1.14,2.02-.53.11-.98.21-1.96.42ZM273.72,368.55c0-.29-.05-.46,0-.52.44-.42.82-.31,1.42.35-.64.08-1.03.12-1.43.17ZM274.33,367c-.07-.52-.11-.8-.15-1.07.28.03.57.07,1.05.13-.33.35-.52.55-.89.94ZM277.93,373.37c-.17,0-.33-.07-.5-.11.04-.1.08-.29.13-.3.16-.02.34.03.53.05-.07.16-.12.36-.16.36ZM284.37,367.81c-.8.58-1.6,1.16-2.5,1.81v-1.02q-1.44.28-2.08,1.07c1.08,1.01,2.35.8,3.85.26-.71,2.75-1.35,3.15-4.38,3.13.53-.47,1.04-.92,1.71-1.52-1.07-.48-1.97-.74-2.97-.61-.31.04-.63.11-.93.06-.69-.12-1.52-.23-1.63-1.06-.11-.84.62-.98,1.3-1.25.51-.2.8-.97,1.27-1.6,1.91.32,4.16.33,6.41.29-.02.15-.04.3-.06.45ZM313.42,329.26c.18.42.12.93.15,1.41-.2.04-.39.07-.59.11-.25-.45-.5-.9-.94-1.68.7.07,1.3,0,1.37.16ZM308.47,326.51c.35.47.63.86.99,1.34q-1.46-.11-.99-1.34ZM301.11,30.24c.18.39.4.64.39.89-.01.35-.26.69-.3,1.04-.17,1.49-.21,1.53-2.17.99.72-1.01,1.33-1.86,2.08-2.92ZM300.45,312.49c.2-.73.36-1.31.63-2.27,1.15,1.76,1.12,1.84-.63,2.27ZM299.26,27.3c.02.61-.27.95-1.02,1.08.07-.77.5-.98,1.02-1.08ZM297.98,269.49c-.12,1.44-.14,3.03-.8,4.23-.7,1.27-.77,2.52-.97,3.82-.03.18-.08.37-.15.68-.77-.53-.68-1.31-.79-1.99-.04-.23.1-.49.12-.74.08-1.28.31-2.64-1.75-2.97.1-.11.2-.22.29-.32.43-.15.85-.3,1.41-.5.04-.5.09-1.12.14-1.74,0,0,0,0-.01.01.18-.31.32-.67.56-.92.31-.33.72-.56,1.09-.84.31.43.9.88.87,1.28ZM295.33,259.64c.2-.33.5-.6.75-.89.2.21.58.43.56.62-.03.36-.24.74-.48,1.02-.11.14-.46.08-.92.14.03-.42-.03-.71.09-.9ZM291.89,267.47c.2-1.05.45-2.11.81-3.11.25-.68.71-1.27,1.11-1.89.49-.76,1.17-.78,1.96-.51.14.05.42-.33.73-.6-.36,2.96-.71,5.8-1.06,8.63-.78.72-1.08-.63-1.99-.41-.36,1.43-.75,2.96-1.13,4.48-.12-.01-.24-.02-.35-.03,0-.83.01-1.65,0-2.48-.01-.75-.06-1.5-.07-2.24-.01-.61-.1-1.25,0-1.84ZM290.14,14.27c.23-.08.45-.17.68-.25-.17.18-.34.35-.51.53-.06-.09-.11-.18-.17-.27ZM290.31,17.05c.58-.54,1.14-.58,1.67-.05.51.52.58,1.09-.18,1.8q-.33-1.12-1.49-1.76ZM290.26,365.7c.12-.56.25-1.12.38-1.74q1.15.69-.38,1.74ZM294.71,355.56c-.22.34-.43.69-.67,1.08-.75-1.32-.45-2.51.76-3.19.58.73-.11,1.42-.08,2.11ZM295.17,325.28c-.09-.76-.13-1.13-.17-1.5.09-.03.19-.07.28-.1.12.22.32.43.34.66.02.18-.18.39-.46.94ZM295.39,312.05c-.84.82-1.5,1.84-2.44,2.29-.93.44-2.13.29-3.2.4-.18-.33-.37-.66-.56-1-.19.1-.3.13-.3.15.31,1.89-.35,3.66-.7,5.46,1.89.13,3.61-.32,5.39-1.26.1.43.17.74.24,1.08.69.25,1.43.51,2.19.79.15-.25.3-.51.45-.78q.77.52-.14,2.37c-1,.28-1.93.54-3.03.85.66,1.21,1.3,2.38,1.89,3.46-.18,1.18-.36,2.31-.54,3.44-.26-1.34-2.25-.78-2.21-2.27-.76.21-1.4.38-2.12.58.51.2,1.08.28,1.44.6.39.33.8.89.8,1.34,0,.39-.57.78-1.03,1.34-.26.81-.85,1.88-.85,2.95,0,.95.77,1.91-.44,3.18v-4.73c-1.2.92-2.46.09-3.32,1.19-.1-.08-.19-.15-.29-.23.13-.42.13-1.01.41-1.22,1.14-.86.6-1.57-.03-2.26.63-1.01,1.23-1.98,1.79-2.88-.18-.89-.34-1.72-.52-2.62-1.43-.13-.24,1.21-.95,1.62-.27-.16-.61-.36-1.16-.69-.1.55-.17.91-.23,1.24q1.4.87,1.14,2.27c-.24-.4-.41-.67-.71-1.18-.67,1.14-1.27,2.16-2.01,3.42-.63-2.09-.07-3.87.13-5.85-1.5,1.57-3.94.18-4.9,1.62-.74,2.74-1.36,5.01-1.98,7.3-1.43-.68-1.41-.67-.82-1.85.12-.24.08-.57.07-.86-.02-.74-.03-1.32.66-1.99.55-.54.47-1.77.59-2.7.19-1.5.45-3.01.44-4.51,0-1.47-.31-2.93-.52-4.63.17-.12.56-.6.97-.62.73-.04,1.51.11,2.19.37.63.24.57.86.4,1.48-.2.75.17,1.06,1.03.89.03-.64.06-1.31.09-1.94.71-.38,1.34-.72,2.08-1.12-.32-.28-.59-.52-1.07-.95.64-.06,1.08-.1,1.58-.14.05-.13.15-.29.18-.46.14-.81.2-1.63.42-2.42.07-.24.55-.46.86-.5.15-.02.49.41.5.65.02.65-.1,1.3-.17,2.02.22.05.45.1.78.18.52-1.42.36-2.81-.09-4.61.61.44.87.62,1.12.8.59.41,1.18.38,1.34-.36.28-1.3,1.16-1.16,1.84-.68,1.46,1.02,3.02.53,4.56.58.58.02,1.15.22,1.97.4-.35,1.01-.63,1.8-.91,2.58-1.26.11-1.95-.36-2.34-1.58ZM295.97,317.59c-.14.05-.29.1-.43.14-.09-.3-.19-.6-.28-.9.11-.04.22-.08.33-.12.13.29.25.58.38.87ZM293.47,317.13c-.69-.13-1.26-.23-2.3-.42.71-.43,1.06-.82,1.4-.82.57.01,1.05.34.9,1.24ZM304.21,324.46c-.43-.67-.7-1.09-.97-1.5-.14.04-.35.07-.36.12-.31,2.18-1.64,4.14-1.35,6.46.02.16-.46.38-.72.58-.04.68-.08,1.35-.14,2.39-.36-.58-.56-.89-.77-1.22-.37.26-.46,1.16-1.16.63.2-.87.47-1.69.54-2.54.05-.56.13-1.29-.84-1.41-.21-.03-.42-.68-.49-1.08-.12-.72-.14-1.46-.21-2.23.42-.1,1.04-.24,1.74-.4.16.5.32,1.02.49,1.54.17-.12.46-.24.47-.37.04-.88.02-1.76.02-2.65-.39-.59-1.78-.29-1.39-1.75.5.29.93.55,1.44.85.54-.47,1.09-.96,1.74-1.53-.57-.49-1.04-.88-1.58-1.34.12-.62.16-1.37,1.03-1.52.89-.15,1.36.49,1.85,1.21-.5.09-.94.16-1.4.24.44,1.03.83,1.96,1.2,2.83q.55-.81,2.06-.48c-.37.98-.73,1.94-1.2,3.19ZM307.18,36.8c-.37-.29-1.1-.1-1.88-.15.08-.62.15-1.11.21-1.58.16-.06.31-.17.37-.13.98.68,2.56.1,3.24,1.6-.6.43-1.06.92-1.93.25ZM310.42,317.22l.52.1c-.1.54-.21,1.08-.31,1.62-.66-.65-.6-1.21-.21-1.72ZM313.46,318.57c.19.55.34,1.01.5,1.47-.08.08-.16.22-.25.23-1,.12-2.24-.01-1.61,1.67-.29.09-.79.33-.85.25-.23-.32-.5-.77-.44-1.12.13-.77.45-1.52.71-2.32.69-.07,1.3-.12,1.94-.18ZM312.74,45.36c-.05-.1-.09-.2-.14-.3.33-.15.65-.3.98-.45.05.1.09.19.14.29-.33.15-.65.31-.98.46ZM314.09,307.39c.11-.5.22-1,.36-1.65q.64.94-.36,1.65ZM314.42,45.53c.48.16.96.32,1.78.6-.98.32-1.52.41-1.78-.6ZM315.42,44.43c-.11-.18-.21-.36-.32-.54.36-.19.72-.38,1.08-.57.08.12.16.25.24.37-.33.25-.67.49-1,.74ZM326.96,210.29c.77.73.45,1.12,0,1.71v-1.71ZM324.23,211.98c.31.1.61.19.92.29-.04.11-.08.22-.13.34-.29-.12-.59-.25-.88-.37.03-.09.06-.17.09-.26ZM325.87,223.48c-.02.5.35,1.16-.88,1.49.4-.67.64-1.09.88-1.49ZM323.25,256.55c.08.06.16.12.24.18-.3.61-.6,1.22-1.05,2.14-.28-.63-.41-.9-.53-1.19.47-.39.91-.76,1.35-1.13ZM323.64,259.66c-.82.17-1.24.26-1.89.39q.69-.7,1.89-.39ZM323.32,217.22c.14-.44.29-.88.43-1.32.16.05.33.1.49.15l-.43,1.3c-.16-.05-.33-.09-.49-.14ZM325.24,239v-1.64c1.04.53.6.95,0,1.64ZM324.44,236.23c-.57-2.48-.4-2.74,1.65-2.73-.6.98-1.12,1.86-1.65,2.73ZM327.21,226.19c.42,1.25-.52,1.76-1.27,2.51.3.24.61.41.8.66.57.74.36,1.72-.41,2.21-.46.29-.92.6-1.57,1.03-1.01-2.24.72-4.12.39-6.17.83-.09,1.44-.16,2.06-.24ZM325.89,207.69l.03-.16.9.26c-.05.11-.09.22-.14.32-.26-.14-.53-.29-.79-.43ZM326.45,219.36c-.72-1.07-.22-1.97.33-2.85.15,0,.3.01.46.02.29,1.11.58,2.22.89,3.36-.85.64-1.29.04-1.67-.53ZM334.44,63.65c.29.22.59.43.88.65-.14.16-.29.33-.43.49-.24-.23-.5-.45-.71-.72-.04-.05.17-.28.26-.42ZM336.02,68.7c-1.18,1.01-1.35.98-1.93-.27.62.09,1.28.18,1.93.27ZM334.36,71.88q1.88-1.44,2.89-.51c-.23.62-.45,1.24-.71,1.95-.55-.13-1.08-.25-1.63-.38.1-.28.17-.5.26-.75-.26-.1-.52-.2-.81-.31ZM337.07,108.37c-.56-.47-1.02-.67-1.03-.9-.04-.9.31-1.68,1.35-2.19-.1.91-.19,1.83-.32,3.08ZM340.17,81.25c-.4-.34-.74-.63-1.18-1.01.69-.6,1.2-1.19,2.22-1.18-.36.76-.66,1.4-1.04,2.19ZM343.35,76.74c-.04-.06.06-.21.21-.66.08.52.12.72.15.93-.12-.09-.28-.15-.35-.27ZM344.12,75.23c-.1-.12-.27-.25-.27-.37,0-.11.19-.22.29-.33.09.14.17.28.25.42-.12.13-.2.21-.28.29ZM356.55,104.85c-.35-.79-.56-1.27-.79-1.8q1.32.18.79,1.8ZM359.9,109.51c-.1.92-.68.71-1.42.67.64-1.18-1.5-1.78-.48-3.08,1.09.2,1.95.79,2.65,1.65-.28.25-.72.48-.75.76Z"/>
  <polygon class="cls-1" points="129.47 113.77 129.47 113.77 129.47 113.77 129.47 113.77"/>
  <path class="cls-1" d="M299.98,325.84s-.01-.03-.02-.05c0,0,0,0-.01,0,0,0,.02.03.03.04Z"/>
  <path class="cls-1" d="M349.11,72.94s.02.05.03.07c0,0,.01-.02.02-.02l-.04-.04Z"/>
  <path class="cls-1" d="M307.94,30.12s-.03,0-.04.01c0,0,.02.01.02.02l.02-.03Z"/>
  <path class="cls-1" d="M298.11,24.59s-.01.06-.02.1c.02-.02.04-.04.06-.06l-.04-.03Z"/>
  <path class="cls-1" d="M314.14,313.74s-.02,0-.03,0c0,.02,0,.03.01.05,0,0,.02-.05.02-.05Z"/>
  <path class="cls-1" d="M349.11,72.94s.04.04.04.04c0-.02,0-.03,0-.04-.01,0-.03,0-.04,0Z"/>
  <path class="cls-1" d="M352.27,71.78c-.42-.87-.8-1.65-1.2-2.49.62-.3,1.11-.53,1.69-.81-.26-.67-.48-1.24-.72-1.86.83-.61.96-1.36.32-2.19-.82-.26-1.27.01-1.68.75-.28.52-1.04.78-1.31,1.3-.28.56-.23,1.28-.36,2.15-.63-.33-1.09-.56-1.65-.85-.14.47-.28.92-.41,1.35,1.53.82,2.15,1.93,2.21,3.81,1.23.06,2.3-.25,3.12-1.17Z"/>
  <path class="cls-1" d="M288.12,4.6c.15-.88.31-1.78.45-2.55.83-.04,1.58.15,1.96-.14.59-.46.4-1.2-.07-1.91-.53.31-.99.52-1.38.82-.97.75-2.2,1.32-1.75,2.98.15.57-.43.92-1.01.73-1.07-.35-1.6.23-2.02.82.43.9.77,1.63,1.14,2.41.87-1.03,1.78-2.11,2.67-3.16Z"/>
  <path class="cls-1" d="M342.32,169.79c.12.03.24.06.36.09,1.67-6.44,3.35-12.88,5.02-19.33-.12-.03-.24-.06-.36-.09-2.05,6.35-3.96,12.73-5.02,19.32Z"/>
  <path class="cls-1" d="M336.96,144.09s-.02.04-.04.06l.04.04s0-.06,0-.1Z"/>
  <path class="cls-1" d="M338.41,138.58c-.07-1.12-.36-2.23-.61-3.61-.37.5-.9.88-.95,1.32-.11,1.04-.02,2.1.04,3.15.02.42.35.89.23,1.23-.41,1.14-.14,2.29-.16,3.43,1.05-1.69,1.57-3.53,1.45-5.51Z"/>
  <path class="cls-1" d="M340.77,122.84c-1.2,1.17-1.61,2.38-1.56,3.83.08,2.37.08,4.75-1.68,6.73.84,1.21,1.44.17,2.11-.12-.13-.53-.45-1.07-.3-1.34.92-1.62.72-3.27.34-4.94-.14-.61-.01-1.02.47-1.5.64-.64.78-1.53.62-2.66Z"/>
  <path class="cls-1" d="M342.66,160.56c.14-.19.36-.47.31-.64-.62-2.07.45-3.94.68-5.91-.12-.04-.25-.08-.37-.12-.9,3.47-1.81,6.94-2.7,10.42-.09.36-.14.78-.05,1.12.07.24.42.41.78.73-.08-2.18.19-4.01,1.35-5.61Z"/>
  <path class="cls-1" d="M306.42,22.25c.47-.93.91-1.81,1.36-2.69-1.05-.7.46-2.06-.8-2.88-.41,1.04-.36,2.28-1.67,2.54.37.49.66.88.89,1.18-.42.68-.77,1.24-.89,1.43.39.91.62,1.46.85,1.98.29-.37.58-.74.86-1.1-.31-.24-.49-.39-.6-.47Z"/>
  <path class="cls-1" d="M303.01,19.12c.84-1.87,2.08-3.57,1.65-5.74-.35-.23-.73-.48-1.19-.78-.2.3-.65.72-.58.87.6,1.1.23,2.12,0,3.22-.16.77.07,1.62.12,2.43Z"/>
  <path class="cls-1" d="M261.55,367.08s.03.02.05.03c0-.02-.01-.04-.01-.07l-.02.02s-.01.01-.01.01Z"/>
  <path class="cls-1" d="M264.44,370.87c-.04-.65.07-1.11-.1-1.4-.66-1.06-1.68-1.73-2.73-2.35.26,1.63,1.42,2.58,2.83,3.75Z"/>
  <path class="cls-1" d="M298.11,24.59s.04.03.04.03c0-.02,0-.03,0-.05-.01,0-.03.01-.04.02Z"/>
  <path class="cls-1" d="M298.96,21.11c-1.09.97-.7,2.27-.82,3.46,1.85-.78,1.89-.97.82-3.46Z"/>
  <path class="cls-1" d="M344.48,169.89c.19.04.38.08.57.13.42-1.9.84-3.81,1.26-5.71-.15-.04-.29-.07-.44-.11-.46,1.9-.93,3.79-1.39,5.69Z"/>
  <path class="cls-1" d="M245.35,355.34c1.04,1.63,2.09,3.27,3.13,4.9.19-.12.37-.24.55-.36-1.34-1.43-1.91-3.38-3.22-4.84l-.46.3Z"/>
  <path class="cls-1" d="M308.98,21.78c-.14-.05-.28-.09-.42-.14-.22.96-.44,1.93-.69,3.03q1.49-.68,1.11-2.89Z"/>
  <path class="cls-1" d="M328.35,43.3c-.22,1.51-.29,3.09-2.32,3.5,2.13.19,2.43-.28,2.32-3.5Z"/>
  <path class="cls-1" d="M247.97,356.31c.77,1.19,1.34,2.08,1.91,2.96.12-.05.23-.11.35-.16-.08-.68-.16-1.36-.21-1.81-.69-.33-1.19-.58-2.05-.99Z"/>
  <path class="cls-1" d="M295.27,28.74c.45-.99.81-1.92-.35-2.91q-.28,2.33.35,2.91Z"/>
  <path class="cls-1" d="M347.12,122.9c.27-.83.54-1.65.88-2.67-.78.62-1.3,1.02-1.93,1.52.26.29.65.71,1.05,1.15Z"/>
  <path class="cls-1" d="M314.11,313.79s.02-.03.02-.05c0,0,0,0,0,0h0s0,0,0,0l-.02.05Z"/>
  <path class="cls-1" d="M316.21,313.35c-.52-.23-1.04-.46-1.55-.69-.22.46-.37.78-.52,1.09.9,1.51,1.36-.08,2.08-.4Z"/>
  <path class="cls-1" d="M343.31,175.41l.42.1c.22-.85.44-1.71.65-2.56-.14-.05-.29-.1-.43-.15-.21.87-.42,1.74-.64,2.61Z"/>
  <path class="cls-1" d="M327.14,51.97c1.05-.16,1.04-.78.62-1.59-.4.42-1.17.68-.62,1.59Z"/>
  <path class="cls-1" d="M335.17,131.84c.26-.62.47-1.14.74-1.78q-1.54.38-.74,1.78Z"/>
  <path class="cls-1" d="M305.61,28.33c-.06-.65-.09-1.08-.16-1.79-.78.74-1.24,1.18.16,1.79Z"/>
  <path class="cls-1" d="M288.6,13.99s.04,0,.06,0c0-.01-.02-.03-.03-.04-.01.02-.02.03-.03.05Z"/>
  <path class="cls-1" d="M287.03,14.61c.92.32.94.32,1.57-.63-.57.05-1.21-.07-1.57.63Z"/>
  <path class="cls-1" d="M324.64,44.17c-.06.96-.1,1.55-.14,2.13.35-.57,1.04-1.09.14-2.13Z"/>
  <path class="cls-1" d="M296.11,22.56c.34-.48.6-.85,1.02-1.44q-1.4-.09-1.02,1.44Z"/>
  <path class="cls-1" d="M243.05,351.82c.32.56.65,1.13.97,1.69.15-.1.31-.19.46-.29-.33-.56-.65-1.11-.98-1.67-.15.09-.31.18-.46.27Z"/>
  <path class="cls-1" d="M334.17,133.61c.56.31,1.08.48,1.27-.78-.56.12-.97.2-1.38.29.03.17.07.33.1.5Z"/>
  <path class="cls-1" d="M259.72,358.13c-.36-.47-.73-.94-1.09-1.41q.08.98,1.09,1.41Z"/>
  <path class="cls-1" d="M257.23,361.97c-.31-.47-.63-.95-.94-1.42-.13.08-.26.16-.39.25.3.48.59.95.89,1.43l.44-.25Z"/>
  <path class="cls-1" d="M326.26,42.24c.1-.27.18-.56.26-.84l-.47-.09c-.03.3-.06.61-.1.91.11,0,.3.05.31.02Z"/>
  <path class="cls-1" d="M307.37,322.85c-.02.07.11.19.22.36.37-.1.75-.21,1.48-.42-.96-.78-1.42-.75-1.7.06Z"/>
  <path class="cls-1" d="M269.39,359.08c-.19-.3-.37-.59-.61-.99q-.2,1.23.61.99Z"/>
  <path class="cls-1" d="M306.1,23.89s.05,0,.08-.01c0,0-.02-.02-.03-.03,0,.01.03.03.03.03,0-.02-.02-.04-.02-.05,0,0,0,.01-.01.02-.01.02-.03.03-.04.05Z"/>
  <path class="cls-1" d="M304.65,25.63c.48-.58.97-1.16,1.45-1.74-.96.11-1.43.69-1.45,1.74Z"/>
  <path class="cls-1" d="M346.7,116.65v1.66c.08.01.16.03.23.04.08-.54.17-1.07.25-1.61-.16-.03-.32-.06-.49-.09Z"/>
  <path class="cls-1" d="M287.34,12.7c.08.06.17.12.25.18.27-.19.54-.38.82-.56-.05-.13-.11-.26-.16-.39-.22.03-.51-.02-.64.1-.16.15-.19.44-.27.68Z"/>
  <path class="cls-1" d="M259.86,355.2c-.09-.15-.16-.32-.28-.44-.2-.18-.43-.33-.65-.48-.07.08-.14.16-.21.23.21.23.4.5.64.68.11.08.33,0,.51,0Z"/>
  <path class="cls-1" d="M350.98,62.48c-.52.31-.98.63-.3,1.41.13-.61.21-1.01.3-1.41Z"/>
  <path class="cls-1" d="M330.01,224.86s-.16-.4-.23-.39c-.21.02-.48.09-.6.24-.12.16-.13.42-.17.64.16-.03.34-.05.48-.12.19-.09.39-.22.51-.38Z"/>
  <path class="cls-1" d="M329,225.4s0-.03,0-.04c-.01,0-.03,0-.04,0,0,0,.02.02.03.03l-.03-.03s0,0,0,.01c.01,0,.02.02.03.02h0Z"/>
  <path class="cls-1" d="M260.59,353.69c.19.25.39.5.58.75.11-.09.22-.17.33-.26-.2-.24-.41-.49-.61-.73-.1.08-.2.16-.29.24Z"/>
  <path class="cls-1" d="M292.61,11.87c-.19-.18-.29-.32-.43-.38-.07-.03-.3.1-.29.15,0,.15.1.3.15.45.15-.06.31-.12.57-.23Z"/>
  <path class="cls-1" d="M346.98,159.86c.12.02.25.04.37.06.08-.38.15-.76.23-1.13-.09-.02-.17-.04-.26-.07-.11.38-.23.76-.34,1.14Z"/>
  <path class="cls-1" d="M307.94,30.11s-.02.04-.02.04c.01-.01.03-.03.04-.04,0,0-.02,0-.02,0Z"/>
  <path class="cls-1" d="M307.96,30.11c.41-.02.82-.04,1.57-.07-.96-.83-1.23-.24-1.57.07Z"/>
  <path class="cls-1" d="M360.91,92.25c-.02-.1-.03-.2-.05-.29-.42.09-.84.17-1.27.26,0,.06.02.11.03.17.43-.04.86-.09,1.29-.13Z"/>
  <path class="cls-1" d="M303.8,24.37c.12,0,.31-.19.35-.33.03-.1-.15-.26-.44-.69-.14.33-.28.51-.26.67.02.14.22.34.34.35Z"/>
  <path class="cls-1" d="M129.47,113.77h0s-.02-.03-.03-.04c0,0,0,.01-.01.02.01,0,.03.02.04.03Z"/>
  <path class="cls-1" d="M128.73,112.63c.24.37.48.73.72,1.1.61-.76.55-.87-.72-1.1Z"/>
  <path class="cls-1" d="M128.69,112.57s-.02.03-.03.04c.02,0,.04,0,.06.01-.01-.02-.02-.03-.03-.05Z"/>
  <path class="cls-1" d="M307.25,29.54s0,.02.01.04c.01-.01.03-.02.04-.04h-.05Z"/>
  <path class="cls-1" d="M305.97,29.54h1.27c-.06-.21-.13-.41-.19-.62-.24.14-.48.27-1.08.62Z"/>
  <path class="cls-1" d="M259.91,362.35c.22.32.43.64.65.95l.25-.15c-.18-.33-.37-.65-.55-.98-.11.06-.23.12-.34.18Z"/>
  <path class="cls-1" d="M352.69,120.65c.07-.46.13-.92.25-1.68-.88.79-.64,1.25-.25,1.68Z"/>
  <path class="cls-1" d="M352.73,120.7s-.02-.03-.04-.04c0,0,0,.01,0,.02,0,0,0,0,0,0h0l.04.02Z"/>
  <path class="cls-1" d="M336.64,145.53c.08-.41.17-.82.25-1.23-.21.37-.42.73-.63,1.1.13.05.26.09.39.14Z"/>
  <path class="cls-1" d="M336.96,144.18s-.04-.04-.04-.04c-.01.05-.02.1-.03.15.02-.04.05-.08.07-.12Z"/>
  <path class="cls-1" d="M261.57,367.07s.02-.02.02-.02c-.01,0-.02,0-.03,0,0,.01,0,.02,0,.04h.01Z"/>
  <path class="cls-1" d="M260.45,365.64c.22.84.27,1.45,1.11,1.41.15-.74-.3-1.03-1.11-1.41Z"/>
  <path class="cls-1" d="M331.3,54.73s-.04-.04-.04-.04c-.02.03-.05.06-.07.09.04-.02.07-.03.11-.05Z"/>
  <path class="cls-1" d="M330.64,55.48c.19-.23.37-.47.56-.7-.28.13-.55.25-.83.38.09.11.18.21.27.32Z"/>
  <path class="cls-1" d="M334.4,172.93l.31.06c.07-.34.15-.69.22-1.03-.05-.01-.11-.03-.16-.04-.12.34-.25.67-.37,1.01Z"/>
  <path class="cls-1" d="M333.6,176.42c.07.02.14.04.21.06.13-.31.25-.62.38-.92l-.39-.17c-.06.34-.13.69-.19,1.03Z"/>
  <path class="cls-1" d="M324.19,49.27c.12,0,.35-.2.35-.31,0-.13-.2-.26-.35-.44-.15.18-.35.31-.34.43,0,.12.22.31.35.32Z"/>
  <path class="cls-1" d="M358.3,98.96c-.19-.2-.39-.41-.58-.61-.08.07-.15.15-.23.22.22.19.43.38.65.57.05-.06.11-.12.16-.18Z"/>
  <path class="cls-1" d="M267.4,361.18c.03-.15.1-.31.09-.46,0-.06-.17-.11-.32-.19-.02.18-.07.34-.04.49.01.07.18.11.27.16Z"/>
  <path class="cls-1" d="M270.25,363.05c.11.02.22.04.33.06-.01-.22-.02-.44-.03-.65-.1.2-.2.39-.3.59Z"/>
  <path class="cls-1" d="M251.51,364.14c.06.17.08.37.19.49.12.13.33.19.49.29.05-.07.1-.15.15-.22-.19-.22-.39-.45-.58-.67l-.26.12Z"/>
  <path class="cls-1" d="M342.84,178.06s.03,0,.05,0v-.71s-.06,0-.09,0c.01.24.03.48.04.71Z"/>
  <path class="cls-1" d="M332.1,215.29h.21v-1.14h-.21v1.14Z"/>
  <path class="cls-1" d="M295.71,11.43c-.02-.11-.05-.21-.07-.32-.1.1-.22.19-.29.31-.02.04.1.16.15.24.07-.08.14-.16.21-.23Z"/>
  <path class="cls-1" d="M281.45,356.1c.04-.13-.21-.44-.38-.49-.13-.04-.46.16-.5.31-.05.18.12.41.25.76.31-.27.58-.4.63-.58Z"/>
  <path class="cls-1" d="M282.46,320.66q-1.67.01-1.87,1.71c-.02.17-.09.42-.21.48-.95.42-.52,1.24-.72,1.78.97.11,1.79.21,2.46.29.72-.81,1.38-1.56,2.09-2.35-.42-.08-.88-.16-1.38-.26-.13-.6-.25-1.13-.36-1.65ZM281.18,323.8c-.51-.74-.3-1.21.23-1.57.12.08.25.17.37.25-.2.44-.4.88-.6,1.32Z"/>
  <path class="cls-1" d="M285.08,320.54c-.58.04-1.16.08-1.92.13.74,1.46,1.33.77,1.92-.13Z"/>
  <path class="cls-1" d="M288.38,320.23c-.46.09-.86.17-1.63.33q1.06.62,1.63-.33Z"/>
  <path class="cls-1" d="M299.95,325.8s0,.05,0,.08c0-.01.02-.02.03-.03,0,0,0,0,0,0,0,0,0,0,0,0l-.03-.04Z"/>
  <path class="cls-1" d="M299.96,325.87c-.32.4-.64.8-1.16,1.43,1.31-.13,1.2-.81,1.16-1.43Z"/>
  <path class="cls-1" d="M300.77,330.1s.01.02.02.03c0,0,0,0,.01,0,0,0,0,0,0,0-.01,0-.02,0-.03-.01Z"/>
  <path class="cls-1" d="M299.9,329.74l.88.35c-.19-.24-.38-.48-.57-.72-.1.12-.21.24-.31.36Z"/>
  <path class="cls-1" d="M300.88,324.51c.09.12.18.23.27.35.26-.2.53-.4.79-.6-.04-.07-.08-.14-.12-.2l-.94.45Z"/>
  <path class="cls-1" d="M295.49,264.75q-1.07.86-.53,1.62c.2-.62.36-1.12.53-1.62Z"/>
  <path class="cls-1" d="M295.18,263.43c.19,0,.38-.22.65-.4-.22-.18-.35-.38-.46-.36-.2.03-.38.18-.57.29.13.17.26.48.38.48Z"/>
</svg>