<?xml version="1.0" encoding="UTF-8"?>
<svg id="Layer_1" data-name="Layer 1" xmlns="http://www.w3.org/2000/svg" viewBox="0 0 408.29 500">
  <defs>
    <style>
      .cls-1 {
        fill: #000;
        stroke-width: 0px;
      }
    </style>
  </defs>
  <path class="cls-1" d="M190.2,23.97c.82.03,1.74.24,2.45.06.99-.24,2.68-.81,2.56-1.17-.45-1.34-1.3-2.87-2.43-3.94-1.19-1.13-2.88-1.81-4.08-2.52-.11-1.98.09-3.66-.39-5.33-.32-1.11-1.62-2.22-2.48-3.33-.3.93-.63,1.85-.88,2.8-.08.29.04.68.1,1.39-1.69-1.9-3.08-3.47-4.47-5.03-.16.07-.32.15-.47.22-.26-1.33-.52-2.67-.79-4.01,3.64-.06,9.99,3.56,11.93,6.8,1.24,2.08,2.67,3.78,5.38,4.1.83.1,1.8,1.12,3.38,2.15-3.46.03-2.64,1.46-2.03,3.67,1.08,3.93,4.24,5.65,7.19,7.69,1.88,1.3,2.29,2.29,1.2,3.69,2.43,1.04,3.71,1.07,4.33-1.25.47-1.72-.15-4.95,4.09-3.69-.15-.32-.3-.63-.45-.95-1.54-.27-3.08-.45-4.63-.84-1.9-.48-2.9-1.58-2.59-3.72,5.3,2.76,10.41,5.42,16.18,8.42-2.31,1.12-3.83,1.86-5.35,2.6.02.24.03.48.05.72,1.97.32,3.93.65,5.9.97-3.82.08-1.1,3.39-1.36,4.85-.21,1.18,1.5,3.33,2.77,4.78.63.72,2.26,1.18,3.27,1.19,1.75,0,3.37-.43,5.39-.73-.31-2.64-3.18-3.56-5.94-5.69,2.29-.24,4.59-.47,7.3-.75.15.17.52.76,1.04,1.1.74.49,1.58.81,2.38,1.2-.07-.8.16-1.69-.25-2.38-1.01-1.68-5.8-3.16-7.2-2.32-1.55-2.46-1.74-6.08-6.61-6.12,1.88-1.66,3.68-1.2,5.8.26,1.41.97,2.93,2.24,4.38,2.58,3.7.86,5.36,3.54,7.07,6.19,1.71,2.65,5.25,3.66,6.5,1.52,1.1-1.87,1.95-2.32,3.96.23.5.64,1.71.89,2.64,1.34-.02,1.05-.04,2.05-.05,2.45,2.7,1.96,4.96,3.59,7.21,5.22-1.28-.44-2.56-.87-3.56-1.21-.46.85-.94,1.59-1.27,2.4-.21.5-.39,1.14-.2,1.69.1.28,1.06.55,1.64.75.84.3,2.35.57,2.4.79.23.97.15,1.96-.04,2.85-.19.91-.63,1.71-1.12,2.98,2.43-.29,4.04-.48,5.78-.68.05-.24.04-.64.21-.92.41-.7.9-1.34,1.35-2,.74.77,1.67,1.49,2.18,2.33.82,1.34,1.36,2.76,1.63,3.33,2.25.29,3.95.46,5.65.73,1.05.17,2.32.84,3.11.62.93-.26,1.44-1.24,2.13-1.91-.82-.46-1.75-1.3-2.46-1.32-2.4-.07-4.44-.6-6.82-2.35-2.86-2.09-6.2-3.5-9.75-5.43-.13-.38-.52-1.55-.91-2.71,2.46,1.81,4.97,2.88,7.82,3.21.98.11,2.66,1.5,3.23,2.52,1.28,2.29,3.01,1.93,4.46,1.95,1.14.02,2.06-.74,3.59-1.36-7.38-3.29-10.44-8.25-10.49-15.91-1.47-.2-2.93-.39-4.39-.58-.09-.36-.18-.71-.27-1.07,1.58-.37,3.16-.74,4.76-1.12,1.08,1.53,2.13,3.02,3.35,4.75-1.07,1.01-2.53,2.32.89,4.15.18.1.39.55.35.74-.85,3.58,2.6,4.85,5.19,6.54.4.26,1.15.43,1.43.27,2.61-1.51,3.01.67,3.2,2.28.24,2.06.04,4.05.03,6.4,4.14,1.03,8.47,2.11,13.52,3.37.99,1.14,2.47,3-.33,4.25-1.98-1.08-4.03-2.38-6.16-3.28-.97-.41-2.11-.02-3.18.01.58,1,.96,2.47,1.76,2.91,3.9,2.15,7.89,4.09,11.88,5.98,1.7.8,3.15.87,3.41-1.1.05-.41,1.17-.72,1.83-.58,2.64.55,5.32,1.52,7.93,1.89,1.97.28,2.99,1.06,3.7,2.76.83,2.02,1.44,4.15,2.7,6,1.14,1.67,3.04,3.04,5.08,4.32-1.67-2.26-3.19-4.2-.57-5.87,1.52,2.82,2.9,5.38,4.55,8.44-2.4-.77-4.83-1.55-7.25-2.33-.08.21-.16.42-.24.63,1.8,1.41,3.61,2.81,5.41,4.22-1.6.54-4.71-.17-2.93,3.39,1.03-.05,1.94-.09,2.94-.14.06,1.12.15,1.99.15,2.84,0,.95-.4,1.9-.06,2.8.8,2.11,1.44,4.91,3.07,6.12,2.77,2.05,5.96,3.23,7.28,6.76.64,1.73,2.05,3.4,3.11,5.1-.43-2.03,3.18-4.2-1.89-5.93-.38-1.94-.76-3.88-1.14-5.81-1.42-.6-2.77-1.1-4.06-1.75-.7-.35-1.31-.97-1.96-1.46.76-.28,1.45-.74,2.29-.78.94-.05,2,.29,3.6.55-2.07-2.46-3.49-4.29-5.22-3.11-1.47-1.15-2.58-2.01-4.49-3.5,1.7.21,2.82.61,3.49.34.55-.22.98-1.58.73-1.84-1.28-1.3-2.8-2.39-4.23-3.56,4.03.1,7.63,2.04,10.64,5.11,1.97,2.01,3.67,4.13,6.43,5.11.46.16.88.66,1.11.84-.87,1.33-1.69,2.58-2.5,3.83.35.27.7.54,1.05.81.3-.21.6-.41.29-.2,1.98.89,3.45,1.55,4.92,2.23.49.23,1.19.46,1.4.81,1.67,2.72,5.07,4.4,6.11,7.56.87,2.67,3.41,3.39,5.76,4.09,1.15.34,2.36.44,3.44.98,3.93,1.99,4.18,3.18,1.41,5.03-.76.5-1.32,1.44-1.47,2.37-.26,1.55-.12,3.26-.14,4.92,1.26.98,2.82,2.31,4.5,3.46.72.49,1.73.76,2.51.78.28,0,.61-1.18.33-1.56-.61-.84-1.56-1.53-2.42-2.23-.21-.17-.6-.12-.9-.18q-1.56-6.13,2.35-5.98c.29,4.13,1.46,5.66,6,8.12,2.19,1.19,4.04,2.45,4.7,5.1.42,1.68,2.15,3.42,3.61,5.6-1.67-.18-2.85-.3-4.24-.45.02.99.05,1.96.07,3.05-2.96-2.49-4.01-6.36-2.52-8.73-3.39-1.27-5.32.15-4.13,3.12,1.27,3.16,2.67,6.31,4,9.47.04.09.03.19.05.29.42,1.55.36,3.53,1.4,4.54,1.18,1.14,3.34,1.49,5.09,2.03,2.28.71,2.85,1.85,2.5,3.67-.35,1.83-.66,3.69,2.81,4.64.76.21,1.91,2.34,2.12,3.51.52,2.99.39,5.91.97,8.9.23,1.16,1.5,2.57,2.58,3.62,1.75,1.7,2.7,3.23,1.99,5.14-.26.69-.15,1.69.14,2.53.57,1.62.2,2.64-.29,4.03-.58,1.64.41,4.45,1.57,6.53,1.33,2.37,2.58,4.43,1.81,6.71-.21.61.43,1.68.78,2.53.27.67.9,1.36.98,1.97.28,2.27.55,4.55.5,6.74-.03,1.41-.66,2.65-.94,4.01-.19.91-.71,2.04-.25,2.81,2.8,4.66,2.24,8.76.79,12.28-1.14,2.76-.53,5.67.01,8.59.52,2.81.44,4.81-2.66,5.17-.17.02-.31.19-.39.33-.08.14-.06.35-.11.75,1.87.75,5.14.42,4.36,3.79-1.04.12-2.47-.11-2.98.44-1.01,1.11-1.52,2.65-2.23,4.01,2.53,1.21.77,2.39.93,3.54.06.47-.68.81-1.18,1.36,2.77,1.98,1.02,3.16-.21,4.54,1.02.69,1.84,1.25,2.86,1.95-.47,2.3-.11,6.31-1.59,6.61-3.79.75-2.13,3.87-2.18,5.78-.09,3.49,1.36,7.39,1.56,10.99.15,2.68.11,5.75-1.28,7.51-.99,1.24-3.76,1.29-4.22,3.46-.19.92-.64,2.34-.16,2.81.88.85,2.37,1.15,3.93,1.82-.14.85-.38,2.32-.59,3.58-1.56-1.22-2.99-2.33-4.42-3.44-.23.12-.46.24-.69.36.67,1.27,1.34,2.53,2.22,4.2-.57,1.3-1.35,3.08-2.13,4.85.24.06.47.11.71.17-.06,2.93-.14,5.85-.19,8.78-.03,1.59-.37,3.17.02,4.78.72,2.98.22,5.25-1.55,7.15-.51.54-.37,1.63-.58,2.44-.48,1.82-.73,3.8-1.62,5.36-.35.61-2.14.27-3.36.38.91.92,2.05,2.08,3.19,3.23-.12.16-.25.32-.37.48-1.6-1.04-3.2-2.08-4.8-3.12,3.46,2.45,4.61,5.33,3.9,8.29-.57,2.38-1.72,4.5-2.86,7.34.86,1.69.1,5.02-2.11,5.91,2.06,2.93,1.98,3.08-1.68,2.63.06.77.12,1.56.19,2.43.69-.06,1.12-.11,2.21-.21-.94,1.2-1.49,2.1-2.24,2.81-.67.64-1.56,1.09-2.89,1.98-.22-1.92-.39-3.45-.6-5.4-.8-.41-2.01-1.04-4.05-2.09,1.8,3.17,3.04,5.62-.63,6.71,2.06,1,4,1.43,4.62,2.37.63.95-.05,2.4-.15,3.58.26-.13.62-.32.98-.51.23.25.47.51.7.76-1.04.66-2.08,1.33-3.47,2.22-.02-.06.18.56.38,1.18-1.78,1.31-8.01-3.27-10.97-8.04-3.7,1.25-2.25,4.45-1.19,7.06-1.43.35-2.69.65-3.95.96.15.25.3.5.45.75,1.55.26,3.11.52,4.79.8q1.12-3.11,4.11-2.86c.2.57.34,1.16.63,1.72.24.46.66.87,1.16,1.5-1.33.36-2.51.67-3.78,1.01.87,1.37,1.5,2.38,2.56,4.06-1.67-.68-2.5-1.03-3.51-1.44-.51,1.97,2.94,5-.22,5.84-.42.11-1.54-1.01-2.73-1.84.13,1.32.28,2.79.43,4.27-2.53-.38-3.81.95-4.35,3.78-.4,2.12-1.48,4-2.55,5.8-.78,1.31-2.02,2.3-3.05,3.44q-3.86-3.58-1.47-8.21c-1.26,1.01-1.96,1.57-2.5,2-4.44-3.98-5.78-8.52-6.51-13.48-2.25,2.88-4.49,5.76-6.74,8.65.12.17.23.35.35.52,1.64-.62,3.28-1.24,5.63-2.12.36,2.64.66,4.92.97,7.25,1.17-.04,2.81-.09,3.73-.12,1.47,2.03,2.58,3.53,3.63,5.05.4.59,1.01,1.37.91,1.8-.1.42-.94.58-1.52.71-.96.22-1.98.33-3.71.61,1.64,1,2.2,1.34,3.12,1.91-.89.73-1.7,1.34-2.45,2.01-.92.82-1.72,1.76-2.74,2.47-.51.36-1.4.3-2.89.58-.44,1.01.32,4.23-3.51,3.31-.06,3.96-4.41,6.51-8.6,5.1-1.31,1.98-2.45,4.13-4.05,5.9-.73.8-2.37.83-3.61,1.2-.17.05-.56-.03-.56.04-.24,3.71-5.36,2.72-6.42,5.66-.2.55-.61,1.15-1.17,1.33-7.14,2.27-12.12,7.36-19.23,9.66-2.03.66-3.23,2.7-6.21,1.91-.21-.06-.45,1.64-.22,2.81,3.04-.64,4.85-3.05,8.58-1.52l-.02-.05c.49.78.98,1.56,1.78,2.83-2.13.49-4.2.96-6.02,1.38-.26.76-.23,2.1-.94,2.46-2.37,1.2-5,2.05-7.5,3.02-3.05-2.99-3-3.09,3.15-6.02-2.54-2-2.63-1.99-4.34-.4-.42.39-1.03.65-1.62.85-3.28,1.13-6.75,2-9.84,3.38-3.11,1.38-5.87,3.25-8.75,4.95-.42.25-.62.76-.93,1.15.25.32.5.63.75.95,2.7-1.39,5.26-3,8.15-4.11,2.96-1.14,6.24-1.78,9.64-2.71-1.05.97-2.45,1.67-2.96,2.88-.91,2.13-2.21,3.78-4.85,3.92-3.14.17-5.23,1.8-7.78,2.82-.88.35-2.43-.29-3.81-.5.27.4.69,1.06,1.44,2.19-2.39.62-4.68,1.26-7.06,1.77-.38.08-1.56-.58-1.58-.76-.08-.8-.2-1.96.3-2.25,1.38-.8,3.07-1.23,4.64-1.81-.02-.29-.05-.58-.07-.87-1.54-.54-3.08-1.09-5.37-1.9-1.72-2.3-4.93-3.62-7.62-2.43.26.22.46.45.7.6,1.29.83,2.58,1.64,3.88,2.46-1.08.74-2.41,1.28-3.19,2.26-.99,1.23-1.67,2.74-2.15,4.29-.1.33,1.19,1.36,1.6,1.8,1-1.29,1.58-2.44,2.59-3.09.35-.23,2.14.62,2.61,1.27.4.56.16,2.05-.37,2.24-2.02.73-4.22,1.19-6.45,1.55-.72.12-1.74-.4-1.87-.44-2.94,1.34-5.55,2.7-8.39,3.7-.71.25-2.54-.45-3.17-1.16-.48-.55-.24-2.11.3-2.68.72-.76,1.72-2.04,3.53-.1.44.48.95.92,1.91,1.84-.46-3.53,2.03-3.86,4.33-4.5.72-.2.99-1.16,1.32-1.59-7.76-2.21-10.18,3.85-15.92,4.19,1.22,1.33,2.36,2.57,3.77,4.11-1.61.48-2.77,1-4.08,1.18-8.67,1.18-17.49,2.02-26.02,3.49-10.32,1.78-21.36,1.04-32.38.39-5.97-.35-12.03-1.04-18.09-1.82-1.5-.19-3.13-1.32-4.71-1.97-.47-.19-.98-.23-1.47-.29-4.19-.53-8.37-.96-12.57-1.61-3.73-.57-7.51-1.03-11.23-2.16-7.02-2.13-14.06-4.42-20.99-7.18-6.26-2.49-12.38-5.69-18.57-8.56-7.45-3.46-13.99-8.41-20.17-13.88-8.19-7.25-14.46-15.71-20.63-24.23-2.55-3.52-5.49-6.87-8.11-10.36-3.29-4.38-6.23-8.94-9.72-13.19-2.01-2.45-4.95-4.33-7.2-6.67-1.78-1.85-3.28-3.97-4.7-6.05-2.49-3.65-4.82-7.36-7.24-11.03-.55-.83-1.25-1.61-1.78-2.45-2.48-3.88-2.38-4.18,1.18-5.57.82-.32,1.45-.91,2.17-1.38-.88-.8-1.71-1.65-2.63-2.4-1.67-1.36-3.39-2.66-5.09-3.98l.85-1.09c2.1,1.63,4.33,3.13,6.25,4.93,3.01,2.82,5.81,2.94,8.92,2.55,1.48-.19,3.35.56,5.03.83,1.36.21,2.7.34,3.98.49-.31-2.38-.61-4.65-.9-6.92.3-.12.6-.25.9-.37.8,1,2.31,2.19,2.28,2.95-.13,3.44,1.87,3.18,3.99,2.88.77-.11,1.44-.44,2.16-.67.25.37.51.73.76,1.1.04,1.54.08,3.08.12,4.65,3.4,1.82,3.9,1.65,4.14-1.44,2.17.01,4.3.03,5.37.03.02-4.19.04-7.57.07-11.91-1.33-.72-3.72-2.22-6.2-3.21-.8-.32-1.79.79-2.79,1.09-1.2.36-2.5.54-3.76.8-.6-1.66-1.94-3.63-1.65-4.9.61-2.72-1.62-7.05-4.94-8.49-.97-.42-1.9-1.03-2.65-2.13,3.14,1.29,6.27,2.57,9.67,3.97.02-.07.02.47-.2.86-1.09,1.95.23,3.69,2.28,4.84,2.64,1.49,5.45,2.57,8.38,3.91.36-2.59-1.8-2.97-3.36-3.77-1.57-.8-3.14-1.6-4.7-2.39.07-.35.14-.69.21-1.04.97.18,2.01.53,2.91.48.9-.05,2.39-.31,2.38-.78-.09-3.65,3.51-2.65,5.53-2.35,3.6.54,3.44-.78,2.49-3.31-.2-.53.25-1.11.46-1.86-2.44-1.13-3.47-2.98-3.33-5.82.14-2.81-2.91-4.6-5.59-6.46,1.2-2.03-.01-4.02-1.85-6.15-1.25-1.44-1.97-3.2-3.15-4.7-.64-.82-1.81-1.89-2.6-1.98-2.66-.31-3.33-1.76-3.74-3.77-.24-1.15-.82-2.33-1.22-3.43,1.86.15,3.64.28,6.17.48-1.53-1.74-2.32-2.64-3.11-3.54,0-.27-.01-.54-.02-.81,1.8.39,3.7,1.08,5.38,1.06,1.3-.01,2.74-.61,3.36-1.51.69-1.01.48-2.65.72-3.99.11-.6.16-1.32.55-1.7,2.01-2,1.96-3.84-.03-6.94-1.04-1.62-1.73-3.37-2.6-5.09,4.79-.72,5.14-1.12,4.26-6.88-.38-2.52-1.15-5.14-2.16-7.67-.67-1.69-.45-2.25,1.1-2.62,2.27-.55,2.06-4.94-.09-6.85-.39-.34-.49-1.25-.38-1.75.15-.69.97-1.18.9-1.85-.09-.8-.82-1.7-1.28-2.56-.69.23-1.52.32-2.04.73-.9.7-1.6,1.6-2.63,2.67.52,1.71,1.23,4.04,1.95,6.41-.42.07-.73.25-.96.14-1.2-.59-4.73-7.29-4.55-8.29.26-1.48.28-3.06.49-4.56.23-1.59.71-3.09.83-4.71.12-1.55-.09-3.2-.14-4.72-4.49-1.47-2.57,2.88-4.93,3.35-.38-1.26-.72-2.38-1.15-3.8-3.71,1.45-1.03,4.82-.67,7.24.47,3.14,2.45,6.53,1.13,9.35-.32.69-1.22,1.43-2.02,1.37-4.21-.34-5.37,1.03-4.33,4.46-.76,1.57-1.13,2.64-1.75,3.53-.52.74-1.33,1.26-2.01,1.88-.25-.18-.5-.37-.75-.55-.2,1.11-.41,2.23-.68,3.71-1.56-2.94-1.01-6.89.77-8.03.37-.23.84-.46.96-.84.67-2.09,1.28-4.22,1.86-6.36.22-.8.31-1.66.46-2.49-.55-.08-1.1-.16-1.65-.23-.83.24-1.67.49-2.5.73-.18-.2-.37-.39-.55-.59.88-.75,1.76-1.49,2.97-2.53,1.11,1.63,1.82,2.83,2.72,3.92.42.51,1.32,1.17,1.77,1.13.49-.04,1.02-.73,1-1.26-.1-2.29-.61-4.69-.56-6.94.07-2.68,0-5.55.99-7.77,1.54-3.46,1.17-7.19.45-11.22-.32-1.79.05-3.57.49-5.19.64-2.36,1.62-4.57,2.46-6.84.33.12.67.23,1,.35-.03,1.14-.06,2.28-.09,3.6.68.28,1.42.59,2.81,1.17-3.65,2.04-5.12,4.86-3.4,9.14,1-.35,2-.7,3-1.06.58.98,1.43,1.97,1.69,2.94,1.11,4.09,1.04,4.09,5.62,4.35,1.54,3.86,5.36,7.69,2.91,11.01,2.27.88,3.94,1.57,5.63,2.17.47.17,1.31.29,1.39.1.32-.78.58-1.64.55-2.54-.04-1.05-.06-2.33-.71-3.22-.9-1.24-2.38-2.21-4.15-3.76.13-1.17.75-3.2-2.12-4.97-.23-.14-.24-1.65.03-1.69,3.25-.51.66-3,.86-5.06-1.03.48-1.61.76-1.97.93-.84-1.26-1.62-2.47-2.46-3.66-1.01-1.43-2.26-2.79-3.04-4.27-.31-.6.34-1.42.57-2.14.02-.07.22-.08.21-.14-.29-2.54-.6-5.08-.91-7.62-.31-.08-.62-.16-.93-.23-1.11,1.81-2.23,3.62-3.25,5.3-.81-.83-1.85-1.9-3.33-3.42.01-.6.04-1.79.07-3.08-2.38-1-3.71-.84-4.12,1.32-.37,1.93-1.17,3.69-1.83,5.64.85.58,1.74,1.18,3.19,2.16-1.18.15-1.85.23-2.11.26-1,3.56-1.9,6.94-2.96,10.24-.15.48-1.11.55-1.7.81-.44-.66-1.29-1.46-1.24-1.96.18-1.93.58-3.79,1.01-5.63.94-4.05.88-8.43,3.5-11.86,1.84-2.42,1.86-6.23,2.74-9.39.77-2.76,1.73-5.43,2.4-8.23.31-1.29.14-2.8.17-3.81.71-1.66,1.29-3.13,1.97-4.54.6-1.26,1.57-2.34,1.93-3.7.81-3.1,1.73-6.22,1.85-9.54.07-2.07,1-3.08,2.56-3.67,2.08-.78,2.11-2.23,1.32-4.37-.4-1.07-.6-2.54-.08-3.18.54-.66,2.07-.54,3.16-.76.49,1.14.98,2.28,1.85,4.31.91-1.44,1.87-2.53,2.32-3.89.15-.46-.87-1.8-1.63-2.35-1.32-.97-1.7-1.58-1.44-2.99.36-1.99-.13-4.31-.07-6.43.02-.79.43-2.05.93-2.03,3.14.13,3.58-2,4.22-4.06.21-.68.59-1.27,1.17-2.47.67,3.73,1.23,6.61,1.7,9.48.24,1.46-.06,2.95.52,4.35,2.05,4.91,1.38,8.85-.79,12.42-.28.46-.06,1.25-.08,1.88-.08,2.91.39,6.07-.36,8.66-1.08,3.75.21,7.74,1.13,11.7.64,2.75.92,5.18.64,7.85-.39,3.72,1,8.04,1.63,12.11.36.08.73.15,1.09.23.24-1.17.45-2.35.73-3.49.56-2.31,1.18-4.59,1.74-6.9.1-.42.28-1.08.04-1.34-2.62-2.78-.01-3.62.59-5.27.77-2.09,1.22-4.35,1.7-6.59.38-1.75.75-3.53.81-5.38.03-1-.58-2.18-1-3.6,2.33-.03,2.78-1.47,1.35-4.52-1.11-2.37-1.24-4.9-1.92-7.82,5.73,3.59,5.78,7.82,6.46,11.92.27,1.6.58,3.2,1.6,4.91-.49,3.46-1.04,6.91-1.41,10.41-.05.46.73,1.21,1.16,1.82,1.23,1.73.74,3.8-.97,4.05-4.19.6-4.8,1.83-3.16,6.15.32.85.88,2.06.54,2.51-.48.65-1.85,1.33-2.52,1-3.22-1.59-3.28-.24-3.08,2.03.27,3.07.55,6.21.12,9.05-.29,1.88-1.83,3.28-2.92,5.08,1.82.98,1.48,2.21,1.4,4.06-.1,2.46-1.65,4.86.64,7.87.28.37.21,1.25-.08,1.53-3.23,3.03-.26,7.03,1,11.06.75-.46,1.22-.75,1.8-1.11.11,1.58.21,2.91.32,4.52-3.23-1.11-3.63.22-2.27,3.05.8,1.66-.58,3.55,2.04,5.16.09.06-.67,1.83-1.03,2.8-.31-.08-.63-.17-.94-.25-.55-1.06-1.09-2.12-1.64-3.17-.29-.06-.58-.12-.88-.19.01,6.61-.81,12.98.83,20.02-6.04-1.49-6.71-.62-4.88,4.48.76,2.11.87,4.26,1.53,6.39.29.92,1.23,1.84,1.87,2.75.28-.79.61-1.56.83-2.38.11-.41,0-.91,0-1.35,1.25.14,2.36.27,3.47.39-.32-1.68-.69-3.36-.95-5.03-.19-1.19-.4-2.42-.32-3.54.15-1.99.5-3.92.8-5.87.13-.85.32-1.68.49-2.51.34.1.69.2,1.03.31.11.69.48,1.51.3,2.05-1.18,3.49.73,7.23,1.75,11,.95,3.51.79,7.05.71,10.46-.07,3.12-.65,6.11-1.09,9.13-.07.45-.66,1.12-.92,1.03-1.53-.54-3.04-1.26-4.52-2.02-.1-.05-.12-1.16.19-1.42,2.32-1.9,1.45-3.96-1.13-6.47-2.47-2.4-4.68-5.03-7.2-7.76-.28.97-.69,1.96-.86,3.04-.42,2.7-.86,5.4-1.01,8.19-.05.87.87,2.01,1.19,3.02.32,1.03.44,2.06.65,3.09-.94-.32-1.88-.68-2.82-.96-1.23-.37-2.47-.69-3.74-1.03.39,3.48-.09,3.74-4.83,2.19,2.38,4.67,4.35,9.04,6.9,13.23.6.99,3.11,1.37,4.7,2.01,1.35-3.14.61-4.81-2.13-7.53-1.17-1.16-1.5-3.03-1.69-4.8,3.23,1.74,6.85,2.34,8.28,6.18.28.76,1.98,1.42,3.02,2.12-.05-1.09.35-2.36-.24-3.22-1.31-1.9-3.13-3.59-4.65-5.27.62-.67,1.14-1.42,1.86-1.93.64-.46,1.49-.98,2.32-.85.55.09,1.26,1.26,1.84,1.98.2.25.26.58.34.88.33,1.21.15,2.87,2.27,2.73.37-.02.11-1.8.17-3.31.76.73,2.11,1.59,2.12,2.13.03,1.56,1.42,3.27,1.44,4.27.06,3.66,3.48,3.69,5.42,5.1.46.33,1.94-.82,3.3-1.45.53.27,1.62.83,2.5,1.28-.71,1.69-1.38,3.26-2.16,5.1-.22-.08-1-.36-2.07-.74-.06,1.39-.25,2.73-.06,4.12.03.25,1.59.71,2.43,1.11.95.44,2.47.82,2.74,1.39,1.83,3.9,5.1,5.48,8.87,6.77,2.17.74,4.32,1.9,6.41,3.04.61.33,1.48,1.75,1.36,1.86-1.02.95-2.03,2.2-3.47,2.41-1.48.22-3.43-.63-5.57-1.1.25-1.13.52-2.29.91-4.03-2.65-.12-4.95-.22-7.25-.33,0,.27,0,.54,0,.81.37.32.85.6,1.08.97.45.7.76,1.45,1.12,2.18-.97.04-2.43.48-2.84.07-2.61-2.65-4.98-5.49-7.44-8.26-.87-.98-1.79-2.57-2.66-2.77-2.27-.54-3.12-1.38-2.34-3.56-3.34.74-2.76,2.93-2.01,5.45,1.13-.15,2.14-.28,3.34-.43.94,1.27,1.85,2.51,2.91,3.95-1.28-.26-2.32-.48-3.71-.77,1.02,2.38,1.89,4.38,2.81,6.54-.69.22-1.42.44-2.42.75,2.24,2.28,4.4,4.43,2.8,6.29,1.71,1.33,3.15,2.59,4.72,3.64,1.22.82,2.57,1.44,3.89,2.05,2.88,1.32,4.01,3.54,2.71,5.92-.63-.49-1.38-.88-1.8-1.44-1.53-2.01-3.27-2.69-5.41-2.47-2.41.25-3.69-.82-4.87-3.35-1.25-2.68-3.52-5.18-5.63-8.17-.9,1.03-1.37,1.55-2.17,2.46-.91-1.64-1.59-2.87-2.53-4.56-.59,1.15-1,1.94-1.43,2.76-1.19-.5-2.29-.97-4.22-1.78,1.17,3.01,2.12,5.45,3.24,8.32,1.48.14,3,.39,4.47.41,2.67.04,3.49.79,3.62,3.23.04.88.33,1.94.89,2.77,1.92,2.85,4,5.63,6.03,8.44,1.37,1.9,2.87,2.85,5.05,1.55-1.41-1.39-2.66-2.61-3.91-3.84,1.37-1.38,5.62.28,6.71,3.03.75,1.9,1.51,1.84,3.06,1.98,5.34.47,10.76,1.32,16.09,1.78,4.26.36,8.44.36,12.66.51.3.01.66-.23.84-.11,2.52,1.69,4.84.82,7.13,1.4,4.38,1.11,8.21.93,12.11.53.37-.04.89.33,1.32.39,2.07.31,4.13.59,6.2.86,1.47.19,2.93.18,4.39.57,2.14.57,3.09-.28,2.75-1.92-.51-2.49-1.53-5.02-2.37-7.66-1.36.06-2.49.11-4.35.2,1.8-2.23,6.08-3.64-.58-6.99,2.14-.49,4.51-.48,2.46-3.88,5.99,2.79,8.28-.89,12.18-1.72.51,1.16,1.14,1.9-.84,2.43-2.61.7-5.1,2.13-6.61,4.05-.7.89.57,3.98,1.86,5.49.68.79,3.59.76,5.06.35,2.03-.57,3.79-.5,6.65,1.62-1.85,1.46-3.51,2.76-5.68,4.47,2.2-.37,3.97-.53,5.58-.96,1.86-.5,3.53-1.32,5.4-1.8.35-.09,1.72.85,1.74,1.14.06.86,0,1.98-.59,2.38-1.35.93-3.03,1.49-4.26,2.86.91-.05,1.8-.22,2.74-.14,1.12.1,2.28.42,3.42.64.92.18,1.87.48,2.75.5,1.99.05,4.08.22,5.86-.19,1.04-.24,1.67-1.42,2.15-2.38.09-.17-1.41-1.58-2.3-2.03-2.56-1.28-5.19-2.35-7.82-3.51.77-3.41,4.54-2.45,7.84-2.08.6.07,1.99,1.39,1.97,1.82-.14,3.15,1.91,2.77,3.77,2.72.68-.02,1.32-.19,2.1-.3,1.26,4.04-3.68,2.1-3.86,5.47,1.85-.64,3.18-.99,4.37-1.53,1.95-.88,3.73-2,5.78-2.73.4-.14,1.7,1.02,2.5,1.67.83.67,1.65,1.99,2.32,2.06.79.09,1.97-.68,2-1.36.21-4.46,4.02-3.24,7.36-2.92.95.09,2.18.06,2.66-.46,3.5-3.77,9.59-2.2,14.63-3.46-.41,2.63-.74,4.75-1.21,7.73,2.37-.21,3.85-.36,5.36-.47,1.12-.08,2.27-.07,3.39-.16.53-.05,1.44-.14,1.44-.41,0-2.62,2.42-1.91,4.2-2.03,4.18-.28,4.68.06,6.59,4.84.8-.26,1.67-.55,2.61-.86.89,1.69,1.52,2.89,2.03,3.85-1.04.95-1.94,1.76-2.83,2.57,1.58.87,3.15,1.74,4.69,2.59.34-.59.46-.82.6-1.03.67-1.06,1.19-3.08,2.04-2.98,2.09.26,4.79-.31,6.43,2.96.31.62,2.56,1.29,3.61,1.19,1.57-.15,4.14.78,4.11-1.75-.02-1.33-.05-2.67-.08-3.99-3.59-1.31-6.14,2.02-9.96-.86-.14-.11-.42-.08-.61-.06-3.9.35-4.86-.47-5.2-4.22,2.28.12,4.56.38,6.71.27.61-.03.84-1.15,1.36-1.94.65.34,1.5.88,2.38,1.19.85.3,1.74.36,2.64-.13-.77-.2-1.53-.41-2.45-.65-.09-2.52,1.82-2.78,3.61-3.35,1.08-.34,2.03-1.14,2.58-2.04.67-1.11,1.27-1.38,2.89-.51.96.51,2.41.72,3.22.42,1.72-.63,3.18-.77,5.47.06,1.41.51,3.1-.94,4.44-1.43-.69-1.39-1.48-2.72-1.35-2.78,1.36-.65,2.88-1.1,4.35-1.6.19.23.39.46.58.68.19-.74.38-1.48.58-2.28,2.53.93,4.98,1.84,6.76,2.49.5,2.47.86,4.44,1.32,6.42.37,1.56-1.81,3.4-3.88,3.17-6.98-.79-8.14.79-5.25,8.31-3.78,1.7-7.73,3.49-11.89,5.37-1.1-1.53-1.28-2.52.49-3.24,2.43-.98,4.61-2.31,6.55-4.21-1.32.02-2.83-.26-3.92.11-3.5,1.2-3.44,1.3-6.14-2.7-.02.96-.28,1.6,0,2.08,1.17,1.99,1.16,3.31-.59,4.35-.5.3-.22,2.23.41,3.07,1.65,2.21,1.44,3.38-1.71,4.09,3.13.46,3.74,1.36,2.92,2.99-.69,1.37-1.13,2.91-1.51,4.44-.13.52.04,1.49.46,1.86.44.39,1.39.45,2.03.41,1.07-.06,2.08-.31,3.3-.2,1.41-.9,1.31-4.1,5.41-1.46-1.04,1.76-2.02,3.42-3.19,5.4,2.67-.24,5.08.06,5.55-2.76.15-.91,1.91-1.14,2.75-1.87.72-.63,1.18-1.52,1.75-2.29-1.06-.38-2.12-.76-3.17-1.13-.29-.1-.59-.17-.95-.27,1.04-1.05,2.9-1.91,2.75-3.07-.16-1.18-2.3-2.65-4.06-4.5,1.94.19,3.76.36,5.91.56.08-.32.25-.96.32-1.23,2.82.13,5.34.24,7.82.35-.1-1.76,3.09-4.04,4.95-3.77,5.06.75,6.89,2.36,7.3,6.13,3.33,3.14,5.77,1.96,8.45.13-1.16,2.96-2.01,5.15-3.08,7.9,2.39-1.17,4.26-2.09,6.13-3.01.26.08.53.16.79.24-.46,1.46-.93,2.92-1.52,4.8,1.51-.67,2.8-1.24,4.08-1.81.18.19.36.38.54.57-.3.73-.6,1.45-.9,2.18.15.13.3.26.45.38.74-.4,1.49-.8,2.18-1.17-.64-1.66-1.21-3.15-1.89-4.93-2.41-.3-3.28-1.67-3.03-4.05.28-2.69-1.31-4.4-4.53-5.31-.04-1.17-.08-2.35-.12-3.52-.27-.2-.54-.39-.81-.59-1.17.87-2.34,1.73-3.91,2.89-1.02-.48-2.65-1.35-1.42-3.33.17-.27.11-.72.05-1.1-.63-3.8.64-5.94,4.27-6.49,7.03-1.07,6.03-4.35,3.16-10.36-1.31-2.73-2.54-5.37-6.49-5.43.18-1.21.29-1.98.38-2.57-2.13-.48-4.3-.97-6.46-1.46-.15-.34-.3-.68-.45-1.02,1.08-.77,2.14-1.56,3.25-2.29.63-.41,1.35-.71,2.02-1.06-.74-.74-1.49-1.49-2.24-2.23-.24-.24-.49-.47-.64-.62.54-.69.95-1.44,1.58-1.96.5-.41,1.32-.94,1.94-.74,4.7,1.52,5.56-1.76,7.16-3.95,1.3-1.78,2.12-3.91,3.24-5.83.24-.41.79-.73,1.32-.81,3.66-.52,5.44-2.81,5.99-6,.42-2.42,2.02-3,4.43-3.41,3.6-.61,6.06-2.8,6.59-6.3.46-3.07-1.04-4.5-4.83-5.03.72-2.32,1.43-4.57,2.19-7,.59.6,1.26,1.28,2.07,2.1,1.03-.52,2.04-1.03,2.81-1.42,3.97,2.52,8.74,4.6,6.02,9.24,3.62.85,6.94-2.71,5.41-5.43-1.74-3.11-2.28-5.83-.4-8.16-1.12-.3-1.94-.52-2.76-.74.08-2.25.16-4.5.24-6.88-2.01-.55-2.99-1.68-1.51-3.62.53-.7.46-1.85.79-3.33,1.09,1.21,1.83,2.04,2.95,3.28.26-.77.56-1.31.62-1.94.04-.43-.22-.98-.43-1.47-2.11-5.04.21-7.46,4.04-9.13,3.06-1.33,4.62-3.45,3.59-7.57-.55-2.2.79-4.33,1.27-6.49.15-.66.58-1.38.32-2.01-1.42-3.43-.46-6,.55-8.71,1.35-3.61,2.16-7.52,3.38-11.2.51-1.54.31-3.93,2.7-3.38.89-2.21,1.71-4.24,2.58-6.41-.18-.2-.76-.83-1.53-1.65,4.73-.15,4.48-.18,3.84-4.74-.48-3.38-.28-6.68-.24-9.98.02-1.68,3.24-2.17.53-4.81-.3.09-.79.24-1.37.42-.16-.44-.36-.75-.34-.99.24-3.22-2.14-7.08.02-9.9.4-.52-.37-2.14-.93-3.18-2.01-3.71-1.75-7.61-6.99-10.95-6.75-4.31-12.64-10.23-18.88-15.48-.53-.44-.9-1.08-1.45-1.47-4.09-2.9-8.15-5.87-12.35-8.61-3.52-2.3-7.2-4.31-11.56-6.88,2.15.19,3.69.32,5.99.52-1.74-1.75-2.55-3.29-4.71-2.34-1.81.8-6.04-.98-6.57-2.92-1.02-3.78-4.02-4.45-6.72-4.89-2.59-.42-3.47-1.83-4.61-3.68-.57-.94-1.71-1.99-2.72-2.44-2.21-.97-4.54-1.4-6.74-2.38-3.66-1.65-7.2-3.76-10.87-5.3-3.39-1.42-6.89-2.35-10.46-3.53.08-1.39.17-2.88.27-4.41,2.03-.4,4.7,2.87,6.61,1.24,0-.37-.02-.75-.03-1.12-2.74-.67-5.48-1.35-8.22-2.01-.61-.14-1.59-.05-1.76-.31-2.07-3.15-4.37-2.17-6.8-2.39-1.5-.13-3.2-1.47-4.84-2.1-1.93-.75-3.89-1.48-5.83-1.92-3.48-.8-7.02-.52-10.31-3.55-.47-.43-1.64-.03-2.41-.36-2-.87-3.95-1.93-5.91-2.91.06-.39.12-.77.18-1.16,4.72,1.52,9.45,3.03,14.17,4.55.07-.39.14-.79.21-1.18-2.25-1.23-4.51-2.46-6.76-3.69.1-.26.2-.53.29-.79,3.36,1.19,6.83,1.91,9.69,4.9,3.08,3.21,6.59,3.56,9.81,3.04,2.68-.43,4.98.4,7.55,1.96,1.26.77,2.75,1.07,4.13,1.62.89.36,1.77.78,2.65,1.18-.48.54-.96,1.08-1.7,1.9,6.9.18,13.28,4.5,20.08,7.7-2.57-2.76-7.07-4.33-5.73-8.71-3.09-.21-5.72,1.35-8.22-1.87-.04-.96-.09-1.98-.12-2.69-1.68.35-3.09.65-4.61.96-.63-3.51-2.48-4.94-5.79-5.05-.91-.03-2.42-.38-2.89-.98-2.86-3.66-6.56-5.78-10.64-7.45-.65-.27-1.16-1.09-1.82-1.49-1.23-.74-2.71-1.16-3.74-2.07-3.49-3.1-5.85-2.11-8.47-.75-.81.42-2.98-.05-3.94-.82-3.29-2.66-5.03-1.18-7.16.08.75.76,1.44,1.47,2.64,2.7-1.47-.37-2.48-.37-3.21-.85-3.87-2.52-7.52-2.08-11.24-2.41-.72-.06-1.57.02-2.16-.36-.76-.48-1.32-1.34-1.97-2.04.67-.31,1.34-1.01,2.01-.84,1.82.47,3.36.85,3.86-1.53-1.8-.56-3.42-.99-5.01-1.59-1.04-.39-2.03-1.04-3.05-1.57.03-.3.07-.6.1-.9-.53.06-1.15.36-1.58.13-3.5-1.81-6-2.19-6.18,1.81-.02.51-1.36.63-2.09.93.02.3.05.6.07.9,1.4.3,2.81.6,4.93,1.05.81,1.9,2.04,4.57,3.06,7.24.69,1.8-1.7,2.39-5.11,1.02,3.16-3.76,1.57-6.43-4.16-8.88-2.06-.88-5.02-3.11-3.49-6.2-.31-.2-.61-.41-.92-.61-1.82.44-3.67.81-5.44,1.34-1.7.51-3.25,1.3-5,1.7-.69.16-1.99-.18-2.58-.72-.56-.51-.88-1.75-.68-2.34.19-.54,1.2-.69,1.9-.94.23-.08.75.23.91.12,3.19-2.27,7.4-2.37,12.07-1.52-.05-.45-.09-.89-.14-1.34-1.34-.49-2.73-1.25-4.01-1.4-1.96-.22-3.84-.01-6.29.02.85-1.62,1.31-2.5,1.78-3.38-1.54-.55-3.12-1.37-4.61-1.59-1.84-.27-3.64-.11-5.41,0-.46.03-.74.57-1.57,1.27,3.12.61,5.56,1.08,8,1.56.11.39.22.79.33,1.18-1.6.13-3.19.66-4.81.29-2.99-.69-5.99-1.91-8.99-2.91-.63-.21-1.36-.67-1.88-.61-1.9.24-4.56.02-5.38,1.14-1.2,1.63,1.49,3.32,3.04,4.77.55.51,1.19.94,2.28,1.79-2.3.38-4.19.7-6.14,1.03.12-1.48.21-2.68.34-4.24-4.06.61-3.82,3.25-3.68,6.11,3.58-.32,7.1-.64,11.22-1.01-1.19,4.08-6.05,1.6-8.28,3.42.7.41,1.37.8,2.58,1.51-2.35.73-3.71,2.59-7.21.47,1.28-.44,2.22-.77,3.3-1.14-4.15-2.36-5.42.38-7.07,3.03-.4.65-.96,1.21-1.51,1.75-.04.04-.99-.57-.97-.69.11-.87.33-1.7.57-2.51.41-1.4,1.16-2.71,1.13-4.21,0-.48-2.55-2.25-2.98-2.06-1.97.85-3.61,2.18-5.37,3.34.26.33.52.66.79.99,1.31-.38,2.62-.76,3.94-1.14.2.24.41.49.61.73-1.4,1.11-2.79,2.22-4.38,3.48-3.3-2.1-4.36-1.82-4.79,1.61-2.78-.09-5.93-.88-7.97-.04-1.75.71-2.23,3.29-3.44,5.32-.62-.25-1.94-.78-3.29-1.33.05,2.02.1,3.88.16,5.99-3.69-2.56-3.4,1.15-5.78,1.21,1.36-1.75,2.73-3.5,4.09-5.25-.29-.23-.58-.45-.87-.68-2.79.32-3.26,2.78-3.92,4.82-.9,2.79-2.53,4.81-4.93,6.43-.71.48-.31,2.21-.44,3.59-2.6-1.01-2.83,1.08-3.57,2.98-1.39,3.6-3.34,6.9-4.74,10.5-1.29,3.33-1.87,7.05-3.31,10.29-1.24,2.8-2.37,5.94-7.04,6.5,1.31-4.26,2.42-8.25,3.77-12.11,1.51-4.31,3.08-8.6,4.92-12.73,1.76-3.96,2.05-8.88,6.22-11.53-.27-.69-.6-1.54-1.01-2.6,2.84.36,4.87-.14,4.96-3.34-1.07.4-1.82.69-3.45,1.3.47-1.31.46-2.31.95-2.48,5.14-1.73,6.84-5.74,6.79-11.01,0-.63.35-1.17.59-1.92,1.82,1.05,3.48,2.01,4.82,2.78-.2-1.62-.91-3.53-.48-4.87.41-1.29,1.86-2.16,3.11-2.92,1.29-.79,2.26-1.29,1.26-3.48-.52-1.13.7-2.49.94-3.82.33-1.8.61-3.63.64-5.52.02-1.25-.43-2.63-.72-4.23-.53-.02-1.6-.33-1.77-.04-1.99,3.4-6.15,1.13-9.51.94-.77-.04-2-.21-2.16.17-1.46,3.32-2.73,6.76-4.07,10.15-.18.46-.48.85-.72,1.28-.9,1.65-2.25,3.12-2.57,5-.36,2.05-1.41,2.51-3.43,2.25,3.04-1.69.34-5.36,1.06-7.74.24-.79.14-1.76.5-2.45.96-1.83,2.05-3.58,3.16-5.31,1.27-1.99,2.64-3.92,3.89-5.92.4-.64.58-1.43.98-2.46-1.06-.16-1.74-.29-2.4-.35-2.12-.2-3.16-1.38-2.86-3.07.33-1.89-.08-2.93-2.56-3.38-.61-.11-1.29-1.16-1.98-1.73-.77-.64-1.57-1.23-2.37-1.84-.18.78-.58,1.53-.49,2.36.13,1.35.42,2.76.94,4.12.84,2.2,1.93,4.39,2.69,6.09,1.75-.07,3.14-.12,4.52-.17-2.14,3.52-6.5,1.36-10.79,1.23,1.55,1.09,2.33,1.64,3.46,2.44-1.29,1.28-2.47,2.44-3.9,3.86-.5-2.13-.88-3.78-1.31-5.64-3.35,1.39-2.97,3.67.87,7.47-1.17,3.59-2.35,7.24-3.61,11.11-1.57-1-2.87-1.83-4.24-2.7,1.82-1.68,1.04-3.91-2.16-6.58.53-.68,1.07-1.37,1.27-1.64-1.94-1.31-3.5-2.41-5.11-3.43-.63-.4-1.47-.89-2.03-.85-3.32.25-2.61-1.53-2.6-3.18.01-1.21-.27-2.5-.42-3.75l-.87-.41c.79-.29,1.58-.57,1.96-.71-1.01-1.13-2.09-2.33-3.47-3.87,1.6-.37,2.59-.59,3.71-.85-.09-.82-.18-1.66-.27-2.5,3.26.66,3.5,1,3.69,5.62.84-.26,1.86-.27,1.94-.66.76-3.62,1.36-7.3,1.55-11.19-2.33.69-.42,4.7-3.97,4.13-.5-.08-1.06-.68-1.66-1.07,1.42-.96,2.25-3.7,3.08-9.99,2.4,3.75,4.09.41,5.64,1.68,1.34,2.11,2.92,4.17,3.94,6.34.96,2.03,1.34,4.17,1.91,6.04.59-.39,1.57-.91,2.39-1.6.42-.35.89-.98.74-1.5-1.23-4.42,1.61-7.4,1.55-11.6.58.73,1.17,1.45,2.28,2.83.49-2.71.87-4.87,1.37-7.65.65,1.31,1.34,2.2,1.43,3,.2,1.71-.43,3.87,2.09,4.66,2.03.63,4.39.42,6.17-.14,2.15-.67,3.94-2,5.67-3.27.59-.43.52-1.56.75-2.34.78.61,1.74,1.35,3.16,2.46-.15-1.44-.24-2.31-.37-3.59,3.08,2.68,1.76,4.56,1.57,6.53-.13,1.37-.44,2.68-.42,4.09,0,.43.8,1.28,1.35,1.55.41.2,1.23-.09,1.48-.44.68-.97,1.45-1.99,1.62-3.2.16-1.18-.38-2.62-.58-3.82,3.12-2.69,7.5.83,12.04,1.05-1.15.76-1.87,1.24-3.02,2,1.08.32,2.31,1.03,2.94.8,1.1-.39,1.84-1.35,2.93-2.23,1.33,1.27,3.38,2.33,5.3.78.23-.19.93-.25,1.09-.09,2.66,2.59,4.99,1.08,7.47,1.52,2.1.37,4.35-.25,6.32,2.26.32.4,2.03.59,2.59.26,3.2-1.88,7.08,1.54,10.35.71-.28,1.85-.46,3.09-.7,4.69,4.93-.06,7.94-1.06,10.55-3.67,1.68-1.68,3.76-4.94,8.57-2.68.7.33,2.32-.76,2.68-1.65.25-.62-.86-2.05-1.5-3.07-.32-.52-.95-.93-1.1-1.08.39-1.47.58-2.75,1.1-3.82.19-.4,1.22-.6,1.8-.39,1.84.66,3.76,1.35,5.45,2.41,2.27,1.43,4.28,3.01,4.61-.37.02-.18.16-.31.24-.46.47-.9.94-1.8,1.41-2.7-1.55-.81-3.09-1.9-4.67-2.36-1.96-.58-4.19-1.53-5.23.79-.25.55-3.03-.16-4.62-.66-1.82-.57-3.59-1.65-5.41-2.31-2.21-.8-3.45-1.77-2.29-3.84-1.21-.86-2.39-1.7-4.01-2.86.14,1.55.23,2.6.33,3.65-.25.13-.49.25-.74.38-1.17-1.16-2.35-2.31-3.84-3.78-2.62,1.05-6.94,1.07-6.76,5.79-.27.02-.54.03-.81.05-.54-1.25-1.08-2.51-1.91-4.44-.45,1.04-.84,1.9-1.19,2.79-.43,1.09-1,2.14-1.15,3.34-.06.48.73,1.34,1.28,1.93.49.53,1.17.93,1.76,1.39-.68.14-1.34.53-2.04.39-3.98-.83-3.92-4.08-4.79-6.35-.86-2.24-.66-4.58-.91-6.77-2.07-1.83-4.13-3.66-6.55-5.8.52-2.51,3.77,1.49,4.82.03-1.82-3.35-4.02-4.07-6.24-2.31-.66.52-2.51.63-3.28.1-5.09-3.56-9.82-4.49-14.54-2.96-.7.23-1.87-.31-2.83-.49-.05-.61-.15-.94-.07-.97,3.77-1.24,5.66-4.2,7.79-7.03,1.07-1.41,2.88-2.35,4.63-3.12,1.71-.76,1.65-2.02,1.05-3.74-.63-1.81-1.13-3.63-1.69-5.44.29-.01.58-.03.87-.04.18.58.17,1.34.56,1.7.86.79,1.95,1.7,2.91,1.92.58.13,1.56-.83,1.58-1.52.06-1.88.62-2.47,2.98-1.86,1.57.4,3.15-.31,5.07-.02-.26.25-.45.62-.79.74-3.73,1.4-3.75,1.51-.34,5.17,1.9,2.04,3.57,2.17,4.46.2.52-1.15.74-2.48.9-3.05,2.85.46,5.08.61,7.3,1.24,2.48.7,4.97,1.77,7.42,2.85.48.21.77,1.21,1.32,2.14-2.9-1.03-5.21-2.07-7.49-2.56-1.12-.24-2.18.57-3.27.91,1.07.81,2.08,1.83,3.23,2.37,2.23,1.05,4.55,1.82,6.82,2.74.39.16.79.44,1.1.74,1.32,1.29,2.63,2.58,3.88,3.93.41.45.62,1.04,1.17,2-2.89-1.02-5.46-2.42-7.77-2.59-2.23-.16-4.18.95-6.26,1.49.26.63.52,1.26.78,1.89.58-.26,1.11-.62,1.76-.75,5.24-1.1,10.57,2.11,15.84,3.95.39.14,1.12,1.9.85,2.3-.84,1.24-2.08,2.19-3.17,3.26,2.77,2.01,4.93,2.08,6.74-.04,2.27,4.23,5.46,5.5,9.73,4.64-.87-.73-1.38-1.28-1.98-1.65-1.81-1.1-3.5-1.9-2.86-4.27.35-1.31-.65-3.15-3.08-3.43-.9-.1-1.86-.6-1.97-.64-1.01-2.07-1.76-3.6-2.51-5.14-1,.63-1.99,1.25-3.06,1.93-1.78-1.93-3.98-4.14-5.89-6.52-.51-.64-.42-1.99-.04-2.63.27-.46,1.61-.65,2.27-.33,3.56,1.78,7.06,3.75,10.58,5.66,1.01,1.75,1.96,3.52,3.05,5.25.44.69,1.18,1.28,1.78,1.91.45-.58.91-1.17,1.89-2.43,1.03,1.76,1.68,3.11,2.57,4.34.8,1.12,1.86,2.12,2.8,3.17.73-.73,2.2-1.39,2.05-2.21-.44-2.31-1.55-4.67-2.39-7.02-.32-.02-.63-.05-.95-.07-.29.47-.57.94-.54.88-1.58-.47-2.81-.75-4-1.21-2.11-.81-4.21-1.74-6.31-2.61ZM341.81,424.58c-.23-1.46-.46-2.92-.73-4.68-3.27.52-2.73,2.45-2.12,4.72,1.11-.01,2-.02,2.89-.04.33,1.41,1.15,3.05.84,4.17-.3,1.09-1.76,1.64-2.71,2.43,5.48-1.65,5.88-3.85,1.83-6.6ZM115.74,66.27c2.1-1.01,2.35-2.65.78-5.17-2.11,1.16-3.96,2.17-5.8,3.18.95.46,1.71.15,2.43.39.91.31,1.77,1.06,2.65,1.62-2.51.43-3.99,1.55-2.78,4.74,2.85-.51,4.06-1.79,2.72-4.75ZM315.11,437.38q1.09,3.87-2.73,3.36c.54,1.04,1.06,2.04,1.82,3.51,1.18-1,2.1-1.79,3.09-2.63,1.57,2.17,3.09,4.16,5.73,3.75-.67-1.45-1.27-2.76-1.88-4.08-.86-.2-1.73-.4-2.72-.63.41-.72.71-1.24.79-1.39-1.51-.68-2.83-1.27-4.15-1.87-.09-1.77-.18-3.54-.28-5.52-1.84.16-3.62.31-6.03.52,1.04,1.93,2.02,3.73,2.94,5.44,1.38-.18,2.4-.31,3.43-.45ZM336.9,344.8c.54,3.59,2.98,8.18-3.19,8.59,2.04.6,3.98,1.04,5.53.71,2.67-.57,4.65-1.94,3.67-5.57-.74-.58-1.67-1.43-2.71-2.07-1.07-.66-2.24-1.11-3.37-1.65.54-1.06,1.08-2.12,1.62-3.17-1.24-.03-2.58-.24-3.68,0-.39.09-.55,1.45-.2,1.93.43.58,1.52.84,2.33,1.24ZM360.99,316.05c1.08.47,2.17,1.1,3.22,1.29.3.05.48-1.19.71-1.83-.26-.2-.51-.41-.77-.61-1.05.4-2.11.8-3.16,1.21-.61-.51-1.2-1.07-1.84-1.53-1.91-1.35-3.4-2.63-1.37-4.14.46-.34.52-1.1.84-1.61,1.64-2.59,1.35-3.28-2.14-5.52-6.21,2.33-.82,8.78-1.86,13.15,1.27.66,2.55,1.33,3.56,1.86,1.09-.88,1.94-1.58,2.8-2.27ZM240.57,88c1.71-.18,3.12-.55,4.62-.44,3.31.26,4-.86,2.16-3.93-.41-.69-.74-1.41-1.22-2.35,5.31,2.18,6.38,3.46,7.7,9.17-1.43-.31-2.78-.6-4.13-.89,1.43,1.81,3.02,3.39,4.85,4.39,1.95,1.06,4.12,1.56,6.86,2.54-4.57,1.14-4.5,2.19-.9,5.5,1.61.31,2.69.43,3.76.77.31.1.58.82.92,1.33-.41.27-.73.43-.99.64-.31.25-.57.55-1.5,1.47,2.87.6,4.87,1.01,7,1.45-1.09-2.58-2.06-4.51-2.62-6.43-.19-.65.47-1.77,1.09-1.85,1.77-.22,3.76.13,5.57,0,1.94-.14,2.84.41,2.73,2.34-.02.35.27.79.55,1.57.55-1.3,1.15-2.15,1.25-3.17.05-.55-.59-1.57-1.19-2.04-1.32-1.04-2.76-1.99-4.23-2.73-1.47-.74-3.11-1.53-4.54-1.65-2.21-.18-5.48-1.84-6.21-3.67-.68-1.71-1.29-3.42-1.9-5.04,1.09.56,2.46,1.4,3.88,1.92.71.27,1.87.24,2.17-.16.29-.38-.03-1.62-.52-2.1-.54-.54-1.59-.66-2.42-.94-.99-.33-2.75-.63-2.86-.96-1.07-3.44-3.49-3.16-6.61-3.54.85,1.64,1.61,2.86,2.08,4.1.31.84.2,1.72.27,2.57-.88-.56-2.01-.98-2.59-1.71-2.02-2.53-3.73-5.23-5.79-7.74-.9-1.1-2.34-1.89-3.54-2.82-.4.08-.79.16-1.19.24,4.5,3.81.62,6.08,2.08,9.57-1.14-.65-1.9-1.08-2.38-1.36-1.03.85-1.9,1.56-2.93,2.4.17.85.41,2.02.72,3.53ZM197.12,68.66c1.73-.48,2.82-.79,4.47-1.24-.7,1.91-1.11,3-1.45,3.91,4.91,3.27,9.58,5.19,14.51,4.38-.32-.94-.66-1.95-1.01-2.98q5.26.21,3.97-2.85c-.78.06-1.56.34-2.33.13-.79-.2-1.58-.88-2.38-1.34.59-.36,1.09-.89,1.79-1.03.81-.17,1.78,0,2.69.02-.05-.23-.11-.46-.16-.68-1-.35-2.01-.69-3.22-1.11-.29-1.63-.56-3.18-.78-4.41,2.46.53,4.46.97,6.46,1.4.07-.49.14-.98.21-1.47-1.37-.67-2.73-1.56-4.11-1.95-.98-.27-1.96.27-2.99.2-1.38-.1-3.32-1.05-3.29.89.01,1.04.88,2.3,1.43,3.62-1-.39-2.25-1.08-3.44-1.27-1.32-.21-2.56.26-3.88.05-4.9-.78-6.35-.08-7.21,4.1-.11.53.62,1.41.73,1.63ZM233.44,57.01s-.31.1-.61.08c-1.27-.12-2.55-.27-3.82-.41.04-.94,0-1.91.12-2.82.45-3.27-1.89-5.91-5.71-6.62-1.19-.22-2.41-1.08-3.64-1.48-1.12-.37-2.32-.69-3.36-.66-.33.01-.48,1.74-.32,1.84.95.56,2.08.74,3.03,1.31.96.57,2.16,1.36,2.6,2.2,1.12,2.12,1.94,4.32,2.75,6.5.81,2.16,1.95,3.25,4.35,2.94.67-.09,2.54,1.01,2.58,1.37.42,3.54,3.75,5.21,6.42,7.62.97-3.5,3.88.42,5.93.49-1.8-5.2-5.55-8.83-10.33-12.36ZM136.77,20.74c.08,1.11.16,2.3.25,3.49,1.06.12,2.11.24,3.17.35.5.05,1.07-.1,1.48.14,3.44,1.98,6.23,1.31,8.92.41.61-.2,1.37-1.23,1.21-1.46-1.83-2.44-3.55-5.1-5.87-7.06-1.8-1.52-2.37.49-3.15,1.48-.33.42-1.22.37-1.79.63-1.32.59-2.6,1.25-4.2,2.02ZM326.68,380.79c-.43.55-1.37,1.22-1.58,2.19-.17.8.51,1.97.81,2.98.74-.18,1.69-.15,2.17-.57,1.02-.91,2.02-1.92,2.58-3.15.39-.87.37-2.22-.1-3.26-.26-.58-1.81-.97-3.05-1.57,1.43-1.32,2.77-2.55,4.11-3.78-.21-.2-.41-.4-.62-.6-.85-.08-1.71-.16-3.25-.31.89-1.99,1.61-3.58,2.32-5.18-.2-.21-.41-.42-.61-.63-2.47,2.27-4.93,4.55-8.01,7.38,1.16,1.44,2.95,3.66,5.23,6.5ZM297.95,129.54c2.19-4.43,1.52-5.75-3.08-7.88-.2-.09-.42-.16-.63-.21-1.92-.53-3.07-1.5-3.6-3.48-.2-.72-1.72-1.62-2.74-2.16-1.35-.71-2.81-1.14-4.66-1.86.01.22-.02.92.1,1.65.15.87.44,1.76.67,2.64-1.03-.1-2.07-.01-3.09-.33-2.22-.7-4.41-1.67-6.63-2.36-.44-.14-.94.48-1.41.75.56.43,1.1,1.02,1.7,1.26,1.42.57,3.35.62,4.23,1.53,2.81,2.92,4.71,2.75,7.04,1.21.82-.54,2.82.07,4.26.52.32.1.52,1.78.83,2.92,2.91.23,6.27.5,7.03,5.8ZM195.04,495.17c1.33.26,2.19.57,2.92.53,5.13-.25,10.31-.38,15.32-.94,4.45-.5,8.72-1.44,12.98-2.35.78-.17,1.35-1.04,1.63-1.79.11-.3-.82-1.58-1.23-1.66-.82-.16-1.77-.01-2.37.36-3.78,2.35-7.4,4.91-13.56,1.96-.35-.17-1.04.71-1.53,1.13-.25.21-.41.51-.72.9-.84-.66-1.57-1.22-2.45-1.91-.89,1.77-2.08,2.32-4.59,1.9-2.05-.34-5.28-1.36-6.4,1.84ZM204.75,421.12c1.1-1.42,1.98-2.26,2.48-3.32.18-.39-.66-1.89-.8-1.9-2.16-.11-2.39-2.02-3.54-3.04-1.6-1.42-3.68-2.72-5.58-3.28-.75-.22-2.3,1.59-2.22,2.73.12,1.91,1.21,4.03,1.97,6.05.71,1.86,2.03,1.93,2.8.97,1.54-1.92,2.95-1.22,4.89,1.8ZM342.44,380.61c1.29-.23,2.21-.39,3.15-.56.06-1.98.11-3.85.16-5.71-.19-.07-.38-.14-.56-.21-.64.72-1.28,1.45-2.43,2.74-.47-2.29-.55-3.82-1.15-5.31-.67-1.64-1.82-3.22-2.75-4.83-.82,1.1-1.98,2.03-2.36,3.34-.37,1.26.05,2.9.09,3.54,2.06,1.6,3.7,2.88,5.33,4.15-1.43,1.18-2.85,2.36-4.55,3.77,1.78.74,3.96,1.65,6.83,2.85-.84-1.81-1.23-2.64-1.75-3.78ZM50.18,381.12c.42-1.06,1.32-2.37,1.45-3.93.13-1.48-.42-3.23-.99-4.85-.07-.19-2.51-.74-3.19-.33-2.72,1.65-2.07,9.42.96,12.33.72.7,2.18,1.41,2.9,1.28.98-.18,1.57-1.17,2.33-1.81-.97-.76-1.94-1.51-3.45-2.69ZM288.37,111.51c.05.23.1.45.15.68,2.55,1.81,5.02,4.31,7.69,5.27,3.72,1.34,4.24,4.71,7.06,6.88.14-.9.24-1.54.38-2.46,2.34,1.14,4.51,2.24,6.7,3.26.56.26,1.49.55,1.71.34.36-.34.52-1.11.32-1.68-1.05-2.97-5.55-5.73-8.55-5.26.35.66.69,1.31,1.42,2.69-3.35-2.23-5.95-3.95-8.53-5.7-1.65-1.11-3.22-2.41-4.94-3.32-1.02-.54-2.26-.49-3.41-.71ZM322.85,368.68c-4.04-1.31-2.3-3.22-2.39-5.64-1.4.43-2.79.87-4.3,1.33l-1.87-1.46c-1.03.4-2.23.5-2.75,1.15-.74.93-.97,2.26-1.42,3.42,1.19.63,2.37,1.36,3.59,1.86.77.32,1.71.07,2.4.47,3.92,2.28,4.93,2.18,6.75-1.13ZM36.16,200.46c-1.31.12-3.97-.26-4.21.53-.54,1.74.13,4.07.39,6.18,0,.07.85.27,1.48.47-1.7,1.68-2.1,3.77.09,6.01.99,1.01,2.86,1.31,3.97,1.78-.16-2.84-.18-4.93-.43-7.06-.28-2.39-.78-4.82-1.29-7.91ZM317.26,82.27c-1.1-.54-1.91-.94-2.73-1.34-.06.66-.22,1.3-.17,1.99.07,1.13.27,2.29.45,3.68.96-.1,1.63-.16,2.23-.22,2.08,3.35,1,6.8,3.88,10.22.68-.87.94-1.61,1.53-1.89,1.98-.93,1.31-2.74.46-4.49-1.45-2.99-3.09-5.94-4.69-8.97-.24.26-.63.68-.96,1.03ZM233.44,414.99c.03.69-.14,1.34.11,1.95,1.17,2.81,10.15,6.72,12.34,5.36.35-.22.59-.93.39-1.32-.19-.38-1.17-.97-1.5-.89-3.41.78-3.66-1.21-3.96-3.57-.11-.88-1.37-2.73-1.51-2.71-1.97.24-3.83.72-5.87,1.18ZM360.92,146.59c-.18.19-.35.39-.53.58,3.4,1.86,2.24,5.87,5.54,7.6.87-1.43,1.55-2.53,2.44-3.99-2.61-3.31-5.57-7.04-8.51-10.77q-4.54,2.32-1.82,4.09c.34-.44.69-.88,1.22-1.56,1.28,1.6,2.38,2.98,3.66,4.59-.9-.24-1.45-.39-2.01-.54ZM45.56,206.01c-.57,1.52-1.77,2.85-1.28,3.73,1.59,2.87.1,2.94-1.2,2.74.03,2.53.57,4.96-.05,6.79-.78,2.3.41,3.71,2.6,5.73.4-1.37.88-2.38.98-3.53.3-3.57.61-7.15.6-10.8,0-1.51.91-3.51-1.65-4.66ZM270.39,77.08c-.09-2.14-.06-3.8-.28-5.5-.07-.51-.96-1.61-1.24-1.61-2.47-.02-4.89.14-7.45.25,2.56,3.01,2.47,3.52-.78,3.48,1.67,1.3,3.03,2.36,4.66,3.63.37-2.63,2.42-1.5,5.09-.25ZM250.45,53.51c-.1-.28-.2-.57-.3-.85,1.4,1.09,2.81,2.19,4.3,3.35.6-1.07,1.38-1.69,1.28-2.43-.21-1.57.35-3.99-2.24-4.47-2.05-.38-4.25.37-5.87,1.26-1.16.64-1.48,2.35-2.17,3.58,1.67-.15,3.34-.29,5.01-.44ZM298.06,88.42c.19-.16.38-.31.57-.47-1.29-2.01-2.46-4.08-3.93-5.99-.58-.75-1.84-1.39-2.79-1.63-1.66-.42-3.34-.58-4.98-.68-.74-.05-1.39.3-2.08.47.63.67,1.19,1.43,1.9,1.99.7.55,1.96.78,2.29,1.34,1.51,2.6,3.34,2.75,5.3,2.08,1.33,1.04,2.52,1.97,3.71,2.89ZM41.2,242.11c.28-1.77.11-2.91.64-3.42.54-.52,1.72-.54,2.69-.55.95-.02,2.78.58,2.84.32.28-1.34.73-3.53-.04-4.19-1.26-1.09-4.6-2.12-4.96-1.61-1.38,1.92-1.99,4.44-2.71,6.82-.11.38.67,1.19,1.54,2.63ZM231.89,402.39c-3.75.13-5.54,1.77-4.5,3.64,1.01,1.8,2.02,3.63,3.26,5.33.55.76,1.66,1.26,2.52,1.88.46-.74,1.53-1.55,1.26-2.22-.79-1.96-2.11-3.86-3.49-6.26.11-.27.45-1.12.95-2.38ZM29.67,224.64c.32.34.65.68.97,1.02.45-.14,1.02-.16,1.32-.43,1.79-1.69,3.87-3.2,5.07-5.29.41-.71-1.45-2.92-2.27-4.44-.88.54-2.02.9-2.58,1.69-.51.72-.33,1.93-.56,2.88-.16.65-.5,1.22-.76,1.83-.39.92-.79,1.84-1.19,2.76ZM360.69,121.99c-.53,1.21-.78,1.64-.91,2.12-1.28,4.66.32,6.63,5.53,6.31,1.41-.09,2.19-1.96,3.25-3.02-.27-.33-.53-.65-.8-.98-1.19.3-2.38.59-3.47.86-.88-1.3-2.04-3-3.6-5.3ZM363.46,334.95c-.36-3.35-6.27-6.36-4.38-10.14-3.14-.87-3.19.96-3.41,2.42-.19,1.28-.51,2.94.23,4.02.78,1.14,2.72,1.86,4.21,2.63.85.44,1.79.59,3.35,1.07ZM381.07,343.85c1.16-.29,2.1-.35,2.08-.54-.33-2.24-.81-4.5-1.23-6.66-1.43.71-2.39,1.19-2.88,1.43-.74-2.42-1.33-4.34-1.92-6.26-.41-.04-.82-.08-1.23-.11-.2,1.87-.36,3.76-.62,5.62-.28,2.03.87,2.88,2.81,2.71,2.74-.24,3.84.7,3,3.82ZM284.78,99.23c-1.74,2.47-1.26,3.3,2.44,4.56,1.34.46,2.65,1.35,3.98,1.73.63.18,1.89-.53,1.85-.6-.9-1.68-1.7-3.5-3-4.95-1.52-1.69-4.45-1.91-5.28-.74ZM362.04,402.25c.05-.02.71-.31,1.41-.55.8-.27,1.63-.49,2.45-.73-.5-.77-1.01-1.55-1.37-2.11-2.72.15-5.13.28-6.63.36,1.04,3.06,1.78,5.26,2.77,8.2,1.2-.58,2.59-.86,3.19-1.72.28-.4-.98-1.93-1.82-3.46ZM348.05,355.87c-.68-.25-1.37-.51-2.05-.76-.95.59-2.11,1.01-2.78,1.82-.56.68-.74,1.78-.74,2.78,0,.88.2,2.1.83,2.77.52.56,2,.87,2.73.68.83-.21,1.63-.95,1.81-1.73.23-.98-.26-2.27-.26-3.38,0-.77.29-1.46.45-2.18ZM220.87,74.56c1.05,2.43,1.82,4.22,2.59,6l1.95-2.5c.2.06.52.23.81.24,1.34.04,2.98.45,3.93-.04,1.18-.6-.62-4.68-2.17-4.76.17.69.33,1.39.55,2.32-2.32-.38-4.48-.73-7.66-1.26ZM169.09,78.03c1.5-.28,3.29-.37,4.77-.93,1.76-.68,2.37-1.98-.03-4.02-1.21.54-2.34,1.05-3.5,1.57-3.7-3.71-4.05.44-6.36.42,1.89,1.09,3.49,2.01,5.13,2.96ZM316.01,161.78c-1.17-.91-2.16-1.81-3.25-2.51-3.45-2.21-6.9-4.41-10.42-6.47-.78-.45-1.9-.5-2.7-.38-.34.05-.51,1.4-.34,1.52.86.6,1.94,1.35,2.77,1.37,2.08.06,3.52.79,5.45,2.34,2.33,1.88,4.55,5.38,8.49,4.13ZM220.21,421.86c4.69,3.48,5.9-1.6,9.99-.51-2.28-2.73-4.22-5.02-6.65-3.59-1.52.9-2.27,2.72-3.34,4.09ZM343.94,339.01c1.25,1.8,2.29,3.29,3.12,4.49.91-1.38,2.26-2.64,2.66-4.32.26-1.1-.85-2.8-1.35-4.23-.68.05-1.7-.16-1.99.2-.96,1.19-1.66,2.58-2.43,3.86ZM143.23,68.51c2.05-.93,3.78-1.71,5.48-2.48-1.93-4.44-5.43-.8-7.94-3.23-.29-.28-2.7,1.27-4.13,1.98.24.35.48.71.71,1.06,1.37-.41,2.73-.81,4.34-1.29.51,1.31.94,2.42,1.53,3.97ZM57.72,384.04c-.52-1.1-1.18-2.84-2.19-4.47-.46-.74-1.61-1.25-2.45-1.87-.08.79-.55,1.71-.16,2.35,1.36,2.21,3.01,4.32,4.36,6.2,1.48.32,2.72.73,3.88.8.97.06,1.84-.3,2.75-.47-.14-.39-.28-.78-.42-1.17-1.69-.4-3.38-.81-5.78-1.38ZM272.61,63.05c-1.41,1.37-.45,3.45,1.47,5.3.75.73,2.49,1.28,3.35,1.08,2.32-.54,1.63-2.69,1.36-4.28-2.13-.73-3.95-1.35-6.17-2.11ZM394.28,230.4c.07-.21.14-.41.21-.62-2.21-1.88-4.41-3.75-6.24-5.3-.9,1.15-1.78,1.91-2.19,2.93-.33.83-.1,1.98-.12,2.99,1.03.14,2.23.58,3.04.35.92-.26,1.48-1.13,2.12-1.66,1.2.5,2.18.9,3.17,1.31ZM184.32,72.14c-.25-.3-.51-.61-.76-.91-1.81,1.54-3.67,3.03-5.38,4.66-.18.17.49,1.56.8,1.66,1.98.59,3.97.97,5.05,1.21.11-2.57.2-4.59.29-6.61ZM331.79,428.37c-1.28,1.27-2.64,2.62-3.99,3.96,1.58,1.45,2.94,2.7,4.36,4.01,1.13-1.03,2.27-2.07,3.39-3.09-1.16-1.51-2.24-2.91-3.76-4.88ZM329.45,354.32c-2.2,1.38-2.94,2.94-1.47,4.82,1.13,1.44,1.37,2.25.68,3.36-.21.33-.04,1.09.26,1.54.19.29,1.09.61,1.4.5,1.16-.44,2.59-.79,3.17-1.7.37-.58-.53-2.89-.96-3.03-3.03-.96-4.16-2.46-3.07-5.48ZM351.94,399.34c.26.3.52.61.78.91,1.44-1.42,3.15-2.67,4.2-4.36.4-.64-.73-2.33-1.27-3.85-.98.5-1.56.8-2.03,1.04-.6-.72-1.04-1.24-1.68-2,0,2.98,0,5.62,0,8.26ZM326.51,429.06q.91-4.08-4.97-7.01c-2.27,2.79-.98,4.68,4.97,7.01ZM46.03,277.3c-.22-.03-.43-.07-.65-.1-.45.84-.9,1.69-1.36,2.53,1.2.23,2.42.54,3.6.67.45.05,1.19-.24,1.19-.53-.04-2.11-.2-4.25-.45-6.41-.01-.13-1.1-.43-1.68-.65-.21,1.5-.43,2.99-.64,4.49ZM271,83.07c1.82.4,3.31,1.12,4.16.82,1.21-.42.03-5.31-1.54-5.87-1.32-.47-3.23-.01-4.05.79-.46.45.77,2.43,1.43,4.26ZM176.78,31.98c-.25-.51-.82-1.66-1.83-3.7-1.11,3.47-3.71,1.78-5.84,1.53-.79-.09-1.45.62-2.17.97.72.6,1.38,1.35,2.16,1.76,1.43.74,2.93,1.28,3.99,1.73,1.1-.69,2.14-1.33,3.68-2.29ZM358.23,120.81c.39-2.51-.22-3.12-3.42-2.92-.77.05-1.83-.38-2.37-.09-.78.4-1.32,1.19-1.72,1.96-.15.29.25,1.27.6,1.47.71.41,1.67.76,2.34.67,1.48-.19,2.84-.66,4.58-1.1ZM38.96,233.97c.85-2.75,1.7-5.48,2.65-8.55-1.76.34-2.92.46-3.95.79-2.26.73-1.3,6.34,1.31,7.76ZM47.71,283.22c-3.49.13-2.95,2.69-2.96,4.53,0,1.01,1.4,2.39,2.34,3.88,3-2.42.77-5.46.62-8.41ZM229.01,69.45c.74,1.09,1.29,1.94,1.92,2.75.03.04,1.08-.19,1.08-.44,0-.81-.12-1.71-.51-2.53-.19-.4-1.11-.94-1.6-.97-2.36-.15-4.68-.14-7.33-.2,3.38,6.02,4.6,1.38,6.43,1.38ZM287.23,421.64c.94-1,1.9-1.45,1.79-2-.43-2.16-.32-3.69,2.09-4.19.8-.17,1.01-1.52,1.49-2.33-6.13.39-6.51,2.16-5.37,8.53ZM254.86,412.38c-.92-1.01-1.76-2.54-2.8-2.95-3.32-1.31-4.45-.58-5.94,3.04,2.62-.03,5.24-.05,8.74-.09ZM361.5,386.4c.98-2.16,1.95-4.28,2.73-6-1.29-1.52-2.12-2.5-3.14-3.71-.57,1.08-1.69,2.03-1.56,3.19.22,2,1.21,4.12,1.98,6.51ZM257.49,120.59c.71,2.72,8.31,6.46,13.63,6.37-4.42-2.07-8.85-4.13-13.63-6.37ZM223.71,91.46c-.53-1.21-.72-2.2-1.34-2.89-.74-.81-2.24-2.03-2.74-1.9-1.29.36-2.21,1.36-3.27,2.11.52.49,1.02,1.25,1.56,1.41,1.61.48,3.23.73,5.79,1.26ZM212.9,46.81c-1.31.97-2.53,1.7-3.49,2.66-.44.44-.36,1.34-.51,2.03,1.01.29,2.27,1,2.99.78,2.36-.72,3.17-2.36,1.01-5.47ZM205.45,396.27c-1.95,1.36-5.54.86-5.18,4.33,5.98.76,7.45-.43,5.18-4.33ZM358.38,296.58c2.06-.39,3.35-.64,5.07-.97.19,1.67.32,2.92.49,4.44,2.39-2.51.71-5.86-3.91-8.32-.49,1.42-.96,2.83-1.65,4.84ZM230.91,395.76c-.23-.43-.47-.87-.7-1.3-1.92.27-3.92.4-5.72.9-.63.17-.75,1.25-1.11,1.91.93.39,2.19,1.27,2.74,1.06,1.74-.64,3.21-1.68,4.78-2.57ZM147.55,78.93c-2.58.41-5.14.82-7.69,1.22l.13.82c2.11,1,4.22,1.99,6.02,2.84.59-1.85,1.03-3.26,1.55-4.88ZM293.92,415.03c-.9,1.73-1.67,3-2.22,4.38-.15.38.14,1.25.53,1.6.36.32,1.2.42,1.69.32,3.19-.64,3.32-1.84,0-6.3ZM232.1,47.25c1.81,1.55,3.29,3.5,4.36,3.57,1.37.09,2.4-1.33,3.69-2.18-.83-.88-1.42-1.5-1.56-1.64-2.16.08-3.83.15-6.5.25ZM369.51,336.51l.82-.17c.28-3.03.55-6.05.83-9.08-.36-.16-.73-.32-1.09-.47-.75,2.53-1.59,5.03-2.16,7.64-.09.43,1.03,1.38,1.59,2.09ZM387.81,336.6c2.08,1.04,3.87,2.16,2.01,4.22,1.61.7,2.82,1.23,4.67,2.03-1.52-3.14-2.7-5.59-3.83-7.94-.74.43-1.7,1.01-2.85,1.69ZM102.59,61.8c-1.34,1.25-2.49,2.33-3.64,3.41,1.44.39,3.16,1.33,4.26,1.07,2.04-.48,1.02-2.19-.62-4.48ZM241.54,41.82c-1.76.56-3.05.98-5.14,1.65,2.51,1.68,4.17,2.78,6.55,4.37-.55-2.35-.88-3.77-1.41-6.01ZM250.67,57.13c.08.36.16.73.25,1.09,1.69.84,3.37,1.83,5.09,2.43.55.19,1.42-.54,1.75-1.11.18-.31-.52-1.66-.72-1.69-2.13-.34-4.25-.5-6.36-.72ZM374.05,371.05l-.87-.36c-.16,2.62-.31,5.25-.47,7.91,2.68.45,3.17-2.2,1.34-7.54ZM188.18,403.75c.12.38.23.77.35,1.15,2.03-.1,4.15-.02,6.04-.41.47-.1.22-1.65.33-2.71-2.57.76-4.64,1.36-6.71,1.97ZM306.31,95.2c-1.06-.41-2.44-.95-4.73-1.83,1,2.64,1.72,4.53,2.7,7.13.76-1.98,1.27-3.31,2.03-5.29ZM272.74,143.32l-.24,1.11c4.12,1.67,8.23,3.35,12.35,5.02.06-.28.12-.55.18-.83-4.09-1.77-8.19-3.53-12.28-5.3ZM348.85,351.29c.19.82.11,1.92.66,2.44.72.68,2.39,1.47,2.85,1.21.89-.49,1.22-1.68,1.9-2.78-2.16-.35-3.54-.57-5.42-.88ZM382.19,375.3c.4.09.8.19,1.21.28-.12-2.42-.23-4.83-.35-7.25-1.4,1.98-3.27,3.85-.86,6.96ZM215.18,38.54c-.31-.14-.62-.28-.93-.43-1.44-.13-2.94-.42-4.3-.34-.69.04-1.12.77-1.67,1.19,1.4.48,2.95,1.36,4.17,1.31,1.09-.04,1.83-1.12,2.73-1.74ZM309.22,425.85c-3.83-.71-5.88.63-5.54,3.44,2.11-1.31,3.82-2.37,5.54-3.44ZM334.24,384.1c-.31-.24-.62-.47-.93-.71-2.5.23-3.55,1.49-2.53,5.14,1.44-1.85,2.45-3.14,3.45-4.43ZM52.87,340.91c-1.9.7-1.72,2.02-.47,3.49.52.62,1.56.92,2.36,1.36-.23-1.08-.37-2.15-.71-3.23-.17-.51-.72-1.02-1.17-1.63ZM362.04,362.08c-.35-1.41-.57-2.31-.79-3.21-.73.21-1.89.19-2.08.7-.32.83,0,1.99.05,3.01.73-.13,1.46-.26,2.82-.51ZM53.21,271.05c-.34-.54-.68-1.08-1.02-1.62-1.27.23-2.53.47-3.8.7.59.84,1.17,1.68,1.76,2.53,1.02-.53,2.04-1.07,3.06-1.6ZM308.91,143.5c-.81-1.87-1.05-2.93-1.71-3.76-.51-.64-1.52-1.14-2.34-1.42-.41-.14-.89.35-1.34.55.5.66.91,1.44,1.53,1.97.92.79,2.01,1.4,3.86,2.66ZM332.18,175c-.02.18-.03.36-.05.54,1.58,1.35,3.15,2.7,4.9,4.2.46-.59.89-1.14,1.57-2.02-2.36-1-4.39-1.85-6.42-2.71ZM153.17,83.67c.16.5.32.99.48,1.49,1.43.07,2.87.2,4.25.13.12,0-.22-1.33-.34-2.04-1.46.14-2.92.28-4.38.42ZM295.75,459.6c-1.34,1.09-2.45,2-3.93,3.2,3.93,1.12,5.12.07,3.93-3.2ZM299.81,89.43c1.42.9,2.85,1.81,4.59,2.91-.27-3.43-1.29-4.14-4.59-2.91ZM277.43,108.6c1.08,2.05,1.95,3.71,2.82,5.36.26-.06.52-.13.78-.19.11-1.2.22-2.41.33-3.71-1.19-.44-2.28-.85-3.93-1.46ZM222.52,61.14c-.17.15-.33.31-.5.46.27,1.27.54,2.54,1.04,4.92,1.07-1.17,2.37-1.89,2.14-2.48-.39-1.01-1.74-1.94-2.69-2.9ZM294.17,142.21c-1.83.34-3.12.57-5.04.92,2.1,1.19,3.68,2.08,5.63,3.18-.23-1.58-.39-2.69-.59-4.11ZM295.64,424.52c.11.35.22.7.33,1.05,1.17-.07,2.5.09,3.42-.32.45-.2.15-1.47.21-2.84-1.84.98-2.9,1.55-3.96,2.11ZM233.37,81.6c1.11-.68,2.72-1.21,2.57-1.66-.38-1.12-1.57-2.2-2.44-3.3-.15.16-.3.32-.44.48.09,1.24.17,2.47.32,4.49ZM319.84,447.58c-3.88-3.08-3.94-3.08-4.73-1.03,1.11.87,2.13,1.66,3.16,2.47.44-.4.93-.85,1.57-1.43ZM55.34,340.88c.12-.21.25-.42.37-.64-.37-.55-.69-1.44-1.1-1.58-1.25-.44-2.54-.6-3.82-.86.29.57.48,1.43.91,1.66,1.16.62,2.42.97,3.64,1.43ZM247.42,470.89c-.27-.21-.55-.42-.82-.63-.61.31-1.46.47-1.76.99-.3.52-.06,1.39-.05,2.11.77-.12,1.79-.02,2.25-.44.43-.39.28-1.33.38-2.03ZM385.72,352.55c-1.49.74-2.4,1.19-3.48,1.73.13.84.31,2,.48,3.17.28.1.55.21.83.31.66-1.59,1.32-3.18,2.17-5.21ZM323.43,351.67c-.28.07-.56.13-.84.2.12,1.35.24,2.71.42,4.67,1.04-.56,2.38-.92,2.28-1.3-.32-1.18-1.2-2.37-1.86-3.56ZM71.29,351.32c-1.08.15-2.24.05-2.3.38-.12.65.15,1.9.66,2.26.61.42,1.64.15,2.49.19-.24-.79-.48-1.59-.85-2.82ZM330.25,149.94q-2.42,2.14,2.53,4.45c-.84-1.48-1.6-2.82-2.53-4.45ZM302.21,449.74c.98,1.49,1.77,2.7,2.78,4.24,1.46-2.94,1.11-3.46-2.78-4.24ZM350.45,346.67c-1.5.74-2.57,1.26-3.84,1.89,3.43,2.1,4.08,1.84,3.84-1.89ZM137.25,85.73c-.27-.5-.54-1-.8-1.51-1.2.23-2.41.45-3.61.68.35.5.87,1.44,1.03,1.43,1.17-.09,2.27-.37,3.39-.59ZM354.56,115.67c-3.1-1.69-5.1-1.17-5.05,1.2,1.66-.39,3.22-.76,5.05-1.2ZM309.05,136.02c1.33,1.88,2.52,4.45,5.69,2.8-2.28-1.12-3.98-1.96-5.69-2.8ZM370.13,361.64c-.47-.35-.95-.7-1.42-1.04-.63,1.32-1.26,2.65-1.89,3.97.24.14.48.27.72.41.87-1.11,1.73-2.22,2.6-3.33ZM367.76,308.7c-3.95-1.37-2.61,1.76-3.96,2.66.28.24.55.47.83.71,1.04-1.12,2.09-2.25,3.13-3.37ZM326.42,174.16c.15-.15.3-.29.45-.44-2.08-1.62-4.17-3.25-6.25-4.87-.13.16-.26.33-.39.49,2.06,1.61,4.13,3.22,6.19,4.82ZM124.05,70.8c.95-1.88,1.6-3.16,2.25-4.43-.29-.17-.59-.33-.88-.5-1.71.73-2.86,1.75-1.37,4.93ZM314.54,390.87c.03.32.06.63.09.95,1.61.27,3.21.54,4.82.82-1.85-3.14-3.29-1.39-4.91-1.77ZM326.74,434.89c-.4-.31-.81-.62-1.21-.93-.71.91-1.42,1.82-2.13,2.73.43.27,1.2.83,1.24.78.75-.81,1.41-1.7,2.09-2.58ZM273.51,89.36c.56,3.92,1.22,4.62,3.9,4.41-1.22-1.38-2.28-2.58-3.9-4.41ZM188.26,43.93c.3-.3.61-.59.91-.89-.91-.84-1.82-1.68-2.73-2.52-.3.35-.91.95-.85,1.01.84.84,1.76,1.62,2.67,2.4ZM252.19,68.06c-.34.12-.69.25-1.03.37.88,1.28,1.76,2.57,2.69,3.82.02.03.73-.27,1.12-.42l-2.79-3.77ZM246.27,57.94c-.48-.22-.97-.44-1.45-.66-.31,1.14-.62,2.29-.93,3.43.48.22.97.44,1.45.66.31-1.14.62-2.29.94-3.43ZM383.77,326.82c.5.12,1.01.23,1.51.35-.07-1.39-.15-2.78-.22-4.17-.43-.1-.86-.2-1.29-.3,0,1.37,0,2.75,0,4.12ZM281.57,89.39c-1.1.09-1.96-.03-2.44.29-.22.14.21,1.51.55,1.68.69.34,1.59.38,2.24.23.19-.04-.16-1.13-.35-2.2ZM311.01,452.24c4.33.81,4.36.79,3.97-2.4-1.28.78-2.34,1.41-3.97,2.4ZM398.01,282.05c-.08-.24-.16-.49-.24-.73-1.67-.18-3.33-.37-5-.55.1.37.2.73.3,1.1,1.65.06,3.29.12,4.94.18ZM153.17,70.55c-.33.22-.65.44-.98.66.65.89,1.3,1.78,1.95,2.68.5-.33,1-.66,1.51-.99-.82-.78-1.65-1.57-2.47-2.35ZM244.74,428.7c-.28.35-.57.69-.85,1.04.93.72,1.84,1.49,2.82,2.12.12.08.63-.57.97-.88-.98-.76-1.95-1.52-2.93-2.28Z"/>
  <path class="cls-1" d="M17.02,100.8c-2.22-1.26-3.53-2.65-2.09-4.31,1.13-1.31,2.51-.59,4.73,1-1.85-.1-2.95-.17-4.05-.23-.21.12-.43.25-.64.37,3.55,2.03,4.47,4.55,3.96,6.55,1.64.63,2.85,1.26,4.02,1.48.97.18,2.62.16,2.71-.29.46-2.38.85-4.86.54-7.42-.1-.86-2.29-2.54-3.61-2.98-2.34-.79-3.88-1.15-3.19-3.82.25-.98-1.07-2.68-1.72-4.05-.22-.47-.79-.95-.84-1.37-.41-3.34-2.62-6.78-1.7-10.14.41-1.52.93-2.18,2.34-2.56,1.19-.32,2.22-.91,3.72-1.55.34,2.85.82,5.7.98,8.49.11,1.96,1.65,3.49,3.73,3.33.75-.05,1.51-.11,2.48-.18.59,2.36,2.83,4.82-.22,5.94-.29.11-.22,1.41.13,1.75,1.99,1.88,2.9,3.64,1.71,5.54-.1.16.54.83.99,1.48.76-.53,1.37-.95,2.65-1.83-.45,1.77-.74,2.87-1.08,4.23,5.86.27,2.91,4.02,4.36,6.41,1.51-.1,3.01-.2,5.27-.35-.73.93-.92,1.63-1.39,1.71-2.92.48-5.86.94-8.87,1.19-3.37.28-3.44,1.16-3.31,4.48.05,1.31,1.08,4.32-1.89,4.53-.62.05-.95.92-1.37,1.45-1,1.25-1.97,2.52-2.76,3.53.63,3.54,1.24,6.97,1.84,10.41.02.1.03.23-.02.27-3.62,2.51-2.2,7.42-3.34,11.11-1.11,3.6-2.86,6.9-4.33,10.33,3.32,1.77-.1,2.26-.56,3.63.3.37.7.85,1.08,1.35,1,1.32,1.66,4.03,3.48,3.17,1.49-.7,2.14-2.99,2.36-4.86.31-2.58-.14-5.42-.26-8.15l.8-.15c.45.84,1.31,1.8,1.28,2.51-.11,3.08-.27,6.17-.82,9.09-.59,3.11-1.55,6.09-2.56,9.02-.28.82-1.13,1.55-2.02,1.76-.47.11-1.58-1.01-2.4-1.57.51-.75,1.03-1.5,1.78-2.59-1.66-.58-3.48-1.22-4.68-1.64-.37,3.01-.59,5.51-1.01,7.93-.48,2.76.3,3.8,3.73,4.77.5.14.99.74,1.43,1.41-3.08-.94-6.17.79-9.36-2.79.37-.67.78-1.3,1.1-1.99,1.09-2.38.87-4.79-1.28-7.71-3.24-4.39-3.01-5.37,1.15-7.44-1.78-2.18-3.43-4.43-5.35-6.48-2.14-2.29-2.18-2.91.03-3.83.95-.39,1.64-1.16,2.59-1.86.92,1.15,1.87,2.33,2.86,3.57,1.73-2.21,1.37-5.55-.57-8.21-.48-.66-.64-1.68-.47-2.33.07-.27,1.36-.06,2.11.08.47.08.96.42,1.98.64-3.29-4.03-1.24-6.89-1.04-10.77,1.39.89,2.6,1.68,3.83,2.45,1.02.64,2.06,1.24,3.1,1.87.31-.77.72-1.49.92-2.31.36-1.51.6-3.07.97-5.05-2.83-.92-4.15.45-5.19,2.3-.28-.14-.55-.28-.83-.41,1.06-4.17,2.03-8.37,3.21-12.48.46-1.61,1.01-2.7-1.75-4.04-2.34-1.14-1.87-3-.6-3.76,2.24-1.35,2.96-2.62.29-5.5-.76-.82-.18-2.62-.22-3.97.38-.05.76-.11,1.14-.16ZM23.72,88c.49.38.99.77,1.48,1.15.56-.71,1.2-1.37,1.59-2.19.07-.15-.91-.93-1.4-1.41-.56.82-1.11,1.63-1.67,2.45Z"/>
  <path class="cls-1" d="M86.04,138.18c-.11-.95-.12-1.9-.39-2.86-.13-.46-.72-1.02-1.2-1.32-.19-.11-.97.29-.98.61-.12,2.25-.11,4.54-.14,7.27,1.2-.44,1.72-.63,1.92-.71-1.47,6.17-2.61,12.59-4.55,18.61-1.56,4.84-4.08,9.2-6.18,13.77-.29.63-1.03,1.26-.84,1.88,1.66,5.36-2.43,8.14-3.01,12.48-.2,1.49-.62,2.92-1.01,4.34-.7,2.54-1.49,5.03-2.15,7.58-.25.97-.26,2.05-.37,3.08.29.09.59.18.88.27,2.67-5.88,5.33-11.76,8.22-18.13,2.85,5.19.93,7.72-1.44,10.06-.98.97-2.65,1.55-.81,3.84.39.49-.22,1.56-.41,2.34-.32,1.29-.67,2.56-1,3.84-.09.34-.02.94-.24.99-5.49,1.21-3.46,7.02-4.94,10.6-1.75,4.22-1.97,9.3-2.88,14.17-3.2-.02-4.12,1.04-4.1,4.69.02,2.68.27,5.51-.42,7.89-.55,1.92-2.35,3.26-4.13,4.88.36-2.43.56-4.92,1.1-7.26,1.23-5.32,2.62-10.57,3.94-15.85.11-.42.05-.99.32-1.26,3.38-3.44,3.6-8.28,3.47-13.31-.01-.54.48-1.2,1-1.34,2.06-.52,1.9-1.98.99-4.48-4.02,3.02-4.09,8-5.98,11.73-.31-1.87-.88-3.8-.85-5.58.02-1.43.86-2.62,1.17-3.99.45-2.01.77-4.07,1.09-6.13.09-.6-.18-1.36,0-1.9,1.84-5.15,3.75-10.27,5.64-15.39-.52-.36-1.04-.73-1.57-1.09-2.07,1.99-4.13,3.99-6.54,6.31-.64-1.24-1.41-2.74-2.34-4.53-2.47,2.33-1.78,6.55-4.31,8.54-.43-.21-.86-.42-1.3-.63.15-1.56.11-3.22.51-4.67.35-1.26,1.17-2.3,1.82-3.42.74-1.29,1.33-2.84,3.86-1.3.26.16.7.25.91.16,2.32-.95,4.62-1.94,6.45-2.71-.33-1.76-.59-3.11-.94-4.98-.19-.28-1.45-1.47-1.33-2.12.18-.98,1.32-1.58,2.05-2.34.57,1.11,1.54,2.28,1.64,3.31.2,2.03.28,3.78,3.18,4.07,1.16-4.04,2.3-7.97,3.43-11.91-.27-.15-.55-.31-.82-.46-.33.34-.58.96-1.01.96-1.44,0-2.94-.2-4.42-.33-.06-1.04-.44-2.26-.11-3.09.96-2.42,2.21-4.69,4.03-6.7.56,2.48,1.11,4.96,1.67,7.44.42.09.84.18,1.25.27.31-1.97.62-3.94.94-5.92.87-1,2.99-1.34,1.39-4.2-.24-.44.46-1.16.78-1.71.34-.58.75-1.12.62-2.08-1.35.37-2.7.74-4.05,1.1-.15-.19-.29-.38-.44-.57.33-.42.86-.77.95-1.29.18-1,.55-2.21.05-3.12-1.37-2.48-1.49-4.41-.13-6.19.6-.79.71-1.95,1.15-2.88.41-.86.96-1.63,1.44-2.44.3.19.6.38.91.57-.33.75-.67,1.49-1.04,2.32,2.31,1.21,3.7,1.31,4.15-.98.53-2.76,1.53-5.33,2.13-8.06.13-.58-.63-1.5-.83-2.25-.27-1.02-.38-2.03-.56-3.04.91.18,1.98.12,2.68.62.9.64,2.06,1.83,2.15,2.63.42,3.88.52,7.7.74,11.54-.29-.07-.58-.15-.86-.22Z"/>
  <path class="cls-1" d="M55.49,304.44c1.37,1.07,2.78,1.9,3.77,3.01,1.02,1.15-1.48,7.88-2.83,8.05-.35.04-.79-.16-1.6-.34,1.81-2.61.15-5.44-1.06-8.36-.68-1.64-.28-3.42-.32-5.12-.04-1.68.04-3.34-.05-5.04-.15-2.84-.34-5.7-.6-8.56-.36-3.9-.85-7.83-1.2-11.73-.09-1.03.03-2.04.24-2.98.32-1.4,1.03-2.66,1.14-4.12.11-1.42-.34-3.01-.99-4.67-.29,2.22-.58,4.44-.87,6.66-.48-.12-.95-.24-1.43-.36-.13-2.16-.31-4.33-.38-6.48-.06-1.73-.16-3.49.08-5.11.2-1.38,1.13-2.5,1.26-3.9.27-2.83.18-5.78.29-8.66.34-8.35,1.16-16.59.9-25.07-.17-5.45-.16-10.83-.21-16.24-.02-2.11-1.15-4.49-1.66-6.75-.62-2.7,0-3.09,2.66-1.48,2.25,1.36,3.6,1.03,4.77-.33.47-.54,1.17-.89,1.85-1.39,2.17,4.12.53,9.7-1.21,10.16-.23,1.54-.36,2.66-.57,3.73-.68,3.43-1.39,6.85-2.11,10.26-.07.35-.53.68-.4.95,2.53,5.39-.69,9.35.19,14.44.56,3.28-.96,6.3-1.39,9.49-.44,3.25-.72,6.55-1.01,9.85-.03.39.31.91.57,1.63.93-.38,1.65-.67,2.89-1.18.21,2.82.49,5.32.57,7.77.13,4.19.96,8.73-.02,12.43-1.35,5.06-.85,10.55-1.13,15.85-.24,4.45-.1,9.01-.14,13.62Z"/>
  <path class="cls-1" d="M316.27,409.58c1.31.24,2.41.43,3.5.63.19.29.38.58.57.86-3.53,2.27-7.06,4.54-10.83,6.98-3.4-3.85-4.55-1.27-6.31.35-1.14,1.05-2.86,1.55-4.32,2.3-.35-.36-.7-.73-1.05-1.09,1.36-2.36,2.72-4.72,4.22-7.34-1.12-.54-1.96-.94-2.72-1.3-.27.24-.45.32-.51.47-.5,1.23-.54,3.31-1.55,3.55-3.61.84-7.88-.54-9.13-2.65-.4-.68-.05-2.1.56-2.49,2.71-1.76,5.78-2.99,9.87-1.89.85-3.31,9.14-7.05,13.09-6.12-.29,2.71-.58,5.42-.88,8.17-2.74-1.54-4.81-1.13-5.11,1.16-.1.75.54,1.91,1.18,2.69.26.32,1.47.24,2.15.13,4.84-.75,4.92-4.68,4.98-8.61q1.4.45,2.28,4.2Z"/>
  <path class="cls-1" d="M85.32,313.16c-.67-1.57-1.18-2.76-1.69-3.95.31-.12.61-.23.92-.35,1.8,2.19,3.8,4.31,5.36,6.61,1.81,2.69.9,4.93-1.7,5.93-.87.33-1.32,1.28-1.98,1.94-.59.59-1.19,1.16-1.62,1.58.77,1.4,1.68,2.84,2.29,4.31.24.58.05,1.61-.39,1.8-3.35,1.43-1.56,4.81-1.81,7.4.32.18.64.36.96.53.76-1.31,1.52-2.61,2.28-3.92.41.23.82.46,1.24.7-.51,1.45-1.1,2.86-1.5,4.36-.3,1.16-.51,2.39-.49,3.66.03,1.57-4.21,4.5-6.04,3.79.26-1.3.5-2.62.79-3.91.45-2.08,1.92-3.64-.75-6.67-1.4-1.59-.86-4.47-1.16-6.76-.31-2.42-.6-4.85-.83-7.26-.04-.42.16-.95.49-1.13,1.63-.91,3.38-1.65,4.97-2.6.37-.22.54-1.31.3-1.55-2.48-2.39-1.3-3.56.37-4.52Z"/>
  <path class="cls-1" d="M164.77,397.44c-2.03-1.01-3.43-1.57-4.71-2.37-4.09-2.54-8.13-5.02-12.7-6.17-1.87-.47-3.72-1.92-5.62-2.68-1.18-.47-2.5-.24-3.67-.74-1.04-.44-1.95-1.45-2.92-2.21.95-.21,1.9-.78,2.86-.55,1.58.39,3.86,2.21,4.61,1.82,1.84-.96,2.99-2.82,4.39-4.34.33-.36.56-.79,1.51-.85-.39,1.54-.78,3.08-1.24,4.9,2.86,1.1,5.44,2.09,8.02,3.1.3.12.72.33.83.55,1.77,3.59,4.6,3.49,7.88,3.38.24,1.96.46,3.7.76,6.15Z"/>
  <path class="cls-1" d="M341.08,384.82c.57-1.62,1.38-3.3,4.14-3.65,1.66-.21,2.66-1.87,4.19-2.53,1.86-.8,3.35-.27,3.43,2.32.07,2.26.19,4.53.32,7.41-4.87-3.27-6.55-1.66-6.48,1.96-1.91-1.88-3.54-3.48-5.61-5.51Z"/>
  <path class="cls-1" d="M35.1,148.03c1.51-.57,2.7-1.01,3.88-1.46.27.19.55.39.82.58-.75,2.58-1.68,5.09-2.22,7.77-.64,3.2-.94,6.54-1.39,9.82-.2,1.45-.2,3-.65,4.32-.24.71-1.13,1.26-1.96,1.43-.36.07-1.75-1.03-1.85-1.53-.17-.86,0-2.29.56-2.39,1.68-.3.96-1.39.99-2.5.07-1.96.76-3.75,1.26-5.57.25-.91.72-1.72.97-2.63.19-.68-.12-1.81.35-2.11,2.24-1.46.97-3.45-.77-5.74Z"/>
  <path class="cls-1" d="M344.51,414.8c.05-2.96.09-5.19.13-7.78.79-.75,1.93-1.86,3.1-2.94,1.29-1.18,2.47-1.58,4.2.86.66.93,2.28,1.44,4.06,2.49.85,2.38-2.03,2.68-3.68,2.88-2.78.34-3.23,1.49-1.31,4.84-1.84-1.43-2.69-2.09-3.65-2.85-.84.73-1.59,1.39-2.85,2.49Z"/>
  <path class="cls-1" d="M327.71,393.49c-.51.94-.78,2.11-1.57,2.78-1.94,1.66-4.65,2.75-3.28,6.31-2.93-.17-5.68-.32-9.04-.51.14-.8-.16-2.57.63-3.04,3.92-2.33,8.12-4.31,12.22-6.42.34.29.69.59,1.03.88Z"/>
  <path class="cls-1" d="M174.89,98.03c7.37,4.15,15.44,3.85,22.68,9.02.62.44,1.64.19,2.44.49.77.29,1.49.88,2.23,1.34-.77.34-1.6,1.2-2.29.95-4.55-1.63-9.08-3.51-13.61-5.29-3.02-1.18-6.06-2.24-9.06-3.52-.99-.42-1.85-1.39-2.77-2.1.13-.3.25-.59.38-.89Z"/>
  <path class="cls-1" d="M283.32,413.66c.28,4.86-1.69,7.49-5.39,7.8-1.76.14-3.34-.21-4.3-2.22-.84-1.77-1.66-3.34.68-4.18,1.77-.63,3.14-1.47,5.55-.68.99.33,2.08-.39,3.46-.71Z"/>
  <path class="cls-1" d="M332.89,397.26c-.44-.99-.59-2.12-1.26-2.7-2.74-2.37-3.04-3.13-.99-4.84.96-.8,2.26-1.28,4.05-2.26-.02,2.14-.04,3.49-.05,5.01,2.29,1.58,3.9,1.56,5.36-.5.2,1.24.45,2.5.58,3.73.03.31-.47.82-.51.8-3.42-2.04-4.54,1.73-7.18.77Z"/>
  <path class="cls-1" d="M361.98,369.64c-2.64,1.67,3.31,5.23.06,6.7-2.03.91-4.03,1.87-6.4,2.97-1.39-6.31.96-9.72,6.34-9.67Z"/>
  <path class="cls-1" d="M207.06,410.24c.92-2.09,1.74-4.25,2.89-6.19.14-.23,2.02.68,3.09,1.1,1.08.43,2.52,1.48,3.17,1.26,2.88-1,3.94.25,4.11,3.14,1.17.18,2.13.33,3.16.48-1.47,2.59-1.99,2.3-4.69.27-2.17-1.63-4.97-2.46-7.51-3.48-.28-.11-.74.96-1.17,1.45-.72.83-1.47,1.63-2.21,2.44-.28-.16-.56-.32-.84-.48Z"/>
  <path class="cls-1" d="M138.07,380.35c1.06.18,2.12.37,3.17.55.1.24.21.48.31.72-.99.11-2.41.69-2.9.26-2.37-2.04-3.6-1.15-4.97-.06-.41.32-1.15.31-2.32-.18.55-.59,1.1-1.18,1.67-1.8-1.12-.79-2.23-1.57-3.52-2.48,1.92-.6,3.47-1.08,5.22-1.63.83.43,2.19,1.38,3.57,1.77,1.31.36,2.64.13,3.95.15.1.28.2.56.3.85-1.63.28-3.25.56-4.88.83.13.34.26.68.39,1.02Z"/>
  <path class="cls-1" d="M66.27,271.73c-.87,2.61-1.69,5.06-2.75,8.25-1.21-1.77-2.21-3.04-2.9-4.38-.15-.29,1.09-.7,1.24-1.26.44-1.61.7-3.3.91-5,.06-.5-.59-1.41-.36-1.68.63-.73,1.57-1.88,2.35-1.65,1.8.52,1.32,1.67,1.02,2.82-.23.85.33,2.06.5,2.91Z"/>
  <path class="cls-1" d="M162.29,100.18c-.06,1.4-.1,2.09-.13,2.95,2.46.87,4.88,1.73,7.3,2.58-.03.39-.05.77-.08,1.16-5.74-1.62-11.48-3.24-17.22-4.86-.08-.47-.17-.95-.25-1.42,1.66.05,3.35.19,4.98.13,1.68-.06,3.3-.32,5.41-.54Z"/>
  <path class="cls-1" d="M62.46,253.69c1.34-.7,2.58-1.34,4.11-2.14.53,3.44,1.08,6.3,1.35,9.11.08.81-.65,1.47-1.01,2.2-.62-.71-1.25-1.42-1.85-2.15-1.25-1.52-3.01-3.05-1.06-4.49.15-.11-.92-1.52-1.54-2.53Z"/>
  <path class="cls-1" d="M184.04,116.16c5.06-.69,11.81.75,15.03,3.2-2.06,1.45-11.88-.64-15.03-3.2Z"/>
  <path class="cls-1" d="M371.35,370.93c-.64-2.59-1.32-5.01-1.77-7.42-.11-.59.37-1.41.9-1.56.59-.16,1.76.1,2.31.58,1.79,1.52,1.71,7.71-.01,8.58-.2.1-.6-.07-1.43-.18Z"/>
  <path class="cls-1" d="M88.25,386.71c-1.1-1.63-1.91-2.84-3.03-4.51.84-.87,1.82-2.03,3-3,.32-.26,1.38-.12,1.85.22.51.37,1.09,1.31,1.02,1.77-.24,1.57-.63,3.11-1.21,4.52-.23.55-1.14.72-1.62,1Z"/>
  <path class="cls-1" d="M129.73,97.88c-1.32-1.14-2.63-2.28-3.91-3.39,1.56-.88,10.05,1.98,11.3,4.55-1.42-.25-2.7-.6-3.9-.64-1.2-.03-2.31.25-3.46.4-.01-.31-.02-.61-.03-.92Z"/>
  <path class="cls-1" d="M52.74,86.87c-.61-3.12,3.03-2.42,5.19-3.67-1.3-.62-2.03-.97-3.5-1.68,1.36-1.02,2.4-1.81,4.04-3.04.1,2.6.22,4.2.19,5.76-.01.51-.27,1.16-.69,1.3-1.68.54-3.47.9-5.23,1.32Z"/>
  <path class="cls-1" d="M196.48,11.76c-1.04.12-2.07.24-3.31.38.74,1.43,1.44,2.75,2.13,4.08-.18.09-.37.18-.55.27-2.59-2.02-5.19-4.04-7.78-6.06.08-.25.15-.5.23-.75,1.33.61,2.65,1.22,3.98,1.84-.04-.19-.09-.39-.13-.58,1.82.29,3.64.58,5.46.87v-.04Z"/>
  <path class="cls-1" d="M39.21,112.37c1.19-1.09,2.37-2.19,3.56-3.28.48,1.64.95,3.29,1.43,4.93-1.37-.03-2.74-.07-4.11-.1-.29-.52-.58-1.03-.87-1.55Z"/>
  <path class="cls-1" d="M187.05,400.19c-.71.92-1.43,1.83-2.15,2.76-1.89-.65-3.69-1.27-5.91-2.03,1.76-2.89,5.39-.52,7.46-1.62.2.3.4.59.6.89Z"/>
  <path class="cls-1" d="M40.58,85.61c-.53-.93-1.1-1.95-2.01-3.55,1.48.77,2.32,1.03,2.91,1.55.88.76,2.31,1.97,2.23,2.51-.15,1.03-1.14,1.8-1.97,2.49-.14.12-1.76-.82-1.78-1.1-.06-.71.4-1.32.62-1.9Z"/>
  <path class="cls-1" d="M72.93,345.63c1.53-.29,2.52-.47,3.92-.73.23,2.31.44,4.43.68,6.78-3.69-1.19-2.6-4.14-4.59-6.05Z"/>
  <path class="cls-1" d="M344.78,429.54c-1.48-1.24-2.96-2.47-4.44-3.71l4.02-4.15c.3.21.6.42.9.64.27,2.27-4.99,3.31.53,6.76l-1.01.46Z"/>
  <path class="cls-1" d="M96.82,404.93c-.54,1.97-.95,3.45-1.41,5.12-1.5-1.17-2.97-2.31-4.96-3.86,2.22-.44,4.15-.82,6.37-1.26Z"/>
  <path class="cls-1" d="M38.08,114.49c.06,2.96.13,5.93.19,8.89-.38-.08-.77-.16-1.15-.24-2.4-3.38-.06-5.87-.38-8.86.45.07.89.14,1.34.21Z"/>
  <path class="cls-1" d="M121.34,43.89c2.44-.44,4.89-.88,7.37-1.33.87,2.71-1.44,3.42-6.91,2.12-.15-.26-.31-.53-.46-.79Z"/>
  <path class="cls-1" d="M85.51,97.91c-2.69.95-5.07,1.79-7.44,2.63-.52-3.02,2.46-4.16,7.44-2.63Z"/>
  <path class="cls-1" d="M72.39,406.8c1.07.19,2.18.19,3.2.62.75.32,1.58,1.15,1.98,1.86.26.47-.17,1.13-.29,1.7-.71-.33-1.49-.57-2.12-1.02-1.14-.82-2.19-1.77-3.27-2.66l.5-.49Z"/>
  <path class="cls-1" d="M227.81,21.48c1.01.53,2.05,1,3.01,1.62.97.62,1.88,1.36,2.79,2.09.39.31.89.74.97,1.09.09.38-.15,1.01-.44,1.05-.5.05-1.32-.11-1.71-.47-1.63-1.49-3.14-3.09-4.7-4.64.03-.24.06-.49.09-.73Z"/>
  <path class="cls-1" d="M162.7,1.15c.24,1.07.4,1.84.57,2.61-1.26-.48-2.61-.79-3.75-1.51C158.97,1.89,158.84.77,158.51,0c1.28.35,2.55.7,4.19,1.15Z"/>
  <path class="cls-1" d="M209.42,414.08c1.73.42,3.06.4,3.73,1.02.64.58.59,1.83.84,2.78-1.07-.19-2.27-.11-3.16-.66-.61-.38-.78-1.62-1.42-3.14Z"/>
  <path class="cls-1" d="M138.25,410.64c.17.8.72,1.9.39,2.32-.32.41-2.05.37-2.25.1-.64-.86-1.21-2.06-1.1-2.88.08-.6,1.25-.81,1.94-1.19.34.55.68,1.1,1.02,1.64Z"/>
  <path class="cls-1" d="M291,421.37c1.57-.53,3.14-1.05,4.89-1.64.82,3.43-.12,3.84-4.89,1.64Z"/>
  <path class="cls-1" d="M85.68,370.46c.55.31,1.1.62,1.91,1.07-.04-1.03-.08-1.91-.11-2.78.29-.04.59-.09.88-.13.44.93,1.26,1.97,1.21,2.74-.07.88-.92,1.52-1.43,2.27-.96-.93-1.92-1.87-2.88-2.8l.42-.37Z"/>
  <path class="cls-1" d="M73.15,290.91c-1.69-.76-4.08-1.27-2.62-3.47.36-.54,1.39-.6,2.11-.88.35.77.91,1.58.99,2.31.08.72-.33,1.37-.53,2.05h.05Z"/>
  <path class="cls-1" d="M248.2,46.51c4.87,2.72,5.73,4.2,3.56,6.16-1.17-2.02-2.29-3.95-3.56-6.16Z"/>
  <path class="cls-1" d="M336.2,138.73c-1.44.39-2.88.78-4.52,1.22-.56-3.18.14-3.46,3.99-2.2.18.33.35.65.53.98Z"/>
  <path class="cls-1" d="M121.54,81.95c-1.65.55-3.27,1.14-5,1.54-.09.02-.99-1.5-1.64-2.49,2.39.14,4.27.25,6.14.36.16.2.33.39.49.59Z"/>
  <path class="cls-1" d="M308.62,94.36c-1.81-1.27-4.9-.29-5.89-4.62,2.51,1.57,4.36,2.73,6.21,3.89-.11.25-.21.49-.32.74Z"/>
  <path class="cls-1" d="M361.76,377.72c1.34,3.13.88,3.97-2.79,5.27,1.05-1.99,1.78-3.37,2.79-5.27Z"/>
  <path class="cls-1" d="M213.58,14.87c-1.94-.72-3.49-1.23-5-1.88-.58-.25-1.08-.83-1.61-1.26.53-.15,1.1-.58,1.57-.39,2.02.79,4.33,1.38,5.04,3.54Z"/>
  <path class="cls-1" d="M334.18,428.57c1.3-1.14,2.61-2.27,3.91-3.41.41.41.82.82,1.23,1.23-1.36,1.07-2.71,2.14-4.07,3.2-.36-.34-.71-.68-1.07-1.02Z"/>
  <path class="cls-1" d="M109.69,318.86c.13-2.12.26-4.25.39-6.37.35.11.71.22,1.06.33,0,2.16,0,4.32.01,6.48-.49-.14-.97-.29-1.46-.43Z"/>
  <path class="cls-1" d="M196.49,11.8c.11-1.16.23-2.31.39-3.91,1.23,1.29,2.57,2.71,4.34,4.56-1.91-.28-3.33-.49-4.74-.7,0,0,.01.04.01.04Z"/>
  <path class="cls-1" d="M171.29,396.22c1.37.46,2.74.92,4.11,1.37-.24.49-.46,1.44-.73,1.39-1.2-.27-2.41-.82-3.62-1.27.08-.5.15-.99.23-1.49Z"/>
  <path class="cls-1" d="M83,317.3c-.83.58-1.61,1.24-2.54,1.68-.21.1-1-.61-1.52-.95.9-.72,1.79-1.43,2.69-2.15.46.47.92.94,1.38,1.42Z"/>
  <path class="cls-1" d="M394.11,351.38c-.71-1.09-1.43-2.18-2.51-3.83,1.49.12,2.38.2,3.77.31-.19,1.47-.33,2.51-.47,3.56-.26-.02-.52-.03-.78-.05Z"/>
  <path class="cls-1" d="M115.88,406.75c1.41.24,2.41.14,2.86.56.55.51.64,1.46.92,2.22-.68.05-1.61.39-1.98.08-.66-.55-.99-1.49-1.8-2.85Z"/>
  <path class="cls-1" d="M367.44,369.15c-.13-1.69-.25-3.38-.38-5.07.18-.03.35-.05.53-.08.62,1.69,1.23,3.39,1.85,5.08-.67.02-1.33.04-2,.06Z"/>
  <path class="cls-1" d="M145.86,391.32c1.03,1.3,2.05,2.59,3.59,4.54-1.42-.4-2.81-.48-3.1-.94-.68-1.1-.85-2.37-1.22-3.58.24,0,.48-.02.72-.02Z"/>
  <path class="cls-1" d="M73.1,290.91c1.29,1.81,2.36,3.61,1.45,5.91-1.96-2.39-2.42-4.18-1.4-5.9,0,0-.05,0-.05,0Z"/>
  <path class="cls-1" d="M329.71,407.54c-1.19.21-2.38.42-3.92.69-.18-3.01,1.21-2.96,3.32-1.79.2.37.4.73.6,1.1Z"/>
  <path class="cls-1" d="M208.82,126.55c-2.1-.65-3.87-1.21-5.65-1.76,4.5-.93,4.98-.77,5.65,1.76Z"/>
  <path class="cls-1" d="M70.92,262.5c-.5,1.5-1,3-1.49,4.5-.29-.12-.58-.25-.88-.37.29-1.59.57-3.18.86-4.77l1.51.64Z"/>
</svg>