<?xml version="1.0" encoding="UTF-8"?>
<svg id="Layer_1" data-name="Layer 1" xmlns="http://www.w3.org/2000/svg" viewBox="0 0 267.91 396">
  <defs>
    <style>
      .cls-1 {
        fill: #000;
        stroke-width: 0px;
      }
    </style>
  </defs>
  <path class="cls-1" d="M267.91,204.82c-.02-.4-.17-.8-.12-1.18.12-.91-.87-1.63-.21-2.76.34-.59-.15-1.8-.49-2.64-.56-1.38-1.11-2.69-.46-4.21.16-.37.02-.88-.03-1.31-.19-1.51-.52-3.01-.56-4.53-.03-1,.34-1.99-.27-2.97-.16-.26.13-.81.21-1.22-.28-.18-.55-.36-.94-.6.74-.87.68-1.7.38-2.71-.26-.87-.65-1.98.27-2.86.16-.15.13-.55.12-.83-.05-1.41.13-2.85-.7-4.14-.12-.19-.03-.52-.05-.78-.11-1.46.06-3.02-.4-4.36-.5-1.41.07-3.13-1.28-4.31-.26-.23-.24-.86-.22-1.3.12-1.81.3-3.61.43-5.42.12-1.7-.38-2.45-1.95-3.12-.3-.13-.72-.31-.81-.56-.24-.68-.88-.77-1.27-1.13-.64-.59-.87-1.61-1.27-2.46.78-1.12.18-1.78-.87-2.27.21-.36.52-.66.5-.92-.09-1-.31-1.98-.43-2.97-.18-1.43-.64-2.86-.04-4.3.08-.2.11-.45.09-.67-.14-1.57-.3-3.14-.45-4.71-.83-.38-1.12.16-1.41.77-.38.8-.79,1.59-1.2,2.39-.29-.18-.43-.21-.48-.3-.1-.2-.19-.41-.22-.63-.28-2.02-.3-2.04-2.25-2.88-.24-.1-.52-.33-.6-.56-.25-.69-.48-1.4-.59-2.12-.05-.34.1-.87.35-1.04.22-.15.71.05,1.06.15.15.04.25.3.39.31.77.05,1.58.19,2.31.02.4-.09.68-.73,1.02-1.13-.97-.74-1.74-1.33-2.6-1.98-.3.33-.69.75-1.25,1.37-.19-1.5-.01-2.58,1.06-3.35.72-.52.76-1.05.12-1.71-.58.17-1.47.8-1.62,0-.21-1.11-1.16-1.02-1.84-1.53,1-1.47-.89-2.73,0-4.18-.76-.32-1.37-.59-1.99-.85.06-.32.05-.69.2-.95.58-.98.54-1.92.19-2.62-1.47-.97-3.32.1-4.22-1.32.37-.96.66-1.7.89-2.29-.92-.76-1.68-1.28-2.3-1.92-.71-.73-1.31-1.74-1-2.69.77-2.39-.44-4.06-1.66-6.1-.72,1.38.24,3-1.41,3.81-.33-1.04-1.14-.96-1.94-.73-.47-.51-.88-.97-1.3-1.44.34-1.11.17-2.13-.59-3.03-.5-.59-.36-1.17.07-1.7.28-.35.7-.61.93-.99.28-.46.55-.99.57-1.51.03-.53-.38-1.02-.97-.97-.3.02-.63.37-.83.65-.23.32-.26.77-.48,1.09-.67.98-1.37,1.94-2.1,2.87-.12.15-.49.09-.85.15v-1.53c-.52.31-.93.55-1.5.88-.82-1.28-.99-2.62-.82-3.95.08-.64.69-1.17,1.61-.86.11.5.22,1,.34,1.53.72-.44.6-.86.4-1.4-.25-.67-.38-1.4-.49-2.11-.07-.5.1-1.05-.03-1.53-.17-.61-.11-1.04.31-1.55.49-.6.37-1.29-.23-1.82-.11-.09-.31-.07-.51-.12-.06.39-.11.75-.16,1.1h-3.35c-.34.28-.8.66-1.39,1.16-.37-.85-.68-1.51-.96-2.18-.66-1.58-.57-2.23.75-3.41.76-.68.6-1.43.47-2.19-.12-.71-.73-.85-1.39-1.03-.98-.27-1.86-.18-2.77.19-.39.15-.8.24-1.35.41-.06-.76-.11-1.29-.16-1.93-.86-.28-1.7-.53-2.51-.85-.23-.09-.46-.34-.58-.58-.58-1.17-1.72-1.42-2.82-1.62-1.4-.25-1.48-.28-1.7-1.76-.11-.72-.09-1.63-.52-2.09-.66-.69-.75-1.49-.99-2.28-.1-.31-.09-.69-.28-.92-1.04-1.26-1.07-2.62-.52-4.03-.48-1.02-.95-2.04-1.31-2.81.3-.94.61-1.62.72-2.32.28-1.73.31-3.46.19-5.24-.09-1.32-.28-2.44-1.09-3.47-.17-.21-.15-.55-.3-.78-.3-.45-.58-.97-1-1.27-.84-.58-1.39-1.23-1.59-2.28-.12-.62-.52-1.42-1.03-1.68-1.82-.93-2.92-2.42-3.84-4.15-.28-.53-.75-1.06-1.27-1.36-1.18-.69-1.78-2.34-3.53-2.08-.17.02-.42-.33-.59-.55-.62-.8-1.16-1.67-1.84-2.41-1.47-1.61-3.45-2.56-5.18-3.83-.26-.19-.65-.18-.95-.32-1.57-.69-3.17-1.34-4.7-2.13-1.04-.54-1.94-1.35-2.98-1.91-2.09-1.12-4.25-2.1-6.03-3.73-.44-.4-1.1-.66-1.7-.76-2.34-.42-4.27-1.62-6.14-2.98-.22-.16-.5-.25-.76-.35-2.49-.95-4.97-1.89-7.47-2.83-.26-.1-.54-.18-.82-.23-3.74-.7-7.39-1.72-10.91-3.19-.78-.32-1.63-.47-2.45-.69-.55-.15-1.15-.18-1.63-.44-1.59-.86-3.32-1.29-5.04-1.8-2.45-.72-4.9-1.43-7.34-2.2-1.08-.34-2.11-1.07-3.19-1.14-1.13-.07-2.03-.57-3.02-.9-.11-.04-.22-.07-.33-.08-2.01-.27-3.95-.97-6.01-1-.51,0-1.02-.12-1.52-.21-2.22-.43-4.42-.87-6.7-.75-2.83.15-5.67.21-8.51.23-2.21.01-4.42-.07-6.63-.16-1.01-.04-2.02-.31-3.03-.33-2.99-.08-5.97.2-8.94.55-2.3.27-4.6.54-6.88.92-.62.1-1.16.61-1.75.91-.44.23-.9.59-1.36.61-1.23.06-2.48-.14-3.7-.04-1.51.13-3.12.2-4.46.8-1.38.62-2.76.83-4.19,1.09-.6.11-1.18.37-1.76.6-1.31.53-2.57,1.31-3.93,1.56-1.78.33-2.94,1.4-4.06,2.6-.54.59-1.13.9-1.92.96-.97.08-1.79.44-2.64,1.02-.79.54-1.47,1.15-2.21,1.72-.93.71-2.06,1.14-3.08,1.74-.53.31-1.18.63-1.47,1.13-.57,1-1.48,1.51-2.33,2.16-1.03.78-1.94,1.68-2.85,2.62-1.16,1.21-2.37,2.28-2.81,3.97-.01.04-.08.07-.13.11-1.02.88-2.01,1.81-3.08,2.64-1.25.96-1.36,1.18-.92,2.67.15.5.19,1.04.3,1.67h-2.17c-.22.59-.44,1.17-.59,1.57-1.48.92-2.85,1.77-4.27,2.66-.1,1.52-.77,2.92-1.77,4.17-.37.47-.86.85-1.24,1.32-.79.96-1.63,1.9-2.3,2.95-.51.79-.84,1.7-1.14,2.6-.18.54-.24,1.03-.85,1.36-.37.2-.69.8-.73,1.24-.16,1.66-1.24,3.21-.55,4.89q-1.58,1.25-2.34,3.12c-.36.89-.75,1.76-1.12,2.65-.69,1.63-.26,3.14,1.17,4.21.35.26.66.56,1.05.89-.28.43-.44.96-.72,1.03-.92.25-1.39.97-1.8,1.66-.6,1-1.29.82-2.09.59-.15-.79,1.12-1.34.12-2.06-.61.36-1.15.72-.89,1.6.07.24-.01.58-.15.81-.77,1.3-1.19,2.87-2.81,3.51-.22.09-.34.42-.41.52.26,1.07.55,1.98.7,2.92.14.88.19,1.8.15,2.69-.07,1.45.75,3.09-.83,4.28-.16.12-.14.53-.15.81-.06.97.36,1.79,1.04,2.41.97.88,1.15,1.9.84,3.1-.12.48-.4,1.15-.19,1.44.65.91.32,1.67-.14,2.38.34.28.57.47.8.66q-1.21,1.61-.05,2.96c.18.21.41.44.47.69.75,3.53,1.99,7.01,1.02,10.7-.08.32-.04.68-.04,1.02.02,1.73.37,2.16,2.17,2.57.41,1.09.84,2.24,1.22,3.24.9.37,1.72.7,2.49,1.02-.32,2.07-.24,2.19,1.65,3.07.49.23.91.59,1.26.82-.32.56-.67.95-.77,1.4-.19.84-.24,1.71-.38,2.8,1.22,1.23,2.51,2.7,2.17,4.94-.22,1.45-.11,3-.57,4.36-.35,1.04-.4,1.92-.21,2.95.23,1.21.4,2.46.42,3.69.02,1.52-.17,3.04-.24,4.57-.01.27-.02.66.14.81.83.81.53,1.62.04,2.36.65.7,1.21,1.34,1.82,1.93.57.56.55,1.34.07,1.67-1.06.74-.83,1.9-1.21,2.85-.2.49-.33,1.24-.09,1.65.51.87.35,1.62-.12,2.56,1.06.58,1.08,1.55.79,2.52-.67,2.24-.24,4.53-.4,6.78-.04.6.29,1.24.18,1.82-.63,3.43-.65,3.42.07,6.69.06.26-.09.56-.06.84.03.42.12.84.21,1.26.09.43.19.85.29,1.27.07.31.04.72.23.91.48.5.35.99,0,1.37-1.23,1.33-.59,3.14-1.25,4.61-.08.17,0,.49.11.66.75,1.06.4,2.16.2,3.27-.07.38-.16.79-.1,1.16.17,1,.07,1.89-.47,2.79-.24.4-.37.99-.27,1.44.36,1.68.07,3.3-.32,4.9-.17.68-.08,1.16.29,1.74.34.54.66,1.27.6,1.87-.1.92-.55,1.81-.83,2.72-.14.46-.43,1-.31,1.41.24.84-.14,1.75.46,2.57.21.29,0,1.21-.34,1.52-.6.56-.6,1.14-.62,1.84-.02.61-.28,1.2-.33,1.81-.1,1.32-.36,2.7-.11,3.97.14.75.29,1.45.05,2.12-.44,1.27-.6,2.5-.35,3.85.1.55-.3,1.18-.42,1.79-.07.36-.17.81-.02,1.11.52,1.09,1.13,2.14,1.8,3.37-.42.33-.88.69-1.19.93-.14,1.48,0,2.93-.48,4.14-.62,1.57.63,2.69.51,4.06,1.26.61.5,1.48.32,2.3-.14.59-.26,1.19-.32,1.79-.17,1.57-.36,3.14-.45,4.71-.06,1.05.03,2.12.07,3.17.04,1.25.13,2.49.14,3.74.01,1.36-.05,2.72-.05,4.09,0,.57-.03,1.18.73,1.36.93-.35,1.32-.99,1.13-2-.11-.56-.07-1.14-.18-1.69-.29-1.55.26-3.05,1.01-4.2.61-.94,2.06-1.35,3.15-1.98.01,0,.13.16.26.32-.25.26-.5.54-.86.91,1.03,1.69.89,3.49.09,5.26.28.25.51.47.78.71-.44.63-1.05,1.1-.8,1.98.08.29-.25.74-.48,1.05-1.19,1.62-1.22,3.8-.06,5.43.36.51.74,1.02.28,1.68-.44-.27-.84-.72-1.24-.73-.92-.02-1.18-.61-1.35-1.27-.2-.76-.25-1.55-.43-2.32-.14-.56-.39-1.09-.58-1.59-1.2.26-1.33.96-1.23,1.75.25,1.95.56,3.9.8,5.85.33,2.69.82,5.38.85,8.07.02,1.82.41,3.46,1.03,5.1.21.55.31,1.03-.14,1.58-.2.25-.2.93,0,1.18.44.52.38.96.27,1.56-.11.57.03,1.2.13,1.79.06.38.4.73.38,1.09-.05,1.3-.29,2.62.67,3.74.05.06.03.24-.02.32-.53.67-.16,1.13.3,1.62.16.17.26.49.24.73-.14,2.01.03,3.96,1.03,5.77.13.23.24.61.14.81-.38.74.13,1.31.27,1.95.17.78.44,1.54.55,2.32.33,2.48.59,4.97.88,7.45.08.67-.03,1.48.3,2,.84,1.31.87,2.8,1.21,4.22.06.27.2.52.37.94.52-.96.71-1.81.09-2.44-.73-.74-.65-1.68-.86-2.53-.08-.34.17-1.03.44-1.14,1.37-.57,1.12-1.87,1.41-2.9.08-.27-.19-.8-.45-.98-.67-.44-.69-1.07-.54-1.66.36-1.34.83-2.66,1.26-3.99.18-.6-.96-.83-.45-1.71.7-1.19.23-2.39-.17-3.52-.43-1.19.06-2.13.74-2.89.98-1.1,1.07-1.04-.16-2.15-.96.67-1.36,1.54-1.16,2.74.12.72-.16,1.43-.92,1.62-.68.17-1.22-.29-1.49-.91-.51-1.16-.84-2.35-.42-3.64.39-1.2.12-1.83-.99-2.56-.17-.11-.43-.22-.48-.39-.41-1.39-1.08-2.74-.76-4.28.48-.22.94-.43,1.24-.57.35.23.6.53.83.52.81-.04,1.3-.46,1.54-1.3.31-1.06.95-1.25,2-.75.08.04.21,0,.21,0,.38-.37.71-.69,1.16-1.12.32.81.47,1.42.79,1.94.45.75.45,1.38-.18,2-.58.57-.63,1.27-.19,1.86.61.83.62,1.64.35,2.56-.1.36-.02.78-.02,1.11.25.17.38.31.54.34.93.19,1.3.63,1.5,1.69.45,2.39,1.26,4.71,1.91,7.06.1.37.16.77.14,1.15-.1,2.2.25,4.36.52,6.52.23,1.79,1.18,3.41,1.08,5.3-.09,1.58.62,2.85,2.08,3.62.08.04.09.19.17.39-.3.4-.63.84-1.09,1.46.54.45,1.07.88,1.62,1.33,0,1.23-.34,2.67.09,3.8.49,1.29.31,2.57.62,3.83.2.81-.23,1.2-1.13,1.37-.41.08-.82.13-1.39.22,1.24,1.08.75,2.47,1.15,3.6.09.25-.4.7-.67,1.13.82.96.56,2.11.17,3.18-.4,1.11-.49,1.99.96,2.48-.38.73-.68,1.31-1.02,1.99.59.62,1.18,1.3,1.84,1.9.64.59,1.35,1.11,2.05,1.67-.47.86-.87,1.58-1.32,2.4.62.28,1.07.49,1.57.71.02.19-.04.46.07.63.18.3.45.77.67.76.55-.01.92-.4.86-1.03-.02-.17-.11-.32-.15-.49-.34-1.45-1.2-2.79-.87-4.4.07-.34-.34-.79-.54-1.18-.61-1.21-1.33-2.38-1.82-3.64-.7-1.8-.15-3.03,1.45-3.69.75.44,1.26.95,1.31,1.97.05,1.12.32,2.25.67,3.32.33,1.01.89,1.93,1.51,2.84.57.85.45,2.17.62,3.28.12.78.59,1.17,1.32,1.32.15-.17.28-.28.36-.43.95-1.68,1.86-1.82,2.77-.19,1.08,1.94,1.71,4.03-.03,6.03.89,1.42,1.61,2.76,1.48,4.5-.11,1.49,1.04,2.58,1.85,3.73.42.61.74,1.52,1.83,1.01.1-.05.36.19.53.33.38.31.72.69,1.14.95,1.61,1.01,2.5,2.66,3.66,4.07.18.22.12.79-.03,1.1-.42.83-.08,1.29.63,1.65.35.18.71.33,1.03.47.83,3.57,3.37,5.4,6.3,4.57.81.52,1.19,1.28,1.32,2.25.21,1.55.9,2.06,2.58,2.12.71.02,1.41.16,2.06.24,1.49,2.52,4.3,5.36,5.49,5.66-.12-1.3-.99-2.15-2.06-2.84-1.06-.68-1.21-2.29-2.76-2.47.35-.85.65-1.32,1.57-.9.34.16.86-.04,1.3-.11,1.15-.16,1.5-1.22,1.97-1.93,1.66.88,3.19,1.68,4.73,2.49.33-1.31.55-1.49,1.84-1.71.9-.16,1.69.06,2.46.48,1.72.94,3.42,1.92,5.17,2.81,1.11.57,2.28,1.02,3.43,1.49,1.98.81,3.95,1.63,5.95,2.38,1.11.42,2.25.79,3.42.99.46.08.99-.47,1.51-.56.48-.08,1.2.3,1.48.07.81-.68,1.37-.21,1.99.19.42.28.78.83,1.21.89,2.06.3,4.15.61,6.2.12.94-.23,1.94-.16,2.86-.82.61-.43,1.74-.11,2.63-.18,1.5-.11,2.85.06,3.54,1.66.02.04.2.02.43.03.04-1.93,1.21-2.75,3.01-2.89,1.65,1.03.56,3.26,2.1,4.69,0-.66.03-1.03,0-1.38-.1-.98.7-1.26,1.3-1.59.55-.29,1.07,0,1.46.54.5.66,1.07,1.26,1.68,1.96.63-.2,1.3-.41,2.18-.69,0-.74.08-1.51-.02-2.25-.15-1.18-.14-1.3,1.17-1.45.85-.1,1.34-.45,1.56-1.29.13-.51.23-1.16,1.17-1.21.25.54.51,1.13.83,1.82,1.17-.22,2.32-.43,3.55-.66-.07-.56-.14-.95-.15-1.33-.01-.41.03-.82.06-1.28,1.1.33,1.98.6,2.94.89.46-1.28.1-3.06,1.56-4.22.43.34.81.65,1.26,1.01.62-.88,1.2-1.7,1.78-2.51.62.21,1.13.38,1.68.56-.05-1.46.2-2.13,1.03-2.17,1-.04,1.48-.58,1.81-1.35.31-.72.89-1,1.55-1.2.58-.17,1.17-.29,1.76-.44.29.47.58.94.87,1.41.08-.04.15-.08.23-.12v-1.82c.54-.6.88-1.28,1.18-1.97.44-1,1.41-1.49,2.33-.95.92.53,1.78.18,2.73.27-.94-2.34-.75-4.06.42-4.94.72.24,1.43.42,2.08.72.32.15.69.5.76.81.27,1.4,1.47,1.61,2.72,2.42-.28-1.77.98-2.37,1.83-3.07.71-.59.98-1.17,1.11-1.96.05-.31.12-.62.18-.93.23,0,.35-.03.45,0,1.35.5,1.62.33,1.53-1.03-.01-.23-.05-.45-.07-.68-.08-.87-.15-1.74-.23-2.57,2.17-.96,3.57-2.22,3.15-4.7.37.05.65,0,.77.12,1.31,1.35,1.51,3.19,2.08,5.09.71-.55,1.23-1.1,1.87-1.4,1.19-.56,1.21-1.55,1.1-2.59-.04-.45-.28-.87-.36-1.32-.12-.65-.31-1.34.38-1.9,1.09.64,2.5.77,2.95,2.39.82-.91.95-1.75.59-2.63-.25-.61-.11-1.04.23-1.57.75-1.16,1.41-2.38,2.07-3.5.92-.29,1.85-.53,2.73-.9.38-.16.84-.52.94-.88.35-1.34,1.13-2.57.73-4.11-.2-.76-.14-1.85.88-2.35.13-.06.32,0,.55,0,.16.43.3.83.49,1.35,1.12-1.17,2.16-.11,3.32-.02v-1.9c1.69-1.74,4.08-2.17,5.6-3.94v-2.37c2.12-.75,3.12-2.3,3.36-4.43,1.62-.16,2.42-1.08,2.45-2.63,1.54-.55,1.83-1.16,1.68-2.72-.11-1.08-.93-2.29.44-3.17-1.8-1.33-1.84-2.45-.25-3.71.09-.07.21-.11.29-.18.47-.43.94-.86,1.48-1.36.74-.08,1.64-.17,2.5-.26.56-.81,1.01-1.51.87-2.53-.06-.45.3-1.3.64-1.41,1.3-.4,1.71-1.35,2.07-2.49.32-1.02.78-2,1.17-2.99-.23-.53-.51-1.03-.67-1.57-.09-.3-.14-.77.03-.97.57-.68,1.12-1.47,2.16-1.52,1.01-.05,1.15.81,1.62,1.45v-1.72c.58-.08,1.05-.15,1.69-.25-.04-.78-.07-1.54-.11-2.29,1.36-.5,1.39-.5,1.55-1.72.19-1.4.4-2.79.51-4.19.06-.79.57-1.06,1.15-1.29.36-.14.78-.15,1.16-.25,1.93-.55,1.97-2.24,1.16-3.65-.11-.19-.26-.36-.42-.58.35-.59.68-1.14,1.07-1.81.48.4.85.71,1.25,1.05.88-.75,1.74-1.49,2.62-2.24.08-.95.19-2.06.25-3.18.02-.33-.04-.7-.19-.98-.46-.86-.43-1.74-.29-2.66.19-1.27.68-1.7,1.91-1.49.36.06.7.28,1.11.45.39-.84.48-1.86,1.68-1.98.2-.02.39-.74.45-1.15.05-.31-.26-.75-.14-.97.82-1.39-.08-1.92-1.33-2.4.38-1.14.69-2.21,1.1-3.24.42-1.06.94-2.08,1.4-3.08.75-.21,1.59-.43,2.55-.7.26.28.6.65.91.98-.48,1.46-.26,3.38.58,4.21.04-.47-.06-.92-.1-1.38-.03-.44-.07-.9.03-1.32.12-.48.39-.93.57-1.4.03-.07-.09-.2-.12-.3-.13-.49-.25-.99-.37-1.48-.29-1.2-.25-2.28.81-3.2.38-.33.82-1.13.67-1.47-.73-1.64.47-3.39-.37-4.98-.03-.06.18-.26.32-.45,1.47.31,3.14.13,3.96,1.98.13-1.47.03-2.8.4-3.98.39-1.26,1.21-2.38,1.86-3.6-.57-.22-1.03-.4-1.7-.67.49-.99.82-1.96,1.4-2.75.59-.81,1.28-1.48.66-2.56-.07-.12-.05-.37.03-.49.58-.89,1.79-1.48,1.34-2.86-.01-.04.17-.14.24-.22.54-.65,1.22-1.22,1.57-1.96.97-2.07,1.79-4.22,2.67-6.33.82-1.97,1.13-3.89-.34-5.72-.06-.07-.03-.22-.05-.43.31-.15.64-.36.99-.49,1.95-.76,2.12-1.14,1.32-3.01.3-.46.61-.92.91-1.37-.1-.22-.17-.38-.25-.53-.63-1.18-.47-1.59.76-1.97.34-.11.68-.25.98-.36-.4-.44-.72-.79-1.03-1.13.47-.35.93-.69,1.23-.91.55-1.26.92-2.47,1.56-3.5.62-1,.36-2.02-.08-2.71-.48-.75-.46-1.44-.68-2.23.35-.13.6-.27.87-.33.89-.21,1.19-.81,1.14-1.64ZM4.16,95.95c-.13-.02-.25-.05-.38-.07l.18-.9c.12.02.25.05.37.07-.06.3-.11.61-.17.91ZM17.52,281.67c-.12.82-.64,1.83-.34,2.41.46.9.29,1.72.3,2.57,0,.47-.28.93-.46,1.49-1.42-.63-1.89-1.48-1.71-2.71.04-.27.03-.6-.08-.84-.65-1.47-.21-2.85.24-4.26.19-.58.23-1.2.35-1.9.38.11.69.19,1.08.3-.06.72-.41,1.55.66,1.84.08.02,0,.72-.05,1.1ZM20.13,276c-.36-.12-.74-.23-1.09-.38-.35-.15-.88-.27-1-.55-.5-1.18-1.06-2.38-1.26-3.63-.17-1.11.66-1.98,1.5-2.7.38-.33.69-.72,1.05-1.07.59-.56,1.54-.38,1.77.4.21.7.51,1.53.3,2.15-.53,1.61-.32,3.09.42,4.55-.59.42-1.08.78-1.7,1.22ZM167.29,27.78c.11.22.22.44.33.66-.07.04-.13.09-.2.13-.14-.21-.28-.42-.42-.63.1-.05.19-.11.29-.16ZM122.39,68.8c.08.04.15.08.23.13-.14.26-.28.52-.42.78-.08-.04-.16-.08-.24-.13l.43-.78ZM126.96,385.57c-.1,0-.2-.02-.3-.03.02-.28.04-.56.05-.84l.4.07-.15.8ZM196.89,249.36c-.06-.1-.12-.2-.18-.3.27-.13.55-.25.82-.38.04.08.08.17.12.25-.26.14-.51.29-.77.43ZM214.18,187.72c-.01.74-.02,1.47-.06,2.2-.07,1.18-.17,2.36-.23,3.54-.05.86-.15,1.62-.75,2.37-.66.82-.99,1.8-.61,3,.47,1.5-.2,2.86-1.1,4.09-.87,1.18-1.64,2.36-.89,3.96.2.43.1,1.19-.16,1.62-1.02,1.7-1.1,3.66-1.66,5.48-.21.69-.61,1.32-.88,2-.53,1.31-1.17,2.61-1.49,3.97-.17.73-.34,1.38-.7,2.03-.75,1.39-1.49,2.79-2.08,4.25-.29.71-.27,1.55-.32,2.33-.06.91.4,1.81-.33,2.73-.3.38.06,1.28.15,2.2-.76.13-1.3.43-1.47,1.22-.08.36-.36.76-.67.96-1.5.94-1.24,2.41-1.24,3.81,0,.73.03,1.46,0,2.19,0,.22-.08.56-.22.62-1.22.55-1.32,1.73-1.65,2.8-.07.24-.32.48-.55.62-1.81,1.09-2.08,2.97-2.6,4.77-.23.79-.55,1.71-1.14,2.21-1.71,1.47-2.3,3.42-2.78,5.46-.05.21-.06.46.01.66.39,1.12-.2,1.59-.98,2.35-.95.92-2.13,1.43-3.07,2.28-1.15,1.03-1.62,2.47-1.86,3.94-.26,1.56-.28,3.15-.56,4.7-.18,1-.65,1.94-.96,2.91-.25.75-.66,1.52-.65,2.27.03,2.06-1.24,3.51-2.22,5.08-.35.56-1.13,1.02-1.8,1.19-.81.2-1.31.66-1.75,1.24-.71.94-1.35,1.95-2.05,2.91-.36.5-.78.97-1.19,1.43-.19.21-.55.35-.61.58-.52,1.94-2.39,2.8-3.4,4.33-.81,1.23-1.55,2.51-2.31,3.77-.17.29-.24.69-.48.87-1.14.85-1.61,2.1-2.17,3.33-.36.78-.64,1.47-.72,2.37-.1,1.13-.48,2.3-1.35,3.22-1.21,1.28-2.37,2.61-3.48,3.97-1.08,1.31-1.58,2.85-1.56,4.57,0,.43-.09,1-.36,1.27-1.15,1.12-1.56,2.62-2.24,3.98-.51,1.03-1.11,1.7-2.4,1.84-1.94.2-2.66,1.88-3.34,3.2-.78.36-1.4.65-2.15,1.01-1.6-1.18-3.07-.23-4.57.7-.35-.14-.71-.29-1.01-.41-.95.79-1.88,1.51-2.74,2.3-.57.52-1.07.71-1.92.7-1.12-.02-2.38.36-2.88,1.64-3.22-.71-6.12.83-9.34,1.3-.66-.87-1.3-1.85-2.08-2.71-.8-.87-1.66-1.71-2.62-2.39-2.01-1.43-3.27-3.35-3.94-5.68-.3-1.05-.72-1.97-1.4-2.84-.91-1.15-1.66-2.42-2.48-3.64-.03-.05-.09-.09-.09-.14-.28-2.79-2.68-4.67-3.15-7.38-.11-.62-.45-1.2-1.22-1.25-1.34-.08-1.86-1.21-2.65-2-.27-.27-.44-.64-.72-.9-.97-.9-1.39-1.92-.78-3.38.51-.06,1.11-.13,1.96-.23-.15-.6-.12-1.39-.5-1.79-1.24-1.31-1.62-3.09-2.68-4.48-.71-.93-1.62-1.74-1.85-2.97-.07-.39-.33-.8-.25-1.15.52-2.15-.56-4.07-.83-6.1-.15-1.16-.36-2.31-.58-3.45-.08-.44-.12-.98-.39-1.27-.73-.79-1.04-1.69-1.26-2.73-.32-1.47-.88-2.89-1.31-4.33-.39-1.29-.64-2.63-1.14-3.88-.56-1.42-.64-2.82-.61-4.32.03-1.61.03-3.29-1.3-4.61-.32-.31-.46-1.15-.27-1.55.53-1.14.34-2.19.04-3.3-.21-.76-.31-1.55-.53-2.31-.08-.27-.32-.61-.56-.68-.74-.23-.66-.71-.42-1.2.17-.35.93-.36.6-1.02-.49-.97.32-2.35-.98-3.06-.09-.05-.15-.17-.2-.22.24-2.11.81-4.14.47-6.3-.28-1.77-.3-3.58-.33-5.38-.01-.75.29-1.51.38-2.27.16-1.3-.5-2.41-.88-3.59-.22-.69-.41-1.32.29-1.84.81-.6.32-1.49.44-2.24.15-.99.16-2.01.2-3.02.03-.96.87-1.95-.09-2.9-.07-.07.27-.47.29-.73.07-.79.14-1.59.09-2.38-.04-.68-.16-1.28.3-1.92.27-.37.25-.97.27-1.48.09-2.11-.23-4.17-.97-6.16-.51-1.36-.54-2.62.49-3.82,1.15-1.34,1.26-3.11,1.51-4.72.17-1.11-.39-2.32-.5-3.5-.07-.72.06-1.46.16-2.18.14-1.01.31-1.97-.08-3.02-.21-.56-.06-1.38.21-1.96.78-1.67.83-1.64.47-3.6-.03-.14.07-.31.09-.46.24-1.85.39-3.71.72-5.55.41-2.33-.54-4.43-.92-6.64-.09-.56-.13-1.12-.26-1.67-.28-1.17.15-2.43-.74-3.55-.4-.5-.3-1.41-.42-2.14-.19-1.27.58-2.01,1.59-2.64-.08-.52-.15-1-.24-1.62.48-.05.89-.09,1.35-.14.52-.76.16-1.54-.03-2.28-.13-.53-.22-.96.25-1.39.61-.57.57-1.31.41-2.07-.08-.38-.22-.78-.19-1.15.16-1.67.39-3.33.55-5,.04-.37-.07-.75-.14-1.31-.43.21-.71.37-1.01.47-1.23.42-1.88.08-1.95-1.25-.04-.76-.37-1.28-.77-1.83-.94-1.28-.61-3,.73-3.83.13-.08.36-.17.47-.11.93.47,1.3-.4,1.97-.75-.11-.84-.12-1.57.52-2.34.92-1.1.71-2.05-.39-2.97-1.28-1.08-1.69-2.32-.99-3.89.34-.75.34-1.61,1.09-2.24.36-.31.51-1.26.32-1.75-.51-1.29.03-1.94,1.13-2.29-.02-1.06-.16-1.86-.79-2.66-.48-.61-.57-1.56-.72-2.38-.12-.65-.09-1.33-.05-1.99.02-.31.15-.67.35-.9.29-.32.7-.55.83-.65-.23-1.69-.46-3.18-.6-4.68-.05-.49.05-1.03.22-1.51.27-.76.4-1.45.27-2.3-.14-.91.12-1.91.29-2.85.24-1.34.54-2.68.86-4.01.28-1.17,1.04-1.98,2.03-2.63.51-.34.99-.76,1.4-1.21.21-.22.41-.67.32-.9-.36-.94-.04-1.57.56-2.31.38-.48.52-1.28.51-1.92-.03-1.6.81-2.49,2.1-3.19.63-.34,1.12-1.07,1.77-1.24,1.64-.42,2.75-1.6,4.09-2.45,1.38-.87,2.85-1.62,4.31-2.37,1.55-.8,3.09-1.69,4.72-2.29,1.97-.72,4.02-1.23,6.06-1.72,1.73-.42,3.23.37,4.76,1.09.78-.22,1.67-.42,2.52-.72.8-.29,1.45-.74,2.48-.51.68.15,1.13.28,1.46.83.33.53.6,1.1.93,1.63.81,1.28.64,1.98-.67,2.71-.14.08-.27.18-.57.39.63.88,1.25,1.73,1.96,2.72-.37,1.73-1.77,2.48-4.97,2.37.04.34.06.66.13.96.3,1.31.8,2.6.89,3.93.12,1.67.9,3.05,1.58,4.47.2.43.93.6,1.52.94.16-.6.17-1.03.38-1.33,1.12-1.6.58-3.22.06-4.8-.22-.66-.36-1.22-.23-1.95.24-1.27.38-1.63,1.51-1.34,1.12.29,2.33.76,3.16,1.52,1.35,1.23.61,3.4-1.31,4.35,1.02,3.39-.52,5.18-2.71,5.22-.04,1.13,1.52.4,1.7,1.55.13.87,1.19,1.06,2.06,1.26.8-.99-1.45-2.5.65-3.15.5.61,1.01,1.24,1.73,2.14.27-.9.45-1.51.62-2.07.81-.21,1.66-.42,2.61-.66.36.92.72,1.85,1.09,2.77-.23.63-.45,1.26-.7,1.95-1.17.33-2.17.79-1.97,2.4.08.65-.29,1.37-.5,2.19-.59-.27-1.22-.56-2.03-.94-.33.79-.63,1.49-.89,2.1.35.59.77,1.03.87,1.54.17.86.2,1.73,1.29,1.94.59,1.62,2.29,2.71,2.21,4.64-.03.76.34,1.25.9,1.72.59.49,1.08,1.12,1.59,1.71.3.35.55.69.16,1.2-.15.19-.05.62.03.92.17.7.42,1.39.59,2.09.21.85.03,1.89,1.29,2.13.19.04.32.44.44.68.36.69.71,1.39,1.05,2.09.12.25.31.5.33.75.08,1.3.78,2.19,1.75,2.98.96.77,1.87,1.61,2.75,2.48.31.3.51.75.66,1.17,1.01,2.81,2.21,3.38,5.03,2.59,1.09-.3,2.12-.26,3.28.62,1.14.86,2.07,1.82,3.07,2.98.71-.47,1.42-.98,2.17-1.43.62-.37,1.22-.81,2.06-.48.23.09.71-.23.96-.47.66-.65,1.25-.76,1.86.02.95,1.23,2.22,1.13,3.41.61,1.43-.64,2.71-.57,4.03.2,1.3.75,2.71,1.06,4.22,1.2,1.52.13,3.01.59,4.52.81,1.42.21,2.83.19,4.17-.48.28-.14.64-.11.96-.17.71-.14,1.43-.26,2.14-.43.21-.05.39-.23.6-.32,2.14-.87,3.41,0,3.43,2.37.01,1.14-.12,2.31.64,3.27,1.2,1.52,1.46,3.24,1.55,5.15.05,1.04.63,2.26,1.6,3.09.59.51,1.1,1.05.89,2.05-.12.56.49,1.24.54,1.88.15,1.89.16,3.82-.27,5.67-.45,1.94.21,3.71.58,5.52.14.67.59,1.28.98,2.09.36-.53.76-.94.95-1.43.29-.76.59-1.58.6-2.38,0-.98.34-1.37,1.42-1.35,0,.35-.03.67,0,.99.12,1.06.27,2.12.38,3.18.14,1.35.28,2.7.36,4.05.02.24-.15.57-.34.74-1.16,1.02-.83,2.26-.4,3.39.59,1.57.59,3.19.75,4.8.07.72,0,1.46-.01,2.19ZM227.9,89.09c-.57-.2-.44-.65-.35-1.07.67-.15.95.15.91.68-.01.15-.43.44-.57.39ZM233.66,114.61c-.14.78-.82.83-1.48.93-.64-1.22-1.22-2.29-1.75-3.39-.15-.3-.2-.66-.22-.99-.08-.95.34-1.89.95-2,.84-.15,1.27.48,1.8,1.01,1.35,1.34.98,2.89.7,4.43ZM242.96,127.51q-.78-.77.23-1.27c-.07.39-.14.78-.23,1.27ZM244.39,118.78c-1.15-1.01-.52-2.28-.42-3.46.06-.72.18-1.48,1.18-1.76.55,1.06,1.01,2.22,2.2,2.76-.25,1.34-1.22,2.17-2.95,2.46ZM261.97,155.49c.05,0,.12.25.19.38-.23.06-.46.11-.7.17-.05-.12-.09-.25-.14-.37.22-.06.43-.16.65-.17ZM262.99,182.15c-.4-.37-.94-.67-1.16-1.12-.55-1.14-1.67-2.06-1.43-3.53.04-.23-.2-.51-.31-.77-.66-1.65-.39-2.35,1.21-3.13.3-.15.61-.27.79-.35,1.45.41.88,1.74,1.38,2.48.8,1.18-.36,1.75-.6,2.66.55,1.14,1.97,2.28.11,3.76Z"/>
  <path class="cls-1" d="M28.27,328.04c.35-1.05.52-2.16.79-3.24.36-1.4-.95-2.41-.89-3.75,0-.06-.86-.34-1.12-.18-.62.37-1.28.86-1.62,1.46-.57,1.02-1.38,1.61-2.44,1.93-.2,1.11.17,2.41-1.25,3.02-.08-.35-.14-.63-.26-1.15-.24.46-.46.69-.47.94-.11,1.75-.16,3.46.75,5.12.47.84,1,1.79.74,2.91-.1.45.23.83.78.77.07-.17.18-.33.15-.37-.89-1.16-.51-2.28.05-3.43.24-.49.36-1.05.42-1.59.18-1.6.62-1.84,1.98-1.05.49-.19.98-.32,1.42-.56.37-.21.86-.48.97-.82Z"/>
  <path class="cls-1" d="M26.45,340.41c0-1.97-1.72-1.11-2.54-1.68-.09-.3-.17-.57-.26-.83-.09-.26-.2-.51-.42-1.05-.2,1.85,1.71,7.52,3.58,10.43-.38-1.23-.71-2.47-1.14-3.68-.46-1.3-.46-2.45.78-3.18Z"/>
  <path class="cls-1" d="M25.8,313.74c-.68-.66-1.21-1.73-2.64-1.63.51,1.56.95,2.9,1.4,4.26.91-.68,1.71-2.17,1.24-2.63Z"/>
  <path class="cls-1" d="M39.25,357.27c-.12-.15-.49-.11-1.07-.21.37,1.52.67,2.74.98,4,1.22-.36,1.3-1.26,1.12-2.08-.14-.62-.62-1.18-1.03-1.71Z"/>
  <path class="cls-1" d="M222.79,69.43q-1.73.65-1.41,2.31c.97-.24,1.58-1.17,1.41-2.31Z"/>
  <path class="cls-1" d="M27.46,342.42c.53.84,1.04,1.66,1.55,2.47.14-.1.28-.2.43-.3-.39-.8-.71-1.65-1.19-2.39-.27-.42-.67-.34-.79.23Z"/>
  <path class="cls-1" d="M38.9,362.89c-.41,1.07.71,1.5.92,2.28.48-1.59.44-1.68-.92-2.28Z"/>
  <path class="cls-1" d="M227.62,74.26c-.65-.14-1.02-.22-1.54-.33.14.59.23.96.38,1.56.43-.46.7-.74,1.16-1.24Z"/>
  <path class="cls-1" d="M47.05,376.91c-.62.37-.16.86-.07,1.3.02.07.17.11.34.2.49-.36.66-.8.29-1.35-.09-.13-.44-.22-.56-.15Z"/>
  <path class="cls-1" d="M40.47,369.79v1.42l.4.11c.07-.42.16-.85.19-1.27,0-.06-.33-.14-.59-.25Z"/>
  <path class="cls-1" d="M41.02,368.75c.35-.52.8-1.02.11-1.61l-.11,1.61Z"/>
  <path class="cls-1" d="M141.93,394.61c.02.1.05.2.07.3.3-.04.61-.08.91-.12-.01-.13-.03-.26-.04-.39-.31.07-.63.14-.94.21Z"/>
  <path class="cls-1" d="M28.32,352.66c.08.29.16.58.24.87.09-.02.19-.04.28-.06-.04-.3-.08-.6-.12-.9-.16.04-.25.06-.4.09Z"/>
  <path class="cls-1" d="M30.26,357.24c.06.22.11.44.23.86.12-.35.21-.5.18-.54-.11-.13-.27-.22-.4-.32Z"/>
</svg>