<?xml version="1.0" encoding="UTF-8"?>
<svg id="Layer_1" data-name="Layer 1" xmlns="http://www.w3.org/2000/svg" viewBox="0 0 402.21 396">
  <defs>
    <style>
      .cls-1 {
        fill: #000;
        stroke-width: 0px;
      }
    </style>
  </defs>
  <polygon class="cls-1" points="226.18 173.73 226.17 173.74 226.17 173.74 226.18 173.73"/>
  <polygon class="cls-1" points="237.17 202.92 237.17 202.92 237.17 202.92 237.17 202.92 237.17 202.93 237.17 202.92"/>
  <polygon class="cls-1" points="209.26 207.58 209.26 207.58 209.26 207.58 209.26 207.58"/>
  <path class="cls-1" d="M385.13,355.93c-.16-.53-.32-1.08-.59-1.99,1.02.56,1.66.92,2.29,1.27,1.17-1.81,1.67-1.94,3.75-1.2.52.19,1.14.11,2.19.2-.63-1.24-.98-2.06-1.45-2.81-.92-1.48-1.88-2.94-2.89-4.36-.26-.36-.74-.74-1.15-.77-.92-.09-1.91-.14-2.95.64,2.07.37,1.65,1.95,2.15,3.12-1.67.05-3.41-.75-3.69-1.62.3-.43.6-.86,1.02-1.46-1.11-.71-2.1-1.33-3.08-1.97-1.26-.83-.9-2.26-1.16-3.41-1.34-.44-2.64-1.27-3.83-1.15-1.43.14-2.4-.22-3.46-.99-.71-.52-1.56-.82-2.42-1.26.16-1.12.74-1.99,1.82-2.5,1.97.93,2.44.69,3.05-1.57-.87-.64-1.77-1.29-2.7-1.97.86-.28,1.7-.56,2.43-.8.59-1.75-.42-2.52-2.17-3.33,2.81-.75,5.04-1.34,7.46-1.98-.91-.96-1.76-1.86-2.61-2.76-1.21-1.27-.99-2.17.71-2.73,1.29-.43,2.61-.8,4.09-1.25-.82-.68-1.46-1.21-2.07-1.71-.75.08-1.45.16-2.15.24-.08-.15-.16-.3-.23-.45.91-1.34,1.83-2.68,2.79-4.09-.58-.46-1.11-.87-1.87-1.46.71-1.18,1.39-2.31,2.07-3.44l-.03-.04s.06-.05.09-.07c-.22-1.09-.5-2.16-.66-3.26-.33-2.22-.48-4.47-.93-6.66-.57-2.78-1.91-5.25-3.74-7.43-.39-.47-.94-.87-1.49-1.14-4.24-2.07-8.84-3.13-13.3-4.59-.39-.13-.86-.19-1.25-.1-1.77.4-3.15-.43-4.52-1.33-.82-.53-1.59-1.42-2.46-1.54-2.89-.4-5.5-1.66-8.27-2.4-2.84-.76-5.68-1.56-8.47-2.5-4.32-1.46-8.44-3.48-12.91-4.54-.27-.06-.59-.15-.76-.34-.79-.87-1.81-.99-2.88-1.05-.41-.02-.82-.2-1.21-.33-2.99-1-5.97-2.04-8.97-3-2.4-.77-4.86-1.38-7.25-2.19-2.59-.87-5.09-1.98-7.69-2.83-3.13-1.04-6.31-1.93-9.48-2.88-.61-.18-1.22-.33-1.83-.52-1.2-.38-2.44-.67-3.57-1.19-2.87-1.33-5.64-2.83-8.76-3.59-1.73-.42-3.38-1.2-5.06-1.84-.77-.29-1.52-.65-2.29-.93-1.91-.69-3.97-1.09-5.71-2.07-2.79-1.58-6.16-1.8-8.69-3.97-.73-.62-2.05-.48-2.95-.97-2.23-1.2-4.77-1.53-6.99-2.86-2.2-1.32-4.82-1.93-7.18-3.03-2.03-.95-3.93-2.16-5.91-3.22-.67-.36-1.38-.67-2.1-.9-2.25-.74-4.48-1.53-6.47-3.01q1.89-1.11,1.11-2.89c-.65-1.48-.53-1.51.74-2.59,1.1-.94,2.29-1.97,2.91-3.22.48-.96,1.11-1.37,1.9-1.77.6-.3,1.25-.51,2.08-.85-.68-.57-1.19-.99-1.67-1.39.22-.48.38-.83.53-1.13-.52-.35-.95-.65-1.41-.96.63-.96,1.17-1.79,1.74-2.67-2.55-.93-4.17-.05-3.73,1.94.32,1.43.03,2.41-.86,3.43-.31.35-.44.87-.61,1.33-.62,1.64-.7,1.69-2.73,1.14-.06-.64-.11-1.31-.18-2.08-1.17.35-2.2.66-3.3.99-.09.63-.18,1.25-.24,1.64-1.67,1.58-3.15,3.11-5.05,4.09h-.01s0,0,0,0c-.05-.95-.1-1.9-.16-3.18-.76.28-1.4.52-2.03.75.25,1.49.8,2.36,2.18,2.45-1.57.85-2.39.61-3.42-.97-.25-.39-.49-.91-.86-1.08-1.53-.7-3.12-1.27-4.67-1.94-.82-.35-1.65-.74-2.37-1.25-1.51-1.08-2.94-2.25-4.41-3.38.03-.14.08-.27.07-.41,0-.52-.02-1.04-.04-1.56-.51.08-1.02.14-1.52.24-.31.06-.61.19-1.26.4.54-1.36.95-2.39,1.37-3.45-2.71-.65-3.02-1.06-2.51-2.99,2.8-.19,3.46.3,4.04,2.97.07.34.15.69.29,1.01.64,1.49,2.33,1.76,3.42.54.18-.2.24-.51.42-.73.91-1.13,2.28-1.09,3.49-1.12.55-.01,1.15.84,1.68,1.35.38.37.67.83,1.02,1.27.89-.46,1.62-.84,2.64-1.37-1.2-1.07-2.26-2.01-3.34-2.97.71-2.53,1.3-2.85,3.23-1.81.48-.31.94-.86,1.36-.82,1.25.1,1.96-.58,2.65-1.42-.09-.69-.19-1.38-.29-2.17-.63-.39-1.34-.54-1.94.26-.92,1.22-2.22,1.47-3.63,1.81-1.8.43-4.01.69-4.14,3.38-.01.3-.47.66-.8.85-.58.32-1.23.53-1.86.79-.43-1.28-.46-1.31.28-2.06,1.06-1.08,1.95-2.21,1.49-3.91,1.72-1.09,4.35,0,5.35-2.39-.41-.47-.88-.9-1.21-1.42-.68-1.09-.47-1.83.57-2.47,1.85-1.13,3.73-2.21,5.51-3.44,1.41-.98,2.64-2.19,3.82-3.82-1.88-.38-3.29.12-4.53,1.05-.76.57-1.42,1.05-2.56.45.48-.53.91-.89,1.2-1.34.82-1.27,1.88-1.46,3.39-1.48,1.66-.03,3.3-.92,4.94-1.46.17-.06.31-.28.42-.46.46-.77.9-1.55,1.41-2.43-.41-.34-.82-.69-1.3-1.1.62-1.5,1.17-3.02,1.88-4.46.69-1.41,1.57-1.52,2.86-.7.54.34,1.24.5,1.89.58,1.02.14,2.07.07,3.08.22.76.12,1.34.08,1.77-.72-.98-.3-1.84-.57-2.7-.84-.08-.6-.1-1.09-.21-1.56q-.89-3.48,2.24-5c-.25-.62-.29-1.08.32-1.66,1.03-.97,1.87-2.14,2.79-3.23-.74-1.39.81-1.51,1.24-2.25.49-.83.98-1.66,1.34-2.55.35-.85.53-1.77.77-2.63,1.73.11,1.7,1.3,1.74,2.33.07,1.41.18,3.09-1.43,3.64-1.84.63-2.4,2.13-3.38,3.62.99.21,1.58.3,1.9-.8.4-1.38.96-1.64,2.34-1.4.8.14,1.58.42,2.36.63l.02.41c-.8.39-1.59.78-2.84,1.39,1.01.25,1.54.5,2.04.47,1.28-.07,2.52-.14,3.7.51.28.15.69.1,1.03.09.96-.05,1.91-.88,2.08-1.77.15-.8-.44-1.43-1.67-1.79-1.39-.4-1.78-1.03-1.49-2.45.16-.77.33-1.54.57-2.66,1.54,2.11,3.45,3.08,5.88,2.71.6,1.47.76,2.66-.39,3.82-.4.41-.61,1.08-.76,1.66-.44,1.76-1.41,2.58-3.23,2.68-.69.04-1.38.18-2.07.29-.89.15-2.02.05-2.6.56-.55.48-.53,1.62-.75,2.45-.15.06-.28.17-.4.16-.53-.05-1.24-.39-1.24.52,0,.26.68.72,1.05.72,1.21.02,1.91.77,2.58,1.58.58.7,1.06,1.49,1.58,2.24,1.12.11,1.39.96,1.31,1.83-.14,1.57-.46,3.13-.73,4.87.24.13.65.35,1.05.56-.21.53-.42,1.07-.69,1.77.99.11,1.72.19,2.48.27.18.47.35.85.48,1.24.13.39.24.79.39,1.29-.52.42-1.04.78-1.48,1.22-.37.37-.76.79-.97,1.26-.66,1.53-2.56,1.97-4.01.82.54-.47,1.06-.94,1.59-1.4-2.23-.37-4.24-.92-6.2-2.05-.05,1.97,2.11,1.69,2.57,3.06-.62,1.59-1.26,3.22-1.99,5.09,1.31.02,2.68.04,4.05.06.7-.73,1.41-1.47,2-2.09.92.33,1.53.71,2.16.75,2.17.14,4.36.17,6.68.25-.05-.34.01-.81-.17-.96-1.27-1.01-2.73-.45-4.13-.26.03-1.6.92-2.66,2.56-3.11,1.78-.48,3.47-1.1,4.79-2.47.23-.24.6-.34.88-.54.58-.42,1.14-.87,1.88-1.44.16.02.62.09,1.38.21.02-.87.12-1.6.03-2.31-.11-.87-.41-1.72-.59-2.58-.1-.46.03-1.17-.24-1.36-.43-.32-1.1-.3-1.62-.41.17-1.16.33-2.34.5-3.49,1.77-1.37,3.78-1.69,5.91-1.95,2.94-.35,2.71.41,3.93,2.19.2.3.22.73.33,1.1,1.21-.27,1.03-1.04.78-1.68-.44-1.12-1-2.2-1.54-3.36,2.96-3.49,5.21-7.4,5.88-12.24.93.53,1.69.96,2.45,1.39-1.03,2.2-.81,2.67,1.43,2.95.16-.86.32-1.74.49-2.71,1.55-.24,2.58-.93,2.61-2.7,0-.39.78-.73,1.09-1.17.34-.48.72-1.02.78-1.57.23-1.93.34-3.87.49-5.75,2.63-.84,4.03-2.4,4.2-4.94.1-1.47.17-2.92.88-4.29.26-.51.1-1.23.14-1.86.03-.47.07-.93.12-1.56,2.04.48,1.83-1.8,2.86-2.05.21-1.46.37-2.67.54-3.87,0,0-.01,0-.01,0-3.05,1.07-5.01-.76-4.8-4.6,1.01.05,2.02.1,3.2.16q.84,1.21,2.9,1.25c.27-.62.56-1.3.85-1.99-1.69-.59-3.31-.73-5.04-1.77q2.33-.07,3.47-.84c-.29-1.8-.28-3.51.73-5.18.44-.74.76-2.08.38-2.65-.47-.72-.48-1.31-.56-2.05-.17-1.49.51-3.33-1.53-4.16-.13-.05-.21-.38-.21-.57,0-2.31-1.27-4.09-2.45-5.91-.19-.29-.51-.56-.56-.88-.34-2.05-1.67-3.29-3.17-3.99.26-.65.72-1.22.59-1.58-.29-.82-1.12-.62-1.57-.19-.48.46-.72,1.17-1.06,1.77-.13-.06-.36-.11-.36-.18-.21-2.7-2.61-3.71-4.25-5.18-.94-.84-2.2-1.38-3.12-2.4-1.32-1.47-1.56-2.39-.2-3.75,1.2-1.21,1.06-2.36.39-3.63-1.42-2.66-2.69-5.34-2.45-8.48.16-2.08.28-4.16.45-6.61-.65-.7-.88-1.89-.99-3.3-.16-2.14-.54-4.38-1.39-6.34-1.75-4.06-2.42-8.41-3.77-12.57-1.2-3.7-2.16-7.5-4.84-10.52-.42-.47-.76-1.03-1.04-1.59-2.05-4.16-4.96-7.62-8.4-10.68-3.07-2.73-6.47-5-10.09-6.88-3.24-1.68-6.7-2.95-10.06-4.39-.45-.19-.93-.32-1.4-.44-4.36-1.1-8.73-2.22-13.1-3.28-3.11-.76-6.11-2.17-9.45-1.66-.26.04-.54-.13-.82-.18-1.93-.35-3.84-.81-5.79-1-3.78-.36-7.57-.56-11.36-.81-.49-.03-.98.02-1.47.06-2.03.16-4.06.34-6.08.5-2.1.17-4.22.21-6.31.51-4.52.66-9.02,1.46-13.54,2.17-2.77.44-5.55.89-8.34,1.18-1.95.2-3.69-.23-3.79-3.04-.13-3.51-.52-7-.85-10.5-.06-.69-.24-1.41-.55-2.01-.4-.77-1.21-1.19-1.93-.55-1.44,1.26-2.98.9-4.6.67-1.02-.15-2.35-.43-3.06.05-1.67,1.12-3.32,2.46-4.49,4.07-2.16,2.96-5.56,3.13-7.55.08-.23-.35-.34-.78-.58-1.12-.25-.37-.59-.69-1.08-1.25-.54.84-.93,1.48-1.35,2.09-.63.92-1.23,1.88-1.95,2.74-.76.91-1.56,1.81-2.47,2.57-1.83,1.52-3.65,3.1-5.68,4.3-.9.53-1.73.98-2.48,1.76-1.38,1.44-3.01,2.54-5.2,1.85-3.08-.96-5.5.32-7.77,2.23-.68.57-1.44,1.33-2.23,1.41-1.9.19-3.17,1.01-3.93,2.71-.41.92-1.11,1.16-2.07,1-1.04-.17-2.1-.24-3.15-.34-1.14-.11-2.26-.25-2.89,1.1-.14.29-.67.43-1.05.55-.46.14-.96.15-1.43.27-1.56.38-3.12.75-4.67,1.18-1.68.46-3.47.75-4.99,1.54-2.44,1.28-4.92,1.51-7.52,1.05-2.15-.38-4.26-1.05-6.42-1.25-1.97-.18-3.94,0-5.49-1.58-.23-.23-.63-.3-.95-.45-2.07-.94-2.87-.37-2.73,1.88.06.94.5,1.86-.17,2.85-.63.94-.29,1.64.83,1.74,1.02.1,2.14.06,3.1-.27,1.88-.63,3.59-.42,5.3.44.41.2.83.36,1.21.53-.03,1.13-.54,1.35-1.52,1.33-1.09-.03-2.25.12-3.28.48-1.37.48-1.59,1.41-.89,2.67.22.39.45.78.7,1.2-2.28.74-3.77,2.36-3.23,3.4.5.2,1.01.41,1.59.65-.73.89-2.34,0-2.37,1.57,2.26,2.71,2.32,3.15.65,5.04-.76-.71-1.47-1.48-2.3-2.11-2.35-1.8-3.6-1.23-3.95,1.76-.04.34-.1.75.04,1.03.71,1.48-.01,2.51-.91,3.61-.6.74-1.12,1.66-1.32,2.57-.28,1.34-.67,2.5-1.53,3.62-1.41,1.83-.85,3.08,1.78,3.73-1.75,1.2-3.24,2.31-4.83,3.28-1.68,1.03-3.46,1.84-4.21,3.92-.19.52-1.01,1.09-1.58,1.14-2.11.16-3.77,1.29-5.56,2.17-2.39,1.17-4.83,2.26-7.24,3.39-.45.21-.9.41-1.35.6-1.93.85-3.83,1.75-5.78,2.52-1.68.67-3.11,1.65-4.25,3.03-1.02,1.23-.92,2.87.17,4.04,1.14,1.23,2.89,1.59,4.65.83,1.08-.46,2.14-.81,3.24-.21,1.36.74,2.71,1.51,3.99,2.37.32.22.48.81.55,1.26.37,2.5.65,5.01,1.04,7.51.21,1.38.85,2.69.35,4.15-.11.31.18.79.36,1.15.96,1.89.81,2.98-.94,4.13-1.1.72-1.51,1.57-1.43,2.8.09,1.37-.17,2.65-.99,3.8-.6.84-.61,1.78-.5,2.82.25,2.36.45,4.75.41,7.12-.01,1.07.16,1.9.81,2.71.64.8,1.2,1.66,1.85,2.57-1.67,1.42-4.17.27-5.55,2.37.68.61,1.33,1.21,2.15,1.96-.86,1.99.78,2.36,2.18,2.93.55.22,1.07.51,1.6.76.07.19.15.37.22.56-.36.2-.7.51-1.08.57-.81.12-1.65.19-2.47.14-1.47-.09-2,.11-2.43,1.13-.36.86-.31,1.57.48,2.25,1.9,1.65,1.82,1.66.81,3.78-.28.58-.33,1.36-.22,2.01.37,2.19,1.01,4.37-1.11,6.12-.28.23-.41.75-.46,1.15-.15,1.18-.31,2.37-.32,3.56-.02,2.54.05,2.59,2.6,2.87.21.02.49.01.6.14.3.35.74.76.73,1.15,0,.35-.49.74-.83,1.02-.19.15-.54.09-.82.14-1.66.31-2.14.79-2.27,2.5-.08.98-.06,1.97-.02,2.96.07,1.69.3,1.9,1.93,2.19.62.11,1.27.19,1.82.47.82.42,1.62,1,1.52,2.08-.09,1.01-.48,1.92-1.5,2.39-.26.12-.52.24-.79.3-1.32.32-1.71,1.21-1.78,2.5-.05.87-.38,1.77-.75,2.57-.72,1.53-.89,3.02.21,4.37.94,1.14,1.06,2.07-.18,3.02-.2.15-.35.48-.37.74-.19,2.52-.4,5.05-.45,7.57-.01.48.59,1.03,1.02,1.44.32.3.81.43,1.67.85-2.34.79-3.12,2.26-3.23,4.27-.07,1.39-.44,2.76-.66,4.14-.24,1.5-.44,2.91,1.32,3.8,1,.5.93,1.62-.18,2.08-1.85.77-2.16,2.14-2.19,3.9-.04,2.32.61,4.73-.7,6.94-.16.27-.09.69-.12,1.04-.19,2.45-.27,4.93-.61,7.36-.24,1.68.15,2.84,1.61,3.75,1.36.84,1.44,1.78.08,2.55-1.87,1.05-3.09,2.34-3.04,4.58,0,.13-.11.26-.13.4-.29,1.87-.66,3.74-.8,5.62-.05.69.33,1.47.68,2.12.71,1.33.72,1.91-.53,2.85-.78.59-.97,1.28-1.06,2.16-.18,1.9.26,3.48,1.97,4.56.26.17.42.5.68.82-.32.33-.51.65-.79.81-1.28.76-1.6,1.94-1.41,3.28.12.81.39,1.62.73,2.36.94,2.01.64,4.03-.88,5.6-.49.5-.96,1.04-1.35,1.62-1.31,1.94-1.05,3.24.83,4.59.1.07.12.24.18.36-2.58.96-2.78,1.35-2.83,4.17-.03,1.82-.16,3.66-.46,5.46-.32,1.93-.11,3.5,1.89,4.36.08.04.1.24.2.54-.38.46-.79,1.02-1.26,1.53-1.65,1.75-1.78,4.27-.42,6.32.69,1.04,1.26,2.18,1.79,3.32.16.34.18.88.03,1.21-.68,1.45-1.35,2.93-2.23,4.27-1.07,1.64-1.21,2.04.09,3.48.76.84,1,1.58.57,2.65-.48,1.2-.38,2.34.82,3.19.3.21.67.8.58,1.02-.75,1.64.12,3.52-.88,5.13-.58.92-.03,1.78.72,2.4.36.3.85.44,1.3.66,0,1.31-.22,2.46-1.08,3.4-.51.56-.85,1.17-.47,1.91.65,1.28.07,2.09-.88,2.9-1.2,1.02-1.74,2.32-1.45,3.96.51,2.89,2.68,4.88,5.62,5.05.77.04,1.55.01,2.32.11.88.12,1.59.49,1.65,1.64-.38.14-.68.29-1.01.36-.72.16-1.09.59-1.14,1.32-.05.82.08,1.6.87,2,.49.25,1.06.32,1.6.48.93.27,1.9.43,2.76.83.82.38,1.5.3,2.18-.16,2.81-1.89,5.73-1.18,8.68-.42,1.68.43,3.4.74,5.13.96.56.07,1.2-.3,1.77-.55.43-.19.8-.51,1.29-.83.93,1.24,1.76,2.47,3.44,2.6.31.02.7.49.87.84,1.23,2.53,2.44,5.07,3.58,7.64.21.46.25,1.17.05,1.62-1.13,2.55.06,4.9.83,7.13.75,2.16,2.15,4.11,3.38,6.08.51.81,1.31,1.43,2.01,2.11.64.63,1.35,1.19,1.94,1.85,2.46,2.73,5.43,4.81,9.14,4.49,2.7-.23,4.42.64,5.94,2.55.09.11.2.2.3.3,1.19,1.27,2.66,1.7,4.39,1.67,2.25-.05,4.16-1.19,6.26-1.72.68-.17,1.5-.65,2-.43,2.04.91,3.95.61,5.92-.1.38-.14.84,0,1.26-.06.69-.09,1.4-.16,2.06-.38,4.13-1.35,8.26-2.72,12.37-4.12.59-.2,1.26-.45,1.66-.89,1.32-1.48,2.98-2.33,4.84-2.78,1.61-.39,2.33-1.51,2.2-2.92-.19-1.93,1.07-2.76,2.23-3.74.32-.27.76-.39,1.08-.65.68-.56.64-1.29-.12-1.7-.36-.2-.79-.28-1.2-.38-.91-.23-.81-.82-.54-1.47h0s0,0,0,0c-.12-.61-.13-1.28-.41-1.81-.25-.48-.8-.82-1.2-1.21.36-1.39,1.57-1.73,2.48-2.2-.19-.9-.36-1.66-.64-2.95,1.56.67,2.6,1.11,3.54,1.51-.07.87-.13,1.5-.18,2.12,1.7-2.07,2-2.89,1.5-4.37-.19-.58-.25-.9.03-1.5.47-.99-.07-1.46-1.25-1.36-.73.06-1.47.01-2.16.01-.79-2.36.52-3.82,1.75-5.62.78.75,1.35,1.48,2.09,1.96,1.17.75,1.33,1.53.79,2.81-.67,1.56-.05,2.15,1.91,2,.33-.88.6-1.84,1.03-2.71.48-.97.45-1.81-.1-2.75-.69-1.19-1.25-2.45-1.89-3.72,1.07-.8,2.03-1.5,2.95-2.24.31-.25.76-.65.73-.94-.17-1.86.65-3.76-.36-5.61-.36-.67-.5-1.74-.22-2.41.53-1.28.67-2.55.67-3.89,0-1.68.19-3.37.12-5.04-.13-3.17.63-6.37-.44-9.5-.27-.79.02-1.54.79-2,.34-.2.69-.38.81-.45-.45-1.3-1.03-2.38-1.16-3.51-.19-1.73-.29-3.53-.03-5.24.43-2.78-.71-5.61.41-8.34.02-.06-.01-.14-.02-.21-.25-2.02-.38-4.07-.79-6.06-.29-1.42-.96-2.75-1.41-4.14-.14-.44-.27-.99-.13-1.4,1.1-3.27,1.66-6.6,1.62-10.05,0-.76.33-1.68.82-2.26.78-.91,1.58-1.71,2.06-2.87.66-1.56,1.94-1.73,3.22-.61.46.4.85.91,1.19,1.28-.18.67-.32,1.17-.47,1.74.78.28,1.41.51,2.04.73-.14.82-.39,1.52-.33,2.19.05.56.39,1.5.74,1.57,1.21.23,2.63.55,3.68.12,1.8-.74,3.26-.27,4.83.4,1.02.43,1.5,1.08,1.48,2.27-.03,1.89.25,2.1,2.12,1.58,1.67-.46,3.14.05,4.4.92,1.21.83,2.58,1.89,1.89,3.74-.23.62-.82,1.11-1.35,1.8.64.39,1.27.78,1.86,1.14q1.33-1.26,2.46-.08c-1.57,2.12-1.53,2.31.94,5.07,1.05-.17,1.62-.72,1.47-1.87-.04-.34-.04-.71.05-1.04.42-1.6,1.76-2.64,2.85-2.07,1.08.57,2.26,1.13,2.89,2.26-.94,1.88-.86,2.12.83,2.59.87.24,1.9.29,2.58.81.95.73.06,1.84.09,2.78.04,1.15.8,1.77,1.77,1.2.6-.35,1.08-1.07,1.38-1.73.98-2.14,1.15-2.24,3.31-1.44.59.22,1.23.3,1.82.5.56.19,1.1.45,1.84.76-.79.98-1.64,1.66-1.93,2.52-.3.92-.07,2.01-.07,3.03.3.09.62.25.67.19.43-.55.82-1.13,1.32-1.84.24.36.56.62.57.89.02.55-.24,1.13-.16,1.66.06.37.47.9.79.95.61.09.75-.42.71-1-.03-.51-.09-1.14.17-1.51.29-.42.89-.71,1.41-.87,2-.62,3.63.74,3.41,2.79-.09.82-.16,1.63-.23,2.38.31.14.43.25.55.25,2.75.08,2.74.08,2.97,2.74.03.34.34.66.74,1.4.61-1.37,1.06-2.36,1.5-3.35.66-1.49,1.21-1.95,2.74-1.69,1.22.21,2.43.69,3.55,1.24.49.24.86.94,1.04,1.51.37,1.2.68,2.44.81,3.68.31,2.99,2.17,5.13,3.94,7.28.99,1.21,1.84.99,2.75-.34-1.73-1.61-2.01-2.28-1.43-4.02.16-.47.66-1.15,1.03-1.16,1.45-.07,2.97-.14,4.35.23,1.47.4,2.24,2,2.02,3.49-.14.92-.02,1.64.7,2.29.3.27.57.66.66,1.04.53,2.18,2.2,3.85,2.67,6.05.05.24.31.48.52.64,1.01.78,2.83.18,2.77-1.01-.08-1.48.11-3.09-1.37-4.24-.6-.47-.95-1.36-1.19-2.14-.14-.44.03-1.28.34-1.48.45-.28,1.22-.32,1.75-.14.71.24,1.31.81,1.98,1.18,1.75.98,1.83,1.06.8,2.89-.7,1.24-.24,2.36.17,3.44.36.94,1.67,1.16,2.53.54.34-.24.62-.57.87-.91.86-1.15,1.91-1.61,3.31-1.04.32.13.68.18,1.02.23,2.09.3,2.29.57,2.63,2.57.32,1.87.12,3.93,2.11,5.6-1.39.34-2.39.58-3.39.83.27-.95.37-1.91-.82-2.25-1.31-.37-1.78-1.18-1.76-2.48.01-.74-.29-1.48-1.15-1.51-.87-.03-1.93-.29-2.52.63-.49.77.07,1.42.5,2.09,1.36,2.12,3.83,2.36,5.76,3.51,1.66,1.11,3.9,1.33,4.96,3.35.12.24.6.33.93.4.95.19,1.91.33,2.84.49.99-2.21.18-3.89-2.56-5.45.88-1.03,1.77-2.06,2.52-2.93,1.02.5,1.9.87,2.71,1.35,1.13.67,2.19,1.48,3.32,2.15,1.42.83,2.8,1.91,4.61.75.83-.53,2.34-.08,2.99.84.88,1.24,1.72,2.51,2.45,3.84,1.02,1.85.94,1.98-.7,3.12,1.52.48,2.53.02,5.54-2.59,1.08,1.04,2.08,2.26,3.76,2.41.25.02.48.46.7.73.53.64,1,1.32,1.57,1.92,1.15,1.23,1.27,1.82.33,3.28-.51.79-.54,1.44.22,2.02.73.55,1.26.31,2.02-.71.36-.49.83-1.22,1.29-1.25,1.33-.08,1.83-1.11,2.63-2.06.47.49.95.82,1.19,1.28.61,1.15,1.52,1.64,2.79,1.97,1.09.28,2.02,1.21,3.18,1.96.23-2.06.41-3.78.6-5.47,2.61-.53,4.64.75,6.84.99-.1.58-.19,1.09-.31,1.75.44,0,.71.04.97,0,2.63-.48,5.28-1.09,7.56,1.04.14.13.39.15.58.23,2.27.96,5,.66,6.94,2.58.27.27.95.2,1.43.19,1.14-.03,2.2.31,2.75,1.27,1.15,2.01,3.5,2.65,4.79,4.63,1.16-1.04,2.81-1.08,3.66-2.44-.85-1.13-2.5-1.62-2.28-3.33,2.81-.68,4.79.78,6.79,2.17-.05.22-.03.39-.11.48-.99,1.29-.84,1.9.57,2.4,1.19.42,2.36.88,3.49,1.3,3.11-1.68,6.18-.68,7.53,2.6-.74.31-1.45.73-2.22.92-1.46.36-2.71-.46-4.03-.89-.4-.13-.86-.07-1.29-.1.2.46.27,1.06.62,1.36.68.59,1.49,1.06,2.29,1.5,1.02.57,1.33,1.39,1.07,2.48-.08.33-.12.66-.2,1.09.83.2,1.58.34,2.31.55.73.21,1.41.66,1.17,1.49-.5,1.71.37,2.48,1.77,3.01.15.06.23.33.35.52-.09.21-.13.43-.25.58-1.44,1.77-1.39,2.4.49,3.65,1.35.89,2.78,1.65,4.18,2.47.78.46,1.6.6,2.4.08,1.17-.75,2.2-.44,3.36.15,1.24.64,2.57,1.6,4.01.22.17-.17.66.03,1,0,.41-.03.86,0,1.22-.18,1.45-.67,2.86-1.43,4.31-2.11.32-.15.73-.13,1.13-.19-.19,2.67,1.11,3.84,3.78,3.43-1.27-.91-1.65-2.06-1.18-3.63.61,0,1.23-.17,1.69.03,1.64.7,3.24,1.51,4.84,2.3,1.39.69,2.77,1.42,4.15,2.14-.32-2.02-1.6-3.15-3.11-3.74-1.07-.42-1.8-.92-2.38-1.86-.36-.59-.85-1.15-1.41-1.56-1.01-.75-1.4-1.66-1.02-2.78-2.44-2.17-3.16-3.15-3.62-4.88.36-.24.71-.49,1.19-.81-.74-.66-1.37-1.12-1.87-1.69-.28-.33-.62-1.01-.47-1.22.26-.38.85-.71,1.33-.74,1.55-.09,2.42.88,3.05,2.17.29.59.37,1.26,1.22,1.58,1.92.72,1.92,1.19.67,2.99-.35.49-.6,1.57-.33,1.89,1.17,1.34,1.64,3.55,4,3.56-.34-.49-.69-.99-1.11-1.59,1.07-.65,1.89-.05,3.06.17-.45.73-.78,1.28-1.12,1.83.09,2.77,1.98,4.01,4.47,2.74-.62-.66-1.21-1.29-1.86-1.99.41-.48.76-.87.98-1.12-.55-.8-1.02-1.49-1.68-2.46,1.3.08,2.17.13,3.47.2-.66-1.21-1.12-2.04-1.58-2.88-.41-.56-.86-1.09-1.19-1.7-.09-.17.21-.55.34-.84h0c-.21-.52-.32-1.12-.66-1.53-1.41-1.72-2.87-3.41-4.36-5.06-.52-.57-.87-1.06-.5-1.85.17-.35.18-.78.25-1.11-2.24-1.63-2.46-2.87-1.06-5.9.36,1,.56,1.96,1.03,2.77.49.83,1.25,1.51,2.14,2.55.18.05.79.2,1.45.36.41-.68.79-1.32,1.21-2.02.7.63,1.24,1.31,1.94,1.68,1.34.71,2.1,1.8,2.64,3.15.19.49.52,1.17.93,1.29,2.18.68,2.89,2.7,4.08,4.27.56.75,1.06,1.54,1.67,2.44-.03.26-.12.68-.14,1.1-.08,1.6.19,1.95,1.77,2.33.34.08.69.15,1.04.16,1.21.05,2.38.09,3.23,1.19.16.21.9.27,1.08.1.28-.27.49-.83.43-1.22-.13-.82-.57-1.58-.7-2.4-.27-1.7-.82-3.2-1.92-4.59-1.04-1.31-1.82-2.83-2.7-4.27-.43-.69-.32-1.34.25-1.91.6.51,1.2.98,2.2.35-.29-.71-.81-1.4-.8-2.08.02-1.6-.84-2.59-1.87-3.59-.5-.49-1.24-.99-.84-2.02,1.23-.01,1.95.62,2.48,1.61.33.6.62,1.32,1.14,1.71.97.72,1.49,1.64,1.85,2.74.26.79.46,1.99,1.01,2.23,1.68.72,2.46,2.26,3.67,3.39.33.31.74.53,1.11.79.14-.18.22-.25.21-.29-.45-1.17-.88-2.35-1.37-3.5-.19-.44-.51-.84-.8-1.23-.4-.54-1.1-1.02-1.17-1.58-.07-.62.43-1.31.68-1.97-1.75-.61-2.06-1.51-.65-2.54,1.3-.95,1.28-2.05,1.02-3.35-.08-.39-.18-.78-.29-1.26.8-.15,1.47-.28,2.13-.41-.02-.04-.04-.09-.07-.13.01,0,.02,0,.03,0ZM387.81,349.74c.12.33.25.66.37.99-.12.05-.24.09-.37.14-.12-.33-.25-.66-.37-.99.12-.05.24-.09.36-.14ZM285.81,128.32h-3.71c1.71-1.13,2.32-1.13,3.71,0ZM281.62,126.23c.15.09.3.19.46.28-.12.18-.19.29-.26.4-.13-.11-.29-.21-.38-.35-.03-.06.11-.22.18-.33ZM277.59,148.51c1.01.28,1.86,1.12,2.78,1.72-.06.17-.11.35-.17.52-.64-.16-1.51-.11-1.88-.51-.96-1.04-2.04-1.12-3.28-.94-.23.03-.48-.1-1.05-.23,1.31-1,2.57-.85,3.6-.57ZM271.3,128.92c.13.12.37.25.36.37-.02.22-.17.44-.33.79-.23-.27-.46-.45-.43-.54.07-.22.26-.41.4-.61ZM270.28,158.04c.14,0,.28.21.47.36-.17.19-.3.32-.42.46-.16-.16-.31-.31-.47-.47.14-.12.27-.34.41-.35ZM268.45,161.18c.56.07,1.15.07,1.7.24.59.18,1.12.55,1.7.79,1.77.72,1.92,1.13,1.03,3.17-1.72-.41-3.44-.82-5.31-1.27.26-.89.53-1.77.88-2.93ZM241.44,163.5c-.1-.14-.21-.28-.32-.42.15-.07.34-.24.42-.2.13.06.17.28.25.43-.1.06-.21.11-.36.19ZM242.71,183.42c-.98-1.79-1.82-3.35-2.85-5.24.49-.27,1.05-.74,1.68-.89.85-.21,1.44-.43,1.96-1.29.78-1.28,2.88-1.22,3.86-.05.61.73,1.14,1.51,1.85,2.46-2.25,0-3.31,1.5-4.42,3.04-.54.75-1.36,1.3-2.08,1.97ZM250.85,165.19c-1.37.08-1.65-.48-1.16-1.81.07-.19.09-.39.15-.63-1.19-.78-1.45.9-2.33.81-1.03-1.34-.83-2.06,1.24-4.17.22.25.45.49.66.75,1.16,1.45,1.16,1.38,2.93.57.83-.38,1.84-.39,2.68-.54,1.17,2.39.91,3.37-1.14,4.29-.94.42-2.01.69-3.04.74ZM251.2,167.5c-.48.5-1.08.89-1.64,1.32-.16-.17-.33-.34-.49-.51.33-.59.58-1.23,1.02-1.73.17-.19.76-.12,1.09,0,.12.05.18.74.02.91ZM249.85,194.45c-.83.93-2.23,1.34-3.83,2.24.51-1.77.9-3.11,1.32-4.54.49-.26,1.03-.55,1.58-.85-.3-.72-.57-1.35-.94-2.24-.82-.05-1.77-.13-2.72-.17-1.36-.06-1.65-.61-1.01-1.86.56-1.09,1.43-2.16.27-3.69,1.28-.38,2.42-.71,3.61-1.06.72,1.79-1.04,2.81-.65,4.45,1.37.29,2.84.6,4.7,1-.56.47-.82.68-1.19,1,.24.5.45.93.68,1.41-.51.61-.98,1.18-1.45,1.74.06.12.12.24.19.36.65-.16,1.31-.33,2.06-.52.04,1.83-1.78,1.83-2.59,2.73ZM252.53,173.13c1.5-1.03,3.35-1.2,4.85-.34-.42.48-.8.92-1.19,1.36h0c-1.29-.05-2.65.12-3.66-1.03ZM256.2,174.16c.64.06,1.36-.01,1.69.94-1.05.36-1.34-.35-1.69-.94ZM259.97,168.75c.44-1.13.77-1.95,1.12-2.85.21.13,1.28-.95,1.19.72-.02.37.88.79,1.52,1.34-1.4.29-2.48.52-3.83.8ZM263.23,133.98c.06.17.17.35.17.52,0,.09-.19.25-.29.24-.19-.01-.38-.12-.79-.27.59-.32.75-.41.91-.5ZM262.83,157.47c.2.3.04.84.04,1.27-.5,0-1.19.19-1.44-.07-.44-.43-.61-1.14-.93-1.81,1.33-.56,1.92-.03,2.34.6ZM261.73,146.66c.1,1.5,0,2.4-1.25,2.92-1.16.48-1.82,1.49-2.16,2.71-.17.61-.39,1.21-.68,1.77-.3.57-.74,1.01-1.67.65.22-.42.43-.75.56-1.1.31-.83.85-1.69.81-2.51-.07-1.66.58-2.68,2.04-3.31.69-.3,1.36-.65,2.35-1.13ZM256.83,88.27c.17-.05.34-.1.51-.15.29.37.74.71.84,1.13.15.66.16,1.39.03,2.05-.07.35-.54.63-.83.94-.31-.33-.87-.66-.87-1-.01-.99.2-1.98.32-2.97ZM257.65,140.48c-1.8.25-1.9.14-2.29-2.7,1.68.3,1.95.61,2.29,2.7ZM255.36,147.54c.25,2.3.61,4.33-1.22,6.06-.78.74-1.4,1.65-2.12,2.52,1.35,1.34,2.75,0,3.97.48q-.78,1.69-2.41,1.38c-.14-.03-.27-.08-.41-.09-1.04-.06-2.34.16-2.85-.91-.71-1.47-1.25-3.08-.74-4.76,1.59-.33,3.08-.65,4.45-.94.52-1.31-.82-2.93,1.33-3.75ZM252.9,142.83c.4.9.74,1.67,1.08,2.45-.05.04-.13.18-.25.21-.91.29-1.9.93-2.72.76-1.19-.24-.57-1.69-.98-2.52-.12-.24-.28-.45-.68-1.08,1.53.07,2.61.13,3.55.17ZM246.85,87.05c.1-.75.35-1.37,1.22-1.37.96.16,1.1.8,1.04,1.57-.07.87-.66.98-1.35.93-.69-.05-1-.46-.91-1.13ZM236.57,161.43c1.09-1.33.61-2.59.13-3.57.87-1.17,1.56-2.17,2.32-3.11.49-.6.64-1.12.27-1.86-.12-.25.25-.75.39-1.13,0,0,0,0,0,0h0c.15-.16.31-.31.46-.47.56-.27,1.11-.58,1.7-.79,1.53-.53,2.99-1.02,3.82-2.66.52-1.02.92-.93,2.33.18-.89.97-1.77,1.92-2.65,2.88-.52.57-1.11,1.08-1.54,1.71-.86,1.25-.75,1.63.35,2.68.64.6,1.21,1.27,1.74,1.84-.52,1.18-1.43.91-2.13,1.08-1.53.38-2.95.7-3.53,2.54-.25.79-1.08,1.47-1.79,2.01-.35.27-1.17.31-1.52.08-.32-.21-.56-1.17-.36-1.41ZM228.71,118.17c.11-.4.86-.95,1.21-.88.5.1.96.65,1.31,1.11.18.23.07.67.1.99-.08.59-.1,1.15-.24,1.69-.19.72-.78,1.07-1.44.89-.46-.13-1.13-.58-1.17-.94-.1-.94-.02-1.94.23-2.85ZM225.21,124.52c.15.22.34.38.32.5-.02.17-.2.31-.32.46-.12-.12-.35-.25-.34-.37,0-.16.17-.33.34-.6ZM13.97,317.54c-.34-.89-.57-1.5-.9-2.38,1.27.58,1.29,1.26.9,2.38ZM13.02,262.68c-.05-1.34.33-1.67.99-1.59.16.02.43.54.41.55-.35.31-.74.57-1.4,1.04ZM14.68,186.92c-.14-.06-.21-.3-.31-.46.16-.08.34-.25.47-.22.15.04.24.26.43.49-.26.09-.46.24-.58.19ZM40.49,152.06c.35.18.67.42.99.65-.14.19-.27.38-.41.57-.34-.22-.67-.45-1.01-.67.15-.19.39-.57.43-.55ZM36.55,230.97c.77.02,1.54.29,2.69.55-.6.56-.86.8-1.2,1.12.18.37.34.71.52,1.09-1.52.27-2.95-.67-2.84-1.84.03-.35.54-.92.82-.92ZM36,294.26c-1-.84-1.78-1.52-2.57-2.17-.71-.59-1.12-1.3-.72-2.2.39-.87,1.24-.91,1.99-.69,1.06.3,2.27.56,3.04,1.25.62.55.68,1.72,1.08,2.87-1.1.37-2.04.69-2.82.95ZM37.83,302.28c-.28.77-.91.86-1.54.51-.48-.27-.86-.7-1.28-1.06-.47-.4-1.18-.83-.74-1.51.29-.45.98-.65,1.21-.79,1.51-.01,2.75,1.76,2.35,2.85ZM36.41,273.02c-.13.31-.84.69-1.08.58-.78-.34-1.47-.91-2.42-1.53,1.35-1.19,2.37-.73,3.28-.32.24.11.37.92.22,1.27ZM35.63,259.66c-1.18-.31-.91-1.37-.99-2.4,1.31.06,2.28.1,3.34.15-.13.34-.24.64-.38,1.01.72.31,1.45.63,2.35,1.03-.32.38-.5.76-.64.75-1.24-.13-2.49-.22-3.69-.54ZM32.96,250.19c.24-.73.47-1.43.69-2.09,3.24.23,4.17.69,4.61,2.23-1.76,1.1-3.46.24-5.3-.14ZM31.72,166.54c.45-.69,1.12-.79,1.86-.56,1.52.48,2.34,1.31,2.18,2.18-.17.89-.84,1.36-1.88,1.29-1.4-.09-2.26-.96-2.24-2.29,0-.21-.02-.46.09-.61ZM32.06,264.57c-.3.61-.55,1.25-.82,1.87-.2-.02-.39-.04-.59-.07.07-.76.34-1.59.14-2.28-.21-.72-.88-1.31-1.43-2.07.28-.08.59-.22.9-.24,2.63-.17,2.97.38,1.79,2.78ZM30.75,147.97c.75.94.12,2.68-1.02,3.08-.74.26-1.63-.18-1.67-1.12-.08-1.79-1.2-2.76-2.59-3.75,1.02-1.85,1.72-1.98,2.82-.74.78.88,1.72,1.61,2.45,2.52ZM25.06,269.32l-.56.03c-.27-1.3-.54-2.61-.87-4.23.62.21,1.23.22,1.38.49.66,1.23.51,2.49.06,3.72ZM26.21,276.76c-1.4,1.22-1.43,1.22-2.96.25.91-.67,1.74-1.1,2.96-.25ZM24.2,172.88c-1.08-.23-1.43-1.23-1.4-2.42,1.14-1,2.43-.32,4.06-.47-.33.78-.4,1.13-.59,1.39-.52.74-1.06,1.71-2.07,1.5ZM28.46,138.68c-.93,1.38-2.28,1.1-3.66,1.42-.5-.88-.91-1.59-1.43-2.48,1.5-.5,1.62-3.33,4.29-1.76-.71.26-1.18.44-2.06.76,1.09.79,1.94,1.4,2.85,2.06ZM25.68,126.01c.29.04.57.08.86.12-.02.1-.03.21-.05.31-.29-.05-.57-.09-.86-.14.02-.1.03-.2.05-.29ZM22.99,126.55c1.71.32,2.97,1.11,3.68,2.3-.63.54-1.28,1.1-2.08,1.79-1.11-1.18-2.09-2.23-3.52-3.75.96-.18,1.47-.42,1.93-.34ZM18.45,256.62c.32-1.3,1.48-1.14,2.49-1.49.41.98.72,1.72,1.03,2.45-1.78.5-2.1.43-3.52-.96ZM24.95,314.4c-1.21.47-1.71-.8-2.32-1.76-.93-1.47-.85-1.77.9-4.66,1.75.13,2.1,1.57,2.82,2.44-.47,1.33-.89,2.51-1.41,3.98ZM26.19,253.62c.24-.3.48-.85.71-.85.62,0,1.24.26,1.85.41v.67c-.57.15-1.13.4-1.7.41-.29,0-.58-.42-.87-.64ZM29,296.11c-.65-.47-.55-1.15.04-1.57.57-.41,1.27-.64,2.07-1.02.15.7.25,1.09.32,1.48.13.78.23,1.72-.68,1.92-.51.11-1.23-.42-1.75-.8ZM30.79,311.42q.98-.83,2.14-.62c-.64.19-1.29.38-2.14.62ZM32.05,318.4c.22-.41.37-.9.68-1.2.65-.64,1.07-1.92,2.25-1.5,1.17.41,1.7,1.51,1.86,2.84-1.74.97-3.23,1.04-4.8-.13ZM32.23,312.17c.25-.48.47-.93.7-1.38.42.18.93.6,1.26.5,1.65-.52,3.11.17,4.73.52q-3.33,1.09-6.7.36ZM40.14,268.88c-1.4.63-2.44-.08-3.39-1.26.83-1.54,2.31-1.08,3.39-1.43v2.68ZM41.28,253.91c-.27-.8-.54-1.58-.82-2.39,1.58-.27,2.38,0,2.44.82.07.98-.45,1.54-1.62,1.57ZM43.21,244.94c-.45.39-1.22.62-1.83.58-1.52-.09-1.96-.76-1.89-2.52.68-.07,1.37-.24,2.03-.18.57.05,1.28.22,1.62.61.27.31.32,1.28.06,1.5ZM111.99,355.95c-.22-.04-.54-.48-.52-.7.03-.24.4-.57.66-.61.29-.04.62.2,1.21.42-.85.58-1.14.93-1.36.89ZM189.19,176.32c-1.75-.06-3.42,1.59-5.21.29-.37-.27-.97-.76-.9-.99.13-.45.59-.95,1.03-1.12.84-.32,1.76-.42,2.82-.65.78.4,1.66.78,2.43,1.3.15.1-.12,1.16-.18,1.16ZM181.99,170.82c-.48.08-.96.14-1.43.2q-.67,2.09-2.52,1.6c0-.54-.06-1.09.01-1.63.17-1.28.69-1.77,1.96-1.51,1.11.23,2.43-.4,3.63,1-.73.15-1.19.26-1.65.34ZM186.97,172.1c.64-.11,1.05-.18,1.47-.25-.31.85-.74,1.01-1.47.25ZM193.06,170.35c.98-.8,1.97-1.46,3.46-1.39-.02,1.19-.58,1.88-1.52,2.29-.69.3-.89.18-1.94-.9ZM196.52,207.26c-.48.11-1.28-.16-1.58-.54-.39-.51-.53-1.36.22-1.82.38-.23.91-.21,1.44-.32.16.56.2.9.36,1.18.39.68.25,1.34-.44,1.5ZM205.18,160.71c-.12-.39-.23-.62-.23-.85,0-.07.35-.24.45-.19.14.07.26.32.25.48-.01.14-.22.27-.47.56ZM214.56,161.29c-.15.19-.79.29-.89.18-.22-.27-.43-.87-.29-1.03.44-.52,1.05-.91,1.59-1.34.19.17.38.35.57.52-.32.57-.58,1.18-.98,1.68ZM215.63,137.93c.3.03.58.33.86.52-.2.24-.4.47-.68.81-.32-.29-.7-.47-.73-.7-.02-.2.37-.64.54-.62ZM215.31,145.14c.3.17.5.82.45,1.22-.03.24-.62.56-.96.58-.62.02-1.25-.19-1.88-.24-1.96-.16-2.79.53-3.03,2.49-.63.34-1.6-.39-2.06.64.43.8,1.1.26,1.66.31.55.05,1.1.15,1.82.25.05-.26.11-.57.22-1.14.63.15,1.25.3,1.87.45-.71,2.85-2.09,3.83-4.78,3.28-1.69-.35-3.31-1.01-5.13-1.59-.05,2.24,1.42,3.73,2.3,5.71-1.03.18-1.9.38-2.78.46-1.85.17-2.43,1.01-1.94,2.91.03.13.03.27.04.41q-1.57,2.01-3.27.76c-.5.55-1.05,1.08-1.49,1.69-.64.88-1.32,1.56-2.44,1.87-.62.17-1.3.69-1.64,1.24-.76,1.23-1.88,1.62-3.18,1.78-.35.04-.7.12-1.05.13-1.05.02-2.1,0-3.25,0-.73-.87-1.53-1.82-2.43-2.88.74-.65,1.45-1.28,2.26-1.99,1.18.9,2.28,1.8,2.67,3.32,2.22.12,3.21-1.25,4.13-3.14-.4-.8-.82-1.81-1.38-2.74-.88-1.46-.37-2.83,1.37-3.13,1.41-.24,2.89-.68,4.27.43-1.16-2.02,1.41-2.57,1.44-4.15-1.27-.99-2.9.34-4.29-.7,1.98-.52,3.45-1.56,4.38-3.35.2-.39.9-.63,1.41-.74.68-.14,1.41-.04,2.1-.13,1.62-.21,2.25-.76,3.18-2.93-.96.52-1.6.87-2.23,1.21-1.12.61-2.31.58-2.69-.07-.4-.69.21-1.59,1.63-2.02.85-.26,1.81-.35,2.68-.23,1.38.2,2.49.04,3.31-1.21.61-.95,1.6-1.06,2.62-.99,2.25.14,4.19,1.15,6.09,2.22ZM194.18,85.22c-3.38.2-3.4.19-3.72-1.29,1.93-.43,2.63-.21,3.72,1.29ZM135.7,279.48c-.37.12-.77.39-1.13.33-1.89-.28-3.63-1-4.89-2.48-.34-.39-.47-1.2-.32-1.71.26-.91.8-1.75,1.43-3.06,2.12,2.2,5.14,3.26,4.91,6.92ZM139.01,205.29c-.26-.11-.44-.63-.47-.97,0-.13.64-.5.81-.41.95.48,1.86,1.05,2.75,1.62.11.07.08.38.15.86-1.28-.42-2.29-.69-3.25-1.1ZM158.19,194.4c-2.89.95-3.22.84-4.2-1.77h4.57c-.13.63-.25,1.2-.37,1.77ZM155.95,175.76c-1.92,1.64-3.89,3.25-5.8,4.9-.6.52-.97,1.06-.4,2,.51.84-.31,1.73-1.26,1.3-1.34-.6-2.03.1-2.98.79-1.62,1.17-3.07,2.44-4.17,4.12-.18.28-.5.61-.8.66-2.04.31-3.47,1.65-5.07,2.77-1.99,1.38-4.33,1.85-6.79,1.89-1.6.02-3.2.44-4.79.7-1.54.25-1.94,0-2.09-1.51-.07-.7.06-1.41.02-2.11-.06-.9-.21-1.79-.3-2.68-.12-1.17-.22-2.34-.3-3.52-.04-.61,0-1.22,0-1.83,0-.21-.11-.51-.01-.6,1.34-1.28.28-2.48.08-3.82-.35-2.34-.21-4.76-.26-7.15-.02-1.04,0-2.09-.03-3.13-.02-.99-.09-1.97-.1-2.96-.02-2.18.18-4.39-.08-6.55-.22-1.88-.9-3.68.3-5.46.16-.24.09-.69.02-1.03-.67-3.31-.13-6.58.38-9.84.11-.72.53-1.48,1.02-2.04,2.23-2.57,4.87-4.65,7.87-6.27.68-.37,1.29-.85,1.94-1.27,1.41-.92,2.79-1.88,4.24-2.73,1.27-.75,2.26-1.64,2.38-3.28.59.03,1.11.19,1.54.06.92-.28,2.24-.47,2.61-1.13,1.29-2.33,3.64-2.66,5.67-3.7,1.23-.63,2.41-.99,3.74-1.15,1.09-.13,1.74-.75,1.82-1.96.04-.59.31-1.23.64-1.74.83-1.25,1.44-1.35,2.87-.85,1.05.36,2.14.77,3.23.81,1.56.06,1.97-.79,1.67-2.34-.22-1.13-.16-2.32-.25-3.91,1.08.46,1.87.68,2.53,1.11,1.05.69,2.13,1.01,3.38.98,1.9-.04,3.81.08,5.7-.06.85-.06,1.95-.35,2.44-.95,1.86-2.29,4.39-2.64,7.02-2.76,1.19-.05,2.18-.19,2.88-1.33.24-.4.92-.68,1.43-.73,1.67-.17,3.36-.39,4.98.41.62.31,1.32.49,2.01.64,1.41.31,2.62.01,3.57-1.2.73-.93,1.58-1.77,2.41-2.61.83-.84,2.63-.94,3.97-.24.62.33,1.15.88,1.8,1.09.84.27,1.76.32,2.65.45.54.08,1.15-.02,1.63.19.93.39,1.14,1.18.6,2.06-1.54,2.51-2.95,5.07-5.14,7.17-1.5,1.44-2.49,3.38-3.79,5.04-1.55,1.98-3.22,3.87-4.74,5.87-.62.82-1.15,1.77-1.44,2.75-.24.81-.45,1.4-1.34,1.66-.43.13-.86.5-1.14.87-1.26,1.67-2.49,3.37-3.7,5.07-1.25,1.76-2.44,3.57-3.72,5.32-1.7,2.32-3.36,4.68-5.24,6.85-2.25,2.59-4.7,5.01-7.08,7.49-.78.81-.83,1.73-.45,2.79-1.04.68-1.93,1.15-2.67,1.78-.61.53-1.05,1.26-1.58,1.89-.8.95-1.47,2.08-2.44,2.81-2.66,1.98-5.22,3.98-7.23,6.7-1.01,1.37-2.55,2.35-3.87,3.49ZM173.78,180.48h-4.79c1.44-1.53,2.6-1.58,4.79,0ZM161.11,193.99c-.37-.02-.74-.04-1.12-.05-.02-.1-.04-.19-.06-.29.19-.07.39-.2.57-.18.23.03.44.18.66.29-.02.08-.04.16-.06.24ZM167.03,192.69s-.17-.15-.41-.37h.87c-.15.13-.29.27-.46.37ZM168.17,190.03c-1.07-.1-1.98.05-2.99.61-1.6.89-3.19.24-4.95-.63,2.92-2.86,3.89-3.21,7.78-3.01.09.54.19,1.12.27,1.61.67.66,2.12-.06,2.3,1.53-.91-.04-1.65-.05-2.4-.12ZM170.71,183.89c.65-.63,1.15-1.9,2.37-1.56,1.23.35,2.4,1.06,3.48,1.78.6.39.52,1.17.02,1.69-.62.64-1.33,1.18-2.11,1.86-1.05-1.66-3.84-1.05-3.76-3.77ZM177.42,300.43c-.25,1.06-1,1.24-1.85,1.08-.49-.04-.92-.03-1.32-.12-1.25-.27-1.82-1.67-1.15-2.76.63-1.02,2.17-1.48,3.33-.98.66.28,1.22,1.84.99,2.78ZM178.83,182.33c-1.35-.48-2.7-1.09-3.88-2.74,1.19-.06,1.98-.1,2.85-.14-.45-.7-1.12-1.3-1.1-1.87.02-.53.77-1.04,1.19-1.55,1.34.45,2.51.84,3.86,1.29-.65,1.01-.83,1.95-.6,3.09.25,1.24-1.13,2.34-2.32,1.92ZM186.22,306.83c-.56.56-2.16.88-2.49.32-.73-1.23-1.95-1.39-3.15-1.7.48-.74.88-1.35,1.28-1.98.65-1.01,1.25-1.25,2.24-.62.81.51,1.55,1.18,2.17,1.9.53.61.62,1.4-.05,2.08ZM198.73,313.2c-.2.08-.39.15-.59.23-.71-1.22-1.41-2.45-2.14-3.71.55-.72,1.28-.71,1.61-.15.65,1.1,1.83,2.14,1.12,3.64ZM214.66,229.84c.74-.57,1.4-.42,1.9.31.08.13-.09.62-.25.69-.83.34-1.43.06-1.78-.68.07-.19.08-.28.12-.32ZM218.23,313.89c-1.62.4-4.5-.97-5.35-2.66,3.27-.73,4.85.1,5.35,2.66ZM210.01,317.68c-1.51.58-2.95-.06-4.39-.4-.16-.04-.3-.44-.33-.68-.01-.15.23-.46.34-.45,1.03.03,2.07.05,3.08.23.53.09,1.01.5,1.51.76l-.22.54ZM209.69,290.43c1.83-.97,2.19-.83,2.88,1.32-1.19-.55-1.93-.89-2.88-1.32ZM212.84,321.92c1.75-.03,3.44-.52,5.13.33,1,.5,1.04.42,1.49,2.12-3.62,1.17-5.72.4-6.62-2.46ZM223.13,303.2c-.13-.06-.26-.12-.39-.18.2-.38.4-.76.6-1.14.1.04.19.08.29.12-.16.4-.32.8-.49,1.2ZM223.89,297.53c-.7.11-1.23-.14-1.31-1.23.79-.07,1.55-.13,2.31-.2.26,1.16-.39,1.34-1,1.43ZM232.42,330.29c-1.58.43-2.69-2.04-4.69-.81,1.08.96,2,1.77,3.17,2.8-.64.13-1.04.34-1.32.24-1.18-.44-2.34-.93-3.48-1.48-.75-.36-1.31-2.09-.99-2.95.36-.96,1.25-.81,1.98-.74,1.25.11,2.51.29,3.74.55,1.34.29,1.71.89,1.59,2.39ZM241.85,309.3c-1.63.8-2.07.6-3.41-1.51,1.5-.17,2.47.54,3.41,1.51ZM241.67,330.03l-.38.05c-.07-.42-.15-.84-.22-1.26l.53-.03c.02.41.05.82.07,1.24ZM240.52,338.11c-.92-.49-1.94-.95-2.84-1.57-.37-.26-.63-.89-.64-1.36,0-.2.78-.66,1.14-.6,1.01.17,2.06.41,2.95.89.92.49.72,1.26-.61,2.65ZM238.88,333.19c1.67-1.11,2.42-.8,3.46,1.4-1.48.2-2.42-.62-3.46-1.4ZM240.09,276.82c1.43-.79,1.59-.77,2.86.47-1.26.69-2.07.36-2.86-.47ZM252.17,312.76c-.25.7-.46,1.29-.75,2.08-.86-1.76-.86-1.77.75-2.08ZM250.85,332.39c-.28.42-1.09.5-1.75.78-.33-1.3-.59-2.3-.86-3.33.9-.57,1.67-.44,2.31.24.64.68.78,1.6.3,2.32ZM246.78,280.32c.85.17,1.73.28,2.55.54.3.09.47.56.71.86-.39.2-.81.63-1.16.57-.95-.15-1.76-.65-2.3-1.47.07-.17.13-.34.2-.51ZM253.2,343.39c-1.25-.29-2.67-.16-3.58-1.47-.36-.51-1.1-.78-1.7-1.09-.5-.27-1.06-.44-1.59-.65.07-.2.14-.41.2-.61,1.86.11,3.73-.34,5.57.45,1.09.46,1.68,1.26,1.98,2.31.19.68-.22,1.23-.88,1.08ZM317.47,281.07c.08-.28.58-.62.88-.62.37,0,.75.34,1.57.76-.85.41-1.22.69-1.62.75-.58.08-1.01-.29-.83-.88ZM293.45,295.88c.65-.57,1.35-1.08,2.16-1.72,1.39,1.03,3.05,1.07,4.86.82,1.22-.17,2.52.09,3.76.33.62.12,1.17.6,1.76.92-.04.17-.08.34-.12.51-.57-.04-1.24.11-1.68-.15-2.02-1.14-4.08-.54-6.14-.31-1.14.13-2.22.27-2.85,1.47-.36.69-1,.73-1.59.2-.63-.57-.72-1.57-.16-2.06ZM281.1,294.35c-1.27.12-2.35.09-3.35-.81,1.86-.68,2.06-.63,3.35.81ZM275.44,322.51c.1-.27.65-.38,1.26-.71-.06,1.05-.1,1.7-.15,2.48-1.13-.3-1.43-.95-1.11-1.78ZM276.48,342.03c-1.68-.1-3.15-.19-4.7-.29-.35-.76-.04-1.25.75-1.22,1.09.06,2.19.25,3.26.52.3.08.47.64.7.98ZM275.75,291.65q-.88,1.19-2.93,0h2.93ZM274.76,315.15c.38.05.71.53,1.05.81-.33.37-.59.93-1,1.09-1.09.4-2.16.25-3.2-.81.97-1.07,2.04-1.24,3.15-1.09ZM270.19,336.17c-1.1-.85-.84-1.78-.82-2.79,1.56.8,1.62,1.03.82,2.79ZM268.56,319.54c1.03.51,1.33,1.27,1.19,2.31-1.39-.2-1.4-.22-1.19-2.31ZM261.43,309.25c.87-.64,1.38-.25,1.99.46-.93.67-1.55.75-1.99-.46ZM261.71,334.4c0,.15-.15.32-.23.47-.15-.12-.36-.21-.42-.36-.04-.13.1-.33.28-.85.2.39.36.56.37.74ZM264.8,318.94c1.02-.73,2.18-.3,2.28.98.08.94-.16,1.91-.26,2.97-1.44-.4-2.65-.73-4.07-1.13-.02-.31-.06-.91-.1-1.41.92-.6,1.55-.98,2.15-1.41ZM266.8,331.07c.34-.15,1.08-.18,1.1-.11.15.51.15,1.06.2,1.6l-.53.21c-.45-.26-.89-.52-1.47-.85.29-.38.43-.75.69-.86ZM262.51,262.77c.4.1.75.35,1.35.65-.45.33-.72.63-.82.58-.38-.19-.71-.49-1.05-.75.18-.17.4-.52.52-.49ZM257.41,285.57c.21-.75.89-.75,1.57-.69,1.35.11,2.6.36,3.69,1.3,1.01.87,2.13,1.52,3.65,1.12.98-.26,1.56.32,1.62,1.17.06.91-.4,1.21-1.86,1.36-.83-.42-1.63-.93-2.51-1.24-1.45-.52-2.93-.92-4.41-1.36-.2-.06-.41-.11-.61-.18-.68-.25-1.41-.55-1.15-1.46ZM272.77,351.93c-.44,0-.98-.51-1.29-.93-.6-.8-1.27-1.16-2.3-1.22-.8-.04-1.6-.45-2.37-.78-.89-.37-1.75-.83-2.6-1.23-1.13,1.66-1.13,1.67.92,3.43-.82.83-1.72.71-2.42.04-1.82-1.74-3.54-3.58-5.29-5.39-.08-.08-.05-.27-.07-.4,1.41-1.73,2.11-1.95,3.9-1,2.22,1.18,4.49,2.32,6.54,3.76,1.14.8,2.19.87,3.33.57,1.47-.39,2.75-.16,4.03.6.58.35,1.3.47,1.97.68.67.22,1.39.37,1.37,1.54-1.98.13-3.85.31-5.73.32ZM279.67,338.75c-.64.06-1.21-.03-1.28-.72-.05-.51.05-1.21.37-1.52.21-.2,1.05,0,1.43.28.67.48,1.2,1.15,2.01,1.95-1.04,0-1.79-.05-2.52.02ZM287.97,351.33c-1.65.06-3.29-.02-4.8-.88-.89-.51-1.57-1.06-1.41-2.32.08-.6-.42-1.27-.65-1.89.45-1.04.91-2.1,1.51-3.47.84.11,1.95.26,3.36.45-.43.84-.73,1.41-1.01,1.96,2.34,1.82,3.31,3.76,2.99,6.15ZM287.18,329.77c-.6-.33-1.37-.59-1.02-1.54.27-.76,1.71-1.37,2.52-1,.52.24.94.71,1.54,1.18-.58.43-.95.7-1.45,1.07,1.03.38,1.92.7,2.79,1.05.97.39,1.68.96,1.33,2.35-1.96-1.06-3.84-2.07-5.71-3.1ZM292.91,352.73c.83-1.44,1.28-1.71,2.08-1.16,1.15.79,2.23,1.67,3.3,2.56.22.19.27.59.57,1.28-2.85.25-4.13-1.75-5.96-2.68ZM302.28,333.35c-.06-.17-.15-.32-.15-.48,0-.05.19-.12.3-.18.08.15.18.29.23.44,0,.02-.19.11-.37.22ZM310.21,353.11c-2.34-1.04-4.74-1.23-6.59-2.83-.94-.81-.75-1.76.45-2.22.6-.23,1.26-.31,1.92-.46,1,.78,2.08,1.74,3.28,2.53.99.65,1.19,1.45.94,2.98ZM306.72,345.22c-.03-.85.67-1.03,1.31-.94.53.08,1.02.41,1.46.6-.15,1.15-.82,1.22-1.43,1.29-.7.09-1.31-.17-1.34-.95ZM309.71,307.43c-.84-.86-1.69-1.73-3.36-1.51.59-.79.99-1.32,1.55-2.05-1.92-.58-3.82-.84-5.39-1.71-1.66-.92-3.57-.36-5.18-1.14.02-.16.05-.33.07-.49,1.59-.52,3.16-1.19,4.79-1.53,1.75-.37,3.31.68,4.24,1.86,1.31,1.65,2.57,1.66,4.23.96.36-.15.81-.1,1.37-.16.02,1.66.93,2.33,2.42,2.62,2.56.49,3.07,2.89,4.06,4.77.31.59-.17,1.05-.88,1.09-3.01.17-5.74-.45-7.93-2.69ZM318.74,311.9c-.07.17-.14.34-.22.51-.33-.17-.66-.34-.97-.53-.01,0,.13-.32.15-.32.35.09.7.22,1.04.33ZM314.89,355.87c-.75-.2-.86-1.11-.35-1.72,1.18-1.4,3.14-1.46,4.51-.13.6.58,1.15,1.23,1.79,1.76.64.52,1.37.93,2.26,1.52-3.18,1.15-5.6-.72-8.22-1.43ZM327.76,333.72c2.59-.72,3.7.25,3.71,3.02-1.56-.57-2.37-1.87-3.71-3.02ZM331,344.69c-.28-.06-.57-.12-.85-.19.05-.16.11-.31.16-.47.26.11.52.23.78.35-.03.1-.06.21-.09.31ZM331.31,346.81c1.22-.96,1.38-.94,2.84.43-1.21.49-2.04.34-2.84-.43ZM339.22,363.67c.09.13.28.29.26.4-.03.15-.22.27-.42.5-.1-.23-.25-.4-.22-.51.05-.15.24-.26.37-.38ZM342.53,372.43c-1.04-.85-1.78-1.72-2.73-2.15-.9-.41-2.02-.35-3.32-.54.5-1.17.88-2.35,1.49-3.38.63-1.06,1.72-.87,2.41.49.73,1.44,1.74,2.13,3.34,1.9-.38,1.17-.76,2.35-1.19,3.68ZM343.73,368.74c.25-.4,2.09-2.25,2.37-2.26.22,0,.45.19.82.36-.91,1.13-1.9,1.76-3.19,1.9ZM375.14,372.63c1.48,1.41,1.75,3.1,2.65,4.83-2.42-.8-3.37-2.57-2.65-4.83ZM374.61,364.5c1.04.63,1.32,1.45.83,2.55q-1.74-.99-.83-2.55ZM373.27,349.42c-.26-.26-.34-.93-.22-1.32.3-.93.69-1.91,2.28-1.57.23.99.44,1.93.68,3-1.01.26-1.94.69-2.74-.11ZM376.25,343.9c-.65-.53-1.23-1-1.82-1.48,1.67-.62,1.94-.42,1.82,1.48ZM379.81,353.27c-.04-.1-.09-.19-.12-.29,0-.02.12-.1.15-.08.09.05.17.13.25.2-.09.06-.19.11-.28.17Z"/>
  <path class="cls-1" d="M221.65,198.98c.76-.95,1.48-1.32,2.69-1.1,1.46.27,1.81.02,2.12-1.51.2-.97.64-1.22,1.58-1.24,1.01-.02,2.01-.3,3.05-.48v-1.97c.89-.22,1.95-.17,2.44-.68.97-1.01,2.12-1.18,3.4-1.24.04-2.1-1.93-3.08-2.29-4.94-.23-1.16-2.69-1.23-3.78-.56.39,1.23.76,2.38,1.11,3.51.32.1.65.19,1.51.45-1.42.9-2.37,1.6-3.41,2.13-.77.39-1.38.71-1.77,1.62-.59,1.39-1.88,1.35-2.71.03-.21-.33-.27-.76-.42-1.18.66-.51,1.24-.97,1.84-1.43-1.31-1.41-1.72-1.4-2.52-.04-.7,1.2-1.15,2.42-.36,3.73-.56.67-.99,1.32-1.55,1.84-.82.75-1.63,1.6-2.62,2.04-1.49.66-3.14.97-4.7,1.48-.41.13-.77.44-1.49.87,1.67.84,3.02,1.52,4.36,2.19,1.18-1.16,2.48-2.24,3.51-3.52Z"/>
  <polygon class="cls-1" points="218.14 202.5 218.14 202.5 218.14 202.5 218.14 202.5 218.14 202.5 218.14 202.5"/>
  <path class="cls-1" d="M208.37,209.77c.59.61,1.11,1.08,1.54,1.61,1.06,1.32.93,2.03-.48,3.07-.24.18-.4.47-.68.82.44.17.69.29.94.37,1.98.6,2.06.62,1.56,2.56-.36,1.36.37,1.92,1.47,2.58.63-.47,1.25-.94,1.87-1.41-.53-.93-.93-1.63-1.35-2.37,1.09-.69,2.01-1.27,2.94-1.86.96.53,1.04,2.26,2.39,1.83.58-1.05,1-1.99,1.58-2.81,1.09-1.56,2.24-3.05.81-5.16.91.11,1.58.18,2.25.26h0c-.32-.52-.65-1.03-.98-1.55.53-.57.96-1.02,1.67-1.77-1.23.06-2.02.1-2.5.12-.66,1.61-1.21,2.96-1.74,4.28-.92-.25-1.64-.45-2.37-.65v3.04c-.74.29-1.25.01-.99-.67.4-1.04-.1-1.87-.29-2.79-1.42.68-2.41,2.23-4.04,2.25-.15-1.43-.21-2.71-.45-3.95-.19-1-.73-1.12-1.64-.52-.23.15-.42.35-.64.53.13.39.25.79.38,1.18-.44.36-.85.68-1.27,1.01ZM213.78,212.04c.46.47.91.72.93.99.05.72-.44,1.18-1.15,1.11-.27-.03-.76-.57-.71-.74.14-.44.52-.8.93-1.36Z"/>
  <polygon class="cls-1" points="209.26 207.58 209.26 207.58 209.26 207.58 209.26 207.58"/>
  <polygon class="cls-1" points="217.29 209.69 217.29 209.69 217.29 209.7 217.29 209.69 217.29 209.69 217.29 209.69 217.29 209.69"/>
  <path class="cls-1" d="M381.24,326.42c.03.24.57.54.92.58.7.09,1.49-.36,2.14.29-.83,1.51-2.31.85-3.38,1.16-.59.87-.28,1.54.23,2.19,1.06,1.35,2.13,2.7,3.25,4.11,1.18-.77,2.41-1.56,3.71-2.41-.37-1.45-.64-2.69-1-3.89-.38-1.25-1.14-2.27-2.3-2.91-.96-.53-2.01-.75-3-.1-.3.19-.6.67-.57.98Z"/>
  <path class="cls-1" d="M286.32,363.82c-.5-1.3-1.35-1.76-2.63-2.08-1.13-.28-2.44-.38-3.36-1.36.8-.83,1.49-1.55,2.18-2.27-.07-.16-.14-.32-.21-.47-.84-.05-1.69-.1-2.55-.15-.25.72-.51,1.24-.61,1.78-.17,1.02-.49,2.09-.31,3.06.2,1.1,1.55.69,2.29,1.12,1.18.68,2.99.92,2.53,3.02-.04.18.23.56.45.65,1.68.72,3.4,1.14,5.65.24-.8-.75-1.33-1.21-1.83-1.72-.58-.59-1.35-1.12-1.62-1.83Z"/>
  <polygon class="cls-1" points="237.16 202.93 237.16 202.93 237.17 202.93 237.16 202.93"/>
  <polygon class="cls-1" points="237.17 202.93 237.17 202.92 237.16 202.93 237.17 202.93"/>
  <path class="cls-1" d="M233.01,203.54c-1.95-.04-4.08-.62-5.42,1.57-.19.31-.73.39-1.07.64-.3.22-.54.53-.83.82.27.25.39.45.56.53,1.09.5,1.25,1.19.56,2.18-.29.42-.41.96-.58,1.36,1.19.41,2.19.76,3.21,1.11.04-.15.12-.46.2-.8.63.05,1.23.09,1.81.14q.32-2.03-2.73-3.7c.92-.64,1.91-1.14,2.66-1.89.95-.96,1.87-1.25,3.2-.87,1.31.38,2.7.44,4-.6-.55-.41-.99-.75-1.43-1.08-1.23,1.29-2.73.64-4.16.61Z"/>
  <path class="cls-1" d="M390.27,358.46c-1.18-.64-2.78-.54-3.55-2.01-.17-.33-.98-.34-1.6-.51.01.04.02.08.04.12h0c.92,1.83,1.48,3.54.43,4.97.48.73.85,1.31,1.27,1.95.98-.43,2.34-.63,2.51-1.19.46-1.55,1.86-1.5,2.8-2.2.28-.21.57-.42,1.17-.85-1.31-.09-2.34.12-3.06-.27Z"/>
  <path class="cls-1" d="M295.01,366.04c-1.28.8-2.61,1.62-4.04,2.52.54.76,1.23,1.54,2.32,1.32,1.35-.28,2.09.4,2.86,1.29.46.53,1.1.9,1.66,1.33.84-1.04,1.49-1.83,2.32-2.85-1.2-.27-2.45-.24-3.27-.81-.81-.57-1.19-1.75-1.85-2.79Z"/>
  <polygon class="cls-1" points="218.14 202.5 218.14 202.5 218.14 202.5 218.14 202.5"/>
  <path class="cls-1" d="M217.15,203.54c-.55.2-1.25.24-1.78.06-.26-.09-.29-.86-.5-1.61-.86.36-1.77.66-2.59,1.12-.74.41-1.06,1.16-.75,1.99.3.81,1.02.52,1.63.48,1.92-.11,3.94-.62,5.32,1.34,1.53-1.64,1.4-2.95-.33-4.42-.33.36-.59.9-.99,1.04Z"/>
  <polygon class="cls-1" points="218.14 202.5 218.14 202.5 218.14 202.5 218.14 202.5"/>
  <path class="cls-1" d="M372.73,382.66c-1.07-.57-2.14-1.14-3.61-1.92-.39.35-.87.79-1.64,1.49,3.25,1.6,2.32,3.9,1.88,6.31,1.12.16,2.09.3,3.56.5-1.61-2.48-1.11-4.4-.18-6.38Z"/>
  <path class="cls-1" d="M237.03,216.28c1.59-1.26,2.98-2.36,4.49-3.56.22-.99.54-2.2.75-3.43.05-.33-.16-.77-.39-1.03-.09-.1-.73.05-.87.26-1.04,1.54-2.05,3.11-3,4.71-.59.99-1.35,1.58-2.53,1.54.29-.79,1.1-1.56.16-2.45-.61.24-1.16.55-1.74.67-1.73.36-3.3,1.27-5.12,1.38-.65.04-1.29.52-1.88.88-.25.15-.55.63-.47.81.14.32.51.63.85.73.38.12.84.07,1.24,0,2.39-.44,5-.12,6.96-2.02.53.52,1.06,1.03,1.55,1.51Z"/>
  <path class="cls-1" d="M306.31,373.26c-.66-.49-1.36-.93-2.14-1.47.43-.62.76-1.1,1.21-1.74-1.4-.77-2.56-.43-3.61.33-.33.24-.62.84-.56,1.22.06.35.58.85.95.88,1.24.13,1.98.81,2.69,1.77.38.52,1.11.82,1.74,1.09.21.09.66-.13.86-.34.12-.13.08-.58-.06-.76-.3-.38-.68-.7-1.07-.98Z"/>
  <path class="cls-1" d="M205.03,217.37c-.29,1-.58,1.77-.74,2.57-.16.77-.2,1.57-.29,2.36.14.1.28.2.42.3.55-.31,1.47-.52,1.58-.95.39-1.45,1.64-1.76,2.79-2.33-.3-.81-.56-1.51-.85-2.29-1.1.13-2.1.25-2.91.34Z"/>
  <polygon class="cls-1" points="362.33 375.51 362.33 375.51 362.33 375.51 362.33 375.51"/>
  <path class="cls-1" d="M366.56,377.2h0c.41.55.81,1.09,1.34,1.81.5-.34.95-.65,1.41-.96-.8-1.33-1.78-1.04-2.74-.84.57-1.49.26-3.34,2.24-4.44-3.04.1-3.15.11-4.45,1.87-.54.73-1.23.85-2.01.88.56.57,1.12,1.14,1.68,1.71.85-.22,1.7.76,2.55-.01Z"/>
  <path class="cls-1" d="M195.44,218.8c.1.5.68,1.17,1.16,1.28,1.1.25,1.6.97,2.11,1.83.55.92,1.27.92,2.13.08-1.45-1.61-2.85-3.17-4.31-4.79-.87.1-1.26.81-1.1,1.61Z"/>
  <path class="cls-1" d="M225.7,202.17c.96.61,2.07.54,3.16-.4-.82-.26-1.49-.47-2.17-.68.26-.23.51-.45.9-.79-.46-.45-.84-.97-1.35-1.29-.64-.41-1.24-.2-1.53.54-.27.7.32,2.2.98,2.62Z"/>
  <path class="cls-1" d="M224.47,225.58c.32-.61.62-1.22.94-1.84-1.93-.61-2.93-.25-3.59,1.28-.25.57-.28,1.12.38,1.43.74.34,1.88-.1,2.28-.87Z"/>
  <path class="cls-1" d="M307.87,367.03c-.21,1.29-.37,2.6-.44,3.91-.01.31.42.63.65.95.32-.3.89-.57.92-.89.1-1.36.04-2.74.04-4.5-.64.28-1.14.37-1.17.54Z"/>
  <path class="cls-1" d="M211.69,199.1c-.88.12-1.65.46-2.2.24-1.41-.56-2.29.39-3.36.93,2.03-.06,3.93-.01,5.56,1.74v-2.91Z"/>
  <path class="cls-1" d="M232.95,218.94c-1.08.22-1.88.43-2.68.53-.74.09-1.65-.28-2.08,1.06,1.8.18,3.42.34,5.47.55-.31-.94-.52-1.56-.71-2.13Z"/>
  <polygon class="cls-1" points="223.64 229.99 223.63 229.99 223.63 230 223.64 230 223.64 229.99"/>
  <path class="cls-1" d="M228.3,228.61c-2.18-1.53-3.79-1.01-4.66,1.38,1.7.09,3.27-.24,4.66-1.38Z"/>
  <path class="cls-1" d="M310.42,374.03c-.73.87-.74,1.81-.14,2.54.34.42,1.15.45,1.75.65.12-.16.24-.33.36-.49-.25-1.15-.33-2.41-1.97-2.7Z"/>
  <path class="cls-1" d="M114.12,372.13c-.2.23-.41.45-.61.68.11.06.21.12.32.18.1-.29.19-.57.29-.86,2.35-1.13,2.38-1.54.33-3.66q-1.32,2.15-.33,3.65Z"/>
  <path class="cls-1" d="M226.18,173.74c.06,1.53.9,2.26,2.64,2.36,1.1.06,1.26-.56,1.22-1.47-1.33-.3-2.6-.59-3.87-.88Z"/>
  <polygon class="cls-1" points="226.17 173.74 226.18 173.74 226.18 173.73 226.17 173.74"/>
  <path class="cls-1" d="M238.53,207.45c.28-.36.27-.94.39-1.42-.57.02-1.27-.17-1.68.09-1.05.67-1.25,1.72-.66,3.21.79-.75,1.46-1.25,1.95-1.88Z"/>
  <path class="cls-1" d="M224.88,182.74c-1.37.41-1.78,1.48-2.14,2.5-.13.37.25.91.49,1.67,1.66-1.34,1.83-2.61,1.65-4.17Z"/>
  <path class="cls-1" d="M238.8,347.91c.06,2.19.66,2.48,2.8,1.31-.74-1.19-1.61-1.58-2.8-1.31Z"/>
  <polygon class="cls-1" points="107.78 374.66 107.78 374.67 107.78 374.66 107.78 374.66"/>
  <path class="cls-1" d="M111.67,374.72c-.76-.26-1.51-.66-2.3-.72-.51-.04-1.06.43-1.59.67.89.37,1.76.8,2.67,1.08.67.21,1.24-.01,1.22-1.03Z"/>
  <polygon class="cls-1" points="107.78 374.67 107.78 374.66 107.78 374.67 107.78 374.67"/>
  <path class="cls-1" d="M217.73,195.19c-1.3-.25-2.36-.45-3.64-.69.5,1.88,1.74,2.17,3.64.69Z"/>
  <path class="cls-1" d="M210.04,201.78c-1.27-.02-1.92.67-2.52,1.87,2.17.49,2.44.28,2.52-1.87Z"/>
  <path class="cls-1" d="M318.35,377.2h0c.52,1.13.76,2.47,2.17,3.06.34-2.44.2-2.62-2.16-3.06Z"/>
  <path class="cls-1" d="M225.27,209.68c.29-.26.58-.91.45-1.16-.32-.58-.98-.8-1.58-.35-.37.28-.62.72-.93,1.1h0c.9,1.09,1.21,1.19,2.06.41Z"/>
  <path class="cls-1" d="M387.25,338.82c-.19.62-.5,1.24-.51,1.86,0,.27.62.79.92.76.32-.03.89-.61.84-.87-.1-.62-.49-1.19-.76-1.78-.16,0-.33.02-.49.03Z"/>
  <path class="cls-1" d="M163.4,310.32c.96,1.95,1.13,2.05,2.45,1.47-.54-.95-1.29-1.4-2.45-1.47Z"/>
  <path class="cls-1" d="M220.89,189.47c.05.19.09.39.14.58.75.06,1.49.12,2.6.2-.63-.8-.99-1.26-1.44-1.82-.51.41-.9.72-1.3,1.04Z"/>
  <path class="cls-1" d="M303.16,262.39c1.05.45,2.06.88,3.07,1.31-.81-1.72-1.56-1.97-3.07-1.31Z"/>
  <path class="cls-1" d="M252.14,196.44h2.71q-2-1.49-2.71,0Z"/>
  <path class="cls-1" d="M352,375.97c.39.52.71.96,1.03,1.4q.38-1.56-1.03-1.4Z"/>
  <path class="cls-1" d="M386.92,293.44c-.42-1.09-1.05-1.36-2.41-.96.94.68,1.47,1.18,2.41.96Z"/>
  <path class="cls-1" d="M230.67,177.5c-.29.61-.53,1.11-.83,1.74q1.52-.55.83-1.74Z"/>
  <path class="cls-1" d="M393.25,357.05c.5.06.99.13,1.72.22-.45-1.27-.91-1.47-1.72-.22Z"/>
  <path class="cls-1" d="M365.78,283.86c.13-.84-.12-1.28-.93-1.54-.15.88-.13,1.47.93,1.54Z"/>
  <path class="cls-1" d="M262.65,28.92c.21,0,.43-.1,1-.25-.79-.42-1.23-.66-1.68-.91-.69,1.12.03,1.13.68,1.15Z"/>
  <path class="cls-1" d="M223.63,230c-.65.04-1.37-.07-1.9.87.95.06,1.78.43,1.9-.87Z"/>
  <path class="cls-1" d="M235.22,343.77c-.03.07.31.41.36.38.28-.15.55-.34.75-.58.05-.06-.23-.37-.47-.74-.3.43-.51.66-.63.94Z"/>
  <path class="cls-1" d="M229.2,182.96c.95-.37,1.05-.94.75-2.06-.65.75-.97,1.25-.75,2.06Z"/>
  <path class="cls-1" d="M257.33,188.25c.2,0,.4,0,.61-.01-.03-.49-.07-.98-.1-1.46-.17,0-.34.01-.51.02v1.45Z"/>
  <path class="cls-1" d="M276.14,100.63c-.28-.69-.43-1.08-.64-1.6q-.61,1.17.64,1.6Z"/>
  <path class="cls-1" d="M293.54,359.89c-.09-.2-.41-.29-.62-.43-.13.22-.39.45-.36.64.03.19.35.34.7.65.15-.41.35-.7.28-.86Z"/>
  <path class="cls-1" d="M341.46,271.23c-.53-.05-1.06-.11-1.59-.16-.02.19-.03.37-.05.56.52.06,1.05.11,1.57.17.02-.19.05-.38.07-.56Z"/>
  <path class="cls-1" d="M314.01,377.09c.4.15.8.3,1.21.45.06-.15.12-.31.18-.46-.4-.15-.8-.3-1.21-.45l-.18.46Z"/>
  <path class="cls-1" d="M393.35,315.69c-.71.1-1.17.16-1.64.23.66.74,1.17.88,1.64-.23Z"/>
  <path class="cls-1" d="M290.98,153.04v-1.47q-1,.66,0,1.47Z"/>
  <path class="cls-1" d="M372.41,338.53c.31-.42.56-.77.81-1.11-.13-.11-.26-.21-.39-.32-.48.24-1.2.36-.42,1.43Z"/>
  <path class="cls-1" d="M238.33,186.64c-.5.06-1.01.11-1.51.17.01.13.02.26.03.39.51-.03,1.01-.07,1.52-.1-.01-.15-.03-.31-.04-.46Z"/>
  <path class="cls-1" d="M401.12,309.31c-.08.13-.16.26-.24.39.38.23.76.45,1.14.68.07-.11.13-.21.2-.32-.37-.25-.73-.5-1.1-.75Z"/>
  <polygon class="cls-1" points="239.28 183.05 239.28 183.04 239.28 183.04 239.28 183.04 239.28 183.05"/>
  <path class="cls-1" d="M239.51,184.97c.72-.88.04-1.37-.23-1.92-.36.65-.28,1.24.23,1.92Z"/>
  <path class="cls-1" d="M272.47,93.38c.18,0,.36-.29.54-.46-.19-.15-.38-.3-.8-.62-.12.26-.31.49-.26.61.09.21.33.47.51.48Z"/>
  <path class="cls-1" d="M230.23,190.46c.22-.02.42-.18.75-.34-.26-.23-.43-.48-.52-.45-.21.07-.39.26-.58.41.12.14.25.39.35.38Z"/>
  <path class="cls-1" d="M217.29,208.42c-.2-.12-.4-.25-.59-.37-.22.41-.45.82-.67,1.23.42.14.84.28,1.26.42v-1.27Z"/>
  <polygon class="cls-1" points="217.29 209.69 217.29 209.69 217.29 209.69 217.29 209.69 217.29 209.69"/>
  <polygon class="cls-1" points="216.03 209.27 216.02 209.27 216.02 209.27 216.03 209.27 216.03 209.27"/>
  <path class="cls-1" d="M273.53,95.9c.12.46.24.92.36,1.37.82-.9.09-1.07-.36-1.37Z"/>
  <path class="cls-1" d="M317.21,377.85c.43-.24.79-.45,1.14-.65,0,0,0,0,0,0q-1.01-.63-1.14.65Z"/>
  <path class="cls-1" d="M291.49,111.86c0-.18-.02-.35-.02-.53-.39.07-.77.14-1.16.21.02.12.04.25.06.38.37-.02.75-.04,1.12-.05Z"/>
  <path class="cls-1" d="M292.12,364.36c-.01.16.18.33.28.49.19-.14.5-.25.55-.43.05-.17-.18-.41-.41-.88-.24.43-.41.62-.43.82Z"/>
  <path class="cls-1" d="M327.47,264.07c-.4-.04-.8-.07-1.2-.11-.02.11-.04.23-.05.34.4.09.79.19,1.19.28.02-.17.04-.34.07-.51Z"/>
  <path class="cls-1" d="M277.44,78.56c.16,0,.32-.08.48-.13-.06-.16-.12-.32-.22-.58-.2.18-.35.27-.42.41-.03.06.1.3.16.3Z"/>
  <path class="cls-1" d="M273.53,95.9l-.68-.99c-.31.85-.05,1.16.68.99Z"/>
  <polygon class="cls-1" points="273.53 95.9 273.53 95.9 273.53 95.9 273.53 95.9 273.53 95.9"/>
  <path class="cls-1" d="M235.29,232.68c.01-.12.02-.24.04-.36-.31-.03-.63-.06-.94-.09-.01.12-.03.24-.04.37.31.03.63.06.94.09Z"/>
  <path class="cls-1" d="M286.98,137.59l-.35,1.46s.01,0,.01,0c.43-.37.99-.7.34-1.47Z"/>
  <path class="cls-1" d="M283.58,137.76c.42.02.84.05,1.26.07.02-.1.05-.19.07-.29-.21-.1-.41-.29-.62-.29-.26,0-.51.15-.77.24.02.09.04.18.06.27Z"/>
  <path class="cls-1" d="M306.45,255.44c-.17-.11-.3-.24-.46-.28-.08-.02-.19.12-.29.19.13.11.24.26.39.33.06.03.19-.12.36-.24Z"/>
  <path class="cls-1" d="M380.45,308.36c.2.32.41.63.61.95.1-.07.2-.15.31-.22-.25-.31-.5-.61-.75-.92-.03.02-.07.05-.1.07,0,0,0,0,0,0-.02.04-.04.07-.06.11Z"/>
  <path class="cls-1" d="M311.29,248.52c.04-.1.07-.2.11-.3-.17-.1-.33-.26-.5-.29-.19-.03-.39.08-.59.13,0,.09.02.18.03.26.32.07.64.13.96.2Z"/>
  <path class="cls-1" d="M386.13,381.64c.26.19.52.38.79.57.08-.1.17-.2.25-.3-.22-.21-.44-.41-.67-.62-.12.12-.25.24-.37.36Z"/>
  <path class="cls-1" d="M259.76,188.33c.23-.03.45-.1.69-.16-.07-.24-.11-.35-.15-.47-.21.1-.43.19-.63.31-.03.02.07.32.09.32Z"/>
  <path class="cls-1" d="M2.54,85.01c-.3-.14-.6-.28-.89-.41-.04.09-.09.19-.13.28l.89.43c.05-.1.09-.2.14-.3Z"/>
  <path class="cls-1" d="M271.04,249.88c.06.16.17.31.27.46.1-.07.29-.15.28-.2-.03-.17-.13-.32-.21-.49-.15.11-.34.21-.33.24Z"/>
  <path class="cls-1" d="M255.78,356.39c.04.11.11.2.17.31.09-.07.18-.15.27-.22-.1-.07-.19-.15-.29-.19-.03-.01-.15.09-.15.11Z"/>
  <path class="cls-1" d="M183.75,318.98c.08.1.17.19.25.29.11-.06.28-.1.3-.18.03-.1-.07-.23-.12-.35-.15.08-.29.16-.44.24Z"/>
  <path class="cls-1" d="M123.62,316.79s.18.15.27.23c.07-.09.2-.19.19-.28,0-.11-.12-.22-.19-.32-.1.12-.21.24-.27.38Z"/>
  <path class="cls-1" d="M267.72,48.25c.09-.03.14-.19.21-.29-.11-.06-.28-.19-.31-.17-.11.1-.17.25-.25.38.12.03.26.11.36.07Z"/>
  <path class="cls-1" d="M233.23,231.47c.16-.03.3-.13.45-.2-.1-.09-.18-.23-.29-.25-.1-.02-.23.08-.35.14.07.11.15.32.2.32Z"/>
  <path class="cls-1" d="M263.07,217.44c.28.05.56.1.84.15.02-.09.04-.19.05-.28-.28-.06-.56-.12-.83-.19-.02.1-.04.21-.06.31Z"/>
  <path class="cls-1" d="M267.73,211.44c.11.07.22.19.33.19.09,0,.19-.12.29-.2-.08-.1-.2-.3-.24-.28-.14.06-.26.18-.39.28Z"/>
  <path class="cls-1" d="M296.65,258.8c.06.02.17-.12.31-.24-.15-.11-.28-.21-.42-.32-.05.1-.16.21-.14.29.03.11.14.23.24.26Z"/>
  <path class="cls-1" d="M240.8,152.17c.42-.7-.26-.7-.65-.88-.15.16-.31.31-.46.47.39.15,1.07.48,1.11.42Z"/>
  <path class="cls-1" d="M199.15,152.29s.14.1.16.08c.09-.07.16-.17.23-.26-.11-.05-.22-.1-.32-.14-.03.11-.07.22-.07.32Z"/>
  <path class="cls-1" d="M245.61,177.07c-.11-.07-.21-.13-.38-.24-.1.14-.21.28-.32.42.11.06.26.21.32.18.15-.08.26-.23.38-.36Z"/>
  <path class="cls-1" d="M175.97,184.87c-.25-.27-.5-.55-.75-.82-.11.1-.22.2-.33.31.25.27.51.54.76.81.1-.1.21-.19.31-.29Z"/>
</svg>