<?xml version="1.0" encoding="UTF-8"?>
<svg id="Layer_1" data-name="Layer 1" xmlns="http://www.w3.org/2000/svg" viewBox="0 0 292.76 396">
  <defs>
    <style>
      .cls-1 {
        fill: #000;
        stroke-width: 0px;
      }
    </style>
  </defs>
  <path class="cls-1" d="M97.08,38.4s0,0,0,0c.02-.02.03-.04.05-.06l-.06.06Z"/>
  <path class="cls-1" d="M109.4,102.77h0,0s0,.03,0,.05c.02,0,.03,0,.05,0l-.03-.04s-.02-.02-.02-.02Z"/>
  <path class="cls-1" d="M80.25,387.69s-.01-.04-.02-.06l-.03.02.05.04Z"/>
  <path class="cls-1" d="M98.51,379.55s-.01-.05-.02-.07c0,.01-.02.02-.02.03l.04.04Z"/>
  <path class="cls-1" d="M292.53,134.5c-.14-.09-.24-.16-.34-.21-1.32-.67-1.31-.75-.26-1.83.29-.3.54-.81.53-1.22-.03-3.23-.58-6.39-1.56-9.46-.46-1.43-1.21-2.76-1.84-4.18-.44.08-.72.14-1,.17-.96.11-2.81-.84-3.27-1.6-2.26-3.76-4.53-7.51-6.82-11.24-1.22-1.99-2.53-3.94-3.76-5.93-1.59-2.59-3.11-5.23-4.72-7.81-1.36-2.18-2.79-4.31-4.19-6.46-.61-.93-1.24-1.84-1.87-2.75-1.62-2.36-3.25-4.71-4.87-7.07-.69-1.02-1.33-2.08-2.05-3.07-1.86-2.55-3.79-5.04-5.61-7.62-2.28-3.23-4.33-6.62-6.74-9.74-2.82-3.65-4.87-7.8-7.81-11.36-.11-.13-.16-.31-.26-.46-.67-1.02-1.34-2.04-2.04-3.04-.2-.29-.53-.49-.69-.79-1.41-2.56-3.34-4.74-5.21-6.96-.51-.6-.58-1.07.37-1.64-.9-.81-1.87-1.36-2.39-2.2-1.03-1.68-2.38-3.06-3.71-4.47-2.56-2.73-5.22-5.36-8.21-7.64-.49-.38-.97-1.03-1.89-.66.58.62,1.1,1.15,1.6,1.7.54.59,1.03,1.22,1.58,1.81.93.99,2.15,1.81,2.11,3.62-.57-.21-1.08-.31-1.48-.57-3.01-2.01-5.98-4.1-9.01-6.08-2.15-1.41-4.38-2.7-6.57-4.06-.28-.18-.51-.44-.75-.68-.12-.13-.2-.41-.32-.42-2.48-.25-4.25-2.01-6.38-3.01-.12-.06-.13-.35-.21-.58,3.13,0,5.6,1.94,8.68,2.51-1-1.73-2.54-1.81-3.94-2.08-1.66-.33-3.92-1.33-5.34-2.22-.67-.42-1.63-.41-2.46-.52-.55-.07-1.12.07-1.67,0-.92-.13-1.82-.44-2.75-.52-1.86-.15-3.72-.21-5.59-.29-1.74-.08-3.48-.16-5.21-.2-.22,0-.44.27-.84.53,2.03.19,3.16,1.42,4.58,2.58-5.73,2.5-11.31,1.59-16.98.26-.26.87-.79,1.25-1.7,1.11-.3-.05-.64.17-.96.28,0,0,.01-.02.02-.02-1-.07-1.89.21-2.72.78-.14.09-.41,0-.62-.02-.34-.03-.67-.08-1.06-.13-.46.94-.97,1.61-2.16,1.73-.99.1-1.96.7-2.88,1.2-3.97,2.19-7.9,4.48-12.59,4.72.1,1.45-.15,1.82-1.53,2.32-4.39,1.59-8.77,3.2-13.18,4.73-.61.21-1.35.07-2.03.06-.09,0-.17-.25-.28-.41.43-.22.81-.41,1.19-.6l-.2-.36c-.57.29-1.39.44-1.66.91-.46.81.98.62,1.01,1.43-.5.31-1,.75-1.58.96-1.24.45-2.26,1.73-3.86,1.05-.23-.1-.89.36-1.09.71-.62,1.13-1.68,1.56-2.74,2.05-.84.39-1.68.79-2.52,1.2-.14.07-.26.18-.4.28.28.19.52.35.77.52-.13.18-.21.4-.34.44-2.23.66-4.05,2.31-6.42,2.65-.85.12-1.37.55-1.08,1.42-.55.2-1.5.31-1.58.62-.29,1.22-1.27,1.36-2.14,1.73-.23.25-.47.5-.7.75.64-.03,1.18-.22,1.7-.45,1.17-.53,2.32-1.13,3.51-1.61.73-.3,1.54-.54,2.33.3-.59.51-1.13.93-1.6,1.41-1.48,1.49-2.91,3.03-4.41,4.51-.75.75-1.63,1.32-2.79,1.16-.79-.1-1.1.48-1.47,1.03.57.21,1.06.39,1.85.68-.85.85-1.49,1.5-2.14,2.13-.37.36-.73.87-1.18.99-.5.12-1.1-.13-1.72-.23-.36.47-.75.96-1.19,1.53.52.32.92.56,1.34.82-2.73,3.8-5.38,7.51-8.06,11.24,0,0-.07.03-.12,0-.16-.06-.33-.11-.47-.21-1.9-1.28-2.39-3.27-2.56-5.35-.17-2.04-.23-4.09-.27-6.14-.05-2.46-.07-4.92-.02-7.38.08-4.04.24-8.08.33-12.13.02-.8.02-1.56-.85-2.15-.6-.41-1.15-1.22-1.28-1.93-.18-1.03-.85-1.16-1.57-1.35-.83-.22-1.68-.41-2.55-.62.14-.52.24-.9.39-1.49-.82.39-1.39.67-2.18,1.05.15-1.08.26-1.85.37-2.65-.76-.2-1.66.36-1.83-.74.24-.07.48-.15.76-.24-.62-.46-1.42-.75-1.67-1.29-.58-1.27-1.55-1.43-2.73-1.45-.7-.01-1.48.22-2.3-.46,1.03-.18,1.83-.34,2.63-.47,1.35-.21,1.4-.2,1.57-1.56.12-.93.45-1.56,1.46-1.66.2-.02.39-.17.81-.35-1.08-.82-2.25-.23-3.14-.96-.09.67-.15,1.15-.23,1.75-.86-.3-1.07-.76-.97-1.51.05-.35-.02-.85-.25-1.08-.63-.65-1.36-1.19-2.09-1.8.1-.33.43-.83.3-1.15-.16-.4-.71-.65-1.09-.96.73-1.1.7-1.27-.3-1.83-.3-.17-.63-.32-.89-.54-1.22-1.02-2.46-1.98-4.01-2.48-.31-.1-.68-.32-.83-.59-.55-.99-1.45-1.03-2.42-1.08-1.92-.1-3.84-.23-5.75-.44-.92-.1-1.8-.53-2.71-.6-2.09-.17-4.2-.22-6.3-.33-.34-.02-.68-.13-1.02-.2-1.5-.32-2.96-.58-4.3.58-.41.35-1.05.51-1.62.6-1.78.26-3.58.57-5.37.63-1.91.07-3.68.62-5.5,1.07-1.81.45-3.09,1.64-4.26,2.91-.59.65-1.25.98-1.99,1.33-.88.42-1.78.88-2.51,1.51-1.57,1.38-2.96,2.98-4.57,4.31-2.19,1.8-4.11,3.74-4.97,6.55-.29.94-.8,1.81-1.17,2.73-.69,1.68-1.46,3.34-1.98,5.07-.37,1.25-.79,2.57-.31,3.94.37,1.05.76,2.1.95,3.19.53,3.07,1.35,6.06,2.52,8.93,2.11,5.18,2.79,10.62,3.32,16.11.47,4.83.85,9.68,1.43,14.5.66,5.59,1.84,11.08,3.51,16.46.99,3.18,1.99,6.36,2.95,9.56.5,1.68.85,3.4,1.39,5.06,1.05,3.17,2.18,6.31,3.29,9.45.36,1.03.74,2.06,1.18,3.29h-2.22c-.13,1.69.32,3.12.8,4.56.26.78.66,1.57.66,2.35,0,3.03.75,5.91,1.39,8.82.04.17.03.35.05.52.49,4,.87,8.02,1.49,12,.76,4.91,1.5,9.82,1.85,14.79.31,4.39.34,8.78.02,13.17-.22,3.02-.37,6.04-.53,9.06-.02.43.23.96.06,1.29-.6,1.14-.18,2.4-.53,3.53-.26.85.12,1.62.12,2.43.01,1.51-.95,2.98-.19,4.55.13.26.08.79-.11,1-.65.72-.43,1.48-.4,2.31.03.85.59,1.75-.24,2.61-.24.25-.16,1.21.12,1.48.84.8.24,1.25-.26,1.76.28.48.81,1.22.73,1.3-.74.71.09,1.46-.14,2.08-.45,1.19-.24,2.43-.32,3.62-.14,2.27.09,4.56.15,6.85.02.58,0,1.17-.03,1.75-.11,1.74-.43,3.49-.3,5.2.18,2.48-.44,4.89-.29,7.37.12,1.92-.14,3.85-.18,5.78-.03,1.44,0,2.89.05,4.33.04,1.35-.1,2.75.24,4.03.34,1.31.37,2.54.25,3.86-.1,1.08.09,2.19.23,3.28.29,2.32-.2,4.64.16,7,.46,3.01.44,6.09.63,9.15.04.57.58,1.19-.19,1.69-.09.06-.15.38-.09.45.96.92-.21,2.4.87,3.28-.24,1.4.16,2.74.34,4.11.45,3.4.75,6.81,1.1,10.22.13,1.28.25,2.55.35,3.83.12,1.51.17,3.02.33,4.52.12,1.12.41,2.22.54,3.34.21,1.77.31,3.55.54,5.31.08.63.12,1.18.02,1.83-.14.91-.29,1.95.4,2.87.3.41.27,1.1.31,1.67.03.56,0,1.14-.09,1.7-.15.87.5,1.46.66,2.2.22.97.2,1.99.31,2.99.09.85.51,1.7-.34,2.47-.17.15.04.75.13,1.14.24,1.07.36,2.19.81,3.17.48,1.04-.07,1.98-.22,2.83-.24,1.38-.28,2.34,1.24,2.96-1.17,1.42-1.2,2.98-1.03,4.55.04.33.34.64.53.96.1.17.28.33.32.51.12.7.51,1.29.1,2.16-.21.46.26,1.53.52,2.2.78,2.03-.25,3.83-.13,6.01.89.96,1.03,2.41.7,3.96-.08.4-.27.88-.13,1.2.49,1.19.07,2.4.19,3.59.17,1.71-.12,3.44-.18,5.15-.15,4.02,0,8.05.07,12.08.02.91-.37,1.39-1.24,1.6-.07-.59.49-1.25-.35-1.68-.69.77-.56,1.62-.5,2.49.08,1.27.08,2.55.11,3.82.04,1.64-.03,3.31,1.01,4.72.65.88,1.49,1.65,2.03,2.59.79,1.38,1.8,1.9,3.32,1.38.07-.02.19.1.28.15.18.47-.63,1.11.25,1.52.71-.32.48-1.66,1.72-1.51-.41,1.1-.71,2.14.71,2.76.31-.45.59-.86.92-1.34.57.22,1.07.42,1.51.59-.07-.8-.13-1.51-.2-2.28-.3-.13-.7-.31-1.01-.45.72-.61,1.66-1.05,2-1.77.41-.87.96-1.35,1.77-1.65-.12-.3-.21-.54-.35-.89.75-.03,1.33-.06,1.89-.09.26-.44.42-1.01.79-1.28.9-.65,1.89-1.17,2.86-1.7.27-.15.62-.13.99-.21v1.67c-.75.41-1.83-.4-2.48.83.79.24,1.54.47,2.31.7.21.61.42,1.24.73,2.18,1.58-1.82,3.94-1.93,5.36-3.71-.37-.28-.67-.5-1.12-.84.55-.13.9-.21,1.11-.27-.49-.95-.94-1.83-1.34-2.62,1.28-.56,2.41-1.05,3.61-1.58.14.65.28,1.31.44,2.02-.62.33-1.16.62-1.74.92.4.29.71.52,1.02.75-.56.61-.93,1.01-1.45,1.57.8.49,1.99.39,1.92,1.6,0,.04,1.03.21,1.57.18.29-.02.56-.34.96-.61.55.62,1,1.23,1.55,1.73.41.37.94.63,1.45.87.09.04.37-.19.49-.36.05-.07-.06-.34-.18-.43-.22-.16-.49-.24-.71-.34.19-.42.25-.82.48-1.02.26-.22.73-.43,1.03-.34,1.53.45,1.51.47,2.4-.58.2-.23.44-.43.8-.77.32,1.09.58,1.98.85,2.92,1.97-.09,1.94,1.34,1.93,2.73,1.41-.54,2.11-2.3,3.85-1.65.44-1.71.44-1.73,1.91-2.25,0,0,0,.02,0,.02.91.68,1.84,1.34,2.74,2.05.14.11.17.37.23.58,1.41-.77,2.83-1.54,4.24-2.31.4,1,.99,1.52,1.47,1.13.67-.55,1.26-.71,2.06-.48.17.05.46-.37.72-.59-.45-.36-.78-.62-1.15-.92,2.21-1.2,2.3-1.69.75-3.25-.08-1.46,2.37-.39,2.03-2.21-1.16.01-1.34-1-1.73-1.93.59-.05,1.17-.06,1.59.2.53.33.89.92,1.38,1.33.39.33.84.69,1.31.79.82.17,1.68.15,2.65.21,0-.42.06-.82-.01-1.19-.42-2.09.27-2.75,2.62-2.12-.66.63-1.23,1.17-1.9,1.82.87.51,1.96.37,2.23,1.38.29-.37.59-.74.88-1.11h1.17c.57-.69.94-1.46,1.54-1.75.58-.28,1.4-.06,2.13-.06-.13-.35-.29-.77-.46-1.2l.05.03s0,0,0,0c0,0-.05-.03-.05-.03,0,0,0,0,0,0-.24-.2-.57-.37-.67-.62-.2-.56-.59-1.26.28-1.62.8-.32,1.32,0,1.5.84.65.57,1.23,1.26,1.97,1.67.74.41,1.4.74,1.32,1.86.8-.46,1.05-1.74,1.97-1.07.33,1.01.61,1.89.99,3.04.47-1.15.8-1.94,1.18-2.88-.92-.96-1.88-1.96-2.55-2.65.16-1.25.27-2.12.4-3,.11-.8,0-1.74.41-2.36.72-1.13.86-2.3.81-3.53-.14-3.69-.24-7.39-.54-11.06-.62-7.59-1.27-15.18-2.08-22.75-.49-4.59-1.26-9.16-1.97-13.73-.87-5.6-1.8-11.19-2.72-16.78-.97-5.83-2-11.65-2.93-17.49-1.07-6.77-2.11-13.54-3.03-20.33-.84-6.14-1.62-12.28-1.97-18.47-.19-3.27-.4-6.54-.57-9.81-.08-1.68-.06-3.37-.13-5.05-.08-1.75-.35-3.5-.3-5.24.1-4.15.4-8.29.49-12.43.08-3.74-.02-7.48-.06-11.23,0-.58-.27-1.2-.13-1.73.45-1.76.1-3.48-.04-5.22-.14-1.74-.17-3.49-.23-5.24-.05-1.58-.04-3.15-.11-4.73-.12-2.62-.28-5.24-.42-7.85-.09-1.63-.17-3.25-.28-4.88-.06-.93-.2-1.86-.28-2.79-.23-2.9-.03-5.86-1.07-8.67-.1-.26-.11-.57-.1-.86.19-3.48-.73-6.83-1.23-10.22-.34-2.3-1.09-4.54-1.59-6.82-.24-1.07-.24-2.2-.51-3.27-.82-3.27-1.71-6.52-2.6-9.85,1.03-.83,2.07-1.66,3.11-2.5,1.18-.96,2.65-.65,4-.84v-.9c.76.55,1.19.24,1.57-.43.65-1.16,1.55-2.08,2.91-2.37.96-.2,1.96-.22,2.92-.44,1.07-.24,2.16-.5,3.16-.93.72-.31,1.36-.59,2.17-.48,1.27.17,2.29-.16,2.75-1.55.16-.48.54-.9.87-1.29,1.02-1.2,2.09-2.36,3.11-3.57,1.02-1.2,1-1.22.11-2.49.3-.12.6-.25,1-.41-.55-.73.04-1.8-.87-2.36-1.42,1.12-.88,2.88-1.48,4.18-.77-.7-1.48-1.33-2.22-2,.83-.65-.16-1.3-.21-2.03-.09-1.14-.91-1.3-2.11-1.51,1.59-.78,2.02-1.79,1.64-3.15-.06-.2-.02-.43-.01-.65-.26-.03-.54-.06-1.02-.12.42-.4.72-.68,1.02-.95,0,0,0,0-.01,0,.32-1,1.12-2.33,1.57-2.71.13-.11.07-.42.19-.55.73-.8.54-1.71.26-2.52.82-.66,2.09.5,2.47-1.01.92.56,1.76,1.07,2.64,1.6.43-.77.88-1.57,1.29-2.31-.88-1.33-2.19-2.19-2.36-3.81.18-.15.35-.3.53-.44.19-.14.39-.27.6-.36.89-.4,1.25-.17,1.34.86.04.5.06,1.01.1,1.74.91-1.57,1.83-2.87,1.25-4.3.51-.43.96-.63,1.15-.98,1.33-2.39,2.6-4.81,3.89-7.22,1.33-2.5,2.87-4.84,5.33-6.4.3-.19.61-.37.85-.61,2.89-2.92,6.58-4.64,10.11-6.56,2.1-1.14,4.36-1.98,6.56-2.92,3.8-1.62,7.56-3.36,11.45-4.75,2.5-.89,5.2-1.18,7.79-1.86,1.16-.3,2,.02,2.89.68,4.55,3.32,8.4,7.26,11.3,12.12,2.37,3.98,4.79,7.93,7.17,11.9,4.35,7.23,8.99,14.26,14.06,21.02,3.66,4.88,7.07,9.94,9.62,15.52,1.58,3.46,3.08,6.96,4.52,10.48.77,1.89,1.32,3.86,1.96,5.8.37,1.11.53,2.33,1.12,3.3.66,1.09.64,2.06.28,3.17-.19.6-.81,1.26.11,1.8-.18.2-.36.4-.68.77,1.01.11,1.89.2,3.08.32.57,1.05,1.28,2.36,1.99,3.67,0,0,0,.01-.01.02.28.27.54.76.84.78,1.66.15,3.36.67,4.96-.33.19-.12.53-.02.88-.02-.12.58-.2,1.01-.28,1.4.39.29.69.51,1.16.85-.84.33-1.46.58-2.12.84.15.87.24,1.57,1.32,1.57.33,0,.68.4.99.66,1.06.9,2.02,1.89,3.59,1.91.65,0,1.34.44,1.91.82.31.2.41.7.64,1.12,1.12-.55,2.32-.51,3.56-.28.62.11,1.27,0,1.91,0,.68,0,1.36.01,2.14.02.12-.66,0-1.42-.57-2.1-.55-.65-.58-1.36-.22-2.17.59-.04,1.16-.08,1.71-.11.13-.46.25-.89.42-1.51.8.3,1.48.56,2.23.85.1-.44.2-.87.32-1.4,1.28.12,2.56.04,3.68.42,1.13.38,2.1,1.22,3.29,1.96.16-.86.31-1.69.48-2.56.69.06,1.37.12,1.79.16.82-1.02,1.53-1.85,2.18-2.72,1.48-1.97,1.46-1.96,3.4-.35.24.2.7.13,1.06.18.02-.35.18-.8.02-1.04-.32-.49-.75-.89-.42-1.68.97-.06,1.34.51,1.36,1.35.02,1.08.48,1.92,1.28,2.58.55.45,1.16.85,1.97,1.44.22-.83.37-1.54.6-2.23.23-.7-.78-1.41-.02-2.07.13,0,.22-.04.25,0,2,1.78,3.31,3.99,4,6.57.04.14.05.4.08.4,1.22,0,.92.93.98,1.63.07.68.33,1.08,1.19.87-.37-1.22-.67-2.38-1.09-3.49-.18-.48-.47-.92-.86-1.36-.97-1.08-2-2.25-2.15-3.74,1.98.05,3.27,1.11,4.24,2.64.08.13.29.19.44.28,1,.57,1.61,1.46,2.02,2.51.02.05.21.04.4.07.21-.35.43-.72.69-1.16,1.57.77.83,3.24,2.93,3.68-.27-.86-.49-1.54-.71-2.25.45-.25.8-.44,1-.55-1.04-1.38-1.86-2.48-2.83-3.76.93-.11,1.36-.49,1.11-1.42.6.49,1,.81,1.4,1.13.13-.08.25-.16.38-.24-.46-1.4-.91-2.8-1.38-4.23,1.01-.53,1.8-.42,2.33.5.38.67.87.9,1.59.76,0,0,0,.01,0,.02.41-.28.85-.52,1.22-.85.85-.76,1.18-1.76.94-2.86-.17-.79-.52-1.54-.77-2.31-.21-.65-.55-1.01-1.3-.82-.24.06-.51-.01-.91-.03q1.04-.87,1.69-3.11c.51-.19,1.19-.24,1.57-.61.84-.81,1.42-.55,2.03.18-.32,2.07.41,2.84,2.41,2.51-.08-.66-.16-1.32-.23-1.95ZM9.83,19.91c-.21.07-.59-.05-.73-.22-.15-.18-.22-.57-.12-.78.09-.2.45-.4.67-.38.62.05,1.22.21,2.27.42-.95.45-1.5.76-2.08.96ZM25.05,6.68c.04-.41.07-.83.11-1.24.59.59.19.9-.11,1.24ZM14.94,20.04c-.07-.38-.14-.75-.21-1.13.09-.02.18-.04.27-.06.09.37.18.74.27,1.11-.11.02-.22.05-.33.07ZM20.24,17.86c.22-.48.36-.76.5-1.05-.06-.09-.12-.18-.18-.27-.66.32-1.32.65-2.02.99.18-.88.34-1.68.5-2.47-.11-.07-.23-.14-.34-.21-.5.31-.99.62-1.49.94,0,0,0,0-.01,0,.01.01.03.03.04.04-.03,0-.06,0-.09-.01-.81.53-1.18.48-1.99-.32-.03,0-.07-.01-.1-.02,0-.02.02-.03.03-.05,0,0,0,0,0,0-.87.08-1.63-.08-2.04-.97q1.3-1.9,4.28-.41v-1.65c.58-.78,1.04-1.4,1.54-2.07.12.85.3,1.76.38,2.67.14,1.5.54,1.78,2.32,1.4-1.22-1.82.78-2.39,1.41-3.65.33.2.66.41,1.04.65-.14.35-.26.66-.41,1.05.42.03.8.06,1.18.09.59,1.45.27,2.63-1.02,3.63.3.45.57.85.89,1.33-.28.2-.51.51-.73.5-1.19,0-2.38-.09-3.69-.15ZM26.41,20.71c-1.01.05-2.03.1-3.38.16.41-.63.68-1.05.93-1.45.96.42,1.73.76,2.5,1.09-.01.06-.03.13-.04.19ZM24.53,8.2c-.38-.64-.03-1.06.49-1.39.2,1.07.77,1.69,2.1,1.41-1.32.67-2.21.62-2.59-.02ZM30.83,9.57c-.11.14-.21.27-.32.41-.4-.31-.79-.62-1.4-1.1.97-.12,1.57-.14,1.72.69ZM29.16,10.18c.26.19.53.37,1.01.71-.49.17-.77.27-1.06.37-.09-.29-.18-.58-.27-.87.11-.07.22-.14.32-.2ZM28.4,15.88c.22-.49.44-1,.79-1.78.78.57,1.36.99,1.96,1.43-1.38,1.51-1.39,1.52-2.75.35ZM35.19,17.12c.27-.42.47-.73.83-1.28.46,1.11.13,1.34-.83,1.28ZM36.42,276.77c-.07-.08-.1-.19-.16-.3.08-.03.2-.1.24-.07.08.07.11.18.16.28-.08.04-.22.12-.24.1ZM36.01,257.64c-.06-.09-.12-.17-.18-.26.2-.18.38-.38.6-.53.03-.02.22.2.34.3-.25.16-.5.32-.76.49ZM39.38,17.59c.03.08.05.16.08.25-.22.03-.44.06-.67.09-.02-.06-.03-.12-.05-.18.21-.05.42-.11.64-.16ZM38.48,21.25c.13.05.24.17.43.32-.22.11-.35.18-.49.25-.07-.13-.16-.26-.19-.41,0-.04.19-.19.24-.17ZM37.63,260.45c-.07-.12-.14-.24-.21-.36.46-.69.91-1.38,1.49-2.26.06.89.1,1.55.16,2.45-.47.06-.96.11-1.45.17ZM39.26,269.33c.05,0,.19.18.17.24-.04.12-.16.22-.31.41-.11-.22-.18-.35-.25-.48.13-.06.25-.15.38-.16ZM39.16,283.42c-.1-.22-.23-.37-.2-.46.03-.1.22-.16.35-.19.04,0,.18.18.16.23-.04.13-.16.23-.31.42ZM40.27,287.11c-.07,0-.2-.3-.16-.36.07-.11.27-.2.4-.19.11,0,.21.17.45.39-.32.09-.51.18-.69.17ZM40.92,22.6c-.2-.22-.4-.43-.57-.66-.01-.02.2-.2.31-.31.2.22.4.44.59.66-.11.1-.22.21-.33.31ZM48.37,14.91c-.13-.07-.23-.17-.35-.26.07-.07.13-.15.24-.26.1.11.22.21.29.33.01.02-.16.21-.19.2ZM51.84,4.65c-.1-.06-.14-.24-.17-.38,0-.03.17-.14.25-.13.15.03.28.12.62.28-.45.16-.62.27-.7.23ZM52.81,21.66c0-.14-.02-.28-.03-.42h.89c.01.08.02.17.03.26-.3.06-.6.11-.89.17ZM54.21,9.2l-.7-.21c.03-.12.07-.25.1-.37.23.11.46.22.7.33l-.1.25ZM54.68,7.85c-.24-.37-.51-.78-.91-1.38,1.25.22,2.33.42,3.41.61.02.12.04.24.06.36-.81.13-1.62.26-2.56.41ZM58.11,6.45c.21.45.41.9.62,1.34-1.01-.08-1-.62-.62-1.34ZM60.96,377.18c.13,0,.26.08.4.13-.08.15-.15.32-.17.31-.13-.04-.26-.1-.36-.19-.02-.02.09-.25.13-.25ZM61.44,381.79c-.68.04-1.37.08-1.99.12-.39-.7-.07-1.24.34-1.22.59.03,1.17.44,1.75.69-.03.14-.07.27-.1.41ZM62.23,382.07c.5.51.86.87,1.37,1.38q-1.45-.09-1.37-1.38ZM63.21,380.36c.49.44.93.83,1.41,1.26q-1.15.04-1.41-1.26ZM64.11,19.84c-.01-.09-.02-.19-.04-.28.3-.04.61-.08.91-.12.01.1.03.19.04.29-.3.04-.61.08-.91.12ZM74.17,28.92c-1.13.1-1.48-.27-1.58-1.44.62.57,1,.91,1.58,1.44ZM72.87,383.26c.56-.78,1.27-.47,1.99-.33-.7,1.31-.97,1.36-1.99.33ZM77.28,384.95c-.3-.23-.61-.46-1.05-.78.28-.22.48-.49.72-.53.14-.02.43.32.48.54.05.24-.08.51-.15.77ZM79.6,386.02c-.15-.22-.25-.48-.36-.73.14-.06.29-.12.43-.18.12.26.25.52.37.78-.15.05-.42.17-.44.13ZM84.47,385.22c-.47-1.49-.5-1.51-2.08-1.6-.49-.03-.95-.03-.96-.78.89,0,1.78-.09,2.64.03.86.12,1,1.21.4,2.36ZM106.18,371.75c.19.67.35,1.25.63,2.24-.95-.72-1.58-1.2-2.53-1.92.88-.15,1.37-.23,1.9-.32ZM100.66,369.9c.17.01.34.15.71.34-.36.2-.55.39-.69.36-.14-.03-.27-.26-.35-.43-.02-.04.22-.28.33-.27ZM95.37,371.46c1.04-.28,1.45.49,1.75,1.46-.66-.32-1.33-.63-1.99-.95.08-.17.16-.34.24-.51ZM94.15,369.71c.19.19.39.38.55.59.02.03-.18.23-.38.47-.2-.29-.38-.49-.48-.72-.02-.06.2-.22.32-.34ZM92.43,374.98c-.37-.79-.65-1.37-1.05-2.22q1.36.77,1.05,2.22ZM91.6,246.73c.06.09.11.18.2.34-.13.07-.26.16-.4.2-.03,0-.18-.22-.16-.25.09-.11.23-.19.35-.28ZM87.57,383.09c-.03.08-.06.16-.09.24-.23-.07-.46-.14-.69-.21.02-.11.04-.21.06-.32.24.09.48.19.72.28ZM106.02,107c-.08-.04-.16-.08-.24-.11.1-.21.2-.42.31-.63.08.03.15.07.23.1-.1.21-.2.43-.3.64ZM108.67,107.73c.03.08.06.15.09.23-.29.12-.58.24-.86.36-.04-.09-.07-.17-.11-.26.29-.11.59-.22.88-.32ZM111.45,93.45c-.1-.08-.21-.16-.31-.24.08-.06.16-.16.23-.16.08,0,.16.11.23.16-.05.08-.1.16-.16.24ZM115.53,92.98c1.12.5.5,1.36.8,2.04q-1.35-.44-.8-2.04ZM119.93,78.19c-.36-.1-.73-.2-1.09-.3,0-.08-.01-.17-.02-.25.21-.04.44-.14.64-.11.2.04.38.21.57.32l-.11.34ZM122,82.17c-.15-.02-.3-.08-.45-.13.06-.12.11-.33.17-.33.14,0,.29.09.44.15-.07.14-.12.31-.15.31ZM122.92,80.66c-.08-.07-.17-.13-.48-.38.19-.07.35-.16.51-.18.08,0,.17.11.26.18-.09.13-.19.25-.28.38ZM125.76,76.54c-.16-.02-.32-.03-.48-.05-.28-.52-.37-1,.73-1.38-.1.58-.17,1-.25,1.43ZM129.21,71.89c-.25-.28-.42-.47-.59-.65.18-.15.4-.46.52-.42.21.06.41.31.51.53.04.08-.23.29-.43.54ZM131.58,70.12c-.66.36-1.19.09-1.77-.74.9-.1,1.5-.18,2.46-.29-.32.49-.44.89-.69,1.03ZM135.93,67.49c-.54.59-1.33.96-1.99,1.42-.28-.49-.59-1.01-1-1.73.82-.27,1.7-.45,2.48-.84.51-.25.88-.79,1.41-1.29.42,1.14-.34,1.83-.9,2.44ZM138.54,65.46c-.13-.13-.26-.26-.39-.39.11-.1.21-.29.32-.29.11,0,.23.17.39.3-.13.15-.22.26-.32.38ZM157.23,10.09c-.09-.02-.17-.05-.26-.07.03-.26.06-.51.09-.77.14.03.28.07.41.1-.08.25-.17.49-.25.74ZM158.37,9.67c-.11-.08-.22-.17-.33-.25.23-.32.46-.64.7-.96.13.04.26.09.4.13-.25.36-.51.72-.76,1.08ZM223.89,147.09c.05-.21.1-.42.15-.64.1.05.19.09.29.14-.15.17-.3.33-.44.5ZM225.69,145.69c-.45-.79-.83-1.45-1.23-2.14,1.35-.18,1.62.26,1.23,2.14ZM226.66,143.32c-.19-.16-.3-.26-.41-.36.12-.09.23-.21.36-.25.07-.02.26.11.25.16-.02.13-.1.25-.2.45ZM230.28,141.66q-.95-.71,0-1.99v1.99ZM232.04,138.97c-.12-.06-.25-.12-.38-.19.13-.21.27-.42.4-.62.08.05.17.1.25.15-.09.22-.19.44-.28.66ZM233.74,141.1c-.03-.12-.06-.25-.09-.37.37-.09.75-.17,1.12-.26.03.1.05.2.08.3-.37.11-.74.21-1.11.32ZM240.47,154.34c-.31-.21-.63-.42-.94-.63.05-.08.09-.17.14-.25.35.18.7.36,1.05.55-.08.11-.16.22-.25.33ZM241.99,141.03c-.19-.44-.34-.61-.31-.73.06-.22.23-.4.35-.6.09.12.26.23.26.35,0,.19-.11.37-.31.99ZM243.01,154.73s-.27-.1-.27-.12c.05-.27.13-.53.2-.79.15.05.3.1.45.16-.12.25-.24.51-.38.76ZM250.46,72.36c-.31-.29-.62-.57-1.09-1,1.09-.36,1.2.21,1.41.65-.1.12-.21.23-.31.35ZM258.68,143.05c-1.1-.07-2.24,0-3.28-.28-1.29-.35-1.75-1.42-1.6-2.79,1.24-.24,2.26-.05,3.11,1.01.53.65,1.3,1.11,1.93,1.62-.09.24-.13.44-.16.43ZM261.45,145.07c-1.17.26-1.62-.12-1.52-1.3.02-.27.18-.53.3-.86,1.41.02,2.38.61,3.5,1.56-.88.23-1.57.44-2.28.6ZM264.4,142.84c.28-.86.64-.84,1.19-.16-.52.07-.85.11-1.19.16ZM266.43,143.06c1.94-.87,2.41-.65,2.75,1.05-1.09.31-1.65-.66-2.75-1.05ZM270.77,143.42c-.12-.02-.29-.19-.3-.31,0-.1.19-.3.29-.3.12,0,.24.18.42.32-.17.13-.3.3-.4.29ZM270.28,140.16c-.44-.06-.89.06-1.34.1-.02.11-.04.22-.06.34.31.06.63.12,1.14.22-.2.43-.37.79-.58,1.22-.76-.31-1.38-.57-2-.82.62-1.72,1.36-2.34,2.91-2.24.43.03.82.61,1.2.91-.48.87-.87.33-1.28.27ZM274.7,137.63c-.08,0-.15,0-.23,0v-.96c.08,0,.15,0,.23.01v.95ZM281.74,142.21c-.9-.19-1.05-.63-.96-1.37.85.05,1.08.46.96,1.37ZM284.45,133.4c.61-.79,1.19-1.54,1.76-2.28.76.48,1.41.89,2.08,1.31-1.29,1.15-2.6,1.53-3.83.97Z"/>
  <path class="cls-1" d="M58.96,386.64c-.78-2.14-1.14-2.27-2.77-1.18-.24.16-.58.22-.76.43-.67.77-1.4.97-2.46.35.95.89-.55,2.18.66,2.91.49-.32.95-.61,1.41-.9.89,1.73-1.14,1.78-1.46,2.86-.2.68-1.2,1.14-2,1.83v1.5c1.64.01,3.27.7,4.84-.67-.61.08-1.08.23-1.51.16-.42-.07-1.07-.3-1.14-.58-.11-.41.11-1,.37-1.39.32-.47.91-.75,1.23-1.21.39-.59.86-.71,1.48-.59.06.01.16-.14.3-.28-.26-.23-.5-.44-.72-.63.32-1.38,1.38-2.07,2.53-2.59Z"/>
  <path class="cls-1" d="M69.29,4.91q.17,2.57,1.58,2.65c.69-1.04.16-2.14.16-3.22,0-.22-.29-.55-.52-.64-1.12-.41-2.26-.7-3.47-.27.48.78.89,1.44,1.36,2.21.22-.18.55-.45.88-.73Z"/>
  <path class="cls-1" d="M106.33,379.49c.01,1.77.2,1.88,1.7,1.29.38-.15.84-.07,1.27-.09-.15-.47-.3-.93-.45-1.41-.87.07-1.7.14-2.52.21Z"/>
  <path class="cls-1" d="M276.42,156.01c0,1.37.2,2.36,1.41,3.16-.08-1.28-.19-2.31-1.41-3.16Z"/>
  <path class="cls-1" d="M268.52,157.47c.26,1.49,1.08,2.77,1.98,4.02-.5-1.36-.99-2.72-1.49-4.08-.16.02-.33.04-.49.07Z"/>
  <path class="cls-1" d="M58.15,3.19c.84-.24,1.69-.47,2.85-.8q-1.99-.24-2.85.8Z"/>
  <path class="cls-1" d="M69.69,20.01c.66.42,1.24.5,1.79-.2q-1.13-.8-1.79.2Z"/>
  <path class="cls-1" d="M67.77,391.14c.29-.85.51-1.5.75-2.2-1.18.49-1.43,1.12-.75,2.2Z"/>
  <path class="cls-1" d="M135.59,15.81c-.93-.33-1.73-.61-2.53-.9-.04.13-.09.26-.13.39.91-.03,1.22,1.71,2.67.51Z"/>
  <path class="cls-1" d="M66.31,391.51c-.72.07-.69.6-.55,1.24.66.07,1.11-.02,1.05-.66-.02-.22-.35-.59-.5-.57Z"/>
  <path class="cls-1" d="M264.03,148.77c.01.09.02.19.03.28.5.05,1,.11,1.63.18-.1-.44-.15-.7-.24-1.08-.55.24-.99.43-1.42.62Z"/>
  <path class="cls-1" d="M210.64,13.74c-1.11-.63-1.92-1.08-2.72-1.53.98,1.2,1.32,1.38,2.72,1.53Z"/>
  <path class="cls-1" d="M158.48,6.21c.69.41,1.08.64,1.54.91.08-1.11-.42-1.23-1.54-.91Z"/>
  <path class="cls-1" d="M60.68,390.15c-.14.02-.28.04-.42.06.04.37.09.73.13,1.1.15-.02.3-.04.45-.06-.05-.36-.11-.73-.16-1.09Z"/>
  <path class="cls-1" d="M286.96,145.42c-.32-.28-.63-.56-.95-.85.2.38.39.77.59,1.15.12-.1.24-.21.36-.31Z"/>
  <path class="cls-1" d="M286.01,144.58c-.04-.08-.08-.15-.12-.23-.03.02-.05.03-.08.05.07.06.13.12.2.18Z"/>
  <path class="cls-1" d="M60.55,394.52c.02.49.05.99.07,1.48.13,0,.25-.01.38-.02-.04-.49-.08-.99-.11-1.48-.11,0-.22.01-.34.02Z"/>
  <path class="cls-1" d="M45.53,388.7c.01.07.03.14.04.21h.74c0-.12,0-.25,0-.37-.26.05-.51.11-.77.16Z"/>
  <path class="cls-1" d="M98.51,379.55s-.05-.04-.05-.04c0,.03,0,.06,0,.09.02-.01.03-.03.05-.04Z"/>
  <path class="cls-1" d="M98.35,381.01c.05-.6.08-1.01.11-1.41-.43.32-.78.66-.11,1.41Z"/>
  <path class="cls-1" d="M103.81,375.39h0c.04-.07.07-.15.1-.23-.05.06-.1.13-.15.19.02.01.03.03.05.04Z"/>
  <path class="cls-1" d="M104.8,373.98s.05,0,.08,0c0,0,0-.01,0-.02-.01,0-.02-.02-.03-.03-.01.02-.03.03-.04.05Z"/>
  <path class="cls-1" d="M103.91,375.16c.3-.39.6-.79.89-1.18-.85-.02-.75.67-.89,1.18Z"/>
  <path class="cls-1" d="M109.42,102.79s.03.04.03.04c0-.02,0-.04,0-.05h-.05l.02.02Z"/>
  <path class="cls-1" d="M110.47,102.77c.04-.09.07-.19.11-.28-.38-.24-.75-.48-1.13-.72,0,.33,0,.67,0,1h1.02Z"/>
  <path class="cls-1" d="M109.44,101.7s-.03.03-.04.04c.01,0,.03.02.04.03,0-.02,0-.04,0-.07Z"/>
  <path class="cls-1" d="M114.2,104.18c.12-.41.24-.83.36-1.24-.12-.02-.23-.05-.35-.07-.07.43-.13.85-.2,1.28.06.01.13.02.19.03Z"/>
  <path class="cls-1" d="M59.34,394.71c-.17.08-.4.21-.43.36-.03.14.17.32.37.66.18-.35.32-.52.33-.7,0-.11-.24-.34-.28-.32Z"/>
  <path class="cls-1" d="M102.56,379.63s.07.19.11.29c.09-.06.17-.11.26-.17-.01-.11-.03-.22-.04-.33-.12.06-.26.11-.34.2Z"/>
  <path class="cls-1" d="M96.25,38.26c.42.04.64.05.85.07.08-.23.17-.47.31-.86-.42.29-.72.49-1.17.79Z"/>
  <path class="cls-1" d="M97.08,38.4s.06-.06.06-.06c-.01,0-.02,0-.04,0,0,.02-.01.04-.02.06Z"/>
  <path class="cls-1" d="M111.54,383.66c.07,0,.14,0,.21-.01v-.79c-.09,0-.17-.01-.26-.01.02.27.03.55.05.82Z"/>
  <path class="cls-1" d="M60.76,392.53c0,.09.1.28.15.27.15-.01.29-.09.43-.14-.06-.14-.11-.28-.34-.84-.14.4-.22.55-.24.71Z"/>
  <path class="cls-1" d="M115.29,98.76c0,.1.08.2.12.3.07-.05.14-.09.26-.17-.08-.12-.15-.24-.23-.36-.06.08-.16.16-.16.24Z"/>
  <path class="cls-1" d="M231.68,34.48c-.06.06-.11.12-.17.18.12.15.25.3.44.54-.12-.31-.2-.52-.27-.72Z"/>
  <path class="cls-1" d="M80.25,387.69s-.05-.04-.05-.04c-.02.05-.05.09-.07.14.04-.03.08-.06.11-.09Z"/>
  <path class="cls-1" d="M79.79,388.47c.11-.23.23-.46.34-.69-.2.17-.4.33-.61.49.09.06.17.13.26.19Z"/>
  <path class="cls-1" d="M15.08,15.43s.04.04.07.06c.66.11,1.33.21,1.99.32.02-.01.03-.02.05-.03-.44-.47-.89-.94-1.41-1.49-.29.48-.5.81-.7,1.13Z"/>
</svg>