<?xml version="1.0" encoding="UTF-8"?>
<svg id="Layer_1" data-name="Layer 1" xmlns="http://www.w3.org/2000/svg" viewBox="0 0 291.02 500">
  <defs>
    <style>
      .cls-1 {
        fill: #000;
        stroke-width: 0px;
      }
    </style>
  </defs>
  <path class="cls-1" d="M256.45,449.98c.15.45.3.9.47,1.35.55,1.46-.19,2.15-1.47,1.83-1.11-.27-1.45.22-2.07.87-1.12,1.17-2.42,2.17-3.65,3.24.27.1.53.19.8.29.19.96.38,1.92.69,3.52-2.72-1.92-4.43-1.14-6.08.54-3.59,3.66-7.36,7.16-10.88,10.88-4.63,4.88-10.5,7.72-16.39,10.61-1.17.57-2.98.59-3.19,2.55-.03.24-.83.6-1.24.56-3.43-.38-6.1,1.75-9.13,2.67-.91.28-1.86.56-2.66,1.06-.8.5-1.44,1.28-2.41,2.17-.1-.13-.49-.63-1.11-1.42-.32.58-.58,1.04-.83,1.52-.31.59-.48,1.37-.97,1.73-.44.32-1.21.19-1.84.25.17-.54.31-1.09.52-1.61.14-.35.39-.67.78-1.3-3.31-.23-6.33-.44-9.48-.65-.35,2.38-2.07,2.1-3.76,2.43-1.68.32-3.2,1.48-4.79,2.27-.22.11-.43.24-.73.41-.46-1.19-.87-2.28-1.29-3.37-.19.04-.39.07-.58.11.11,1.31.22,2.62.34,4.08-.18.11-.85.28-1.1.71-1.04,1.79-1.76.93-2.14-.31-.48-1.58-2.75-2.87-.72-4.85-1.32.14-2.51.08-3.58.43-.86.28-2.03.89-2.26,1.62-.47,1.47-1.54,1.54-2.55,1.5-1.36-.06-2.7-.53-4.06-.73-.59-.09-1.59-.15-1.75.14-1.05,1.84-2.42.75-3.55.4-1.6-.5-2.43-.1-2.62,1.72.46-.03.89-.05,1.32-.08.67,3.05.23,3.12-2.67,2.75-2.87-.36-4.35-1.83-5.81-4.03-1.71-2.57-5.63-2.1-7.36.47-.37.54-1.68.74-2.49.63-1.71-.22-3.39-.73-5.07-1.15-.57-.14-1.11-.45-1.68-.58-1.96-.47-3.93-.9-5.9-1.32-.06-.01-.16.2-.56.72,1.2.7,2.34,1.36,3.49,2.03-1.74,1.12-3.35-.23-5.02-.58-.08-.02-.15-.84.02-1.17.28-.53.76-.96,1.28-1.59-3.13-.12-3.95-1.04-3.1-3.29-1.38-1.08-2.26.17-3.04.85-1.25,1.1-2.25,1.4-3.74.33-.68-.49-1.87-.35-2.83-.35-.65,0-1.31.42-1.95.38-1.16-.08-1.97-.56-1.02-1.9-3.66-.41-7.32-2.3-7.95-4.52-1,.67-1.9,1.27-2.43,1.62-1.05-.5-2.02-.9-2.94-1.4-.59-.32-1.24-.69-1.6-1.21-.45-.65-.63-1.48-.87-2.09-2.15-.41-4.17-.69-6.13-1.22-.61-.17-1.42-1.02-1.43-1.56,0-.62.65-1.49,1.25-1.84,1.22-.7,1.18-1.77.37-2.27-1.15-.72-2.63-.94-4-1.27-.27-.06-.73.29-.97.57-.58.69-1.07,1.45-1.56,2.13-2.78-1.72-5.35-3.02-7.57-4.79-1.77-1.41-3.09-3.38-4.85-5.38-1.12.19-1.51-.12-1.95-1.72-1.54-1.08-2.67-1.88-3.88-2.72,2.09-1.96,1.85-2.33.4-4.47-.98-1.44-1.97-2.12-3.55-2.78-1.36-.57-2.18-2.46-3.31-3.87-.65.09-1.45.2-2.67.36v-6.54c-.9-.77-2.12-1.82-3.66-3.15-1.6.35-3.79.82-6.1,1.32.14.77.25,1.32.43,2.32-1.04-2.15-2.04-3.83-2.63-5.64-.25-.78.32-1.85.57-2.77.16-.59.42-1.15.5-1.35-1.62-.15-3.01-.36-4.41-.37-.96,0-1.93.26-3.4.47-.54-3.13-1.26-6.95-5.19-8.86.13-1.03-.44-2.53,1.59-2.55.23,0,.45-.82.83-1.59-1.91.34-3.48.59-5.04.9-1.35.27-2.76-.58-2.49-1.82.5-2.28-.63-3.52-2.24-4.7-.52-.38-.91-.94-1.58-1.66,1.67-.73,3.06-1.27,4.38-1.96.45-.24.71-.85,1.16-1.44h-5.68c.76-2.69,1.13-5.12,3.45-6.69.57-.38.61-1.54,1.01-2.65.3.68.56,1.07.63,1.49.1.57.06,1.16.08,1.74.92-.16,2.03-.05,2.73-.53,1.2-.82,2.14-2.02,3.56-3.41-.73-1.61-1.61-3.57-2.51-5.56-.96.3-1.72.54-2.53.8.49-1.96-.79-4.18-2.34-5.11-.53-.32-.57-1.74-.5-2.63.03-.42.85-.78,1.35-1.19,1.67,2.77,5.65,3.99,4.57,8.43,1.44-.92,3.19-1.16,2.62-3.08-.21-.69-1.21-1.14-2.05-1.52-1.04-2.51.23-3.98,2.97-3.65.85.1,1.76-.25,2.64-.4.43.78.86,1.57,1.65,3.02,1.11-1.51,1.68-3.11,2.73-3.54,2.44-1,1.42-2.74,1.35-4.46-.21,3.2-4.97,1.08-4.94,4.5,0,.01-.25.03-.39.04-.09-.26-.1-.62-.28-.76-1.19-.92-2.6-1.62-3.59-2.72-.96-1.07-1.49-2.51-2.31-3.97.66-.66,1.5-1.55,2.41-2.35.35-.31.86-.45,1.3-.66.19.4.48.79.54,1.21.35,2.46,1.44,3.22,3.66,2.32.69-.28,1.79-1.18,1.7-1.49-.33-1.06-1.07-2.02-1.73-2.95-.14-.2-.64-.15-1.03-.22-.08-.5-.24-1-.23-1.51.03-.92.17-1.83.27-2.75,1.09.53,2.93.86,3.13,1.63.51,1.9,1.17,2.69,3.13,2.05.26-.09.62.16,1.26.34v-6.06c1.53,1.88,3.25,3.29,5.83,2.43.22.76.43,1.51.65,2.27l-.5.28,1.78.67c-.05-.16-.09-.31-.14-.47.7-.33,1.71-.47,2.02-1.02.44-.79.39-1.86.5-2.81,0-.08-.33-.19-.5-.29-1.12-.64-2.65-1.18-2.34-2.74.23-1.18,3.48-1.61,4.9-.95,1.11.51,2.29.91,3.48,1.23,1.38.37,2.03,1.68,1.17,3.34,1.31-.39,2.34-.69,3.37-1,.38,1.35.79,2.86,1.23,4.44.4-.09.74-.07.91-.22,4-3.63,7.23.24,10.75,1.12.43.11.68.82,1.11,1.09.69.42,1.48.66,2.2,1.03.56.28,1.38.54,1.55,1,.68,1.85,2.05,2.5,3.83,2.59,1.97.1,2.57.8,2.6,2.8,0,.51.48,1.01.91,1.81.95-1.65,1.66-3.18,3.24-1.27,3.16-.59,4.66,2.12,6.86,3.43.23.14.63.39.71.32,1.76-1.59,3.02,1.04,4.66.57.08-.02.35.64.31.57.95-.07,1.7-.25,2.4-.14,1.14.19,2.23.61,3.36.87,2.33.55,3.92,1.92,4.92,4.1.44.96,1.07,1.45,2.14.38.5-.5,1.55-.6,2.35-.61.98-.02,1.97.22,2.95.39,1.83.31,3.99.15,5.41,1.1,2.01,1.35,4.23,1.14,5.66.4,3.38-1.74,6.85-1.66,10.38-1.89,1.06-.07,2.15-.79,3.12-.61,2.11.39,3.55-1.51,5.08-1.51,2.21-.01,3.83-1.17,5.73-1.51,3.45-.64,7.02-.63,10.53-.89.68-.05,1.39-.04,2.04-.22,2-.55,3.97-1.19,5.96-1.77,2.79-.81,5.96-.55,8.24-2.86.24-.24.64-.4.74-.68.99-2.8,4.1-2.96,5.94-4.7.29-.27,1.49-.03,1.91.36,1.42,1.35,3.05,1.81,5.12,1.71-.16-1.09-.46-2.09-.39-3.06.06-.73.45-1.85.97-2.04.89-.33,2.04-.21,2.99.05.25.07.17,1.36.22,2.1.05.75.08,1.49.13,2.24.92-.21,1.92-.28,2.75-.68.42-.2.83-1.06.75-1.54-.31-1.98.9-4.46,2.78-5.54.57-.33.97-.98,1.44-1.48.86-.9,1.58-2.02,2.6-2.65,1.68-1.04,3.69-1.58,5.3-2.7.67-.47.68-1.89,1.14-3.34,1.26-.26,1.45-1.06.15-2.71-.48-.61-.15-2.19.29-3.1.54-1.13,1.62-2,2.37-3.05.27-.37.29-.93.46-1.52.77.37,1.53.74,2.32,1.13.21-1.53-1.25-3.19-2.69-3.23-.31-2.07-.7-4.13-.87-6.21-.06-.77.18-1.78.67-2.33,1.12-1.24,2.48-2.27,3.75-3.37.15-.13.36-.21.55-.25.84-.16,2.21-.04,2.42-.49.52-1.09.51-2.44.75-3.93-.96.23-1.58.38-2.61.63.91-1.95,1.7-3.58,2.42-5.24.33-.75.77-1.58.71-2.34-.36-4.76-.82-9.52-1.3-14.27-.53-5.29-1.02-10.59-1.72-15.87-.46-3.44-2.26-6.41-4.62-8.82-3.42-3.49-7.07-6.76-10.79-9.93-2.26-1.93-4.79-3.53-7.28-5.18-.64-.43-1.55-.52-2.35-.64-3.85-.59-7.79-.81-11.54-1.77-3.79-.97-7.41-2.62-11.09-4.03-4.01-1.53-8-3.14-12-4.69-.37-.14-.81-.16-1.21-.14-9.61.41-19.05-.97-28.42-2.81-5.04-.98-10.01-2.21-15.22-1.95-1.52.07-3.06-.59-4.6-.81-4.38-.63-8.75-1.37-13.15-1.76-9.43-.85-18.64-2.87-27.79-5.19-1.76-.45-3.46-1.31-5.05-2.22-3.48-1.98-6.97-3.96-10.27-6.21-3.26-2.23-6.4-4.67-9.41-7.23-3.51-2.98-6.97-6.05-10.19-9.34-2.94-3-5.67-6.22-8.25-9.54-3.05-3.93-5.96-8-8.69-12.16-1.9-2.9-3.42-6.05-5.08-9.1-1.33-2.45-2.76-4.86-3.87-7.4-2.16-4.95-4.33-9.91-6.07-15.01-.81-2.36-.61-5.07-.87-7.62-.01-.13,0-.3-.07-.39-2.8-3.41-1.73-7.88-3.15-11.72-1.07-2.88-1.02-6.18-1.4-9.31-.49-4-1.01-8-1.32-12.01-.3-4.01-.59-8.05-.47-12.07.16-5.16.92-10.3,1.1-15.46.25-7.24,2.23-14.13,4.21-20.97,2.01-6.98,4.51-13.84,7.21-20.58,1.92-4.8,4.21-9.52,6.92-13.92,4.13-6.72,8.07-13.67,13.92-19.15,3.84-3.59,7.8-7.07,11.95-10.29,3.32-2.58,6.88-4.89,10.54-6.95,3.07-1.73,6.41-3.01,9.7-4.33,3.85-1.55,7.69-3.24,11.69-4.28,3.57-.94,7.34-1.28,11.05-1.5,2.13-.13,4.35.33,6.44.87,1.35.35,2.56,1.3,3.79,2.05,2.26,1.39,4.51,2.82,6.73,4.28.37.24.9.77.84,1.05-.61,2.81,1.39,3.14,3.29,3.6.19.05.36.18.53.29.04.03.04.12.2.6-6.19-.98-12.16-2.92-18.31-1.82-.05.22-.09.44-.14.66,1.22.39,2.41.95,3.67,1.15,4.56.74,9.14,1.35,13.72,2.02.34.05.82.02.98.22,1.8,2.21,4.69,1.54,6.89,2.69,2.52,1.32,5.09,2.55,7.65,3.78,1.61.77,3.22,1.57,4.89,2.2,1.55.58,1.76,1.34.53,2.68,2.83.59,5.57,1,8.19,1.81.88.27,1.55,1.5,2.12,2.41.5.81.74,1.79,1.12,2.77,2.23-1.49,5.84-2.14,7.23.28,1.33,2.32,3.47,2.67,5.93,2.68.37,3.04,3.17,2.84,5.02,3.1,1.91.27,3.44.42,4.97,1.84,1.42,1.31,3.4,2.03,5.17,2.95,2.64,1.37,5.16,3.09,8.36,2.94.49-.02.99.58,1.53.79.86.34,1.76.61,2.65.89.51.16,1.29.11,1.5.44,1.1,1.75,2.87,1.77,4.6,2.19,1.01.25,1.82,1.33,2.72,2.04.36.28.65.75,1.05.86,1.12.29,2.07.33,2.27,2.01.09.73,1.84,1.52,2.95,1.81,1.92.51,3.93.65,5.9.94.27.04.65-.05.8.1,1.45,1.43,2.86,2.9,4.35,4.43.43.07,1.04.16,1.65.26-.19.46-.52.91-.55,1.38-.06.68-.05,1.9.18,1.97.91.25,1.94.25,2.88.11.63-.1,1.16-.73,1.79-.9,2.43-.67,3.51.39,2.83,3.1,3.05-2.5,5.04-.44,7.11,1.31.58.49,1.26.86,1.89,1.29l-.12.77c-2.1,0-4.2.03-6.3-.01-1.02-.02-2.06-.31-3.07-.22-4.52.36-8.79-.7-13.09-1.89-2.62-.73-5.48-.69-8.01-1.6-4.88-1.75-9.64-3.87-14.39-5.95-6.32-2.77-12.53-5.81-18.91-8.44-2.94-1.21-6.13-1.97-9.28-2.44-1.95-.29-4.04.46-6.07.55-1.62.07-3.33-.5-4.87-.19-2.3.47-5-.43-6.84,2.08-.89,1.22-2.42,2.02-4.19.94-1.02-.62-1.96-.37-2.49.87-.24.55-.67,1.02-1.02,1.55-2.99-2.61-1.68,1.63-3.28,1.82-.47-.72-1.02-1.58-1.56-2.43l-.34.14c.19.96.37,1.92.6,3.11-2.79-1.36-3.55-.97-5.69,1.17-1.05,1.06-1.97,2.02-2.56,3.42-.22.53-1.36,1.18-1.76,1.02-.59-.25-.9-1.18-1.43-1.96-.35.26-.79.59-1.27.94-.62-.72-1.22-1.43-1.84-2.16-1.6,3.29-3.06,6.54-4.75,9.68-.68,1.26-1.8,2.3-2.78,3.37-.21.23-.93.36-1.06.21-.28-.31-.41-.82-.44-1.26-.09-1.27.36-2.76-2-3.02.88-1.05,1.49-1.78,2.52-3.01-1.41.23-2.33.25-3.14.56-.36.14-.79,1.16-.71,1.25,1.34,1.21.83,2.04-.19,3.2-.47.53-.08,1.81-.08,2.75l.6.07c.31-.79.62-1.58.92-2.36.25.09.49.18.74.27-.52,1.33-.91,2.73-1.59,3.98-.7,1.3-.91,2.85-2.61,3.69-.95.47-1.36.78-2.2.07-.27-.23-.84-.12-1.27-.17,0,.37,0,.74-.02,1.11-.06.85.13,1.83-.24,2.53-2.42,4.59-5.04,9.08-7.41,13.7-1.13,2.19-1.61,4.73-2.86,6.83-.91,1.53-1.86,2.89-1.69,4.71.2,2.03-.74,3.59-1.82,5.18-1.03,1.52-1.77,3.17-1.41,5.13.09.5-.06,1.14-.33,1.58-2.09,3.52-2.29,7.61-3.52,11.39-.63,1.94-1.03,3.99-1.93,5.8-1.06,2.13-.79,3.81.21,5.93,1.17,2.48,1.69,5.28,2.31,7.99.83,3.63,1.51,7.3,2.17,10.97.14.77-.31,1.64-.19,2.41.27,1.76.17,4.14,1.25,5.09,1.54,1.34,1.79,2.89,2.33,4.5.42,1.27.68,2.61,1.24,3.82.97,2.1,1.94,4.24,3.23,6.16,1.53,2.29,2.8,4.86,5.39,6.28.57.31,1.15.78,1.48,1.33,1.36,2.24,4.5,3.81,7,3.22,1.02-.24,2.46-.46,1.66-2.29-.21-.47.19-1.21.31-1.83.15.16.3.33.45.49,1.11-.51,2.18-1.24,3.35-1.5,2.23-.5,4.35-1.87,6.79-.97.68.25,1.4.4,1.93.54.52-1.16.78-2.25,1.44-2.96.34-.37,1.99-.26,2.05-.05.57,1.8,2.06,2.33,3.52,3.02.63.3,1.08.97,1.61,1.47-.07.2-.13.39-.2.59-.7-.15-1.39-.31-2.55-.56.42.61.69,1.42,1.08,1.49,1.56.26,3.21.6,4.72.32,2.04-.38,3.79.27,5.58.82,2.02.62,3.9.05,5.59-.78,1.66-.82,3.15-1.09,4.89-.49,2.74.95,5.46,2.04,8.29,2.61,2.05.42,4.27-.04,6.39.13,3.71.31,7.4.82,11.1,1.21,1.08.11,2.26-.15,3.24.19,2.13.76,4.23,1.68,6.23,2.75,3.37,1.81,6.71,3.67,9.36,6.56.59.64,1.85,1.12,2.7.98,2.98-.48,5.56-1.65,6.64-4.89.26-.79,1.01-1.42,1.54-2.12.17.1.35.2.52.3-.14.66-.29,1.32-.45,2.04q3.06-.54,5.03,1.41c.76-.79,1.51-1.59,2.27-2.38.15.09.3.19.45.28-.03.54-.05,1.08-.1,2.03,1.91-.11,3.85.12,5.53-.43,1.24-.4,2.14-1.83,3.21-2.78,2.01-1.8,3.79-1.51,5.13.87.29.52.47,1.11.87,2.09-.81-.34-1.25-.7-1.68-.67-.58.03-1.31.2-1.67.59-1.15,1.25-1.87,2.78-3.98,3.06-.92.12-1.63,1.76-2.29,2.2-1.85-.2-3.7-.41-5.56-.61-.75,2.27-.13,3.24,2.1,3.11,1.28-.07,2.62-.3,3.81-.78,1.98-.8,3.83-1.12,5.87.12-.24-.54-.48-1.09-.92-2.09,3.17,2.18,4.01-1.57,6.23-1.97-.63-.16-1.27-.31-2.47-.61,1.25-.97,2.02-1.92,3.08-.52,1.34,1.76,2.48,3.67,3.81,5.44,1.13,1.51,2.23,3.13,3.67,4.3,1.57,1.28,2.13,2.33,1.09,4.27-1.57,2.93-.79,4.73,2.32,6.24.37.18.7.47,1.08.59,1.83.58,2.35,1.46.88,3.03-.32.34-.32.99-.53,1.71,1.85-.83,3.3-1.49,4.75-2.14-.04-.16-.07-.33-.11-.49,1.22.43,2.44.86,3.86,1.36.19-.87.38-1.76.62-2.88,1.54.45,1.62,1.38,1.06,2.47-.59,1.15-1.26,2.44.02,3.3,1.22.82,2.46.49,3.56-.83,1.23-1.48,2.82-1.02,4.75.38-1.72.11-2.96.18-4.49.28-.07.64-.08,1.44-.25,2.2-.25,1.14-.54,2.29-2.21,1.83-.36-.1-.82.14-1.23.23.14.42.16,1.11.43,1.22,2.22.94,4.46,1.83,6.76,2.55.29.09.94-.8,1.36-1.29.47-.56.81-1.23,1.31-1.76.97-1.02,1.67-.95,2.21.5.23.61.95,1.03,1.44,1.54.14-.14.29-.28.43-.42-.57-1.24-1.14-2.47-1.71-3.71,1.81-.79,3.11.08,3.34,1.93.13,1.06.51,2.09.61,3.15.06.65-.19,1.32-.36,2.36-1.61-1.2-3.11-2.45-4.94-1.49-.23.96-.47,1.94-.71,2.93-.21-.02-.42-.03-.64-.05-.25-.56-.51-1.11-.77-1.69-1.75,1.05-1.8,1.94-.35,4.27,1.44,2.31,3.56,2.76,5,.67,1.34-1.94,2.85-1.42,4.5-1.21,1.35.18,2.72.63,4.04.5.93-.09,2.05-.74,2.63-1.5.94-1.2,1.79-1.08,2.44-.07,1.05,1.61,1.89,3.25,4.04,3.78.59.15,1.34,1.47,1.27,2.18-.18,1.65.55,2.23,1.88,2.87.59.28,1.16,1.63.97,2.28-.48,1.71.07,2.94,1.14,4.11.23.25.55.5.64.8,1.01,3.61,1.99,7.24,2.95,10.86.15.58.13,1.2.31,1.78.36,1.21.85,2.38,1.19,3.59.33,1.18.39,2.46.84,3.58.95,2.36.89,4.73.52,7.18-.11.74.04,1.64.38,2.32,2.04,4.13,3.41,8.36,3.08,13.08-.11,1.56.68,3.16.86,4.77.54,4.65.99,9.31,1.47,13.97.04.41.1.85-.02,1.23-1.21,3.77.13,7.37.62,11.04.18,1.36-.1,2.78-.18,4.34,1.52.44,1.46,1.02.48,2.71-1.02,1.75-1.11,4.16-1.2,6.3-.11,2.62.48,5.29.24,7.89-.28,3.16-1.02,6.3-1.73,9.41-.77,3.37-1.76,6.7-2.6,10.06-.14.57,0,1.21.06,1.82.35,3.52.79,7.03,1.02,10.56.07,1.02-.54,2.06-.71,3.12-.2,1.29-.27,2.6-.36,3.53-1.1,1.29-2.13,2.49-3.15,3.71-.16.19-.18.58-.35.64-2.52.94-2.01,2.93-1.65,4.81.3,1.54-.17,2.05-2.78,2.25,1.22.71,2.13,1.24,2.76,1.61.38,1.44.71,2.68,1.09,4.13-1.25.12-2.36.24-3.69.37-1.26,1.88-2.78,4.14-4.34,6.46,1.49.73,2.99,1.45,4.81,2.34-.89.76-1.56,1.33-2.35,2.01-.6-.91-1.06-1.62-1.81-2.76-.57,1.26-.98,2.18-1.39,3.1-.18.4-.26.95-.57,1.18-2.24,1.66-2.44,2.73-1.42,5.15.35.83-.07,1.98-.15,3.11-.55-.17-.79-.18-.91-.3-.8-.83-1.48-2.47-2.79-1.56-1.03.71-1.49,2.26-2.18,3.45-.06.09.08.31.03.4-1.22,1.81-2.17,3.94-3.75,5.35-2.25,2.01-3.38,4.46-4.19,7.2-.02.08.14.22.21.34l-.02-.03ZM59.81,93.88c-.22.48-.44.95-.66,1.41-.77,1.59-1.59,3.17-2.29,4.79-.33.75-.84,2.06-.55,2.32.78.71,1.92,1.18,2.98,1.35.41.06,1.02-.92,1.47-1.49.46-.58.92-1.18,1.21-1.85.3-.69.5-1.45.59-2.2.24-2.06-.93-3.31-2.75-4.33ZM54.2,123.33c-.06-.14-.08-.23-.12-.26-.05-.03-.13-.02-.19,0-1.36.23-2.71.49-4.07.68-1.14.16-3.47,3.69-3.06,4.74.07.18.22.35.37.46.68.51,1.38,1.01,2.3,1.67,1.07-1.77,2.05-3.41,3.05-5.05.21.17.5.4.99.79.28-1.17.51-2.14.73-3.03ZM63.19,104.21c-.18-.12-.37-.24-.55-.35-.32.44-.72.84-.94,1.32-.25.52-.19,1.47-.52,1.61-2.69,1.12-1.92,3.49-2.04,5.49-.03.46.54,1.08.99,1.4.26.19,1.14.07,1.23-.13.77-1.73,1.43-3.51,2.11-5.27-1.88-1.17-.55-2.67-.28-4.06ZM64.22,110.12c.17.11.35.22.52.34-.52,1.05-1.15,2.07-1.52,3.17-.26.78-.49,1.83-.16,2.46.26.5,1.49.85,2.12.67.62-.17,1.25-1.03,1.47-1.71.41-1.27.58-2.63.73-3.97.05-.47-.11-1.15-.43-1.43-.29-.25-.95-.16-1.43-.07-.45.08-.87.36-1.3.55ZM70.17,97.72c.6-.63,2.03-1.48,2.31-2.61.23-.93-.89-2.21-1.47-3.31-.06-.11-.61-.14-.74-.01-.98,1-2.15,1.91-2.81,3.1-.68,1.22.63,2.82,2.7,2.82ZM38.55,129.82c-1.05,1.31-2.15,2.42-2.9,3.73-.29.5-.02,1.67.41,2.15.48.51,1.46.8,2.19.76.57-.04,1.56-.72,1.57-1.14.05-1.84.47-3.84-1.28-5.49ZM57.18,107.82c-.16.06-.33.12-.49.19-.5.82-1.04,1.6-1.47,2.45-.32.63-.45,1.36-.73,2.02-.37.86-.64,1.83-1.24,2.49-.8.89-.98,1.38.25,1.96,1.64.77,2.47.24,2.65-1.66.11-1.1.54-2.17.68-3.27.19-1.38.23-2.79.34-4.18ZM83.98,85.09l-.51-.78c-.87.53-1.9.9-2.56,1.62-.66.72-.97,1.79-1.4,2.71-.26.56-.47,1.14-.91,2.22,3.08-1.36,4.26-3.54,5.38-5.77ZM45.27,116.08c-2.1,1.32-1.5,3.17-1.78,4.65-.09.5.65,1.16,1.01,1.75.51-.61,1.43-1.22,1.44-1.85.04-1.38-.38-2.78-.67-4.56ZM57.91,122.71c2.12-2.18,1.92-4.45,1.52-6.72-.07-.38-.42-.7-.64-1.05-.29.39-.76.75-.83,1.17-.22,1.32-.36,2.65-.4,3.99-.02.75.2,1.52.36,2.61ZM54.91,134.69c-.28.05-.55.11-.83.16-.11.97-.26,1.94-.33,2.91-.08,1.16.54,2,1.66,1.7.58-.15,1.4-1.33,1.27-1.81-.31-1.07-1.15-1.99-1.77-2.97ZM91.61,47.75c1.49-1.56,2.35-3.07,1.75-5.01-.17-.54-.55-1.01-.84-1.51-.27.57-.59,1.12-.8,1.72-.21.6-.07,1.53-.46,1.83-1.59,1.24-.63,1.99.34,2.98ZM53.61,375.14c1.03,1.5,1.93,2.82,2.83,4.14.09-.08.18-.16.27-.25.05.67.1,1.34.15,2.01.22-.02.44-.05.66-.07-.21-2.17-.42-4.35-.61-6.41-1.25.22-1.98.35-3.29.58ZM65.58,86.09c-.39,1.32-.8,2.46-1,3.63-.04.21.81.86,1.18.81,1-.15,1.96-.57,2.99-.9-1.15-1.28-1.94-2.16-3.17-3.54ZM211.08,374.05c-.52-.58-.89-1.01-1.26-1.43-.38.47-.82.91-1.12,1.43-.69,1.2-1.32,2.43-2.18,4.02.32.19.98.57,1.63.96.42-1.17.84-2.34,1.27-3.52l-.49-.17c.63-.38,1.25-.76,2.15-1.3ZM159.99,487.9l-.3-.6c-.83.41-2.07.63-2.4,1.29-.51,1.02-.39,2.35-.54,3.55.36.11.73.22,1.09.33.72-1.52,1.43-3.04,2.15-4.56ZM72.22,119.59c-.75.87-1.35,1.48-1.86,2.16-.37.5-.97,1.19-.85,1.62.12.44,1.01.66,1.58.99.99-1.47,2.42-2.59,1.12-4.77ZM52.34,103.21c-.31-.14-.62-.28-.93-.43-.31.4-.9.8-.89,1.19.04,1.67-.78,2.8-1.88,3.92-.35.36-.16,1.24-.21,1.88.27.05.55.09.82.14,1.03-2.24,2.06-4.48,3.09-6.71ZM57.46,451.46c1.6.39,3.19,1.07,3.19-1.75-.99-.32-2.06-.67-3.19-1.03v2.78ZM48.64,154.29c1.95-1.85,1.92-2.83.35-5.56-.2,0-.4.01-.61.02.08,1.7.15,3.4.25,5.54ZM27.25,413.28c1.09-.52,2.19-.87,3.07-1.53.61-.46.8-1.25-.38-1.63-1.74-.55-2.96.7-2.68,3.15ZM33.24,125.06c-2.07,1.18-2.08,2.55,0,4.45v-4.45ZM86.44,89.72c.26-.07.51-.15.77-.22.16-.79.44-1.59.42-2.37-.01-.48-.49-.95-.76-1.43-.44.36-1.28.77-1.25,1.09.1,1,.52,1.96.82,2.94ZM100.01,483.63c-.02.07-.24.48-.15.79.11.37.5.66.76.98.18-.31.51-.61.53-.93.12-2.07-1.27-3.22-3.94-2.61,1.09.69,1.77,1.12,2.8,1.77ZM59.93,59.75c1.14-1.12,1.13-2.24.37-3.34-.14-.2-1.01-.23-1.16-.03-1.04,1.36-.05,2.28.79,3.38ZM26.57,417.65c.23-.26.46-.52.68-.78-.61-2.07-3.3-1.38-4.1-3.2-.17.21-.33.42-.5.62,1.3,1.12,2.61,2.24,3.91,3.35ZM75.68,472.58c.82-2.24-.88-2.5-2.09-3.21-.15.8-.28,1.48-.4,2.11.85.37,1.62.72,2.5,1.1ZM70.56,46.65l-1.28.84c-.07.84-.14,1.68-.21,2.51l.56.3c.59-.54,1.47-.99,1.67-1.65.17-.54-.47-1.32-.75-2ZM131.57,489.85c-.07.18-.14.37-.21.55.93.85,1.86,1.71,2.95,2.71.3-.72.5-1.18.76-1.8-1.25-.52-2.38-.99-3.5-1.46ZM60.72,82.35c-.16-.28-.32-.57-.48-.85-.37-.3-.73-.61-1.1-.91-.39.54-.87,1.05-1.12,1.65-.06.15.63.89.92.86.62-.08,1.19-.48,1.78-.75ZM106.89,46.5c-.28.19-.55.38-.83.57.39.68.72,1.4,1.21,1.99.09.11.85-.35,1.3-.55-.56-.67-1.12-1.34-1.69-2.01ZM93.43,25.24c-.84.89-1.48,1.55-2.11,2.22.36.18.75.54,1.08.49,1.17-.18,1.85-.77,1.03-2.71ZM92.78,480.37c-1.06.83-1.63,1.28-2.2,1.72.11.28.23.57.34.85.73-.11,1.47-.21,2.2-.32-.1-.64-.19-1.28-.34-2.25ZM223.93,347.67c.3-1.34.55-2.43.85-3.74-2.34.71-2.41,1.13-.85,3.74ZM53.75,75.33c.23-.07.47-.14.7-.21-.24-.86-.4-1.76-.76-2.57-.13-.29-.72-.37-1.1-.54-.09.13-.17.27-.26.4.47.97.95,1.94,1.42,2.91ZM195.44,209.39c.3.21.59.42.89.63.47-.6.94-1.2,1.41-1.81-.36-.26-.73-.53-1.09-.79-.4.65-.81,1.31-1.21,1.96ZM125.6,29.58c-.04-.32-.07-.64-.11-.96h-2.55c.06.43.14,1.23.19,1.23.83-.03,1.65-.16,2.47-.27ZM33.52,407.67c.1.16.2.33.29.49.87-.52,1.73-1.03,2.84-1.7-.76-.43-1.24-.71-1.76-1.01-.52.83-.95,1.52-1.38,2.22ZM60.56,126.76l-.88-.42c-.42.86-.83,1.72-1.25,2.58.31.15.62.29.93.44.4-.87.8-1.73,1.2-2.6Z"/>
  <path class="cls-1" d="M202.8,373.2q-4.78-.88-5.73-4.62c1.81-.28,3.69-2.8,5.36-.29.86,1.29,1.66,3.14.37,4.91Z"/>
  <path class="cls-1" d="M194.72,372.68c-.27.82-.54,2.16-1.18,3.29-.3.53-1.74,1.06-1.97.84-.78-.72-2.59-1.21-1.83-2.63.69-1.29,1.9-2.43,3.13-3.25.89-.59,2.07-.36,1.86,1.74Z"/>
  <path class="cls-1" d="M22.4,385.42c-.13-1.68-.41-3.22-.31-4.74.1-1.49,1.64-2.05,2.59-.95.6.71,1.17,1.88,1.02,2.71-.38,2.05-1.51,2.89-3.29,2.97Z"/>
  <path class="cls-1" d="M58.78,458.78c-1.39.75-2.54,1.36-3.69,1.98.26-.22.52-.43.77-.65-.98-.55-1.95-1.11-2.94-1.66q1.28-3.05,5.85.34Z"/>
  <path class="cls-1" d="M209.47,364.76c.72-1.88-.17-4.26,1.98-5.54.62-.37,1.46-.45,2.2-.48.13,0,.54.98.4,1.36-.3.81-.75,2.02-1.35,2.17-1.53.36-2.71.84-3.24,2.5Z"/>
  <path class="cls-1" d="M256.47,450.01c1.35-1.26,2.69-2.52,4.04-3.78.19.19.38.38.57.57-.96,1.23-1.92,2.45-2.91,3.72-.51-.16-1.11-.35-1.71-.53,0,0,.02.03.02.03Z"/>
  <path class="cls-1" d="M186.89,498.13c-.64.3-1.13.75-1.53.68-1.09-.21-2.15-.6-3.2-1-.35-.14-.62-.51-.93-.77.44-.12.93-.42,1.32-.32,1.33.35,2.63.84,4.33,1.4Z"/>
  <path class="cls-1" d="M80.31,479.04c-.79-.17-1.62-.23-2.34-.55-.37-.16-.53-.79-.79-1.21.53-.11,1.16-.45,1.57-.28.77.32,1.41.94,2.1,1.44-.18.2-.36.4-.55.6Z"/>
  <path class="cls-1" d="M213.32,487.54c.47.77,1,1.29.9,1.53-.24.53-.79.93-1.22,1.38-.31-.35-.93-.77-.87-1.04.12-.54.61-1,1.19-1.86Z"/>
  <path class="cls-1" d="M204.53,368.42c.68-.53,1.34-1.1,2.07-1.56.09-.06.57.51.87.78-.77.55-1.53,1.11-2.3,1.66-.21-.3-.43-.59-.64-.89Z"/>
  <path class="cls-1" d="M193.2,497.85c-.82.21-1.73.74-2.44.55-.95-.26-.97-1.08.14-1.34.64-.15,1.36.04,2.05.07.08.24.17.48.25.72Z"/>
</svg>