<?xml version="1.0" encoding="UTF-8"?>
<svg id="Layer_1" data-name="Layer 1" xmlns="http://www.w3.org/2000/svg" viewBox="0 0 302.04 500">
  <defs>
    <style>
      .cls-1 {
        fill: #000;
        stroke-width: 0px;
      }
    </style>
  </defs>
  <path class="cls-1" d="M235.15,88.36c-.3-.33-.46-.67-.7-.75-1.45-.46-1.86-1.49-1.76-2.9.1-1.43-.39-1.78-1.91-1.36-3.58.97-7.21,1.83-10.88,2.41-1.71.27-3.54-.25-5.32-.37-.98-.06-2.04-.27-2.94,0-5.26,1.62-10.57,3.12-15.42,5.84-1.23.69-2.54.36-3.24-.92-.89-1.63-1.94-2.13-3.6-1.11-.57.35-1.3.43-1.91.74-2.24,1.14-2.31,1.54-1.13,3.74.2.38.04,1.31-.28,1.54-2.23,1.65-4.51,3.23-6.84,4.73-1.91,1.23-3.78,2.72-5.89,3.38-5.87,1.84-10.42,5.67-15.04,9.41-1.42,1.15-2.57,2.68-3.67,4.17-2.1,2.84-4.44,5.15-7.97,6.39-1.67.59-2.99,2.47-4.23,3.96-3.75,4.54-7.46,9.12-11.03,13.8-1.52,2.01-2.6,4.35-3.94,6.5-.65,1.03-1.42,2-2.19,2.94-3.2,3.93-6.41,7.8-8.25,12.66-.89,2.34-2.46,4.42-3.79,6.59-.19.31-.72.56-1.11.59-2.01.14-2.54,1.33-2.59,3.14-.1,3.75-.21,7.48,2.04,10.77.17.26.29.69.51.76,3.45.97,4.35,4.57,6.81,6.56,1.59,1.28,1.96,1.3,3.2-.42.36-.5.69-1.2,1.19-1.38.66-.24,2-.29,2.13,0,.65,1.41,1.59,3.1,1.3,4.43-.41,1.82.4,2.5,1.56,3.04,1.79.83,3.68,1.47,5.55,2.09,6.53,2.15,13.09,4.23,19.62,6.39,5.12,1.69,10.28,3.27,15.28,5.26,5.3,2.1,10.42,4.65,15.64,6.96,1.53.67,3.2,1.03,4.69,1.76,1.64.8,3.15,1.89,4.73,2.82.89.53,1.8,1.05,2.74,1.47,1.24.55,2.56.92,3.78,1.51,5.95,2.91,11.91,5.82,17.82,8.81,4.83,2.45,9.21,5.51,13.09,9.36,1.67,1.66,3.86,2.92,6.02,3.93,4.24,1.99,7.48,5.3,10.37,8.64,4.32,5,9.62,8.92,13.99,13.81,3.42,3.84,6.79,7.73,10.16,11.62.28.32.51.73.64,1.13.11.37.18,1.06.03,1.13-.38.19-1.05.31-1.33.1-.83-.63-1.62-1.37-2.27-2.19-7.74-9.63-16.86-17.92-26.2-25.89-4.86-4.14-10.75-7.07-16.12-10.64-2.2-1.46-4.05-3.69-6.43-4.59-3.19-1.22-6.23-3.47-9.99-2.78-1.57.29-3.14.63-4.72.84-1.4.18-2.3-.49-2.92-1.8-.41-.86-1.05-1.76-1.83-2.28-3.31-2.19-6.54-4.6-10.11-6.25-4.65-2.16-9.59-3.71-14.42-5.45-2.45-.88-4.94-1.65-7.44-2.36-1.25-.35-2.46-.45-3.7.51-.55.43-1.77-.02-2.83.21.83.43,1.62,1.02,2.5,1.25,5.33,1.36,9.78,4.38,14.41,7.18,5.67,3.43,11.62,6.39,17.45,9.56,5.78,3.14,11.34,6.56,16.2,11.1,2.08,1.95,4.81,3.21,7.24,4.78.14-.16.29-.32.43-.48-.37-.41-.73-.82-1.11-1.22-2.26-2.38-4.57-4.72-6.76-7.17-.38-.43-.6-1.69-.39-1.85.61-.43,1.59-.82,2.24-.63,2.97.88,4.46,3.33,5.9,5.86.65,1.15,1.48,2.32,2.52,3.09,4.55,3.36,8.21,7.42,11.42,12.1,2.9,4.22,6.5,7.97,9.89,11.85,2.77,3.17,5.88,6.07,8.48,9.37,1.58,2.01,2.34,4.64,3.72,6.84,1.29,2.05,2.91,3.9,4.38,5.84.13-.09.26-.19.39-.28-.32-.93-.65-1.86-1.01-2.9,3.54.39,9.06,7.26,8.46,10.33-.7-.12-1.4-.24-2.54-.45,2.99,8.61,8.44,15.65,12.04,23.95-.97-.08-1.54-.13-2.31-.19.25,1.61.54,3.14.7,4.69.15,1.42.22,2.86.16,4.28-.02.43-.51.96-.92,1.19-.17.09-.83-.41-1.06-.77-.47-.72-.76-1.56-1.22-2.29-.16-.26-.63-.52-.9-.47-.25.05-.63.53-.6.78.21,1.89.44,3.78.81,5.65.08.42.72.96,1.17,1.03,2.47.35,3.29,2.1,3.53,4.17.34,3,.68,6.04.64,9.05-.15,11.9-.48,23.8-.64,35.71-.02,1.55.63,3.1.84,4.67.1.75.11,1.65-.21,2.3-1.56,3.13-2.86,6.41-6.47,8.04-2.39,1.08-2.82,3.8-3.61,6.07-.12.35.5.91.46,1.35-.05.62-.22,1.57-.63,1.76-1.65.79-2.19,2.15-2.27,3.75-.09,1.72.26,3.5-1.01,4.99-.17.2-.13.6-.13.91-.01,1.72,0,3.44,0,5.41.57-.12,1.36-.29,2.16-.45.66-.14,1.36-.46,1.98-.36,3.73.57,5.91-1.8,7.96-4.23,2.46-2.92,4.88-5.9,7.05-9.05.76-1.1.77-2.76.99-4.18.21-1.38.26-2.78.38-4.17.04-.41.28-.92.11-1.21-1.35-2.38-.33-4.75-.07-7.12.14-1.28.33-2.56.55-3.83.17-.97.5-1.92.6-2.9.14-1.44.43-2.95.12-4.31-.38-1.64-.29-2.98.95-4.07.94-.83,1.09-1.65.71-2.81-.17-.52.19-1.21.31-1.83.62.2,1.33.26,1.84.61,1.45,1.02,2.83,2.15,4.22,3.26.86.68,1.3,1.42.68,2.57-1.89,3.44-2.88,7.1-2.54,11.07.1,1.18.07,2.22,1.78,1.63.28-.1,1.1.48,1.08.54-.31.87-.53,2.22-1.14,2.44-1.65.61-2.29,1.87-2.81,3.25-1.19,3.2-2.19,6.46-3.4,9.65-.79,2.08-1.64,4.17-2.77,6.07-.58.98-1.84,1.56-2.81,2.3-1.17.89-2.49,1.63-3.51,2.66-2.4,2.42-4.55,5.09-7.03,7.42-1.13,1.06-2.81,1.52-4.23,2.27-2.3,1.21-4.6,2.42-6.87,3.67-.35.19-.63.59-.84.95-2.82,4.67-5.65,9.33-8.44,14.02-1.8,3.04-3.33,6.27-5.35,9.16-2.06,2.93-4.54,5.59-6.92,8.28-1.59,1.8-3.18,3.67-5.07,5.13-1.85,1.43-4.13,2.18-6.57,1.8-.1-.17-.21-.34-.31-.52.75-.47,1.58-.85,2.22-1.44.61-.57,1.01-1.36,1.5-2.05-.74-.3-1.57-.99-2.2-.83-1.53.37-3.14.89-4.42,1.77-3.76,2.58-7.96,4-12.27,5.23-1.43.41-2.87.81-4.25,1.34-.61.23-1.39.67-1.59,1.21-.98,2.61-3.23,2.78-5.46,3.14-3.79.62-7.57,1.25-11.33,2-1.13.22-2.17.85-3.27,1.73.97.21,1.93.46,2.9.64,1.95.36,3.91.63,5.84,1.06.7.15,1.33.64,2,.97-.5.71-.85,1.78-1.53,2.06-2.45,1.02-4.98,2.37-7.54,2.5-5.88.31-11.81.15-17.69-.2-1.81-.11-3.23-.51-4.87.82-1.88,1.52-4.19.43-6.3.07-.25-.04-.65-.86-.57-.96.29-.34.74-.59,1.17-.73,1.41-.47,2.83-.88,4.25-1.31,0-.25,0-.51.01-.76-.85-.38-1.66-.89-2.55-1.13-4.06-1.1-8.14-2.14-12.22-3.18-1.91-.49-3.84-.92-5.74-1.44-.52-.14-1.04-.45-1.45-.81-.34-.29-.81-.9-.7-1.12.21-.43.77-.96,1.19-.96,2.23-.04,4.47.11,6.71.12,1.66,0,3.31-.09,4.97-.15l.29-.85c-.71-.65-1.32-1.57-2.16-1.91-3.09-1.26-6.29-2.23-9.37-3.51-2.04-.85-3.93-2.08-5.89-3.12-7.02-3.71-14.05-7.41-21.07-11.14-.59-.31-1.25-.69-1.6-1.22-.34-.53-.33-1.29-.47-1.95.7-.05,1.47-.3,2.08-.1,1.74.59,3.43,1.32,5.1,2.1.52.24.91.79,1.32,1.24,1.63,1.8,3.44,3.01,6.03,3.26,2.56.25,5.06,1.15,7.59,1.76.75.18,1.5.36,2.63.62-1.09-2.25-2.84-2.85-4.57-3.46-1.52-.53-3.12-.88-4.56-1.58-.75-.36-1.23-1.29-1.83-1.96.77-.38,1.61-1.18,2.29-1.06,2.61.45,5.17,1.16,7.73,1.84,1.43.38,2.82.93,4.25,1.31.3.08.71-.26,1.07-.41-.13-.31-.19-.7-.41-.92-.25-.25-.63-.42-.97-.5-7.01-1.52-13.66-3.96-19.98-7.38-2.23-1.2-4.65-2.04-6.98-3.06-.45-.2-.96-.41-1.25-.77-.34-.41-.48-1-.71-1.51.56-.07,1.14-.24,1.69-.19,1.33.1,2.64.31,4.26.51-.64-2.54-2.1-3.79-3.99-4.53-5.88-2.29-11.81-4.44-17.67-6.77-4.52-1.79-9.45-2.85-12.86-6.74-.49-.56-.67-1.4-1-2.11.89.02,1.89-.2,2.67.12,2.31.96,4.52,2.17,6.81,3.21,1.52.69,3.1.72,4.69.14,1.57-.58,2.94-.07,4.45.58,2.11.91,4.42,1.38,6.38,1.96.64-1.43,1.09-2.45,1.58-3.54-10.09-5.78-21.9-6.57-33.11-9.37,0-.2.01-.39.02-.59,1.54-.08,3.07-.16,5.12-.26-.81-.63-1.29-1.01-1.79-1.38-1.57-1.16-2.53-2.64-2.79-4.64-.09-.69-.59-1.67-1.15-1.89-2.64-1.03-5.38-1.8-8.05-2.77-.71-.26-1.3-.89-1.94-1.35.66-.43,1.26-1.03,1.98-1.25.75-.22,1.61-.05,2.41-.09,1.09-.05,1.88-.28,2.48-1.5.44-.9,1.75-1.37,2.69-2.45-1,0-2.02.09-3.01-.04-.55-.07-1.43-.44-1.48-.78-.08-.53.26-1.47.69-1.67,1.31-.62,2.72-1.18,4.14-1.4,3.05-.46,6.13-.68,9.19-1,.1-.25.19-.5.29-.76-.86-.62-1.65-1.46-2.61-1.81-1.5-.55-3.14-.69-4.68-1.15-.86-.26-1.61-.89-2.45-1.23-1.79-.73-3.62-1.35-5.41-2.07-.54-.21-1.01-.58-1.52-.88.53-.21,1.04-.5,1.59-.61,2.17-.45,4.34-.99,6.53-1.24,5.84-.67,11.28-3.5,17.32-3.16.65.04,1.32-.55,2-.79,1.19-.43,2.39-1.14,3.59-1.18,6.52-.19,13.05-.13,19.57-.29,5.33-.13,10.66-.49,15.99-.68,3.57-.12,7.02-.71,10.27-2.26.28-.13.54-.3.79-.47.09-.06.11-.21.26-.54-.38-.21-.75-.55-1.17-.62-1.7-.29-3.42-.67-5.14-.71-8.89-.21-17.79-.55-26.68-.38-6.75.13-13.49.98-20.23,1.49-3.02.23-6.04.43-9.07.6-3.48.2-6.95.37-10.43.5-.68.03-1.37-.17-2.1-.59,2.59-1.99,5.84-1.98,8.73-2.73,2.87-.75,6.08-.16,9.15-.16,0-.26.02-.51.02-.77-.73-.07-1.47-.08-2.17-.24-.48-.1-.91-.41-1.36-.63.32-.47.62-1.33.97-1.35,1.39-.07,2.92-.22,4.16.28,3.94,1.59,7.84,1.78,12.02,1.04,2.42-.43,5.02.17,7.54.31.06,0,.12.05.18.04,2.99-.06,5.98-.13,8.96-.17,1.96-.03,3.93-.06,5.89.01,1.59.05,3.17.25,4.76.38.01-.17.03-.33.04-.5-2.13-.19-4.27-.32-6.4-.58-2.13-.26-4.23-.69-6.36-.96-1.1-.14-2.25.03-3.35-.13-4.76-.69-9.51-1.44-14.25-2.23-.51-.08-1.02-.49-1.4-.87-1.45-1.43-3.04-1.7-4.96-1.03-.85.3-1.84.24-2.76.29-3.29.18-6.58.33-9.87.54-.51.03-1,.29-1.45.89.9,0,1.82-.12,2.69.05.5.09.91.64,1.37.99-.34.39-.64,1.07-1.04,1.14-2.99.48-5.99,1-9,1.17-1.03.06-2.09-.94-3.19-1.3-.78-.26-1.66-.43-2.46-.35-1.39.13-2.76.65-4.14.68-1.66.04-3.34-.19-4.99-.45-.57-.09-1.08-.61-1.61-.93.45-.52.81-1.34,1.37-1.51,1.77-.54,3.6-.97,5.44-1.19,4.92-.61,9.86-1.09,14.79-1.64.85-.1,1.68-.4,2.54-.48,1.59-.16,3.2-.25,4.8-.35,1.29-.08,2.6-.05,3.88-.18,2.26-.23,4.51-.75,6.77-.78,6.29-.09,12.58-.08,18.87.08,3.15.08,6.28.62,9.43.83,2.47.16,4.98-.04,7.44.24,2.75.31,5.46.99,8.18,1.5.55.1,1.1.24,1.65.24,2.93.03,5.86.09,8.78-.02.94-.03,2.28-.25,2.71-.88.98-1.44,2.27-1.18,3.6-1.38,2.99-.46,5.96-1.02,8.9-1.71,1.49-.35,2.86-.99,4.04.59.22.29.77.45,1.18.46,4.53.07,9.26.69,13.39-1.42,2.37-1.21,4.55-1.83,7.15-2.31,3.2-.59,6.25-2.25,9.67-2.33.12,0,.28-.03.35-.11,2.69-2.95,6.69-3.42,9.96-5.27,2.39-1.36,2.79-2.33,2.75-5.12-.02-1.39.54-2.83,1.01-4.19.47-1.38,1.4-2.6.69-4.23-.31-.69-.06-1.61-.22-2.4-.53-2.66-1.13-5.3-1.69-7.95-.34-1.62-.73-3.25-.94-4.89-.06-.49.39-1.05.6-1.57.49.29,1.2.46,1.45.89,1.53,2.62,2.96,5.3,4.41,7.97.26.47.46.97.68,1.45,1.75-.87,2.09-1.95,1.61-3.9-.96-3.9-2.26-7.69-2.21-11.84.02-1.94-.99-3.93-1.71-5.82-1.58-4.1-3.2-8.2-4.95-12.23-2.52-5.81-6.4-10.57-11.35-14.54-2.06-1.65-3.95-3.57-5.64-5.6-.84-1.01-1.31-2.52-1.48-3.86-.33-2.6-1.48-4.63-4.32-5.88.41.65.84,1.3,1.24,1.96.52.86,1.58,1.78.31,2.71-1.11.82-1.96-.06-2.71-.85-2.52-2.66-5.15-5.23-7.52-8.01-2.5-2.93-5.65-4.58-9.26-5.52-1.09-.28-2.18-1.49-3.51-.07,1.61,2.03,3.12,4.12,4.83,6.04,3.58,4.01,7.29,7.91,10.87,11.92.42.47.41,1.32.6,1.99h-3.02c-.08.66-.19,1.64-.3,2.58-.21.09-.37.21-.43.17-1.85-1.2-3.76-1.59-5.95-.96-.59.17-1.52-.42-2.13-.88-1.71-1.31-3.2-2.89-5.73-2.53-.6.09-1.48-.78-2.02-1.4-3.78-4.34-8.23-7.87-13.17-10.77-3.04-1.79-6.05-3.73-9.3-5.01-5.81-2.29-11.79-4.15-17.72-6.15-.44-.15-1,.06-1.51.1-.06.22-.11.44-.17.67.89.37,1.75.88,2.67,1.09,2.11.47,4.26.77,6.39,1.18.41.08.98.19,1.17.49,1.06,1.63,2.24,3.24,2.94,5.02.46,1.19-.82,1.12-1.59.95-1.69-.36-3.35-.91-5.05-1.22-2.3-.42-4.65-.62-6.95-1.04-1.19-.22-2.37-.6-3.47-1.09-2.77-1.24-5.47-2.62-8.24-3.87-.53-.24-1.22-.21-1.83-.21-1.09,0-2.06-.08-1.94-1.56.1-1.26,1.24-2.21,2.5-1.82,1.41.44,2.72,1.21,4.1,1.74.98.38,2.03.59,3.04.88.09-.21.19-.43.28-.64-.55-.39-1.06-.88-1.67-1.14-2.4-1.01-4.81-2.01-7.27-2.84-.5-.17-1.71.28-1.82.66-.38,1.37-1.19,1.45-2.28,1.18-1.5-.38-2.99-.81-4.49-1.16-.63-.14-1.29-.13-1.94-.18-.05.15-.1.3-.16.45.57.28,1.19.49,1.69.86.48.36.84.88,1.26,1.34-.59.21-1.22.67-1.77.59-2.08-.33-4.14-.78-6.18-1.29-1.68-.43-3.34-.94-4.95-1.57-.51-.2-1.21-1-1.14-1.4.11-.6.74-1.25,1.31-1.57.75-.42,1.67-.53,2.52-.78.01-.21.02-.42.03-.63-2.45-.76-4.88-1.58-7.35-2.27-2.13-.6-4.28-1.12-6.44-1.55-1.68-.33-3.42-.4-5.1-.73-1.1-.22-2.38-.45-3.19-1.13-2.05-1.72-3.53-2.05-6.06-1.05-1,.4-2.15.61-3.23.6-1.58-.01-2.18-.95-1.48-2.36.64-1.3.19-1.74-.97-2.19-2.49-.96-4.98-1.93-7.38-3.08-1.27-.6-2.39-1.53-3.5-2.41-.27-.22-.23-.84-.33-1.28.4-.02.83-.14,1.21-.06,2.98.64,5.98,1.19,8.9,2.03,2.13.61,4.13,1.63,6.2,2.45,1.37.54,2.73,1.15,4.16,1.5,1.06.26,1.66-.29,1.3-1.51-.37-1.25-.6-2.54-1.06-3.76-.19-.52-.71-1.09-1.22-1.3-3.21-1.3-6.44-2.59-9.71-3.7-.97-.33-2.15-.27-3.19-.09-2.46.43-2.77-.14-3.15-2.57-.28-1.74-1.39-3.62-2.69-4.84-1.49-1.4-2.7-2.68-2.77-4.8-.02-.46-.17-1.05-.48-1.34-2.85-2.67-5.42-5.84-8.73-7.76-3.2-1.85-5.47-4.01-7.3-7.16-1.3-2.25-3.6-3.91-5.2-6.02-1.09-1.44-2.13-3.13-2.51-4.86-.65-2.94-.76-5.99-1.09-9-.13-1.24-.25-2.47-.32-3.71-.06-1.09-.38-1.69-1.68-1.68-.46,0-.99-.9-1.34-1.48-.15-.25,0-.75.12-1.08.89-2.29,1.58-4.7,2.78-6.82,2.27-3.99,2.88-8.23,2.66-12.68-.06-1.29.33-2.24,1.67-2.5,2.76-.52.96-3.53,1.98-6.21-2.01,0-1-14.93-.52-17.38.09-.48.59-1.05,1.04-1.25,3.07-1.34,4.2-4.29,5.65-6.89,1.63-2.91,2.64-6.18,4.4-9,2.76-4.41,6.1-8.45,8.83-12.87,1.53-2.48,2.22-5.46,3.48-8.12,1.68-3.52,3.51-6.96,5.37-10.38.36-.66,1.2-1.05,1.75-1.63.62-.66,1.23-1.36,1.71-2.12.62-.98.97-2.17,1.7-3.05,3.6-4.33,7.34-8.55,10.92-12.89,1.93-2.34,3.58-4.91,5.52-7.24,1.06-1.27,2.44-2.27,3.69-3.37,2.31-2.03,4.64-4.04,6.96-6.07.18-.16.41-.39.41-.6.08-4.07,4.46-4.88,6-7.88.26-.5,1.61-.76,2.37-.63,3.47.56,5.62-1.62,7.3-3.9,1.49-2.03,3.15-2.82,5.47-2.83,1.71,0,3.23-.48,4.69-1.98-.65-.11-1.02-.09-1.3-.24-.37-.21-.66-.55-.99-.84.32-.32.59-.8.97-.92,1.29-.4,2.69-.52,3.93-1.02,1.93-.78,3.72-1.88,5.65-2.66,1.41-.58,2.93-.96,4.43-1.25,1-.19,2.33-.17,2.15-1.43-.11-.8-1.17-1.95-1.94-2.07-1.33-.2-2.78.23-4.15.51-.57.12-1.09.53-1.65.82-.5-1.71.23-3.47,2.04-4.3,3.48-1.6,7-3.16,10.59-4.48,5.92-2.17,11.93-4.13,17.89-6.21,2.4-.84,4.76-1.77,7.14-2.66.29-.11.64-.31.89-.24.98.31,2.52.5,2.76,1.14.45,1.23-.86,1.59-1.92,1.9-2.03.6-4.17,1.02-5.9,2.48.96,1.6,2.24,1.1,3.3.88,4.84-1,9.72-1.88,14.45-3.28,2.15-.64,3.64.05,5.4.76.87.35,1.93.39,2.9.34,1.27-.07,2.52-.51,3.78-.49.63,0,1.24.68,1.86,1.06-.54.51-1,1.26-1.64,1.49-1.33.48-2.76.68-4.14,1.02-.16.04-.3.19-.54.34.63,1.72,1.97,1.08,3.09.95,2.46-.28,4.91-.64,7.37-.93,1.32-.15,2.08.3,2.22,1.8.2,2.09,2.12,2.15,3.59,2.65.4.14.9-.04,1.29.1.47.17.86.54,1.29.82-.36.37-.65.92-1.09,1.08-.68.26-1.45.29-2.19.35-2.94.25-5.88.48-8.81.69-1.18.08-2.38,0-3.53.18-.68.11-1.3.61-1.95.94.62.27,1.24.79,1.85.78,3.66-.08,7.33-.42,10.99-.37,1.73.02,3.43.85,5.18,1.08,1.24.16,2.59.15,3.78-.19,4.26-1.21,8.49-2.33,12.96-1.07.7.2,1.51,0,2.22.17.46.11.83.55,1.25.83-.39.35-.72.88-1.17,1-1.01.27-2.09.31-3.13.47-1.76.28-3.52.59-5.33,1.29,2.85.47,5.7.94,8.55,1.41,0,.22-.02.44-.02.66-1.11.29-2.23.51-3.31.89-.52.18-.95.64-1.43.97.4.32.76.81,1.21.94,2.57.7,5.17,1.26,7.74,1.96,2.01.55,3.97,1.24,5.96,1.88,1.18.37,2.35.79,3.54,1.12,1.64.45,2.06,1.29,1.47,2.89-.14.39-.22,1.13-.02,1.27,1.99,1.39,2.62,4.59,5.79,4.42.15,0,.32.19.45.31.13.12.24.28.68.8-1.76.46-3.31.87-4.87,1.28-.06.18-.12.35-.18.53.75.41,1.47.86,2.24,1.21,2.37,1.06,4.74,2.1,7.13,3.11,3.41,1.45,6.84,2.87,10.26,4.3,1.35.57,2.62,1.21,2.68,2.96.05,1.61-1.22,3.8-2.65,4.43-.37.16-.86.23-1.26.15-7.01-1.43-13.79-.73-20.4,1.96-.61.25-1.33.38-1.99.33-5.44-.35-10.39,1.45-15.29,3.43-.38.15-.64.62-.96.94.46.16,1.03.59,1.38.45,5.63-2.21,11.72-1.13,17.42-2.43,4.44-1.02,8.51.18,12.67.8,2.18.32,4.18,2.3,6.33,2.43,5.9.35,10.42,3.86,15.43,6.16,2.65,1.22,4.88,3.38,7.25,5.17,1.92,1.46,3.77,3.01,5.66,4.52,2.16,1.72,2.51,3.12,1.33,5.65-.53,1.13-.48,2.05.69,2.7,1.29.71,2.55,1.52,3.91,2.06,2.22.87,3.72,2.42,4.8,4.46.9,1.7,1.66,3.49,2.68,5.11.75,1.18.4,2-.19,3.06-2.85,5.06-5.65,10.14-8.42,15.25-.61,1.12-.93,2.32.31,3.37.23.2.44.81.32.98-1.21,1.66-1.81,3.98-4.03,4.61-1.98.57-3.26,1.69-4.05,3.51-1.37,3.16-2.35,6.58-4.23,9.41-2.07,3.12-5.04,5.43-9.36,4.75-.8-.13-1.97.34-2.57.93-1.86,1.83-4.16,2.48-6.57,2.79-2.45.31-4.77-3.28-3.23-5.45,2.04-2.89,3.36-6.15,5.36-9,.71-1.01,2.33-1.37,3.49-2.08.57-.35,1.05-.84,1.57-1.26-.44-.5-.88-1.02-1.34-1.51-.07-.07-.24-.06-.36-.08q-4.08-.93-6.57,2.54c-1.01,1.41-1.95,2.88-2.92,4.31-1.1,1.62-2.41,1.93-3.95.72-4.6-3.64-9.88-5.54-15.6-6.58-4.29-.78-8.01-2.97-11.39-5.68-.5-.4-1.02-1.13-1.03-1.71-.01-1.92-1.27-2.69-2.69-3.43-.49-.26-.98-.54-1.42-.88-1.39-1.08-1.3-2.36.23-3.23.92-.52,1.92-.91,2.77-1.53.43-.31.81-1,.79-1.5,0-.33-.72-.73-1.19-.94-.73-.32-1.54-.46-2.28-.78-.4-.17-1-.57-.98-.83.03-.39.44-.93.83-1.09,1.87-.81,3.78-1.55,5.7-2.26,1.16-.43,2.36-.75,3.52-1.18,1.44-.54,2.36-1.25,1.5-3.07-.61-1.29.33-2.17,1.48-2.55,3.5-1.14,4.81-3.6,4.66-7.14-.1-2.19.75-3.86,3.03-4.58.56-.18,1.02-.64,1.62-1.04ZM173.51,88.62c-.08-.08-.16-.17-.25-.26,0-.56,0-1.12.02-1.68.05-1.48-.92-1.78-1.96-1.37-2.01.78-4.09,1.56-5.86,2.75-3.5,2.34-6.98,4.78-10.17,7.52-3.36,2.9-6.38,6.19-9.51,9.34-1.09,1.09-2.11,2.25-3.12,3.41-1.58,1.82-3.16,3.64-4.63,5.54-.29.38-.37,1.28-.12,1.65.92,1.34,3.94,1.25,5.09.14,1.41-1.35,3.09-2.43,4.47-3.81.92-.91,1.53-2.13,2.27-3.21.53-.77.9-1.79,1.62-2.28,1.79-1.22,3.75-2.18,5.61-3.3,3.97-2.39,8.23-4.45,11.78-7.36,2.84-2.32,5.95-3.7,9.21-4.99,1.94-.77,4.15-1.1,5.84-2.23,5.76-3.83,11.66-7.24,18.27-9.47,4.51-1.52,8.81-3.66,13.21-5.49,1.52-.63,3.08-1.15,4.62-1.73-.02-.17-.04-.34-.05-.51-.88-.17-1.78-.56-2.65-.48-5.48.49-10.94,1.5-16.41,1.48-3.53-.01-6.49,1.25-9.64,2.19-4.62,1.38-7.99,4.7-11.46,7.78-2.21,1.96-4.13,4.24-6.18,6.38ZM43.84,122.36l-.52-.48c.07-.35.06-.74.22-1.04,3.38-6.63,7.27-12.86,13.41-17.36.53-.39.98-.91,1.36-1.44,1.78-2.45,3.32-5.1,5.31-7.37,5.12-5.84,10.44-11.5,15.64-17.27,1.4-1.55,2.66-3.24,3.94-4.89,1.51-1.95,2.9-3.99,4.46-5.89,1.41-1.71,2.99-3.27,4.47-4.92.75-.84,1.28-1.82.43-2.84-1.2-1.44-.62-2.28.72-3.12,3.14-1.97,6.57-3.65,9.25-6.13,2.87-2.65,6-4.74,9.23-6.85,3.74-2.44,7.23-5.26,10.83-7.92-.08-.21-.16-.42-.24-.62-1.05.17-2.21.12-3.13.56-3.35,1.61-6.74,3.19-9.87,5.17-2.44,1.54-4.47,3.71-6.77,5.49-2.09,1.61-4.26,3.14-6.46,4.59-2.79,1.83-5.81,3.33-8.44,5.34-3.4,2.6-6.5,5.58-9.75,8.37-4.93,4.23-9.15,9.1-12.73,14.5-1.19,1.81-2.26,3.78-.18,5.83.28.28.25,1.33-.05,1.65-3.59,3.93-7.24,7.81-10.93,11.65-1.54,1.6-3.61,2.84-4.72,4.68-1.75,2.88-2.86,6.14-4.3,9.22-1.79,3.8-3.59,7.6-5.47,11.36-.96,1.93-1.91,2.29-3.97,1.48-1.27-.5-2-.19-2.9.76-1.61,1.7-3.35,3.28-5.16,4.77-.72.59-1.35.87-1.06,2.03.3,1.22,1.11.94,1.87.96-.39,4.64,1.03,3.03,4.44,3.19.11,0,.15.18.47.55.93-1.87,1.81-3.62,2.67-5.37.49-1,.9-2.04,1.46-2.99.64-1.07,1.61-1.69,2.81-.92,1.19.76,1.23,1.92.63,3.13-1.26,2.55-2.6,5.08-3.78,7.67-1.34,2.96-3.59,5.56-3.59,9.08,0,.32-.88.61-1.32.96-.72.56-1.85,1.04-2.03,1.76-.72,2.81-1.13,5.7-1.68,8.55-.15.78-.28,1.59-.63,2.29-1.26,2.57-.81,6.99,1.01,9.16.76.9,1.71.78,2.11-.3.19-.52.25-1.09.4-1.63.58-2.14,1.11-4.31,1.82-6.41.16-.48.97-.75,1.49-1.12.34.59.98,1.19.95,1.76-.08,1.41-.31,2.85-.75,4.19-1.23,3.78-.88,7.64-.69,11.47.07,1.45,1.35,1.95,2.73,2.01,1.35.05,1.7-.65,1.99-1.89.25-1.07,1.15-1.99,1.78-2.96,1.17-1.81,2.52-3.53,3.43-5.47.39-.82.01-2.17-.4-3.11-.14-.33-1.44-.15-2.2-.23-.28-.03-.55-.13-.9-.21.31-1.56.49-3.05.94-4.45.21-.67.92-1.18,1.4-1.76.45.51.88,1.03,1.34,1.53.54.58,1.01,1.36,1.68,1.64.39.16,1.59-.48,1.6-.78.02-.76-.24-1.7-.73-2.27-1.27-1.46-1.39-2.8-.63-4.61.44-1.04,0-2.45-.07-3.69-.06-1.01-.41-2.06-.2-3.01.29-1.31.88-2.59,1.51-3.79,1.86-3.51,3.84-6.95,5.73-10.45,1.65-3.06,1.72-6.93,4.78-9.28.21-.16.07-.78.09-1.18-.4,0-.86-.13-1.17.04-.47.25-.93.64-1.24,1.07-1.11,1.57-2.1,3.23-3.27,4.74-.43.56-1.3,1.19-1.87,1.11-.55-.08-1.29-.99-1.39-1.62-.15-.99.03-2.09.33-3.06.55-1.83,1.45-3.57,1.91-5.41.71-2.84,1.68-5.68.83-8.97-.55.33-.81.89-1.15,1.39-1.81,2.6-3.62,5.2-5.48,7.76-.45.62-1.1,1.09-1.66,1.62ZM274.88,384.18c-.74.45-.91.52-1.04.63-.33.29-.63.6-.95.89-3.1,2.75-4.1,6.58-5.17,10.33-.57,2-.9,4.09-1.12,6.16-.05.48.68,1.37,1.21,1.51.54.14,1.47-.21,1.86-.67,1.2-1.37,2.19-2.93,3.34-4.35,1.06-1.32,1.55-2.63,1.34-4.43-.23-1.87.19-3.81.31-5.72.08-1.31.13-2.63.22-4.35ZM40.06,204.66c.25-.04.5-.09.75-.13.04-.78.36-1.69.08-2.32-1.26-2.83-1.67-5.74-1.77-8.82-.07-2.37-.85-4.64-3.28-5.84-1.41-.7-2.21-.35-2.52,1.17-.14.67-.32,1.33-.38,2.01-.13,1.49-.52,3.05-.22,4.46.9,4.32,4.69,6.48,7.34,9.48ZM182.46,67.33c-2.45-1.21-4.71-.35-6.61,1.98-1.53,1.87-3.15,2.28-5.43,1.71-.93-.23-2.07-.12-2.99.2-2.33.82-4.59,1.84-6.88,2.81-2.55,1.08-4.39,2.98-5.88,5.25-.16.24-.13.71,0,1,.06.14.6.21.83.11,2.86-1.31,5.9-2.22,8.24-4.56.93-.93,2.53-1.92,3.66-1.75,2.11.3,3.6-.44,5.19-1.46,1.15-.73,2.36-1.37,3.57-2.01,1.95-1.04,3.91-2.05,6.29-3.29ZM80.23,86.63l.54.65c.57-.3,1.22-.52,1.71-.93.86-.71,1.6-1.56,2.43-2.3,4.06-3.66,8.18-7.26,12.16-11,1.53-1.44,2.79-3.18,4.11-4.84.37-.46.54-1.09.79-1.64-.19-.16-.39-.32-.58-.48-4.22,3.72-8.56,7.31-12.62,11.2-3.04,2.91-5.71,6.21-8.54,9.34ZM60.58,113.69c.15.97.19,1.65.38,2.3.18.61.51,1.17.78,1.76.53-.36,1.24-.6,1.57-1.1,1.98-2.99,3.89-6.03,5.78-9.08.19-.31.26-.95.08-1.15-.21-.23-.82-.29-1.16-.17-.5.18-.95.56-1.35.93-1.72,1.6-3.46,3.19-5.11,4.86-.49.5-.73,1.25-.96,1.66ZM110.44,50.84c-2.28-1.34-3.76-.22-5.16.87-4.71,3.67-9.1,7.69-12.87,12.34-.36.45-.51,1.08-.75,1.62.2.1.4.2.6.29.57-.63,1.15-1.25,1.7-1.89,3.18-3.65,6.16-7.43,10.94-9.33,2.05-.81,3.71-2.58,5.55-3.91ZM236.59,328c.19-.07.37-.14.56-.21,0-.47.13-.98-.02-1.39-1.28-3.46-2.57-6.92-3.96-10.34-.17-.41-.91-.59-1.38-.88-.08.57-.39,1.22-.21,1.69.95,2.48,1.98,4.93,3.05,7.36.58,1.3,1.3,2.52,1.96,3.78ZM229.94,352.03c-2,2.11-2.25,9.38-.46,10.72,1.75-2.05,2.08-8.48.46-10.72ZM238.14,300.02l.85-.59c-1.7-2.62-3.35-5.27-5.14-7.83-.22-.32-1.18-.13-1.79-.18-.01.63-.29,1.49.01,1.86,1.95,2.31,4.03,4.5,6.06,6.74ZM221.47,363.28c-.24.91-.42,1.55-.57,2.19-.39,1.59-1.46,2.3-3.01,2.13-1.98-.21-3.05.9-4.15,2.54,3.16.27,5.73-.56,7.87-2.54,1.39-1.29,1.33-2.43-.13-4.33ZM51.91,168.21c1.9-1.43,2.41-2.92,2.31-4.43-.12-1.82-.99-3.32-3.51-3.77.4,2.71.76,5.21,1.2,8.2ZM233.7,462.29c-1.79-1.17-4.44-.67-5.8,1.06-.28.35-.6,1-.45,1.27.22.4.8.74,1.28.83,1.93.35,3.84-.88,4.97-3.16ZM261.74,370.63c.27-.2.35-.23.37-.27,1-3.06.73-6.13.05-9.2-.04-.19-.49-.46-.68-.41-.22.05-.52.42-.52.65,0,2.8.02,5.59.09,8.38,0,.27.43.54.7.85ZM62.52,86.79c-.25-.27-.5-.55-.75-.82-3.67,1.23-5.56,4.17-7.04,7.49.15.15.3.29.44.44,2.45-2.37,4.9-4.74,7.34-7.11ZM107.12,60.64c1.61-1.14,2.98-2.02,4.23-3.04.33-.27.33-.96.48-1.45-.56-.16-1.15-.51-1.67-.44-1.59.22-3.2,2.55-3.04,4.93ZM159.96,256.51c2.15,2.51,4.87,3.69,6.73,3.01-1.35-2.24-4.04-3.48-6.73-3.01ZM26.33,144.88c2.3.11,3.43-1.34,2.94-3.36-.12-.5-.67-.9-1.02-1.35-.31.44-.63.88-.92,1.33-.33.49-.59,1.03-.96,1.49-.33.41-.76.74-1.14,1.1.46.33.93.66,1.1.78ZM203.72,288.77c-1.8-2.27-3.39-4.28-5.1-6.44-.84,2.45,1.2,4.95,5.1,6.44ZM63.23,106.31c.19.13.37.27.56.4,1.19-1.35,2.39-2.69,3.82-4.3-.61-.16-1.47-.65-1.78-.41-1.41,1.08-2.52,2.45-2.6,4.32ZM174.45,97.25c.09.14.19.27.28.41,2.13-.74,4.26-1.46,6.38-2.22.19-.07.46-.36.43-.5-.05-.25-.27-.63-.46-.67-.53-.09-1.2-.21-1.63.02-1.7.92-3.34,1.96-5,2.96ZM127.41,34.71c-.03-.4-.06-.79-.09-1.19l-3.02-.62c.01.96.03,1.91.04,2.87,1.02-.36,2.05-.71,3.07-1.07ZM243.84,314.82c-.35.1-.7.21-1.05.31.44,1.59.84,3.19,1.34,4.77.06.21.57.37.87.36.13,0,.42-.52.36-.71-.47-1.58-1.01-3.15-1.53-4.72ZM246.46,329.02c.23-.06.45-.12.68-.19.14-2.47-.6-4.66-2.31-5.1.61,1.98,1.12,3.63,1.63,5.28ZM27.08,184.33l.87-.12c0-.95.05-1.91-.03-2.86-.02-.25-.43-.48-.67-.71-.2.26-.58.54-.57.79.06.97.25,1.93.39,2.9ZM176.65,278.93c-.32.07-.64.14-.96.2.16.79.33,1.58.49,2.37.44-.14.88-.29,1.32-.43-.29-.71-.57-1.43-.86-2.14ZM227.79,283.41c-.25.2-.5.4-.74.61.94,1.04,1.89,2.07,2.83,3.11.19-.16.38-.33.57-.49-.88-1.08-1.77-2.15-2.65-3.23ZM237.91,333.11c-.24.08-.48.15-.72.23.42,1.35.83,2.71,1.25,4.06.26-.09.52-.17.78-.26-.44-1.34-.87-2.69-1.31-4.03Z"/>
  <path class="cls-1" d="M282.99,302.8c2.31-.7,2.83.64,3.31,1.79,1.82,4.37,3.62,8.74,5.3,13.16,1.73,4.57,3.67,9.1,4.87,13.82,1.8,7.06,2.99,14.28,4.53,21.41,1.62,7.51.91,15.11.8,22.67-.03,2.11-1.07,4.18-1.39,6.31-.27,1.83-.29,3.71-.23,5.56.12,3.51-1.25,6.28-3.88,8.48-.38.32-.96.4-1.45.59-.18-.49-.45-.98-.52-1.48-.07-.48-.11-1.14.15-1.45,3.54-4.21,3.05-9.42,3.56-14.35.38-3.69.78-7.4.71-11.09-.05-2.48-.86-4.96-1.4-7.42-.35-1.58-.87-3.06.54-4.51.41-.43.2-1.58.05-2.35-.04-.22-.93-.22-1.39-.41-.46-.18-1.02-.37-1.29-.74-1.75-2.36-1.73-5.83-.04-8.22.99-1.4.84-4.11-.61-4.64-2.47-.9-2.56-3.01-3.07-4.91-.38-1.43-.47-2.95-.55-4.43-.03-.61.12-1.49.52-1.8.32-.24,1.16.2,1.98.38-1-2.47-1.93-5.05-3.08-7.52-1.47-3.15-3.15-6.2-4.68-9.32-.29-.59-.42-1.33-.38-1.99.15-2.7.17-5.33-2.37-7.55Z"/>
  <path class="cls-1" d="M275.38,450.93c-1.9,3.7-4.25,7.07-7.33,9.88-1.18,1.08-2.54,1.98-3.74,3.04-1.43,1.26-2.72,2.69-4.18,3.92-2.49,2.11-4.96,4.28-7.64,6.13-1.8,1.25-5.8-.29-6.76-2.33-.71-1.5.5-2.06,1.52-2.45,1.43-.56,2.96-.85,4.42-1.33,3.98-1.3,7.21-3.85,10.23-6.6,3.2-2.91,6.17-6.08,9.2-9.17,1.23-1.25,2.64-1.51,4.26-1.1h.01Z"/>
  <path class="cls-1" d="M197.93,307.88c.09,1.17-.16,2.5.32,3.49,1.56,3.28,3.54,6.36,5.03,9.66.84,1.86,1.17,3.99,1.45,6.03.08.6-.77,1.33-1.2,2-.62-.51-1.52-.89-1.83-1.55-1.16-2.46-2-5.07-3.19-7.51-1.3-2.65-2.85-5.18-4.31-7.75-.86-1.51-1.82-2.96-2.58-4.52-.33-.68-.52-1.61-.35-2.32.52-2.22-.27-4.01-1.5-5.73-.22-.3-.53-.59-.62-.93-.21-.81-.31-1.64-.46-2.47.67.44,1.58.73,1.98,1.35,1.12,1.76,1.93,3.71,3.06,5.46.68,1.04,1.7,1.87,2.63,2.73.7.64,1.5,1.18,2.26,1.76-.23.1-.46.2-.69.3Z"/>
  <path class="cls-1" d="M3.07,184.26c-.12,1.14-.37,2.28-.35,3.41.07,4.65.25,9.3.3,13.95.01.96-.34,1.93-.52,2.89-.64-.75-1.46-1.42-1.86-2.28-.43-.91-.67-2.02-.63-3.03.14-4.14.32-8.28.7-12.41.09-.99.97-1.91,1.49-2.87.29.11.59.22.88.34Z"/>
  <path class="cls-1" d="M111.96,460.52c-.69.25-1.53.32-2.04.77-1.82,1.63-3.54.93-5.26-.03-1.57-.87-3.14-1.77-4.62-2.78-.39-.26-.46-.98-.67-1.49.56-.08,1.2-.38,1.66-.2,2.73,1.07,5.44,2.02,8.44,2.05.91.01,1.81.75,2.71,1.16-.07.18-.14.35-.21.53Z"/>
  <path class="cls-1" d="M248.86,275.95c.6.5,1.23.89,1.7,1.42,2.54,2.84,5.05,5.71,7.57,8.57.33.37.73.72.92,1.16.15.33.12.84-.04,1.15-.08.17-.67.21-.96.11-.52-.18-1.09-.42-1.44-.81-2.8-3.13-5.56-6.3-8.29-9.49-.28-.32-.39-.89-.36-1.33.02-.24.5-.45.9-.78Z"/>
  <path class="cls-1" d="M294.54,376.75c.42-1.47.81-2.95,1.29-4.41.11-.34.55-.58.84-.86.27.36.77.7.78,1.07.08,1.71.19,3.45-.06,5.12-.1.69-1.08,1.25-1.67,1.87-.32-.72-.65-1.44-.94-2.18-.06-.16,0-.37,0-.55-.08-.02-.15-.04-.23-.07Z"/>
  <path class="cls-1" d="M135.63,176.6c-.59,1.19-.98,2.4-1.72,3.32-.36.44-1.4.32-2.13.45-.06-.64-.32-1.34-.14-1.89.31-.92.82-1.81,1.42-2.57.35-.44,1.07-.84,1.6-.8.32.02.59.89.96,1.5Z"/>
  <path class="cls-1" d="M108.99,20.86c-1.56,2.81-5.08,4.51-6.77,3.37.91-2.1,4.3-3.84,6.77-3.37Z"/>
  <path class="cls-1" d="M197.29,301.03c1.53,1.31,3.14,2.54,4.56,3.96.38.38.19,1.32.27,2-.65-.23-1.48-.28-1.92-.72-1.08-1.09-2.02-2.34-2.93-3.58-.27-.37-.27-.94-.39-1.42.14-.08.28-.16.42-.25Z"/>
  <path class="cls-1" d="M212.19,339.53c-.82.17-1.7.45-1.74.36-.84-1.94-1.59-3.93-2.36-5.91.42-.09,1.16-.34,1.22-.23.93,1.73,1.78,3.51,2.88,5.78Z"/>
  <path class="cls-1" d="M277.94,415.53c.61.44,1.13.64,1.3,1.01.12.26-.11.88-.38,1.1-.96.78-1.96,1.51-3.02,2.13-.34.2-1.19.2-1.32-.01-.23-.38-.33-1.23-.09-1.46,1.06-.98,2.26-1.81,3.5-2.77Z"/>
  <path class="cls-1" d="M248.46,476.01c.12,1.54-3.27,3.82-4.37,3.2-.28-.15-.51-1.04-.41-1.12,1.21-.9,2.46-1.75,3.77-2.49.22-.13.76.3,1.01.41Z"/>
  <path class="cls-1" d="M15.19,189.78c-.35,1.04-.54,1.83-.87,2.55-.23.5-.66.92-1,1.38-.34-.52-.93-1.04-.96-1.58-.05-.89.15-1.85.48-2.68.18-.46.85-.74,1.3-1.1.37.5.73,1,1.05,1.43Z"/>
  <path class="cls-1" d="M205.36,300.3c1.44-.09,3.68,2.21,3.43,3.25-.07.31-.89.77-.97.7-1.04-.91-2.05-1.86-2.95-2.9-.12-.13.36-.79.49-1.05Z"/>
  <path class="cls-1" d="M282.83,428.64c-.65,1.06-1.17,2.25-2.01,3.13-.35.37-1.39.08-2.11.08.16-.63.12-1.49.53-1.85.88-.78,1.99-1.31,3.01-1.94.2.19.39.38.59.58Z"/>
  <path class="cls-1" d="M292.64,378.19c-.56.19-1.35.71-1.63.51-.68-.49-1.23-1.26-1.6-2.03-.09-.19.67-.8,1.03-1.22.59.55,1.19,1.11,1.78,1.66.14.36.28.72.42,1.08Z"/>
  <path class="cls-1" d="M14.67,146.52c.81-.79,1.45-1.41,2.08-2.03.3.35.94.88.86,1.02-.46.84-1.08,1.58-1.65,2.36-.32-.34-.64-.68-1.29-1.35Z"/>
  <path class="cls-1" d="M98.78,32.59c-.58-.67-.88-1.03-1.18-1.39.69-.56,1.38-1.14,2.12-1.63.04-.03.91.91.82,1.04-.41.65-1.01,1.17-1.75,1.97Z"/>
  <path class="cls-1" d="M242.13,258.91c-1.91.46-2.92-.82-4.12-1.88,1.87-.75,3.17-.14,4.12,1.88Z"/>
  <path class="cls-1" d="M221.08,331.16c-.51.19-1.31.69-1.49.52-.6-.56-1.08-1.33-1.4-2.1-.09-.21.55-.72.86-1.09.54.6,1.08,1.2,1.62,1.81l.41.86Z"/>
  <path class="cls-1" d="M203.06,334.6c-.5.66-.83,1.09-1.16,1.53-.43-.58-1.06-1.12-1.21-1.77-.1-.43.5-1.02.79-1.53.48.54.96,1.08,1.57,1.77Z"/>
  <path class="cls-1" d="M14.74,151.16c-1.11.53-1.73,1.06-2.3,1.01-.43-.04-.8-.83-1.19-1.28.5-.36,1-.99,1.51-1.01.49-.02,1,.61,1.98,1.28Z"/>
  <path class="cls-1" d="M225.84,93.58c-.67-.78-1.07-1.23-1.46-1.68.52-.37,1.02-.97,1.57-1.03.38-.04,1.18.68,1.17,1.04-.02.46-.66.9-1.29,1.67Z"/>
  <path class="cls-1" d="M189.16,359.05c-.6.56-1.03.96-1.45,1.36-.3-.48-.89-.99-.84-1.43.06-.52.66-.98,1.03-1.46.35.42.69.84,1.26,1.53Z"/>
  <path class="cls-1" d="M275.37,450.93c-.05-1.86.04-3.66,2.15-4.97.36,2.35-1.56,3.38-2.13,4.98,0,0-.01,0-.01,0Z"/>
  <path class="cls-1" d="M201.43,359.83c1.12,1.61.47,2.27-.39,2.7-.3.15-.84-.2-1.27-.33.5-.71.99-1.41,1.67-2.37Z"/>
  <path class="cls-1" d="M226.3,249.93c1.33.33,2.35.97,2.7,2.34l-.45.51c-.92-.76-1.84-1.53-2.76-2.29.17-.18.34-.37.51-.55Z"/>
  <path class="cls-1" d="M279.24,327.69c.75,1.05,1.23,1.64,1.62,2.28.21.34.32.76.36,1.16.01.13-.45.45-.49.42-.35-.28-.82-.57-.95-.96-.26-.78-.32-1.62-.55-2.9Z"/>
  <path class="cls-1" d="M137.09,147.07c-.39-.66-.8-1.07-.72-1.28.17-.46.6-.82.93-1.21.29.24.86.58.82.72-.17.52-.54.98-1.03,1.78Z"/>
  <path class="cls-1" d="M27.46,208.12c-1.93.31-2.58-.37-2.55-2.43.47.55.79,1,1.18,1.38.34.33.76.59,1.37,1.06Z"/>
  <path class="cls-1" d="M76.77,72.03c.56,2.45-3.1,6.86-6.88,8.28-.8-2.21,3.96-7.94,6.88-8.28Z"/>
  <path class="cls-1" d="M36.8,152.73c-.75-3.1.15-5.69,2.31-6.87,1.38,2.62.44,5.55-2.31,6.87Z"/>
  <path class="cls-1" d="M40.82,140.76c.91-1.6,1.74-3.16,2.69-4.64.19-.3.84-.32,1.27-.47.1.5.42,1.08.27,1.47-.57,1.49-1.25,2.95-2.01,4.36-.2.38-.89.77-1.27.7-.34-.07-.55-.77-.96-1.42Z"/>
  <path class="cls-1" d="M86.66,64.31c-2.02,2.05-3.55,4.7-6.68,5.38.39-1.99,4.33-5.32,6.68-5.38Z"/>
  <path class="cls-1" d="M34.83,128.24c-.7.55-1.16,1.18-1.55,1.14-.4-.04-.94-.72-1-1.17-.04-.32.62-1.03.96-1.03.44,0,.88.55,1.59,1.06Z"/>
  <path class="cls-1" d="M173.51,88.62c-1.38.89-2.74,1.81-4.17,2.62-.26.15-.92,0-1.11-.25-.26-.33-.41-.91-.32-1.33.26-1.31,1.99-2.13,3.4-1.74.64.18,1.3.29,1.95.44.08.09.16.17.25.25Z"/>
  <path class="cls-1" d="M159.48,94.96c.53-2.48,2.87-4.14,5.12-3.61-.51,1.68-2.96,3.41-5.12,3.61Z"/>
</svg>