<?xml version="1.0" encoding="UTF-8"?>
<svg id="Layer_1" data-name="Layer 1" xmlns="http://www.w3.org/2000/svg" viewBox="0 0 403.33 396">
  <defs>
    <style>
      .cls-1 {
        fill: #000;
        stroke-width: 0px;
      }
    </style>
  </defs>
  <path class="cls-1" d="M172.43,110.86c1.5-5.06,2.81-10.18,4.51-15.17.86-2.54,2.26-4.94,3.71-7.21.75-1.18,1.99-2.26,3.26-2.84,2.44-1.11,4.29-2.69,5.74-4.92,1.68-2.58,3.76-4.61,6.92-5.52,3.42-.99,6.69-2.49,10.09-3.56,3.03-.96,6.09-1.84,9.37-1.56.95.08,1.96-.3,2.92-.56,2.77-.75,5.52-1.66,8.41-.69.87.29,1.5-.05,2.14-.53,1.28-.94,2.72-1.39,4.3-1.64,2.91-.47,5.81-1.03,8.69-1.66,5.3-1.16,10.65-1.08,16.01-.83,3.71.18,7.4.56,11.1.83.46.03.94.02,1.4-.04,3.95-.6,7.89-.57,11.85-.03.99.13,2.06.21,3.02-.02,3.22-.78,6.37-.08,9.49.39,5.51.83,10.98,1.96,16.49,2.85,5.99.96,11.95,1.98,17.72,3.96,2.22.76,4.52,1.12,6.85.17.69-.28,1.53-.18,2.3-.3,2.15-.33,4.32-.56,6.43-1.05,3.55-.83,7.07-1.83,10.59-2.77,2.24-.6,4.54-1.06,6.7-1.88,4.34-1.66,8.6-3.53,12.9-5.31,3.14-1.29,5.84-3.21,8.24-5.59.76-.76,1.74-1.29,2.55-2,1.92-1.68,4.03-3.21,5.65-5.15,2.93-3.5,4.53-7.73,5.88-12.08.61-1.98,1.56-3.94,2.77-5.61.93-1.28,1.66-2.58,2.29-4.01,1.37-3.08.52-7.14-3.18-8.9-.89-.42-1.89-.95-2.43-1.72-2.39-3.36-5.8-4.79-9.66-5.52-1.67-.32-3.34-.69-4.97-1.19-5.66-1.75-11.37-3.11-17.35-3.11-3.42,0-6.84-.14-10.08-1.43-.36-.14-.75-.24-1.14-.24-2.95-.06-5.89-.11-8.84-.11-1.08,0-2.18.31-3.24.21-5.86-.52-11.72-1.09-17.58-1.71-6.02-.64-12.05-1.28-18.05-2.07-5.89-.77-11.79-.91-17.69-.57-6.27.36-12.52,1.15-18.79,1.68-6.11.52-12.24.93-18.35,1.42-7.27.59-14.54,1.19-21.8,1.86-9.06.83-18.05,2.17-26.95,4.08-1.89.41-3.74,1.02-5.64,1.41-3.86.79-7.75,1.45-11.61,2.25-5.4,1.12-10.78,2.3-16.17,3.47-9.19,1.99-18.41,3.86-27.56,6.02-5.96,1.4-11.85,3.11-17.7,4.92-2.87.89-5.68,2.15-8.33,3.59-2.57,1.4-4.95,3.16-7.3,4.9-4.12,3.04-8.34,5.99-12.21,9.34-7.34,6.35-13.07,13.97-16.55,23.1-2.69,7.04-5.16,14.17-7.67,21.28-2.89,8.2-4.33,16.71-4.82,25.35-.47,8.33.32,16.6,2,24.8,1.14,5.57,2.36,11.12,4.7,16.33,1.78,3.97,3.71,7.88,5.65,11.77.65,1.3,1.57,2.47,2.35,3.71.24.39.42.82.63,1.23,1.12,2.21,2.05,4.54,3.4,6.59,1.8,2.71,3.92,5.21,5.91,7.79,1.61,2.09,3.09,4.31,4.89,6.22,2.98,3.16,6.29,5.97,9.78,8.59,3.48,2.61,6.75,5.5,10.16,8.2,1.27,1.01,2.62,1.97,4.06,2.72,3.16,1.64,6.38,3.16,9.61,4.66,1.96.91,3.96,1.78,5.99,2.53,2.18.81,4.44,1.4,6.62,2.21,3.86,1.44,7.71,2.92,11.51,4.5,3.4,1.42,7.02,1.9,10.56,2.71.75.17,1.54.29,2.24.59,3.03,1.31,6.24,1.82,9.48,2.24,3.39.43,6.79.78,10.14,1.44,7.26,1.43,14.51,2.47,21.91,1.21.45-.08.92-.02,1.38.03,1.84.18,3.69.58,5.52.53,2.34-.06,4.62.08,6.94.35,2.45.29,4.99.25,7.44-.05,4.58-.56,8.98-.17,13.29,1.48,2.4.92,4.81,1.75,7.47,1.55.75-.06,1.56.1,2.28.34,2.79.94,5.49,2.18,8.33,2.91,5.09,1.31,9.85,3.91,15.28,3.88.3,0,.61.13.91.18,3.77.63,7.37,1.82,11.01,2.95,2.57.8,3.78,2.14,4.15,4.59.13.84.17,1.7.28,2.54.09.69.07,1.44.35,2.05,1.78,3.9,1.15,7.91.57,11.9-.2,1.35-.69,2.77-1.43,3.91-3.15,4.89-6.59,9.57-10.51,13.9-4.06,4.49-7.89,9.2-11.99,13.65-7.53,8.16-16.25,14.84-25.85,20.42-5.74,3.34-11.87,5.78-17.97,8.31-6.86,2.84-14.14,4.17-21.4,5.51-4.58.84-9.21,1.45-13.81,2.18-2.22.35-4.43.75-6.65,1.08-2.76.41-5.54.75-8.3,1.15-4.27.62-8.37.28-12.14-2.08-1.91-1.2-3.85-2.28-6.11-2.8-1.07-.25-2.03-1.07-2.99-1.71-2.72-1.8-5.39-3.68-8.13-5.44-2.53-1.64-5.31-2.94-7.66-4.8-4.5-3.56-8.7-7.48-13.15-11.11-3.06-2.5-6.27-4.83-9.5-7.1-2.41-1.69-5.19-2.91-7.41-4.79-3.41-2.89-6.99-5.58-10.24-8.65-.33-.31-.78-.49-1.2-.68-.98-.46-1.96-.93-2.97-1.31-.71-.27-1.49-.6-2.22-.55-2.46.16-4.92.74-7.33-.3-.19-.08-.46.02-.69.06-2.86.4-5.76.09-8.61.84-2.17.57-4.35,1.51-6.72.96-.32-.07-.72.25-1.1.34-.68.15-1.37.35-2.05.36-2.47.03-4.85.76-7.37.65-2-.09-4.05.69-5.93,1.05-1.19-.18-2.38-.69-3.39-.46-4.49,1.04-9.03,1.51-13.62,1.64-.92.02-2.06-.04-2.72.45-2.1,1.54-4.32,1.35-6.64,1-.76-.12-1.53-.24-2.3-.23-.82.02-1.64.14-2.44.31-1.58.33-3.14.76-4.71,1.1-.75.16-1.52.21-2.27.31-1.85.25-3.55,1.02-5.32,1.52-2.34.66-4.02,2.32-6.12,3.3-.25.12-.49.43-.57.7-.77,2.6-1.67,5.18-2.19,7.83-.4,2.05.32,2.93,2.4,3.19,2.11.26,3.37,1.43,4.26,3.18,1.43,2.82,2.23,5.97,4.4,8.4.19.21.19.59.32.87.68,1.39,1.42,2.76,2.07,4.16.61,1.32,1.14,2.68,1.73,4.02.34.78.54,1.7,1.09,2.28,3.76,3.92,7.58,7.79,11.42,11.63,2.08,2.08,4.16,4.18,6.38,6.1,1.69,1.46,3.53,2.77,5.46,3.89,1.03.59,1.97,1.13,2.73,2.07.72.9,1.52,1.76,2.41,2.49,4.14,3.39,9.46,4.57,13.92,7.4.94.6,2.34.5,3.26,1.12,1.91,1.28,3.93,2.16,6.17,2.62.74.15,1.43.59,2.13.92,1.19.57,2.37,1.15,3.55,1.74,1.88.93,3.75,1.87,5.62,2.81,1.25.63,2.47,1.33,3.74,1.89,2.62,1.17,5.26,2.3,7.92,3.39,1,.41,2.05.7,3.1.98,1.04.28,2.11.48,3.16.71,3.02.68,5.92,1.82,9.06,2.08,2.22.18,4.42.73,6.63,1.11,1.75.3,3.5.66,5.27.89,1.91.25,3.85.34,5.77.59,1.37.18,2.71.59,4.09.77,2.46.31,4.93.56,7.41.76,4.02.32,7.95,1.49,12.04,1.12.68-.06,1.38.16,2.08.23,3.31.31,6.45,1.63,9.85,1.54,2.31-.06,4.63.32,6.96.37,1.39.03,2.79-.29,4.18-.27,3.26.06,6.52.35,9.78.31,4.56-.06,9.13-.75,13.69.06,4.19-1.13,8.46-.62,12.71-.73,3.1-.08,6.19-.85,9.27-.73,3.61.14,7.12-.33,10.66-.7,2.32-.24,4.6-.84,6.92-.95,4.72-.24,9.4-.54,14.1-1.3,3.63-.58,7.41-.3,11.08-1.08,3.32-.71,6.69-1.24,10.13-1.06.51.03,1.04-.29,1.57-.4,2.2-.47,4.38-1.06,6.6-1.32,1.47-.18,2.88-.33,4.29-.89,1.35-.54,2.84-.88,4.29-.97,3.62-.23,7.17-.88,10.32-2.59,2.78-1.51,5.8-2.2,8.69-3.29.87-.33,1.84-.41,2.66-.81,2.94-1.42,5.8-3,8.75-4.38,1.75-.82,3.57-1.53,5.43-2,2.93-.75,5.52-1.98,7.77-4.04.83-.76,1.92-1.24,2.92-1.8,1.83-1.01,3.85-1.77,5.49-3.02,2.71-2.07,5.18-4.45,7.77-6.69.41-.35.86-.67,1.31-.97,3.16-2.08,5.5-5,8.04-7.73,1-1.07,1.82-2.36,2.97-3.23,4.16-3.14,7.08-7.38,10.3-11.34,2.29-2.82,4.21-5.95,6.34-8.9.81-1.13,1.82-2.12,2.64-3.24.91-1.25,1.71-2.59,2.57-3.88,2.25-3.36,4.72-6.58,6.7-10.09,3.23-5.74,6.22-11.62,9.16-17.52,2.51-5.03,4.08-10.42,5.5-15.84.37-1.42.5-2.91.6-4.38.41-6.17-.34-12.27-1.45-18.32-1-5.43-2.05-10.86-3.25-16.24-.78-3.49-1.74-6.94-2.86-10.33-1.56-4.7-5.01-8.19-8.19-11.8-2.52-2.88-5.46-5.33-8.88-7.1-2.69-1.39-5.39-2.78-8.18-3.96-6.6-2.81-13.46-4.83-20.49-6.22-3.12-.62-6.3-.98-9.4-1.67-4.01-.89-7.98-1.99-11.97-3-1.73-.44-3.44-1.04-5.2-1.28-8.77-1.19-17.52-2.43-26.38-2.81-4.26-.18-8.52-.69-12.77-1.09-6.34-.59-12.69-1.1-19.01-1.85-4.08-.48-8.16-1.17-12.17-2.05-4.85-1.07-9.65-2.42-14.46-3.68-5.18-1.35-10.38-2.62-15.51-4.12-4.17-1.22-8.3-2.63-12.37-4.16-4.58-1.72-9.11-3.56-13.59-5.54-2.91-1.29-5.7-2.85-8.49-4.39-4.1-2.26-7.9-4.96-11.15-8.36-2.16-2.25-4.22-4.7-5.25-7.64-1.06-3.06-1.68-6.29-2.26-9.49-1.37-7.57-.45-14.86,3.08-21.77.39-.76.7-1.56.94-2.38Z"/>
  <path class="cls-1" d="M129.03,23.64c-.9-.31-1.48-.19-1.95.97,1.08.16,1.69.06,1.95-.97Z"/>
</svg>