<?xml version="1.0" encoding="UTF-8"?>
<svg id="Layer_1" data-name="Layer 1" xmlns="http://www.w3.org/2000/svg" viewBox="0 0 251.43 396">
  <defs>
    <style>
      .cls-1 {
        fill: #000;
        stroke-width: 0px;
      }
    </style>
  </defs>
  <path class="cls-1" d="M250.01,7.89c-.32-.29-.39-.89-.5-1.36-.14-.6-.08-1.26-.32-1.8-.35-.79-.73-1.83-1.4-2.18-1.25-.66-2.7-1.11-4.11-1.29-2.81-.35-5.66-.34-8.47-.71-2.55-.34-5.09-.63-7.66-.53-1.11.04-2.23.19-3.34.18-3.06-.03-6.11-.16-9.17-.16-1.5,0-3,.22-4.5.3-2.23.13-4.46.16-6.68.35-4.44.39-8.87.83-13.3,1.3-1.71.18-3.41.5-5.12.68-3.38.36-6.74.74-10.01,1.71-.43.13-.87.27-1.31.27-3.24-.02-6.14,1.5-9.27,2.01-2.61.43-5.11,1.45-7.67,2.2-2.73.79-5.46,1.57-8.2,2.34-.68.19-1.6.11-2.02.54-1.34,1.36-3.32,1.09-4.78,2.09-.73.5-1.57.86-2.41,1.16-4.33,1.57-8.19,4.03-12.12,6.34-2.88,1.69-5.63,3.59-8.37,5.5-3.7,2.57-7.33,5.24-10.98,7.88-.45.33-.86.98-1.3,1-1.52.08-2.08,1.31-2.96,2.16-.51.5-1.03,1-1.59,1.54-.34-.4-.6-.71-.86-1.02-1.2.46-1.18,1.45-1.19,2.36-.58.3-1.07.56-1.56.81-.6-.97-1.38-.41-2.03-.15-.32.13-.49.64-.73.98.36.17.72.34,1.08.52-.68.12-1.37.24-2.01.35-.23.45-.44.88-.66,1.32h0,0s0,0-.01.01h0s-.01.01-.01.01h0l-.98.98c.05-.61.37-.94.98-.98h.01s0-.01,0-.01h.01c-.33-.39-.74-.78-1.2-.36-.26.23-.31.73-.38,1.13-.03.18.14.39.22.59-.34.17-.67.37-1.03.5-.78.28-1.58.5-2.36.78-.13.05-.21.24-.34.41.13.46.25.93.44,1.6-2.35,1.36-3.9,3.54-5.49,5.66-.03.04-.07.1-.12.11-2.16.84-3.26,2.74-4.5,4.5-.09.14-.23.24-.35.36-1.94,1.84-3.87,3.69-5.82,5.51-.23.21-.56.34-.86.45-1.39.5-2.25,1.33-2.22,2.94.02.92-.36,1.14-1.28,1.02-1.47-.19-2.19.31-2.43,1.7q-.23,1.28-1.56,1.28c-.9,1.12-1.8,2.25-2.71,3.38-.43.53-.81,1.03-.67,1.8.15.84-.25,1.24-1.14,1.19-.49-.03-1.01,0-1.48.13-.45.13-.57.54-.23.92.17.19.44.29.91.59-1.81-.15-2.94.5-3.19,2.05-.26,1.65-1.31,2.47-2.61,3.23-.7.41-1.31.99-1.89,1.56-.47.47-.85,1.03-1.27,1.56-.34.92-.6,1.88-1.05,2.74-.25.48-.83.78-1.28,1.19-.96-.88-.69-1.72-.19-2.37.63-.82,1.45-1.49,2.19-2.22.15-.52.3-1.04.44-1.52-.55-.55-1.08-.57-1.57-.18-.6.48-1.21.98-1.71,1.56-.54.61-1.28,1.28-1.36,1.99-.1.94-.15,1.81-.72,2.48.54.69.97,1.31,1.48,1.86.14.15.49.12.75.17-.13.63-.27,1.27-.42,1.99-.58-.18-.98-.3-1.44-.44-.5,1-2.13,1.51-.87,2.96-.68.64-1.44,1.13-1.84,1.82-.38.66-.39,1.53-.57,2.36-.56-.15-.93-.25-1.52-.42.41,1.17.61,2.14-.08,3.06-.15-.04-.33-.13-.47-.1-.34.08-.76.15-.95.38-.12.14.07.61.21.88.16.3.42.54.7.87-.83.12-1.48.22-2.19.32-.11,2.01-.6,3.72-3.04,4.17.38.48.57.8.84,1.03.56.49.58,1.02.28,1.65-.51,1.05-.99,2.12-1.51,3.17-.54,1.1-1.33,1.92-2.59,2.17-1.29.25-1.82.78-1.94,2.05-.1,1.16-.23,2.34-.18,3.5.07,1.58-1.03,2.64-1.59,3.93-.16.36-.93.46-1.42.68q-.12,1.23-1.16,1.65c-.94.38-1.47,1-1.21,1.73.61,1.7-.14,3.13-.76,4.58-.25.58-.41,1.07.18,1.46.84.57.67,1.16.13,1.83-.66-.12-1.29-.23-1.85-.33-.45.69-.79,1.26-1.16,1.8-.35.51-.3.94.22,1.29.4.27.82.51,1.39.86.09-.73.14-1.26.22-1.79.1-.68.4-1.01,1.32-.51-.99,2.5-1.99,4.96-2.94,7.44-.15.39-.18.9-.05,1.29.42,1.28.27,2.52.02,3.8-.16.81-.2,1.66-.21,2.49-.03,2.22.01,2.24,2.12,2.91.08.02.11.18.08.12-.42,1.35-.81,2.59-1.25,3.99-.5.29-1.19.7-2.12,1.24.63.58,1.06.98,1.51,1.37.85.72,1.3,1.56,1.36,2.74.06,1.1.37,2.19.7,3.25.53,1.74.27,2.58-1.34,3.45-.5.27-.64.6-.52,1.07.13.5.2.91-.16,1.41-.71.97-.61,1.56.34,2.37.49.41.98.75.7,1.6-.62.15-1.24.29-1.46,1.2-.12.49-1.47-.12-1.69.93.83.49,1.6,1.16,2.49,1.4.96.26,2.03.1,3.24.13-.19,1.24-.28,2.29-.54,3.3-.28,1.13-1.16,1.53-2.19,1-1.26-.66-2.74-1.05-3.46-2.5-.11-.23-.56-.3-.85-.44-.34.34-.68.68-1.03,1.03.29.13.59.23.86.38.46.26,1.08.46,1.3.86.37.7.84,1.09,1.56,1.38,1.13.45,1.45,1.61.81,2.99-.49-1.5-1.87-1.25-2.9-1.65-.71-.27-1.13.16-1.16.95-.02.36.09.87-.1,1.04-.79.69-.37,1.25-.11,1.74.83-.23,1.53-.54,2.25-.6,1.3-.11,2.61-.06,4.04-.08-.15,1.14-.21,2.47-.52,3.74-.32,1.25-.9,2.44-1.42,3.82.53.15.98.38,1.45.4.75.04,1.62-.61,1.52-1.24-.18-1.08.41-1.62.95-2.04.91,0,1.74.21,2.39-.04,1.73-.66,3.53-.2,5.27-.54.39-.07.92,0,.88.66-2.22.66-2.29.76-1.62,2.3.71-.2,1.43-.4,2.28-.64.1.78.2,1.55.29,2.27.22.05.28.08.33.07,1.37-.33,2.51-1.79,4.17-.85.13.08.48-.22.72-.33.28-.13.57-.25.97-.43.36.8.76,1.48.98,2.2.19.62.32,1.31.24,1.94-.1.76-.46,1.48-.72,2.21-.6,1.62-.5,1.92,1.1,2.43.78.25,1.62.4,2.44.45.39.03.92-.17,1.19-.45.92-.94,2.31-1.27,3.08-2.44.26-.39.91-.53,1.45-.81.52.92,1.05,1.64,1.35,2.45.3.81.55,1.72.46,2.55-.09.77.02,1.41.27,2.09.18.48.68.9.37,1.6-.42-.09-.79-.23-1.16-.24-.71-.02-1.53-.17-2.11.12-.84.42-1.64.55-2.54.59-1.17.06-1.75.62-1.99,1.72.6-.17,1.16-.4,1.75-.49.6-.08,1.22-.02,1.9-.02.31.46.62.91.89,1.3.51-.29.75-.43,1.09-.62.09.48.13.81.21,1.12.7,2.73,2.07,3.09,3.97,2.08,1.2-.64,1.34-.52,2.16.86-.22,1.1-.42,2.07-.63,3.09.98.25,1.91.39,2.77.73.81.32,1.54.84,2.47,1.37-.88.56-1.28.03-1.77-.14-.77-.27-1.62-.71-2.36-.59-.9.15-1.72.8-2.71,1.3,1.55,1.35,3.26-.19,4.66.74-.17.43-.33.82-.51,1.26,1.04.62,2.47.06,3.27,1.38-.52.57-1.03,1.13-1.53,1.68.44.98,1.14.77,1.84.46.66-.3,1.29-.73,2.01-.17.26,1.25,1.04,1.94,2.35,2.11q1.26.17,1.55.84c-1.22-.07-2.56-.35-3.85-.18-1.45.19-2.45-.35-3.48-1.21-.65-.55-1.43-.94-2.36-1.54-.15-.63-.16-.6-1.43-1.03-1.15-.39-2.19-.53-2.97.65h0c.9.88,2.32,1.28,2.37,2.9,1.98-.35,2.39,1.06,2.99,2.4-.72.54-.99,1.23-.36,2.05l.03.05c1.44-.54,2.71.29,4.05.5.23.04.55.29.62.5.25.79.42,1.61.65,2.55.85.3,1.84.64,2.93,1.03.04.13.09.34.17.54.35.92.82,1.06,1.38.3.33-.45.37-1.11.62-1.64.17-.36.43-.79.76-.95.27-.13.8,0,1.05.21.54.45.31.94-.05,1.46-.53.75-1.1,1.53-.73,2.44.89-.05,1.65-.07,2.41-.14.36-.03.82-.01,1.06-.22.77-.68,1.5-.55,2.31-.15.44.22.92.4,1.41.5.96.2,2.13.73,2.87.39,1.01-.47,1.98-.49,2.82-.54.4-.76.63-1.45,1.07-1.95.8-.88.86-.83,1.52-.19-.49.42-.98.85-1.75,1.52,1.34.27,2.38.47,3.62.72-1.18.82-2.19,1.49-2.33,3.09.53-.33.84-.53,1.24-.77.14.43.27.83.4,1.22q-2.64,1.82-2.72,2.56c.93-.08,3.67-1.02,4.24-1.56.49-.46,1-.52,1.65-.58,1.21-.11,2.3-.15,3.2.83.16.17.51.18.77.26.73.25,1.52.39,2.17.77.79.46,1.46.98,2.44.44.29-.16.86-.12,1.12.07,1.06.8,2.28.74,3.49.84.49.04.99.21,1.43.43,1.05.51,1.4,1.44,1.04,2.95-1.23-.19-2.49-.34-3.73-.6-.38-.08-.8-.42-1.02-.76-.88-1.33-1.19-1.36-2.11-.07-.43-.32-.84-.85-1.3-.92-.47-.06-.99.38-1.5.52-.97.27-1.93.53-2.94.06-.44-.21-.98-.19-1.46-.31-.85-.22-1.69-.46-2.53-.7-.8-.23-1.66-.82-2.36-.66-1.07.24-2.15.24-3.18.45-.68.14-.95-.21-1.4-.35q-.74,1.67-2.4,1.43-.06-1.69-1.34-1.84c-.22.52-.45,1.05-.69,1.62-1.09-.63-1.27-1.67-1.68-2.56-.43-.93-.97-1.12-1.64-.46-.52.53-1.09.68-1.76.8-.53.09-1.02.41-1.53.62,0,0,0,0,0,0-.67,1.87-2.26,1.6-3.73,1.74-.08-1.32.38-2.13,1.55-2.7.7-.34,1.26-.56,1.5-1.53.18-.73.6-1.4.42-2.2-.03-.13-.21-.23-.53-.57-.2.45-.39.85-.65,1.41-1.52-1.65-3-1.7-4.65-.98-.47.2-1.13-.02-2.03-.07.89-1.45,1.6-2.6,2.32-3.77-.56-.72-1.26-1.15-2.06-.84-.97.37-.12,1.3-.41,2.02-.29.03-.61.12-.92.08-1.81-.25-3.51-1.12-5.4-.89-1.15-.91-2.08.12-3.1.36-.42.1-.86.44-1.24.38-.98-.16-2.1-.25-2.85-.79-1.17-.86-2.54-.71-3.77-1.18-.77-.29-1.07.09-1.15,1.29h1.95c-.68.75-1.9.59-1.9,1.76.5.32.99.77,1.57.96.77.26,1.62.25,2.4.5.95.3,1.79.34,2.72-.17.76-.41,1.67-.56,2.6-.85.28.92.76,1.13,1.72,1.17,1.87.07,3.73.53,5.59.86.18.03.33.25.74.58-.96.32-1.67.57-2.43.83.47,1.2,1.58,1.34,2.71,1.7,1.34.43,2.37.43,3.28-.7.53-.67,1.1-.55,1.75-.09-.37.64-.69,1.21-.92,1.62-1.97.2-3.78.37-5.64.56-.77-.87-1.61-1.81-2.39-2.69.05-.3.29-.82.14-1.01-.38-.46-.96-.59-1.43-.03-.25.3-.45.65-.75,1.11-.62-2.11-.79-2.21-2.06-1.43.25.23.49.45.73.67-.05.11-.09.22-.14.33-1.2-.16-2.4-.33-3.6-.5-1.69-.24-3.38-.45-4.96-1.2-.46-.22-1.1-.06-1.66-.11-.44-.04-1,.02-1.29-.23-.97-.84-2.2-1.03-3.31-1.52-.87-.38-1.67-.59-2.56-.16-.11.05-.29-.06-.5-.12.03-.49.05-.94.09-1.5-.72.35-1.26.61-1.6.77.24,1.25.44,2.36.68,3.61.65-.3,1.24-.58,1.85-.83,1.1-.46,1.54-.25,1.84.87.13.48.21.98.32,1.47-1.21-.02-2.42.03-3.62-.08-.5-.04-1.32-.31-1.41-.64-.37-1.33-1.4-2.11-2.23-3.05-1.51-1.72-1.89-1.68-2.85.52-.58-.27-1.17-.51-1.74-.81-1.17-.6-1.44-1.11-1.14-2.34.21-.89.62-1.67,1.6-1.97h0c.53-1.12.39-1.77-.57-2.12-1.32-.48-2.67-.91-3.94.19-.17.14-.37.25-.58.33-.74.28-1.26-.02-1.2-.81.03-.44.28-.94.58-1.28.89-.97,1.86-1.88,2.85-2.86-.25-.33-.45-.8-.63-.79-.61.02-1.22.2-1.9.33-.38-.34-.79-.71-1.22-1.06q-1.41-1.17-.81-2.9c-1-1.02-1.95-1.14-3.6-.48-1.01.41-1.19.74-1.13,1.94.55.32,1.01.71,1.54.86,1.49.42,1.78,1.99,2.82,2.83.18.15.18.94.01,1.04-.97.62-2.01,1.13-3.05,1.66-.09.04-.28-.12-.46-.21.23-.36.43-.68.67-1.05-1.93-.28-4.02-2.61-4.38-4.72.35-.38.7-.76,1-1.08-.77-.67-1.42-1.23-2.06-1.81-.67-.61-1.34-1.2-2.37-.87-.16.05-.37-.07-.86-.17.82-.32,1.35-.53,2.1-.82-.53-.74-.96-1.34-1.44-2,.55-1.12.66-2.25-.74-3.08.63-.31,1.37-.36.95-1.19l-.34-.34h0c-.93-1.44-2.38-2.56-2.93-4.45.79-.05,1.4-.19,1.98-.11,1.19.17,1.73-.59,2.21-1.43.47-.81.21-1.4-.67-1.67-.58-.18-1.19-.28-1.77-.47-.61-.2-1.04-.06-1.49.39-.5.5-1.09.93-1.7,1.3-1.13.68-1.78,1.78-1.56,3.05.25,1.39.05,2.89,1.14,4.07.27.29.26.84.38,1.27.26.96.62,1.92.75,2.9.13.99.31,1.93.58,2.91.58,2.09,1.52,3.9,2.76,5.61.32.43.64.94.16,1.57-.21-.03-.43-.03-.62-.11-.41-.17-.85-.46-1.19.05-.37.56.07.93.42,1.29.39.4.85.75,1.15,1.21,1.36,2.07,3.39,3.41,5.34,4.78.8.56,1.55.98,1.74,2.05,1.35-.08,2.3.54,3.08,1.47.6.72,1.37,1.1,2.3,1.23.51.07,1,.31,1.51.48-.02.1-.04.21-.06.31h-1.27c.08.4.15.67.17.94.03.31,0,.62,0,1.14.41-.27.81-.39.88-.61.32-1.1,1.29-.67,1.95-.83.39-.09,1.1.16,1.28.48.59,1.05,1.62,1.08,2.56,1.34,1.01.28,2.02.55,3.02.83-.12.59-.25,1.05-.29,1.52-.05.48-.01.96-.01,1.26.88.49,1.61.98,2.4,1.33,1.13.49.2,1.85,1.15,2.49.84-.75,1.75-.98,2.89-.65.84.25,1.17-.27.98-1.18-.13-.63-.22-1.26-.33-1.94.95-.3,1.71-.53,2.76-.86-.32.85-.54,1.43-.74,1.97.26.38.48.77.77,1.1.42.49.82,1.01,1.34,1.37.43.3,1.18.24,1.19-.36.02-1.06,1.08-1.13,1.29-1.92.12.02.24.05.37.07.07.7.15,1.4.22,2.07,1.28.35,2.32.15,2.76-1.14,1.03-.23,1.63.11,2,.96.24.56.5,1.12.82,1.64.21.35.55.62.85.94.94-.74,1.32-1.93,2.7-2.01-.11,1.26,2.05.89,1.48,2.46.53.06.93.07,1.3.15.95.21,1.81.31,1.96-1.03.02-.17.27-.34.45-.45.87-.51,1.75-1,2.7-1.55q-.93,2.08.76,3.83c.19.2.34.47.56.62.71.47,1.44.9,2.17,1.35.6-1.07-.62-1.05-.63-1.81.12-.27.31-.67.49-1.07.25-.56.65-.98,1.29-.82.69.17.9.73.89,1.42,0,.71.07,1.43.15,2.13.01.12.22.22.39.38.22-.28.42-.52.58-.73.84.17,1.68.24,2.46.51,1.1.38,1.57-.68,2.39-.91.41-.12.8-.32.99-.4.52.39.86.7,1.25.92.28.16.65.16.96.29,1.02.43,1.07,1.06.2,1.82-1,.87-2,1.75-2.96,2.67-.51.49-.37.92.43,1.55.23-.49.45-.95.67-1.41,1.82.72,2.1.61,3.41-.71.45-.46,1.11-.7,1.64-1.09.38-.28.84-.59,1.02-1,.27-.6.35-1.28.45-1.94.11-.7-.01-1.3-.74-1.7-.38-.21-.64-.63-1.13-1.14.59-.14.86-.28,1.09-.24,1.02.17,1.57.86,1.65,1.84.12,1.51,1.18,2.13,2.38,2.44.71.18,1.53-.06,2.3-.16.65-.08.91-.45.91-1.15,0-1.35.66-1.85,1.97-1.68.41.06.84,0,1.27,0,.14,1.5-.82,2.65-1.54,3.83.58,1.12,1.23,1.87,2.6,1.76.77-.06,1.57.16,1.37,1.36-.05.31.48.71.75,1.07,1.57-1.24,1.36-3.45,2.92-4.51,1.02.51,1.14.84,1.34,2.07.15.92-.52,1.12-1.01,1.49.07.45.13.86.22,1.43.53,0,1.08.05,1.62-.01.8-.09,1.36.15,1.89.79.43.52,1.08.85,1.67,1.29.98-.98,1.95-1.37,3.19-.55-.09-1.43-1.11-1.56-2.34-1.94.89-.46,1.45-.74,1.87-.96.82.41,1.45.72,2.27,1.13-1.34.22-1.04,1.11-1.12,2.05.41-.14.65-.27.91-.32,1.21-.23,2.38-.86,3.63.09.48.36,1.21.15,1.41-.67.06-.25.19-.48.25-.63.8-.05,1.46-.12,2.13-.13.62,0,1.3.02,1.51.76.26.91.95.9,1.6.76,1.03-.23,2.03-.59,3.03-.92,1.07-.36,1.73.03,1.83,1.17.02.27-.08.55-.13.82-1.17.07-2.39-.18-3.77.53.66.27,1.07.44,1.51.62-.32.53-.57.95-.93,1.56.82.47,1.57,1.24,2.32,1.25,1.42.01,2.2.55,2.55,1.96.7-.48,1.28-.65,1.88-.04.54.54,1.26.92,1.75,1.5.53.62,1,.96,1.85.69.39-.12.87.02,1.31.09,1.74.28,3.46,1,5.21.02.2-.11.56-.05.81.05.46.18.55.55.2.92-.14.15-.39.2-.58.31-1.09.61-1.24,2.57-.12,2.93,1.2.38,2.45,1.27,3.79.44.44.47.77.93,1.2,1.27,2.62,2.07,4.04,5.01,5.49,7.88,1.07,2.12,1.75,4.43,2.56,6.68.23.62.25,1.32.45,1.95.17.57.33,1.23.71,1.65.63.69.8,1.43.57,2.36,1.28.13,1.54,1.02,1.67,2.01.12.83.23,1.66.39,2.48.73,3.59.2,7.12-.51,10.62-.25,1.25-.58,1.42-1.78,1.54-.6,1.43-1.05,2.88-1.79,4.16-.95,1.64-2.1,3.16-3.23,4.68-.34.46-.87.96-1.4,1.08-1.68.36-3.39.7-5.1.78-3.39.14-6.78.06-10.18.16-2.05.06-4.09.37-6.13.42-3,.07-6,.05-8.94.73-1.08.25-2.15.59-3.24.68-2.55.21-5.11.27-7.66.42-1.45.08-2.89.27-4.33.29-.93.02-1.86-.26-2.79-.24-3.09.06-6.08-.39-8.99-1.4-.36-.12-.76-.15-1.14-.18-1.66-.13-3.32-.25-4.98-.36-.89-.05-1.78-.1-2.67-.07-1.22.04-2.44.19-3.66.25-2.44.12-4.87.07-7.33.35-1.76.2-3.19.74-4.6,1.65-.36.23-.75.41-1.21.65-.14-.78-.55-1-1.19-.97-.95.05-2-.51-2.78.56-.53.74-1.12,1.37-2.22.91-1.26-.53-2.24,0-3,1.05-.23.31-.47.68-.79.85-.52.28-1.16.68-1.66.57-.97-.21-1.84.1-2.76.16-1.5.09-2.49.86-3.23,2.07-.22.36-.45.72-.73,1.16-.33-.53-.59-.94-1-1.6-.59.97-1.35,1.19-2.31,1.12-.5-.04-1.19.24-1.51.61-.74.88-1.6.85-2.6.55-.43,1.08-.62,2.26-1.98,2.57-.22-.35-.43-.7-.75-1.21-1.36.83-2.67,1.56-3.89,2.41-.61.42-1.16.59-1.86.37-.35-.11-.73-.12-1.07-.17-.1.2-.17.29-.2.39-.73,1.95-1.22,2.33-3.07,3-.54.2-.97.89-1.28,1.44-.17.31.02.81.03,1.07-.98.72-2.14,1.27-2.86,2.17-.7.88-1.04,2.09-.86,3.32.15.97.46,1.97.33,2.91-.18,1.26.18,2.17,1.08,2.98-.14.37-.42.75-.36,1.07.07.37.48.99.67.96,1.16-.16,1.66.72,2.17,1.26.98-.14,1.8-.38,2.61-.34.62.03,1.35.25,1.79.65.68.61,1.16,1.45,1.75,2.22-1.85.33-2.11.17-2.6-1.28-.13-.39-.47-.71-.76-1.03-.07-.08-.3-.01-.55-.01-.1.41-.21.82-.32,1.27-.35-.26-.64-.48-1.09-.81-.36.67-.66,1.22-.91,1.69.81,1.17,2.03,1.82,1.96,3.39-.03.65.63,1.4,1.61,1.41.44-1,.82-1.97,1.31-2.87.14-.26.61-.47.94-.48.22,0,.64.4.64.61-.05,1.14,1.11,1.85,1,3.02-.03.26.25.63.49.83.91.79.92,1.72.53,2.74-.56-.21-1.12-.43-1.74-.67-.1.38-.19.67-.28,1.01h-1.13c.84,1.31,2.05,1.27,3.15-.01.19.21.34.48.57.61,1.29.74,2.08,1.76,2.19,3.3.04.63.56.74,1.14.62.59-.13,1.21-.37,1.78-.29,1.07.15,1.86-.14,2.46-1.01.05-.07.2-.08.31-.11.35.24.71.49,1.1.76,1.16-.97,2.41-.43,3.56-.26.42-.38.41-1.16,1.08-1.06-.09.71-.2,1.35-.25,1.99-.11,1.35-.1,1.35,1.48,1.53.11-.58.23-1.17.34-1.74.63.03,1.2.06,1.79.09.23.39.47.79.88,1.5.2-.73.32-1.14.43-1.56h2.92c1.35,1.21,3.34,1.41,5.05.33.42-.27.76-.7,1.32-.33,0,0,0,0,0,0,.21-.06.58-.09.6-.2.19-.76.72-.81,1.35-.76.6.04,1.48-.23,1.75.08.68.76,1.54.59,2.41.74-.17.6-.31,1.09-.5,1.75,2.06-.54,1.71-2.16,1.96-3.44.61-.07,1.21-.13,1.94-.21.28.97,1.31,1.59.89,2.85,1.22.14,2.27.13,3.28-.51.38-.24.93-.21,1.4-.3.53.04,1.06.09,1.68.14.11.4.23.84.35,1.28.12.01.24.02.36.03.13-.43.4-.87.35-1.27-.1-.77-.17-1.44.63-1.88.13-.07.3-.3.27-.37-.47-1.02.53-1.23.98-1.62.69-.59,1.45-.2,2.17.17.92.47,1.87.85,2.97,1.34.22-.59.54-1.06.5-1.49-.03-.43-.43-.83-.65-1.22.64-.26,1.27-.52,2.11-.85-.32,1.39.04,2.7,1.04,2.99.86.25.7.93.85,1.06.78,0,1.21,0,1.65,0,.64,0,1.41.22,1.88-.06.75-.45,1.49-.41,2.24-.37,1.66.08,3.34.47,4.89-.49.05-.03.19.07.29.11-.01.23-.02.45-.05.97,1.41-.88,2.43-1.75,2.69-3.13.19-.99.77-1.38,1.62-1.72.06.61.11,1.14.15,1.62.49.17.88.3,1.42.48-.36.74-.66,1.35-.98,2,.82.3,1.52.55,2.54.92-.39-.71-.63-1.14-1.03-1.86,1.47.46,2.73.81,3.96,1.25,1.62.58,2.06.5,2.97-.71.09.37.19.73.26,1.05-.45.55-1.43.29-1.55,1.37,1.29,0,2.52.04,3.74-.02.64-.03,1.27-.25,1.91-.39,0,0,0,0,0,0-.56-.35-1.13-.69-1.67-1.06-.68-.47-.66-.7,0-1.49.61.57,1.22,1.15,2.06,1.94v-2.13c.37.38.49.8.63,1.21.19.55.61.91,1.15.7,1.06-.42,1.91-.13,2.81.45.7.46,1.42.42,2.04-.37-.38-.15-.63-.25-.87-.35,1.68.09,3.65-.6,4.38,1.84,1.16-.42,2.34-.62,3.24-1.24.59-.4,1.08-.56,1.7-.52.54.03,1.1.07,1.63.19.99.22,1.88.13,2.64-.61.43-.42.84-.89,1.33-1.22.29-.2.73-.18,1.42-.33-.37.64-.53.94-.7,1.23q1.65.97,3.55-1.29c2.15.49,4.54.32,6.78,2.16.22-.39.38-.76.62-1.06.75-.94,1.61-1.42,2.91-.98,1.23.42,2.54.6,3.94.91-.1-.52-.2-.98-.31-1.54.86-.16,1.62-.27,2.38-.44,1.73-.38,3.29.41,4.93.67.3.2.58.44.91.56.12.04.34-.19.52-.3-.14-.2-.28-.4-.42-.61.78-.86,1.68-.4,2.53-.11.39-1.74.64-1.9,2.27-1.86.58.01,1.19-.12,1.72-.34.53-.22.91-.23,1.39.1.79.54,1.64.77,2.62.37,1.01-.41,2.07-.69,3.16-1.04.01.05.02.22.11.34.17.24.38.45.57.68.17-.24.42-.47.5-.74.1-.35.06-.74.08-1.16h3.68c.2.31.36.56.75,1.17.22-1.08.35-1.75.53-2.62.55.26,1,.51,1.48.68.39.14.83.27,1.23.24.6-.06,1.18-.31,1.77-.4.65-.1,1.06-.42,1.05-1.07-.02-1.12.67-1.79,1.49-2.62.21.53.32.95.54,1.31.21.34.62.93.76.88.47-.17.92-.51,1.27-.89.21-.23.21-.66.36-1.19,1.5,1.74,3.06,1.3,4.69.66,1.7-.67,3.46-1.22,5.19-1.82.36-.13.77-.19,1.07-.41.83-.6,1.74-.65,2.71-.59.69.04,1.39-.06,1.77-.08.23-.95.26-1.67.58-2.22.5-.86,1.22-1.59,1.82-2.39.31-.42.55-.88.94-1.5.44.08,1.07.27,1.72.31.58.03,1.27.08,1.72-.19,1.06-.63,1.53-2.06,2.95-2.26.03,0,.07-.09.08-.14.28-1.48,2.43-1.86,2.17-3.69-.02-.17.4-.37.54-.61,1.23-2.11,3.59-3.37,4.4-5.81.07-.22.37-.49.6-.53.67-.1.76-.6.86-1.08.26-1.28.36-2.61,1.26-3.66.03-.04.04-.11.04-.16.09-1.39,1.01-2.02,2.2-2.43.24-.08.45-.25.74-.41-.44-.39-.78-.68-1.31-1.15,1.6-1.15,2.11-2.76,2.57-4.46.27-1.01.81-1.93.63-3.04-.04-.28.25-.6.35-.91.33-1,.66-1.99.97-3,.26-.84.42-1.71.72-2.52.69-1.86,1.04-3.71.15-5.59.67-1.18,1.03-3.04,1.1-4.47.07-1.44.19-2.89.53-4.28.18-.74.19-1.29-.26-1.85-.6-.76-.61-1.6-.54-2.53.09-1.15,0-2.32-.08-3.47-.05-.71-.25-1.41-.36-2.12-.18-1.19-.11-2.49-.56-3.57-1.02-2.42-1.93-4.83-2.13-7.47-.14-1.75-.71-2.45-2.39-2.96-.73-.22-1.49-.4-1.78-1.44.92.29,1.71.54,2.82.89-.29-1.95-.26-3.54-1.55-4.9-.75-.78-1.08-1.94-2.07-2.6-.19-.12-.25-.66-.18-.95.32-1.23-.35-1.99-1.03-2.62-.74-.25-1.33.73-2.03-.1.94-.62,1.82-1.2,2.74-1.81q-1.08-1.11-2.47-.76c-1.14.29-1.86-.08-2.37-1.24.4.09.8.28,1.15.22.38-.07.87-.29,1.05-.6.7-1.2.17-2.89-1.1-3.65.58-.78.24-1.25-.58-1.46-.86-.22-1.73-.38-2.59-.57,1.09-.37,1.29-.64.86-1.43-.25-.45-.68-.9-1.14-1.13-.64-.32-1.13-.57-1.19-1.42-.02-.32-.52-.86-.82-.87-1.18-.04-1.83-.92-2.92-1.5.56-.23.93-.37,1.23-.49.13-2.27-.88-3.97-2.19-5.63-.32.11-.66.23-.8.27-.68-.46-1.2-1.11-1.73-1.12-1.07-.02-2.15.31-3.22.49-.75.13-1.52.41-2.24.33-1.09-.13-2.16-.51-3.23-.81-.17-.05-.28-.29-.41-.44.48-.57,1.04-1.01,1.3-1.59.38-.83.89-1,1.73-.84.77.15,1.57.14,2.36.2.05-.14.1-.29.16-.43-1.08-.74-2.17-1.48-3.26-2.23-1.27.58-2.63,1.16-3.95,1.81-1.26.62-1.25.65-2.47-.43.16-.27.32-.54.48-.82.9.67,1.02.61,1.42-.81-.54.31-.98.56-1.42.81-.91-2.18-.91-2.19-3.04-2.12-.65.02-1.02-.23-1.29-.82-.33-.69-.79-1.32-1.15-1.99-.23-.43-.37-.91-.61-1.34-.41-.73.63-.74.67-1.3-1.49-.87-2.95-.41-4.58-.07-.33-.76-.97-1.04-1.85-.91-.2.03-.48-.46-.72-.71.24-.18.46-.47.72-.52.52-.11,1.06-.08,1.92-.13-.35-.57-.47-.95-.73-1.13-.52-.38-1.12-.67-1.68-.99-.06.03-.12.06-.18.09.02-.05.04-.09.06-.14-1.15-.29-2.29-.61-3.46-.85-.52-.11-1.1-.14-1.61-.01-1.09.27-2.14.67-3.53,1.12.58-1.2.15-1.6-.67-1.92-.58-.22-1.06-.7-1.39-.93-.83-.08-1.47-.14-2.11-.2-.38-.03-.78-.13-1.14-.05-1.61.35-3.05-.44-4.57-.67-.23-.03-.5-.29-.6-.52-.32-.74-.99-.82-1.63-.99-.05.03-.09.06-.14.09-1.19.72-2.96.41-3.64,2.04-.03.07-.2.11-.3.11-2,.04-4.05.36-5.91-1.07,1.01-.56,1.98-1.09,2.94-1.62-.03-.48-.05-.9-.09-1.49,1-.17,1.94-.33,2.9-.49-.71-1.33-1.88-1.92-3.34-1.77-1.57.16-1.76.42-1.52,2,.03.21,0,.42,0,.6-1.61.64-2.47.45-2.38-.61.15-1.68-1.18-2.13-2.01-3-.34-.35-2.61-.83-3.15-.77.71,1.08,2.79.96,2.54,2.92-.18.04-.35.13-.49.1-1.34-.28-2.59-.26-3.79.61-.44.32-1.2.39-1.76.29-.99-.17-1.84-.05-2.56.6-1.96-1.71-1.63-1.22-2.78.04-.32-.28-.76-.5-.95-.86-.19-.35-.26-.88-.12-1.23.09-.24.64-.43.98-.41.71.04,1.45.12,2.1.38,1.24.49,3.25.22,4.45-.78-.56-.88-1.51-.83-2.35-.97-.84-.14-1.71-.18-2.81-.29.27-.64.53-1.22.78-1.81-.97-.73-2.6-.93-3.36-.31-.3.24-.42.71-.63,1.08.33.11.67.34.99.32.58-.05.82.14.84.8-1.78-.25-3.51-.49-5.24-.76-.21-.03-.46-.15-.58-.31-.91-1.18-2.17-1.22-3.48-1.15-1.1.06-2.03-.1-2.77-1.14-.61-.86-2.05-.72-3.14.14.34.49.67.99,1.01,1.48-1.05-.29-1.84-.11-2.63.48-.67.49-1.41.86-2.33.52-.45-.17-.88.04-.89.72.59.67,1.47.64,2.26.81.54.11,1.13.1,1.63.31,1.17.49,2.17.53,2.81-.68.62.09,1.15.32,1.59.21,1.52-.39,2.61.45,3.64,1.26.71.56,1.31.98,2.27,1.15,1.03.18,1.97.94,2.94,1.45-.48.09-1.18,0-1.4.29-.94,1.23-2.33,1.35-3.63,1.72-.21-.99-.86-1.26-1.75-.98-1.34.43-2.66.44-4.07.35-1.42-.1-2.35-.74-2.99-1.8-.37-.62-.37-1.46-.6-2.46-.84-.09-1.81-.29-2.78-.29-1.34,0-2.35-.63-3.23-1.51-.23-.23-.43-.75-.33-1.02.1-.27.59-.54.92-.55.6-.02,1.2.21,1.8.23.27,0,.63-.19.78-.41.1-.14-.02-.62-.19-.73-1.06-.7-1.97-1.93-3.6-.93.06-1.65.24-2.98,1.92-3.51.35-.11.69-.38.94-.66.37-.4.19-.95-.35-1-.99-.09-2.01-.16-2.99-.06-.94.1-1.5.84-1.57,1.89-.05.72.01,1.45.08,2.17.05.58-.17.87-.66,1.19-1.41.91-2.81.6-4.38.18.1-.74.42-1.5.24-2.1-.21-.67-.87-1.2-1.32-1.77.83-.87,1.17.6,1.83.19.24-1.35.27-1.38,1.53-1.24.58.06,1.15.12,1.77.18.04-.9-.46-1.05-.95-1.15-2.01-.41-4.02-.83-6.05-1.14-.46-.07-.99.32-1.49.5-.15-.5-.39-.93-.99-.87-.5.05-.81.3-.69.86h-1.43c-.09-2.09-.34-2.25-2.32-1.62q-.59,2.3-2.71,2.56c-.49-1.59,1.36-1.29,1.77-2.11-.23-1.03-.97-1.14-1.8-1.2-.77-.06-1.66.01-2.26-.36-.96-.58-1.87-.6-2.9-.44-.06.31-.12.61-.18.95-1.37-.12-2.68-.44-3.97.31-.38.23-1.08.02-1.6-.11-1.3-.31-2.6-.65-3.87-1.06-.5-.16-1.05-.43-1.39-.81-.83-.95-1.69-1.5-3.05-1.24-1.15.22-2.17-.39-2.57-1.46-.57-1.51-1.73-1.88-3.09-2.15-.69-.14-1.35-.46-2.01-.71-.41-.16-.79-.4-1.21-.51-1.34-.35-1.56-.62-1.15-1.93.23-.73.01-1.18-.57-1.55-.66-.42-1.36-.78-1.96-1.27-.46-.37-.93-.85-1.14-1.38-.29-.74-.64-1.23-1.47-1.41-.72-.15-1.18-.62-1.1-1.44.12-1.29-.56-2.22-1.36-3.12-.78-.88-1.55-1.75-2.29-2.66-.23-.29-.51-.72-.44-1.03.21-1.02-.12-1.84-.61-2.69-.21-.36-.24-.84-.29-1.28-.09-.72-.18-1.44-.17-2.16.01-1.47-.93-2.87-.32-4.4.1-.26-.14-.64-.18-.97-.04-.33-.14-.69-.04-.98.6-1.67.65-3.36.5-5.1-.04-.48.15-.98.26-1.46.21-.91.47-1.81.67-2.72.44-1.99.52-4.04,1.37-5.98.57-1.29.88-2.79.91-4.2.02-1.14-.21-2.17.9-2.96.27-.19.36-.68.48-1.05.82-2.53,1.61-5.07,2.43-7.59.15-.47.31-.99.62-1.36.6-.73.72-1.58.93-2.45.5-2.05,1.09-4.09,1.79-6.09.49-1.41,1.23-2.73,1.86-4.09.21-.45.43-.91.65-1.35,1.16-2.28,2.35-4.55,3.47-6.86,1.1-2.29,2.09-4.63,3.2-6.92.46-.95,1.15-1.77,1.68-2.69,1.26-2.22,2.5-4.46,3.71-6.71.55-1.03,1-2.11,1.51-3.16.17-.34.37-.68.6-.99.91-1.25,2-2.4,2.69-3.75.62-1.2,1.31-2.3,2.15-3.32.21-.26.51-.5.6-.8.52-1.89,1.75-3.3,3.01-4.71.47-.52.55-1.5,1.08-1.84,1.1-.7,1.65-1.76,2.41-2.71,1.54-1.93,2.81-4.06,4.71-5.73,1.99-1.76,3.69-3.85,5.53-5.79.34-.36.77-.65,1.11-1.02.66-.73,1.46-1.41,1.89-2.27.69-1.37,1.88-2.25,3.01-2.99,1.46-.95,2.9-1.89,4.06-3.16,1.65-1.82,4-2.79,5.54-4.74.22-.28.7-.34,1.03-.54,1.24-.74,2.43-1.55,3.7-2.23.6-.32,1.34-.53,2.02-.55.7-.02,1.28-.06,1.86-.5.43-.32,1.01-.47,1.54-.63,1.27-.38,2.56-.72,3.84-1.07,1.12-.3,2.23-.72,3.38-.86,1.82-.22,3.63-.43,5.32-1.21.5-.23.99-.54,1.52-.66,1.73-.4,3.46-.77,5.2-1.07,1.36-.23,2.75-.48,4.12-.46,1.34.03,2.64.27,3.9-.45.36-.2.87-.19,1.31-.17,2.67.07,5.15-.79,7.7-1.39,1.29-.3,2.6-.59,3.92-.65.55-.03,1.05.05,1.58-.22.32-.16.74-.16,1.11-.18,1.37-.07,2.7-.24,4.01-.73,1.33-.5,2.79.1,4.18-.2.04,0,.1.05.14.09.99,1.3,2.54,1.79,3.87,2.58,1.72,1.01,3.46,2.04,5.31,2.75,2.04.79,4.26.81,6.44.53,1.49-.19,2.8-.2,4.33.43,4.16,1.69,8.06.47,11.62-1.94,1.61-1.09,3.07-2.4,4.63-3.56.93-.69,1.9-1.36,2.92-1.9.96-.51,2.01-.87,3.04-1.24,3.2-1.12,5.85-3.22,8.69-4.96,1.07-.66,2.05-1.54,2.89-2.49,1.51-1.71,2.92-3.5,4.29-5.33,1.17-1.56,2.3-3.15,3.28-4.83,1.04-1.8,2.83-3.33,2.37-5.78-.05-.29.24-.62.29-.95.2-1.37.37-2.74.55-4.11.05-.38.13-.76.19-1.14.19-1.09.43-2.18.56-3.28.24-2.16.55-4.33.58-6.5.02-1.89.27-3.93-1.39-5.46ZM24.2,178.58c-.09-.04-.17-.08-.26-.11.06-.07.13-.22.17-.21.11.01.21.1.32.16-.08.06-.16.11-.23.17ZM47.9,94.87c-.06-.34-.11-.67-.19-1.15.96.44.4.8.19,1.15ZM47.98,193.04c-.87.36-1.06-.45-1.32-1.23.33-.18.5-.32.7-.38.26-.07.53-.08.83-.11.46.7.52,1.42-.21,1.73ZM64.59,254.1c.48-.78,1.16-.65,1.96-.56q-1.15.98-1.96.56ZM7.61,224c-.07-.01-.15-.03-.22-.04l.11-.68c.08.02.16.03.24.05-.04.23-.08.45-.13.68ZM42.78,254.85c-.4.07-.83-.06-1.25-.1.3-.23.57-.52.91-.68.19-.09.48.03.72.06-.13.25-.22.7-.39.73ZM86.55,268.71c-.05-.41-.11-.8-.16-1.19.12-.02.24-.05.36-.07.06.38.13.77.18,1.15,0,.01-.17.05-.38.1ZM105.18,276.45c-.12-.08-.21-.19-.32-.3.07-.07.14-.14.25-.24.1.12.2.24.28.37,0,.01-.18.18-.21.17ZM28.37,373.24c-.78-.78-.7-1.43-.06-2.24.61.79.6,1.43.06,2.24ZM36.66,354.28l.43.7c-.1.05-.21.11-.31.16-.11-.25-.22-.5-.34-.75.07-.04.14-.08.21-.11ZM33.94,355.65c.01-.26.28-.5.6-1.04.37.64.67,1.02.78,1.44.04.16-.35.63-.54.63-.6,0-.86-.49-.84-1.03ZM35.55,379.79c-.43.11-.85.21-1.28.32-.02-.25-.15-.59-.04-.73.46-.57.92-.31,1.4.11-.05.2-.06.3-.08.3ZM38.57,382.69c-.23.42-.44.8-.66,1.2-1.14-.83-1.26-1.01-1.9-2.93.57.6.91.95,1.31,1.37,1.36-.16,2.89-.48,3.29,1.62.88-.41,1.09-2.12,2.52-1.02-1.91,2.07-2.56,2.04-4.56-.24ZM51.81,386.05c0-.09-.02-.18-.02-.27.37-.19.83-.3,1.08-.59.35-.42.72-.87,1.21-.52.31.22.34.83.58,1.52-1.15-.05-2-.09-2.85-.14ZM76.71,390.83c-.21-.68-.42-1.37-.63-2.05-.09.01-.18.03-.27.04.1-.31.17-.64.31-.93.09-.18.27-.32.41-.49,1.65.47.8,1.85,1.18,2.81-.36.23-.69.43-1.01.62ZM85.36,387.2c-.32-.17-.64-.33-.96-.5.06-.12.12-.24.19-.36.32.18.63.35.95.53-.06.11-.11.22-.17.33ZM94.76,387.69s-.11-.13-.17-.2c.12-.07.23-.15.36-.19.03,0,.11.13.2.24-.14.05-.26.13-.39.14ZM94.59,386.48c-.62-.31-.6-.95-.37-1.88.71.42,1.18.71,1.67.99-.31.75-.69,1.19-1.3.88ZM114.57,388.15c.55-.29.9-.07,1.08.56-.36-.19-.72-.38-1.08-.56ZM223.31,273.49c.16.23.32.47.48.7-.24-.14-.48-.29-.72-.43.08-.09.16-.18.24-.27ZM217.47,263.15c.18.02.38.47.47.76.19.63.32,1.29.5,2.08-.82.96-.92.9-1.76-.13-.75-.92-1.69-1.68-2.62-2.58,1.06-.72,2.26-.24,3.41-.14ZM185.42,244.31c.24.13.48.26.72.39l-.12.23c-.24-.13-.48-.26-.72-.39.04-.08.08-.15.12-.23ZM168.47,241.86q-1.14.78-1.89-.28.96-.67,1.89.28ZM157.52,332.54s-.05-.02-.07-.03c.04-.03.08-.06.13-.08-.02.04-.04.08-.06.11ZM157.95,330.91c.11.05.23.1.34.15-.2.38-.39.76-.59,1.15-.09-.36.08-.83.25-1.29ZM157.35,332.58c-.13.66-.45,1.24-.9,2.03-.01-1.28-.01-1.43.9-2.03ZM141.14,239.14c-.17-.46-.3-.8-.43-1.15.42.07.85.14,1.49.25-.42.35-.7.59-1.06.89ZM135.68,240.01c-.13.27-.26.55-.38.82-.1-.07-.2-.15-.29-.22.23-.2.45-.4.68-.6ZM133.73,282.79c-1.35,1.22-1.52,1.25-2.75.39.81-.11,1.63-.23,2.75-.39ZM127.69,278.4c.01.11.02.22.04.33-1.27-.17-1.65,2.05-3.4,1.05.48-.58.89-1.07,1.3-1.56.69.06,1.38.12,2.07.18ZM124.45,239.53c.04.07.08.15.13.22l-.74.42c-.04-.07-.08-.14-.12-.22l.74-.42ZM122.19,273.6c-.09.18-.12.32-.18.33-.7.13-.7.12-1.17-.52.52.07.92.13,1.35.19ZM109.1,260.39c.76-.06,1.56,0,2.28-.2.77-.22,1.47-.28,2.27-.17,1.15.16,2.14.57,3.02,1.27.64.51,1.26.83,2.13.66.96-.19,1.39.37,1.62,1.71-1.87-.54-3.4-.96-4.91-1.45-.5-.16-.95-.5-1.39-.81-.78-.56-1.64-.44-2.4.44-.87-.4-1.76-.82-2.66-1.23.01-.07.03-.14.04-.22ZM108.59,249.61c-.12.16-.23.32-.68.92-.15-.42-.28-.66-.29-.91,0-.17.17-.34.27-.51.23.17.47.33.7.5ZM108.2,223.58q-.77,1.01-1.67,0c.56,0,1.11,0,1.67,0ZM102.3,253.73c-.09,1-.73,1.01-1.33.99-.58-.01-1.22-.03-1.26-.99h2.59ZM97.4,222.13l.07.25c-.22.06-.45.11-.67.17-.02-.08-.04-.15-.06-.23.22-.06.44-.13.66-.2ZM69.34,246.85c-.25-.92-.02-1.76-.7-2.39-.22-.2.16-1.04.26-1.59.16.03.32.05.49.08.49,1.21,1.27,2.4-.05,3.9ZM62.77,224.12c-1.19.26-2.17.12-2.95-.9,1.63-.48,1.89-.4,2.95.9ZM57.03,217.12q1.16-.17,1.64,1.25c-.93-.14-1.5-.41-1.64-1.25Z"/>
  <polygon class="cls-1" points="61.64 390.83 61.63 390.83 61.64 390.83 61.64 390.83"/>
  <path class="cls-1" d="M22.74,219.04c-.46.28-.75.87-1.22,1.09-.5.24-1.09.11-1.48.76-.63,1.06-1.72,1.19-2.89,1.12.5-1.62-.09-2.7-1.51-2.91-.24-.04-.61.05-.73.22-.17.24-.3.8-.2.88,1.05.78.51,1.49.04,2.3-.53.92-.26,1.45.75,1.73.55.16,1.11.32,1.63.47-.09,1.83-1.88,1.39-2.55,2.3,0,.18-.04.36,0,.51.5,1.84.87,1.98,2.48.94.18-.12.4-.17.56-.24.48.31.86.67,1.32.81.38.12,1.04.18,1.24-.04.72-.8,1.62-1.01,2.91-1.02-1.38-1.27-2.62-1.88-4.4-1.21.08-.75.09-1.29.19-1.81.24-1.27.62-1.55,1.96-1.61.69-.03,1.13-.37,1.29-1.06.35-1.46.64-1.62,2.01-1.1.26.1.51.2.72.28.66-.33,1.26-.61,1.83-.95.2-.12.32-.39.46-.61.16-.24.29-.49.44-.74.25.28.5.56.75.83.26-.04.55-.07.91-.12-.38,1.25-.07,2.48-.95,3.46-.33.36-.14.98.49,1.19.3.1.61.2.84.28.42.97-.31,2.51,1.66,2.56.07-.55.15-1.03.19-1.5.12-1.71.17-1.76,1.86-1.8,1.23-.03,1.56-.51.93-1.52-.84-1.34-1.19-2.73-.85-4.33.37-.14.76-.28,1.46-.53-.87-.56-1.4-.91-2.14-.3-.38.31-.83.54-1.26.8.41-.79,1.39-1.12.93-2.29-.4.08-.8.16-1.28.26-.24-.58-.44-1.08-.65-1.59h-.01c-.36.09-.71.2-1.16.33.16.57.29,1.03.42,1.47-.53.42-.98.84-1.49,1.17-.8.52-1.18.29-1.38-.73-.03-.13-.15-.24-.23-.36-1.41.83-1.43,1.11-.16,2-.77.67-1.61.91-2.63.57-.34-.11-.83-.12-1.11.05Z"/>
  <path class="cls-1" d="M32.62,215.03c.18-.25.31-.34.31-.42-.14-1.76.28-3.37,1.17-4.9.37-.64.12-1.32-.36-1.85-.29-.32-.65-.57-.7-.61-.16-.94-.22-1.56-.42-2.13-.03-.08-.74.07-1.16.12.12.61.2,1.01.28,1.42-.7.32-1.3.58-1.98.89-.25-.52-.43-.99-.68-1.4-.78-1.27-2.91-1.58-4.05-.69-.59.46-1.3.75-2.08,1.19v4.65c1.97.12,3.75.23,5.62.34.35-1.03-.02-2.21.94-2.99.93-.76,1.51-.87,2.87-.19.43,2.23-1.36,3.29-2.76,4.75.44.08.64.12.84.16.2.04.4.07.73.13-.3.42-.52.73-.73,1.04,0,0,.01.01.01.01.74.17,1.48.34,2.14.49ZM27,208.61c-.21-.25-.38-.43-.5-.64-.02-.03.27-.31.3-.29.2.13.38.29.53.48.02.03-.16.23-.33.45Z"/>
  <polygon class="cls-1" points="12.38 200.79 12.38 200.79 12.38 200.79 12.38 200.79 12.38 200.79"/>
  <path class="cls-1" d="M9.33,200.82c-.34-.73-.53-1.52-.77-2.28,1.85-.91,2.22-1.71,1.48-3.12h0c-1.41-.26-1.4-.26-2.01,1.04-.14.29-.46.5-.57.8-.12.32-.25.83-.09,1.04.63.81.17,1.31-.34,1.93-.29-.09-.55-.18-.81-.26-.47-.16-.91-.15-1.12.38-.27.66.26.92.7,1.13.38.18.82.19,1.53.34-.48.65-.84,1.13-1.24,1.67.34.31.75.6,1.07.96,1.09,1.24,1.54,1.34,2.93.49.95-.58,1.88-1.19,2.78-1.84.5-.36.94-.54,1.53-.24.19.1.46.01.82.01-.35-.97-.98-1.28-1.73-1.33-.56-.04-.99-.16-1.1-.77-.7.11-1.39.27-2.09.32-.33.02-.86-.08-.96-.29Z"/>
  <path class="cls-1" d="M20.12,159.04c-.3,0-.57-.08-.71.01-.99.66-1.79,1.45-1.87,2.75-.03.48-.03,1.04-.27,1.41-.62.95-.82,1.91-.3,3.05-1.44.39-1.17,1.67-1.55,2.61-.4.98-1.41,1.82-.75,3.19.42.03.89.07,1.55.13-.44-1.32,1.35-2.25.04-3.56.47-.35.74-.54,1-.74.88-.66,1.75-1.19,1.72-2.6-.01-.76.69-1.55.43-2.49-.04-.16.14-.43.28-.58.88-.95.61-2.02.42-3.18Z"/>
  <path class="cls-1" d="M15.97,184.21c-.94-.24-1.89-.48-2.8-.71-.76-1.68-.77-1.68-2.29-1.43.27,1.13.51,2.14.77,3.22-1.32.31-1.56,1.25-1.59,2.32-.01.5-.06,1.01,0,1.5.12,1.01.23,1.99-.99,2.6,1.3.51,2.37.28,3.36-.39-.2-1.19-.35-2.28-.56-3.35-.14-.73.16-1.22.77-1.49.49-.22,1.04-.36,1.58-.43,1.37-.18,1.38-.16,1.76-1.85Z"/>
  <path class="cls-1" d="M55.69,234.22c.04-.46-.04-.97-.22-1.39-.32-.74-.75-1.44-1.19-2.27-.45-.19-1.03-.45-1.6-.69-.93,1.06-1.78,2.04-2.64,3.03.35.27.6.47.81.63-.68.32-1.33.62-1.97.91l.08.4c.66.12,1.3.46,2.02.06.61-.33,1.21-.69,1.95-1.11-.15,1.18-.27,2.22-.4,3.27,1.32.39,1.88-.81,2.74-1.42h0c.15-.48.38-.95.42-1.43Z"/>
  <path class="cls-1" d="M40.38,243.27c-.18.85-.35,1.64-.52,2.43-1.15.81-1.16,1.47.01,2.8.41-.33.82-.66,1.11-.9.92.27,1.69.49,2.52.73.09-.51.14-.82.19-1.12.59-.24,1.19-.41,1.71-.71.34-.2.82-.64.78-.88-.08-.4-.47-.91-.85-1.05-.6-.21-1.3-.15-1.97-.21-.64-1.82-1.11-1.99-2.98-1.09ZM39.97,246.43c-.04-.24-.08-.48-.12-.72.14.2.28.4.42.6l-.31.13ZM42.04,246.33l-.91-.64.18-.3c.32.18.63.36.95.55-.07.13-.15.26-.22.39Z"/>
  <path class="cls-1" d="M12.71,208.97c-.53-.34-.94-.6-1.3-.83-1.1,1.01-1.32,2.6-2.55,3.63-.25-.63-.31-1.14-.6-1.38-.26-.23-.98-.37-1.12-.21-.43.48-.79,1.1-.94,1.72-.09.36.28.82.45,1.25-1.01.77-1.07.95-.21,1.69.61.53,1.35.92,2.07,1.4.99-1.21-.05-2.21-.12-3.47,2.32-.3,3.42-1.86,4.32-3.8Z"/>
  <path class="cls-1" d="M18.16,202.23c-.3.77-.79,1.21-1.63,1.4-.48.11-.89.77-1.2,1.27-.37.6-.61,1.28-.93,1.98h1.75c-.18.15-.24.25-.33.27-.59.15-1.13.42-.94,1.12.2.7.89.87,1.5.73.44-.1,1.01-.43,1.16-.8.58-1.44,1.06-2.92,1.47-4.41.16-.6.19-1.35-.85-1.56Z"/>
  <path class="cls-1" d="M33.41,231.19c-.85-.29-1.51-.52-2.19-.74-1.86-.61-2.19-.43-2.66,1.48-.48,0-1-.1-1.46.02-.75.2-1.02,1.19-.41,1.53.5.28,1.21.55,1.71.41.79-.21,1.84.36,2.4-.68.06-.11.26-.14.34-.19.45.3.85.56,1.47.97.29-1.02.52-1.84.8-2.8Z"/>
  <path class="cls-1" d="M1.96,215.25c-.41-.75-.45-1.36-.13-2.17.29-.72.33-1.59.3-2.39-.03-.63-.35-1.25-.58-2-1.36-.06-1.57.04-1.54,1.23.05,1.99.18,3.98.4,5.96.1.85.51,1.67,1.48,2.15.87-.95.55-1.92.08-2.78Z"/>
  <path class="cls-1" d="M39.43,211.51c-1.04.85-1.92,1.57-2.94,2.4.1.18.36.53.5.92.16.47.16,1,.35,1.45.19.45.5.87.83,1.22.15.16.52.22.75.16.66-.18,1.83-1.96,1.65-2.63-.29-1.14-.72-2.24-1.15-3.52Z"/>
  <path class="cls-1" d="M16.85,215.26c.23-.62.51-1.23.79-1.83.29-.62.62-1.24,1.07-2.14-.92.22-1.57.56-2.14.46-.63-.11-1.18-.63-1.89-1.04-.39.35-.93.69-1.26,1.17-.21.3-.28.87-.15,1.22.1.26.6.41.95.53.18.06.42-.12.64-.12.86-.02,1.2.36,1.09,1.23-.04.31-.15.61-.22.89.61.33.91.18,1.11-.36Z"/>
  <path class="cls-1" d="M15.16,198.17c-.17.55-.29.95-.4,1.3-.61,0-1.1-.03-1.59,0-.89.06-.92.13-.78,1.32.93.04,1.8.13,2.72.47.65.25,1.73-.16,2.41-.59.8-.5.43-1.35.07-2.14-.82-.12-1.61-.24-2.43-.36Z"/>
  <path class="cls-1" d="M51.3,227.98c-.31-.83-.56-1.49-.8-2.15-.38-1.04-1.36-1.41-2.25-.76-.76.55-1.3,1.3-1.33,2.14.89.38,1.63.67,2.35,1.02.75.36,1.44.56,2.03-.25Z"/>
  <path class="cls-1" d="M28.8,120.69c0,1.2-.44,2.12-1.67,2.69v-1.68c-.78.51-1.55,1.02-2.3,1.51.36,1.34,1.83,1.33,2.5,2.25.07.1.96-.13,1.05-.36.46-1.16.79-2.38,1.15-3.58.19-.62-.23-.77-.72-.83h0Z"/>
  <path class="cls-1" d="M168.04,236.69c-1.27-.47-2,.18-2.72,1.01-.4.46-.54.98-.13,1.5.42.53.91.3,1.33.02.86-.59,1.73-.68,2.42-.3.43-.7.83-1.34,1.28-2.08-.8-.04-1.56.08-2.18-.15Z"/>
  <path class="cls-1" d="M3.95,227.54c.13-.04.22-.48.18-.72-.13-.87-.31-1.73-.48-2.58-.12-.6-.17-1.23-.42-1.77-.15-.32-.63-.7-.94-.68-.27.02-.51.55-.6.66.3,1.61.52,2.91.81,4.2.07.29.31.61.57.78.23.15.61.19.87.11Z"/>
  <path class="cls-1" d="M44.65,216.12c-.93-.76-.95-.76-2.08.13.15.94.29,1.81.47,2.88,1.26.36,1.82.18,2.36-.83.5-.93.38-1.26-.75-2.19Z"/>
  <path class="cls-1" d="M24.62,128.31c.28-.25.56-.49.82-.72.51.18.93.33,1.35.47-.09-.87-.17-1.74-.26-2.55-2.31-.27-2.96.04-3.45,1.64-.09.3,0,.81.2,1.01.34.33.83.6,1.33.15Z"/>
  <path class="cls-1" d="M35.17,208.04c.37.23.67.56,1.02.61,1.15.18,1.75.81,1.71,2.1.11-.02.23-.03.34-.05.57-1.14,1.14-2.28,1.73-3.47-1.08,0-2.24.34-2.99-.08-1.11-.61-1.18.09-1.81.89Z"/>
  <path class="cls-1" d="M83.99,218.48c.21.92.59,1.28,1.32,1.31,1.67.07,3.33.2,5,.24.25,0,.51-.32.85-.57-2.38-1.34-4.7-1.02-7.18-.99Z"/>
  <path class="cls-1" d="M56.03,80.79c-.09-.47-.18-.93-.29-1.51.99-.34,1.87-.6,2.71-.95.65-.27.85-.8.62-1.56-.89-.23-1.63-.29-2.33.6-.41.52-1.21.74-1.81,1.13-.29.19-.53.46-.84.72.64.65,1.17,1.19,1.7,1.73.08-.05.15-.1.23-.16Z"/>
  <path class="cls-1" d="M17.84,152.08c-.42.87-.75,1.78-1.12,2.67,1.89.77,3.43-.75,3.14-3.12-1.29-.13-1.77-.06-2.02.45Z"/>
  <path class="cls-1" d="M1.32,202.92c.38-1.43.8-2.86,1.07-4.32.17-.92-.5-1.1-1.25-1.05-.44,1.89-1.24,3.71-.4,5.76.32-.21.55-.27.58-.39Z"/>
  <path class="cls-1" d="M134.89,237.84c.53-.02.83-.52.53-1.12-2.88-.38-4.11-.23-5.77.69.09.13.18.36.27.37,1.66.05,3.32.13,4.97.07Z"/>
  <path class="cls-1" d="M17.32,216.57c.24.49.48.97.81,1.64,1.17-.89,2.12-1.63,3.08-2.36.59-.45.48-.9.03-1.37-1.19.95-2.92.74-3.92,2.09Z"/>
  <path class="cls-1" d="M10.38,165.16c.75,0,.98-.43.95-1.07-.04-.65-.31-1.02-1.07-.92-.63.08-1.29.02-1.95.02-.32.52-.64,1.03-1.13,1.82.56.15.91.32,1.26.32.65,0,1.3-.16,1.95-.17Z"/>
  <path class="cls-1" d="M15.17,178.49c-1.73-2.08-1.23-2.13-3.89-.75,1.47,1.91,2.68,2.12,3.89.75Z"/>
  <path class="cls-1" d="M4.53,180.78c-.52.03-1.05.06-1.75.1,0,1.46-.47,2.79-.08,4.36,1.67-1.94,2.11-3.02,1.83-4.47Z"/>
  <path class="cls-1" d="M84.86,251.8c.18-.53-.15-.99-.65-.8-1.21.46-2.5.9-2.91,2.4,2.27.62,2.92.32,3.55-1.6Z"/>
  <path class="cls-1" d="M57.95,242.51c-.46-1.01-1.42-.6-2.17-.72-.5-1.61-1.79-2.3-2.67-1.47q1.16.82,1.39,1.4c.59,1.46,2.02,1.79,3.45.8Z"/>
  <polygon class="cls-1" points="24.45 213.86 24.44 213.86 24.44 213.86 24.45 213.86"/>
  <path class="cls-1" d="M27.35,214.31c.23-.5.43-1.05-.15-1.49-.66-.5-2.65-.37-3.58.28.29.26.56.51.83.76.59.26,1.19.53,1.78.78.46.2.89.17,1.12-.33Z"/>
  <path class="cls-1" d="M5.64,175.9c.81-.48,2.08.42,2.5-1.11-.36-.28-.71-.54-1.04-.82-.54-.44-1.11-1.23-1.83-.67-.74.57-.26,1.42.03,2.13.06.15.19.27.34.47Z"/>
  <path class="cls-1" d="M19.14,180.66c-1.24.96-2.3,1.72-3.79,1.4.49.4.98.8,1.48,1.2.75-.04,1.61-.09,2.82-.16-.17-.8-.32-1.5-.51-2.44Z"/>
  <path class="cls-1" d="M51.74,85.12c.7-.04,1.25-.52,1.23-1.09-.02-.6-1.07-1.82-1.51-1.75-.52.08-1.08.87-1.06,1.52.02.84.56,1.37,1.35,1.33Z"/>
  <path class="cls-1" d="M19.02,230.02c-.48-.52-1.07-.84-1.79-.55-.5.2-.98.47-1.63.79.84,1.23,1.92,1.25,2.96,1.15.73-.07.95-.85.46-1.39Z"/>
  <path class="cls-1" d="M172.05,238.86c1,.47,2.02.96,3.32.51-.51-1.52-2.07-2.21-3.3-1.56-.47.24-.51.81-.01,1.05Z"/>
  <path class="cls-1" d="M41.61,233.2c-1.02-.29-2.05-.85-3.28-.2.9,1.43,1.76,1.84,3.06,1.49.23-.06.56-.31.57-.49.01-.27-.16-.75-.35-.8Z"/>
  <path class="cls-1" d="M26.34,224.59c-.26.98-.46,1.98-.73,3.17.57.35,1.22.19,1.77-.23.26-.2.5-.66.46-.96-.09-.69-.33-1.36-.56-2.01-.06-.16-.32-.35-.49-.34-.16,0-.4.22-.45.38Z"/>
  <path class="cls-1" d="M1.69,194.16c.43-.33.8-.66,1.21-.93.39-.26.81-.47,1.21-.7l-.11-.57c-.67-.02-1.34-.02-2.01-.08-.66-.05-1.09.2-1.22.84-.15.74.08,1.3.9,1.44Z"/>
  <path class="cls-1" d="M28.8,120.69s0,0,0,0c-.11-.54-.21-1.08-.32-1.62q.71-.76.38-1.76c-.83.68-1.6,1.31-2.25,1.85.33.74.59,1.31.85,1.87.45-.11.89-.22,1.34-.33Z"/>
  <path class="cls-1" d="M22.41,231.38c0,.6.89,1.16,1.8,1.13.54-.01.99-.18,1.06-.77-.01-.72-1-1.46-1.84-1.42-.68.03-1.02.4-1.02,1.06Z"/>
  <path class="cls-1" d="M113.69,227.83c.13.38.6.78,1,.91.83.28,1.21-.06,1.93-1.5-.67-.61-1.35-.67-2.09-.44-.5.16-1.03.46-.84,1.03Z"/>
  <path class="cls-1" d="M11.62,170.03c-.02.48.54.97.86.68.72-.63,1.3-1.42,2.11-2.33-.55-.28-.86-.57-1.15-.55-.69.05-1.8,1.48-1.82,2.21Z"/>
  <path class="cls-1" d="M42.34,235.63c0,.54.59.96,1.35.98.75.01,1.14-.36,1.16-1.11-.02-.62-.2-1.11-.94-1.12-.72,0-1.57.68-1.57,1.25Z"/>
  <path class="cls-1" d="M19.05,233.77c.11-.07.1-.64-.02-.72-.33-.21-.74-.36-1.13-.38-.65-.04-1.31,0-1.96.06-.29.02-.58.16-.87.24,0,.13,0,.26,0,.39.93.29,1.85.64,2.81.83.36.07.82-.19,1.17-.42Z"/>
  <path class="cls-1" d="M24.39,222.29c-.29.07-.52.44-.77.67.29.27.61.78.87.75.69-.06,1.39-.28,2.02-.58.48-.23.69-.7.27-1.19-.82.11-1.62.17-2.39.36Z"/>
  <path class="cls-1" d="M39.22,221.43c-1.44-.07-2.06,1.44-3.21.77-.31,1.11-.1,1.74.46,1.57.66-.2,1.3-.58,1.86-1,.34-.25.5-.73.89-1.33Z"/>
  <path class="cls-1" d="M62.57,72.47c.4.05.99.3,1.15.13.64-.65,1.58-1.14,1.72-2.32-1.66-.31-2.08,1.05-2.94,1.71.02.16.04.32.06.48Z"/>
  <path class="cls-1" d="M17.24,187.95c-.81.28-1.65.79-1.9,2.01.77.05,1.41.09,2.06.13.34-.34.68-.68,1.03-1.03-.19-.6-.5-1.35-1.18-1.11Z"/>
  <path class="cls-1" d="M20.2,174.06c-.76.13-.88.79-.92,1.39-.01.25.23.68.44.75.66.21,1.21-.11,1.49-.72.17-.37.16-.81.26-1.34-.54-.04-.92-.13-1.27-.07Z"/>
  <path class="cls-1" d="M17.1,160.34c.12-.4.03-1.03-.23-1.34-.44-.54-1.06-.45-1.62,0,.07.71.13,1.37.19,2.03.85.32,1.43.03,1.65-.69Z"/>
  <path class="cls-1" d="M38.96,106.75q-.79-.71-2.96.28c.93,1.51,1.17,1.48,2.96-.28Z"/>
  <path class="cls-1" d="M41.56,102.05c.14-.42.3-.87.48-1.42h-2.94c.17,1.06.44,1.23,2.45,1.42Z"/>
  <path class="cls-1" d="M29.87,236.59c-.29.78-.57,1.54-.92,2.5,1.3-.13,2.1-.66,2.17-1.41.07-.76-.4-1.07-1.24-1.09Z"/>
  <path class="cls-1" d="M14.17,148.45c-1.22.49-1.39.83-1.25,2.68,1.5-.34,1.72-.86,1.25-2.68Z"/>
  <path class="cls-1" d="M85.77,51.86c.55-.61.53-1.15-.23-1.84-.39.57-.63,1-.94,1.38-.29.35-1.02.34-.85,1.05.97.43,1.16.36,2.02-.59Z"/>
  <path class="cls-1" d="M122.68,229.79c.72.39,1.25.76,1.83.95.25.08.62-.22.94-.35-.17-.31-.26-.8-.52-.91-.65-.28-1.37-.38-2.26.31Z"/>
  <path class="cls-1" d="M182.4,239.61c.46-.53.93-.82,1-1.2.11-.54-.42-.71-.9-.72-.52-.01-1.14.05-1.08.71.03.36.53.68.98,1.21Z"/>
  <path class="cls-1" d="M21.73,148.85c.16-.22-.03-.68-.07-1.04-.38.11-.94.11-1.11.36-.31.47-.4,1.09-.58,1.64.14.1.28.2.42.3.45-.42.98-.78,1.33-1.27Z"/>
  <path class="cls-1" d="M197.93,250.78c.34.57.89.59,1.45.4.24-.08.46-.26.69-.39.08-.16.16-.31.24-.47-.28-.16-.55-.45-.83-.45-.51,0-1.02.16-1.51.32-.07.02-.13.44-.04.59Z"/>
  <path class="cls-1" d="M34.3,227.78c-1-.03-2.09-.25-2.94.99,1.04,0,1.91.03,2.77-.02.19-.01.42-.29.51-.5.04-.1-.21-.47-.33-.47Z"/>
  <path class="cls-1" d="M15.16,193.85c-.29.13-.58.49-.64.8-.05.23.22.75.4.77.31.04.74-.11.99-.33.26-.23.36-.64.69-1.28-.7,0-1.12-.11-1.43.03Z"/>
  <path class="cls-1" d="M4.39,228.9c-.11-.01-.24-.01-.33.04-.57.33-.65,1.97-.07,2.31.14.09.71-.17.73-.32.09-.58.04-1.19.04-1.89-.17-.07-.26-.13-.37-.15Z"/>
  <path class="cls-1" d="M32.53,111.46q-2.03,1.64-1.54,2.71c1.11-.47,1.45-1.35,1.54-2.71Z"/>
  <path class="cls-1" d="M27.91,230.44c-.06-1.03-.32-1.66-1.25-1.6-.49.03-.84.39-.69.91.29,1.02,1.11.58,1.94.69Z"/>
  <path class="cls-1" d="M11.82,155.06c.36-.44.72-.87,1.18-1.42-.42-.28-.69-.61-.89-.57-.73.14-.84.8-.87,1.4,0,.19.38.39.58.59Z"/>
  <path class="cls-1" d="M5.49,234.39c-.15,1.02.04,1.91.73,2.98.54-1.94.44-2.29-.73-2.98Z"/>
  <path class="cls-1" d="M135.15,228.12c-.34.07-.64.33-1.3.7.7.33,1.02.58,1.36.61.27.02.62-.18.81-.39.13-.15.14-.64.02-.72-.23-.16-.61-.25-.89-.19Z"/>
  <path class="cls-1" d="M29.23,203.31c.74.54,1.37,1,1.99,1.46-.03-1.63-.47-1.91-1.99-1.46Z"/>
  <path class="cls-1" d="M52.21,245.84c-.36.74-1.04,1.14-.97,2.11.53-.23.94-.35,1.31-.57.74-.44.71-.6-.34-1.54Z"/>
  <path class="cls-1" d="M23.66,375.19c-.16.09-.32.19-.48.28.06.59.12,1.18.18,1.76.14.04.28.07.43.11.26-.42.68-.82.71-1.25.02-.28-.53-.6-.83-.9Z"/>
  <path class="cls-1" d="M35.52,243.25c-.13.46.17.79.62.71.31-.05.83-.37.82-.55-.02-.34-.35-.67-.7-1.25-.38.53-.65.78-.74,1.09Z"/>
  <path class="cls-1" d="M19.11,171.17c.07-.22.04-.61-.1-.72-.37-.27-.83-.43-1.33-.67,0,1.17.23,1.57.87,1.62.19.01.53-.1.56-.23Z"/>
  <path class="cls-1" d="M115.74,221.1q1.69,1.51,2.52.85c-.65-.62-1.32-1.06-2.52-.85Z"/>
  <path class="cls-1" d="M15.59,146.24c-.36-.39-.59-.64-.82-.9-.22.26-.6.51-.62.78-.01.28.33.57.52.86.26-.21.52-.42.92-.75Z"/>
  <path class="cls-1" d="M60.97,75.57c.76.2,1.3.03,1.48-.68.04-.17-.34-.63-.52-.63-.71.01-1.09.41-.96,1.31Z"/>
  <path class="cls-1" d="M49.96,243.06c-.82-.06-1.16.38-1.28,1.26,1.57.24,1.6.21,1.28-1.26Z"/>
  <path class="cls-1" d="M47.56,246.03c.4.23.87.34,1.55.58-.08-1.12-.56-1.44-1.19-1.56-.2-.04-.57.15-.63.32-.06.18.1.56.27.66Z"/>
  <polygon class="cls-1" points="61.63 390.83 61.64 390.83 61.64 390.83 61.63 390.83 61.63 390.83"/>
  <path class="cls-1" d="M61.81,393.02c.37-.05.76-.1,1.16-.15-.49-.76-.91-1.4-1.33-2.04-.24.19-.48.37-.64.49.3.63.54,1.14.81,1.69Z"/>
  <path class="cls-1" d="M182.64,385.51c.48-.76.76-1.2,1.16-1.84-.6-.17-1.01-.28-1.79-.5.26.97.4,1.49.63,2.33Z"/>
  <path class="cls-1" d="M49.9,231.58c.26-.52.02-1.04-.56-1.37-.15.14-.31.23-.36.36-.14.35-.24.71-.36,1.07.08.12.16.24.24.36.36-.13.92-.17,1.05-.42Z"/>
  <path class="cls-1" d="M33.82,110.63c.12.73.49,1.17,1.24.77.18-.1.29-.77.14-.97-.48-.66-.95-.19-1.37.18h-.01Z"/>
  <path class="cls-1" d="M34.8,247.72c-.09-.23-.7-.5-.88-.4-.59.33-.48.86-.05,1.55.56-.31,1.21-.43.93-1.16Z"/>
  <path class="cls-1" d="M37.42,103.84c-1.39-.07-1.41-.03-1.49,1.9.95-.25.84-1.2,1.49-1.9Z"/>
  <path class="cls-1" d="M1.49,206.15c.22.53.65.5,1.13.13-.1-.49-.22-1.01-.39-1.82-.72.56-1.02,1.05-.75,1.69Z"/>
  <path class="cls-1" d="M47.47,241.87c-.72-.9-1.36-1.02-2.29-.56.66.71,1.25,1.01,2.29.56Z"/>
  <path class="cls-1" d="M43.96,222.95q-.66-1.16-1.89-.56c.53.59,1.09.86,1.89.56Z"/>
  <path class="cls-1" d="M74.18,60.79c.22.06.56-.25,1.01-.47-.59-.48-.82-.82-1.04-.81-.23.01-.65.43-.61.54.11.3.37.66.65.74Z"/>
  <path class="cls-1" d="M33.13,236.2c-.14.7-.04,1.24.68,1.56.65-1.11.61-1.2-.68-1.56Z"/>
  <path class="cls-1" d="M40.17,230.9c1.41-.6,1.46-.82.68-2.24-.23.76-.4,1.34-.68,2.24Z"/>
  <path class="cls-1" d="M11,195.28c.2-.09.3-.39.45-.6-.25-.15-.52-.45-.76-.43-.7.07-.9.52-.65,1.17h0c.32-.04.68-.02.96-.15Z"/>
  <path class="cls-1" d="M16,148.18c.66.24,1.15.04,1.36-.77-.57-.3-1.11-.37-1.53.23-.07.1.05.49.17.53Z"/>
  <path class="cls-1" d="M67.99,68.44c-.96-.41-1.61-.33-2.23.03.67.3,1.32.85,2.23-.03Z"/>
  <path class="cls-1" d="M45.61,222.2c.97.44,1.57.95,2.35.04-.72-.44-1.32-.64-2.35-.04Z"/>
  <path class="cls-1" d="M39.63,206.08c-.66-.71-1.24-.74-1.84-.03.59.27,1.16.63,1.84.03Z"/>
  <path class="cls-1" d="M25.41,242.86c.69.62,1.24.63,1.88-.08-.71-.52-1.25-.55-1.88.08Z"/>
  <path class="cls-1" d="M37.01,247.47c.24,0,.49-.31.86-.57-.52-.31-.89-.52-1.42-.84-.27.87-.24,1.38.56,1.4Z"/>
  <path class="cls-1" d="M212.86,374.39c1.97.1,2.01.06,1.45-1.22-.45.38-.86.72-1.45,1.22Z"/>
  <path class="cls-1" d="M97.32,391.22c1.07.25,1.64.13,2.02-.73-.84-.33-1.32.03-2.02.73Z"/>
  <path class="cls-1" d="M106.19,390.5h0c.2.69.51,1.27,1.46,1.46-.23-.73-.42-1.32-.64-2.01-.31.21-.56.38-.82.55Z"/>
  <path class="cls-1" d="M25.34,236.82c.28-.03.54-.21.94-.39-.22-.28-.36-.58-.45-.56-.28.05-.55.22-.82.34.11.22.24.62.33.61Z"/>
  <path class="cls-1" d="M203.94,253.7c.18.23.37.46.65.81.25-.31.55-.53.51-.67-.06-.21-.33-.47-.54-.51-.19-.03-.42.23-.62.36Z"/>
  <path class="cls-1" d="M70.56,64.49c.22-.19.43-.39.75-.67-.27-.23-.55-.54-.61-.5-.23.15-.47.38-.56.64-.04.12.27.35.42.53Z"/>
  <path class="cls-1" d="M13.83,193.66c.08-.13-.06-.39-.1-.59-.37.1-.74.2-1.38.38.78.71,1.18.67,1.47.21Z"/>
  <path class="cls-1" d="M64.99,392.51c-.27-.17-.55-.35-.83-.52-.06.12-.12.24-.18.36l1.33.49c.25.36.37.94,1.32.67-.46-.53-.8-.94-1.17-1.31-.03-.03-.31.2-.48.31Z"/>
  <path class="cls-1" d="M172.64,236.16c.12-.16.37-.36.33-.48-.06-.22-.29-.39-.53-.68-.21.28-.46.53-.42.58.16.23.4.39.62.58Z"/>
  <path class="cls-1" d="M37.47,239.94c-.44-.3-.77-.19-1.14.7.57-.13.9-.2,1.2-.3.03,0,.02-.35-.06-.41Z"/>
  <path class="cls-1" d="M29.92,247.9c.56-.08.9-.13,1.5-.21-.54-.56-.9-.94-1.27-1.32h0c-.07.46-.13.92-.22,1.53Z"/>
  <path class="cls-1" d="M177.9,239.34q1.17-.22,1.15-1.13c-.74.04-1.01.51-1.16,1.13h0Z"/>
  <path class="cls-1" d="M3.15,189.46c.17.35.33.71.63,1.33.46-.94.38-1.34-.22-1.54-.14.07-.27.14-.41.21Z"/>
  <path class="cls-1" d="M20.28,135.49c.53.12.81-.15.89-.79-.6-.21-.96-.1-1.11.42-.03.1.12.35.22.37Z"/>
  <path class="cls-1" d="M149.17,232.73c.67.21,1.07.34,1.47.46.04-.14.09-.29.13-.43-.34-.48-.76-.56-1.6-.03Z"/>
  <path class="cls-1" d="M68.8,249.67c-.05.14-.11.28-.16.42.45.21.91.42,1.62.74-.37-.97-.73-1.38-1.46-1.16Z"/>
  <path class="cls-1" d="M6.59,207.96c-.18.5-.21.95.75,1.34-.11-.64-.18-1.05-.26-1.45-.16.04-.33.07-.49.11Z"/>
  <path class="cls-1" d="M18.39,184.91c-.1-.03-.28.23-.54.46.33.18.54.36.76.39.09.01.36-.37.32-.42-.13-.19-.33-.37-.54-.43Z"/>
  <path class="cls-1" d="M44.34,97.44c-.07-.12-.14-.25-.22-.37-.17-.07-.4-.25-.48-.19-.2.13-.32.37-.47.56.16.11.32.31.47.3.24-.02.47-.19.71-.29Z"/>
  <path class="cls-1" d="M20.53,187.95c.38.57.62.92.85,1.27.14-.1.28-.19.43-.29-.03-.56-.28-.91-1.28-.98Z"/>
  <path class="cls-1" d="M175.63,236.66c-.56-.36-.9-.3-1.17.33.56.37.9.29,1.17-.33Z"/>
  <path class="cls-1" d="M19.73,210.47c-.04.32-.03.64-.03.97.2,0,.4,0,.6-.01v-.98c-.2,0-.56,0-.57.02Z"/>
  <path class="cls-1" d="M25.58,121.5c-.07-.21-.25-.42-.44-.54-.05-.03-.43.23-.42.33.03.22.21.41.4.74.23-.25.49-.43.46-.52Z"/>
  <path class="cls-1" d="M233.64,350.48c-.45.11-.77.19-1.22.3q.78.41,1.22-.3Z"/>
  <path class="cls-1" d="M155.18,326.39c.7-.61.88-.93.24-1.65-.09.62-.14.96-.24,1.65Z"/>
  <path class="cls-1" d="M217.27,371.28c-.47-.19-.77-.31-1.06-.43.08.81.39.95,1.06.43Z"/>
  <path class="cls-1" d="M20.75,230.96c.18.09.37.25.55.24.15,0,.31-.19.66-.43-.45-.16-.68-.3-.9-.29-.11,0-.2.3-.3.47Z"/>
  <path class="cls-1" d="M200.82,251.99c.36-.03.73-.06,1.09-.1l-.02-.32h-1.1c0,.14.02.27.03.41Z"/>
  <path class="cls-1" d="M80.13,55.95c-.61-.08-1.02-.05-1.18.64.69.3.93-.04,1.18-.64Z"/>
  <path class="cls-1" d="M40.22,218.43c.13.29.25.59.4.88.01.02.28-.05.28-.07-.02-.31-.06-.63-.1-.94-.19.04-.38.08-.58.13Z"/>
  <path class="cls-1" d="M6.04,184.89c.39.57.62.9,1.03,1.5.17-1,.04-1.4-1.03-1.5Z"/>
  <path class="cls-1" d="M20.97,183.18c-.22.07-.47.24-.55.44-.07.17.09.43.14.64.19-.03.38-.05.57-.08.08-.21.24-.42.22-.61-.01-.15-.3-.42-.38-.39Z"/>
  <path class="cls-1" d="M82.37,390.2c.69.83,1.08.75,1.43.15.03-.05-.07-.18-.14-.34-.33.05-.67.1-1.29.19Z"/>
  <path class="cls-1" d="M69.38,393.45v-1.49c-.56.54-.71.89,0,1.49Z"/>
  <path class="cls-1" d="M9.19,189.17c-.21-.44-.37-.78-.57-1.18-.48.51-.39.87,0,1.17.09.07.28.01.57.01Z"/>
  <path class="cls-1" d="M24.35,216.42c.07-.11.13-.23.2-.35-.27-.17-.55-.35-.82-.52-.09.15-.17.29-.26.44.29.14.59.29.88.43Z"/>
  <path class="cls-1" d="M126.7,229.43c-.18.03-.34.17-.51.27.12.14.22.38.35.39.15.02.33-.16.57-.3-.2-.18-.33-.37-.42-.35Z"/>
  <path class="cls-1" d="M42.15,229.75c.31.13.62.27.94.4.05-.1.1-.2.15-.3-.28-.17-.56-.33-.83-.5-.09.13-.17.27-.26.4Z"/>
  <path class="cls-1" d="M177.38,240.7c.24-.64.38-1,.51-1.37h0c-.57.11-1.07.26-.51,1.37Z"/>
  <path class="cls-1" d="M104.08,219.35c.13.12.27.34.41.34.15,0,.3-.19.62-.43-.37-.12-.55-.23-.71-.22-.11.01-.21.2-.31.3Z"/>
  <path class="cls-1" d="M180.55,240.77c.19.13.37.27.57.36.03.01.17-.2.33-.41-.25-.11-.42-.23-.59-.24-.1,0-.21.19-.31.29Z"/>
  <path class="cls-1" d="M64.37,68.47c.13.05.33-.1.5-.17.09-.14.17-.27.26-.41-.21-.06-.42-.18-.63-.16-.17.02-.32.19-.49.3.11.15.2.38.35.43Z"/>
  <path class="cls-1" d="M104.27,387.97c0,.13.01.26.02.39.28-.04.55-.08.83-.12,0-.09-.02-.18-.03-.27h-.82Z"/>
  <path class="cls-1" d="M39.98,224.64c.25.1.5.22.76.3.02,0,.11-.16.16-.25l-.7-.44c-.08.13-.15.26-.23.39Z"/>
  <path class="cls-1" d="M90.8,390.7c.31.07.62.14.92.2.03-.09.05-.18.08-.28l-.9-.33c-.03.13-.06.27-.1.4Z"/>
  <path class="cls-1" d="M17.64,141.62c.18-.03.35-.16.62-.3-.21-.18-.35-.37-.42-.35-.18.06-.32.22-.48.34.1.11.21.32.28.31Z"/>
  <path class="cls-1" d="M23.23,133.39c.06.18.19.34.32.47.02.02.22-.14.43-.28-.18-.2-.31-.36-.46-.47-.02-.02-.31.21-.29.27Z"/>
  <path class="cls-1" d="M154.89,317.59c-.04.11-.07.22-.11.33.31.1.62.2.93.3.03-.1.07-.21.1-.31l-.92-.32Z"/>
  <path class="cls-1" d="M19.9,213.25c.28-.08.56-.17.83-.27-.06-.14-.12-.28-.18-.42-.26.14-.52.27-.77.43-.01,0,.1.26.12.26Z"/>
  <path class="cls-1" d="M128.37,236.7c-.11-.1-.22-.2-.32-.31-.18.2-.37.4-.52.62-.02.02.19.2.29.3.18-.2.37-.41.55-.61Z"/>
  <path class="cls-1" d="M225.41,363.85c.25.18.5.36.75.53l.2-.28-.75-.54c-.07.1-.13.19-.2.29Z"/>
  <path class="cls-1" d="M59.11,243.19c.52.36.9.48,1.2-.15,0,0-.03-.05-.03-.04-.38-.11-.78-.38-1.17.2Z"/>
  <path class="cls-1" d="M10.03,183.42c-.1-.09-.21-.18-.4-.35-.13.24-.22.4-.29.58,0,.02.2.16.24.14.17-.1.3-.24.45-.37Z"/>
  <path class="cls-1" d="M32.88,245.24c.17-.05.32-.2.6-.39-.3-.11-.45-.23-.55-.2-.13.04-.23.2-.34.31.1.1.23.3.3.28Z"/>
  <path class="cls-1" d="M20.85,241.1c-.08-.19-.1-.38-.2-.44-.11-.05-.28.03-.43.05.05.17.06.36.16.5.03.04.27-.06.48-.12Z"/>
  <path class="cls-1" d="M15.96,218.03c-.03.05.09.26.13.26.14-.01.34-.04.39-.14.05-.08-.07-.26-.15-.48-.17.16-.31.24-.37.36Z"/>
  <path class="cls-1" d="M31,248.98c.24-.01.49-.03.73-.04,0-.14,0-.27-.01-.41l-.77.17c.02.09.03.19.05.28Z"/>
  <path class="cls-1" d="M12.65,205.93c-.18.16-.31.24-.38.36-.03.05.09.27.13.26.14-.01.34-.04.4-.14.05-.07-.07-.26-.15-.48Z"/>
  <path class="cls-1" d="M55.5,247.27c-.03.12.08.27.13.4.15-.09.33-.16.43-.28.04-.04-.11-.24-.21-.42-.15.12-.33.19-.35.3Z"/>
  <path class="cls-1" d="M19.01,143.2c-.08-.11-.16-.23-.25-.35-.08.06-.23.14-.22.18.03.14.12.26.18.39.08-.06.15-.12.28-.23Z"/>
  <path class="cls-1" d="M61.4,72.88c0-.13-.12-.26-.19-.39-.12.1-.29.17-.34.29-.04.11.07.26.24.79.17-.4.28-.54.29-.7Z"/>
  <path class="cls-1" d="M38.21,245.56c-.01-.1-.18-.18-.35-.33-.06.21-.12.34-.11.46,0,.06.19.18.22.16.1-.07.26-.2.24-.28Z"/>
  <path class="cls-1" d="M24.59,214.84c-.06-.37-.1-.68-.15-.98q-.45.57.15.98Z"/>
  <polygon class="cls-1" points="24.45 213.86 24.44 213.86 24.44 213.86 24.45 213.86"/>
  <path class="cls-1" d="M113.37,221.28s.21-.1.22-.16c0-.12-.06-.24-.12-.45-.17.15-.27.24-.37.33.09.1.17.21.27.28Z"/>
  <path class="cls-1" d="M192.08,244.07c.05.02.23-.1.23-.15,0-.12-.09-.24-.14-.36-.12.06-.24.12-.45.21.16.14.25.26.36.3Z"/>
  <path class="cls-1" d="M10.82,179.44c-.1-.22-.14-.36-.23-.45-.04-.04-.26,0-.27.02-.03.13-.06.31.01.39.06.07.25.03.49.04Z"/>
  <path class="cls-1" d="M190,244.05c.25-.12.44-.18.51-.31.09-.16.02-.42.02-.64-.08-.02-.16-.03-.24-.05-.12.28-.25.57-.42.95.03,0,.05.01.08.02.02,0,.03.02.05.03Z"/>
  <path class="cls-1" d="M11.71,226.26c.19-.08.39-.15.58-.23-.1-.17-.21-.33-.31-.5-.2.13-.4.26-.61.39h0l.34.34Z"/>
  <path class="cls-1" d="M88.94,48.42c-.18-.12-.28-.23-.4-.26-.06-.01-.22.12-.21.17.02.12.11.23.17.35.12-.07.24-.14.44-.25Z"/>
  <path class="cls-1" d="M124.42,225.52c-.11.08-.21.16-.32.25l.49.5.2-.16c-.12-.2-.25-.39-.37-.59Z"/>
  <path class="cls-1" d="M14.97,174.24c-.16-.15-.24-.27-.35-.31-.05-.02-.24.09-.24.14,0,.13.08.25.13.37.12-.05.25-.11.46-.2Z"/>
  <path class="cls-1" d="M41.75,227.02c.03.13.08.3.17.36.07.04.23-.08.44-.16-.17-.16-.26-.28-.38-.33-.05-.02-.24.11-.23.14Z"/>
  <path class="cls-1" d="M34.31,240.83c-.14,0-.29.06-.43.1.04.09.08.25.13.25.14.02.29-.03.45-.05-.07-.14-.11-.3-.15-.3Z"/>
  <path class="cls-1" d="M5.68,228.19c-.05-.09-.11-.25-.16-.25-.17,0-.35.05-.52.08.18.14.36.28.53.42l.15-.24Z"/>
  <path class="cls-1" d="M14.49,153.51c-.01-.12-.09-.24-.14-.36-.12.06-.24.12-.45.21.16.14.25.25.36.3.05.02.23-.1.22-.15Z"/>
  <path class="cls-1" d="M147.96,232.34c.02.12.11.23.17.35.12-.07.24-.14.44-.26-.18-.12-.28-.23-.4-.26-.06-.01-.22.12-.21.17Z"/>
  <path class="cls-1" d="M34.13,112.61c-.13.04-.29.1-.34.2-.03.07.1.22.2.41.14-.18.24-.28.29-.41.02-.05-.12-.22-.15-.21Z"/>
  <path class="cls-1" d="M17.14,238.17c.1.09.21.27.31.26.13,0,.25-.15.46-.29-.18-.12-.31-.26-.41-.25-.13.02-.24.18-.36.27Z"/>
  <path class="cls-1" d="M28.77,108.67c-.05-.07-.11-.14-.16-.21-.18.14-.36.28-.54.42.05.07.11.14.16.21.18-.14.36-.28.54-.42Z"/>
  <path class="cls-1" d="M94.18,42.22c.12-.05.23-.14.35-.23-.11-.11-.22-.24-.24-.22-.11.07-.21.18-.31.27.07.06.16.19.2.18Z"/>
  <path class="cls-1" d="M52.88,392.76l.71.33c.04-.08.07-.15.11-.23l-.7-.34c-.04.08-.07.16-.11.24Z"/>
  <path class="cls-1" d="M170.37,235.5c.1.09.22.14.33.21.05-.08.1-.17.18-.31-.13-.05-.25-.12-.38-.14-.04,0-.15.22-.13.23Z"/>
  <path class="cls-1" d="M31.16,116.66c.07.07.17.21.2.19.13-.05.23-.16.35-.24-.07-.07-.13-.14-.23-.25-.11.1-.21.2-.31.3Z"/>
  <path class="cls-1" d="M27.56,128.58c-.26-.17-.52-.35-.77-.52.17.26.34.51.51.77.09-.08.18-.17.26-.25Z"/>
  <polygon class="cls-1" points="26.79 128.06 26.79 128.06 26.79 128.06 26.79 128.06 26.79 128.06"/>
  <path class="cls-1" d="M19.74,232.03c.16.14.33.28.64.54-.08-.33-.09-.5-.13-.51-.17-.04-.34-.02-.51-.02Z"/>
  <path class="cls-1" d="M71.11,395.56c-.13.03-.25.14-.37.22.18.07.36.14.53.22.03-.08.05-.17.08-.25-.08-.07-.18-.2-.24-.19Z"/>
  <path class="cls-1" d="M118.88,390.62c.04.12.2.19.31.29.04-.17.15-.35.11-.49-.03-.11-.24-.17-.38-.26-.02.16-.09.33-.04.46Z"/>
  <polygon class="cls-1" points="118.93 390.16 118.93 390.16 118.93 390.16 118.93 390.16"/>
  <path class="cls-1" d="M15.1,163.11l.7.09c.01-.08.02-.16.03-.25-.23-.03-.46-.07-.69-.1-.01.09-.02.17-.04.26Z"/>
  <path class="cls-1" d="M197.26,380.23c.08.1.19.19.29.28.06-.07.12-.14.22-.24-.12-.08-.22-.17-.34-.22-.03-.01-.18.17-.17.18Z"/>
  <path class="cls-1" d="M35.19,220.12c.11-.06.2-.18.29-.27-.08-.05-.16-.1-.3-.18-.08.1-.16.21-.24.32.08.05.2.16.24.14Z"/>
  <path class="cls-1" d="M30.87,384.88c-.07-.05-.15-.16-.22-.15-.14.02-.28.1-.46.17.28.2.41.31.42.3.1-.09.17-.21.25-.32Z"/>
  <path class="cls-1" d="M31.75,259.13c-.14-.08-.25-.17-.38-.2-.05-.01-.13.12-.2.19.11.08.21.19.34.23.04.01.13-.12.25-.22Z"/>
  <path class="cls-1" d="M96.27,257.95c-.12.06-.2.17-.31.27.12.09.25.2.26.19.1-.08.18-.2.27-.3-.08-.06-.18-.17-.22-.15Z"/>
  <path class="cls-1" d="M7.06,176.96c-.04.08-.13.17-.11.23.02.08.12.18.2.2.05.01.13-.1.25-.19-.12-.09-.23-.17-.33-.25Z"/>
  <path class="cls-1" d="M71.92,256.36c.26.14.51.27.77.41-.19-.23-.38-.45-.58-.68-.06.09-.13.18-.19.27Z"/>
  <polygon class="cls-1" points="72.69 256.76 72.69 256.76 72.69 256.76 72.69 256.76"/>
  <path class="cls-1" d="M31.1,257.54c-.08-.05-.16-.09-.25-.14-.04.08-.13.16-.11.22.02.08.12.14.19.21.06-.1.12-.2.17-.3Z"/>
  <path class="cls-1" d="M90.79,255.38c-.08-.04-.17-.08-.25-.11-.02.08-.05.17-.05.25,0,.02.11.08.12.06.07-.06.12-.13.18-.2Z"/>
  <path class="cls-1" d="M105.23,390.29c.32.07.64.13.97.2-.29-.15-.58-.31-.87-.46-.03.09-.06.17-.1.26Z"/>
  <path class="cls-1" d="M185.64,384.69c0,.08.03.17.05.25.08-.03.17-.07.25-.1-.06-.07-.11-.15-.18-.2-.02-.01-.12.04-.12.06Z"/>
  <path class="cls-1" d="M62.64,70.68c-.09-.03-.18-.06-.28-.08-.02,0-.08.11-.07.12.06.07.13.12.2.18.05-.08.1-.15.15-.23Z"/>
  <path class="cls-1" d="M44.47,93.19c.08-.03.15-.08.23-.13-.06-.07-.11-.14-.17-.21-.05.07-.11.14-.15.22,0,.02.07.12.08.11Z"/>
  <path class="cls-1" d="M59.2,75.84c.06-.08.12-.15.19-.23l-.31-.16c-.04.09-.1.19-.09.27,0,.05.14.08.22.12Z"/>
  <path class="cls-1" d="M6.93,195.59c.01.08.11.16.17.24.07-.09.15-.17.22-.26-.08-.06-.15-.12-.23-.18-.06.07-.17.14-.17.2Z"/>
  <path class="cls-1" d="M7.6,206.78c-.07-.06-.15-.16-.22-.15-.09,0-.17.1-.26.16.1.08.19.17.3.22.03.01.12-.14.18-.22Z"/>
  <path class="cls-1" d="M232.86,283.36c.01.08.11.15.17.23l.22-.26c-.08-.06-.15-.11-.23-.17-.06.07-.16.14-.16.2Z"/>
  <path class="cls-1" d="M56.79,393.39s.07.11.08.11c.08-.03.15-.08.23-.12-.05-.07-.11-.14-.16-.2-.05.07-.11.14-.14.22Z"/>
  <path class="cls-1" d="M33.83,110.62c-.11-.21-.22-.43-.33-.64-.07.06-.15.13-.22.19.18.15.36.31.54.46h.01Z"/>
  <path class="cls-1" d="M74.77,395.03c-.08.02-.15.12-.23.19l.27.22c.06-.08.11-.17.17-.25-.07-.06-.15-.17-.21-.16Z"/>
</svg>