<?xml version="1.0" encoding="UTF-8"?>
<svg id="Layer_1" data-name="Layer 1" xmlns="http://www.w3.org/2000/svg" viewBox="0 0 390.4 500">
  <defs>
    <style>
      .cls-1 {
        fill: #000;
        stroke-width: 0px;
      }
    </style>
  </defs>
  <path class="cls-1" d="M80.5,459.34c3.09-4.88,5.14-10.23,8.76-14.88,1.37-1.76,2.87-3.3,5.15-3.99,1.61-.49,2.01-1.44,1.79-2.75-.57-3.5-1.19-6.99-1.91-11.2-.93,1.76-1.55,2.91-2.42,4.55-.48-1-.84-1.46-.92-1.97-.42-2.72-.78-5.45-1.11-8.19-.07-.54.12-1.1.16-1.65.06-.72.09-1.44.13-2.16.02-.35-.13-.77.03-1.05,2.11-3.6,2.64-7.71,4.47-11.37,2.28-4.55,4.4-9.21,8.26-13.01,1.47-1.45,2.54-3.21,3.89-4.77,2.1-2.41,3.98-5.05,6.48-7.08,5.18-4.21,7.66-9.42,8.4-15.46.16-1.34.43-2.68.76-4.67,1.82,3.82-1.27,6.74-.36,10.44.63-.9,1.04-1.3,1.21-1.77.9-2.52,1.95-5.01,2.55-7.59.65-2.77.9-5.62,1.24-8.44.32-2.62.47-5.26.81-7.88.15-1.16.57-2.29.91-3.43.61-1.98,1.54-3.96-.88-5.6-.31-.21-.19-.91-.29-1.38-1.38-6.37-.91-12.75,0-19.12.5-3.5.43-4.6-.82-7.04-.45,2.82-.89,5.62-1.37,8.42-.06.36-.36.68-.82,1.53-.38-1-.8-1.57-.76-2.12.33-4.92.88-9.82,1.1-14.74.24-5.3.25-10.62.24-15.93,0-4.52-.31-9.05-.26-13.57.08-7.3.29-14.6.55-21.9.19-5.33.58-10.65.77-15.98.06-1.73-.25-3.47-.42-5.55.18-.58.76-1.58.77-2.58,0-3.82-.23-7.63-.26-11.45-.03-4.9.11-9.81.07-14.71-.03-3.45-.37-6.89-.33-10.34.06-5.42.45-10.84.44-16.26,0-5.62-.33-11.25-.52-16.87-.19-5.89-.35-11.78-.6-17.66-.17-4.01-.52-8.01-.73-12.02-.22-4.33-.64-8.66-.48-12.98.25-6.99.94-13.97,1.38-20.96.44-6.81.89-13.62,1.16-20.43.15-3.84.05-7.7-.12-11.54-.11-2.47-.76-2.82-3.58-2.55-3.11.3-6.06,1.04-8.93,2.19-1.78.71-3.82.87-5.71,1.39-3.91,1.07-7.81,2.19-11.7,3.32-4.1,1.19-8.18,2.45-12.29,3.61-.68.19-1.58.22-2.22-.02-2.18-.79-3.55-.03-4.8,1.52-.61.76-1.47,1.46-2.4,1.89-3.43,1.59-6.97,2.93-9.98,5.26-2.02,1.57-4.68,2.48-7.05,3.69-1.18-1.94-1.18-2.17.47-2.93,2.06-.96,4.21-1.77,6.25-2.76,1-.48,1.85-1.21,2.76-1.83-.12-.22-.24-.43-.36-.65-2.24.54-4.63.81-6.7,1.68-8.81,3.69-17.86,6.83-26.69,9.74-2.03-.43-1.75-3.02-4.03-2.62-1.35.23-2.97.09-3.38,1.47-4.96-.44-9.8-.75-14.6-1.33-2.95-.36-5.87-1.04-8.75-1.76C1.5,79.2-.01,78.59,0,76.56c2.78.33,5.6,1.07,7.91-1.16.19-1.78-3.04-2.47-2.04-4.74.7-.33,1.53-.72,2.56-1.2-.92-1.08-1.69-1.99-2.85-3.36,1.86.44,3.15.74,5.31,1.25-1.03-1.4-1.62-2.21-2.32-3.16,1.54-1.14,2.79-2.73,5.37-1.91.21-1.4.4-2.61.53-3.48,2.37-.37,4.61-.71,7.34-1.14-.91-1.13-1.51-1.88-2-2.49,1.01-.84,1.97-1.69,3-2.47.41-.31,1.1-.73,1.45-.61,2.64.92,4.56-.57,6.67-1.43.47-.19,1.02-.22,1.56-.32-.08-1.2-.15-2.24-.23-3.45,1.29-.18,2.34-.32,2.68-.37,2.87-2.46,5.27-4.6,7.77-6.64.89-.73,2.17-1.08,3-1.85,6.49-6.04,15.09-9.23,22.85-13.56,10.83-6.05,23.3-8.06,35.15-11.56,7.47-2.21,15.07-4.06,22.58-6.18C139.76,2.92,153.48.22,167.69.08c6.32-.06,12.68-.25,18.94.34,5.28.5,10.51.99,15.83.78,5.98-.23,11.97-.53,17.95-.42,10.52.19,21.04.68,31.56,1.02,3.65.12,7.31.02,10.95.25,7.71.47,15.54.05,23.44,2.42-1.94.61-4.73-.47-4.79,2.68,1-.42,1.74-.73,3.14-1.32.25.4.53.95.9,1.45,1.26,1.69,3.02,2.46,5.34,2.5,1.64.03,3.32.33,4.91.73,1.76.44,3.39.67,5.18.06.69-.24,1.74-.06,2.45.25,2.02.86,3.96,1.46,6.33,1.12,1.8-.26,3.56.33,5.37,1.05,2.85,1.15,5.82,2.49,9.19,2.12,5.19-.57,10.23.58,15.33,1.08,4.15.41,8.28,1.08,12.43,1.44,1.78.15,2.81,1.04,3.8,2.09.84.9,1.83,1.29,2.89.57,2.57-1.74,4.74-.89,7.04.91,1-.68,1.94-1.33,2.89-1.96,1.02-.68,2.11-1.17,3.38-.58,1.28.59,2,1.48,1.9,2.86-.06.88.07,1.76.12,2.64q-3.47,2.98-7.29.23c-3.06.95-1.79,3.66-2.81,5.66-.49-.59-.95-1.13-1.44-1.72-1.05.15-2.01.36-2.99.42-2.86.18-3.86,1.41-3.01,3.81.3.84.75,1.64.97,2.49.11.42-.13.92-.25,1.57-3.22-1.12-.72-4.58-3.53-5.78-4.23,1.97-3.74,5.63-3.59,9.2-3.01.15-1.64-2.5-3.15-3.35-.61,1.76.99,3.71-.71,5.46-.86-.31-1.72-.63-3.01-1.1-.93,2.91-4.92,4.71-2.92,8.4-1.01,1.06-1.94,2.05-3.02,3.19,2.11,1.04,3.63.26,5.2-.02.8-.14,1.74-.23,2.46.02,1.17.4,1.36,1.32.49,2.14-.82.78-1.82,1.41-2.87,2.2-1.73-1.15-3.56-.87-5.59-.69-2.57.23-5.23-.35-7.86-.54-2.36-.17-4.69.09-6.21,1.85-1.21,1.41-2.58.64-3.85.62-2.55,2.74-4.44,2.07-6.72,1.24-1.02-.37-1.98-.9-2.98-1.31-1.1-.45-2.17-.16-2.46.81-.66,2.24-2.85,2.7-4.74,3.28-1.96.6-4.06.78-6.17.01-2.03-.74-4.18-1.22-6.28-1.8-.21-.06-.47-.18-.63-.12-4.39,1.58-8.67-.43-13.03-.33-3.42.08-6.85-.27-10.28-.46-3.65-.2-7.29-.5-10.94-.63-6.75-.25-13.51-.37-20.26-.63-5.42-.21-10.84-.55-16.26-.8-.87-.04-1.8-.06-2.61.17-.49.14-1.12.82-1.08,1.22.03.39.78.98,1.29,1.05,3.07.39,6.16.66,9.25.97,1.63.17,3.26.34,4.88.86-4.37.25-8.73.5-13.1.75-4.05.23-4.34.64-4.59,4.3-.23,3.44-.8,6.86-1.19,10.29-.29,2.55-.59,5.11-.79,7.67-.46,5.81-.93,11.63-1.27,17.45-.41,7.01-.81,14.02-1.02,21.03-.23,7.71-.23,15.42-.37,23.13-.28,15.92-.59,31.83-.88,47.75-.13,7.31-.22,14.62-.36,21.94-.18,9.09-.49,18.18-.59,27.27-.19,17.3-.18,34.6-.43,51.9-.09,6.01-.71,12.02-1.05,18.03-.57,9.85-.97,19.71-1.71,29.55-.63,8.37-1.3,16.75-2.6,25.05-1.29,8.24-4.42,16.07-8.58,23.54-1.37,2.47-2.68,4.98-4.32,7.3-1.86,2.64-4.42,4.51-7.93,5.53-4.48,1.29-7,4.3-6.75,7.52.13,1.76.6,3.5,1.02,5.23.28,1.16.7,2.29,1.14,3.41,2.64,6.86,1.76,13.62-.49,20.4-.62,1.85-.49,3.89-.91,5.8-.64,2.88-1.24,5.8-2.28,8.57-1.5,4-3.33,7.91-5.15,11.81-.45.96-1.28,1.88-2.19,2.55-2.89,2.12-5.91,4.09-8.84,6.16-.86.61-1.56,1.39-2.4,2.02-1.35,1.03-1.75,2.16-.38,3.59-5.13.85-8.97,3.32-12.55,6.11-3.62,2.82-4.99,6.77-6.22,10.74,0-2.16-.41-4.4.11-6.45.56-2.18,2.56-3.79,4.54-5.2,1.04-.74,2.15-1.43,3.33-1.95,4.23-1.85,5.53-5.2,5.66-9,.03-.84-1-2.03-1.91-2.51-2.1-1.09-4.41-1.86-7.22-.75-.03,2.68-.53,5.35-2.93,7.46-1.43-.51-2.41-1.4-3.16-2.74-.6-1.08-1.76-1.92-2.63-2.83.7-.2,1.56-.45,2.96-.86-2.37-1.05-4.05-1.84-6.36-1.57-1.89.22-3.98-.07-5.8-.62-1.05-.32-1.93-1.5-2.54-2.47-.58-.92-.72-2.06-1.08-3.17-1.1-.71-2.16-.73-3.62-.45-3.52.69-7.13,1.2-10.78.84-.43-.04-.93-.12-1.24-.35-2.17-1.64-4.85-1.42-7.4-1.63-.54-.04-1.16-.06-1.62.14-3.42,1.49-7.01,1.46-10.67.96-.7-.93-1.44-1.92-2.41-3.2.56-.71,1.31-1.64,2.06-2.57-.17.53-.34,1.06-.69,2.13,1.14-.43,1.95-.66,2.66-1.05.16-.08,0-1-.08-1-.66-.06-1.34,0-2.01.02ZM183.17,279.67c-.88.48-1.88.89-1.33,2.43.53-.99.92-1.71,1.29-2.44v-2.72c-1.26,1.44-.49,2.07.05,2.72ZM192.38,288.05c-.52.2-1.46.37-1.49.61-.19,1.65-1.31,1.77-3.02,1.72.87.96,1.75,1.91,2.73,2.99.99-.61,1.84-1.14,2.61-1.61-.19-1.42-2.06-2.29-.88-3.73.31-.78.62-1.55.92-2.28-1.43.09-.59-2.62-3.05-1.96.74,1.46,1.46,2.86,2.17,4.26ZM191.87,199.36c.94-.19,1.87-.45,2.82-.57,2.37-.3,2.75-.78,2.27-2.87-.12-.52-.09-1.08-.06-1.62.05-.92.56-2.05.13-2.71-.43-.66-1.78-.83-2.92-1.3.38-.87.81-1.83,1.37-3.11-1.11-.38-2.11-.72-3.84-1.3.84,3.23-.61,5.8.74,8.4.88,1.69.5,3.46-.51,5.09.2,3.94-.49,7.74-2.42,11.45,3.22,1.28,1.9,3.01.99,4.34.72,1.33,1.52,2.34,1.8,3.44.29,1.14.06,2.38.06,3.57.85-.22,1.41-.62,1.35-.91-.5-2.25,1.81-4.29.56-6.61-.16-.29.39-.87.57-1.33.25-.64.66-1.29.65-1.94-.02-2.32-.19-4.64-.32-7.14.34-.36.87-.92,1.74-1.84-1.82-1.11-3.41-2.08-5-3.05ZM186.76,162.62c1.05-.09,2.66,1.1,2.85-1.24-1.05.47-1.99.88-2.92,1.29.16-1.43.37-2.86.47-4.3.07-1.04,0-2.09,0-3.13,2.32.81,2.23,3.01,3.16,4.53.81.06,1.47.11,2.23.16-.16.65-.19,1.06-.36,1.41-.98,2.01-2.01,4,.31,5.9.25.2.27.76.19,1.12-.35,1.61-.79,3.2-1.16,4.8-.13.56-.45,1.33-.17,1.69,1.05,1.37-.76,3,.61,4.29.12.11-.03.66-.23.78-1.97,1.2-.22,2.26.18,3.32.52,1.39,1.66,1.99,3.46,1.75.5-2.31,1.82-4.53-.86-6.55-1.03-.78-.83-1.94.07-2.94.54-.59,1.37-1.32,1.31-1.93-.17-1.77.58-3.22,1.32-4.75.57-1.18.5-2.24-.82-3.15-.73-.5-1.19-1.32-1.89-2.14,2.73-1.67,2.67-4.22,3.26-6.46.23-.89-.3-2.15-.93-2.97-1.12-1.44-.97-2.66-.09-4.09.5-.8.87-1.79.87-2.69-.02-2.59-.79-5.2,1.12-7.61.43-.54.4-1.6.15-2.3-.68-1.88-.02-3.44,1-5.02.94-1.44,1.34-3.01,1.23-5.02-3.24,1.49-5.08,3.44-5.63,6.36-.58,3.09-1.25,6.17-1.87,9.24-.81-.09-1.45-.17-2.32-.27.21.95.36,1.59.49,2.17-.83.43-1.53.8-2.03,1.05.9,1.59,1.89,2.9,2.38,4.35.51,1.51-.43,2.72-2.17,2.6-2.3-.15-2.67.86-2.7,2.43-.66-.24-1.32-.48-2.44-.88-.13,1.51-.24,2.65-.33,3.79-.1,1.27-.15,2.54-.29,3.81-.18,1.74-.74,3.51-.56,5.22.51,4.82.02,9.61-.3,14.39-.31,4.69-1.59,9.31-.8,14.07.33,2-.45,4.21.16,6.1.97,2.98-.46,5.82.1,8.75.27,1.43-1.23,3.28-.68,4.5,1.06,2.39-.17,4.38-.36,6.55-.13,1.45.19,3.02-.34,4.33-.47,1.14-.49,2.19-.07,3.11.72,1.6.32,3.03-.08,4.56-.23.91-.24,1.9-.14,2.84.12,1.15.69,2.28.65,3.41-.14,3.73-.71,7.45-.65,11.18.04,2.71-.76,5.47.41,8.19.45,1.05.71,2.59.16,3.47-1.59,2.57.11,4.97,0,7.44-.02.42.44.85,1,1.86.36-3.14.56-5.59.95-8.02.41-2.53.79-4.99-.44-7.46-.32-.64.03-1.56.08-2.35.05-.79.16-1.57.14-2.36-.11-3.54-.4-7.07-.36-10.6.04-3.93.32-7.86.59-11.78.29-4.21.66-8.42,1.03-12.63.18-2.13.68-4.28.57-6.4-.2-4.01-.48-8,.01-12.01.15-1.25-.32-2.55-.27-3.82.09-1.98-1.13-3.94-.02-5.97.28-.52-.15-1.33-.23-2.01-.1-.86-.39-1.77-.21-2.58.96-4.29.47-8.73,1.73-12.99.16-.54-.18-1.18-.11-1.75.28-2.2-.96-4.52.6-6.65ZM134.93,457.76c-1.16.63-2.4,1.26-3.57,1.97-1.48.89-1.57,1.71-.6,3.34.21.36.28.88.19,1.28-.16.67-.73,1.31-.71,1.95.02.82.22,1.85.81,2.35.41.34,2.04.21,2.39-.21,1.45-1.74,3.45-1.06,5.19-1.35q1.69,2.62,4.8,1.41c0-.97-.45-2.27.08-2.87,1.57-1.77.34-3.51.29-5.22-.02-.75-.68-1.5.25-2.1.94-.61,1.84-.39,2.69.29,1.06.85,2.25,1.05,3.92.24-.65-.51-1.03-1.08-1.5-1.13-3-.36-4.52-1.75-3.98-4.82-1.58.58-2.77,1.03-3.98,1.46-2.07.73-2.25,1.02-1.8,2.99.08.36.05.74.09,1.59-1.71-.43-3.12-.79-4.57-1.16ZM158.3,440.69c2.18-.86,2.52-2.12,2.91-3.36.5-1.56.72-3.29,1.66-4.6,1.53-2.14,2.23-4.8,1.35-7.04-.3-.77-.22-1.66-.38-3.03-1.39-.49-1.89-1.93-1.07-3.66-3.09-.96-5.11-2.67-6.31-5.51.96-.28,1.68-.44,2.34-.7.23-.09.34-.42.6-.77-.46-.25-.81-.44-1.17-.63-.43-.22-.87-.43-1.3-.63.33-.59.54-.99.79-1.42-2.28-.12-3.13.72-2.87,2.72.51,3.85.29,7.83,2.81,11.31.44.61.28,1.55.54,2.29.17.5.5,1.18.94,1.33,1.56.53,1.2,1.45.85,2.43-.95,2.62-2.27,5.04-5.19,6.83,1.25,1.59,2.34,3,3.48,4.45ZM152.82,401.31c.13.16.27.31.4.47,2.06.32,4.12.64,6.22.97.49-1.22.27-2.18-.85-3.16-1.63-1.43-1.39-2.41.41-3.72.55-.4.92-.99,1.48-1.62-2.03-.87-2.43-2.12-1.41-3.38,1.33-.81,2.66-1.61,4.13-2.51-.81-1.21.04-2.75-2-3.49-.23,2.08-1.03,3.58-3.41,3.95-.39.06-.62.76-.98,1.12-.8.79-1.56,1.66-2.49,2.3-1.68,1.14-1.74,1.45-.31,2.87.46.46,1.07,1.12,1,1.62-.22,1.66.19,3.6-2.19,4.59ZM161.99,273.7c1.22.43,1.69.59,2.54.89-.32-1.4-.59-2.53-.89-3.85,3.01-2.23,1.14-4.54-.4-6.87-.17.92-.23,1.85-.04,2.75.26,1.19-.05,2.03-.66,3.2-1.63,3.09-3.63,6.42-.58,9.88.43.49.57,1.31.53,1.97-.12,2.06,1.2,2.96,3.37,3.64-.15-2.1.08-4.06-.5-5.81-.62-1.87-2-3.53-3.36-5.8ZM109.12,59.1c2.83-.57,5.95-1.16,9.04-1.87.46-.11.74-.83,1.1-1.27-.6-.28-1.26-.88-1.8-.8-4.79.71-9.56,1.55-14.35,2.32-1.3.21-2.63.24-3.91.52-.33.07-.5.75-.75,1.14.44.21,1.05.7,1.3.58,2.93-1.42,6-.88,9.36-.63ZM162.8,465.04c-4.04-.57-5.83,1.48-7.11,4.17-.21.45-.55.86-.7,1.33-.29.87-.48,1.77-.72,2.65.25.15.5.29.74.44,2.35-1.56,4.73-3.07,7.03-4.69,2.07-1.46,2.03-1.51.75-3.9ZM213.98,16.38c-2.46,0-4.37.31-6.1-.06-4.41-.93-8.76-.14-13.13.01-.66.02-1.34.06-1.97.22-1.17.29-1.3.94-.44,1.93,3.4-.22,6.9-.59,10.41-.63,5.53-.07,9.32-.38,11.23-1.47ZM154.99,369.36c-.2-.2-.4-.41-.6-.61-1.89.86-3.94,1.53-5.62,2.64-1.69,1.12-1.52,2.14-.1,3.68.42.46.73,1.01,1.11,1.56,3.89-1.37,3.83-4.71,5.21-7.28ZM133.52,435.57c-.84.88-1.68,1.76-2.52,2.64-.71.75-1.24,1.33-.79,2.59.24.67-1.36,1.83-2.01,2.82-.13.19.26.65.75,1.76,2.5-3.31,4.47-6.11,4.57-9.81ZM101.61,460.72c2.88,1.1,4.57.38,6.09-1.24-.85-1.07-1.6-2.01-2.27-2.86-3.97-.32-2,2.88-3.83,4.1ZM187.53,266.15c1.59,1.6,3.01,3.02,4.68,4.7.73-2.36.56-4.08-.84-5.6-1.21.28-2.26.53-3.84.9ZM164.35,235.05c1.75-2.66,2.93-5.31.78-8.24-.75.42-1.97.44-1.27,1.8.24.47.19,1.07.23,1.62.1,1.61.18,3.21.27,4.82ZM184.92,18.46c-2.11-2.08-3.7-2.25-4.93-1.14-.33.3-.61.9-.49,1.26.1.32.81.75,1.19.7,1.42-.18,2.82-.53,4.23-.82ZM165.65,238.26c-.67,1.37-1.21,2.51-1.77,3.64-.52,1.04-1.66,2.02-.59,3.15,1.02-1.35,1.92-2.58,2.86-3.79.8-1.02.86-1.94-.5-3ZM192.1,245.1c.6-1.15.92-1.98,1.42-2.7.98-1.44,1.02-1.41-.53-2.99-1.09,1.72-2.9,3.32-.89,5.69ZM152.5,444.45c1.42-1.34,3.93-1.05,3.41-3.35-.26-1.15-1.09-1.67-2.55-.75,2.13,1.65-1.23,2.04-.86,4.1ZM177.97,19.26c-1-1.91-2.55-1.56-3.78-1.5-.9.05-1.48.74-.9,1.78,1.39-.08,2.76-.17,4.67-.28ZM224.48,15.79c-1.43,0-2.79-.64-3.46.86-.13.3.7,1.32,1.2,1.39,1.59.24,1.9-.85,2.25-2.25ZM329.21,53.17c.25-2.66-.21-3.74-2.26-5.75-.08,2.11.28,3.9,2.26,5.75ZM71.94,39.69c-.01.29-.02.58-.03.87,1.1.15,2.2.38,3.31.4.3,0,.86-.65.84-.99-.02-.3-.69-.81-1.04-.8-1.03.06-2.05.33-3.07.52ZM96.91,33.91c-2.87-.66-4.1,1.26-6.08,1.99.2.36.6.65.78.56,1.65-.75,3.26-1.56,5.29-2.56ZM315.17,43.96c1.03,1.13-.14,3.43,2.66,3.88.59-2.25-1.32-2.91-2.66-3.88ZM54.89,44.74c.07.28.15.56.22.84,1.61-.44,3.21-.88,5.26-1.44-2.65-1.8-3.85.3-5.48.6ZM155.95,404.87q1.26,1.31,3.6,1.74c-.21-1.91-.48-2.04-3.6-1.74ZM215.9,16.25c-.23,1.45.63,1.83,1.69,1.79,1.01-.04,1.53-.62,1.14-1.79h-2.82ZM189.22,280.18c1.02.94,1.68,1.56,2.94,2.72.21-1.66.32-2.54.49-3.86-1.29.43-2.12.7-3.43,1.13ZM147.04,453.73c-.03,1.71.32,2.58,1.68,2.65.44.02.91-.53,1.64-1-1.17-.58-1.98-.99-3.32-1.66ZM190.66,319.62c-2.1.77-2.73,2.03-1.45,4.1.56-1.6,1.01-2.85,1.45-4.1ZM135.86,476.04c-3.07-.76-3.1-.73-2.62,1.57.77-.46,1.46-.87,2.62-1.57ZM191.67,247.3q-.27,3.24,1.61,3.21c-.49-.97-.94-1.88-1.61-3.21ZM371.58,21.99c-1.18.42-1.25,1.11-.75,1.9.1.16.55.16,1.04.28.09-.58.22-1.04.19-1.5-.01-.23-.3-.45-.48-.69ZM162.87,339.98c-.05-1.8-.06-2.86-1.54-3.57-.74,1.49.03,2.28,1.54,3.57ZM104.09,31.94q1.87,1.03,3.2-.49c-1.16.18-2.03.31-3.2.49ZM332.72,26.35c-.27.22-.54.45-.82.67.76.64,1.52,1.27,2.28,1.91.18-.14.36-.29.54-.43-.67-.72-1.33-1.43-2-2.15ZM304.26,55.91q-.91-2.12-2.79-1.61c.93.53,1.64.94,2.79,1.61ZM145.08,376.36c2.04,1.22,2.06,1.21,2.37-.89-.83.31-1.53.58-2.37.89ZM191.16,257.85q2.24-.25,2-2.79c-.83,1.16-1.34,1.87-2,2.79ZM168.82,396.63c-.69-.68-1.17-1.16-1.65-1.65-.24.27-.69.55-.69.82.03,1.08.82,1.16,2.34.83ZM194.9,261.42c-.84.99-1.38,1.62-2.36,2.76,1.72-.65,3.45-.41,2.36-2.76ZM150.61,449.35c.62.4,1.08.9,1.41.84.37-.06.64-.63.95-.98-.43-.23-.83-.57-1.29-.63-.25-.03-.59.4-1.08.77ZM135.14,25.73c.38-.48.77-.76.76-1.04,0-.24-.43-.66-.69-.67-.27,0-.78.37-.79.59-.02.29.36.59.72,1.12ZM168.19,403.34c-.7-.25-1.13-.54-1.53-.51-.26.02-.47.5-.7.78.41.25.79.59,1.24.7.17.04.5-.47,1-.97ZM189.07,17.75c-1.24.87-1.33,1.55.34,2.2-.15-.97-.24-1.58-.34-2.2ZM193.53,260.11c-.52-.27-.95-.64-1.14-.56-.32.14-.67.57-.66.86.01.24.53.47.82.7.26-.27.53-.55.97-1ZM162.68,326.76c-.2.05-.39.09-.59.14.13.48.26.97.39,1.45l.66-.15c-.15-.48-.31-.96-.46-1.44ZM163.15,322.89c-1.22.15-1.94.24-3.15.39,1.46,1.01,2.19,1,3.15-.39ZM161.5,256.91c.25.02.49.03.74.05v-1.89c-.2,0-.41-.01-.61-.02-.04.62-.08,1.24-.13,1.85ZM101.01,32.75c-.08.16-.16.31-.24.47.54.24,1.08.49,1.61.73.09-.18.19-.37.28-.55-.55-.22-1.1-.43-1.65-.65ZM322.5,53.18c.23-.16.46-.31.69-.47-.44-.42-.88-.85-1.32-1.27-.16.13-.32.25-.49.38.37.45.75.91,1.12,1.36ZM162.72,330.71c-.19-.19-.37-.39-.56-.58l-1.28.98c.2.19.55.57.58.55.44-.29.85-.63,1.26-.96ZM93.26,60.07c-.07.15-.14.3-.21.46.57.22,1.14.45,1.71.67.08-.16.15-.31.23-.47-.57-.22-1.15-.44-1.72-.66ZM209.43,65.97c-.21.35-.47.58-.44.78.02.18.36.32.57.48.16-.21.44-.41.44-.62,0-.17-.31-.36-.57-.64ZM128.45,292.98c-.14,0-.27,0-.41,0v4.43c.14,0,.27,0,.41,0v-4.43ZM193.89,234.25c0-.29.03-.61,0-.61-.27-.05-.56-.04-.84-.04.01.17-.04.46.05.5.23.11.52.11.79.15ZM151.36,475.39c-.17.02-.34.03-.51.05,0,.27-.09.58.02.81.12.25.43.43.65.65.13-.08.26-.16.38-.24l-.55-1.27ZM146.16,464.04c.22.07.44.14.67.21.17-.55.34-1.09.52-1.64-.17-.05-.35-.1-.52-.15-.22.53-.44,1.06-.66,1.59ZM163.83,258.17c-.27.35-.48.55-.56.78-.03.09.28.4.35.38.26-.08.6-.22.7-.41.06-.13-.25-.4-.48-.74ZM170.35,405.67c.25-.03.49-.06.74-.09-.15-.47-.29-.95-.44-1.42l-.55.11c.08.47.16.93.25,1.4ZM194.93,236.11c-.55-.19-.84-.38-1.1-.35-.24.02-.45.28-.67.44.18.2.32.51.54.57.18.04.45-.22,1.23-.65ZM146.56,449.13c.21.14.44.36.49.33.25-.15.45-.37.67-.56-.2-.15-.41-.29-.61-.44-.18.22-.36.45-.54.67ZM162.63,312.96l.49-.28c-.24-.34-.48-.68-.75-1,0-.01-.3.17-.47.26.24.34.49.68.73,1.02ZM299.67,51.97c-.16-.08-.34-.24-.48-.22-.12.02-.19.25-.29.39.16.08.34.24.49.21.11-.02.19-.25.28-.39ZM168.67,60.47c-.15-.05-.3-.11-.46-.14-.03,0-.15.16-.13.2.08.12.2.22.31.32.09-.13.18-.26.27-.39ZM87.17,36.31c-.16.08-.41.14-.45.26-.04.12.11.3.17.46.22-.11.43-.22.65-.34-.12-.13-.25-.25-.38-.38ZM162.44,333.91c-.36-.19-.57-.35-.82-.41-.07-.02-.35.28-.32.37.08.22.29.4.44.59.19-.15.39-.31.69-.55ZM14.68,75.14c-.18-.03-.35-.09-.53-.09-.05,0-.17.2-.15.22.12.12.27.21.41.32.09-.15.18-.3.26-.44ZM170.45,20.01c-.12,0-.25,0-.37,0v1.14c.12,0,.25,0,.37,0v-1.14ZM164.03,252.36c-.12.64-.24.87-.17.96.19.21.47.35.72.52-.13-.36-.27-.72-.55-1.48ZM49.25,47.24c.02-.08.05-.15.07-.23-.15-.03-.3-.07-.45-.08-.01,0-.04.14-.07.22.15.03.29.06.44.09ZM132.47,423.07l-.29-.43c-.05.16-.13.33-.15.5-.01.08.07.17.11.25.11-.1.22-.21.33-.31ZM182.53,274.27c.17-.2.36-.38.46-.6.03-.05-.33-.33-.35-.31-.22.14-.4.33-.59.5.13.11.26.23.48.41ZM324.57,41.77c-.09.01-.27.03-.27.04,0,.14.04.29.07.43.09-.01.27-.03.27-.04,0-.15-.04-.29-.07-.43ZM144.02,378.05c-.08.03-.21.06-.22.1,0,.07.06.15.09.23.08-.03.21-.06.22-.1,0-.07-.06-.15-.09-.23ZM189.94,224.4c-.15-.1-.3-.2-.45-.3-.09.15-.27.31-.24.44.03.12.27.21.42.31.09-.15.19-.3.28-.45ZM34.57,81.59c.09-.13.28-.29.25-.4-.03-.14-.24-.24-.37-.36-.12.19-.25.37-.37.56.16.07.33.14.5.21ZM164.66,460.27c.13.11.27.23.41.34.01-.16.04-.33.02-.49,0-.08-.11-.15-.17-.23-.08.12-.17.24-.26.38ZM162.95,239.23c.16.08.32.16.48.25.09-.14.25-.3.24-.43,0-.09-.32-.25-.42-.21-.14.05-.2.26-.3.4ZM190.15,326.44c-.06-.07-.1-.19-.18-.21-.08-.02-.19.05-.29.08.1.12.19.23.29.35.06-.07.12-.14.18-.22ZM17.2,74.23c-.03-.08-.04-.2-.11-.23-.07-.03-.19.01-.28.02.06.13.11.25.17.38.07-.06.15-.11.22-.17Z"/>
  <path class="cls-1" d="M383.12,15.26c1.86.52,3.25,1.04,4.69,1.28,2.31.37,2.58,1.84,2.59,3.46.02,3.93-1.57,6.68-5.64,7.11-.53-3.8-1.06-7.61-1.65-11.84ZM387.33,22.52c-.16-.11-.32-.31-.47-.3-.15,0-.29.22-.44.34.21.15.42.29.64.44.09-.16.18-.32.27-.48Z"/>
  <path class="cls-1" d="M145.17,477.95c-1.63,1.36-2.86,2.38-4.8,3.99.59-2.38-.53-3.05-2.16-3.23q1.14-1.66,6.97-.76Z"/>
  <path class="cls-1" d="M334.05,12.7h-7.5c-.16-2.02.18-2.53,1.41-2.14,2.04.64,4.03,1.41,6.09,2.14Z"/>
  <path class="cls-1" d="M322.03,10.38c-.8.04-1.61.08-2.83.15q1.31-1.17,2.83-.15Z"/>
  <path class="cls-1" d="M124.76,341.2c-1.28-1.87-.74-3.93-.36-5.98.12,1.99.24,3.99.36,5.98Z"/>
  <path class="cls-1" d="M312.88,8.76c.6.1,1.21.2,1.81.3-.01.11-.03.22-.04.33-.61-.04-1.22-.08-1.83-.11l.05-.52Z"/>
  <path class="cls-1" d="M343.32,47.22c-.11-.53-.22-1.06-.34-1.58.2-.05.4-.1.61-.15.18.56.36,1.11.54,1.67-.27.02-.54.04-.81.06Z"/>
  <path class="cls-1" d="M124.36,320.42c.06.92.12,1.83.18,2.75-.11,0-.22,0-.33.01v-2.75c.05,0,.1,0,.15-.01Z"/>
  <path class="cls-1" d="M2.37,70.25c.39.24.79.47,1.15.74.04.03-.16.31-.25.47-.43-.2-.85-.39-1.28-.59l.38-.63Z"/>
  <path class="cls-1" d="M124.31,499.45h2.78c-.03.18-.06.37-.08.55-.9-.19-1.8-.37-2.7-.56h0Z"/>
  <path class="cls-1" d="M136.95,481.57c.25-.11.51-.22.78-.33.09.21.17.42.26.63-.27.09-.53.19-.81.23-.03,0-.13-.3-.23-.54Z"/>
  <path class="cls-1" d="M124.31,499.44c-.14-.94-.28-1.88-.42-2.83.14-.01.28-.02.42-.04,0,.96,0,1.91,0,2.87,0,0,0,0,0,0Z"/>
  <path class="cls-1" d="M367.67,15.91c-.11-.14-.21-.28-.31-.42.19-.03.37-.08.56-.08.06,0,.18.19.17.2-.13.11-.27.2-.42.3Z"/>
  <path class="cls-1" d="M127.99,491.95c-.21-.21-.42-.34-.41-.44.02-.16.16-.35.31-.43.09-.05.3.08.46.13-.11.22-.21.43-.36.74Z"/>
  <path class="cls-1" d="M191.71,156.38c-.23-.36-.49-.59-.47-.79.01-.18.33-.33.52-.5.17.2.44.4.47.61.02.17-.27.37-.51.68Z"/>
  <path class="cls-1" d="M142.36,457.45c-.13.12-.26.24-.38.37-.11-.12-.24-.24-.32-.38-.02-.03.15-.2.19-.19.18.04.34.13.52.2Z"/>
  <path class="cls-1" d="M137.36,462.54c-.43.37-.86.73-1.72,1.47.2-1.49.87-1.51,1.64-1.39l.08-.08Z"/>
  <path class="cls-1" d="M137.28,462.62c.37.43.75.86,1.12,1.29-.22.09-.44.19-.66.28-.13-.55-.26-1.09-.38-1.64,0,0-.08.07-.08.07Z"/>
</svg>