<?xml version="1.0" encoding="UTF-8"?>
<svg id="Layer_1" data-name="Layer 1" xmlns="http://www.w3.org/2000/svg" viewBox="0 0 424.4 500">
  <defs>
    <style>
      .cls-1 {
        fill: #000;
        stroke-width: 0px;
      }
    </style>
  </defs>
  <path class="cls-1" d="M423.06,66.91c-.44-.26-1.15-.68-1.83-1.08-.45.03-1.05.24-1.51.06-3-1.13-6.07.14-7.46,3.17-.73,1.6-4.21,2.91-6.1,2.29-2-.66-4.58-.29-5.13-3.4-.15-.83-1.46-1.53-2.35-2.12-.32-.22-.96.07-1.46.09-1.5.06-3.04-.12-4.47.22-1.61.38-3.28.97-4.59,1.93-1.24.91-2.01,2.45-3.07,3.64-.89,1-1.93,1.87-2.86,2.84-.91.96-1.76,1.97-2.44,2.74-2.13-.11-3.96-.2-5.85-.3-.1-.49-.2-.86-.25-1.24-.3-2.02-1.62-2.88-3.39-2.02-1.26.62-2.73,1.29-3.46,2.38-.57.84-.44,2.45-.07,3.53.35,1.01.27,1.49-.62,1.78-1.55.51-3.11,1.03-4.7,1.33-1.11.2-1.89-.37-2.32-1.58-.17-.49-1.15-1.02-1.71-.97-1.9.15-3.92-.59-4.7-2.19-.72-1.49-1.12-3.37-3.1-1.06-.17.2-.73.06-1.21.08,0,.29.07.56-.01.77-.33.9-.69,1.78-1.05,2.67-.76-.76-1.56-1.48-2.26-2.3-.4-.47-.61-1.1-.91-1.65-.59.39-1.17.81-1.78,1.16-.49.27-1.17.77-1.53.62-1.67-.7-3.06-.28-4.36.92-.1-.14-.2-.27-.3-.41.31-.33.66-.64.93-1.01.28-.39.64-.82.69-1.26.06-.51-3.46-2.97-3.96-3.1-.81-.21-1.56-.61-2.34-.93.05-.22.09-.44.14-.66.76-.24,1.53-.48,2.13-.66-.99-1.02-2.03-2.09-3.33-3.42-.57.96-1.17,2-1.87,3.18-1.26-.48-2.65-1-3.51-1.33-1.24.3-2.14.39-2.91.75-.49.23-.97.79-1.14,1.3-.23.7-.16,1.51-.22,2.26-2.67.47-.98-2.47-2.6-2.89-.15.13-.42.36-.68.58-.4-.44-.8-.87-1.19-1.31-.18-.09-.37-.17-.55-.26.69,3.2-2.34,2.58-3.36,4.04-.52.75-1.18,1.4-1.78,2.1.81.36,1.61.73,2.42,1.1.11.05.19.15.32.25-1.15.39-2.28.77-3.62,1.22.13.05-.03.04-.11-.05-2.12-2.18-2.5-2.19-5.22-.84-1.9.94-3.83,1.19-6.02.54-1.58-.47-3.41-.02-5.09-.26-1.68-.24-3.3-.83-4.95-1.29-.71-.2-1.38-.5-2.09-.72-1.24-.38-2.49-.75-3.74-1.09-.62-.17-1.26-.29-1.9-.36-2.05-.22-4.14-.25-6.15-.66-1.41-.29-2.7-1.11-4.06-1.64-.45-.18-.95-.27-1.44-.3-2.58-.17-5.18-.2-7.75-.52-.86-.11-1.59-1-2.45-1.38-.55-.24-1.41-.47-1.82-.21-1.11.69-1.9.38-2.82-.28-.48-.34-1.23-.74-1.71-.6-2.57.77-4.91.59-7.11-1.05-.37-.28-.98-.32-1.48-.32-3.34.03-6.57-.71-9.84-1.19-4.82-.71-9.5-2.34-14.59-1.59-3.46.51-7.1-.34-10.65-.25-2.54.07-5.09.56-7.58,1.12-2.53.58-4.97,1.56-7.5,2.17-.57.14-1.64-.41-1.96-.94-.89-1.52-1.64-1.26-2.7-.24-.96.93-2.1,1.67-3.09,2.58-.37.34-.53.91-.78,1.38.44.18.9.54,1.32.5,2.92-.31,5.26,1.13,7.57,2.21,1.18-.27,2.3-.52,2.89-.65,2.36,1.62,4.31,3.11,6.42,4.33.94.54,2.19.57,3.31.76,2.91.47,5.83.9,8.75,1.34.13.02.26.08.38.07,5.1-.54,8.9,2.74,13,4.77,3.01,1.49,5.3,4.39,8.12,6.36,3.15,2.2,4.81,5.35,6.1,8.72,1.59,4.14,3.33,8.3,4.25,12.61,1.32,6.23.76,12.55-.34,18.84-1.03,5.89-1.83,11.81-2.67,17.73-.65,4.56-1.23,9.14-1.84,13.71-.6,4.57-1.11,9.15-1.82,13.7-.72,4.57-1.69,9.11-2.46,13.67-.49,2.89-.58,5.88-1.29,8.71-.87,3.45-1.29,6.94-1.83,10.43-.57,3.69-1.24,7.37-1.8,11.06-.74,4.83-1.46,9.67-2.13,14.51-.51,3.69-.87,7.4-1.43,11.08-.27,1.78-1.39,3.59-1.14,5.24.26,1.71-.12,3.14-.32,4.72-.48,3.73-.85,7.48-1.14,11.22-.35,4.62-.5,9.25-.88,13.86-.28,3.46-.78,6.91-1.17,10.36-.3,2.66-.49,5.33-.88,7.97-.84,5.73-1.85,11.43-2.66,17.16-.44,3.1-.53,6.25-.94,9.35-.68,5.17-1.57,10.3-2.23,15.47-.41,3.26-.69,6.56-.81,9.84-.24,6.86-.25,13.73-.5,20.59-.26,7.12-.65,14.23-1.04,21.34-.22,4.03-.45,8.06-.9,12.06-.23,2-.53,3.95-.62,5.98-.25,5.38-.94,10.73-1.46,16.1-.29,2.94-.54,5.88-.91,8.81-.83,6.66-1.71,13.32-2.6,19.98-.61,4.56-1.16,9.12-1.92,13.65-.88,5.21-1.88,10.4-2.99,15.56-.37,1.75-1.13,3.45-1.88,5.09-.26.57-.99.94-1.57,1.33-.24.16-.73.01-.92.19-1.89,1.83-3.42,1.57-5.2-.36-.6-.65-1.42-.83-1.19-1.97.08-.42-.27-.92-.42-1.39-.13-.39-.45-.86-.35-1.17.88-2.55.62-3.26-1.95-4.82q-2.17-1.31-3.82-.76c.08,1.15.19,2.34.23,3.53.04,1.44-.73,2.01-2.09,1.6-.67-.21-1.36-.4-1.99-.7-1.53-.74-2.82-.47-3.58.56-1.64-.38-3.04-.59-4.36-1.05-.66-.23-1.34-.8-1.7-1.41-.75-1.28-1.29-1.95-2.71-.6-.89.85-2.23,1.23-3.38,1.8-1.16.59-2.46,1.06-1.41,2.81.15.25-.05.96-.32,1.18-1.15.95-2.47,1.69-3.55,2.7-.92.86-1.44,2.23-2.44,2.92-2.72,1.87-5.68,3.12-9.15,2.32-.47-.11-1.23.3-1.61.7-1.16,1.25-2.3,1.01-3.55.22-.69-.44-1.43-.81-2.44-1.37.39,1.87-.71,1.66-1.74,1.43-.25.97-.45,1.77-.69,2.72-1.62-.63-3.21-1.24-4.69-1.81-.94.48-1.78.91-2.9,1.49v-4.17c-1.89.73-3.56,1.37-5.38,2.07-.1-1.08-.19-2.12-.3-3.3-1.45.19-2.29-.26-3.15-1.66-1.01-1.63-2.83-2.79-4.39-4.03-.42-.33-1.18-.22-2.09-.37.79-1.41,1.49-2.65,2.2-3.92-.54-.68-1.04-1.33-1.6-2.04.29-.26.59-.52,1.07-.94-.77-.17-1.3-.28-2.06-.45.3-3.83.47-7.61.94-11.36.46-3.69,1.27-7.34,1.82-11.02.15-.99-.29-2.06-.13-3.04.53-3.11,1.33-6.18,1.81-9.31.29-1.88-.02-3.85.27-5.73.39-2.6,1.08-5.15,1.68-7.71.06-.27.39-.49.33-.42-.3-.88-.78-1.58-.7-2.21.25-2,.7-3.98,1.07-5.96.09-.5.39-1.12.2-1.49-1.29-2.54-.06-4.88.44-7.28.1-.48.11-.98.14-1.47.18-3.33-.25-6.7,1.2-9.94.52-1.16.31-2.67.33-4.02.04-2.94.03-5.89.01-8.83-.02-2.22-.13-4.43-.11-6.65,0-1.34.18-2.69.26-4.03.2-3.25.52-6.5.55-9.75.03-3.17-.45-6.36-.33-9.52.08-2.26.88-4.49,1.17-6.76.13-1-.01-2.16-.43-3.07-.65-1.43-.03-3.09,1.99-3.82-.43-1.14-.82-2.31-1.31-3.43-.71-1.61.18-4.23,1.71-5.1.59-.34,1.08-.88,1.56-1.37,1-1.01.54-1.63-.53-2.23-.69-.39-1.83-1.14-1.75-1.5.32-1.43-.38-3.23,1.72-4.13,2.18-.93,2.11-2.81.19-3.9-.15-.87-.34-1.67-.41-2.47-.06-.63-.22-1.59.11-1.85,1.34-1.06,1.47-2.19,1.26-3.84-.24-1.91.16-3.92.42-5.87.09-.65.42-1.56.93-1.82,1.49-.79,1.05-1.74.69-2.92-.31-1.01-.4-2.13-.37-3.19.07-1.97.17-3.95.5-5.89.29-1.73.9-3.41,1.37-5.11.08-.3.26-.65.18-.92-.8-2.86-.58-6.9.48-9.54.27-.67.84-1.3-.03-2.2-.36-.37.01-1.87.49-2.56,1.45-2.08,1.09-2.73.38-5.21-.49-1.7.53-3.89,1.05-5.81.22-.82.88-1.52,1.29-2.21-1.24-1.89-1.95-3.57-1.14-5.81.6-1.66.52-3.58.7-5.38.14-1.34.19-2.69.35-4.03.19-1.64.38-3.28.73-4.89.17-.76.68-1.47,1.13-2.15.48-.72,1.06-1.37,1.56-2-.73-.82-1.83-1.51-1.77-2.08.21-1.99.77-3.95,1.32-5.89.2-.72.69-1.39,1.15-2,.72-.97,1.05-1.8-.29-2.52-.24-.13-.53-.52-.49-.74.34-1.92.77-3.83,1.13-5.75.39-2.06.72-4.13,1.09-6.2.49-2.68,1.02-5.36,1.49-8.04.14-.78.07-1.61.26-2.38.38-1.51.9-2.99,1.32-4.5.13-.48.16-.99.17-1.49,0-.24-.3-.59-.22-.7,1.28-1.65.01-3.6.68-5.38.64-1.72.8-3.63,1.11-5.47.92-5.38,1.74-10.78,2.74-16.14.62-3.34,1.52-6.64,2.23-9.96.34-1.6.5-3.25.83-4.86.8-3.96,1.5-7.96,2.52-11.87.59-2.25,1.8-4.33,2.57-6.54.47-1.37.65-2.84.93-4.27.22-1.16.3-2.37.62-3.5.36-1.28.93-2.5,1.4-3.75,2.35-6.24,4.7-12.48,7.06-18.71.34-.9.85-1.75,1.06-2.68.14-.62.03-1.83-.19-1.89-.7-.18-1.76-.22-2.24.19-1.66,1.45-3.25,1.34-5.19.62-3.57-1.32-4.7-4.36-5.21-7.52-.75-4.62-.05-9.22,1.52-13.65.38-1.07,1.16-2.01,1.47-3.09.6-2.07-.63-3.32-2.81-3.07-1.34.15-2.69.4-4.03.33-2.11-.11-4.24-.82-6.29-.6-2.65.28-5.23,1.23-7.85,1.86-.51.12-1.11.21-1.58.04-2.38-.83-4.67-2.16-7.1-2.52-1.9-.27-3.97.6-5.95,1.03-.51.11-.97.48-1.92.98.38-1.05.58-1.58.87-2.38-2-.46-1.68,2-2.96,2.13q-1.29-3.89-4.2-.8c-.3.32-.9.51-1.35.48-.21-.01-.49-.67-.54-1.06-.09-.68-.02-1.38-.02-2.43.78.55,1.25.87,1.82,1.27.27-.45.51-.8.71-1.19.99-1.89,2.05-2.07,3.46-.35.96,1.17,1.43.55,2.08-.15-1.6-2.16-3.72-2.87-6.5-1.85-1.39.51-1.84.13-2.21-1.1-.18-.59-.56-1.2-1.02-1.6-.17-.15-1.15.2-1.22.47-.18.64-.04,1.37-.02,2.06,0,.18.06.36.12.68h-3.65l-.05-.56,1.79-.45c.03-.22.06-.45.08-.67-1.17-.23-2.33-.46-3.47-.69-1.38,3.99-1.98,4.35-4.84,3.2v-4.87h-5.14c.35.9,1.12,1.9.91,2.61-.24.83-1.34,1.41-2.18,2.2.35.65.78,1.45,1.35,2.51-2.42-.04-2.82-1.82-2.94-2.93-.12-1.09.91-2.3,1.47-3.54-.86-.1-1.76-.21-3.04-.37-.06.93-.12,1.89-.19,3.01-.75.37-1.61.8-2.47,1.22l-.24-.34c.29-.39.58-.79.87-1.18-2.4.94-3.89,4.44-7.08,2.19-.85,1.39-1.6,2.61-2.41,3.94-.41-.22-.83-.44-1.52-.8.63,1.67,1.16,3.09,1.69,4.5-.17.13-.34.27-.51.4-.46-.52-.87-1.11-1.41-1.53-.54-.42-1.22-.66-2.14-1.13-.04-.25-.21-.87-.23-1.49-.06-1.75-.93-2.21-2.6-1.63-1.94.67-3.96,1.1-5.93,1.64-.07-.21-.17-.35-.14-.44.3-.89,1.05-1.88.86-2.64-.34-1.41-1.73-1.21-2.92-1.1-2.62.23-2.62.22-2.46-2.34-2.22.55-4.58,1.54-6.5-.46-1.65-1.71-3.01-3.69-4.51-5.55-.74-.92-1.52-1.81-2.25-2.68-1.72.22-3.44.47-5.17.64-2.15.22-1.7-1.34-1.6-2.52-2.14-.55-4.18-.85-5.82-2.6-.69-.74-2.45-.63-3.73-.61-1.15.02-2.29.45-3.43.67-.38.07-.78.03-1.16.11-2.11.44-4.06.51-6.29-.16-2.14-.64-4.68.08-7.05.1-.82,0-1.67-.25-2.47-.5-1.95-.6-3.85-1.42-5.83-1.81-.8-.16-1.77.61-2.69.88-.45.13-1.02.27-1.43.12-1.37-.51-2.7-1.14-4.04-1.76-.21-.1-.5-.49-.47-.53,1.58-2.07-1.18-3.53-.75-5.46.26-1.14.1-2.39,1.94-2.19.57.06,1.2-.55,1.88-.9-1.95-2.4-1.02-6.91,1.49-8.87,1.82-1.43,3.87-2.49,4.42-5.24.24-1.21,1.97-2.42,3.3-3.05,5.34-2.52,10.71-5,16.22-7.11,4.14-1.58,8.51-2.59,12.79-3.8,9.78-2.75,19.82-3.96,29.87-5.09,8.93-1,17.91-1.65,26.82-2.77,9.26-1.17,18.47-2.76,27.72-4.06,2.19-.31,4.45-.14,6.66-.31,1.19-.09,2.36-.42,3.53-.69,8.52-1.95,17.18-2.92,25.89-3.41,1.26-.07,2.56.43,4.09.71.92-2.24,3.48-1.23,5.34-1.31,5.14-.21,10.3-.07,15.44.27,4.13.28,8.23,1.04,12.34,1.61,4.32.61,8.66,1.12,12.94,1.93,4.55.86,9.05,1.98,13.54,3.1,2.05.51,3.96,1.03,5.72-.73.4-.4,1.15-.53,1.77-.65,1.53-.29,3.22.03,4.42-1.38.13-.16.5-.23.73-.18,2.93.57,5.41-1.22,8.14-1.51,2.41-.26,4.87-.11,7.3-.19,1.32-.04,2.63-.16,4.46-.29.58.49,1.67,1.42,2.76,2.34-.13.2-.25.41-.38.61-1.92-1.87-3.94-3-6.94-.81,1.7.52,2.98.91,4.26,1.28.18.05.48-.09.56,0,1.11,1.21,2.22,1.65,3.66.41.63-.54,1.52-.79,2.29-1.17-.04-.16-.09-.32-.13-.48,1.91.55,3.81,1.1,5.73,1.63.54.15,1.1.29,1.66.32,6.92.42,13.85.69,20.75,1.25,4.97.41,9.92,1.13,14.85,1.86,4,.59,7.95,1.6,11.96,2.03,2.27.25,4.5,1.1,6.57,1.13,2.42.04,4.68.27,6.95.94.58.17,1.09.57,1.63.86.33.17.77.56.98.46,2.71-1.3,4.86.88,7.26,1.29,5.08.85,10.08,2.33,15.04,3.76,3.24.94,6.35,2.36,9.57,3.38,2.49.78,5.08,1.19,7.6,1.89,3.25.9,6.63-.36,9.8.5,2.84.77,5.52,2.14,8.28,3.22,1.44.57,2.91,1.04,4.33,1.66,2.1.91,4.18,1.86,6.21,2.91.77.4,1.34,1.19,2.07,1.69,1.9,1.3,3.88,2.48,5.76,3.81,2.74,1.95,4.71,4.46,6,7.64.81,2.01,2.26,3.76,3.47,5.6,1.96,2.99,2.9,6.29,2.99,9.84,0,.32-.08.64-.17.95-.34,1.19-.7,2.37-1.17,3.93ZM236.8,37.12c.49-1.13.74-1.93,1.18-2.59.23-.34.82-.43,1.24-.63.09.44.29.9.25,1.33-.06.55-.3,1.09-.42,1.48,1.28.2,2.26.35,3.22.5-.04-.76.08-1.71-.19-2.53-.23-.7-.83-1.36-1.43-1.83-.69-.53-1.56-.81-2.67-1.36-1.28.77-2.13,3.24-1.17,5.63ZM294.52,65.29c.04.73-.02,1.34.09,1.37,2.38.67,4.78,1.28,7.25,1.92-.2.88-.47,2.07-.73,3.22.57-.08,1.38-.13,2.15-.32,1.12-.28,1.46-.98.77-1.99-.39-.58-1-1.06-1.23-1.68-.52-1.46-1.47-1.57-2.76-1.25-.72.18-1.54.36-2.22.18-1.06-.29-2.04-.88-3.33-1.47ZM141.13,75.63c.45-1.55.73-2.36.9-3.19.11-.57.29-1.45.01-1.69-.43-.37-1.5-.63-1.82-.36-.77.64-1.91,1.81-1.73,2.4.31,1.01,1.53,1.73,2.64,2.85ZM201.24,28.15c-.29-.03-.59-.06-.88-.09-.14,1.1-.37,2.2-.4,3.31-.02.71.19,1.45.4,2.14.13.42.46.78.7,1.16.42-.31,1.24-.67,1.21-.91-.25-1.88-.66-3.74-1.03-5.61ZM304.94,69.09c1.79-2.02,1.94-4.02.49-6.46.64,2.18-2.14,4.1-.49,6.46ZM115.4,8.96c1.4.76,2.35,1.27,3.29,1.78l.41-.49c-.34-.91-.68-1.82-1.1-2.94-.85.54-1.47.93-2.61,1.65ZM167.95,476.97c-.02.12-.04.24-.06.35.56.7,1.12,1.4,1.7,2.09.26.3.54.7.87.77.24.05.77-.31.84-.57.09-.38.02-1.09-.22-1.22-.99-.56-2.08-.96-3.13-1.42ZM218.15,58.55c-1-.89-1.78-1.59-2.63-2.35-.86,2.4-.47,2.77,2.63,2.35ZM136.06,56.21c-.55.7-1.2,1.16-1.18,1.59.02.38.77,1.01,1.2,1.01.43,0,1.21-.65,1.2-1-.01-.46-.65-.9-1.23-1.6ZM231.79,30.79c-.48-2.96-1.18-3.46-2.92-2.21.94.71,1.85,1.4,2.92,2.21ZM377.72,67.72c-.35.04-.7.08-1.05.12.07,1.06.14,2.12.22,3.19.4-.09,1.15-.2,1.14-.28-.04-1.01-.19-2.01-.31-3.02ZM231.2,33.91c-.68-2.2-1.14-2.32-3.02-.91,1.23.37,2.12.64,3.02.91ZM131.4,68.41c.34.05.68.1,1.03.15.16-.64.32-1.28.48-1.92-.5-.1-1.01-.21-1.51-.31v2.09ZM121.78,21.63c-.19,2.18.11,2.35,2.68,1.77-.94-.63-1.68-1.11-2.68-1.77ZM232.5,37.64c1.74-.53,1.91-1.68.53-3.13-.19,1.09-.35,2.05-.53,3.13ZM265.11,11.44c.14-1.43.27-2.84.41-4.25q-1.64,3.16-.41,4.25ZM134.89,74.71c.07-.26.14-.52.2-.78-1.05-.28-2.09-.57-3.14-.85-.08.3-.16.59-.24.89,1.06.25,2.11.5,3.17.75ZM327.86,66.04c-.32.15-.64.3-.96.45.41.75.82,1.5,1.22,2.24.2-.12.6-.29.59-.34-.25-.79-.55-1.57-.84-2.36ZM185.26,1.71c.63,1.08,1.07,1.83,1.72,2.94.74-1.97.18-2.67-1.72-2.94ZM179.52,29.89c2.08.22,2.43-.58,2.75-1.4-.23-.23-.46-.45-.69-.68-.58.58-1.15,1.16-2.07,2.08ZM227.72,37.83c.32-.03.65-.05.97-.08-.05-.87-.09-1.74-.14-2.61l-1.02.07c.06.87.12,1.75.18,2.62ZM185.35,23.78c-.11,1.06-.17,1.6-.23,2.14.66-.03,1.31-.06,2.49-.12-.92-.82-1.34-1.19-2.26-2.02ZM120.94,48.94c1.7-1.41,1.78-1.89.52-3.26-.18,1.11-.31,1.96-.52,3.26Z"/>
  <path class="cls-1" d="M331.76,79.5c-1.62-.18-3.23-.37-4.85-.55.03-.27.06-.55.1-.82,1.6.22,3.2.45,4.8.67-.02.23-.03.47-.05.7Z"/>
  <path class="cls-1" d="M315.42,78.28c.69.45,1.38.91,2.49,1.63-.51.37-1,.71-1.49,1.06-.48-.84-.96-1.67-1.44-2.51.15-.06.29-.12.44-.18Z"/>
</svg>