<?xml version="1.0" encoding="UTF-8"?>
<svg id="Layer_1" data-name="Layer 1" xmlns="http://www.w3.org/2000/svg" viewBox="0 0 351.15 500">
  <defs>
    <style>
      .cls-1 {
        fill: #000;
        stroke-width: 0px;
      }
    </style>
  </defs>
  <path class="cls-1" d="M8.96,59.77c-.5,4.07.94,7.59,3.39,10.82-.25.1-.51.21-.76.31-.52-.25-1.05-.51-1.92-.93-.55.85-1.53,1.71-1.65,2.67-.37,3.06-.74,6.19.8,9.06l.69.07c.17-.83.33-1.67.51-2.56,1.03.85,1.62,2.06,1.29,3.38-.35,1.42-.37,3.04-2.13,3.9-1.22.59-.77,1.87-.31,2.92.73,1.66,1.47,3.32,2.17,5,.16.38.25.82.27,1.23.08,2.02,1.52,4.02,3.47,4.46.34.08,1.32-.84,1.26-1.14-.3-1.45-.83-2.85-1.34-4.25-.13-.37-.48-.67-.67-.91.55-.75,1.02-1.39,1.56-2.12.51.15,1.13.33,1.36.4.39,1.07.67,1.85.96,2.63.73-.37,1.45-.73,2.31-1.17.08.46.07.94.26,1.34.15.33.6.81.8.77,1.2-.28,2.41-.58,3.52-1.09,1.04-.48,1.06-2.27.29-3.41-.41-.6-.57-1.37-.93-2.02-.6-1.08-1.02-2.5-1.96-3.11-1.8-1.19-2.62-2.82-3.24-4.91,1.93-.55,2.8-1.98,3.15-3.91.06-.31.97-.53,1.53-.68,1.37-.37,2.47-.84,1.75-2.62-.11-.28,0-.72.14-1.02,1.1-2.45,1.7-4.85-.26-7.2-.16-.19.1-.75.19-1.14.12-.52.47-1.09.34-1.53-.98-3.17.55-6.29.15-9.44-.07-.53.32-1.12.5-1.69.16,0,.32.01.48.02.19.4.33.84.59,1.2.7,1,1.44,1.96,2.16,2.94.56.76,1.3,1.45,1.65,2.3.69,1.73,1.42,2.87,3.57,3.43,1.78.47,3.31,2.3,4.67,3.79.84.92,1.36,1.54,2.68.92,1.44-.67,1.01-1.72.82-2.78-.05-.28-.12-.55.13-.93.12.32.17.72.38.96.53.6,1.13,1.13,1.71,1.69.56-.72,1.41-1.38,1.61-2.19.2-.8-.12-1.82-.46-2.64-.96-2.29-2.1-4.49-3.07-6.77-.75-1.76-1.23-3.64-2.05-5.36-.69-1.45-1.84-2.68-2.51-4.13-.5-1.07-.66-2.34-.79-3.54-.15-1.32-2.16-3.47-3.76-3.82-1.7-.37-2.98-2.57-1.87-3.61,2.54-2.39.91-4.71.34-7.09-.08-.35-.3-.66-.4-1-.05-.16.03-.36.05-.57,2.51-.97,3.6,1.06,4.76,2.38.93-.9,1.95-1.52,2.39-2.43.43-.88.26-2.05.35-3.09h-2.16c-.51-1.1-1.18-2.56-1.79-3.88,1.04-.56,1.97-1.07,2.92-1.57,1.53-.8,2,.43,1.98,1.39-.09,4.2,1.94,7.76,3.23,11.54.48,1.41,1.46,2.73-.45,3.9-.4.25-.63,1.23-.51,1.78.37,1.82.82,3.65,1.47,5.4.67,1.78,1.7,1.96,3.51,1.16.88-.39,1.86-.29,2.23.86.52,1.61,1.25,3.22,1.4,4.88.25,2.84,1.48,5.21,2.83,7.6.56.99.98,2.09,1.32,3.18.66,2.11.55,2.22-1.94,2.36.41.51.64,1.09,1.04,1.24,1.89.74,2.19,2.6,3.05,4.07,1.44,2.44,3.11,4.78,4.26,7.35.79,1.76,2.44,2.29,3.77,3.39-1.06.89-1.72.77-2.49-.09-.41-.46-1.19-.59-1.81-.86-.24.61-.49,1.21-.7,1.83-.43,1.24-.71,2.54-1.27,3.71-.78,1.62-.35,2.18,1.66,1.77-1.28,1.88-.52,3.13.8,4.28.59-.47,1.19-.95,1.51-1.21,1.06.5,1.87.89,2.77,1.32-.26,1.98,1.12,3.98,3.12,5.38,1.35.94,2.26,2.51,3.35,3.81.31.37.55.78.82,1.16,2.23-1.05,2.87-1.87,3.46-4.42-.14-.09-.29-.19-.43-.28-.66,1.02-1.33,2.04-1.99,3.06-.13-.02-.26-.03-.39-.05-.04-.97-.09-1.94-.14-2.95q-2.72-1.35-1.6-4.34c1.17,1.25,2.27,2.43,3.36,3.62.17-.07.34-.15.52-.22-.04-.66-.18-1.32-.1-1.96.05-.4.42-.76.65-1.14.31.25.81.44.89.75.74,2.59,1.47,5.19,2.07,7.83.33,1.45.46,2.97.52,4.46.02.37-.51.94-.91,1.09-.3.12-.89-.19-1.19-.47-1.16-1.06-2.26-2.19-3.38-3.29-.19.09-.38.17-.57.26.05.77.33,1.62.09,2.28-.52,1.42.41,1.06,1.14,1.45.62.33,1.05,1.62,1,2.45-.13,2.02-.21,2.07,2.29,1.4.09,1.43.18,2.75.28,4.41.64-.44,1.36-.75,1.75-1.3.15-.2-.47-.95-.73-1.46-.47-.91-1.04-1.79-1.32-2.76-.12-.41.39-1.01.62-1.52.62.37,1.42.6,1.82,1.14,1.1,1.48,2.01,3.1,3.04,4.63.19.28.54.56.86.63.8.18,1.63.09,1.25-1.04-.93-2.74-1.98-5.43-2.94-8.16-.36-1.01-.62-2.06-.91-3.05,3.49-1.61,3.98-4.97,1.28-7.52-.38-.36-.76-.78-.99-1.24-2.19-4.3-4.95-8.3-6.26-13.06-.78-2.82-2.23-5.46-3.38-8.18-.66-1.56-1.66-1.85-3.22-.76.53-2.09-.73-3.23-1.59-4.77-.96-1.71-2.26-3.48-2.79-5.33-.38-1.31-1.17-3.47.84-4.8.65,2.25,1.04,4.53,3.06,6.15.66.53.85,2.03.74,3.04-.21,1.97.69,3.04,2.27,3.85.31.16.53.49.8.74.29-.38.55-.72.88-1.16,1.71,1.48,3.32,2.87,4.93,4.27-.09.21-.19.42-.28.63-1.11-.18-2.22-.36-3.49-.57.49.96,0,2.38,1.81,2.56.38.04.65,1.11,1.06,1.89h2.42c.33.75.71,1.6,1.09,2.46-.14.1-.28.19-.43.29-.37-.53-.73-1.06-1.18-1.71-.35.2-.8.46-1.33.76.63,1.44,1.22,2.8,1.98,4.56,1.17.46,2.83,1.3,4.42-.48.13-.15.77-.09.96.1,1.12,1.05,2.24.96,3.65-.16,1.43,4.13,2.8,8.07,4.27,12.31-.94-.12-1.44-.19-2.29-.3.44,1.1.81,2.01,1.18,2.92-.16-.05-.31-.1-.47-.15-.25.57-.65,1.13-.69,1.71-.04.47.35.97.55,1.46.18-.04.36-.08.53-.12.16-.47.33-.93.52-1.46.17.1.42.18.43.27.09,1.2.17,2.41.21,3.62.05,1.59.66,2.81,2.17,3.47,1.71.74,2.59,2.01,2.59,3.91,0,.18.47.36.92.68-.48.29-.93.55-1.51.9-.51-1.4.49-3.18-1.74-4.07.27,2.67-.58,5.07.89,7.32.52.8.89,1.59-.65,2-.55.15-.81,1.39-1.27,2.25.16.23.32.69.64.9,1.37.91.84,1.99.74,3.3-.13,1.59.11,3.9,1.14,4.73,2.37,1.92,2.28,4.53,2.92,6.92.38,1.43.12,3.02.3,4.52.07.59.42,1.35.89,1.65,1.63,1.03,1.84,2.58,1.88,4.26.04,1.43-.21,3.02,1.82,3.4.1.02.25.13.28.22.48,1.66,1.39,3.35,1.28,4.97-.1,1.51.35,2.49,1,3.67.51.92.67,2.05.92,3.1.14.62-.08,1.48.26,1.86,1.41,1.53,1.58,3.37,1.51,5.24-.05,1.37.29,2.4,1.23,3.45.69.77.92,1.93,1.36,2.92.17.37.34.74.51,1.11.2-.14.41-.29.61-.43v-3.33c.24,0,.48-.02.72-.03.04,1.89.06,3.78.11,5.67.02.69,0,1.42.21,2.06.53,1.58,1.18,3.13,1.79,4.68.45,1.14.92,2.28,1.37,3.42.19,0,.39-.01.58-.02.24-.43.39-.95.73-1.28.49-.47,1.2-.73,1.66-1.23.67-.71,1.37-1.47,1.72-2.34.23-.59-.13-1.41-.25-2.28,1.86.2,2.09-1.08,2.34-2.42.08-.41.52-.75.76-1.14.47-.78.89-1.58,1.37-2.35.33-.54.67-1.09,1.09-1.57.76-.89,1.74-1.62,2.33-2.61.66-1.11,1.28-1.65,2.62-1.2.32.11,1.24-.46,1.28-.78.13-1.13.27-2.06,1.68-2.14.19-.01.47-.24.54-.43.52-1.33,1.27-.97,2.13-.37.32.22.74.29,1.42.55-.16-1.05-.29-1.84-.44-2.8,1.89.2,1.89-.91,2.3-2.32.39-1.33,2.03-2.31,3.14-3.42.15-.15.47-.12.68-.25.64-.39,1.55-1.3,1.85-1.13,1.17.67,2.19,1.63,3.17,2.58.56.54.94,1.27,1.4,1.91.19-.09.38-.17.57-.26-.16-.63-.27-1.29-.49-1.9-.44-1.19-1.02-2.33-1.4-3.54-.16-.51.04-1.14.07-1.72.61.15,1.3.16,1.81.47,2.47,1.53,4.01,3.82,5.15,6.43.45,1.04,1,2.03,1.75,3.03.8-2.85,2.51-5.41,1.19-8.66-.78-1.92-.82-4.15-1.13-6.25-.05-.32.2-.8.46-1.02,1.43-1.18,2.94-2.29,4.38-3.46,1.13-.92,3.24-.6,4.57,1.25,1.35,1.89,2.55,4.03,3.24,6.24,1.49,4.8,2.71,9.69,3.82,14.6.29,1.28-.31,2.75-.37,4.14-.05.97-.13,2.06.23,2.91,1.34,3.09.94,6.29.88,9.48-.07,3.39-.15,6.79-.13,10.18,0,.71.44,1.41.82,2.56,3.73-2.9,7.06-5.6,10.51-8.14,6.98-5.15,12.62-11.72,18.84-17.68,8.6-8.22,17.25-16.39,26.01-24.43,3.82-3.51,6.65-7.58,9.14-12.11,3.72-6.75,7.92-13.23,12.01-19.76.78-1.24.95-2.27.34-3.56-1.44-3.05-.56-5.61,1.6-7.99,2.27-2.5,4.44-5.09,6.62-7.67.24-.29.19-.81.38-1.16.33-.59.72-1.17,1.17-1.68.3-.35.8-.53,1.11-.87,1.85-2.04,3.73-4.06,5.5-6.18,1.5-1.79,2.87-3.7,4.27-5.57,1.18-1.58,2.29-3.21,3.52-4.74.27-.34,1.04-.6,1.44-.47,1.84.64,2.28-.73,3-1.84.35-.53.95-.9,1.42-1.35.68-.65,1.31-1.36,2.05-1.93.7-.54,1.53-.89,2.27-1.38.54-.36,1.05-.77,1.51-1.22.79-.76,1.43-2.1,2.31-2.27,2.35-.45,3.29-2.29,4.67-3.77.54-.58,1.27-.97,2.13-1.19.49-3.41,3.96-3.73,6.03-5.49,2.05-1.75,4.35-3.23,6.64-4.66,3.07-1.91,5.44-4.89,9.1-5.9.44-.12.91-.46,1.16-.84,1.04-1.59,2.42-1.8,4.15-1.36.4.1,1.32-.38,1.4-.73.34-1.41,1.25-1.97,2.51-1.79,1.58.23,2.49-.54,3.49-1.56.48-.49,1.39-.56,2.11-.83.73-.27,1.66-.37,2.14-.88.75-.8,1.34-1.47,2.53-1.78,1.14-.31,2.03-1.12,3.45-.98.81.08,1.74-.96,2.63-1.5,2.42,1.49,3.75,3.55,3.19,5.41-.39-.42-.69-.72-.95-1.03-.42-.5-.73-1.25-1.26-1.48-.71-.3-1.67-.42-2.37-.18-.32.11-.27,1.27-.44,2.25.76-.21,1.08-.39,1.4-.37.37.02.88.11,1.04.36.17.27.17.94-.03,1.12-.89.78-1.79,1.65-2.85,2.12-1.93.86-2.43,1.87-1.64,3.86.41,1.04.82,2.13.92,3.23.06.67-.39,1.42-.73,2.08-.66,1.26-1.57,2.41-2.07,3.73-.83,2.18-1.23,4.54-2.15,6.68-.84,1.94-2.15,3.67-3.26,5.49-1.38,2.26-3.99,3.77-4.14,6.78,0,.15-.21.43-.29.42-1.27-.16-2.84.04-3.73-.64-1.65-1.26-1.48-1.48-2.56.37-.15.25-.37.46-.64.79-.46-.36-.87-.67-1.33-1.03-.44.36-.85.88-1.37,1.05-.46.16-1.05-.07-1.67-.14-.37,1.04-.6,2.12-1.1,3.04-.51.92-1.3,1.69-2.09,2.67,2.54.97.56,2.58.45,4.1-.62-.47-1.22-.91-1.81-1.36l-.49.5c.77.81,1.55,1.63,2.51,2.64-1.82.77-2.23,3.95-5.33,3,.81,2.22.92,2.33-.78,4.04-2.04,2.06-1.21,4.48-1.09,6.78.03.66.88,1.35,1.51,1.84.15.12,1.14-.36,1.28-.74.56-1.44.71-2.99,2.6-3.6.65-.21.99-1.43,1.44-2.2,1.37-2.38,2.65-4.82,4.12-7.13,1-1.57,2.31-2.95,3.42-4.46.63-.85,1.11-1.8,1.74-2.65.33-.44.85-.74,1.29-1.1.14.09.28.18.42.26-.23.62-.35,1.31-.7,1.84-1.56,2.4-2.44,4.82-2.51,7.85-.05,1.94-.3,4.33-1.87,6.22-2.12,2.56-3.82,5.45-5.76,8.17-2.06,2.9-4.18,5.76-6.27,8.63-.36.49-.77.95-1.05,1.48-1.69,3.3-3.2,6.71-5.09,9.9-1.16,1.95-2.91,3.55-4.36,5.34-3.17,3.89-6.49,7.67-9.42,11.73-3.67,5.1-7.08,10.39-10.45,15.7-1.31,2.07-2.13,4.44-3.3,6.61-1.44,2.69-3.01,5.32-4.52,7.98-.21.37-.51.76-.52,1.15-.1,2.69-1.86,4.49-3.25,6.55-1.8,2.64-3.23,5.53-4.95,8.24-1.98,3.11-4.1,6.13-6.13,9.21-.69,1.05-1.21,2.22-1.96,3.23-.77,1.05-1.89,1.87-2.55,2.97-.86,1.43-1.82,2.57-3.25,3.51-1.18.78-2.01,2.12-2.95,3.25-3.02,3.68-6.05,7.36-9.01,11.09-2.03,2.55-3.88,5.25-5.92,7.79-2.88,3.57-5.8,7.11-8.83,10.56-1.94,2.21-4.03,4.31-6.18,6.33-1.4,1.32-3.07,2.36-4.53,3.63-2.18,1.91-4.17,4.06-6.44,5.85-2.45,1.94-5.02,3.78-7.74,5.3-3.16,1.77-6.51,3.21-9.82,4.7-1.54.69-3.14,1.3-4.77,1.74-2.82.75-4.82,2.6-6.84,4.54-1.78,1.72-3.85,3.12-5.65,4.81-1.95,1.83-2.8,4.09-2.73,6.87.07,2.71-.41,5.43-.57,8.15-.17,2.9-.01,5.84-.43,8.71-.45,3.1-1.04,6.14-1,9.33.03,2.86-.61,5.73-.97,8.6-.31,2.52-.82,5.02-.91,7.55-.06,1.53.61,3.08.79,4.64.61,5.4,1.12,10.82,1.73,16.22.42,3.72,1.07,7.42,1.36,11.15.26,3.31.13,6.66.26,9.99.11,2.82.32,5.64.58,8.45.03.35.54.74.92.95,1.52.83,1.87,2.03.4,2.86-2.12,1.19-1.89,3.34-2.23,4.97-.51,2.48.17,5.19-.06,7.76-.29,3.28,1.04,6.53-.32,9.87-.61,1.5-.27,3.5,0,5.22.73,4.63,1.67,9.22,2.48,13.84.45,2.56.77,5.15,1.22,7.72.42,2.36,1.18,4.69,1.36,7.07.41,5.45.56,10.92.82,16.38.02.35,0,.73.12,1.06,2.6,7.05,1.94,13.79-1.65,20.38-.84,1.55-1.01,3.47-1.44,5.23-.31,1.27-.66,2.55-.77,3.84-.07.74.23,1.54.49,2.26.44,1.2.3,2.19-.54,3.21-.73.88-1.32,1.89-1.83,2.92-.86,1.73-2.22,1.76-3.45.81-3.62-2.81-7.67-1.9-11.53-1.28-5.04.81-9.78.51-14.35-1.84-1.35-.69-2.86-1.11-4.1-1.94-1.37-.92-2.51-2.2-3.77-3.29-.97-.84-1.52-.33-1.88.65-.58,1.59-.5,3.45-1.95,4.7-.94.81-1.81,1.69-2.71,2.54-.51.48-1.14.9-1.5,1.48-.55.89-1.23,1.88-1.29,2.87-.14,2.1-1.67,3.22-2.75,4.67-.15.21-.53.24-.7.44-.46.52-.94,1.05-1.26,1.65-.3.58-.27,1.35-.63,1.86-.26.37-.91.6-1.41.63-1.46.09-2.96-.11-4.4.12-1.84.29-3.62,1.14-5.46,1.29-3.51.28-5.29-1.4-5.57-4.91-.08-1.03-.18-2.11.05-3.09.99-4.08.17-8.08-.33-12.11-.42-3.37-.76-6.75-1.2-10.11-.3-2.32-1.11-4.65-1.01-6.94.19-4.38-1.15-8.47-1.9-12.66-1.76-9.9-2.35-19.88-2.52-29.9-.11-6.56.51-13.13.21-19.67-.3-6.77-1.3-13.5-2.01-20.25-.33-3.13-.71-6.26-1.09-9.38-.89-7.35-2.19-14.68-2.57-22.06-.4-7.98-.84-16.01.14-24.03.56-4.63.69-9.32.93-13.99.11-2.26-.41-2.66-2.58-1.83-2.78,1.05-5.4,2.59-8.23,3.43-4.7,1.39-9.49,2.48-14.29,3.51-1.72.37-3.56.23-5.34.2-1.07-.02-1.45-.69-.75-1.59,1.77-2.27,1.27-4.93,1.33-7.47.04-1.56-.29-3.13-.32-4.7-.15-7.4-1.79-14.56-3.25-21.77-1.54-7.62-2.91-15.28-4.08-22.97-1.33-8.77-2.35-17.59-3.51-26.38-.77-5.84-1.51-11.69-2.33-17.52-.93-6.58-4.2-12.1-8.08-17.32-5.99-8.06-11.28-16.57-15.89-25.48-4.8-9.29-9-18.87-12.25-28.82-1.09-3.34-1.63-6.84-2.57-10.23-1.51-5.44-3.12-10.85-4.72-16.27-2.72-9.25-3.49-18.63-1.65-28.13.93-4.82,2.14-9.59,3.27-14.37.78-3.3,1.62-6.59,2.52-9.86.33-1.2.91-2.34,1.37-3.5.26,0,.52,0,.79,0ZM333.13,48.1c.1.04.21.06.29.12.03.01.03.13,0,.17-1.02,1.4-2.05,2.8-3.19,4.37,1.94.33,2.05,1.66,1.66,3.23.77-.11,1.37-.2,2-.29-.11-.95-.3-1.9-.28-2.84,0-.4.41-1.1.71-1.14,1.63-.23,1.31-.91.68-1.93-.31-.51-.34-1.22-.41-1.85-.07-.65-.12-1.34,0-1.97.14-.68.34-1.45.79-1.93.93-.99.66-1.66-.12-2.56-.35.83-.6,1.42-.95,2.24-.81-.96-1.38-1.63-1.95-2.29.49,2.32,1.86,4.33.74,6.69-.12-.27-.25-.55-.36-.82-.28-.68-.56-1.37-.84-2.06-.27.82-.54,1.63-.87,2.62.93.11,1.51.18,2.08.25ZM91.67,102.51s-.55.42-1.1.51c-.57.09-1.19-.13-1.79-.21-.05.16-.1.32-.15.48.72.32,1.42.67,2.15.96,2.31.91,2.51,1.47,1.37,3.32.5.85,1.33,1.62,1.25,2.29-.09.83-.93,1.58-1.22,2.02.8.35,1.54.68,2.28.98.56.23,1.13.43,1.7.65.11-.61.4-1.26.28-1.83-.34-1.67-1.36-3.19-.83-5.07.12-.43-.66-1.2-1.16-1.69-.81-.8-1.73-1.5-2.79-2.4ZM88.69,88.44c-1-2.62-1.93-5.07-2.96-7.78-.81.58-2.02,1.06-2.43,1.92-.23.47.9,1.59,1.43,2.43-.23-.03-.61-.07-1.5-.17,1,1.48,1.8,2.67,2.42,3.59h3.04ZM175.91,174.43c.13-.22.26-.44.39-.66-.27-.85-.68-1.69-.78-2.56-.11-.93.08-1.9.11-2.85.02-.73,0-1.47,0-2.2-.41.43-.44.89-.67,1.2-.78,1.05-1.79,1.97-2.38,3.11-.35.69-.45,2.12-.03,2.47.91.75,2.22,1.03,3.36,1.5ZM171.16,164.7c-1.17,1.36-2.1,2.35-2.89,3.45-.1.14.63.8.87,1.28.12.23-.05.6.02.88.14.55.33,1.1.56,1.61.02.05.74-.1.74-.18.03-.56-.04-1.13-.08-1.71,2.33-.26,2.6-.86,1.36-3.04-.27-.48-.29-1.1-.58-2.29ZM87.61,112.06c-1.71,1.12-3.56-.66-4.8,1.1-.29.41-.69,1.01-.57,1.37.19.56.7,1.28,1.21,1.41,1.8.44,3.08-.72,4.17-3.87ZM309.53,87.49c1.97-1.75,2.14-2.73.89-4.38-2.33.96-.82,2.69-.89,4.38ZM93.11,123.34c-1.89.57-2.45,2.59-1.42,4.89.53-1.84.93-3.22,1.42-4.89ZM97.35,133.02c.61-3.2-1.79-1.52-2.92-2.33-.04,2.45,1.68,1.95,2.92,2.33ZM178.29,198.29h2.48c0-.69.05-1.19-.02-1.67-.04-.34-.23-.66-.36-.99-.28.15-.65.23-.81.46-.41.57-.72,1.2-1.29,2.2ZM169.77,174.82c1.89,1.24,2.29,1.16,2.87-.35-.54-.45-1.04-.87-1.7-1.41-.38.57-.73,1.1-1.17,1.76ZM176.99,192.68c-.32.83-.6,1.35-.72,1.91-.07.35,0,.82.2,1.11.16.23.65.41.9.33.22-.07.41-.54.43-.84.05-.59.07-1.22-.1-1.77-.11-.36-.59-.6-.72-.73ZM102.97,144.62c-1.17-1.24-2.13-2.26-3.08-3.27.33,2.14,1.44,3.34,3.08,3.27ZM170.79,179.63c.78-.5,1.44-.91,2.28-1.44-.87-.26-1.56-.47-2.61-.78.16,1.08.27,1.79.34,2.22ZM54.51,66.14c.78-.22,1.27-.36,2.08-.58-.62-.82-1.12-1.48-1.62-2.14-.19.09-.39.19-.58.28.04.74.08,1.47.12,2.44ZM170.59,181.42c-.53-.09-1.06-.23-1.6-.27-.55-.05-1.12-.01-1.68-.01q2.94,1.59,3.28.29Z"/>
  <path class="cls-1" d="M283.3,186.1c.92-1.12,1.77-2.3,2.78-3.33,7.39-7.55,12.99-16.3,17.61-25.74,5.08-10.4,11.36-20.05,18.67-29.02,1.26-1.55,2.47-3.15,3.67-4.75.31-.41.51-.91.75-1.37.23.21.45.41.68.62-3.05,3.99-6.19,7.9-9.11,11.98-2.98,4.18-5.9,8.42-8.54,12.82-2.61,4.34-4.98,8.84-7.2,13.4-2.17,4.45-5.15,8.5-7.19,13.01.18.09.35.19.53.28.62-.39,1.23-.78,1.85-1.17.16.17.31.34.47.51-.46.74-.86,1.54-1.41,2.22-2.11,2.64-4.09,5.41-6.44,7.83-4.91,5.07-10.01,9.96-15.06,14.89-3.27,3.2-6.6,6.35-9.9,9.52-2.08,2-4.17,3.99-6.25,5.99-6.08,5.82-12.1,11.72-18.27,17.45-4.06,3.78-8.34,7.32-12.84,11.24-.06-.77-.23-1.22-.09-1.36,1.48-1.5,3.04-2.91,4.5-4.42,1.8-1.87,3.49-3.86,5.3-5.73,7.39-7.68,14.7-15.45,22.25-22.97,7.27-7.23,14.81-14.19,22.24-21.26.3-.28.7-.46,1.06-.69-.51.87-.91,1.84-1.56,2.58-.84.96-.79,1.74.11,2.96,1.93-3.15,5.12-5.03,6.02-8.68-.83.42-1.42,1.1-2.12,1.63-.79.59-1.67,1.06-2.51,1.58ZM295.21,173.56c-1.55,1.98-2.8,3.58-4.04,5.18-.11.14-.25.32-.23.47.03.27.09.64.27.77.18.13.7.11.79-.02,1.19-1.88,3.33-3.25,3.22-6.4ZM277.38,193.52c2.69-.55,3.38-1.36,2.62-2.87-.92,1-1.77,1.94-2.62,2.87Z"/>
  <path class="cls-1" d="M59.55,5.37c.26.13.7.2.76.4.48,1.42.84,2.87,1.32,4.29,1.16,3.46.82,6.77-.62,10.1-.92,2.13-3.63,3.69-5.72,2.61-.84,1.03-1.6,2.09-2.5,2.99-.3.3-1.31.44-1.45.25-1.48-1.94-4.81-2.21-4.83-5.51,0-.69-.87-1.38-1.37-2.11.7-.43,1.36-.84,2.06-1.27.43.3.91.63,1.53,1.07.18-.47.49-.92.39-1.07-1.14-1.58,0-3.93-1.8-5.3-.17-.13,0-.76.08-1.15.21-1.2.45-2.4.68-3.66.62.48,1.34,1.22,2.23,1.65.62.3,1.58.42,2.14.14.48-.24.87-1.2.82-1.8-.09-1.17-.52-2.31-.81-3.51,1.63-.39,2.97-.41,4.14.86.38.41,1.16.44,1.75.65.42.14.84.29,1.26.43-1.4,0-2.8,0-3.86,0-.41,2.91-.75,5.32-1.12,7.95,1.66-.91,3.21-1.77,4.96-2.74-.24-.16-.55-.48-.93-.58-1.22-.31-1.71-.72-.72-1.92.67-.81,1.08-1.83,1.61-2.76ZM56.16,14.37c-.07.17-.14.33-.21.5.58.21,1.22.68,1.71.56.35-.09.49-.97.73-1.51-.16-.09-.32-.19-.48-.28-.58.24-1.17.49-1.75.73Z"/>
  <path class="cls-1" d="M54.88,35.24c1.31,1.43,2.36,2.64,3.48,3.79,1.47,1.5,2.01,1.43,4.54-.54.3.75.57,1.45.79,1.99-.76.67-1.48,1.27-2.15,1.93-.64.63-.98,1.21-.3,2.18.36.51.06,1.49-.35,2.4-.65-1.29-1.17-2.67-1.97-3.86-1.3-1.92-2.72-3.76-4.21-5.53-1-1.19-.62-1.87.18-2.37Z"/>
  <path class="cls-1" d="M298.09,172.06c1-1.8,2.07-3.58,2.99-5.42.54-1.09.72-2.38,1.31-3.44.85-1.51,1.65-3.27,2.98-4.23,1.71-1.24,1.63-3.13,2.54-4.62.48-.78.77-1.67,1.38-2.41-.64,2.79-1.72,5.33-3.26,7.78-2.05,3.28-3.66,6.83-5.5,10.24-.49.92-1.14,1.75-1.72,2.63-.24-.17-.48-.35-.71-.52Z"/>
  <path class="cls-1" d="M34.57,49.51c-2.13-3.7-1.97-4.54,1.01-5.29.96,1.99.88,2.4-1.01,5.29Z"/>
  <path class="cls-1" d="M230.7,124.76c.4.76,1.21,1.59,1.09,2.26-.12.72-1.04,1.69-1.75,1.83-1.21.23-1.69-.88-1.47-1.92.17-.79.81-1.47,1.24-2.2.3.01.59.02.89.03Z"/>
  <path class="cls-1" d="M74.9,82.31c-1.19-2.2-2.18-4.02-3.39-6.26,3.56,1.4,4.3,2.81,3.39,6.26Z"/>
  <path class="cls-1" d="M8.56,57.68c.7-1.48,1.41-2.96,2.22-4.66,1.1,2.22.81,2.87-2.22,4.66Z"/>
  <path class="cls-1" d="M334.35,114.01c-1.98,2.44-3.96,4.88-5.95,7.32-.16-.13-.32-.26-.48-.39,2-2.45,4-4.89,6-7.34.15.14.29.27.44.41Z"/>
  <path class="cls-1" d="M59.12,3.78c-.36-1.51-.61-2.58-.86-3.64.22-.05.45-.09.67-.14.74.99,1.79,1.92.19,3.78Z"/>
  <path class="cls-1" d="M81.56,70.08c-.87-.77-1.36-1.22-1.96-1.75.12-.79.27-1.81.5-3.31.53,1.83.95,3.3,1.46,5.06Z"/>
  <path class="cls-1" d="M63.03,48.85c.36,1.34.73,2.67,1.09,4.01l-.68.2c-.43-1.34-.86-2.68-1.29-4.02.29-.06.58-.12.87-.18Z"/>
  <path class="cls-1" d="M17.93,37.95c-.48,1.33-.97,2.66-1.45,3.99-.24-.1-.47-.2-.71-.3.61-1.31,1.23-2.62,1.84-3.93.11.08.21.16.32.24Z"/>
</svg>