<?xml version="1.0" encoding="UTF-8"?>
<svg id="Layer_1" data-name="Layer 1" xmlns="http://www.w3.org/2000/svg" viewBox="0 0 320.99 500">
  <defs>
    <style>
      .cls-1 {
        fill: #000;
        stroke-width: 0px;
      }
    </style>
  </defs>
  <path class="cls-1" d="M269.21,171.64c-.32,2.43-1.71,3.86-4.38,4.4.49,1.49,1.61,3.09,1.32,4.62-.24,1.31-3.14,5.01-4.14,5.6-1.41.83-2.89.25-4.31,1.1-1.37.82-1.87,2.72-2.75,3.97.16.15.32.31.48.46.5-.54,1.01-1.07,1.58-1.68.87.83,1.98,1.52,3.2-.16.49,1.31.89,2.39,1.37,3.69-.74.43-1.72.13-2.38.72-1.06.95-2.03,4.8-2.44,6.22-.49,1.67-.2,3.24-.85,4.87-.74,1.85-2.74,2.81-3.76,4.45-1.41,2.28-.38,3.47-.7,5.76-.31,2.2-.98,2.26-2.26,3.9-1.62,2.09-4.31,6.8-.9,8.59-1.29.74-.62,4.32-3.94,1.93,0,.24.02.47.02.71,2.15,1.74,5.02,2.57,2.48,4.99-1.87,1.79-5.86,1.38-3.19,5.5-1.97,1.95.08,2.13-.38,3.41-.7,1.92-1.27,2.07-2.66,3.56-2.9,3.1-1.78,3.64-2.56,7.42.45-.02.87-.04,1.31-.06.28,1.85-1.3,5.52-1.8,7.48-.75,2.9-3.06,4.17-4.31,6.77-1.37,2.86-1.73,5.82-3.39,8.67-1.75,3.02-5.44,5.82-6.6,9.01-1.99,5.5.63,12.6,1.26,18.05.2,1.73-.02,3.46.17,5.19.14,1.32,1.32,3.57,1.31,4.75-.01,2.87-2.34,3.99-4.67,5.27.49,1.08,1.03,2.29,1.57,3.49,1.14-.58,2.28-1.15,3.91-1.97,1.17.58.17,5.28.03,6.18-.3,1.92-.49,2.36-.08,4.31.55,2.57,1.9,4.98,2.32,7.61.5,3.12.13,6.82.13,9.99-2.75-1.01-6.02-3.45-6.9-.41-.36,1.25.37,3.4.36,4.81-.03,2.35-.53,4.69-.73,7.02-.33,3.97.05,7.99.19,11.97.1,2.66,1.62,10.38-2.67,9.72-3.85,1.73-7.83,3.28-6.68,8.32,1.28-.71,1.28-3.11,3.09-1.82-1.14,1.88-2.17,4.5-3.97,5.79-.34-.79-.64-1.46-.99-2.27-.52.2-.99.38-1.38.53-.52-.83-.99-1.57-1.5-2.38-3.67,1.61-2.56,2.01-.43,5.07-4.19.36-1.26,4.33-2.39,7.12-.47,1.17-1.94,2.78-2.61,4.03-.88,1.63-1.31,3.01-2.43,4.62.83.78,1.72,1.61,2.94,2.76-1.01-.08-1.68-.14-2.46-.2-1,2.48-2.08,1.21-3.13,2.47-1.27,1.51-2.26,6.46-1.27,8.31,1.51,2.83,2.78.58,4.8-.17,2.99-1.1,2.49.25,4.22,2.67.22-.63.43-1.26.71-2.08.49.66.87,1.19,1.25,1.71.19-.04.38-.09.58-.13-.41-3.83-.28-3.79,3.38-5.36-.37-.39-.74-.79-1.11-1.18,4.39-.15-.16,10.94,5.6,4.77,1.33,1.47,1.73,2.49,2.28,4.42.21.06.43.12.64.18,1.37-2.7,2.75-5.4,3.98-7.82.69,1.27,1.69,3.1,2.89,5.29.72-1.21,1.27-2.15,1.82-3.09,5.62,1.83,3.86-11.02,3.86-13.68.97,1.02,1.42,1.51,1.74,1.85-.85,3.7-.8,7.16,1.27,10.48,2.7,4.31,2.87,6.58,2.69,11.8-.17,4.91-.44,9.8-.37,14.71.06,3.92,1.17,7.28-3.63,6.49-1.16,1.57,1.98,3.5-.63,4.9-1.36-4.34-.72-8.94-1.89-13.21-.25.03-.5.06-.76.1-.1,2.04-.18,4.32,0,6.3.21,2.22,1.96,4.18-.61,5.59-.22-.55-.44-1.09-.51-1.28-2.22.41-4.23.79-6.42,1.19-.28-1.11-.54-2.1-.89-3.46-3.96,3.07-1.78,7.5-7.91,4.77-.3,1.29-.29,3.52-1.54,4.21-.99.54-2.57-.72-4,.09-.22.77-.6,1.43-1.15,2-.7.44-1.47.53-2.3.29-1.89.74-2.97.66-4.23,2.58-.42-.33-.84-.66-1.23-.97-.61.37-.47,3.17-.53,3.83-.54-1.05-.82-1.6-1.09-2.13-.81.09-1.61.18-2.49.28-1.5,3.88-2.22,7.84,1.37,11.28-2.78,1.58-3.77,1.09-5.77-2.23-.82,1.66-1.33,4.76-3.37,4.17.24-1.46,2.44-9.46.83-10,.51-3.28-.93-3.05-3.04-.84-2.64,2.77-1.62,4.83-.35,8.05-3.12,1.93-3.7-1.07-4.43-4-.95-3.78,1.93-7.09-1.14-10.24-.54,2.62-4.28,2.12-6.28,2.69-3.54,1-4.97,1.53-6.24,4.83-.7-.44-1.24-.79-1.76-1.12-1.42,1.24-.21,4.05-2.81,4.64-.46-2.09.85-3.71-1.3-4.89-2.28-1.26-5.26,1.73-6.5,3.12-.65-.41-1.24-.78-1.77-1.13-2.37,1.14-4.61,3.83-6.77,4.7-1.5.61-.16-.6-2.26-.29-1.21.18-2.09.98-3.29.98v-2.02c-3.3-.38-3.04,2.84-4.28,4.4-1.58-1.75-3-3.31-4.6-5.07h-3.59c.89.62,1.45,1.02,2.39,1.68-.4,1.03-.94,2.42-1.72,4.45-.89-4.8-1.1-5-5.72-6.93.38,1.11.66,1.92.94,2.74-.12.14-.25.28-.37.42-.85-.81-1.7-1.62-2.74-2.61-2.79,2.2-3.02,2.02-4.24-.81-1.25-2.9-1.48-4.71-4.88-5.61-2.78-4.17-6.1-7.6-4.38-12.9.86,1.79,1.52,3.92,3.32,5.02-.84-5.49-3.04-10.88.45-15.95.32.02.65.03.97.05-.16,2.58-.8,6.49,1.88,7.59,1.48-3.76.23-9.33-1.3-13.02-.58,1.02-1.1,2.06-1.81,2.99-.31-3.32-.59-6.33-.87-9.34.23-.04.45-.07.68-.11.04,1.16.48,2.14,1.31,2.96,3.77-2.77,1.32-12.25,1.81-16.51.62-5.39.34-10.31.34-15.76.92-.29,1.56-.49,2.21-.69-.29-.64-.59-1.29-1.02-2.22.17-.3.49-.9.83-1.5-.3-.64-.61-1.28-.91-1.93.14-.13.28-.26.42-.39.71.49,1.41.99,2.12,1.48l.42-.59c-1.26-1.01-2.51-2.02-3.75-3.01-1.98,6.39-2.98,13.75-3.01,20.46-.01,2.84-.37,6.54-.05,9.37.12,1.04.93,1.58.72,2.69-.24,1.34-2.08,1.86-2.02,3.38-.29-.03-.57-.07-.86-.1,0-4.21.3-8.4.4-12.61.07-3.04-.52-6.8.13-9.77.79-3.6,1.94-4.75,1.41-8.68-.46-3.45.14-6.24.13-9.51-.01-2.55-.55-4.65-.31-7.44.34-4.05-.06-8.23-.08-12.3-.04-6.81-1.05-14.56.35-21.21.67.76,1.05,1.19,1.58,1.79.41-.82.73-1.45,1.05-2.08.24,0,.47.02.71.02v9.6c.34.06.69.11,1.03.17.49-1.54.97-3.09,1.45-4.62,2.49.25,2.78-.1,2.17-2.43-5.84-.65-.79-7.92-4.71-7.44-.06,1.26-.12,2.49-.17,3.72-.23,0-.45.02-.68.03-.32-.87-.65-1.74-.99-2.65-.29.76-.58,1.52-.88,2.31-.96-.41-1.84-.79-2.87-1.23.53-3.4,1.93-5.72,1.62-8.87-.12-1.18-1-2.06-1.02-3.44-.03-1.44,1.08-2.7,1.08-3.9-.02-4.65-2.46-10.02-.44-15.63.16.63.31,1.25.47,1.88.22-.16.44-.33.66-.49v-7.65c-2.83-1.8-1.5-6.37-1.59-9.21-.06-2.06.43-5.17-.16-7.11-.33-1.08-1.33-1.23-1.53-2.15-.64-2.95.77-20.38-6.03-17.43-.61-4.05-2.53-6.52-4.78-9.95.16-.09.33-.17.49-.26-2.53-.78-3.61-.78-4.66-3.16.61-.04,1.23-.08,2.04-.13v-3.35c-.83.65-1.43,1.11-1.99,1.55-1.45-2.18-2.84-4.3-4.54-6.85,1.02.2,1.55.3,2.25.43,0-1.05.01-2.11.05-3.16-.99.36-2.5-.93-3.02.95-2.2-.65-2.2-2.48-2.94-4.57-1.08-.31-2.29-.66-3.75-1.09,3.23-3.09-4.11-5.01-3.44-8.09.58.39,1.17.78,1.92,1.29.45-1.38,1.31-2.62-.08-2.93-.54-1.67-.94-2.92-1.35-4.17l-.58.13c.04.9.08,1.79.15,3.18-1.58-1.29-4.33.07-4.05-2.79-3,.73-1.96.47-3.23-1.66-.81-1.36-1.16-2.73-2.2-4.11-1.77-2.37-5.38-5.66-3.67-8.51-.97-.18-3.58-.2-4.33-.8-1.62-1.32-.26-.54-.43-2.31-.18-1.87.05-4.32-.26-6.42-1.7,2.98-3.81,2.09-6.05.89,1.04-1.51,2.72-3.19,1.59-4.84-1.1-1.61-4.92-1.61-6.59-1.53.86-1.54,1.49-2.67,2.27-4.07-.11-.18-.4-.63-.79-1.24-.52.54-.92.97-1.6,1.69-.95-2.33-1.83-4.49-2.94-7.19-.28.86-.48,1.48-.73,2.25-2.86.02-1.94-6.25-2.02-8-.34-.14-.69-.29-1.03-.43-.84,2.27-2.6,2.17-3.58-.04-.57-1.28.54-3.09.17-4.42-.41-1.48-2.14-3.2-2.98-4.44,1.98-2.35,1.97-4.3-.48-5.39.24.84.42,1.45.61,2.12-.4.32-.83.67-1.34,1.08-.93-1.11-1.85-2.21-2.85-3.41.57-.44,1.04-.8,1.8-1.4-3.45-2.79-5.66-6.96-6.55-11.39-.36-1.8.04-3.23-.74-5.03-.92-2.12-1.88-3-2.24-5.33.76.28,1.19.43,1.72.62.67-1.38,1.33-2.71,2.08-4.26-2.6.79-3.42-.15-2.43-2.45-5.83,1.96-3.62-4.09-3.91-7.44-.16-1.92-.77-1.88-1.85-3.87-1.08-2-.73-3.19-.57-5.43-3.24.69-2.35-3.76-2.8-5.65-.67-2.75-2.03-4.95-2.76-7.72-.8-3.04-2.81-4.44-4.53-6.94-2.07-3.01-4.25-5.9-5.95-9.15-.26-.01-1.01-.05-1.82-.09.92-1.95-1.33-5.61,3.52-5.37-2.67-2.64,4.09-10.99,5.92-13.91-.09-.16-.39-.7-.48-.87,1.23-3.11,2.18-5.28,4.41-7.69,1.93-2.09,1.72-3.14,2.98-5.85,1.86-4,4.53-8.51,6.85-12.09,1.69-2.61,3.08-5.01,4.41-7.9,1.64-3.58,1.76-4.3,4.82-5.95,2.41-1.3,1.8-.71,3.05-3.6,1.32-3.03,1.51-2.35.85-5.66,2.16.85,3.96.72,5.3-1.15,2.45.34,4.3-.67,6.42-1.66,3.32-1.55,3.39-1.09,6.7-.47,2.01.38,3.44-.06,5.44.97,1.53.79,2.85,2.14,4.31,3.06,4.35,2.75,8.83,5.23,13.15,8.04,3.01,1.96,5.41,4.26,8.3,6.29,4.3,3.03,8.97,4.68,13,8.29,3.3,2.95,6.67,6.18,9.03,9.95,4.56,7.29,6.12,15.83,9.32,23.55,1.77,4.28,4,7.86,5.17,12.38,1.31,5.08,2.72,10.09,4.38,15.06,1.15,3.45.82,7.85,2.33,10.97.93,1.93,2.29,3.22,3.07,5.49.79,2.3,1.69,4.34,2.96,6.43,5.51,9.02,12.74,17.24,19.66,25.19,2.92,3.35,5.49,6.61,8.02,10.25,2.48,3.55,6.32,6.11,8.13,10.13.2-.06.41-.12.61-.18,1.97-10.53,5.51-20.84,7.95-31.29,2.4-10.26,4.32-21.05,8.15-30.9,3.67-9.46,6.32-18.61,8.12-28.59.77-4.24,1.84-8.11,4.25-11.73,1.23-1.86,3.2-3.57,4.26-5.48.9-1.62.93-3.56,1.75-5.24,2.33,2.9,2.93,1.09,6.04.93-.64-1.06-1.13-1.89-1.63-2.7,1.01-.08,2.05-.17,3.39-.28-.57-1.11-.89-1.72-1.23-2.38.5-.74,1.01-1.46,1.52-2.19-2.28-1.1-3.19-.6-5.67.13,2.01-2.38,4.15-2.19,6.85-.97-.45-.9-.68-1.36-.97-1.96,1.12.17,2.13.33,3.3.51-.23-2.27-2.33-1.64-3.26-2.85,1.81.47,3.62.95,5.44,1.42.95-2.91-3.13-1.95-3.21-4.58,1.74.42,3.3.79,4.87,1.17.17-.11.34-.23.52-.34-.75-1.07-1.5-2.14-2.36-3.36.47-.53,1.08-1.22,1.72-1.94.87.12,1.76.25,2.71.38.49-1.19,1.91-2.19.33-3.56-.53.16-1.08.33-1.72.52.7-2.43,1.65-2.71,5.85-1.59-.24-1.25-.45-2.29-.69-3.51.54.07,1.15.16,1.21.17,3.5-3.2,6.37-6.77,10.3-9.46,3.49-2.39,6.66-7.88,11.44-7.2.12-.16.24-.32.36-.49-.89-.97-1.78-1.94-3.18-3.45,3.19,0,8.87,1.69,11.21-1.73.64-.93-.17-1.9.39-3.05.53-1.09,2.8-2.54,3.62-3.7,2.62.24,2.7.14,1.73-2.19,4.43.32,7.13.38,10.87-2.7,1.51-1.24,2.79-2.18,4.21-3.25,1.63-1.22,1.98.22,2.9-2.22,2.46.55,3.8-.72,5.73-.58,2.41.17,4.92,3.35,6.52,4.92,3.73,3.68,9.21,8.48,11.28,13.37-.85-.16-1.71-.32-2.75-.51,0,3.14-2,2.42-2.83,4.48-.66,1.63-.45,4.97-.94,6.86.37.19,1.14.58,2.12,1.08-2.07,2.05-.23,3.01,1.31,4.71.22-2.18.4-3.9.57-5.61,2.27,1.93,1.29,6.98-.49,8.47-.7.58-2.1.33-2.95,1.02-1.15.95-2.75,4.46-2.64,5.96.33,4.5,2.97,1.17,5.07-.24.77.35,1.43.25,1.97-.31.21-.66.24-1.32.07-2,.76-1.36,1.42-2.81,2.09-4.23.2-.06.92-.28,1.64-.49-.88-2.78,1.89-3.57,2.38-5.55.18.08.36.15.54.23-.73,2.17-1.45,4.34-2.18,6.51-1.78,1.57.96,6.68,2.9,6.78,3.5.18,2.7-8.07,2.7-9.94,4.63.56-.42,4.14,2.6,6.48-1.69,2.91-3.47,5.47-4.03,8.78-.6,3.59-.76,3.02-3.36,5.6-4.67,4.63-4.95,9.97-6.66,15.97-1.34-2.88.22-4.98.86-7.67.59-2.49-.05-4.8-.65-7.22.23.1.45.2.68.3,2.61-2.38,5.52-3.71,5.86-7.41.29-3.14-.56-7.35-3.11-9.28-2.64,4.27.32,9.65-3.52,14.12-.34-.39-.72-.81-1.26-1.43-.87,2.42-1.68,4.65-2.47,6.86-3.31.42-1.25,2.67-1.09,5.14.18,2.73-.99,3,1.97,4.55-1.39.61-4.46,1.34-5.44,2.2-1.2,1.06-2.05,4.5-2.69,5.94-.01-.02.37.4.98,1.05-.62.23-1.79.44-2.3.84-1.61,1.25-.37,1.04-.87,2.61-.18.57-.17,1.72-.43,2.48-.32.91-2.3,2.86-2.81,3.53.16.28.46.78,1.03,1.75-1.46-.47-2.47-.79-3.47-1.11-.08.13-.16.26-.25.38,2.7,1.7,3.7,3.11,5.68,5.56.51-3.15,1.9-1.3,3.52-2.9,1.82-1.8,1.41-5.56-.42-7.05,1.09.06,1.59.09,2.42.14-1.14-4.95,3.79-7.9,7.61-9.09-1.69,2.1-4.04,4.28-5.27,6.68-1.37,2.68-1.45,5.85-2.84,8.6-1.38,2.74-3.53,4.91-4.46,7.87-.82,2.63-1.24,5.59-1.95,8.28-.63-1.55-.98-2.42-1.38-3.42,2.08-2,1.88-7.08-1.61-7.44-3.82-.4-2.78,2.28-1.33,4.04-.44.57-.86,1.1-1.36,1.76.96.36,1.79.68,2.27.86.41,1.15.74,2.07,1.15,3.22.02-.01-.38.33-1.04.89.92.22,1.49.36,2.07.5.14.95.28,1.91.43,2.91-.58.48-1.2.98-1.82,1.49.07.22.15.44.22.66,1.04-.21,2.08-.43,3.53-.72.13,1.18.25,2.35.37,3.52-.18.04-.35.08-.53.12-2.85-3.42-4.48-.76-5.77,2.68-1.01,2.67-1.78,6.46,1.82,7.58.11,1.62-.7,6.14-1.46,7.76-1,2.12-1,2.18-3.43,1.06-.6,2.01-1.2,4.03-1.94,6.52-1.22-1.32-2.01-2.18-2.81-3.06-3.49.48-2.23.57-3.4,2.97-.19.39-2.2,3.82-2.22,4.08-.14,1.96,1.35,1.96,2.21,3.34,1.12,1.8.59,2.5.89,4.42.18,1.16.89,2.76.94,3.9.09,2.1-1.5,3.76-2.26,5.62-.99,2.42-.56,7.09-3.28,8.31-1.28-2.15.8-3.82,1.04-6.01-1.42-.16-2.66-.29-3.95-.44,1.62-1.24,4-2.02,3.29-4.37,1.77-1.16,2.19-1.7,2.92-3.71-.66-3.17-1.92-7.2-4.41-2.36-1.19,2.32,1.54,7.08-1.08,8.24-.34-2.07-.63-3.87-1.01-6.2-.93,1.57-1.55,2.6-2.28,3.84,3.5,1.42-.19,5.07-1.49,6.63.58,1.84.91,4.82,3.16,5.17,1.84.29,1.95-1.38,3.85-.83ZM226.9,171.22c-.1-.76-.2-1.52-.3-2.29-.48.21-.95.43-1.43.64.96-1.52,1.92-3.04,1.39-5.11-3.19.28-3.06-4.4-3.17-6.63.27.01.55.03.82.04-.05.63-.1,1.26-.15,1.89.73.62,1.46,1.24,2.41,2.05,1.35-2.44,2.61-4.72,3.87-7-.08-.06-.16-.12-.23-.18-.2.49-.39.98-.59,1.47-.26-.15-.52-.31-.78-.46-.09-4.02,2.1-8.31-1.16-12.64-.87,2.14-1.5,3.7-2.13,5.27-.23-.03-.46-.07-.69-.1-.19-3.79,1.14-4.89-1.6-7.86.21-1.91.4-3.62.65-5.85.3,2.19-.33,5.79,2.71,5.96,2.89-3.44,2.59-7.41,4.99-10.88-.72-.36-2.48-.93-2.99-1.67.02-.72.27-1.36.75-1.92,7.38,9.4,2.63-13.58,8.79-10.16.51-1.82,4.23-9.82,2.55-11.53-1.28-1.3-6.04,4.62-6.82,5.94-.18-.18-.36-.36-.54-.54.59-4.05,4.22-5.73,6.59-8.62.73,1.14,1.39,2.16,2.07,3.22,3.41-.95,3.25-8.03,4.42-10.82,1.49-3.55,4.43-6.52,4.45-10.57,3.39-.44,1.51-3.21,2.04-5.44.79-3.31,3.3-5.32.85-8.83-1.28,1.06-2.88,1.79-4.57,1.63-.97-.09-2.59-1.55-3.45-1.44-2.03.25-4.07,3.91-5.38,5.45-.15-.08-.59-.32-1.15-.61.31,1,.57,1.82.83,2.65-3.43,1.94-4.35-.3-5.37-3.28-1.27.26-2.6,1.29-3.91,1.59-1.24.28-3.26-.13-4.4.55-2.06,1.24-2.36,6.37-5.1,3.63-.08,3.93-3.14,1.82-4.57.38,3.76-3.28-1.53-2.35-2.84-.89-.97,1.08-.33,3.05-1.06,3.91-1.1,1.31-2.67,1.32-4.56,1.69,1.37,4.03.57,5.73-1.77,9.25-.79,1.19-3.09,3.71-3.41,5.1-.15.65.55,1.86.43,2.13-.71,1.74-2.69,3.17-3.42,5.69-1.04,3.62-1.5,7.44-2.54,11.09.39.18.96.45,1.52.72-.47.45-.94.9-1.37,1.31.4.49.86,1.07,1.32,1.65-1.78-.33-3.02-.78-4.61-1.63.45,1.52.81,2.72,1.15,3.86.28-.5.66-1.19,1.29-2.33,1.59,2.93,4.43,5.32.96,7.96-.78-1.09-.88-2.23-.31-3.42-.26-.09-.53-.17-.79-.26-1.47,3.61-2.73,8.27-3.25,12.14-.42,3.18.09,7.34-1.8,10.06-.58-1.31-1.04-2.35-1.51-3.38-.22.06-.44.11-.67.17.29,2.38.58,4.76.88,7.23-2.9-1.19-2.47,5.02-2.86,6.84-.3,1.37.34,3.62.02,4.7-.49,1.67-2.55,2.92-3.78,3.98.63.66,1.13,1.19,1.63,1.7-1.72,2.32-1.62,4.43.29,6.29-.39.59-.8,1.2-1.25,1.88,1.39,1.08,1.69,2.17.02,3.28,2.54,1.66-.33,2.45-.54,3.76,2.13-.73,2.35-.65,3.13,1.08-4.09,2.13-2.28,3.21-.75,6.06,1.64,3.03,1.31,6.8,3.04,9.98.38-.31.75-.62,1.19-.98,1.01,1.7,1.89.23,3.18-.23.67,2.24.28,4.95.28,7.28.9-.22,1.53-.37,2.25-.55.23.91.43,1.67.63,2.43l.64.21c2.33-4.31,2.85-6.59,2.85-11.45.18-.01.37-.03.55-.04.64,3.26.92,5.92.57,9.25-.19,1.84-1.65,6.01.66,6.61,1.28-3,1.75-5.98,1.82-9.42.93-.51,2.36-1.42,3.23.92,1.86-1.26,1.98-9.44,2.38-11.6,4.95,3.47,1.19-12.65,1.54-13.71,2.27,1.09,4.44,2.13,6.86,3.29-.04-2.57-.57-5.24,2.08-7.44-.83-.58-1.72-1.19-2.65-1.84,2.99-.62,5.33-2.4,7.94-3.97-.04.67-.08,1.34-.13,2.2.73-.22,1.29-.39,1.86-.55-.26,1.51-.53,3.02-.85,4.91,2.7-1.47,2.75-2.63.82-4.87ZM284.34,113.7c-.89-1.85-1.65-3.35-2.96-4.9-1.36,1.16-3.87,4.64-3.87,6.35,0,2.29,1.87,2.9,2.08,5.4.51,6.02-3.23,10.74-4.95,16.21-.7-.61-1.05-.92-1.41-1.24-.16.19-.31.39-.47.58.79.59,1.57,1.17,2.54,1.9.87-1.87,1.46-3.98,3.82-1.69.23-.63.38-1.06.57-1.6-.8-.18-1.44-.32-2.44-.53,2.16-2.12,6.18-4.28,5.6-7.06-.2-.98-1.43-1.64-1.6-2.91-.34-2.64,2.6-1.43-.36-4.19.45-.81.91-1.62,1.37-2.43-.82-.47-1.41-.82-2-1.16,3.04-.14,3.48-.48,4.08-2.73ZM254.09,80.85c4.92,2.45-9.44,17.54-2.42,19.72,1.04-.72,1.92-1.33,2.86-1.97-.2-4.54-.01-7.03,1.69-11.16,2.4-.36,1.87-3.95,2.22-5.61.52-2.53,1.91-4.63,2.48-7.13-.19-.06-.38-.11-.56-.17-2.05,2.07-4.09,4.13-6.25,6.32ZM297.31,58.96c-.85.5-13.46,9.37-8.78,9.96-.6,2.84,1.91,2.59,4.43,3.43.55-4.94,1.36-9.18,4.35-13.38ZM291.2,56.56c1.57,1.39,3.85,2.45,5.61.96.9-.76,2.44-5.05,2.16-6.22-.88-3.66-4.75,1.27-5.66,3.26-1.1-.49-1.77-.79-2.57-1.14-.7,1.89-2.65,3.4-.57,5.69.37-.91.66-1.64,1.02-2.55ZM256.83,174.91c.12,2.31-1.58,13.26,3.14,8.93,4.24-3.88,1.58-8.49-3.14-8.93ZM271.47,123.94c.31,1.07.69,4.35,1.99,4.82,1.55.56,3.78-1.77,4.12-3.06.38-1.47-.82-1.96-.98-3.43-.15-1.31.54-3.15.54-4.55-2.08,2.29-3.8,4.17-5.66,6.23ZM114.3,379.42l-.47-.11c-1.27,3.62-3.92,15.15.47,17.37v-17.26ZM248.35,111.14c.67-2.36.22-3.48.51-5.54.2-1.44,2.2-3.97.18-5.1-2.32.96-3.01,3.35-3.29,5.63-.38,3.05-.18,3.13,2.6,5.01ZM265.48,152.65c3.46-.53,2.52-5.15,1.26-7.17-3.82,2.69-3.84,6.21-3.18,10.04.65-.07,1.31-.15,2.06-.23-.05-.93-.09-1.75-.13-2.64ZM233.6,137.07c-1.05,1.37-1.69,2.19-2.33,3.02-.48-.28-.96-.55-1.62-.93.33,2.27.61,4.25.9,6.27,6.21.84,3.56-4.41,3.05-8.35ZM94.71,209.83c.25-.1.5-.21.75-.31-.96-1.37-1.54-3.94-3.8-3.06-2.23.87-.95,3.35-.45,4.79,2.18,6.32,3.51,3.01,3.51-1.42ZM83.01,198.79c.31-.02.63-.03.94-.05.93-1.73,3.08-6.72-.33-7.85-3.56-1.18-1.06,6.51-.61,7.9ZM296.12,39.07c3.96-1.1,4.61-3.73,2.66-6.85-2.89,2.7-4.85,3.26-2.66,6.85ZM270.26,132.93c-.24.07-.48.13-.73.2-.22,1.72-2.68,6.87-.51,7.47,4.45,1.24,2.46-6.3,1.23-7.68ZM293.46,46.22c-1.85-1.58-1.64-1.81-3.37-.18-.89.84-2.08,2.76-1.07,4.04,2.43,3.08,3.7-2.03,4.44-3.85ZM275.24,82.08c-2.18,0-5.59,4.85-2.8,6.21,2.11,1.03,3.98-4.56,2.8-6.21ZM210.6,214.23q3.85-1.99,2.28-6.46c-3.3,1.01-4.12,3.01-2.28,6.46ZM256.2,164.81c3.57,0,5.76-2.19,4.16-5.83-2.86,1.3-3.02,2.89-4.16,5.83ZM40.65,149.66c.17-.1.33-.19.5-.29-4.79-5.33-4.57,1.61-1.83,4.76,1.48-1.53,1.33-2.31,1.33-4.48ZM91.66,231.68c1.36,1.67,1.76,3.24,3.69,1.63.55-.46,1.16-2.72.85-3.45-1.42-3.42-4.07-.44-4.54,1.83ZM278.51,96.11c1.77.72,5.42-2.81,4.93-4.63-1.54-5.77-4.67,3.44-4.93,4.63ZM104.02,231.89c.11-2.03.98-7.65-2.87-6.32-4.08,1.41,1.94,5.07,2.87,6.32ZM287.46,57.51c-2.07-1.99-5.44,1.13-4.36,3.54,1.75,3.88,4.38-1.66,4.36-3.54ZM249.66,184.65c-.14.01-.28.02-.42.04.53-.61,1.06-1.21,1.8-2.05-5.82.05-2.71,4.29-7.31,6.22,3.9.22,5.93.1,5.93-4.21ZM106.27,249.92c.22-.25.43-.49.65-.74-1.27-1.87-2.54-3.73-4.05-5.96-.83,2.03-1.51,3.72-2.2,5.41.17.08.34.17.51.25.36-.33.73-.66.83-.75,1.59.67,2.93,1.23,4.26,1.79ZM34.14,136.78c-1.94.96-2.93,4.97-.21,5.46,1.76.32,3.84-2.93,3.17-4.62q-1.69,1.72-2.97-.84ZM286.96,82.02c.15-.05.3-.09.46-.14-.61-.68-1.22-1.36-1.83-2.04-1.24,1.37-2.48,2.72-3.64,4.16,3.13.99,5.39,3.35,5.01-1.98ZM37,172.81c2.4.25,6.48.45,3.93-3.18-2.66-3.79-3.62.97-3.93,3.18ZM50.45,165.67c-4.95,1.23-2.38,4.93,1.56,5.25,0-2.11-.62-3.32-1.56-5.25ZM102.05,194.24c-1.67.41-7.39,1.26-5.36,4.56,2.26,3.68,4.79-3.33,5.36-4.56ZM209.72,220.96c-.64-2.3-2.38-5.9-4.25-2.36-2.13,4.05,2.1,2.95,4.25,2.36ZM260.79,90.01c.46,3.76,5.29,2.95,4.9-.06-.43-3.34-3.78-1.18-4.9.06ZM235.9,134.43c1.31-1.02,4.17-2.42,3.48-4.62-.64-2.05-2.18-1.14-3.82-.47.1,1.44.21,3.13.35,5.1ZM43.93,180.96c1.03-1.12,5.67-5.5,1.08-5.17-2.59.19-3.05,3.91-1.08,5.17ZM126.96,419.44c1.46.96,5.3,1,4.51-2.02-.9-3.43-4.56-.4-4.51,2.02ZM80.06,221.91c-.6.72-5.83,7.2-1.33,6.15,1.93-.45,2.48-5.21,1.33-6.15ZM31.38,152.27c-3.97,0-4.79,1.74-2.66,4.95,1.71-1.69,2.07-2.61,2.66-4.95ZM197.89,465.48c1.02,2.6,1.13,2.81,3.56,1.54,2.74-1.43-.41-3.28.63-5.38-1.72,1.59-2.91,2.68-4.18,3.85ZM189.46,141.06c1-.72,3.72-7.65,2.2-8.16-2.48-.84-2.33,7.03-2.2,8.16ZM117.57,339.72c.23.04.46.08.69.13,1.95-7.93-5.54-1.84-3.08,2.02,1.11-1.37,1.04-2.77,1.28-4.5.14-.02.28-.03.42-.05.23.8.46,1.6.69,2.4ZM274.15,102.19c0,5.21,2.13,5.12,4.23.74-1.5-.72-2.57-.66-4.23-.74ZM181.42,425.2c-2.01.09-7.32.1-4.87,3.5,2.41-.71,5.35-.33,4.87-3.5ZM241.94,123.03c2.49-4.06,2.56-4.86.6-6.87-1.99,3.24-2.17,5.36-.6,6.87ZM219.08,187.94c2.3,2.03,3.41-1.03,5.87-.8-1.02-1.36-1.67-2.24-2.33-3.12-1.3,1.25-2.42,2.51-3.54,3.93ZM236.61,241.89c-4.39-2.08-4.4,2.57-2.17,5.34,1.55-1.7,1.07-2.25.44-4.49.49-.24,1.02-.5,1.74-.85ZM31.28,164.94c.59,5.5,1.86,4.47,3.77,0h-3.77ZM113.67,364.8c-2.21,2.21-.83,4.3-.39,6.55,1.61-1.68,1.76-4.23.39-6.55ZM199.89,90.68c2.59-.99,4.92-1.8,5.65-4.47-1.84,1.54-4.92,1.25-5.65,4.47ZM69.66,219.71c1.43,3.42,2.93.13,4.6-.06-.69-.74-1.37-1.48-2-2.16-.96.82-1.72,1.47-2.6,2.22ZM253.12,200.52c.14.65.25,1.14.31,1.44-1.82,1.43-3.09.67-4.15-.98-.13.12-.25.23-.38.35.21.86.42,1.72.62,2.55,4-.13,4.68-.53,5.32-3.2-.54-.05-1.05-.09-1.72-.15ZM246.35,125.62c2.93,2.13,4.02.62,2.19-2.17-.59.58-1.18,1.17-2.19,2.17ZM81.66,234.3c.91-.23,1.7-.42,2.81-.7-.42-1.34-.8-2.56-1.18-3.77-.23,0-.47.02-.7.03.11,1.55-2.27,2.43-.93,4.44ZM16.06,115.57c.19,2.03.33,3.6.48,5.16,2.39-3.06,2.34-3.9-.48-5.16ZM49.04,186.82c-.09-.15-.17-.31-.26-.46-.35.36-.71.72-1.06,1.08.78.7,1.56,1.39,2.35,2.09.89-1.15,1.58-4.08-1.03-2.71ZM55.22,169.89c-.3,2.43,1.42,2.77,3.11,3.17.53-1.8-.27-2.62-3.11-3.17ZM37.6,178.1c-1.48,1.73.46,3.24,1.92,3.7.01-1.8-.71-2.33-1.92-3.7ZM121.78,365.92v5.35c1.91-1.92,1.29-3.63,0-5.35ZM89.62,243.35c.32,0,.63-.02.95-.03,0-2.72.29-2.88-2.39-3.29.64,1.48,1.04,2.4,1.43,3.32ZM67.33,220.88c-.1,1.53-.17,2.54-.24,3.55.86-.42,1.71-.84,2.89-1.42-.93-.75-1.54-1.24-2.65-2.13ZM186.45,358.54c-.31-.67-.59-1.28-.83-1.79-1.04,1.86-2.05,3.66-3.07,5.47,1.77.13,2.16-2.61,3.9-3.67ZM280.1,72.02c-2.02,1.81-2.17,2.83-.78,4.44.3-1.68.54-3.06.78-4.44ZM88.04,246.48c-.18-1.87-.3-3.18-.46-4.84-1.6,1.64-1.49,3.17.46,4.84ZM269.57,131.84c2.16-.22,2.53-2.06.85-3.03-.28,1.01-.57,2.02-.85,3.03ZM287.69,78.16c1.3-1.36.88-2.27-.53-3.06-1.99,1.49-.68,2.22.53,3.06ZM260.57,73.81c.31-.03.63-.05.94-.08.24-1.02.47-2.05.71-3.07-.2-.14-.4-.29-.6-.43-1.16,1.42-1.26,1.76-1.05,3.58ZM247.44,212.55c.73-.26,1.28-.46,1.83-.66-.43-.9-.87-1.8-1.3-2.7-.18.07-.35.15-.53.22v3.14ZM232.55,428.63c.37.21.74.41,1.11.62.44-.89.89-1.79,1.33-2.68-1.6-.48-1.66.72-2.44,2.07ZM206.28,69.94c-.11.41-.22.81-.32,1.22,1.19.28,2.37.56,3.56.84.09-.31.18-.63.26-.94-1.17-.37-2.33-.74-3.5-1.12ZM67.19,207.62c-.54-.9-.91-1.52-1.43-2.39-.8.58-1.44,1.03-2.28,1.63,1.35.28,2.28.46,3.71.76ZM252.46,183.14c.21.58.43,1.15.8,2.17.97-1.01,1.6-1.68,2.23-2.34-.13-.1-.26-.21-.39-.31-.82.15-1.64.3-2.65.48ZM115.43,324.75c.34-.07.68-.13,1.02-.2-.16-.99-.32-1.97-.49-2.96-.3.05-.61.09-.91.14.13,1.01.25,2.01.38,3.02Z"/>
  <path class="cls-1" d="M232.97,409.48c-3.58-1.05-2.52-6.32-2.35-9.13.24-3.99-1.08-7.44.5-11.34.53,1.42,1.06,2.85,1.57,4.24-.34,2.71-1.31,5.12-.43,7.83.3.92,1.19,1.64,1.4,2.61.3,1.38-.52,4.41-.69,5.78Z"/>
  <path class="cls-1" d="M230.86,363c.12,2.13.23,3.53-.49,5.51-2.3-3.02-6.69-13.55-.09-14.03-.19,2.75-2.57,6.36.59,8.52Z"/>
  <path class="cls-1" d="M230.13,372.9c.78.41,1.3.68,1.97,1.03-2.29,2.8-.79,4.43-.16,7.28.54,2.44-.14,3.17-.67,5.69-4.17-2.12-2-10.76-1.15-14Z"/>
  <path class="cls-1" d="M303,28.17c3.3-2.65,3.84-4.22,1.83-6.88,1.22-.19,2.24-.35,3.29-.51.66,1.96.55,4.34,3.41,4.02-.13,1.58-1.39,1.96-4.6,1.45-.1,3-2.63,1.15-3.92,1.93Z"/>
  <path class="cls-1" d="M232.57,463.07c2.13,2.4,7.48,7.35,3.34,10.56.55.4-.86-4.04-1.1-4.48-1.19-2.15-2.13-3.61-2.85-6.11.21,0,.41.02.62.03Z"/>
  <path class="cls-1" d="M267.02,192.19c.17-1.87.96-8.02,2.83-8.82-.8,1.17-.16,3.06-.51,4.4-.38,1.44-1.4,2.67-1.74,4.46-.19-.01-.38-.03-.57-.04Z"/>
  <path class="cls-1" d="M279.86,141.9v5.16c-2.66-1.9-2.76-3.27,0-5.16Z"/>
  <path class="cls-1" d="M314.37,25.26c2.22,1.02.31,6.67-1.7,6.63.54-2.12,1.09-4.24,1.7-6.63Z"/>
  <path class="cls-1" d="M195.77,481.3c.1-.98.19-1.97.36-3.65,1.21.59,2.03,1,2.85,1.4-.76.93-1.52,1.87-2.27,2.8-.31-.18-.62-.36-.93-.55Z"/>
  <path class="cls-1" d="M134.91,495.93c-.85-.76-1.48-1.33-2.31-2.06.71-.55,1.38-1.08,2.05-1.59,1.93,1.29.23,2.36.26,3.66Z"/>
  <path class="cls-1" d="M220.74,385.67c2.41,1.24,2.59,2.97.78,4.35-.28-1.57-.53-2.96-.78-4.35Z"/>
  <path class="cls-1" d="M192.13,490.64c.9.21,1.62.38,2.55.6-.53,1.05-.98,1.95-1.43,2.85-.16.01-.33.02-.49.03-.19-1.05-.38-2.09-.63-3.48Z"/>
  <path class="cls-1" d="M320.99,31.75c-.11.95-.22,1.9-.33,2.84-1.93-.31-1.16-1.27-.91-3.05.41.07.82.14,1.24.21Z"/>
  <path class="cls-1" d="M194.02,497.12c1.69,3.7-.91,3.98-.37.03.12,0,.25-.02.37-.03Z"/>
  <path class="cls-1" d="M282.48,145.82c-.44-1.26-.88-2.52-1.33-3.83q1.47.33,1.86,3.63c-.17.07-.35.14-.52.2Z"/>
  <path class="cls-1" d="M281.55,158.53c.27.45.51,3.96-.65,3.44-1.26-.56.37-2.77.65-3.44Z"/>
  <path class="cls-1" d="M141.52,491.59c-.94.93-1.88,1.87-2.83,2.8-.17-.17-.34-.34-.52-.52,1-.84,2-1.68,3-2.53.11.08.23.16.34.24Z"/>
  <path class="cls-1" d="M165.59,483.09c-1.07-1.44-1.3-1.4-.15-2.74,1.17,1.21.95,1.23.15,2.74Z"/>
  <path class="cls-1" d="M208.12,120.72c-.93-4.04,2.96-6.24,4.64-1.84,1.76,4.62-1.59,3.1-4.64,1.84Z"/>
  <path class="cls-1" d="M233.25,113.09c1.97,1.73,1.09,4.28-2.12,3.33-.54.98-1.1,1.98-1.69,3.05-1.01-2.57.43-6.53,2.99-8.04.2.68.39,1.32.57,1.95.09-.1.17-.19.26-.29Z"/>
  <path class="cls-1" d="M223.53,153.43c-1.36,3.07-2.73,6.14-4.09,9.22-.19-.07-.38-.14-.57-.21-.16-1.39-.33-2.78-.51-4.31,1.63-1.45,1.63-5.06,5.21-4.67l-.04-.03Z"/>
  <path class="cls-1" d="M217.94,104.21c-1.47-1.9.23-5.75.58-7.88.8.66,1.51,1.23,2.65,2.17-.91,1.61-1.94,3.44-3.23,5.72Z"/>
  <path class="cls-1" d="M219.7,149.09c-.68-.32-1.4-.65-1.71-.79,0-2.59-.75-9.31,3.1-10.02-2.65,3.47-1.62,7.12-1.38,10.82Z"/>
  <path class="cls-1" d="M224.33,110.2c.22.59.4,1.08.61,1.66-3.03,1.17-2.35-3.81-.89-4.69,1.97-1.2,1.96,2.15.28,3.03Z"/>
  <path class="cls-1" d="M217.06,170.38c.6-1.91,1.16-3.69,1.72-5.46.15.07.3.14.45.21.42,2.25,1.77,6.31-2.17,5.25Z"/>
  <path class="cls-1" d="M238.12,97.26c1.01-2.33,1.95-4.51,3.07-7.1.03,0,.62.06,1.3.12q-2.47,5.84-4.37,6.97Z"/>
  <path class="cls-1" d="M223.57,153.46c-.63-1.23.73-2.65.85-4.22.65,1.19,1.2,2.21,1.76,3.23.38-.12.75-.25,1.13-.37-1.26.44-2.52.89-3.78,1.33,0,0,.04.03.04.03Z"/>
  <path class="cls-1" d="M227.03,101.25c.97-1.55,1.93-3.08,3.14-5.01.46,4.08-.62,5.57-3.14,5.01Z"/>
  <path class="cls-1" d="M225.79,83.74h3.08l.02.77c-2.96,0-3.64.51-4.51-2.31.18-.07.36-.14.54-.21.33.68.67,1.36.86,1.75Z"/>
  <path class="cls-1" d="M222.39,118.59c.96.14,1.93.28,2.84.41v2.39c-.21.18-.43.35-.64.53-.54-1.18-1.09-2.37-1.63-3.55-.19.07-.38.15-.57.22Z"/>
  <path class="cls-1" d="M246.03,82.84c-.99.81-1.71,1.39-2.43,1.98-1.02-1.26-.02-1.86.81-3.15.44.32.89.64,1.62,1.17Z"/>
  <path class="cls-1" d="M189.22,168.71c.22,1.14.38,1.99.57,3.03-1.02.36-1.95.24-2.77-.36.89-.8,1.49-1.69,2.2-2.66Z"/>
  <path class="cls-1" d="M224.47,105.51c.07-1.48.14-2.96.2-4.44.35.03.7.06,1.05.09-.18,1.47-.37,2.93-.55,4.4-.23-.02-.47-.03-.7-.05Z"/>
  <path class="cls-1" d="M225.73,126.5c-.23,1.57-.45,3.13-.68,4.7-.29-.05-.58-.09-.86-.14.34-1.53.7-3.05,1.08-4.57.15,0,.31,0,.46,0Z"/>
  <path class="cls-1" d="M213.14,96h-3.23c1.11-2.34,2.17-1.36,3.2-.72,0,.24.02.48.03.72Z"/>
  <path class="cls-1" d="M207.42,125.66c.34-2.54.1-2.56,2.65-2.39-1.02.92-1.62,1.46-2.65,2.39Z"/>
  <path class="cls-1" d="M229.68,79.52c-1.42-.76-2.04-.69-1.62-2.27.73.41,1.45.82,2.18,1.22-.19.35-.37.7-.56,1.04Z"/>
</svg>