<?xml version="1.0" encoding="UTF-8"?>
<svg id="Layer_1" data-name="Layer 1" xmlns="http://www.w3.org/2000/svg" viewBox="0 0 457.01 500">
  <defs>
    <style>
      .cls-1 {
        fill: #ed2190;
        stroke-width: 0px;
      }
    </style>
  </defs>
  <path class="cls-1" d="M193.21,8.2c3.03,2.6,5.79.34,8.57-.92.47-.21.56-1.57.92-2.33.31-.66.73-1.67,1.14-1.71.6-.05,1.3.54,1.85,1.04.77.7,1.44,1.57,2.16,2.37.58-1.23,1.21-2.43,1.73-3.7.24-.58.25-1.31.4-2.12,2.49.88,3.13,6.29,6.88,3.93-.54-.92-.95-1.62-1.44-2.44.3-.05.55-.19.71-.09,3.47,2.08,6.78,4.78,10.42,6.11,3.6,1.31,5.07,4.74,6.94,7.93,1.47,2.51,3.07,5.07,3.92,7.93.48,1.63-.2,4.02-.78,5.86-.92,2.91-1.59,5.28.72,7.94,1.81,2.09,1.72,5.16.57,8.03-.81,2.04-1.48,4.18-2.5,7.1,2.77-1.29,3.54.26,3.94,2.33,1.42,7.35,4.71,13.53,7.81,19.86.42.85.48,2.6.06,3.36-1.54,2.75-.02,8.26,2.63,8.99,1.08.3,2.17.6,3.18,1.13,3.42,1.78,3.57,2.87.91,5.95-2.21,2.55-3.69,5.41-3.29,9.46.2,1.99.02,4.07-.17,6.09-.05.51-.79.91-1.35,1.5.65,1.01,1.33,2.07,2.02,3.14-.1.18-.19.36-.29.54-.66-.41-1.65-.61-1.92-1.26-1.16-2.81-2.78-2.67-4.79-1.75-2.19,1.02-2.9,3.2-3.02,5.74-.1,2.23.23,4.5.07,6.71-.05.75-.95,1.53-1.58,2.07-.85.73-2.34.97-2.64,1.89-1.03,3.09-2.86,6.13-1.16,9.88.23.5-.64,2.47-1.31,2.81-4.02,2.05-8.08,3.99-12.22,5.6-1.96.76-3.51,1.48-3.87,4.36-.09.71-.81,1.56-1.41,1.86-2.93,1.47-5.87,3.02-8.91,4.04-2.17.73-4.5.64-6.76.96-.69.1-1.37.31-2.06.47-.03.26-.06.52-.1.78.76.39,1.5.86,2.28,1.14,1.57.55,3.5,1.26,2.96,3.61-.43,1.89-2.21,4.87-3.15,4.74-4.44-.62-8.52,1.83-12.83,1.62-1.04-.05-2.26-.2-3.06-.9-4.35-3.81-9.15-4.08-14.16-3.3-1.79.28-3.63.58-5.42.4-6.05-.62-11.32,2.01-16.38,5.69-4.64,3.38-8.97,7.15-12.21,12.74-1.26,2.18-3.28,3.73-5.06,5.39-3.4,3.16-5.86,7.24-7.56,11.99-.54,1.49-.55,3.39-.48,5.08.08,2.05-.23,3.43-1.8,4.58-1.17.86-1.96,2.55-3.1,4.12-2.02-.88-2.86.79-3.4,3.33-.49,2.27-1.46,4.4-1.85,6.68-.55,3.25-.99,6.59-1.05,9.9-.05,3.08-.59,5.48-2.09,8.16-2.08,3.72-4.26,7.2-6.94,10.23-.23.26-.52.78-.45,1.05.77,3.19-.5,6.71,2.38,9.68,3.07,3.16,4.91,7.83,4.99,13.37.04,3.23-.38,6.91,2.65,9.35,1.58,1.27,2.59,3.93,3.47,6.19,1.64,4.2,4.92,5.16,7.91,6.44,3.01,1.29,6.23,1.81,9.34,2.75,7.92,2.41,15.92,4.47,23.71,7.4,8.32,3.13,16.76,3.82,25.34,4.34,9.27.56,18.53.71,27.76,3.06,7.84,2,15.94,2.45,24.1,2.03,9.44-.49,18.92.44,28.38.86,9.06.39,18.11,1,27.17,1.34,7.81.3,15.64-.01,23.43.61,13,1.03,25.88,3.19,38.47,7.68,15.11,5.39,30.31,10.38,45.46,15.57,6.03,2.07,12.03,4.3,18.09,6.26,2.54.82,5.22.95,7.77,1.72,5.99,1.81,11.96,3.78,17.91,5.78,4.07,1.36,6.13,6.03,9.25,8.91,5.13,4.73,5.46,11.49,5.93,18.29.13,1.95-.41,3.99-.74,5.96-.78,4.71-1.55,9.42-2.49,14.08-.3,1.5-1.11,2.84-1.7,4.25-.6,1.44-1.28,2.84-1.82,4.31-2.68,7.25-5.31,14.54-8.02,21.77-.37,1-.93,2.16-1.66,2.64-5.76,3.73-8.1,11.08-11.35,17.25-3.45,6.55-8.11,11.35-12.74,16.19-6.29,6.58-12.95,12.66-19.62,18.64-4.49,4.02-9.98,4.08-15.24,4.97-3.96.68-7.87,1.88-11.85,2.39-1.84.23-3.96-.13-5.62-1.11-5.04-2.98-10.25-4.93-15.82-5.27-3.84-.23-7.69-.1-11.52-.48-4.09-.42-8.15-1.42-12.24-1.87-5.07-.55-10.19-.58-15.25-1.24-3.67-.47-7.4-1.13-10.89-2.53-4.98-2-10.05-2.03-15.13-2.31-4.69-.25-9.38-.71-14.06-.56-5.24.16-10.46.9-15.7,1.39-.24.02-.49.2-.73.17-7.18-1.19-14.5,2.06-21.63-1.12-.93-.42-2.1-.12-3.15,0-5.31.56-10.61,1.53-15.92,1.68-7.64.23-15.3-.25-22.94-.14-2.3.03-4.58,1.04-7.18,1.68-.84-3.43-3.41-2.65-5.97-2.13-.72.14-1.73.05-2.23-.48-5-5.29-10.93-4.72-16.84-4.41-.97.05-1.96,0-2.93-.1-4.47-.46-8.93-.98-13.4-1.41-.54-.05-1.12.28-1.66.5-2.76,1.1-5.46.79-8.24-.17-3.82-1.32-7.71-2.32-11.57-3.49-6.07-1.83-12.14-3.69-18.21-5.53-.64-.19-1.27-.43-1.92-.6-4.25-1.09-8.5-2.24-12.77-3.21-2.01-.46-4.11-.31-6.1-.86-4.87-1.36-9.66-3.15-14.54-4.4-2.61-.67-5.34-.57-7.98-.81.69-1.87,1.25-3.39,1.86-5.06.14.54.42,1.09.38,1.59-.18,1.89.57,2.39,1.9,2.23,1.47-.18,2.97-.18,4.42-.49,3.51-.76,3.77-1.5,2.07-6.05-.31.85-.53,1.47-.85,2.35-1.68-1.89-3.31-2.03-5.45-1.18-1.25.49-3.28-.64-4.49-1.8-1.39-1.34-.09-2.53.99-3.11,1.26-.68,2.6-1.11,3.97-1.68.38.58.87,1.31,1.36,2.05.22,0,.44,0,.66.01-1.16-4.36-4.39-9.53,1.86-11.18-.93-1.56-2.11-3.53-3.28-5.49.25-.26.5-.52.76-.78,1.01,1.11,2.03,2.23,3.08,3.39.71-.69,1.82-1.58,2.72-2.72.46-.57.71-1.59.72-2.42,0-.29-.95-.69-1.51-.89-2.18-.77-4.36-1.47-6.61-2.22-.37,1.34-.71,2.59-1.05,3.84-.29.06-.57.12-.86.18.63-3.08.3-5.48-2.05-6.79-1.92-1.08-3.75-2.43-5.81-3.79-.46,1.48-.69,2.21-.99,3.16-.4-.33-.94-.53-1.12-.96-.3-.72-.59-1.66-.46-2.38.09-.48.99-1.16,1.41-1.05,3.2.88,6.34,2.14,9.55,2.85,1.95.43,3.63,2.75,5.88,1.39.12-.08,1.03,1.11,1.1,1.78.21,2.11,1.03,2.82,2.18,1.24,1.98-2.71,5.57-4.05,4.91-9.15.23-.08.46-.15.69-.23l3.46,4.86c-.17.24-.35.48-.52.72-.78-.7-1.56-1.4-2.29-2.05-1.8,4.48,1.43,5.42,3.21,7.09,1.83,1.72,4.01,2.78,6.62.33-.87-1.16-1.72-2.27-2.48-3.28,1.35-1.86,2.75-3.72,4.04-5.7.17-.26-.17-1.31-.5-1.71-.18-.22-.95,0-1.23.32-.39.45-.58,1.19-.73,1.54-2.53-1.65-4.99-3.25-7.5-4.9.85-4.11,1.85-8.99,2.91-14.12-.73-.05-1.27-.08-1.82-.12-.06-.18-.2-.42-.16-.53,1.04-2.47-1.94-1.1-1.61-2.55.25-1.12,1.49-2.24,1.33-3.08-.17-.92-1.45-1.51-2.68-1.75.2.77.4,1.55.59,2.32-2.79-3.26-4.61-.34-6.77,1.63-.77-4.84-3.4-5.76-6.74-5.43-1.42.14-3.15-3.48-2.43-5.04.79-1.73.44-2.84-.56-3.64-1.27,1.15-2.39,2.16-3.52,3.17-1.15-6.11-2.14-11.42-3.06-16.3h-4.9c1.32,1.35,2.44,2.62,3.66,3.72,1.82,1.64,1.77,2.43-.57,4.48-.11-.95-.07-1.85-.33-2.58-.28-.78-.84-1.4-1.6-2.6-.47,1.83-.79,3.07-1.11,4.31-.19.02-.38.03-.58.05-.2-1.19-.4-2.39-.63-3.79-.32.1-.7.22-.43.13-1.26-5.76-2.57-11.41-3.69-17.1-.44-2.21-.45-4.55-.65-6.83-.12-1.39-.24-2.78-.37-4.22-3.08.98-3.32.7-3.72-4.09-.67.66-1.27,1.26-1.97,1.94.24.97.48,1.93.78,3.15-.66.32-1.29.61-1.9.9-.82-2.46-1.57-4.67-2.42-7.21.46-.42,1-1.01,1.61-1.46,1.55-1.16,2.2-4.26,1.46-6.28-.51-1.41-.91-2.99-1.02-4.52-.22-3.09-1.44-4.47-3.99-4.17-.71.08-1.44.01-2.58.01.65-.75,1.02-1.54,1.43-1.58,2.49-.22,2.53-1.84,2.2-4.44-.22-1.7.58-3.6,1.04-6.08-1.34-.53-3.26-1.29-5.66-2.24.83-.46,1.42-.56,1.69-.98.69-1.06,1.94-2.89,1.71-3.29-.77-1.35-1.99-2.76-3.23-3.14-2.37-.74-4.88-.78-7.53-1.14.08,1.09.12,1.76.16,2.36-1.23-.21-2.49-.42-3.75-.63-.02.25-.04.5-.05.75,1.15,1.56,3.09,3,3.25,4.7.17,1.82-1.34,3.88-2.11,5.83-.14-.31-.28-.62-.42-.93-1.1.09-2.2.14-3.29.28-1.55.2-3.09.57-4.64.65-.36.02-1.03-.76-1.08-1.25-.42-4.33-.8-8.67-1.05-13.02-.1-1.78-.08-3.68.34-5.35.19-.77,1.46-1.12,2.82-2.07-.48,2.94-.77,4.77-1.07,6.61.28.09.57.18.85.27.48-1.67,1.13-3.31,1.36-5.03.1-.75-.92-2.45-.96-2.43-2.61,1.47-2.81-3.02-4.79-3.04-.06,0-.11-1.04-.23-2.29,1.84,1.49,3.28,2.65,4.92,3.98.22-1.38.13-2.53.55-3.16,1.38-2.08-.26-3-1.06-3.6-.74-.55-1.97-.2-2.97-.03-.57.09-1.09.61-1.63.93-.15-.38-.3-.76-.45-1.14,1.29-.99,2.58-1.98,4.05-3.11-.26-.95-.59-2.13-.99-3.62-.61,1.07-1.11,1.95-1.66,2.94-1.55-.88-1.73-1.88-.47-3.16.56-.57,1.37-.91,1.72-1.62,1.07-2.13.29-3.44-2.66-4.35.46-.73.86-1.36.81-1.28-1.14-3.32-2.45-6.15-3.06-9.2-.79-3.9-1.17-7.96-1.41-11.98-.11-1.8.57-3.67.85-5.53.08-.56.09-1.17,0-1.73-.56-3.63-1.2-7.23-1.7-10.87-.08-.57.4-1.25.61-1.89.47-1.41,1.39-2.86,1.31-4.22-.21-3.45-1.03-6.83-1.29-10.28-.24-3.22-.33-6.52-.03-9.73.84-9.06,1.98-18.07,2.85-27.12.44-4.55.5-9.15.85-13.71.41-5.42,1.05-10.81,1.38-16.24.61-10.07,1.75-20.01,4.02-29.74,1.46-6.29,2.39-12.79,4.1-18.96,2.34-8.42,5.19-16.63,7.88-24.89.29-.89.97-1.57,1.63-2.6,2.25,3.87,4.87.92,7.31,1.13.84.07,1.66.31,2.49.48-.2,1.15-.37,2.3-.62,3.43-.08.37-.39.65-.58.99-2.73,4.84-1.92,7.25,2.64,7.86.05.18.15.37.14.55-.06,1.41-.14,2.81-.22,4.22.77-.87,1.64-1.64,2.29-2.63,1.78-2.72,4.19-3.52,6.81-3.62,1.14-.04,2.31.14,3.44.36,1.92.38,3.09-.68,4.71-2.08,5.18-4.48,7.89-11.57,12.36-16.68,1.18-1.35,2.98-1.96,4.57-2.64,1.93-.82,3.41-2.04,3.82-4.7.06-.4.11-.96.33-1.14,2.73-2.26,3.01-6.51,4.89-9.31,1.47-2.2,3.71-3.75,5.82-5.09,3.22-2.04,5.78-4.64,7.05-8.99.72-2.49,1.96-4,4.34-3.27.46.14,1.25-.13,1.53-.57,2.9-4.46,7.24-6.31,10.87-9.44.37-.32,1.16-.63,1.35-.4,1.97,2.26,3.63.23,5.39-.48,5.87-2.33,11.84-4.31,17.59-7.04,4.79-2.27,9.37-5.3,13.96-8.2,3.53-2.24,7.22-3.13,11.11-2.69,5.94.68,11.62,2.6,17.17,5.36,1.24.62,2.85.08,4.29.09.56,0,1.18-.13,1.67.12,2.64,1.39,5.26,2.82,7.85,4.35,2.86,1.69,3.67,1.48,5.54-1.83ZM141.84,473.92c2.03.98,4.07,1.95,6.63,3.18-.68-1-.96-1.43-1.34-1.98,3.22-.87-.1-3.37.86-4.97-.65.28-1.31.57-2.15.93-.25-1.37-.46-2.52-.69-3.74-.7.44-1.32.82-1.94,1.2v-3.13c.37.12.68.28.98.29.37.01.73-.11,1.19-.19q-1.02-1.84-4.83-.96,1.66,3.05.25,4.64c-.71-2.36-1.39-4.61-2.08-6.86-.21,0-.41.02-.62.03v8.56c.58-.31,1.05-.56,1.1-.59,1,1.37,1.81,2.48,2.62,3.58ZM119.02,451.76c1.13.32,2.25.65,3.38.97.16-.39.32-.78.49-1.17-1.43-1.25-2.77-2.73-4.31-3.67-.89-.54-2.12-.26-3.19-.22-.44.01-1.08.2-1.25.58-.17.35.13,1.08.27,1.62.4,1.51.97,2.98,1.19,4.53.07.54-.69,1.26-1.07,1.89-.39-.48-.83-.93-1.16-1.46-.2-.33-.25-.8-.37-1.21-.25.06-.5.13-.75.19.17,1.03.37,2.06.49,3.1.15,1.29.7,3.27.25,3.74-.81.86-2.24,1.15-3.39,1.08-1.71-.12-3.39-.72-4.24.74.26,2.31.43,3.9.64,5.74.94.24,2.08.53,3.4.86v-3.28c.57,2.92.89,5.98,2.96,5.74,3.26-2.53,5.56-4.31,8.04-6.24.77,3.63,1.73,2.08,2.65,1.07.99.44,2.23,1.06,2.94.54.79-.57,1.11-2.18,1.96-4.05,1.46,1.85,2.67,3.87,4.25,5.2.93.79,2.48.76,3.68.53.32-.06.77-2.41.47-3.38-.56-1.84-1.61-3.44-2.49-5.21-.36.5-.8,1.12-1.37,1.93-1.28-2.61-2.71-2.47-4.39-.95-1.94,1.75-2.63,1.28-2.86-1.7-.05-.59-.13-1.17-.24-2.11-1.11.34-2.07.63-2.93.89-1.03-2.17-2.01-4.25-3-6.32,0,0-.02.04-.02.04ZM89.34,458.14c1.08-.1,2.03-.29,2.98-.24,1,.05,1.99.5,2.98.44.66-.04,1.3-.69,2.24-1.23-2.46-.73-4.2-1.53-5.99-1.69-1.64-.15-1.99-1.19-2.36-2.83-.29-1.26-.86-2.62-1.63-3.48-1.02-1.14-2.4-1.75-3.53-2.75-.51-.45-1.23-1.73-1.12-1.9.78-1.22,1.7-2.34,2.72-3.25.15-.14,1.15.84,1.53,1.51.5.89.76,1.97,1.2,3.17.49-.41.81-.68,1.13-.94.52-.42,1.03-.83,1.55-1.24.36.73.98,1.45,1,2.2.03.96-.21,2.19-.71,2.87-1.1,1.49-1.12,2.87-.55,5.02.61-1.52,1.01-2.49,1.16-2.88,1.2.1,2.01.17,2.57.22-.5-2.76-.94-4.89-1.25-7.04-.22-1.57-.27-3.19-.39-4.79-.93.95-1.79,2.06-2.82,2.79-.45.32-1.29.02-1.85-.29-.29-.16-.36-.95-.69-1.93.95.69,1.5,1.09,2.21,1.61v-5.85c-2.26,3.49-2.42,3.5-4.41.69-.14-.2-.36-.35-.56-.45-2.09-1.08-4.13-2.36-6.29-3.15-1.3-.48-3.19-.89-4.08-.08-1.17,1.07-1.63,3.36-2.32,5.18-.02.04.96,1,1.4.92,1.46-.25,1.52.71,1.33,2-.1.67-.27,1.33-.29,1.38,2.27,1.78,4.27,3.35,6.62,5.19-.89,2.58-1.74,5.04-2.58,7.51-.24-.09-.49-.18-.73-.27.6,2.9,4.71,3.29,3,7.86.26-.11.52-.21.77-.32.41-1.53.82-3.06,1.43-5.33.73,2.27,1.43,3.72,1.64,5.28.2,1.49-.44,3.34,2,3.41-.41-1.68-.97-3.08-1.01-4.5-.02-.82.82-1.66,1.28-2.5.41.69,1.03,1.32,1.17,2.09.29,1.59.32,3.25.45,4.88.27-.04.55-.08.82-.12v-7.17ZM14.48,288.7c.37-.36.74-.71,1.11-1.07.37.93.82,1.83,1.08,2.8.66,2.42,2.14,2.41,3.76,2.15.37-.06.8-.08,1.13.09,2.49,1.28,2.56,1.22,2.46-2.31-.03-1.13-.17-2.31.03-3.39.6-3.13-.71-5.34-2.16-7.49-.27-.4-.95-.87-1.16-.71-.43.31-.91,1.02-.93,1.59-.04,1,.42,2.03.35,3.02-.09,1.27-.48,2.51-.75,3.76-.32-.09-.63-.17-.95-.26,0-1.58.18-3.21-.05-4.73-.24-1.55-.9-3-1.39-4.56.6-.36,1.36-.83,2.12-1.29q-3.75-9.28-6.45-9.21c1.28,3.01.38,5.12-1.15,5.87-.18,2.52-.44,4.19-.36,5.83.06,1.19.33,2.99.95,3.36,1.12.68,2.25-.07,2.37-2.01.02-.25.22-.49.33-.73q1.51,1.2,1.22,7.5c-.97-.26-1.92-.63-2.88-.7-.38-.03-1.17.79-1.12.96.47,1.79,1.07,3.52,1.64,5.27.18-.06.37-.13.55-.19.08-1.18.17-2.36.25-3.55ZM136.63,447.62c-.19-.11-.38-.22-.57-.32-.32.3-.6.67-.96.89-1.79,1.09-2.05,3.17-1.86,5.21.04.42,1.71.58,2.61.9.36.13.7.4,1.26.73.17-1.24.31-2.2.47-3.37-.82.12-1.41.21-2.08.3.41-1.58.77-2.97,1.13-4.35ZM16.63,298.72c-.17.18-.34.36-.51.54,2.07,2.73,3.11-1.65,4.86-1.14-.05-.55.04-1.45-.17-1.59-1.54-.94-3.14-1.73-4.84-2.63.25,1.83.46,3.32.66,4.81ZM14.22,302.73c-.31,1.68-.72,3.03-.75,4.39-.02.8.41,2.05.91,2.33.69.38,1.96.4,2.37-.14.41-.55.35-2.17,0-2.97-.57-1.27-1.55-2.26-2.54-3.6ZM131.29,433.8c-.77,2.47-.03,3.96,1.45,4.82.23.13,1.41-1.14,1.45-1.83.13-2.3-1.26-2.75-2.9-2.99ZM100.69,458.19c.39.26.78.51,1.17.77.54-1.24,1.11-2.47,1.56-3.76.03-.09-.83-.66-1.27-1.01-.49,1.33-.97,2.67-1.46,4ZM92.86,425.15c-.05-.25-.11-.5-.16-.75h-3.63c.45,1.33.76,2.27,1.16,3.46,1.05-1.08,1.84-1.9,2.62-2.71ZM99.64,447.66c-2.12,1.36-2.44,3.31-.51,5.75.19-2.19.35-3.91.51-5.75ZM47.1,356.16c.15-.26.29-.52.44-.77-.96-.82-1.92-1.64-3.21-2.74-.19,1.41-.3,2.24-.42,3.08,1.19.16,2.19.3,3.19.44ZM4.84,249.87c.31-.08.62-.17.92-.25.1-1.46.21-2.92.36-5.1-.83.64-1.67.98-1.67,1.35-.02,1.33.24,2.67.39,4ZM139.08,437.18c-.26-1.95-.49-3.74-.76-5.8-.6,1.92-1.1,3.5-1.69,5.37.99.17,1.75.3,2.45.42ZM128.62,445.38c.63,1.42,1.09,2.46,1.64,3.7,1.26-3.01,1.04-3.52-1.64-3.7Z"/>
  <path class="cls-1" d="M241.56,50.47c-.22-.4-.59-.77-.63-1.2-.44-4.79-.92-9.57-1.15-14.37-.05-.98.92-2.03,1.42-3.05.55.97,1.35,1.86,1.6,2.94.63,2.79,1.41,5.68,1.36,8.5-.05,2.46-1.17,4.88-1.82,7.32-.26-.05-.51-.09-.77-.14Z"/>
  <path class="cls-1" d="M214.64,170.83c-1.56-1.08-2.94-1.97-4.24-3.01-.16-.13.07-1.55.15-1.55,1.43-.09,2.91-.31,4.28.05.88.23,1.61,1.37,2.41,2.1-.76.71-1.53,1.42-2.6,2.41Z"/>
  <path class="cls-1" d="M55.49,459.69c-3.58.29-7.16.58-10.91.88.13-2.07.55-2.98,2.29-2.63,1.41.28,2.91-.21,4.35-.09,1.42.11,2.83.54,4.24.83.01.34.02.67.04,1.01Z"/>
  <path class="cls-1" d="M24.22,337.12c.92-.95,1.72-1.78,2.72-2.81.84,2.67,2.74,4.8.86,8.39-1.17-1.82-2.25-3.5-3.59-5.58Z"/>
  <path class="cls-1" d="M28.43,318.18c-.3-1.53-.85-3.07-.8-4.58.02-.67,1.28-1.26,1.97-1.89.24.78.73,1.6.65,2.33-.15,1.43-.62,2.81-.96,4.22-.29-.03-.58-.05-.87-.08Z"/>
  <path class="cls-1" d="M52.37,381.12c.17.89.3,1.79.51,2.66.29,1.21.53,2.47.98,3.59.68,1.67.44,2.76-1.27,3.75-.48-3.42-.91-6.55-1.35-9.69l1.13-.32Z"/>
  <path class="cls-1" d="M18.9,316c1.3-.81,2.27-1.41,3.84-2.4.04,1.7.52,4.01.03,4.39-1.72,1.35-2.57-.85-3.88-1.99Z"/>
  <path class="cls-1" d="M20.54,323.3c.74-.97,1.4-2.54,2.25-2.73.76-.17,1.73,1.21,2.66,1.94-1.08,1.01-1.78,1.65-2.55,2.37-.7-.47-1.54-1.04-2.38-1.61l.03.04Z"/>
  <path class="cls-1" d="M20.52,323.26c.06.58.13,1.17.23,2.11-1.57-.62-3.2-.66-3.11-3.2.03-.72.58-1.41.89-2.12.4.52.83,1.01,1.18,1.57.32.51.56,1.11.83,1.67,0,0-.03-.04-.03-.04Z"/>
  <path class="cls-1" d="M44.57,419.28c3.1.76,3.83,2.52,2.66,5.9-.92-2.05-1.66-3.69-2.66-5.9Z"/>
  <path class="cls-1" d="M32.8,421.68c-.4-1.33-.81-2.66-1.21-3.98.68-.16,1.35-.32,2.03-.48.17,1.34.33,2.68.5,4.03-.44.15-.87.29-1.31.44Z"/>
  <path class="cls-1" d="M39.81,422.24c.8-1.68,1.22-2.57,1.64-3.46.16.06.31.12.47.17.03.62.05,1.24.08,1.83.68.18,1.44.38,2.21.58-.02.29-.05.59-.07.88h-4.33Z"/>
  <path class="cls-1" d="M248.48,11.01c-.46-.89-1.05-1.62-.94-1.87.26-.59.81-1.14,1.33-1.33.23-.08,1.02.94.96,1.15-.22.65-.72,1.16-1.35,2.05Z"/>
  <path class="cls-1" d="M119.04,451.72c-.22.72-.78,1.63-.59,2.12,1.3,3.49-.5,5.75-2.08,8.16.55-3.83,1.11-7.65,1.73-11.95.43.8.68,1.26.93,1.71l.02-.04Z"/>
  <path class="cls-1" d="M124.92,463.16c-2.05.22-3.21.34-4.38.46-.14-.25-.28-.5-.41-.75.87-.8,1.66-1.93,2.63-2.24.44-.14,1.21,1.36,2.16,2.53Z"/>
</svg>