<?xml version="1.0" encoding="UTF-8"?>
<svg id="Layer_1" data-name="Layer 1" xmlns="http://www.w3.org/2000/svg" viewBox="0 0 483.11 500">
  <defs>
    <style>
      .cls-1 {
        fill: #ed2190;
        stroke-width: 0px;
      }
    </style>
  </defs>
  <path class="cls-1" d="M474.86,302.84c.08,1.07.16,2.14.24,3.34.32-.39.65-.79,1.09-1.33.51.46,1,.91,1.48,1.33-1.59,3.17-.87,4.79,2.28,5.34-.73.5-1.52.92-2.17,1.53-.64.6-1.15,1.39-1.85,2.27-1.32-1.05-.62-2.1.41-2.78.75-1.88-3.1-2.16-.74-4.75-2.87.68-5.74,1.36-9.21,2.19,1.87.49,3.22.85,4.03,1.06.13,1.55.08,2.7.39,3.72.12.38,1.28.79,1.6.55.88-.67,1.31-.38,2,.35.66.69,1.6,1.03,2.34,1.48-.32,1.64-.63,3.28-.98,5.06.61.22,1.07.38,1.56.56-.02.25.03.5-.06.67-1.8,3.43-1.67,5.41.6,8.44,1.26,1.68,1.2,2.77-.22,4.31-.32-1.1-.65-2.21-.98-3.33-.3.07-.59.15-.89.22.14.95.13,1.97.45,2.84.32.88,1.2,1.54,1.38,2.42.16.77-.26,1.74-.55,2.56-.04.13-.78-.07-1.19-.11.13-.71.27-1.41.44-2.34-.17-.15-.49-.57-.89-.75-.38-.18-.98-.32-1.24-.1-.27.23-.44.98-.33,1.38.62,2.29,1.34,4.55,2.06,6.97.47-.19.91-.36,1.26-.5.09,1.07.17,2.09.22,2.77-1.15,1.27-2.2,2.42-3.25,3.58-.02-.05-.04-.1-.06-.14-.93.76-1.88,1.47-2.76,2.3-.22.21-.31.8-.25,1.16.38,2.07.4,2.07-1.23,2.21-.1,1.05-.2,2.05-.3,3.14,2.22,1.06,2.35,1.59.87,4.27-1.2,2.16.87,1.61,1.75,2.42-2.22,1.93-3.75-1.73-6.06-.35.99,1.84,1.96,3.66,3,5.59-.41.33-.92.74-1.83,1.47,2.05.59,3.74,1.09,5.44,1.58-.04.23-.07.45-.11.68-.7-.06-1.41-.11-2.25-.18.34,1.06.87,1.99.85,2.91-.02.95-.58,1.88-.86,2.72.95.58,1.94.98,2.66,1.72.42.43.57,1.42.52,2.13-.02.32-.83.57-1.29.85-.04.03-.12-.02-.19-.04-.38,2.9-2.43,1.64-3.81,2.18-.6.23-.84,1.66-1.25,2.55-.84,1.34-1.68,2.67-2.63,4.17,2.54-.05,3.26-1.37,2.6-4.2,1.24-1.21,2.65-1.56,3.84-.2.92,1.05,1.49,2.51,2.39,4.07-2.49.31-3.43-.89-3.76-3.54-2.25,3.81-4.28,7.25-6.31,10.68,0-1.61,1.07-3.15-.86-4.55-.47,2.55-.94,4.99-1.35,7.44-.07.39.09.92.29,1.28,1.04,1.92.72,3.02-1.18,3.76-.5.19-1.19.17-1.46.55-.39.55-.55,1.36-.65,2.09-.11.83.25,2.04-.13,2.48-1.82,2.08-3.65,4.26-5.81,5.8-1.45,1.04-3.45,1.07-5.38,1.6-1.26,5.92-6.86,4.7-10.42,7.09-.99.67-2.75-.17-4.72-.38-1.01.93-2.51.7-4.45.09-2.67-.85-5.18-2.9-8.27-2.09-.6.16-1.77-1.03-2.21-1.91-.59-1.2-1.15-1.32-2.29-1.34-1.61-.02-3.21-.73-4.81-1.19-1.04-.3-2.09-.62-3.09-1.05-1.66-.71-3.29-1.49-4.92-2.3-.47-.23-.82-.81-1.29-.99-2.11-.8-4.24-1.52-6.58-2.35.88-1.64,3.14-3.08.25-4.64-.45.8-.89,1.58-1.33,2.35-1.16-1.69-2.34-3.29-3.37-5.01-.28-.46-.21-1.28-.14-1.91.31-2.73.87-5.44.97-8.18.14-3.85,0-7.72-.12-11.58-.04-1.19.14-2.59-1.32-3.19-.34-.14-.44-1.16-.59-1.8-.34-1.43-.34-3.1-1.02-4.26-1.84-3.12-1.48-6.68-2.15-10.03-.51-2.58-.78-5.07-.65-7.57.16-3.05-.8-5.86-.97-8.79-.19-3.3-.1-6.64.03-9.95.04-.93.69-1.82,1.14-2.91-2.06-2.41-1.17-5.83-1.22-8.95-.07-5.08.17-10.17.36-15.25.16-4.41.46-8.81.66-13.21.1-2.23.32-4.49.12-6.69-.12-1.31-.89-2.57-1.52-3.75-.16-.31-.92-.34-1.37-.27-1.19.19-2.37.68-3.56.73-4.22.17-8.44.23-12.67.27-2.12.02-4.24-.09-6.36-.18-.26-.01-.55-.26-.76-.49-1.61-1.72-4.19-1.57-5.65.35-.2.26-.38.61-.64.72-.84.36-4.04-.67-4.86-1.76.12.85.19,1.34.26,1.83-.09.1-.19.19-.28.29-.51-.71-1.02-1.42-1.44-2.02-2.16-.16-4.36-.33-6.8-.51-.03.09-.19.53-.35.97-.04-.2-.08-.39-.12-.59-1.39.38-2.78.76-4.12,1.13.01-.19.05-.76.09-1.34-1.17.16-2.24.25-3.29.47-.3.06-.55.48-.82.74.25.19.52.35.74.59.25.27.64.64.6.89-.04.32-.45.78-.72.81-1.03.1-2.08.04-3.28.04.07-.49.1-.75.14-1,.06-.35.12-.7.17-1.06-.3.15-.73.2-.89.47-.37.59-.61,1.29-.9,1.94-.16-.06-.33-.12-.49-.18v-1.52c-.97-.54-1.77-.99-2.88-1.6.39,1.04.71,1.91,1.14,3.05-1.37.24-2.99,1.09-4.17.58-1.16-.49-1.88-2.36-2.88-3.74-.28.59-.49,1.03-.79,1.66-.99-2.26-2.51-3.48-4.49-3.83-.12.21-.23.42-.35.63.95.62,1.89,1.24,2.84,1.86-.06.33-.12.66-.19.99-1.17-.09-2.34-.17-3.51-.26-.04-.22-.08-.45-.12-.67-.21.56-.43,1.11-.68,1.77-.66-.16-1.28-.32-2.13-.53.33.9.61,1.67.98,2.66-.8-.04-1.42-.07-1.49-.08-1.04-1.42-1.81-2.47-2.72-3.7-.88,2.73-4.12.57-4.63,3.7.53.11,1,.21,1.47.31,0,.16.02.32.03.48-1.01.2-2.03.4-3.06.6-.27-.65-.5-1.18-.73-1.75-2.4,2.34-3.01-3.08-5.34-1.59q2.45,2.85,1.47,3.98c-1.76-1.04-3.4-2.08-5.1-2.95-.21-.11-.82.58-1.12,1.01-1.02,1.44-2.33,1.51-3.49.32-.8-.82-1.78-1.4-3.18-2.47.33,1.46.61,2.32.7,3.21.08.77.15,1.74-.19,2.28-.22.35-1.25.31-1.79.07-.99-.44-1.88-1.15-2.81-1.75.07-.24.14-.48.21-.72.86.17,1.72.34,2.56.51-.52-1.59-2.16-2.29-3.07-1.14-.74.94-1.33,1.8-2.59,1.5-.17-.04-.49.71-.79,1.16-.3-.32-.62-.67-.87-.94-2.04.96-4.01,1.89-5.45,2.58-2,.07-3.56.18-5.13.16-.63,0-1.26-.28-1.89-.46-.4-.12-.78-.3-1.16-.44.18,1.32.31,2.33.45,3.34-.32.05-.64.1-.96.15-.15-1.4-.31-2.8-.46-4.19.13-.02.27-.03.4-.05-.48-.74-.97-1.49-1.62-2.49-.88.21-1.95.47-3.02.73,0,.19,0,.38,0,.57.47.26.94.52,1.41.78.02,3.97.34,4.62,2.42,4.98-.66,1.36-1.69,1.66-2.15.49-.79-2-2-2.05-3.77-1.45.4.69.73,1.27.95,1.66-2.5.17-5.13.36-7.75.54,0-.11,0-.22,0-.33-1.73.49-3.46.98-5.33,1.5.21.92.37,1.59.53,2.31h-6.26c.06-.56.12-1.16.2-1.9-.94.29-1.71.53-2.63.81.24.73.47,1.4.91,2.72-2.32.4-4.46.75-6.6,1.14-2.13.38-4.26.72-6.36,1.25-.4.1-.65.99-1.11,1.76-.56-.58-1.07-1.1-1.57-1.62-.32.49-.65,1.01-.98,1.52-.32-.7-.64-1.41-1.12-2.45-.28,1.08-.46,1.81-.72,2.81-.37-.46-.59-.78-.86-1.04-.43-.41-.89-.77-1.33-1.15-.4.75-.89,1.46-1.18,2.26-.28.78-.36,1.66-.52,2.49-.58-.39-1.18-.75-1.72-1.19-.74-.61-1.37-1.44-2.18-1.89-1.16-.65-2.1-.42-2.55,1.3-.19.7-.85,1.6-1.43,1.75-1.92.49-3.89.69-5.78.99.05-.13.29-.72.71-1.76-1.27.35-2.19.6-2.8.77-.15,1.35-.28,2.58-.41,3.8-.25,0-.51,0-.76,0-.12-.83-.24-1.67-.37-2.55.03.01-.04-.05-.09-.04-1.84.34-3.38,1.62-4.3,3.6-.15.33-.26.69-.4,1.04l-.52-.37c-.17-1.43-.34-2.86-.53-4.45-.44.44-.89.89-1.26,1.25.28,1.18.53,2.2.77,3.22-.18.17-.37.33-.55.5-1.3-1.17-2.61-2.34-4.12-3.7-.38,1.17-.83,2.52-1.33,4.04-.89-.64-3.02.24-1.82-2.81-3.09,1.43-5.93,2.75-8.99,4.17.71.37,1.24.64,1.78.92.04.27.09.53.13.8-1.43.56-2.86,1.12-4.3,1.69-.16-.2-.32-.41-.49-.61,2.17-1.66,1.17-3.27.1-4.88v1.91c-2.21,1.87-4.17,3.54-6.13,5.2-.17-.26-.33-.52-.5-.78.64-.46,1.28-.92,2.44-1.75-1.41-1.23-2.65-2.31-3.89-3.39-.16.2-.32.39-.48.59.85.73,1.7,1.46,2.55,2.19-.11.25-.22.5-.33.76-.67-.16-1.38-.23-2.01-.51-2.48-1.13-3.03-.96-4.21,1.51-.14-.16-.27-.32-.41-.48-.4.43-1.2.94-1.15,1.27.34,2.1-.99,2.46-2.16,2.75-2.39.6-4.85.98-6.82,2.79-.76.69-1.51,1.81-1.68,2.86-.53,3.29-.68,6.68-1.27,9.95-.1.54-1.73,1.13-2.58,1-1.59-.25-3.1-1.06-4.68-1.51-.56-.16-1.19.04-1.79.07,0,.23,0,.45.01.68,1.35.41,2.7.83,4.12,1.26v1.45c1.11-.12,2.22-.03,3.19-.41,1.36-.54,2.46.3,2.44,2.03-.04,3.05-.01,6.09-.01,9.5-1.04-.49-1.83-.87-3.26-1.54.85,1.18,1.33,2.01,1.94,2.67.96,1.04,1.04,1.95-.18,3.11-.22-.67-.38-1.17-.54-1.67-.11.06-.24.09-.31.18-.29.34-.55.69-.83,1.04-.26-.37-.66-.69-.74-1.1-.26-1.27-.39-2.57-.66-4.51-1.55,1.22-3,2.36-4.84,3.8.96.61,1.57,1,2.31,1.47.22-1,.38-1.75.53-2.47,1.03,1.72,1.68,3.71,2.92,4.65,1.66,1.24,1.51,2.75,1.83,4.3-.19.15-.38.3-.56.45-.43-.71-.87-1.41-1.43-2.34-.75,1.86-.05,2.86.95,3.41,1.17.64,1.57,1.44,1.24,2.85-.54,2.3-.63,4.44,1.41,6,.29.22.31,1.07.28,1.62-.07,1.24-.24,2.47-.4,3.89-1.97-.33-2.9.94-2.97,3.39.92-.51,1.8-1,3.09-1.71.08,1.31.14,2.25.21,3.27-1.08-.15-1.87-.35-2.65-.34-.73,0-1.46.21-2.26.34-.61,2.25.07,3.16,1.99,4.12,1.11.56,1.8,2.23,2.33,2.93-.59,1.4-.94,2.23-1.39,3.28-1.59-.15-2.91.34-2.23,3.11.11.45-.56,1.13-.8,1.74-.57,1.48-1.09,2.95,1.13,3.19.47.05.91.43,1.34.64-.12-1.09-.35-2.12-.28-3.12.03-.5.62-.94.96-1.41.35.43,1.01.87,1,1.29-.04,1.97.92,3.87-.23,5.99-.47.86.3,2.88.89,4.13.58,1.22,1.47.95,1.96-.22-.18,0-.36,0-.54,0-.42-1.26-1.03-2.5-1.16-3.8-.07-.64.62-1.68,1.2-2.01.48-.27,1.3.23,2.14.73-2.24.74-1.99,1.85-1.2,3.6.4.9-.04,2.37-.27,3.54-.12.6-.6,1.1-1.22,2.14,1.11.18,1.85.3,3,.49-.38.55-.64,1.26-1.11,1.55-1.69,1.05-2.14-1-3.39-2.11,0,.93-.17,2,.03,2.11,1.45.74.8,1.87.7,3.05-.13,1.44-.02,2.89,1.92,2.65.55-.07,1.17.65,1.64.94-.46,1.55-2.64-.21-2.19,2.26h2.15c-.1.85-.07,1.76-.33,2.54-.43,1.26-.9,2.18.64,3.08,1.64.96.44,2.69,0,3.76-.89,2.23-.76,5.16.45,7.13.48.79.35,2.06.52,3.11.11.69.27,1.38.42,2.06.1.43.22.86.33,1.29-.16.07-.32.14-.48.21-.85-1.44-1.7-2.87-2.65-4.48.7.14,1.27.26,1.85.37.18-.25.37-.51.55-.76-.64-.56-1.28-1.12-1.89-1.66-2.06,1.78-2.06,2.43-.53,4.36.4.5.4,1.43.52,1.92.43,1.09.74,1.99,1.13,2.85.23.51.54,1.03.92,1.39,1.01.97.95.82-.1,1.81-.68.64-.93,1.86-1.6,2.51-.72.69-1.72.99-2.57,1.5-.72.43-1.4.95-2.12,1.39-1.24.77-2.49,1.51-3.89,2.35.64,1.15,1.26,2.26,1.96,3.53-.56.07-.98.13-1.56.2.07.54.25,1.05.16,1.5-.15.81-.33,1.68-.73,2.35-.65,1.08-1.48,2-2.23,2.99-.61.82-1.26,1.61-1.79,2.5-.28.47-.34,1.11-.51,1.67l.46.28c.49-.41.98-.81,1.65-1.37.29.79.56,1.5.61,1.64-1.35,1.24-2.5,2.29-4.11,3.76.69.45,1.08.7,1.27.83-.48,1.42-.94,2.77-1.39,4.12.26.16.52.32.78.47-2.52.66-3.17,2.85-3.84,5.18-.57,1.98-1.12,2.03-1.66,1.52.29-.83.59-1.66.88-2.49.2-.58.4-1.16.6-1.74-.23-.1-.61-.35-.67-.27-.35.46-.62,1-1.18,1.95-.43-.57-.98-1.1-1.32-1.77-.56-1.1-.98-2.29-1.46-3.44-.23.05-.46.1-.69.14.21-.42.61-.86.58-1.26-.03-.56-.39-1.09-.61-1.63-.39.31-.98.52-1.15.95-.53,1.34-.91,2.76-1.48,4.58-1.37-1.32-2.49-2.4-3.72-3.59.25-.07.57-.16,1.41-.39-.81-.42-1.57-1-1.71-.85-.41.44-.88,1.3-.75,1.79.23.85.94,1.52,1.36,2.33.34.64.88,1.44.77,2.03-.27,1.46-.87,2.84-1.23,3.92-1.44-.85-2.51-1.52-3.61-2.1-1.1-.59-2.23-1.1-3.87-1.89.42,1.4.68,2.23,1.05,3.48h-3.52q-.81-3.14,1.19-3.08c-.11-2.36-2.02-.96-2.77-2.07-.83,1.52-1.53,2.85-2.27,4.16-1.08,1.92-4.36,2.3-6.04,1.07-1.03-.75-2.41-.87-3.69-1.29-.2-.59-.48-1.45-.9-2.74-.38.88-.57,1.3-.74,1.69-.1.01-.19.06-.23.02-1.73-1.29-3.6-2.4-5.13-3.96-.77-.79-1.18-1.49-2.23-.82-2.29,1.48-4.31,2.29-7.08.35-1.59-1.11-3.35-1.93-4.66-3.57-.34-.43-.66-.97-.81-1.52-1.05-3.73-1.21-3.9-4.72-4.27-.39-.04-.8.04-1.17-.06-1.83-.49-2.08-2.02-1.15-3.79.67-1.27,1.02-3.08.84-4.55-.2-1.69-.78-3.08,1.21-3.71.26-.08.58-.69.54-1.01-.04-.34-.42-.75-.73-.9-.97-.45-1.98-.78-3.1-1.21-.07.57-.14,1.07-.29,2.26-1.76-3.04-2.42-6.93-6.19-6.14-2.35-4.29-1.7-9.17-2.18-13.83-.19-1.9-.82-3.83-.64-5.66.18-1.84.64-3.51-.61-5.05-.04-.05-.07-.15-.05-.21,1.31-4.95-2.21-9.29-1.3-14.34.4-2.26-.65-4.83-.88-7.28-.49-5.25-.45-10.61-1.4-15.74-.97-5.26-1.28-10.49-1.5-15.81-.16-3.94-.74-7.85-1.06-11.79-.39-4.77-.81-9.53-1.02-14.31-.27-6-.31-12.01-.5-18.02-.08-2.45-.27-4.91-2.89-5.94,1.75.12,3.5.14,5.24.37,3.31.42,4.51-1.2,3.97-4.95-.3-2.07-.05-4.24-.05-6.79,1.95-.65,4.45-1.47,6.87-2.28-.14-.09-.5-.45-.89-.52-1.73-.29-2.23-.9-2.28-3.31-.05-2.01-2.15-3.99-3.43-5.91-.57-.86-1.62-1.41-1.96-2.34-.66-1.78-1.58-2.01-2.96-1.33-.6.3-1.21.57-1.64.77-.64-1-1.25-1.94-1.86-2.89l-.58.1c.08,3.84-2.13,5.56-4.7,7.12.26,1.26,1.5,3.28-1.27,2.78-.19-.03-.6.28-.61.45-.15,2.37-2.26,2.19-3.35,3.34-.36.38-1.42.18-2.03-.11-1.19-.57-2.22-1.75-3.43-2.01-.86-.18-1.89.75-2.85,1.19.39.84.66,1.82,1.2,2.51,1.4,1.75,3.04,3.26,4.33,5.1.56.8.51,2.16.74,3.27-.16.13-.32.27-.49.4-1.21-.67-2.47-1.24-3.62-2.02-2.29-1.55-4.39-3.58-6.82-4.74-2.81-1.34-5.85-2.39-8.86-2.79-3.68-.48-5.92-3.16-7.41-6.24-1.28-2.65-.88-6.08-.17-9.24.74-3.31,1.18-6.72,1.72-10.09.46-2.87.93-5.73,1.27-8.62.31-2.6.45-5.22.65-7.83.28-3.75.56-7.39,3.17-10.32,1.25-1.4,1.68-3.73,2.85-5.27,2.98-3.93,6.63-6.92,10.65-9.37,1.24-.75,2.23-2.05,3.44-2.9,1.46-1.03,3.04-1.85,4.56-2.79.28-.17.6-.39.76-.68,1.1-2.05,2.79-3.07,4.73-3.7.28-.09.65-.39.71-.66.57-2.64,2.78-3.25,4.39-4.47,1.08-.82,1.32-1.56,1.29-2.89-.04-2,.15-4.01.22-6.01.01-.4.01-.86-.15-1.18-1.16-2.29-.97-3.04,1.1-4.25.21-.12.33-.42.67-.86-1.81-.65-2.4-2.1-2.45-4.03-.04-1.71-.24-3.41-.41-5.62,1.77,2.04,2.55,1.12,3.2-.71.5-1.41.09-3.98-1.14-4.49-2.12-.87-2.25-2.73-2.09-4.74.06-.73.47-1.54.93-2.06.14-.16,1,.51,1.56.82.46-.39.98-.83,1.74-1.47-.81-.78-1.77-1.33-2.16-2.2-.35-.78-.07-1.93-.07-3-2.41.01-1.36,2.47-2.05,4.41-.33-6.64-.63-12.62-.94-18.89.5.76.9,1.35,1.4,2.1.78-1.48,1.47-2.79,2.33-4.43-.09-.2-.45-.98-.89-1.92-.43.62-.73,1.46-1.15,1.55-.55.12-1.19-.37-1.58-.52-.62-5.6-1.21-10.94-1.8-16.28.34-.06.68-.12,1.02-.18.15,1,.51,2.03.42,3.01-.26,2.77,1.47,8.12,3.57,9.37-.64-1.72-1.11-3-1.58-4.28-.24-.1-.49-.2-.73-.3.93-.71,1.85-1.42,2.78-2.14-1.14-2.11-1.07-2.45,1.2-3.95-1.21-.65-2.22-1.19-3.23-1.75-.52-.29-1.16-.5-1.49-.98-.23-.33-.03-1.06-.03-1.61.41.07.9,0,1.21.24,1.02.79,1.95,1.75,2.99,2.53.28.21.8-.03,1.21-.06-.06-.49.03-1.18-.21-1.43-.62-.64-1.37-1.13-2.11-1.59-1.27-.79-1.92-3.63-.92-4.73.27-.29,1.16-.04,1.66.22.84.43,1.61,1.06,2.51,1.68.18.47.32,1.37.78,1.91.3.36,1.07.2,1.63.27.05-.59.23-1.22.12-1.76-.46-2.12-1.26-3.43-3.63-3.38-1.09.02-2.21-1.96-3.32-3.04.13-.28.27-.55.4-.83,2.02.46,4.04.92,6.07,1.37.04-.41.08-.83.12-1.24-.86,0-1.82.27-2.57-.07-.81-.37-1.42-1.3-2.46-2.32.98-.25,1.41-.36,2.28-.59-1.05-.48-1.13-2.34-2.44-.91-.11.12-1.49-.75-1.54-1.26-.12-1.19-.26-1.78-1.48-1.75-.38,0-.88-.93-1.14-1.54-.3-.69-.4-1.5-.6-2.31-2.59,1.7-3.09.91-3.51-5.47,1.19,1.43,2.4,3.41,3.01.11,0-.93.05-1.86-.02-2.79-.04-.55-.13-1.17-.4-1.61-.52-.85-1.13-1.65-1.79-2.38-1.27-1.41-1.08-2.49.3-3.67.63-.54.97-1.53,1.12-2.56-.83.76-1.65,1.52-2.53,2.32-.31-4.75.1-5.41,2.76-4.66.31-.93.62-1.86.93-2.79.23-.1.46-.19.7-.29,1.12,1.76,2.25,3.52,3.72,5.82.39-1.74.69-3.07,1.03-4.6.7,1.37,1.57,2.58,1.96,3.98.39,1.38.29,2.94.37,3.98,1.55.8,2.86,1.81,4.28,2.11,1.47.31,3.05-.09,5.1-.2-.76-1.3-1.26-2.15-1.61-2.74-1.24.78-2.21,1.4-3.19,2.02-.26-1.35-.51-2.71-.77-4.08-1.34-1.35-2.91-2.93-4.48-4.52.18-.27.36-.54.54-.81.57.41,1.13.82,2.24,1.61-.47-1.44-.75-2.29-1.08-3.31.35-.25.75-.54,1.14-.82-.91-2.28-1.79-4.49-2.67-6.7.19-.13.38-.25.57-.38.47.43.93.87,1.35,1.26.99-.49,1.9-.94,2.9-1.44-1.08-2.23-2.86-3.4-4.72-4.44-.13.19-.26.38-.38.57.46.45.92.9,1.38,1.35,0,.22.02.44.02.66-1.4.27-2.8.58-4.21.77-.34.05-.98-.2-1.04-.45-.8-3.62-4.06-1.6-5.75-3.27-.26-.26-1.45.74-2.22,1.12-1.1.55-.91,1.38-.56,2.41.12.36-.2.92-.32,1.39-.44-.21-1.03-.28-1.31-.65-1-1.33-.93-8.65.03-10.23.05-.08.24-.04.64-.08-.09,1.01-.45,2.08-.19,2.88.28.84,1.15,1.43,1.76,2.13.17-.12.34-.24.51-.36-.13-.58-.25-1.17-.39-1.75-.37-1.47-.83-2.78.95-3.73,1.16-.62.65-5.09-.41-5.97-.82-.68-1.47-1.63-2.19-2.47.72-.76,1.44-1.51,2.16-2.26.14-.14.27-.28.72-.74-1.12-.2-1.94-.35-2.91-.52-.09-1.88-.18-3.86-.27-5.84l-.63-.24c-.27.59-.77,1.19-.75,1.76.05,1.25.46,2.48.53,3.73.07,1.2-.11,2.42-.64,3.63-.49-8.11-1.65-16.15-.8-24.32.23.68.46,1.35.69,2.03.17-.04.35-.09.52-.13.05-2.14.48-4.08-.8-6.37-.94-1.69-1.2-4.41-.82-6.44.93-4.94-.24-9.83.27-14.73.16-1.58.92-2.56,1.93-2.42.59-1.21,1.19-2.11,1.5-3.12.36-1.18.48-2.45.44-3.8.92-.96,2.76-1.25,2.05-3.95,1.12.12,2,.26,2.88.3,1.24.06,1.81-.33,1.37-2.02-.39-1.52-.52-3.2-.44-4.78.07-1.58,5.34-5.66,6.92-5.6.06,0,.15.09.18.07,1.68-1.17,3.51-1.71,5.45-2.03,1.8-.3,3.55-1,5.34-1.4.18-.04.5.74.68,1.04,1.03-.34,1.95-.65,2.88-.95-.32-.96-.64-1.93-.97-2.94,3.39-.29,6.82.47,10.33,2.63.09-.82.25-1.43.2-2.02-.29-3.53-.3-3.53,2.78-4.53,1.77,1.28,1.56,5.55,5.62,4-1.07-1.44-1.95-2.62-2.82-3.8.91,1.78,4.03-2.14,3.8,2.82.64-.98.95-1.32,1.11-1.73.24-.61.39-1.27.57-1.91.29.67.59,1.34.87,2.02.05.13.05.29.46.25.32.67.89,1.33.9,2,0,.6-.59,1.21-1.12,2.17.78,1.07,1.59.17,2.36-.72.55,1.27,1.02,2.47,1.58,3.61.44.9.87,1.93,2.12,1.22.24-.14.87.25,1.12.59,1.47,1.97,2.88,4.01,4.46,6.22.46-.72.81-1.26,1.17-1.82,3.09,2.41,1.93,5.53.73,8.84,1-.27,1.54-.41,2.24-.59.55,2.7,1.24,5.35,1.56,8.05.1.81-.79,1.8-1.27,2.67-.22.41-.8.81-.76,1.13.34,2.58.78,5.13,1.2,7.72.51-.28,1.23-.67,1.92-1.04,0,1.68.17,3.18-.07,4.58-.12.68-1.03,1.17-1.89,2.08,1.01,1.72,2.31,3.92,3.57,6.07-2.36,2.46-2.28,5.5-.43,8.52.48.79,0,2.38-.12,3.59-.04.47-.3.92-.61,1.83.64-.43.91-.6,1.32-.88.42,1.37.84,2.68,1.22,4,.08.26.11.76,0,.85-2.84,2.08.05,4.26-.1,6.38-.04.51.11,1.04.17,1.55-.46-.05-.93-.1-1.65-.19,1.09,3.02.36,6.51,2.14,9.42.68-2.11,1.28-3.94,1.87-5.76,1.52,2.43-2.02,5.27.99,7.24.6,3.5,1.2,6.99,1.9,11.02-1.18-.35-1.74-.51-2.69-.79.64,1.24,1.43,2.17,1.56,3.2.12.93-.47,1.99-.68,2.76.79.37,1.65.76,2.82,1.31-.17-1.33-.35-2.68-.52-4.03.18-.05.37-.09.55-.14.32,1.52.58,3.06.99,4.55.14.51.65.87.95,1.34.65,1.03,1.37,2.05.41,3.36-1.21,1.63-.5,2.17.99,2.39.5.07.96.46,1.6.8-1.86,2.16-2.47,4.13-.69,6.46.32.42,0,1.71-.32,2.4-.14.29-1.11.23-1.65.08-.68-.2-1.29-.66-2.2-1.16.04.74-.07,1.52.11,1.62,1.99,1.11,4.01,2.11,5.85,3.05-.13,2.48-.2,4.99-.42,7.47-.06.61-.51,1.46-.98,1.69-2.73,1.39-3.31,3.81-1.7,6.73.37.68.33,1.93.06,2.74-.72,2.2-.56,3.91,1.43,5.04.2.12.31.45.52.79-.39.51-.74.98-.82,1.07,1.51,1.45,2.94,2.83,4.46,4.29-1.38,2.51.52,3.68,1.82,4.97.88.87,1.26,1.43.03,2.43-.35-.57-.67-1.08-1.08-1.75-.36.76-.63,1.32-.66,1.39.24,1.24.37,2.02.56,2.77.12.47.34.9.53,1.34.8,1.75,1.72,3.45,2.35,5.28.19.55-.38,1.46-.63,2.2-.23.68-.5,1.34-.97,2.59,1.23-.58,1.88-.89,2.67-1.27-.52,2.33-.96,4.35-1.45,6.56,1.04.45,1.46,1.1,1.17,2.98-.26,1.64,1,3.59,1.57,5.41.33,1.04.82,2.09.86,3.16.07,1.64.13,2.87,2.03,2.32.81-.23,1.92.1,2.45-.42.46-.45.29-1.74.4-2.67,1.35,1.56,1.37,2.79.26,4.31-.3.42-.46,1.45-.23,1.8.43.65,1.32,1.54,1.8,1.4,1.81-.56,3.54-1.47,5.28-2.3.47-.22.94-.98,1.29-.89,2.02.5,2.76-1.37,3.95-2.63,1.18.78,2.32,1.11,3.42-.44.29-.41,1.3-.31,1.95-.19.81.15,1.59.57,2.43.88.1-2.62,1.22-4.33,2.49-3.91.97.32,1.96.65,2.85,1.17,1.11.65,1.77.5,1.89-1.21.73.37,1.29.66,1.95,1,.06-.84.1-1.56.15-2.3,1.36.1,2.73.56,3.9.2,1.97-.6,3.89-1.58,5.7-2.69,1.06-.65,1.75-1.32,2.85-.03.69.8,1.9,1.94,2.23-.69.06-.51,1.7-.75,2.85-1.2-.15-1.34.93-.72,1.77-.44.9-2.81,2.34-3.57,4.53-2.55.34.16,1.03.27,1.09.13.84-1.93,2.45-1.11,3.72-1.51.37-.12.58-.93.66-1.07,2.17-.28,4.09-.63,6.03-.75,1.17-.08,4.41-2.08,4.72-3.28,2.1,1,4.14,1.52,5.73-1.11.16-.27.93-.11,1.42-.06,3.15.28,4.34-.42,5.1-3.17,2.41.61,4.84,1.22,7.14,1.79.25-.75.33-2.05.92-2.52.53-.42,1.63.23,2.44.1.86-.14,2.02-.38,2.44-1.07,1.22-2,3.13-1.83,4.78-2.43,1.49-.55,2.94-1.1,3.87,1.32.42,1.1,2.29.42,2.72-.88.83-2.48,5.48-4.82,7.45-3.7.3.17.42.72.68,1.02.5.58,1.04,1.12,1.56,1.67.17-.15.33-.31.5-.46-.32-1.08-.64-2.17-1.03-3.48,2.36-.38,4.7,1.14,6.77-1.2.06.28.13.56.19.83-.19.58-.38,1.16-.75,2.31,2.38-.89,4.38-1.63,6.37-2.38-.03-.11-.06-.22-.09-.33.68-.36,1.38-.66,2.02-1.09.81-.55,1.58-1.2,2.53-1.94,2.4.14,5.1.75,7.6-1.02.18-.13.54-.1.73.03,2.5,1.59,4.44.21,6.42-1.42,1.81-1.5,5.56-.83,7.22,1.44.21-1.03.37-1.8.57-2.78,3.48,1.34,5.94-1.12,8.57-3.45.52,1.25.82,2.43,1.43,3.32,1.32,1.91,3.17,1.36,4.96,1.15.92-.11,1.96-.17,2.8.2,1.25.54,1.87.02,1.95-1.22.19-2.73,2.4-4.42,3.7-4.13,2.27.52,4.31.19,6.46-.12.06,0,.14.03.18.08,2.72,2.92,4.5.29,6.47-1.41.38-.33.92-.62,1.37-.61,2.3.09,4.6.29,6.9.45.2.01.45.11.58,0,1.56-1.29,2.68-1.01,3.52,1.06.05.12,1.49-.2,2.02-.68,2.44-2.21,4.85-4.34,8.28-3.44.53.14,1.15-.09,1.72-.19.77-.14,1.54-.48,2.3-.48,3.83-.02,7.67.15,11.5.05,3.22-.08,6.43-.44,9.65-.67.19-.01.43-.06.56.05,2.21,1.88,4.34,1.5,6.57-.06.52-.37,1.39-.14,2.1-.09,1.52.11,3.05.23,4.56.47,1.4.22,2.14-.53,2.36-1.98.27-1.75.54-3.52.57-5.29.05-2.76-.15-5.52-.14-8.28,0-.53.36-1.3.75-1.54,1.79-1.12,2.1-2.54.82-5.04-.58.75-1.12,1.45-1.91,2.46-.16-.93-.44-1.52-.3-1.88,1.11-2.9-.65-5.76-.2-8.41.39-2.3.85-3.76-.98-5.59-.78-.78-.35-3.14-.51-5.42,1.42,1.78,2.67,3.36,3.92,4.94.12-.12.23-.24.35-.36-.23-1.31-.46-2.61-.75-4.28-1.38-1.78-3.34-3.74-4.62-6.17-.8-1.51-.58-3.73-.82-5.63-.27-2.2-.45-4.43-.84-6.6-.62-3.49-1.53-6.92-2.04-10.42-.91-6.27-1.73-12.56-2.35-18.87-.25-2.55.12-5.17.18-7.76.01-.43-.09-.87-.21-1.28-.08-.27-.44-.53-.41-.74.49-3.54-.72-7.04-.04-10.63.55-2.89.45-5.94.95-8.85,1.31-7.53,2.09-15.3,6.28-21.73.61-.93,1.44-1.78,2.32-2.35,2.78-1.8,5.42-4.49,9.02-2.44.26.15.67.16.94.04,1.65-.73,3.27-1.55,4.92-2.26.47-.2,1.04-.24,1.54-.16,1.6.27,3.23.46,4.76.99,1.78.63,3.49,1.2,5.35.47.27-.1.71,0,.94.2,3.81,3.39,8.7,3.92,12.81,6.42,2.56,1.56,4.8,3.85,7.07,5.97,3.04,2.83,6.15,5.61,8.9,8.79,3.16,3.66,5.99,7.7,8.91,11.63.44.59.5,1.54.84,2.25.45.95.99,1.84,1.51,2.74.14.24.51.39.54.63.55,3.92,3.76,6.04,4.85,9.74,1.17,3.97,3.25,7.57,4.89,11.36,1.29,2.96,2.57,5.93,3.75,8.95.74,1.88,1.17,3.82.13,5.84-.95,1.84.54,3.18,1.39,3.73,3.43,2.23,3.38,6.08,3.95,9.7-.4-.39-.81-.78-1.52-1.47-.26,1.52-.45,2.66-.66,3.89,1.95.08,2.24-1,2.15-2.45.36,1.45.73,2.91,1.2,4.83-1.5-.23-2.48-.38-3.62-.56.59,1.01,1.07,1.85,1.56,2.68.59-.36,1.2-.73,1.91-1.16.52,4.18-.2,5.75-2.66,5.9.71,1.6.96,3.12-1.03,3.97,2.24,1.88,3.54-2.11,6.25-.27-.89.7-1.55,1.21-2.45,1.92.76.5,1.5.99,2.24,1.48-.34,1.02-.69,2.04-1.03,3.06.16.08.32.15.48.23.12-.3.19-.65.38-.87.32-.37.72-.66,1.08-.98.26.47.68.9.77,1.41.3,1.72.58,3.47.67,5.22.04.68-.43,1.4-.71,2.22.16.86.36,1.98.56,3.1-.16.12-.33.24-.49.36-.3-.37-.69-.68-.87-1.11-.19-.44-.07-1.09-.3-1.48-.26-.43-.74-.71-1.16-.97-.05-.03-.36.51-.56.79.38.29.75.59,1.14.89-.67,2.31-.01,4.52,1.77,5.88.91.7,1.94,5.04,1.43,6.11-.4.85-.82,1.69-1.27,2.51-1.36,2.48-1.55,2.51-3.44.76q-.67,2.1,2.36,3.15c.78-1.18,1.54-2.34,2.42-3.67,2.04,3.12-1.66,6.93,2,10.1-.68.35-1.26.48-1.63.87-1.21,1.25-1.79,2.78-1.1,4.65.66,1.79.17,3.19-.68,4.82-.8,1.52-1.05,3.48-1.32,5.29-.07.5.59,1.58,1.02,1.66.68.12,1.56-.18,2.13-.66.7-.59,1.15-1.55,1.71-2.35l.63.3c-.42,1.42-.85,2.85-1.43,4.81-.97.61-2.21.84-3.68-.5-1.44-1.32-3.88-.28-4.19,1.61,1.84-.99,3.27-.86,4.51,1.31.61,1.07,1.97,1.58,2.97,2.36,1.69,1.32,1.67,2.69.24,4.43-1.09,1.33-1.92,2.94-2.86,4.42.15.15.3.29.45.44-.48-.05-.96-.11-1.44-.16-.13.18-.26.36-.39.54.64.78,1.27,1.55,2.08,2.54-.22.2-.8.48-1.03.98-.49,1.06-1.2,2.29-1.08,3.35.33,2.97.41,3.03-2.32,2.25.93.99,1.69,1.59,2.22,2.39.82,1.24,1.4,2.33-.29,3.69-1.03.83-1.46,2.73-2,4.22-.09.24.86,1.32.99,1.24.58-.35,1.22-.87,1.48-1.51.2-.49-.14-1.26-.24-1.89.96-.69,1.92-1.37,2.87-2.06.09-.26.18-.51.27-.77.79,1.04,1.78,1.98,2.26,3.19.17.41-.89,1.54-1.46,2.26-.98,1.25-2.02,2.44-3.21,3.85.65.43,1.51,1,2.62,1.73-3.39,3.06-1.91,6.64-.81,10.63-1.57.43-.94,4.41-3.91,3.37-.45,1.31-.87,2.54-1.34,3.93.58.47,1.31.96,1.92,1.58.61.62,1.09,1.4,1.67,2.05.5.55,1.08,1.02,1.62,1.53.23-.36.46-.71.8-1.24.55.75,1.08,1.5,1.64,2.2.39.49.83.94,1.28,1.35.61.55,1.82,1.11,1.78,1.54-.08.84-.85,1.6-1.61,2.84-.31-1.15-.45-1.67-.59-2.19-1.09-.16-2.17-.32-3.26-.47-.11.19-.23.37-.34.56.64.71,1.18,1.62,1.93,2.08,1.15.69,1.69,1.45.94,2.82-.63,1.15-.48,2.05.35,3.01.71.82,1.04,1.91-.06,2.64-.97.64-1.8.47-2.39-.91-1.46-3.46-1.51-3.44-1.44-6.83-.68-.21-1.39-.43-2.29-.72.32,1.29.64,2.53.95,3.77-.22.1-.43.19-.65.29.2-2.04-3.38-1.86-1.5-4.87-1.63.91-1.83,1.76-.86,2.99q1.55,1.99-.41,4.2c-.18-.31-.37-.58-.49-.89-.13-.33-.2-.7-.34-1.23-.85.36-1.6.68-2.3.97.36.95.79,1.77.99,2.67.21.92.2,1.91.32,3.12,2.33-.65,3.96.08,4.3,3.17-1.63.65-1.58,1.68-.33,2.65.95-.11,1.72-.11,2.43-.32.58-.17,1.11-.59,1.65-.91-.29-.52-.56-1.07-.89-1.56-.48-.71-1.56-1.69-1.43-1.99.38-.85,1.25-1.41,1.97-2.13-.1,1.23-.18,2.1-.25,2.98.16.02.31.04.47.05.76-.9,1.51-1.81,2.27-2.71.17.16.34.31.5.47-.54,1.38-1.15,2.74-1.61,4.16-.78,2.42,1.02,3.24,2.06,4.99-1.07-.43-2.14-.86-3.36-1.34.36,1.44.72,2.85,1.19,4.73-1.59-.25-2.73-.44-4.47-.72,1.06,1.25,1.9,2.25,2.82,3.34-1.7.3-3.24.24-4.52.88-1.28.64-2.29,1.99-3.62,3.21.13.72.38,2.07.62,3.42.18.07.36.14.55.21.55-1.5,1.1-3.01,1.55-4.23.77.75,1.61,1.81,2.65,2.49.67.44,1.63.45,2.45.43.54-.01,1.08-.43,1.62-.66.08.82.19,1.63.23,2.45.01.27-.16.54-.33,1.05,1,.42,1.93.82,2.86,1.21.02.2.03.4.05.6-.67.14-1.36.18-1.99.44-.63.27-1.18.76-1.89,1.24.47.41.57.58.67.57.52-.02,1.04-.1,1.56-.11.02,0,.11.57.07.58-.53.21-1.07.44-1.63.51-.44.06-1-.29-1.34-.09-.39.23-.91.96-.83,1.31.78,3.4,1.7,6.77,2.52,10.16.27,1.12-1.83,3.49-2.76,3.05-.58-.28-1.12-1.03-1.37-1.72-.09-.26.61-1.03,1.06-1.38.34-.26.85-.24,1.11-.3-.46-1.93-.89-3.75-1.32-5.57.16-.03.32-.06.48-.09-.93-.45-1.86-.89-3.17-1.52,0,1.44.04,2.77-.03,4.1-.02.35-.45,1-.51.97-.5-.21-1.32-.51-1.35-.88-.14-1.36-.03-2.76.02-4.15.02-.62.13-1.24-.03-1.9-1.47,1.36-1.02,3.17-1.15,4.88-.14,1.78-.81,3.53-.84,5.3-.03,1.68.44,3.37.75,5.05.31,1.72.69,3.42,1.1,5.46,1.25-.75,2.11-1.26,3.04-1.82-.3-.38-.37-.54-.47-.57-.78-.25-1.56-.48-2.35-.71.67-.8,1.29-1.69,2.04-2.37.47-.43,1.14-.56,1.39-.67.88.89,1.59,1.73,2.41,2.41,1.36,1.13.87,2.58.46,3.87-.14.44-.99.59-1.91,1.08.41-1.84.67-3.01.93-4.17l-.79-.35c-.54,1.69-1.09,3.39-1.63,5.08-.44,1.38.47,1.25,1.16,1.36,0,0-.03-.04-.03-.04ZM139.36,458.3c.7-.97,1.41-1.94,2.21-3.03-1.71-1.02-2.14.87-3.07,1.42.3.53.6,1.06.89,1.59.56,1.53,1.11,3.05,1.67,4.58.3-.06.59-.12.89-.18-.15-1.51-.25-3.04-.55-4.52-.02-.12-1.34.09-2.05.15ZM54.37,161.96c-.29-.87-.59-1.74-.88-2.61-.21-.62-.42-1.23-.63-1.85-.17.06-.33.12-.5.17-.1.55-.2,1.1-.25,1.32-.9.44-1.59.7-2.19,1.15-.15.11-.06,1.13.06,1.17.55.19,1.15.17,2.04.26.33,1.01.66,2.41,1.25,3.64.31.65,1.07,1.01,1.63,1.5q-1.19-2.81-.56-4.79c.32-.16.65-.32.43-.21.83,1.49,1.52,2.75,2.21,4,.24-.15.47-.31.71-.46-.7-1.79-1.4-3.57-2.1-5.36l-.71.21c-.17.62-.34,1.23-.51,1.85ZM37.87,94.19c-.13.52-.36,1.04-.38,1.56-.04.91.31,1.98,0,2.72-.64,1.56-.09,2.35,1.05,2.71,1.43.44,2.92.62,4.23.89.5-1.28.92-2.34,1.33-3.39,1.61-1.02.95-2.59.67-3.99-.54-2.7-2.92-4.95-5.24-4.66,2.74,1.02,1.37,3.56,1.92,5.32,2.5-.13,2.76.21,2.68,3.36-.93.3-1.85.74-2.8.87-.99.14-2.59.65-2.35-1.37.2-1.73-.43-2.82-1.15-4.04.33-.52.67-1.03,1-1.55-.22,0-.45-.01-.67-.02-.26-1.04-.45-2.12-.8-3.12-.39-1.1-.84-2.21-1.46-3.14-.2-.3-1-.09-1.52-.11.01.55-.16,1.25.08,1.61.76,1.17,1.43,2.27,1.11,3.87-.06.28.48.77.8,1.1.48.49,1,.93,1.51,1.38ZM57.03,74.76c1.25-2.82-1.26-2.95-2.32-3.98-.33-.32-1.35.29-2.15.49,1.56,1.26,2.67,2.16,3.8,3.05.21.17.47.27.7.4.07,1.46.18,2.92.19,4.38,0,.7-.08,1.45-.31,2.1-.32.89-.81,1.71-1.23,2.55-.41-.54-.92-1.01-1.22-1.63-.55-1.15-.88-2.46-1.52-3.53-.3-.5-1.1-.6-1.67-.88-.12.24-.24.49-.36.73.37.47.94.88,1.08,1.43.21.85.12,1.79.16,2.69-.56-.13-1.12-.27-1.69-.39-.43-.1-.87-.18-1.3-.26l.03.04c.06-.83.12-1.67.19-2.59-1.23-1.05-2.57-2.21-4.05-3.48,1.76-1.31,1.46-2.45.21-3.65-.33-.32-.6-.91-.64-1.4-.24-2.54-1.08-3.05-3.62-1.68.96,1.55,1.89,3.04,2.81,4.53-.11.16-.22.31-.33.47-1.02-.92-2.04-1.83-3.3-2.96v2.88c-.66-.6-1.15-1.05-1.68-1.53-.15,2.58.4,4.79,2.54,5.47.65.21,1.73-1.38,2.26-1.84.75.47,1.86,1.17,2.98,1.87-.12.22-.25.44-.37.65-1.88.48-3.99.66-3.73,3.59-.88-.52-1.7-1.01-2.75-1.63,0,1.7-.03,2.82,0,3.93.08,2.54,1.98,3.9,4.07,2.92.47-.22.91-.52,1.5-.86.82,1.84,1.89,1.88,3.29.94.47-.32,1.28.04,2.23.11-.87,2.12-1.58,3.86-2.28,5.58-.71-.47-1.44-.95-2.17-1.43-.08.16-.16.31-.24.47.48,1.1.97,2.2,1.53,3.47-.67-.13-1.11-.21-1.55-.29,2.09,1.7,1.58,3.74.85,5.52,1.17,1.49,2.21,2.82,3.25,4.16,1.65-1.22,1.9-2.29.72-3.84-.71-.94-1.41-2.14-1.57-3.32-.26-1.96,1.21-2.52,2.56-3.14.24.36.45.63.62.94.58,1.05,1.16,2.25,2.44,1.22,1.16-.93.35-1.93-.06-2.95-.24-.6-.44-1.63-.17-2,.4-.55,1.23-.68,2.06-1.08-.08,1.26-.13,2.05-.2,3.2.64-.34,1.22-.43,1.34-.75,1.08-2.93,2.08-5.89,3.05-8.68.98.09,2.37.22,3.76.36-1.63-1.22-3.26-1.9-4.91-2.53-1.5-.58-1.88-2.02-1.36-3.34.89-2.26-.25-3.31-1.48-4.48ZM66.49,110.22c-1.11-.91-2.4-1.83-1.83-4.06.11-.43-.96-1.3-1.54-1.89-.49-.49-1.25-.73-1.59-1.31-1.07-1.82-1.25-1.86-2.4-.09-.29.44-.77.72-1.17,1.07-.28-.46-.55-.92-.78-1.3-.4.26-1.02.85-1.15.74-1.1-1.03-1.8-.35-2.12.76-.37,1.28-.12,2.36,1.38,2.53.3.04.78.86.75,1.28-.05.68-.46,1.32-.72,1.98-.45-.24-.94-.41-1.34-.74-.4-.33-.7-.82-1.05-1.24-.13.16-.25.32-.38.48,1.54,2.06,1.24,6.28,5.42,5.65-.88.93-1.94,2.14-2.74,1.94-1.03-.25-1.9-1.58-2.76-2.53-.48-.53-.72-1.36-1.23-1.84-.79-.74-1.71-1.29-2.72-2.03-.99,1.37-.21,3.11.67,4.11,1.59,1.81,1.48,3.42.51,5.37-.11.21-.01.55-.01.9,2.07.61,1.52-1.59,2.02-2.57,2.81,2.54,4.81,2.26,5.88-.61,2.8-.91,2.99,1.42,3.58,4.11-1.2-.29-2.06-.63-2.94-.68-.8-.05-1.65.1-2.4.41-.23.09-.41,1.09-.27,1.52.74,2.27,2.64,3.94,2.62,6.64,0,.32.47.7.79.95.77.6,1.59,1.14,2.77,1.98-.48-2.06-.88-3.82-1.38-5.98.22-.78.61-2.12,1-3.47,1.96.38,2.61,1.94,1.49,3.76-1.04,1.68-.86,2.52.75,3.46.44.26.87.55,1.8,1.13-.25-3.61-.47-6.73-.69-9.93h1.19c-.26-.87-.49-1.61-.6-1.98-.97-.24-2.21-.33-2.24-.58-.12-1.13.11-2.3.22-3.46.23-.09.46-.19.7-.28.31.64.63,1.28,1.15,2.34.52-2.51.92-4.44,1.35-6.53ZM41.68,130.88c-.41,1.18-.49,2.33-1.03,2.83-1.34,1.24-.59,1.83.33,2.49,2.38,1.71,4.66,3.45,4.09,7.36-.07.51.4,1.13.61,1.66,2.54-1.06,4.25-2.7,5.03-5.5.12-.45.68-.85,1.11-1.07,1.47-.77,1.6-1.96,1-3.54h-1.84q-.36-3.76-3.74-2.92c-.25.06-.53.13-.78.08-1.55-.34-2.78-.1-2.81,2.3-.35-.34-.54-.45-.63-.64-.4-.85-.76-1.72-1.35-3.06ZM57,145.43c.12.23.25.46.37.69.91.32,1.88,1.03,2.72.86.84-.17,1.7-1.06,2.26-1.9.64-.97-.52-3.52-1.69-4.26.52-1.54,1.14-3.04,1.5-4.61.1-.43-.54-1.09-.84-1.65-.22.5-.44.99-.64,1.5-.24.58-.46,1.18-.61,1.58-.89-1.28-1.56-2.23-2.31-3.3.5-.31.97-.6,1.84-1.14-1.21-.94-2.14-1.66-3.04-2.35,0,1.13.25,2.11-.07,2.66-.36.63-1.23.86-1.65,1.12.77,1.49,1.42,2.76,1.88,3.66-.51,1.21-.88,2.08-1.18,2.79,1.58.66,2.76,1.16,3.93,1.65.08.22.16.45.25.67-.91.68-1.81,1.36-2.72,2.04ZM446.86,346.97c-3.86-2.32.08-3.08.23-4.41-.9-.42-1.89-.54-2.32-1.17-.41-.59-.23-1.71-.33-2.84-1.73,1.76-1.58,3.25.44,4.97h-5.49c.73,1,1,1.58,1.42,1.91,1.11.89,2.12,1.68,1.57,3.61-.11.37.8,1.62,1.24,1.62,1.2-.01,2.4-.48,3.73-.79-1.12-.63-1.97-1.11-2.82-1.59.06-.21.11-.41.17-.62.53-.18,1.07-.35,2.14-.71ZM51.39,178.25c.82-.15,1.41-.26,1.93-.36-.81-1.22-1.53-2.32-2.27-3.41-.85-1.24-1.91-1.63-3.21-1.12.64,1.59,1.22,3.05,1.93,4.81h-2.68c.74,4.2,3.88,1.41,5.67,2.66-.41-.78-.83-1.57-1.37-2.59ZM404.99,304.5c-.15,1.28-.28,2.41-.41,3.54-.05.48-.16.97-.1,1.43.01.12.68.32.84.18.35-.31.67-.78.82-1.26.16-.5.13-1.08.22-2.08.67,1.83,1.12,3.07,1.56,4.27.81-1.13,1.54-1.92,2-2.88.31-.66.55-2.04.29-2.26-.86-.73-1.97-1.07-3.07-1.61-.17.44-.37.94-.56,1.44-.62-.3-1.13-.54-1.61-.76ZM473.59,219.26c1.15-2.8.5-5.01-1.71-7.39-.75,1.36-1.43,2.6-2.11,3.84.84.26,1.69.51,2.7.82.27.65.69,1.69,1.12,2.73ZM343.02,170.92c.11-.14.23-.29.34-.43.84.37,1.68.76,2.53,1.12.47.19.95.33,1.42.5-.12-.51-.15-1.08-.39-1.51-.76-1.36-2.25-2.45-1.09-4.45.06-.11-.26-.64-.49-.81-.16-.12-.65-.05-.7.09-.69,1.77-2.76,3.01-1.62,5.49ZM68.78,109.56c.05-.41.23-.84.11-1.05-.73-1.3-1.56-2.53-2.26-3.85-.23-.44-.42-1.38-.26-1.52.39-.33.99-.36,1.52-.43.31-.04.63.07.95.11.03-.18.06-.36.09-.54-1.02-.3-2.04-.6-3.11-.91-.06-.61-.12-1.24-.23-2.34-1.56,4.44-.66,7.22,3.2,10.53ZM122.58,201.35c.09,2.02-.17,3.41-1.59,3.85-.71-.63-1.26-1.45-1.58-1.34-.58.2-1.02.94-1.49,1.43,2.81,2.76,4.84.14,6.99-.46-.77-1.15-1.55-2.32-2.33-3.49ZM69.65,143.5c.1-.68.33-1.19.2-1.54-.3-.83-.77-1.58-1.16-2.35-.66.56-1.6.98-1.9,1.73-.41,1.01-.42,2.29-.43,3.45,0,.65.34,1.31.53,1.97.27-.07.55-.13.82-.2.11-1.48.21-2.97.34-4.69.56.57,1.01,1.03,1.61,1.64ZM63.21,100.46c.3-.88.69-1.67.81-2.5.11-.83-.05-1.71-.1-2.57l-.35.15c-.27.63-.55,1.27-.82,1.9-.45-.46-.91-.91-1.33-1.4-.45-.51-.87-1.07-1.49-1.84-.34,3.95.48,5.27,3.29,6.25ZM471.74,259.79c-.18-.06-.37-.12-.55-.18-.31.83-.62,1.66-.99,2.66-2.06-2.27-.33-5.15-1.09-7.45-.2.02-.39.04-.59.06v9.36c.79-.32,1.62-.91,2.46-.94,1.27-.05,1.5-.58,1.13-1.82-.16-.55-.25-1.13-.37-1.7ZM60.49,161.43c.34-1.03.63-1.78.82-2.57.08-.36-.06-.78-.1-1.18-.39.11-.9.07-1.15.34-1.5,1.66-1.46,3.45-.13,5.4,1.72-1.09,2.29.31,2.77,1.95.42-2.13-.44-3.28-2.21-3.95ZM474.15,143.63c.82,1.67,1.58,3.2,2.33,4.72-.59.22-.9-.06-.97,0-.52.48-1.08.97-1.4,1.61-.09.17.59,1.22.93,1.24,1.21.05,2.94-3.02,2.43-4.25-.24-.57-1.16-.96-1.17-1.44-.02-1.87-1.12-1.63-2.14-1.88ZM223.28,191.35c-.88,1.21-1.85,2.29-1.75,2.46.61.94,1.47,1.66,2.25,2.46.46-.71,1.33-1.48,1.26-2.11-.09-.83-.93-1.56-1.76-2.8ZM322.98,197.6c-1.09,0-2.36-.4-3.18.12-.71.45-.91,1.96-1.34,3.02,2.57.59,4.26-.49,4.52-3.14ZM52.68,170.9c1.01-1.73.53-3.67-.96-4.2-.37-.13-.83.11-1.26.18.1.44.15.91.32,1.3.25.58.74,1.06.87,1.65.51,2.46.49,2.49,2.89,2.53-.63-.49-1.27-.99-1.87-1.46ZM52.89,152.8c.73,1.65,1.22,3.02,1.93,4.23.34.59,1.09.87,1.65,1.29.12-.17.24-.35.36-.52-.27-.56-.56-1.11-.79-1.69-.24-.61-.4-1.25-.62-1.87-.22-.6-.37-1.56-.73-1.68-.59-.19-1.32.16-1.8.25ZM55.32,79.41c1.04-1.37.7-3.8-.52-4.33-1.34-.57-2.71-1.05-4.16-1.6-.27,1.73.94,2.17,2.03,2.35,1.56.25,2.66.69,2.25,2.87-.03.15.19.35.4.71ZM67.58,138.54c-1.07-2.25-2.06-4.33-3.17-6.65-.97,2.99.74,6.63,3.17,6.65ZM97.4,96.56c.73,2.05,1.22,3.44,1.75,4.94,1.09-1.11,2.02-2.06,2.83-2.9-1.43-.64-2.7-1.21-4.58-2.04ZM347.09,287.02c.26.95.29,2.03.68,2.25.85.48,1.89.55,2.86.66.11.01.5-1.13.4-1.22-.58-.54-1.24-1.01-1.94-1.34-.51-.24-1.12-.21-2-.35ZM73.34,112.28c-.19.13-.38.26-.58.4-.06,3.6.77,5.01,3.37,4.73-1.02-1.87-1.91-3.5-2.79-5.12ZM470.14,320.88c.55-.37,1-.7,1.47-.99.67-.4,1.7-.61,1.92-1.21.21-.57-.41-1.56-.67-2.36-.17.03-.34.07-.51.1-.3,1.79-3.25,1.67-2.22,4.46ZM465.96,379.53c-.13.16-.26.32-.39.48,1.63.44,2.16,1.27,1.41,2.8-.16.33.29,1.06.46,1.61.31-.42.68-.81.92-1.29.15-.3.18-.72.16-1.08-.05-.98-.16-1.96-.24-2.94-.77.14-1.55.28-2.32.42ZM474.36,277.25c.82-1.82,1.33-2.97,1.85-4.12-1.02-.22-2.03-.44-3.47-.75.61,1.82,1.03,3.08,1.62,4.87ZM471.44,186.56c1-.93,1.67-1.56,2.41-2.25-.57-1.7-1.77-2.09-2.9-1.2-1.74,1.37.5,2.07.49,3.45ZM117.53,474.39c-3.38.86-4.38,3.18-2.95,5.2.89-1.56,1.8-3.16,2.95-5.2ZM401.01,307.29c.13.16.25.32.38.48.57-.23,1.62-.44,1.63-.7.06-1.42-.14-2.85-.27-4.38-2.53.88-1.02,3.2-1.75,4.6ZM432.5,98.28c-.19.13-.37.25-.56.38,0,.64-.04,1.29.01,1.92.06.72.22,1.43.33,2.15.66-.24,1.31-.47,2.01-.73-.74-1.53-1.27-2.63-1.8-3.72ZM470.81,249.3c-.22-.2-.45-.4-.67-.6-.65,1.01-1.31,2.01-1.91,3.06-.02.04.69.9,1,.85,1.83-.27,1.79-1.77,1.58-3.32ZM283.38,183.53c.45,1.76.79,3.12,1.31,5.16.85-1.29,1.41-2.13,1.84-2.78-1.07-.81-1.87-1.41-3.16-2.38ZM475.01,208.11c.18-.16.36-.32.54-.48-.46-.93-.75-2.3-1.44-2.68-.67-.37-1.76.27-2.81.5,1.46,1.05,2.58,1.86,3.71,2.66ZM219.11,196.47c.05.26.1.52.15.77.66.69,1.28,1.44,2,2.03.23.19.74-.06,1.12-.11-.52-1.01-.96-2.12-1.63-2.98-.2-.26-1.07.18-1.63.29ZM132.53,405.39l-.76.07c-.18.69-.36,1.39-.57,2.19-.52-.15-.97-.28-2.04-.59.63,1.06,1.15,2.09,1.23,2.04.76-.41,1.59-.86,2.08-1.59.31-.46.06-1.4.06-2.13ZM39.6,70.75c.19-.01.37-.03.56-.04-.09-.75.02-1.65-.32-2.2-.72-1.2-1.73-1.38-2.93-.35.97.93,1.83,1.77,2.69,2.6ZM126.18,348.66c1.09.46,1.98.84,2.62,1.11-.33-1.2-.65-2.4-1-3.64-1.74-.21-1.83,1.03-1.63,2.54ZM127.66,204.18c-1.06,1.67.17,2.6,1.15,3.52.22.2.8-.12,1.22-.2-.07-.41,0-.97-.22-1.22-.63-.74-1.37-1.36-2.15-2.1ZM110.41,129.17q-.67,3.4.44,4.14c1.62-2.77,1.61-2.95-.44-4.14ZM45.24,131.08c-.13-1.71-.2-3.02-.37-4.32-.03-.27-.41-.64-.65-.67-.23-.02-.68.31-.71.54-.24,1.74-.02,3.3,1.73,4.45ZM56.44,169.6c-.84,2.85-.42,3.61,1.91,3.93-.72-1.48-1.31-2.7-1.91-3.93ZM36.95,84.25c1.06-2.03.51-2.98-.66-3.44-.4-.16-.93.13-1.4.22.32-.16.63-.32.95-.49.37,1.24.74,2.48,1.11,3.71ZM50.93,62.62c-.79-1.48-1.38-2.6-2.23-4.19-.25,1.66-.41,2.72-.57,3.79.88.13,1.63.23,2.8.4ZM386.33,72.43c-.13.15-.27.3-.4.45.68.83,1.31,1.72,2.06,2.45.16.16.81-.19,1.11-.47.1-.09-.09-.92-.33-1.08-.77-.53-1.63-.9-2.45-1.34ZM48.18,66.8c1.81,2.03,2.89,1.65,3.73-.64-1.08.19-2.16.37-3.73.64ZM210.45,198.3c.44.99.84,1.9,1.24,2.8.29-.31.86-.77.81-.92-.31-.84.37-2.75-2.05-1.89ZM94.21,496.85c.08-.18.17-.36.25-.54-.62-.8-1.24-1.6-2.05-2.65-.31,1.17-.51,1.91-.76,2.85.99.13,1.78.23,2.56.34ZM462.29,242.65c.99.95,1.78,1.72,2.57,2.48.12-.06.24-.12.36-.17-.42-1.19-.83-2.38-1.34-3.83-.78.74-1.25,1.2-1.59,1.52ZM133.94,399.07c-.12-.15-.23-.3-.35-.44-.58.63-1.37,1.15-1.67,1.92-.23.59.17,1.5.29,2.27.13-.02.26-.05.39-.07.45-1.22.9-2.45,1.35-3.67ZM471.89,134.7c2.31-1.79,3.13-3.81,2.55-5.52-.76,1.65-1.55,3.35-2.55,5.52ZM132.36,396.83c.07.14.13.27.2.41.48-.07.96-.1,1.43-.21.58-.13,1.14-.33,1.72-.5-.09-.34-.17-.97-.29-.97-.6-.04-1.26-.05-1.81.17-.47.19-.83.72-1.25,1.1ZM135.25,209.23c-.81-1.06-1.46-1.91-2.26-2.96-.48,2.79.08,3.53,2.26,2.96ZM464.3,285.28c.13-1.28.31-2.02.23-2.71-.06-.5-.45-.97-.77-1.38-.08-.1-.63.06-.65.19-.11.52-.25,1.14-.11,1.6.21.66.66,1.21,1.3,2.3ZM471.73,158.19c.26-.14.53-.28.79-.42-.49-1.18-.97-2.37-1.52-3.52-.03-.06-.69.29-1.14.49.7,1.3,1.29,2.37,1.87,3.45ZM110.93,156.65c.31-.05.62-.1.93-.15.43-1.23.76-2.44-1.33-3.69.17,1.64.28,2.74.4,3.83ZM41.57,233.07c.95,0,1.77.22,1.91-.04.46-.84.66-1.85.97-2.8-.17-.08-.34-.16-.51-.24-.65.85-1.31,1.71-2.37,3.09ZM53.87,63.95c-.71,2.1-.01,3.21,2.11,3.38-.75-1.2-1.38-2.21-2.11-3.38ZM114.77,481.89c1.37.61,2.35,1.05,3.34,1.49.1-.19.2-.37.3-.56-.46-.66-.92-1.31-1.39-1.99-.72.34-1.3.61-2.25,1.06ZM49.14,163.24c-.87-.53-1.35-.94-1.88-1.11-.45-.15-.98-.08-1.46,0-.12.02-.3.67-.25.71.4.32.83.76,1.27.79.65.05,1.33-.2,2.32-.39ZM69.97,119.31l-1.09.23c.06.81.12,1.62.18,2.42.44-.14,1.25-.28,1.25-.42,0-.74-.21-1.49-.34-2.23ZM117.36,352.17c1.89-2.32,1.88-2.56-.22-4.1.07,1.39.14,2.55.22,4.1ZM35.3,96.93c-.17.02-.33.03-.5.05-.12.41-.41.89-.32,1.23.18.67.57,1.27.88,1.89.23-.38.69-.8.64-1.13-.1-.7-.45-1.36-.71-2.04ZM43.83,236.02c.04.39.09.79.13,1.18,1.82-2.43,1.86.85,3.05.8.56-1.71-.61-2.12-1.47-2.46-.47-.18-1.13.29-1.7.47ZM79.05,154.43l.75.3c.34-.8.69-1.61,1.03-2.41-.45-.09-1.27-.33-1.3-.24-.25.75-.34,1.56-.49,2.35ZM47.45,67.96c-1.26-1.1-2.08-1.81-2.89-2.52.08,1.86.58,3.08,2.89,2.52ZM469.98,114.66c.1.23.2.46.3.68.63-.14,1.26-.29,1.9-.43-.15-.61-.31-1.21-.58-2.28-.75.94-1.19,1.49-1.62,2.03ZM58.93,165.19c.7,1.07,1.18,1.83,1.76,2.72.94-2.52.8-2.76-1.76-2.72ZM97.93,52.01c-.29.24-.58.48-.88.72.43.7.87,1.4,1.3,2.11.26-.26.77-.68.73-.77-.33-.72-.76-1.38-1.15-2.06ZM120.31,370.76c.25-.93.51-1.86.76-2.8-1.67.35-2.11,1.21-.76,2.8ZM129.31,391.65c.14.14.28.27.42.41.63-.81,1.32-1.58,1.84-2.48.1-.16-.46-.83-.66-1.17-.61,1.23-1.1,2.23-1.6,3.24ZM61.25,155.06c.09.25.17.51.26.76.55-.11,1.24-.02,1.59-.38.25-.26.05-1.1.05-1.69-.16-.07-.33-.14-.49-.21-.47.51-.94,1.01-1.41,1.52ZM255.14,184.47c-.17-.09-.35-.17-.52-.26-.32.44-.91.89-.9,1.32.02.65.46,1.28.72,1.92.17-.06.35-.11.52-.17.06-.94.12-1.88.18-2.82ZM95.36,118.85h2.78c.08-.2.15-.4.23-.6-.58-.31-1.15-.77-1.75-.86-.27-.04-.61.68-1.26,1.46ZM470.03,324.59c-.17.1-.34.21-.52.31.1,1.15.2,2.3.32,3.79.33-.49.88-.94.85-1.33-.07-.94-.42-1.85-.65-2.77ZM224.2,294.09c-.18-.04-.37-.08-.55-.12-.07.7-.36,1.51-.14,2.06.22.56.94.85,1.61,1.4-.39-1.43-.66-2.38-.92-3.34ZM238.93,194.61c-1,.65-1.86,1.2-3.2,2.06,3.5-.08,3.52-.1,3.2-2.06ZM51.9,216.29c-.19-.83-.36-1.98-.47-1.97-.74.06-1.47.35-2.69.72,1.33.53,2.06.81,3.16,1.25Z"/>
  <path class="cls-1" d="M33.48,104.69c.85-.06,1.88-.24,2.89-.11.26.03.7,1.15.58,1.59-.28,1.04-.86,1.97-1.56,3.46,2.67-.34,3.5,1.63,4.56,4.2-1.23.46-2.42.91-3.22,1.21-1.18-2.28-2.19-4.25-3.2-6.21-.1.06-.21.12-.31.18.18,1.43.13,2.96.57,4.26,1.11,3.24,1.2,3.2-1.91,4.51-.39-2.69-.8-5.29-1.13-7.9-.06-.45.19-1.01.43-1.43.73-1.27,1.52-2.5,2.31-3.77Z"/>
  <path class="cls-1" d="M112.16,140.93c1.7,1.67,3.13,3.06,4.55,4.46-.06.1-.11.2-.17.31-.43-.17-.86-.34-1.28-.52-.12.11-.25.22-.37.33.45.92.8,1.93,1.37,2.75,1.47,2.13,2.4,4.3,1.61,7.15-.18.67.49,1.65.78,2.52-1.04.35-1.93.21-2.33-1.48-.38-1.63-2.21-2.76-1.27-4.88.06-.14-.3-.65-.55-.84-.95-.71-1.02-1.43-.53-2.65.28-.69.08-2.36-.3-2.56-1.81-.94-1.42-2.6-1.51-4.59Z"/>
  <path class="cls-1" d="M483.01,208.96v2.67c-.38-.71-.59-1.09-.89-1.63-.33.6-.59,1.07-.58,1.03-.91,0-1.87-.19-1.95.04-.24.68-.4,1.66-.13,2.26.56,1.28,1.41,2.4,2.4,4-2.83-.33-4.27-2.47-3.93-5.55.12-1.08,1.01-2.39,1.86-2.91.76-.47,1.96,0,3.21.08Z"/>
  <path class="cls-1" d="M36.11,155.14c-.1-2.37-.19-4.54-.29-6.95,1.3.58,2.24.84,3.02,1.39.48.34.95,1.09,1,1.71.04.47-.5,1.11-.91,1.51-.7.69-1.5,1.26-2.82,2.33Z"/>
  <path class="cls-1" d="M479.34,185.92c.35,1.45.66,2.75.97,4.05-.14.07-.28.15-.41.22-.27-.39-.54-.79-.81-1.18-.13.02-.25.05-.38.07.13,1.23.25,2.47.39,3.87-1.46.31-1.86-.8-2.08-1.96-.57-2.94-.08-3.89,2.33-5.07Z"/>
  <path class="cls-1" d="M478.46,357.25c-.98.67-1.85,1.27-2.95,2.02.51-2.63-.79-3.92-3.39-4.05,2.54-1.65,4.58-.94,6.34,2.03Z"/>
  <path class="cls-1" d="M474.39,224.35c1.41-.91,2.43-1.56,3.52-2.26,1.86,1.33,2.21,2.33,1.27,4-.77-.27-1.55-.55-2.32-.83-.71-.26-1.42-.53-2.47-.91Z"/>
  <path class="cls-1" d="M57.55,470.67c.8,2.19,2.39,3.93,1.96,6.84-3.45-4.22-3.69-5-1.96-6.84Z"/>
  <path class="cls-1" d="M476.19,381.46c-1.06-1.15-2.23-2.41-3.62-3.93,1.41-.41,2.61-.76,3.62-1.05v4.98Z"/>
  <path class="cls-1" d="M140.62,470.45c-1.32-.87-1.63-3.56-.41-4.36.43-.28,1.22,0,1.77.26.14.06.12,1.03-.05,1.47-.37.93-.89,1.79-1.35,2.67l.04-.03Z"/>
  <path class="cls-1" d="M140.58,470.48c1.22-.02,2.49-.18,3.3,1.88-1.51-.11-2.77-.21-4.26-.32.28.81.48,1.39.68,1.98-.15.09-.3.18-.45.27-.38-.81-.77-1.62-1.14-2.42.77-.57,1.34-.99,1.92-1.42,0,0-.04.03-.04.03Z"/>
  <path class="cls-1" d="M481.96,277.63c-.24.86-.29,2.01-.81,2.48-.33.3-1.35-.42-2.49-.83,1.2-.92,1.92-1.47,2.63-2.02.22.12.44.24.67.37Z"/>
  <path class="cls-1" d="M474.89,302.87c.41-.3.81-.85,1.22-.86.8-.02,1.61.27,2.71.48-.03.21,0,.86-.27,1.29-.11.18-.83-.12-1.26-.24-.82-.22-1.62-.47-2.44-.71,0,0,.03.04.03.04Z"/>
  <path class="cls-1" d="M39.64,212.13c.42-.66.84-1.32,1.25-1.98.35.38.71.76,1.06,1.14-.5.55-.99,1.1-1.49,1.65-.28-.27-.55-.54-.83-.81Z"/>
  <path class="cls-1" d="M108.61,87.66c-.67,1.03-1.15,1.78-1.78,2.76.07-1.59.12-2.85.19-4.47.68.74,1.25,1.34,1.6,1.72Z"/>
  <path class="cls-1" d="M466.81,401.6c-.57.73-1.14,1.47-1.71,2.2-.22-.31-.67-.84-.62-.91.5-.73,1.08-1.38,1.63-2.05.23.25.47.51.7.76Z"/>
  <path class="cls-1" d="M42.73,108.93c.19,1.21.39,2.42.63,3.91-2.19-.82-1.13-2.5-1.26-3.76.21-.05.42-.1.63-.15Z"/>
  <path class="cls-1" d="M474.86,364.75c.45,1.7.72,2.69,1.2,4.48-.87-1.05-1.6-1.6-1.85-2.36-.16-.49.37-1.29.65-2.12Z"/>
  <path class="cls-1" d="M49.2,81.92c.99,1.19,1.97,2.39,2.95,3.56-.89.68-3.78.49-4.35-.55-.38-.69-.43-1.61-.63-2.43.69-.18,1.38-.36,2.06-.54,0,0-.03-.04-.03-.04Z"/>
  <path class="cls-1" d="M57.46,106.82c.76-.91,1.81-2.18,2.98-3.59.29.92.59,1.91.84,2.69-1.52.36-2.87.68-3.82.9Z"/>
  <path class="cls-1" d="M63.07,107.36c.4,1.62.67,2.71.94,3.8-.13.12-.25.23-.38.35-.48-.56-1.25-1.06-1.36-1.7-.11-.65.44-1.45.79-2.45Z"/>
</svg>