<?xml version="1.0" encoding="UTF-8"?>
<svg id="Layer_1" data-name="Layer 1" xmlns="http://www.w3.org/2000/svg" viewBox="0 0 386.78 396">
  <defs>
    <style>
      .cls-1 {
        fill: #ed2190;
        stroke-width: 0px;
      }
    </style>
  </defs>
  <path class="cls-1" d="M370.22,128.15c-.7-1.17-.51-2.07.37-2.98,1.48.73,3.69.68,2.94,3.43.5-1.26.91-2.43.94-3.61.04-1.49-.47-2.68-2.41-2.34-.42.07-.9-.18-1.36-.29.64-2.28,1.81-2.64,3.77-.97.28-3.21.52-6.04.78-9.06,1.39.2,2.68,0,2.82-2.05-1.75.08-2.13-1.12-2.34-2.43-.27-1.67.38-2.89,1.56-3.37-.29-.92-.49-1.61-.74-2.29-.4-1.1-.79-2.2-1.26-3.27-.26-.6-.65-1.13-1.16-1.99,1.13-.3,1.95-.52,2.77-.72.44-.11.89-.18,1.33-.26-.32-.39-.73-.73-.95-1.17-.3-.6-.61-1.27-.65-1.93-.05-.79.29-1.6.24-2.38-.14-2.39-.4-4.77-.6-7.15-.03-.37-.17-.82,0-1.09,1.19-1.99.67-3.67-.99-5.19,1.4-1.57,1.24-2.94-.29-4.25-.3-.26-.44-.91-.38-1.35.21-1.61.87-3.23.71-4.78-.16-1.52.98-3.45-.98-4.62-.11-.07-.18-.35-.15-.51.44-2.78-.11-5.46-.58-8.19-.79-4.54-1.01-9.18-1.96-13.68-1.35-6.34-3.15-12.59-4.74-18.88-.6-2.38-2.08-3.68-4.51-3.92-2.06-.21-3.25-1.3-3.82-3.37-.17-.63-.57-1.2-.99-2.06-.58,1.02-.94,1.64-1.57,2.76-.38-1.09-.59-1.7-.73-2.11-.95.58-1.91,1.26-2.96,1.74-.37.17-1.24,0-1.42-.29-.53-.89-.82-1.92-1.22-2.89-.18-.45-.38-.9-.78-1.86-.63,1.73-1.03,2.84-1.31,3.62-1.51-.25-2.87-.47-4.43-.73.01-.09.15-.55.11-1.01-.09-1.21-.26-2.42-.39-3.63-.59.17-1.16.37-1.76.47-.16.03-.35-.34-.56-.41-.55-.2-1.12-.33-1.94-.56.12.86.41,1.48.24,1.93-.39,1.03-.81,2.17-1.57,2.91-.65.64-1.83.68-2.68,1.17-.92.53-1.82,1.2-2.58.01-.71-1.1-.44-2.1.74-2.88.75-.5,1.35-1.24,1.93-1.8-1.16-1.29-2.02-2.25-2.7-3.02-.56.65-1.03,1.09-1.38,1.62-.48.71-1.38,1.65-1.2,2.21.75,2.35-1.82,2.24-2.47,3.54-.19.37-1.58.14-2.43.18.3-.89.66-1.31,1.1-1.64.87-.64,1.08-1.3.67-2.41-.74-2.03-3.14-3.65-5.34-3.23-1.07.2-2.1.88-3.15.87-1.07,0-2.13-.6-3.04-.89-.5,1.13-.88,2-1.26,2.87.14.95.27,1.9.46,3.23-.79-.71-1.5-1.16-1.91-1.81-.11-.18.7-.93,1.08-1.42.12-1.22.25-2.45.4-3.98-1.16.75-2.03,1.35-2.92,1.9-.98.6-1.56.4-2.19-.69-.49-.85-1.47-1.76-2.36-1.91-.71-.12-1.87.66-2.38,1.36-1.19,1.62-2.47,1.86-3.74.35-.63-.75-1.2-1.55-1.79-2.33-.31.11-.63.21-.94.32-.27,1.11-.55,2.22-.81,3.29.73.46,2.34.61.97,1.49-.66.43-2.27-.35-3.3-.89-.32-.17-.38-1.8-.11-1.95,2.54-1.43,1.55-2.08-.1-3.67-1.2-1.15-2.02-1.37-3.31-1.03-.33.09-.57.53-.86.8.33.22.63.53.99.65.76.24,1.55.39,2.08.51-1.5,1.17-2.85,2.35-4.33,3.31-.62.4-1.54.35-2.46.53.39-1.5.96-2.6.86-3.63-.09-.85-.86-1.75-1.56-2.34-.3-.25-1.46.04-1.79.44-.31.38-.05,1.23-.04,1.87,0,.35.13.96,0,1.02-1.31.57-2.62,1.32-4.01,1.51-1.98.26-4.03.04-6.04.16-.47.03-1,.51-1.33.92-2.65,3.3-5.07,6.7-6.17,10.91-.64,2.45-.61,2.69,1.89,2.5.08,0,.17.15.38.36-.49.66-.99,1.34-1.35,1.81-.68-.08-1.17-.13-1.65-.19-.03.56-.23,1.17-.07,1.68.56,1.83,1.28,3.63-.23,5.36-.14.16-.23.48-.19.69.33,1.56.76,3.09,1.05,4.66.2,1.07.7,1.44,1.79,1.43.6,0,1.2.49,1.79.76-.54.31-1.05.82-1.62.9-2.87.41-4.04,2.43-2.8,4.97.11.22.22.49.19.71-.14,1.02.13,1.82,1.25,1.91.84.07,1.69-.12,2.54-.2-.02-.22-.05-.45-.07-.67h-2.35c-.02-.21-.04-.42-.06-.63.82-.09,1.65-.14,2.46-.27,1.03-.16,2.15-.32,1.07-1.98,1.92.95,2.55,3.09,1.99,5.64-.3,1.32-.78,1.81-2.22,1.23-1.73-.7-3.58-1.12-5.45-1.69,0,2.29-.03,4.3.01,6.3.02.9.16,1.8.25,2.71-1.77,4.41,2.96,3.31,4.38,4.77-1.23,2.58-1.22,2.54-3.69,1.75-.34-.11-1.09.22-1.26.54-.48.95-.76,2-1.18,3.21-1.46-.22-2.78-.43-4.42-.68-.32,1.42-2.05.45-3.3.86-3.9,1.26-7.36,3.49-9.7,6.76-1.27,1.77-2.94,4.08-1.71,6.78.07.15-.11.51-.28.65-1.42,1.21-.23,1.9.49,2.72.46.53.86,1.12,1.28,1.68-1.28.77-2.55,1.53-4.04,2.43,1.11.76,1.57,1.68-.28,2.7,1.72.39,1.72,1.19,1.64,2.61-.09,1.75.77,3.6,1.44,5.33,1.62,4.17,1.83,8.86,4.55,12.63.14.19.25.49.21.71-.52,2.7.43,5.09,1.4,7.54.86,2.18.17,2.97-2.1,2.73-.72-.08-1.42-.41-2.12-.65-1.3-.45-2.18-.13-2.56,1.2,1.87,2.01,4.09,1.86,6.46.91.12.22.24.44.37.66-.81,1.19-1.61,2.38-2.54,3.76.01.08.1.54.19,1-.46,0-.91.02-1.37.03-.79,0-1.64-.19-2.35.04-1.27.42-2.3.57-2.85-1.01-3.35,4.43-3.16,3.94-6.27,3.39-.7.39-1.47.71-2.18.62-2.08-.26-3.83-.88-4.77-3.19-.69-1.68-2.83-1.96-3.99-.75.87.5,1.69.97,2.17,1.25v4.69c-1.88-.23-3.69,2.32-5.9.18-.16-.15-.88.16-1.25.39-.38.25-.63.67-.7.74-.82-.59-1.38-1.17-2.06-1.43-.37-.14-1.32.18-1.38.44-.35,1.45-1.44,1.73-2.62,2.06-1.87.52-3.7,1.18-5.57,1.68-2.71.73-5.44,1.37-8.17,2.04-1.11.27-1.82.04-2.35-1.17-.54-1.22-1.41-2.37-2.38-3.3-.43-.41-1.59-.5-2.17-.21-.76.37-1.38,1.19-1.79,1.97-.11.21.83,1.4,1.14,1.34,1.24-.24,2.04.35,1.99,1.33-.03.69-.85,1.64-1.55,1.94-1.87.8-3.85,1.34-5.81,1.89-.3.08-1.02-.28-1.04-.48-.03-.42.16-.99.47-1.25.63-.54,1.4-.92,1.89-1.23-.53-.76-1.07-1.26-1.27-1.87-.57-1.78-1.19-1.8-3.29,0,1.06,1.68.87,2.43-.45,2.76-.38-.9-.74-1.75-1.1-2.6-.53.6-1.07,1.2-1.6,1.81-.04.05-.05.15-.09.16-1.26.43-3.34,1.55-3.66,1.17-1.57-1.86-2.76-.24-4.33-.22.49,1.03,1.04,1.73,1.1,2.47.05.62-.31,1.58-.8,1.86-.83.47-1.89.52-2.86.75-2.85.67-3.47.15-2.95-2.66-.32.02-.63-.02-.91.05-3.86.96-7.73,1.87-11.56,2.93-7.48,2.08-15.14,2.64-22.84,2.87-3.67.11-7.36-.09-11.03-.24-.49-.02-1.19-.54-1.38-1-.35-.84-.53-1.81-.55-2.73-.06-3.47-.16-6.95,0-10.41.23-5.27-.8-10.46-.58-15.76.24-5.63-.37-11.29-.63-16.94-.27-6.05-.88-12.11-.76-18.15.11-5.81-1.72-11.19-3.02-16.65-.64-2.71-2.8-5.05-4.21-7.6-.32-.57-.58-1.28-.55-1.91.14-3.8-.23-4.46-3.87-5.79-1.27-.47-1.73-1.08-1.52-2.51.39-2.54-.46-4.73-2.55-6.33-1.26-.97-2.53-1.84-3.11-3.49-.32-.9-1.17-1.63-1.86-2.36-1.81-1.92-3.7-3.77-5.47-5.73-.38-.42-.39-1.18-.57-1.79.64-.15,1.26-.34,1.91-.42.67-.09,1.36-.07,2.03-.1,0-.2.02-.4.03-.61-.39-.28-.8-.54-1.18-.84-3.31-2.73-5.86-2.79-9.3-.36-.68.48-1.59.64-2.41.91-.69.22-1.45.29-2.11.58-2.89,1.26-5.74,2.61-8.62,3.88-3.11,1.37-6.34,2.51-9.34,4.09-2.98,1.58-5.79,3.01-9.4,2.33-.98-.19-2.79.94-3.32,1.94-2.34,4.39-6.66,4.07-10.53,4.83-1.63.32-3.38.12-4.97.56-1.85.51-3.64,1.34-5.33,2.25-1.55.83-3.43,1.65-4.3,3.02-1.53,2.41-3.7,3.52-6.1,4.59-2.09.93-4.31,1.74-6.09,3.1-2.35,1.79-4.65,3.83-6.39,6.19-1.44,1.95-3.52,3.86-3.1,6.78.6,4.2-.17,8.46,1.14,12.7,1.45,4.65,1.92,9.59,3.25,14.28.98,3.46.57,6.91.64,10.33.12,5.6-.59,11.22-.66,16.83-.06,4.55.37,9.11.47,13.66.07,3.34,1.53,6.61.5,10.01-.07.22.03.49.06.74.47,4.15.92,8.3,1.42,12.45.75,6.16-.24,12.47,1.5,18.55.06.22,0,.5-.04.74-.29,1.76-.78,3.51-.85,5.28-.13,3,.02,6.01,0,9.02,0,.55-.22,1.09-.32,1.64-.29,1.57-.67,3.13-.84,4.71-.31,2.95-.46,5.91-.74,8.86-.19,1.97-.64,3.92-.73,5.89-.16,3.6.28,7.29-.35,10.8-.32,1.83-.23,2.4,2.05,2.66-2.79,1.44-3.24,3.46-2.98,5.78.02.18-.05.37-.05.56,0,2.27,0,4.53,0,6.86.53-.13.94-.22,1.49-.35-1.11,2.76-2.1,5.34-1.61,8.16.17.99.37,2.12.98,2.84.27.32,1.68-.04,2.36-.43.54-.31.77-1.16,1.15-1.78q1.87.44.38,3.66c-.95-.1-1.95-.16-2.93-.31-1.29-.2-2.03.57-2.09,1.6-.08,1.4.25,2.83.41,4.24.04.34.16.67.17,1.01.03.77,0,1.54,0,2.31-1.13,2.33-.43,3.97,2.51,4.73-.78,1.24-1.54,2.43-2.6,4.12v7.45c.65-.31,1.37-.66,2.09-1,.12.19.25.38.37.57-.53.37-1.03.99-1.6,1.06-1,.12-1.34.44-1.14,1.43.22,1.06.67,2.2.47,3.2-.58,2.89.17,5.51,1.08,8.38-1.34.66-1.66,1.78-.66,3.23.17.25.13.79-.02,1.09-.75,1.48-.32,2.53.9,3.58,1.07.92.58,1.91-.46,2.6-.33.22-.73.32-1.16.49.27.78.5,1.42.73,2.09.54-.08,1-.15,1.46-.22.25.29.5.57.75.86-.64.28-1.54.4-1.84.88-.39.63-.65,1.84-.3,2.29.44.57,1.54.78,2.37.83.38.02.77-.78,1.22-1.13.78-.59,1.59-1.19,2.47-1.59.12-.06.78.97,1.12,1.55.18.31.27.71.29,1.08.04.71.2,1.94-.03,2.03-.74.28-1.86.46-2.44.07-1.62-1.08-3.09-.45-4.8-.14.39,1.65.75,3.18,1.18,5.01.05.02.41.16.95.37-3.13.42-1.55,2.41-1.33,3.59.59,3.11.75,3.1,3.82,2.36.24,1.57-.31,2.13-1.91,1.7-.89-.24-1.58-.32-1.49.82.13,1.81.42,3.61.67,5.67h3.54c-1.16.93-1.87,1.5-2.58,2.07.81.14,1.42-.07,1.98-.37.75-.39,1.63-1.25,2.18-.05.23.51-.4,1.41-.65,2.14-.17-.05-.33-.1-.5-.14.22.36.44.72.62,1.02-1.46.44-2.77.83-4.38,1.31.72.55,1.31,1,2.06,1.57-.66.23-1.1.38-1.19.41-.19,1.42-.35,2.61-.6,4.48,1.38-.98,2.48-1.58,3.35-2.43,1.08-1.06,1.93-.86,2.9.04.51.47,1.13.8,1.62,1.29.41.42.87.92.99,1.46.08.36-.34,1.18-.62,1.21-1.59.21-3.2.23-4.79.37-1.24.11-2.47.32-3.9.5.34.76.53,1.19.73,1.63.12-.16.23-.32.35-.48.67.27,1.84.44,1.93.84.31,1.4.21,2.87-1.66,3.03-.12,1.32-.23,2.5-.35,3.73.54-.07.99-.12,1.63-.2-.72,1.13-1.32,2.07-2.11,3.31,1.65.29,2.84.47,4.01.73.58.13,1.18.35,1.66.68.12.08-.07,1.02-.29,1.11-.57.21-1.24.22-1.86.21-.84-.02-1.67-.15-2.46-.23.35,1.23,1.04,2.31.74,2.84-.94,1.65-.26,2.64.99,3.56-.67.59-1.25,1.09-1.82,1.59.12.22.23.44.35.66,1.13-.37,2.24-.88,3.4-1.07,1.84-.3,2.92-.78,1.64-2.87-.22-.36.3-1.18.48-1.78.17.05.33.09.5.14.09.45.19.91.29,1.42.3-.59.55-1.09,1.02-2,.41,2.55.83,4.55,1.04,6.58.14,1.39-.29,2.67-2.1,2.09-1.44-.46-2.77-1.23-4.31-1.93-.15.36-.47,1.1-.81,1.89-.52-.27-.89-.47-1.52-.81,0,.82-.22,1.6.04,1.83.78.68,1.75,1.14,2.79,1.78-.65,1.73-1.34,3.55-2,5.38-.53,1.46.05,2.5,1.71,2.16,4.03-.83,6.94,3.14,10.88,2.26.07-.02.18.15.35.29-.12.49-.26,1.01-.39,1.53.2.15.4.3.6.46.45-1.12.9-2.23,1.35-3.35.26.26.52.51.79.77-.05-.89-.09-1.77-.14-2.66.17-.09.34-.17.51-.26,1.22,1.16,2.46,2.29,3.63,3.5.14.15-.05.74-.22,1.05-.53.97-.45,1.63.72,2.01.8.26,1.54.69,2.32,1.04-.49.54-.85.94-1.46,1.61,1.33-.25,2.25-.7,3-.51,1.18.3,1.61-.24,2.04-1.08l-.03-.02s.03.02.03.02c.84-.16,1.69-.48,2.53-.45,2.06.07,2.47-.23,2.3-2.29-.09-1.15-.37-2.28-.56-3.42-.16.13-.31.27-.47.4-.9-.35-1.8-.69-2.7-1.04.58-.62,1.47-1.16,1.68-1.89.3-1.04,0-2.24.14-3.34.1-.78.33-1.67.82-2.24.91-1.05,2.15-1.81,3.09-2.84,1.16-1.26,2.66-1.48,3.56-.05,1.38,2.19,3.31,1.94,5.29,1.51.58-.12,1.04-.75,1.56-1.14,0-.21,0-.42-.01-.64-3.56.34-5.45-1.37-6.19-4.5-.04-.17-.18-.38-.33-.44-.43-.17-.93-.45-1.33-.36-.28.06-.65.64-.64.99.02,1.15-.51,1.93-1.58,1.84-.31-.03-.53-1.35-.76-2.09-.13-.43-.08-.94-.3-1.29-.1-.16-.82-.15-1,.03-.36.36-.67.88-.74,1.38-.12.81.06,1.67-.06,2.48-.07.43-.51.81-.78,1.21-.24-.42-.67-.84-.68-1.27-.03-1.21.42-2.51.11-3.62-.47-1.69-.05-2.33,1.6-2.55.47-.06,1.21-.57,1.26-.95.13-1-.08-2.04-.1-3.07-.04-1.82-1.86-.47-2.4-1.38-.06-.1-.07-.24-.1-.35,2.13-2.31,4.76-2.65,7.24-1.23.97-.31,2.05-.7,2.91-.42,1.79.59,2.4-.16,2.72-1.71-2.32-.29-2.35-.33-1.76-2.42,1.14.13,2.29.26,3.43.38.02-.15.04-.29.06-.43-1.4-.86-2.81-1.73-4.21-2.59.08-.3.15-.6.23-.9,2.04-.08,4.08-.28,6.11-.19.8.04,1.57.72,2.61,1.23-1.51,1.37-2.78,2.48-1.79,4.29.85,1.57.55,2.13-1.32,1.94-1.55-.16-1.93.59-1.17,1.94.2.36.42.71.69,1.16-3.76,1.58-2.52,5.82-4.85,8.13,2.51-.04,3.02-2.26,3.7-3.66.72-1.49,1.71-1.46,2.44-1.07,1.75.95,3.15,1.7,3.59-1.64.45.79.82,1.14.8,1.46-.05,1.21.72,1.46,1.65,1.61.43.07.86.17,1.28.28,1.23.32,1.98.82.61,1.94-2.08,1.69-4.44,2.31-7.63,1.69.94.74,1.7,1.1,2.08,1.7.45.71.75,1.63.77,2.46.01.37-.77.87-1.28,1.11-.47.21-1.06.15-1.59.21.01.19.02.39.03.58.45.09.93.34,1.35.25,2.31-.49,2.3-.52,2.42,1.79.01.23.15.45.22.66,1.5-.12,4.47-2.33,4.82-3.54.56-1.92,1.02-3.93,3.3-3.81-.05-.55-.05-.98-.14-1.4-.15-.65-.25-1.36-.59-1.92-.29-.48-.88-.77-1.4-1.2.56-.64.96-1.09,1.11-1.26-1.01-.82-1.99-1.54-2.86-2.35-.49-.46-.8-1.1-1.21-1.65-.75-1.02-1.35-2.09-.23-3.18,1.11-1.08,2.52-1.05,3.6-.15,2.1,1.74,3.95,3.71,2.96,6.87-.2.62-.16,1.32-.23,1.96,2.61.85,3.57,2,2.86,5.15-.7,3.09-3.56.69-5.39,1.24.09.29.1.5.21.62,1.65,1.85,3.27,3.73,5,5.51.53.54,1.34.88,2.09,1.1.77.23,1.61.2,2.42.3,1.26.16,1.27.83.63,1.67-.24.31-.64.49-1.07.81.37.29.62.46.85.66,1.52,1.3,1.82,1.23,2.59-.64.29-.71.54-1.44.94-2.5.71.99,1.33,1.63,1.69,2.39,1.36,2.9,1.8,3.02,4.11.93.08-.07.07-.23.13-.42-.61-.87-1.25-1.79-1.89-2.7.54-.84.83-1.68.69-2.44-.21-1.13.13-1.51,1.21-1.5,1.88.01,2.38.76,1.54,2.54-.6,1.27-.26,1.93,1.11,2.02.6.04,1.22-.05,1.83-.09-.09.13-.17.26-.26.39.58.38,1.33,1.22,1.73,1.08,2.51-.88.3-2.19.05-3.36.92-.33,1.75-.9,2.53-.84.92.08,1.81.67,2.68,1.12.43.22.76.62,1.14.93.41-.57,1.22-1.18,1.15-1.68-.13-.99-.85-1.9-1.12-2.89-.17-.59-.22-1.62.12-1.89,2.02-1.58,4.35-.59,4.84,1.94.09.49.23.98.36,1.46.28,1.01-.17,1.39-1.13,1.42-.65.02-1.3.13-2.13.21.27.55.32.75.44.87,2.17,2.04,4.34-.53,6.53-.05.25.06.7-.27.88-.54.17-.25.11-.66.12-.78-.9-.23-1.75-.27-2.33-.68-.29-.2-.15-1.09-.1-1.65,0-.09.83-.26.91-.15,1.3,1.87,2.89.53,4.2.58.07-1.26.49-2.49.1-3.39-.43-.98-1.59-1.65-2.13-2.17.35-1.47.62-2.61.86-3.61-.97-.45-1.62-.75-2.44-1.13.95-.48,1.79-.63,2.14-1.13,1.02-1.41,1.5-.9,2.05.32.75,1.68,1.58,3.32,2.34,5,.18.39.31.85.29,1.27-.07,1.23-.23,2.45-.35,3.67.99-1.02,2.1-1.73,2.39-3.47.41-2.44-1.39-3.5-2.38-5.01-.93-1.42-.69-2.1.66-2.77,1.24-.61,2.21-1.31,1.14-2.88-.16-.24-.16-.81.01-1.04.97-1.27.12-2.02-.63-2.92-.32-.38-.6-1.3-.4-1.54,1.3-1.48,1.04-2.94,0-4.54,1.21-.42,2.44-.55,3.26-1.19,1.3-1.02.45-2.05-.03-2.57-1.46.09-2.77-.23-3.29.27-1.31,1.28-2.23.52-3.32-.09-.37-.2-.82-.45-1.2-.41-2.24.24-3.07-.82-2.45-3.07.18-.66.21-1.51-.05-2.12-.59-1.36-1-2.74-2.33-3.84-1.66-1.37-.5-3.31-.09-5.02,2.78.48,4.56,3.22,3.88,5.84-.56,2.18-.04,2.76,2.27,2.61.44-.03.88.11,1.33.17.02.15.05.31.07.46-.81.39-1.61.79-2.28,1.11.9.73,1.69,1.42,2.55,2.02.33.23.81.36,1.22.37,3.85.13,3.89-.07,2.27-3.55-.46-.99-.43-2.54.04-3.51.25-.51,1.92-.33,2.93-.46.28,3.3-.81,6.53,2.41,8.63.21-.7.21-1.38,0-1.99-.61-1.85-1.86-3.62-.52-5.66.16-.24.22-.61.2-.91-.21-3.36-.23-6.74-.76-10.05-.28-1.75-1.16-3.27-.57-5.25.38-1.29-.09-2.97-.57-4.34-.62-1.77-2.68-.65-3.83-1.5-.63-.47-1.18-1.04-1.77-1.56.78-.59,1.57-1.68,2.34-1.66,1.32.02,2.14-.39,2.45-1.5.33-1.23.57-2.56.47-3.81-.37-4.49-.86-8.97-1.41-13.44-.1-.79-.56-1.59-1.01-2.27-.8-1.21-1.5-2.28-.08-3.57.38-.34.61-1.17.48-1.67-.33-1.36-.89-2.67-1.28-3.78.25-1.65.73-3.27.7-4.87-.1-4.66-.39-9.31-.64-13.96-.08-1.54.59-2.11,2.1-2.14,2.31-.04,4.7.05,6.9-.5,2.04-.51,3.92-.34,5.91-.1,1.28.15,2.61.01,3.9-.12.52-.05,1.11-.76,1.48-.63,2.58.9,5.19.96,7.79.35,2.64-.61,5.58.5,7.98-1.44.21-.17.6-.11.91-.14,2.91-.23,5.94,1.09,8.74-.65.13-.08.37,0,.55,0,2.97.23,5.78-.42,8.5-1.55.45-.19.97-.41,1.43-.35,2.93.35,5.23-.59,6.44-3.15.05-.68.1-1.36.15-2.03.64.31,1.43.48,1.89.96.8.83,4.71,1.56,5.6.78,1.2-1.05,2.31-2.2,3.45-3.3h-4.16c1.12-.96,1.91-1.55,2.6-2.25.95-.95,2.09-1.86,3.25-.89.7.59.76,1.95,1.2,3.27.94.07,2.47.22,4,.3,2.15.12,2.36-2.05,3.16-2.93.95.47,1.97,1.27,2.26,1.06,1.28-.93,2.45-2.06,3.48-3.28.7-.84,1.09-1.37,1.88-.13.34.53.93,1.15,1.48,1.24,1.67.25,3.29.25,4.82-.9,1.26-.94,2.83-1.47,4.26-2.19.1-.05.17-.18.25-.27-.09-.48-.17-.97-.31-1.76.51.3.75.38.9.53,1.87,1.92,2.46,2,4.92.97.72-.3,1.6-.21,2.36-.44,1.77-.52,3.53-1.1,5.27-1.71,1.34-.48,2.78-1.69,3.95-1.45,2.57.52,4.6-.11,6.72-1.36,1.63-.96,1.95-.63,2.14,1.29.35,3.52.76,7.04,1.2,10.55.15,1.18.96,2.53.59,3.46-.72,1.83-.25,2.82,1.15,3.45-.43.98-1.33,2.37-1.09,2.6,1.13,1.11.18,2.15.23,3.19.14,3.01.29,6.01.47,9.02.02.27.37.51.45.8.09.33.19.8.03,1.05-1.46,2.31-.47,4.78-.45,7.16.01,1.4.21,3,.92,4.13.89,1.43.56,2.97.08,3.89-1.15,2.21-1.05,4.47-1.12,6.75-.02.55.39,1.12.6,1.67.52-.25,1.02-.58,1.57-.71.48-.12,1.02-.01,1.54,0-.07.6.01,1.29-.27,1.76-.17.29-.9.31-1.39.33-1.78.05-2.4.75-2.37,2.68.09,5.22-.17,10.44-.21,15.66-.01,1.49-.17,3.13,1.37,3.8-.62,1.04-1.47,1.92-1.65,2.91-.19,1.06.27,2.23.5,3.7h4.95c-.49,2.03.95,2.76,2.97,3.01-.09.19-.19.39-.28.58h-2.58v3.2q-2.68-1.29-3.09-3.73c-.05-.31-.08-.66-.25-.9-.23-.32-.72-.82-.87-.75-.39.18-.91.61-.94.97-.33,3.69-.64,7.39-.82,11.09-.14,2.92-.16,5.85-.06,8.76.08,2.38.42,4.74.62,7.11.24,2.9.43,5.8.7,8.69.15,1.66.42,3.31.63,4.97.87-.66,1.14-1.44,1.68-1.77.99-.6,5.21,1.75,5.4,2.91.05.3-.05.63,0,.94.11.82.26,1.63.45,2.79.67-.72,1.11-1.52,1.4-1.47,1.58.28,1.08-.9,1.48-1.61.76-1.34,1.98-2.43,3.04-3.59.11-.12.48-.01.73,0,2.07.19,2.84-.36,3.35-2.33.38-1.46,1.29-1.78,2.66-1.27-.18,1.01-.34,1.91-.55,3.15,1.2-.08,2.17-.3,3.07-.13.45.08,1.15.96,1.06,1.32-.19.83-.79,1.56-1.22,2.34,2.15-.31,4.95-1.84,5.88,2.1,1.95-1.95,2.89-1.88,4.89-.14,1.02.89,2.12,1.91,3.36,2.28,1.91.57,3.57,2.51,5.89,1.36.07-.04.23.08.34.13,1.77.92,3.52,1.86,5.3,2.75.35.17.93.32,1.19.16,2.36-1.5,4.82-.15,7.22-.27.75-.04,1.6.75,2.32,1.27,1.34.97,2.57,2.1,3.95,2.99.4.26,1.32.15,1.73-.15,1.27-.93,2.46-1.23,4.01-.6,1.62.66,2.69-.71,3.65-1.66.33-.33-.17-1.5-.3-2.35-4.41,1.67-6.68.83-6.57-2.18,2.5-.15,3.79-1.27,4.61-3.75.14-.42.89-.82,1.41-.91,1.13-.18,1.92-.51,1.86-1.85-.05-1.19.62-1.53,1.76-1.66,1.11-.13,2.56.34,3.19-1.23.05-.12.78-.17.98,0,1.42,1.23,2.74,2.57,4.19,3.77.59.49,1.4.95,2.12.98,1.47.07,2.95-.17,4.45-.28.15.3.3,1.15.81,1.53.68.51,1.63.65,2.46.95.15-.8.48-1.63.41-2.41-.15-1.53-.54-3.03-.84-4.61,2.12.41,3.96,1.6,4.78,3.66.47-.72.82-1.26,1.16-1.8-.03-.52-.63-1.57-1.16-2.66-.09-.2.05-.66.23-.8.17-.13.67-.12.81.03.33.36.53.83.92,1.51.94-1.27,2.17-2.42,1.97-2.77-.72-1.29-.29-2.34.16-3.42.36-.87.83-2.27,1.39-2.35,1.33-.18,2.75.24,2.77,2.17,0,.8.27,1.6.42,2.4h0c-.71.92-1.42,1.85-2.27,2.97,2.23.27,2.81-.73,2.28-2.96,1.03-.35,1.91-1.44,3.14-.14,1.29,1.37,2.81,2.51,4.31,3.81-.08.1-.2.4-.38.43-1.44.31-.76,1.59-.45,1.81.56.38,1.46.27,2.22.36.03-.6.19-1.23.05-1.78-.2-.77-.62-1.48-1.03-2.41-1.71-.62-2.91-1.98-2.19-2.91.43-.56,1.7-.48,2.59-.68-.48.48-1.18.88-1.37,1.46-.11.34.53,1.32.91,1.37,2.22.27,3.95,2.51,6.45,1.61.13-.05.34.12.52.16.54.11,1.52.36,1.55.28.32-.92.61-1.88.64-2.84,0-.25-.9-.53-1.46-.83-.21.7-.35,1.15-.57,1.89-.64-.49-1.24-.76-1.54-1.23-.78-1.19-1.62-1.44-3-.93-.53.19-1.41-.59-2.13-.93,1.49.19,2.59-2.68,4.43-.33.5-1.32.94-2.49,1.42-3.75-1.28-.06-2.18.15-2.77-.19-1.4-.8-1.27-2.19.14-3.58.47-.46.91-.93,1.37-1.4-5.3,1.15-9.51.48-13.13-2.42.62-.23,1.12-.62,1.54-.54,2.23.43,4.46.68,6.53,1.94,2.06,1.26,3.53.26,4.05-2.27.56-.05,1.13-.11,1.7-.16-1.85-1.02-4.36-1.52-4.18-4.05.07-.97,1.98-1.82,3.13-2.79-.09-.39-.27-1.19-.44-1.98.57.08,1.15.17,1.77.26.17-.66.36-1.36.72-2.74-3.9,2.57-6.38-.1-9.21-1.31-.02-.18-.04-.35-.06-.53,2.82-.57,5.64-1.14,8.6-1.74-1.24-1.55-1.85-3.3-4.13-3.5.72-.67,1.1-1.02,1.47-1.36-.05-.22-.11-.44-.16-.67-1.15.12-2.29.27-3.44.34-.96.06-2.09.35-2.86-.04-1.19-.6-2.13-1.69-3.25-2.63,1.15-2.18,4.17-2.48,6.11-.15.85,1.02,1.62,1.19,2.74.75-.09-.46-.17-.84-.21-1.05.79-.35,1.43-.64,2.06-.92-.5-.56-.91-1.26-1.52-1.65-2.41-1.55-2.64-3.29-.93-5.58.65-.87,1.31-2.4.96-3.14-.36-.75-2.14-1.48-3-1.23-2.11.64-2.8-1.1-4.16-1.73,1.09-.23,2.12-.23,3.15-.22,1.2,0,3.48-1.77,3.3-2.87-.32-1.94.74-1.71,1.65-1.55.78-1.31,1.5-2.52,2.47-4.16-1.34.91-2.39,1.63-3.65,2.5-.25-.19-.71-.55-1.22-.94.38-.45.65-.76.92-1.07-.17-.03-.34-.06-.51-.08,0-.82.01-1.65,0-2.47,0-.45.1-1-.11-1.34-1.27-2.1-1.28-3.68.09-5.66q-1.79-.56-.95-2.79c.5.08,1.01.16,1.75.28-1.66-1.46-3.14-2.75-5-4.38,1.91-.79,3.23-1.34,4.7-1.95-1.68-.75-1.25-1.98-.67-3.17.59-1.2.38-2.03-.89-2.54-.29-.12-.7-.23-.8-.46-.28-.64-.42-1.34-.61-2.01.72-.05,1.46-.23,2.14-.11.44.08.81.58,1.22.9.14-.1.27-.2.41-.31-.44-.99-.72-2.11-1.36-2.95-.95-1.24-1.78-2.3.15-3.52-.91-.59-1.65-1.06-2.71-1.75.83-.61,1.42-1.04,1.81-1.33-1.77-1.92-3.41-3.71-5.05-5.49.62-1.61,3.22-2.28,1.83-4.56.58-.24,1.01-.43,1.48-.62-.55-1.09-1.11-2.05-1.5-3.07-.1-.26.26-.85.57-1.08,1.02-.78,2.1-1.47,3.17-2.2-.63-1.3-4.03-2.62-6.32-2.27.21-.47.28-.91.54-1.17,1.72-1.7,1.71-1.64-.41-2.54-.41-.17-.89-.98-.79-1.35.11-.4.83-.81,1.33-.88.81-.11,1.66.07,3.02.16-1.04-1.27-1.68-2.17-2.43-2.96-1.5-1.55-1.4-3.06.33-4.3.14-.1.22-.29.34-.44-.17-.47-.34-.91-.51-1.35.5-.29.91-.53,1.68-.98-2.44-.96-2.4-4.74-5.88-3.74-.18-3.45,2.89-1.23,4.18-2.91-.85-.63-1.67-1.24-2.83-2.1.02-.39.44-1.55.04-2.03-.89-1.08-2.19-1.83-3.33-2.71-.12.15-.24.29-.37.44.22.41.44.82.68,1.28-2.39,1.44-2.67-1.67-4.35-1.88.57-.43,1.15-.87,1.69-1.28-.1-.71-.38-1.4-.24-1.98.37-1.54.06-2.74-1.22-3.71-.9-.68-.48-4.73.51-5.2.25-.12.76-.19.88-.06,1,1.22,2.85,2.62,2.7,3.73-.23,1.7.09,3.07.68,4.98,1.04-.36,2.34-.44,3.07-1.13,1.22-1.15,2.07-2.69,3.08-4.07.17.08.34.16.51.24-.22-.45-.43-.91-.58-1.22.87-.28,2.14-.36,2.28-.8.44-1.39-1-1.39-1.82-1.84-1.28-.7-2.54-1.45-3.88-2.23-1.87,2.88-3.82-.46-6.04.23,1.39-2.3,1.38-2.28-.89-3.03-.88-.29-1.86-.51-2.54-1.07-.49-.42-.98-1.58-.74-2.01,1.29-2.32,3.23-.64,4.86-.47,1,.11,2.3.53,2.08,2.12-.02.12-.09.23-.12.35-.5,2.25-.06,2.74,2.2,2.99,2.08.23,2.95-1.68,4.52-2.31,1.93-.78,2.11-2.18,1.38-4.12-2.6,1.19-5,.82-6.71-1.39-.42-.54.26-1.92.43-2.91.13.02.25.04.38.06-.22-.38-.44-.77-.73-1.29,1.54-.34,2.64-.32,3.33,1.16.14.31,1.27.55,1.34.44.81-1.24,2.77-2.08,1.34-4.24,1.96.23,2.83-.78,3.06-2.25.19-1.24.04-2.54.04-3.56-2.39-1.01-4.59-1.95-6.76-2.87.83-1.63,1.59-3.11,2.08-4.07,1.89.36,3.33.61,4.76.94.36.08.65.43,1,.6.3.14.65.21.97.3.09-.33.34-.73.23-.99-.2-.5-.53-.97-.92-1.35-1.1-1.06-.53-2.92.65-3.78,1.05-.76,3.19-.76,2.9-3.32-1.73,1.68-2.23.29-2.94-.76-.41-.61-.85-1.38-1.47-1.65-1.43-.62-1.43-1.62-1.02-2.77.31-.87.73-1.73,1.23-2.5.3-.47.86-.78,1.3-1.16.24.46.38,1.06.75,1.35.55.43,1.27.64,1.92.95.19-.51.5-1.01.53-1.53.04-.73-.41-1.59-.16-2.18.64-1.51.09-2.34-1.16-3.08-1.21-.71-.81-1.4.22-1.87.71-.32,1.48-.51,2.5-.86-1.9-1.77-2.99-4.15-6.57-3.18.75-1.27,1.18-2.45,1.49-2.42.77.07,1.48.7,2.4,1.2,1.49-.83.78-2.43.67-3.54,1.26-.82,2.51-1.32,3.26-2.22.44-.53.16-1.72.04-2.59-.02-.13-.95-.14-1.46-.2-.08.63-.15,1.26-.24,2-2.87,1.41-3.94,1.05-5.12-1.97-.13-.33.16-1.17.35-1.2.86-.15,1.76-.14,2.64-.11,1.38.04,2.76.2,4.13.14.22-.01.41-.91.61-1.39-.64-.21-1.27-.43-2.17-.73.8-1.29,1.57-2.74,2.55-4.04.7-.92,1.13-1.74.59-2.87-.56-1.17-.98-2.42-1.64-3.52ZM245.71,85.27c-.31.83-.89,1.55-1.37,2.32-.14-.06-.28-.12-.42-.18.38-1.15.77-2.31,1.15-3.46.23.45.76,1,.64,1.32ZM13.99,383.85c-.39-.14-.85-.51-.96-.88-.1-.32.25-.77.52-1.48.77.97,1.21,1.3,1.18,1.56-.03.31-.59.85-.74.79ZM11.84,379.67c-.05-.24-.09-.49-.14-.73,1.48-.29,2.96-.58,4.44-.87.03.27.05.54.08.81-1.46.26-2.92.53-4.39.79ZM64.03,336.23c-.18.04-.41-.02-.55.07-.72.41-1.88.75-2.01,1.32-.14.61.53,1.63,1.12,2.15,2.59,2.28,2.72,2.71.9,5.64.12.15.3.31.41.52.39.72.76,1.46,1.14,2.18-1.01.02-2.02.07-3.03.05-.17,0-.52-.4-.48-.47,1.08-2.13-1.51-2.78-1.8-4.45-.27-1.51-2.54-2.29-4.19-1.95-1.53.31-3.06.67-4.61.82-.57.06-1.19-.41-1.78-.64.11-.26.22-.53.33-.79.86.05,1.72.15,2.57.12,1.16-.04,2.44.1,3-1.35.06-.15.24-.28.4-.37,2.11-1.26,4.18-2.57,6.34-3.72.86-.46,1.91-.55,3.25-.91.28.71.45,1.49-1,1.78ZM60.84,314.92c.64.11,1.64,1.49,1.52,2.12-.29,1.52-1.13,2.93-1.64,4.11-.94-1.17-1.78-2.02-2.36-3.01-.44-.74-.55-1.66-.81-2.5,1.1-.28,2.26-.89,3.29-.72ZM55.87,311.22c-.74.02-2.9-3.11-2.35-3.97.64-.99,2.1-1.46,3.2-2.15,1.89.43,3.3,1.58,3.26,2.89-.05,1.4-2.29,3.17-4.11,3.23ZM57.16,294.1c-1.44,1.18-1.54,2.17-.04,3.32,1.1.85.84,1.54.22,2.34-.65.84-1.33,1.67-2.12,2.37-.34.31-1.07.51-1.48.37-1.77-.62-3.45-1.51-5.24-2.06-1.24-.38-2.26.14-2.62,1.85.87-.28,1.51-.49,2.63-.85-.43.9-.67,1.4-1.05,2.21.44.24,1,.54,1.69.91-.76.98-1.27,1.65-1.78,2.32,1.36.79,2.71,1.57,4.06,2.35-.13.07-.25.13-.38.2.49,1.01.89,2.06,1.48,3,.67,1.06.13,2.26-1.17,2.71-.86.29-1.74.74-2.41,1.33-1.14,1-1.29,1.11-3.12.34,1.75-2.23-.14-2.92-2.15-3.79.94-.71,1.54-1.16,2.22-1.67.49.43.92.8,1.63,1.41-.11-1.71-.25-3.25,2.21-2.49-.09-.19-.18-.38-.27-.57-.54-.06-1.09-.18-1.63-.16-1.32.03-1.89-.46-1.93-1.88-.02-.6-.82-1.43-1.45-1.68-.89-.35-1.96-.42-2.93-.33-1.61.16-2.17-.95-2.12-2.02.08-1.72.56-3.44,1.03-5.11.13-.46.83-.76,1.42-1.27.16,1.31.12,2.35.47,3.24.21.56,1.01.89,1.54,1.33.35-.49.79-.93,1.01-1.47.25-.6.47-1.29.41-1.91-.28-2.54-.75-2.75-3.85-2.46-.79-.34-1.99-.49-2.26-1.07-.46-.96-.31-2.21-.43-3.33,1.04-.07,2.56-.61,3.03-.13,1.37,1.41,2.3,1.11,3.66-.56,1.12,1.94,2.07,3.67,3.14,5.33.18.29,1,.46,1.33.3.65-.32,1.15-.94,1.74-1.4.53-.41,1.1-1.1,1.64-1.09,1.63.04,2.6-.85,3.7-1.82.45-.39,1.53-.06,2.86-.06-1.24.91-1.99,1.42-2.69,1.99ZM43.57,279.36c.31-.48.86-.93,1.4-1.09.28-.09.94.35,1.11.71.4.83.6,1.76.88,2.64-.21.11-.43.22-.65.33-.72-.47-1.48-.88-2.14-1.43-.33-.27-.73-.97-.61-1.16ZM52.33,274.59c2.31-2.14,4.43-2.13,5.54.22-1.96.17-3.8,2.32-5.54-.22ZM58.94,283.19c-1.24,2.08-2.29,2-4.14-.28,1.44-.77,2.85-1.13,4.14.28ZM54.79,282.9c-.8-.5-1.79-.86-2.35-1.55-.41-.5-.41-1.5-.25-2.2.06-.27,1.06-.33,1.62-.48v2.35c.22.43.6,1.16.98,1.89ZM50.94,255.34c.71-1.99,2.18-2.19,5.08-.62-1.05,2.16-2.06,2.26-5.08.62ZM52.08,264.06c.71.87,1.21,1.49,1.71,2.11-.34.26-.83.81-1,.72-.7-.36-1.3-.9-1.94-1.38.32-.37.64-.75,1.23-1.45ZM51.9,289.69c-.04.47-.63.89-.77,1.08-1.83-.01-3.11-1.31-2.96-2.73.06-.52.73-1.34,1.19-1.39,1.74-.18,2.72,1.02,2.55,3.04ZM59.43,250.97c-.98,2.05-2.16,2.31-4.07,1.2-.69-.4-1.67-.29-2.46-.56-.7-.24-1.63-.55-1.91-1.1-.21-.41.31-1.42.78-1.89,1.52-1.52,3.3-.95,4.47,1.48.6-.27,1.18-.67,1.81-.79.48-.09,1.14.03,1.51.33.2.16.06.93-.13,1.34ZM57.9,238.01c-1.21-.54-2.76-.78-3.44-1.68-.57-.75-.12-2.28-.12-3.28-.93-.25-2.06-.55-3.19-.85,1.07-.68-.18-2.59,1.73-2.95,2.1-.4,1.82,1.32,2.33,2.39.93-.17,1.61-.3,2.29-.43.07.14.15.28.22.42-.38.48-.76.95-1.48,1.84.51.33,1.03.66,1.55,1,2.3,1.51,2.31,1.89.11,3.55ZM56.09,209.38c.08-.3.7-.45,1.07-.67.38.97.76,1.95,1.14,2.92-1.85-.11-2.6-.84-2.22-2.25ZM56.22,223.67c.38.05.88.57.97.96.07.34-.26.9-.58,1.18-.97.85-1.98,1.89-3.11.09-.12-.19-.97.12-1.48.13-.59.01-1.18-.05-1.77-.07.07-.15.15-.31.22-.46,1.13-.55,2.23-1.2,3.4-1.62.72-.26,1.58-.29,2.34-.2ZM49.85,214.18c1.18.39,2.28.62,3.22,1.14.46.25.9,1.12.81,1.6-.09.48-.82,1.07-1.36,1.18-1.77.37-3.06-1.42-2.67-3.92ZM50.79,238.2c1.15.21,2.46.81,3.21,1.68.88,1.03,1.23,2.51,1.86,3.9-1.21.88-2.51,1.04-3.86.12-.56-.38-1.05-.89-1.62-1.26-1.07-.68-2.03-1.53-1.48-2.85.3-.71,1.36-1.7,1.9-1.6ZM49.19,230.59c-.87,2.86-1.47,3.12-3.95,1.84-.7-.36-1.42-.7-2.15-1.05,1.52-2.15,2.22-2.23,6.11-.78ZM41.59,220.33c.31-.39.58-.82.99-1.41,2.49.12,3.62,1.01,3.82,3.2.04.45-.09,1.1-.39,1.32-.26.2-.88-.04-1.33-.13-.9-.18-1.81-.32-2.67-.63-.57-.21-1.04-.68-1.55-1.04.38-.44.77-.86,1.13-1.31ZM40.41,259.39c1.03.66,1.04,1.54.41,2.45l-.77.23c-.24-.82-.49-1.63-.73-2.45.37-.09.87-.38,1.09-.24ZM39.68,267.93c.23.11.58.16.63.31.52,1.58,1.51,1.73,3,1.35.55-.14,1.33.62,2,.97-.71.4-1.39.89-2.14,1.16-.29.1-.76-.3-1.24-.51-.31.65-.53,1.14-.86,1.84-1.74-1.47-2.19-3.06-1.38-5.12ZM38.38,282.7c.26-.29,1.19-.43,1.42-.22.86.78,1.55,1.75,2.67,3.08-.15.44-.47,1.4-.79,2.38-.91-.64-1.66-1.14-2.38-1.67-1.2-.88-1.71-2.68-.91-3.58ZM35.98,282.44c.47.45.95.89,1.42,1.34-.25.24-.5.48-.75.72-.41-.47-.84-.93-1.2-1.44-.04-.05.34-.4.53-.62ZM33.68,297.99c.12-.01.23-.12.34-.13.85-.05,1.7-.11,2.55-.09.06,0,.28.79.13.94-.71.78-1.52,1.47-2.5,2.38-.88-.66-1.85-1.02-2.07-1.65-.42-1.18.65-1.35,1.55-1.46ZM12.4,308.61c.22-.61.48-1.32.63-1.72,1.67.31,3.29.54,4.86.96.45.12.75.78,1.11,1.19-.39.33-.75.73-1.18.98-.44.25-.96.35-.99.36-1.67-.67-3.03-1.21-4.43-1.77ZM15.57,312.75c-.47.6-.82,1.06-1.19,1.49-.32.38-.68.73-1.01,1.09-.2-.35-.62-.75-.55-1.02.16-.6.44-1.33.91-1.63.41-.25,1.15.02,1.84.07ZM19.4,258.83c.31,0,.62-.03,1.18-.06.14,1.31.47,2.48.35,3.61-.15,1.47-1.22,1.93-2.19.9-1.09-1.17-3.41-.63-3.67-2.76-.07-.59-.17-1.23,0-1.78.46-1.52,1.05-3.01,1.67-4.74,2.21-.06,1.23-1.75,1.09-3.22-1.12.9-2.17,1.74-3.54,2.83-.14-1.16-.25-2.04-.38-3.12-.69.5-1.14.99-1.69,1.15-.45.13-1.05-.05-1.51-.26-.16-.07-.26-.77-.11-.96.31-.38.78-.69,1.24-.85.37-.13,1.05.18,1.23-.02,2.12-2.46,4.22-.37,6.18-.26.15,1.07.29,1.89.37,2.71.04.36.1.88-.1,1.07-1.04.98-1.26,2.24-1.64,3.55-.57,1.98-.55,2.24,1.51,2.21ZM24.35,255.44c-.53.52-1.37.75-2.11,1.01-.15.05-.67-.4-.65-.45.16-.36.36-.78.67-.99.59-.4,1.27-.68,2.27-1.19-.04.48.14,1.31-.18,1.63ZM25.56,278.75c.4-.17,1.04.22,1.57.36-.26.51-.43,1.37-.79,1.46-1.08.26-2.24.21-3.36.28-.03-.17-.06-.33-.09-.5.89-.55,1.73-1.21,2.68-1.6ZM23.02,272.43c-.5-.8-.83-1.34-1.13-1.83-.77,1.84-2.3,2.15-3.98.83-.38-.29-1.11-.16-1.68-.18-.58-.03-1.16,0-1.74,0-.03-.16-.06-.32-.09-.48,2.15-.86,4.29-1.72,6.58-2.63.34,1.26,3.46,1.23,2.03,4.3ZM16.11,276.5c-.15-.02-.3-.04-.46-.07-.49-.97-.98-1.95-1.47-2.92.77.16,2,.11,2.19.54.29.65-.14,1.62-.26,2.45ZM13.68,257.02s.03.18.04.28c-1.1.44-2.34,1.47-3.03-.98,1.16.27,2.08.48,2.99.7ZM14.18,273.51s0,0,0,0c-.19.64-.4,1.27-.56,1.91-.11.43-.14.87-.21,1.3-1.21-.24-2.46-.38-3.61-.79-.43-.15-.64-.92-.94-1.41.15-.15.3-.29.45-.44.57.26,1.14.52,1.83.84.71-.96,1.3-2.49,3.05-1.42ZM15.13,282.4c1.34.21,2.74.86,3.32.42.97-.73,2.07-1.9,1.41-3.54-.11-.26,0-.81.21-.96.24-.17.81-.18,1.01,0,.27.25.55.81.45,1.1-.43,1.26-.99,2.46-1.65,4.03.36.54.91,1.36,1.45,2.18.12.03.24.09.36.08.65-.07,1.3-.17,1.94-.25-.51.44-.95,1.03-1.53,1.3-1.13.52-2.35.86-3.66,1.33-.12-.77-.21-1.36-.22-1.41-1.42-.39-2.73-.46-3.64-1.09-.94-.66-.34-2.48.55-3.18ZM23.25,297.27c-.1-1.27-.2-2.54-.33-4.3,1.87,1.61,1.96,2.6.33,4.3ZM14.77,292.06c.23-.66.32-1.38.59-2.62,1.05-.19,2.6-.5,4.15-.76.29-.05.65-.02.9.12,1.38.81,1.92,5.28.74,6.36-.32.29-.92.5-1.33.42-1.34-.24-2.64-.79-3.98-.92-2.21-.22-1.49-1.39-1.07-2.61ZM20.5,303.54c0,.07-.76.19-.78.13-.34-.83-1.04-1.83-.81-2.51.34-1,1.33-1.78,2.08-2.62.06-.07.56.08.61.22.1.26.13.67-.01.87-.39.55-.88,1.02-1.05,1.21,0,1.12.02,1.91-.04,2.7ZM21.43,309.03v3.58c-1.5-.85-1.6-1.76,0-3.58ZM18.41,314.72c.34-.22,1.07.07,1.58.27.52.2.96.57,1.45.84,2.39,1.33,2.42,1.56.63,3.55-1.25-.49-2.36-.77-3.27-1.35-.53-.34-.95-1.13-1.06-1.77-.08-.48.27-1.27.68-1.53ZM18.61,326.27c.25-.3.9-.29,1.38-.36.42-.07.89.03,1.28-.11,1.69-.61,2.97.22,2.98,2.29-.1.13-.32.65-.6.7-.68.1-1.41.05-2.09-.08-.67-.13-1.3-.44-1.96-.64-.43-.13-1.23-.14-1.26-.3-.08-.48,0-1.14.29-1.49ZM23.63,304.12c-.22.39-.38.69-.61,1.1-.25-.38-.62-.69-.6-.97.03-.31.36-.74.66-.85,1.48-.54,3-.99,4.53-1.48.38.72.88,1.67,1.57,2.98-2.08-.2-3.99,1.55-5.55-.79ZM26.91,290.15c-.2-.03-.41-.06-.61-.09-.16-.43-.56-.95-.44-1.27.26-.66.8-1.22,1.22-1.81.3.5.87,1.03.82,1.5-.06.59-.64,1.12-.99,1.68ZM24.95,229.39c.73.51,1.46,1.01,2.19,1.52-.17.33-.35.66-.52.99-.81-.35-1.61-.69-2.42-1.04.25-.49.5-.98.76-1.47ZM23.88,220.18c.01.25.03.5.04.74-1.18.21-2.37.43-3.7.67-.13-.29-.3-.66-.66-1.46-.24.96-.37,1.48-.5,2.02q-.96-.66.09-2.94c1.56.32,3.15.64,4.74.97ZM16.33,235.5c.42-1.51,1.1-2.96,1.51-4.47.4-1.45.58-2.96.88-4.53.54.31,1.21.53,1.64.99.29.3.49,1.13.29,1.37-1.75,2.17-1.76,2.83.15,4.9.99,1.07,1.05,2,.13,3.7-.53-.49-.93-.86-1.5-1.39v1.86c-1-.24-1.99-.33-2.8-.76-.32-.17-.45-1.15-.31-1.67ZM15.43,217.64c-.12-.78-.24-1.55-.36-2.33l.79-.14.44,2.31c-.29.05-.58.1-.87.15ZM17.84,211.38c.08-.28.25-.55.41-.8.33-.5.69-.98,1.04-1.46.25.69.8,1.44.69,2.07-.21,1.19-.81,2.31-1.37,3.81-.2.09-.84.39-1.93.91.45-1.76.8-3.15,1.17-4.53ZM17.49,167.14c-.07-.17.77-1.03,1-.96.78.24,1.48.75,2.21,1.16-.17.3-.35.59-.52.89-.46.3-1.25.93-1.33.84-.56-.55-1.05-1.22-1.36-1.94ZM19.23,200.57c1.19.83,1.85,1.3,2.52,1.77.01.25.02.49.04.74-.79.11-1.58.22-2.36.33-.05-.77-.1-1.54-.19-2.84ZM21.98,187.3c-1.13.37-1.99.65-3.39,1.1.19-.98.12-2,.49-2.2,1.04-.56,2.08-.26,2.91,1.09ZM21.31,178.17c-.69.15-1.38.29-2.56.54.43-.9.65-1.78.9-1.8.6-.03,1.23.36,1.84.57-.06.23-.12.45-.18.68ZM19.42,153.61c-.73-.79-1.49-1.26-1.59-1.85-.07-.41.9-1.46,1.14-1.39.87.26,1.63.89,2.43,1.38-.57.53-1.14,1.07-1.98,1.86ZM21.13,137.52c0,.37-.68.75-1.39,1.46-.93-.9-1.65-1.6-2.37-2.3.57-.31,1.1-.79,1.71-.9,1.28-.23,2.04.49,2.05,1.73ZM15.52,127.26c.86.15,1.71.3,2.56.51.03,0-.11.93-.13.93-.87-.06-1.73-.18-2.59-.29.06-.38.11-.76.17-1.14ZM12.02,139.5c.03-.09.83-.16.98,0,1.24,1.46,2.4,2.98,3.71,4.63-1.29.1-2.4.45-3.31.17-.79-.24-1.75-1.1-1.94-1.87-.22-.89.28-1.97.56-2.95ZM14.78,157.23c-.69.67-1.18,1.13-1.67,1.6-.38-.4-1.14-.91-1.06-1.18.19-.65.77-1.19,1.2-1.78.42.37.84.74,1.53,1.35ZM13.03,179.28c-.39.61-.65,1.04-1.12,1.78.87-.23,1.36-.35,2.52-.65-.45,1.21-.54,2.46-1.14,2.81-1.08.63-3.11-.32-3.29-1.18-.16-.82,1.55-2.5,3.03-2.76ZM10.72,213.21c1.68,1.56.34,3.08.13,4.63-1.27-1.52-.28-3.07-.13-4.63ZM10.46,206.2c-.03-.22.63-.76.96-.75.29.01.73.58.77.95.04.35-.34.75-.72,1.49-.52-.81-.94-1.22-1.01-1.69ZM12.17,224.32c.32.77.64,1.54.96,2.31-.28.11-.55.23-.83.34-.3-.78-.61-1.55-.91-2.33.26-.11.52-.22.79-.33ZM12.53,216.95c-.07-.73-.04-1.47-.04-2.21.26-.01.51-.02.77-.04l.21,2.39c-.32-.05-.92-.07-.93-.15ZM13.24,193.46c-.28-.05-.56-.09-.83-.14,0-.96-.05-1.92.04-2.87.02-.24.5-.61.76-.6.23,0,.65.48.62.71-.12.98-.37,1.94-.58,2.9ZM9.5,229.71c.37.13.98.16,1.06.39.39,1.04.36,2.03-1.52,2.39.15-.93.31-1.85.46-2.78ZM9.26,240.32c.41-.61,1.95-1.29,2.11-1.12,2.15,2.3,4.64.67,6.93.69,1.38.01,2.72-.5,2.58,1.71-.02.29.72.63,1.17.99-.14.66-.28,1.31-.36,1.72.74.51,1.44.79,1.75,1.3.18.3-.21,1.35-.48,1.41-.63.13-1.7.11-1.96-.28-.9-1.36-3.75-.25-3.51-2.85.08-.83.24-1.65.43-2.91-2.06.43-3.7.78-5.34,1.12.05.15.09.3.14.45-.78-.21-1.55-.45-2.34-.61-.95-.19-1.71-.71-1.11-1.62ZM6.1,267.1c.4-.16.8-.31,1.18-.49.39-.19.96-.34,1.11-.66.75-1.61,1.79-2.17,3.61-1.67,1.45.39,1.31,1.61,1.3,2.73,0,.24-.06.49-.04.3-2.12.1-3.96.22-5.81.25-.45,0-.9-.29-1.36-.45ZM5.66,290.87c-.11-.24-.22-.49-.34-.73,1.28-1.06,2.56-2.12,4.18-3.48v3.64c-1.26.19-2.55.38-3.85.57ZM9.69,300.11c-.08-.34-.16-.68-.31-1.27-.21-.02-.73-.07-1.35-.12.27-2.08,1.91-1.63,3.06-2.13,1.61-.71,2.28.24,3.19,1.54.17-.84.26-1.33.36-1.83,1.92-.02-.13,4.02,2.97,2.59.11.76.19,1.36.28,2.02-1.42.56-2.76,1.43-3.24-1.01-.06-.29-1.77-.6-1.82-.5-.77,1.69-2.2.16-3.15.72ZM10.85,324.2c-.92.03-1.99-.54-2.74-1.16-.31-.26-.21-1.71.15-1.94.94-.62,2.22-1.34,3.2-1.15,1.94.38,3.79,1.3,5.61,2.13.2.09-.04,1.12-.04,1.16-2.47.41-4.32.89-6.18.96ZM14.51,359.34c-.06.09-.77-.25-.99-.32.43-1.11.65-2.04,1.12-2.82.3-.5.96-.77,1.47-1.14.18.23.36.47.53.7-.7,1.2-1.37,2.42-2.14,3.58ZM16.01,342.53c-1.56-.59-1.41-1.14-.35-2.39,1.04-1.23,1.72-2.8,2.38-4.3.15-.33-.34-1.2-.76-1.48-.98-.66-2.06-1.21-3.17-1.6-.63-.22-1.4-.04-2.35-.04.18-1.84,1.63-2.71,2.78-3.46.79-.51,2.13-.23,3.22-.21.17,0,.44.45.48.72.31,1.89,1.4,1.66,2.78,1.21.54-.18,1.52-.07,1.8.29.32.41.32,1.41.02,1.87-.27.41-1.12.58-1.72.61-.64.03-1.3-.23-1.95-.36-.21.29-.42.57-.64.86.54.27,1.07.54,1.69.85-.28.38-.49.67-.7.97-1.31,1.83-1.08,2.61,1.05,3.15,1.71.43,3.11.94,2.7,3.21-.1.57.43,1.25.77,2.13-.46.08-.93.32-1.3.21-2.26-.7-4.53-1.41-6.74-2.25ZM19.45,353.58c-.73-2.31-.36-3.53,1.81-4.77.9-.51,1.82-.98,2.4-1.3.51.87,1.06,1.53,1.32,2.29.38,1.16.66,2.38.75,3.6.03.36-.67.85-1.12,1.15-.44.29-1,.41-1.5.61.52.35,1.03.7,1.55,1.03.14.09.31.13.48.19-1.45,1.65-2.87,3.28-4.37,4.99,1.29.46,2.12.76,3.38,1.22-2.63,1.32-3.63.9-4.18-1.18-.08-.29-.2-.65-.42-.79-2.15-1.44-1.06-3.1-.42-4.79.27-.7.55-1.59.34-2.25ZM18.56,365.41c.82-.06,1.51-.04,2.17-.17,2.22-.43,3.19,1.65,4.81,2.41.08.04-.04,1.06-.31,1.21-1.02.58-1.94,1.77-3.36.87-.05-.03-.12-.04-.18-.05q-3.56-.53-3.14-4.26ZM24.12,373.31c-.9.47-1.8.93-2.85,1.47-.55-.48-.91-.78-1.26-1.09.57-.46,1.14-1.29,1.72-1.3.79-.02,1.59.59,2.39.92ZM20.4,385.22c-.9-.44-1.1-1.11-.1-1.81.41-.29.69-.77,1.34-1.52.26,1.1.51,2.14.85,3.56-.78-.07-1.53.05-2.09-.23ZM26.76,377.27c-.19,2.05-2.3,3.33-4.19,2.55-.8-.33-1.65-.74-2.21-1.36-.37-.4-.31-1.24-.33-1.88,0-.18.4-.37.73-.65,1.72,2.1,3.05.42,4.62-.24,1.19-.5,1.47.66,1.38,1.57ZM26.69,336.87c-.63.46-1.53.78-2.3.73-.43-.03-.81-.89-1.22-1.38.19-.14.37-.29.56-.43.49.23.97.46,1.5.7.27-.45.55-.9.82-1.36h.55c.05.59.35,1.55.09,1.73ZM28.36,314.35c-.83-.43-1.65-1.08-2.16-1.86-.27-.41.11-1.25.22-2.05,1.12,1.17,1.97,2.05,3.13,3.28-.21.12-.91.78-1.19.63ZM28.6,346.31c-.06-.11.59-.65,1.29-1.38.53.97.99,1.55,1.11,2.19.05.29-.58.7-.9,1.06-.52-.61-1.09-1.19-1.5-1.87ZM28.63,382.02c-.12-.53.73-1.38,1.29-1.94.76-.76,1.66-1.38,2.5-2.05,1.25,1.32,1.1,3,.14,4.53-.46.73-1.55,1.61-2.23,1.52-.69-.09-1.52-1.24-1.71-2.06ZM34.34,390.51c-.22.22.05.94.1,1.43h0c-1.19-.71-2.42-1.37-3.54-2.18-.21-.15-.16-1.16.09-1.36,1.49-1.13,3.08-2.14,4.63-3.19.68,2.03.27,3.77-1.28,5.3ZM37.9,319.73c-.23.07-.47.13-.7.2-.7-1.26-1.46-2.49-2.07-3.8-.12-.27.25-1.06.56-1.17.79-.29,1.66-.36,2.5-.4.07,0,.29.97.24,1.46-.12,1.24-.35,2.46-.54,3.69ZM38.13,323.04c.04.85-.43,1.73-.69,2.6-.23-.03-.45-.07-.68-.1-.39-.54-.85-1.05-1.13-1.64-.26-.55-.54-1.26-.39-1.77.09-.3,1.1-.63,1.52-.47.58.23,1.35.88,1.37,1.38ZM37.43,330.69c.79-.06,1.74.88,2.44,1.56.32.31.21,1.06.37,2.07-.26.41-.56,1.37-1.17,1.65-.43.19-1.3-.52-1.93-.89-.37-.21-.72-.5-1-.82-.52-.61-.98-1.27-1.46-1.92.92-.59,1.8-1.57,2.76-1.64ZM35.42,341.73c.02-1.46,1.97-3.36,3.52-3.36,1.92,0,1.87,1.68,2.05,2.84.32,2.18-.45,2.89-2.71,2.99-1.3.06-2.87-1.31-2.85-2.47ZM36.94,354.84c-.4,0-.79.01-1.19.02-.04-.84-.11-1.68-.08-2.52,0-.05.82-.07,1.27-.1v2.6ZM41.85,353.01c-.12.73-.93,1.34-1.42,2.01-.53-.76-1.17-1.47-1.54-2.3-.2-.44.02-1.1.14-1.65.33-1.59.33-2.82-1.88-2.83-1.04,0-1.23-.87-.49-1.55.8-.74,1.78-1.29,2.86-2.04,1.59,2.84,2.81,5.41,2.33,8.36ZM40,309.19c-1.22-.69-2.21-.33-3.1.38-.75.6-1.51.98-2.04.09-.44-.73-.83-1.91-.54-2.58.85-1.99,2.81-1.99,4.18-.17.12-.15.24-.29.36-.44,1.32.49,2.64.97,4.12,1.52-.87,1.44-1.88,1.83-2.98,1.21ZM45.15,353.42c-.36.02-.97-.49-1.09-.88-.1-.32.38-.81.59-1.22.3-.17.6-.34.9-.51.23.55.65,1.11.62,1.64-.02.36-.64.94-1.03.97ZM46.99,337.65c-1.62-.51-3.21-1.11-4.82-1.67,0-.21.02-.41.03-.62,1.63-.48,3.26-.96,5.31-1.57-.03-.25.04-1.31-.22-1.4-.67-.23-1.48-.02-2.56.03-.03-1.29.9-1.83,2.35-1.88-.23-1.5-1.06-3.31-.49-4.34.49-.89,2.58-.9,3.98-1.3-1.73-1.19-3.4-2.34-5.31-3.66,2.12-.55,3.93-1.14,5.78-1.42.56-.09,1.27.65,1.88,1.05.53.35.97,1,1.52,1.09,1.44.22,2.91.2,3.93.26.22,1.51.4,2.73.57,3.95.92-.23,1.84-.46,2.77-.69.14.18.29.36.43.55-.67.81-1.34,1.63-2.01,2.44-.4-.76-.8-1.53-1.2-2.29-.98-.35-2.31-.42-2.87-1.11-1.14-1.41-2.36-1.64-3.95-1.27.87,2.68.26,3.58-2.49,4.01-.51.08-1.18.49-1.36.93-.16.37.13,1.27.47,1.43.43.21,1.18.05,1.65-.21,1.68-.91,5.06-.64,6.5.51.31.25.87.19,1.32.23.97.09,1.99,0,2.91.28.55.17.94.87,1.41,1.33-.47.26-.95.5-1.41.77-.74.44-1.49,1.32-2.19,1.28-2.07-.12-4.15-.46-6.17-.98-1.03-.26-1.9-1-2.84.13-.75.91-.78,1.68.5,1.89,1.46.24,1.55,1.18,1.23,2.2-.42,1.35-1.41.8-2.32.52-.75-.23-1.58-.22-2.33-.45ZM48.88,349.24c-.85-.57-1.62-2.12-1.46-3.07.18-1.15,1.52-1.19,2.59-.48.22.14.64.16.88.05,2.45-1.08,4.24.47,6.45,1.38-1.85,2.08-6.62,3.34-8.46,2.11ZM56.41,363.86q-1.1-.78,1.04-4.22c.79.8,1.51,1.51,2.29,2.29-1.4.82-2.35,1.37-3.32,1.93ZM66.22,353.28c-.51.94-1.86,1.45-2.91,2.03-.14.08-.8-.37-.91-.68-.54-1.52-1.54-2.08-3.15-2.14-.53-.02-1.03-1.01-1.54-1.55.46-.41.92-.83,1.37-1.24.14.25.27.5.41.75,1.04-.37,2.07-.99,3.13-1.04,1.02-.04,2.39.21,3.02.88.62.66.98,2.27.59,2.99ZM72.29,347.34c-1.33-1.04-2.63-2.07-3.94-3.09.12-.14.25-.27.37-.41,4.53.92,4.99,1.38,3.56,3.5ZM74.5,374.99c-.2.06-.4.13-.6.19-.32-.86-.67-1.71-.9-2.59-.02-.06,1.09-.66,1.32-.5,1.24.88.54,1.91.18,2.89ZM80.33,351.52c-.27-1.21.25-1.7,1.34-1.62.72.05,1.52.19,2.12.55,2.54,1.53,2.52,1.57,4.99,1.63-.84,1.03-1.59,2.01-2.42,2.92-.31.34-.79.7-1.2.72-1.54.05-4.49-2.65-4.84-4.2ZM86.04,368.47c-.37.36-.74.72-1.12,1.07-.66-.74-1.39-1.43-1.9-2.26-.11-.18.67-1.28.93-1.24,1.14.19,2.19.67,2.09,2.43ZM84.54,363.53c-.56.18-1.42.15-1.84-.18-.35-.27-.51-1.32-.26-1.66.3-.41,1.12-.46,1.72-.64,1-.31,2.06-.48,2.99-.92,1.13-.54,3.16.63,3.09,2.02-.03.74-.43,1.47-.8,2.66-1.64-1.98-3.21-1.81-4.91-1.27ZM92.79,372.7c-.57.96-1.73,1.56-2.64,2.32-1.62-.49-3.01-.87-2.83-2.29.11-.88,1.2-1.94,2.11-2.35.97-.44,3.74,1.67,3.35,2.32ZM98.77,339.44c1.67.05,3.54,1.02,3.17,1.91-.31.74-1.43,1.15-2.19,1.7-1.47-.35-2.61-.47-2.6-2.07,0-1.01.45-1.58,1.62-1.55ZM98.08,366.95c-.37.03-.95-.36-1.14-.71-.19-.35-.18-1.04.05-1.33.21-.26.85-.27,1.29-.25.58.03,1.16.2,1.91.34-.04,1.48-1.04,1.85-2.11,1.94ZM102.33,353.45c-.37-.4-.73-.79-1.31-1.42.62-.55,1.01-.91,1.41-1.26.34.38,1.02.84.95,1.13-.13.57-.67,1.04-1.05,1.55ZM110.68,355.11c.32-.09.86.54,1.63,1.08-.81.63-1.26,1.21-1.8,1.3-.28.05-1.05-.81-.99-1.14.09-.49.67-1.09,1.16-1.24ZM106.33,359.75c.65.85,1.39,1.44,1.29,1.78-.2.65-.87,1.16-1.34,1.73-.5-.46-1.42-.94-1.4-1.37.03-.61.76-1.19,1.45-2.13ZM115.76,330.85c.77.1,1.47.75,2.64,1.42-1.05.91-1.65,1.44-2.26,1.97-.61-.71-1.3-1.38-1.76-2.17-.07-.13.96-1.27,1.38-1.22ZM113.17,273.92c.46.51.93,1.02,1.39,1.53-.35.29-.69.57-1.04.86-.39-.59-.78-1.18-1.16-1.77.27-.21.54-.41.82-.62ZM113.53,284.5c.17.1.17.89-.02,1.07-1.15,1.07-1.96.12-2.93-.54.91-1.23,1.92-1.18,2.95-.53ZM111.25,289.28c-1.77,1.88-2.83,1.86-3.91-.09,1.33-.78,2.59-1.32,3.91.09ZM104.38,311.79c.59-.71,2.14-1.24,3-.98,1.57.46,1.13,2.2,1.04,3.42-.04.61-.85,1.17-1.31,1.76-.11-.19-.22-.37-.32-.56-.39-.55-.67-1.4-1.18-1.58-1.15-.39-2.04-1.08-1.23-2.06ZM106.27,328.39c-.74-.16-1.47-.32-2.21-.48.05-.35.1-.69.14-1.04.75.05,1.49.09,2.24.14-.06.46-.11.92-.17,1.38ZM110.61,332.98c-.51-.63-.95-1.3-1.42-1.96.32-.19.65-.38.97-.57.39.73.79,1.46,1.18,2.19-.25.12-.69.39-.73.34ZM111.62,323.2c-1.69-1.1-2.9-1.79-3.98-2.64-.51-.4-.77-1.13-1.15-1.7.62-.24,1.23-.6,1.88-.71,1.78-.31,3.1.67,3.71,2.11.33.79-.27,1.97-.45,2.95ZM115.39,309.81c-.78,0-1.89.33-2.29-.06-1.03-.99-2.19-1.03-3.37-.97-1.34.08-2.19-.64-2.22-1.73-.02-.83.67-2.32,1.2-2.39.95-.13,2.66.35,2.91,1,.58,1.52,1.56,2.13,2.9,2.58.47.16.91.4,1.36.61-.16.32-.32.64-.48.96ZM115.66,300.43c-.49.36-1.02,1.07-1.46,1.02-.89-.09-1.87-.43-2.58-.96-1.27-.96-2.47-.84-3.86-.43-.42.13-1.05-.41-1.4-.57.21-2.4,1.23-2.97,2.81-2.12.27.14.69.46.79.38,1.94-1.53,2.47.15,3.29,1.34.17.24.74.17,1.07.35.48.27.9.65,1.35.98ZM137.48,155.96c1.05,0,1.85-.01,2.64,0,.17,0,.33.13.5.2-.67,1.39-1.89,1.35-3.14-.21ZM141.43,259.46c.73-2.09,1.72-2.09,2.78-1.59.28.13.38.65.56.99-.98.18-1.96.35-3.34.6ZM146.19,150.82c1.91-.27,3.31-1.21,4.77.29-1.43.45-2.86,1.57-4.77-.29ZM157.17,147.97c1.03-.35,2.06-.71,3.08-1.06-.41-.44-.85-.89-1.46-1.54,2.19-.59,3.25.37,4.3,2.01-1.98.52-3.82,1.01-5.67,1.49-.09-.3-.17-.6-.26-.9ZM163.57,259.07c-.99.37-3.26-1.09-3.27-2.17,0-.35.28-.86.59-1.03,2.24-1.22,4.3-.04,4.53,2.39-.65.29-1.24.58-1.85.81ZM175.99,144.4c-.44-.34-.63-.99-.93-1.5.41-.23.82-.64,1.23-.64,1.43,0,2.86.12,4.75.23-1.79,2.24-3.79,2.89-5.05,1.91ZM193.78,247.66c4.05-1.25,4.46-1.2,5.05.53-2.75,1.22-4.02,1.11-5.05-.53ZM241.37,144.64c.35-.07.84.49,1.26.77-.31.31-.58.82-.94.9-.82.17-1.68.13-2.52.18-.04-.28-.08-.56-.11-.84.77-.36,1.51-.84,2.31-1.01ZM236.23,135.27c3.15.08,3.59,1.76,2.43,3.66-1.05,1.73-.31,3.19,1.28,4.61-2.52-.08-3.03-.72-2.75-2.61.08-.52-.43-1.19-.81-1.69-.19-.25-.8-.18-1-.43-.63-.79-1.16-1.67-1.72-2.51.86-.37,1.73-1.07,2.58-1.04ZM226.26,242.73c-1.71.21-3.46.13-5.2.13-.14,0-.42-.19-.41-.27.17-1.84-1.07-1.19-1.98-1.16-.46.01-.92-.07-1.38-.11l-.07-.55c.5-.2,1.06-.66,1.47-.55,1.55.42,2.53-.57,3.65-1.22,2.08-1.2,4.34-.34,4.76,1.96.1.55-.47,1.74-.84,1.79ZM225.57,144.29c.1-.49.03-1.18.33-1.41.6-.47,1.4-.96,2.1-.94.61.02,1.2.73,2.15,1.37-1.1.61-1.75,1.17-2.49,1.31-.65.13-1.39-.2-2.08-.33ZM227.43,231.71c1.02-.32,2.03-.77,3.08-.91.45-.06.99.52,1.49.81-.42.48-.82,1.34-1.26,1.36-1.06.06-2.15-.27-3.22-.44-.03-.27-.06-.54-.09-.82ZM236.02,238.83c.04-.09.08-.19.12-.28-2.27,0-4.54.11-6.8-.05-1.13-.08-1.65-.77-1.12-2.15.59-1.55,1.2-2.31,3.06-2.01,1.52.24,3.13-.11,4.7-.2.06.17.12.33.18.5-.74.38-1.48.76-2.35,1.21q3.99.4,4.48,3.57c-.88-.23-1.57-.41-2.27-.58ZM238.15,231.87c-.43-.12-.97-.76-.99-1.18-.02-.39.52-.98.95-1.18.89-.42,1.86-.83,2.81-.85.56-.01,1.38.6,1.64,1.14.37.78.35,1.76.56,3.11-1.97-.4-3.5-.63-4.97-1.05ZM244.91,143.58c-.26-1.81-1.22-3.49,1.57-3.87-.15,1.39.39,2.87-1.57,3.87ZM248.86,305.1c.38.35,1.11.73,1.09,1.06-.11,1.66.41,3.46-.4,5-.25-.01-.5-.03-.74-.04-.21-1.91-.42-3.82-.63-5.73.23-.1.46-.2.69-.3ZM247.91,322.48c.13-.66-.13-1.4-.25-2.42.53.03,1.46-.08,1.52.11.44,1.27.69,2.6,1.08,4.24-1.94-.16-2.64-.52-2.35-1.94ZM310.01,275.77c-1.61.53-3.56.62-4.57,1.64-1.52,1.52.82,2.94,1.11,5.03-1.29.09-2.53.26-3.74.18-.15-.01-.2-1.37-.36-2.51-.51.38-1.16.62-1.36,1.06-.6,1.32-1.61,1.29-2.66.91-1.23-.44-2.46-.94-3.56-1.63-.35-.22-.29-1.13-.4-1.72-.12-.62-.12-1.73-.35-1.78-1.08-.23-2.24-.05-3.34-.22-1.47-.23-2.1.29-2.15,1.75,0,.33-.38.64-.78,1.27-.96-2.98-4.04-5.53.36-8.22.47,1.4.89,2.66,1.34,4.02,1.6-.13,3.39,0,4.97-.52,1.04-.34,1.83-1.56,2.62-2.48.16-.19-.03-1.01-.29-1.16-.29-.17-.88,0-1.24.19-.74.4-1.42.91-2.24,1.46-.63-.79-1.3-1.4-1.66-2.16-.21-.44-.06-1.2.19-1.67.58-1.11,1.33-2.13,1.91-3.03,1.03-.55,2-1.06,2.97-1.58-.34-.49-.67-.97-1.01-1.46.45.43,1.33.89,1.3,1.27-.22,2.46,1.75,3.76,2.81,5.49,1.28,2.09,1.34,2.6-.43,4.32,1.46.3,2.68-.42,2.61-1.26.95-.23,1.88-.37,2.74-.69,2.62-.99,4.82.62,5.22,3.5ZM293.22,294.14c1.12-1.29,1.91-2.19,2.83-3.24h3.02c.52,2.12,1.11,4.5,1.77,7.23-1.62-.27-3.03-.44-4.4-.77-.34-.08-.84-.73-.78-1,.35-1.54-.51-2.01-2.44-2.21ZM294.96,287.64c-1.59-.77-3.15-1.58-4.77-2.27-.55-.24-1.24-.17-1.86-.24-.15.21-.31.42-.46.62-.28-.64-.55-1.28-.83-1.93.85-.27,1.68-.67,2.54-.78.83-.1,1.69.1,2.54.18.17-.14.33-.29.5-.43.94,1.49,1.87,2.98,2.81,4.47-.16.13-.32.25-.48.38ZM288.41,290.22c.12.23-.02.79-.23.95-.18.14-.7.01-.95-.17-.28-.2-.42-.59-.7-1.01-.44.36-.84.69-1.41,1.17-.52-.85-.98-1.6-1.48-2.41,1.13-.38,2.02-.67,3.23-1.07.37.6,1.01,1.54,1.53,2.54ZM287.24,298.03c1.37.56,2.38.88,3.46-.42.49-.59,1.27-1.04,1.81,0,.41.79,1.54,1.57.27,2.58-.49.39-.96.79-1.4,1.22-1.27,1.24-1.53,1.16-2.24-.5-.17-.39-.88-.98-1.03-.9-2.27,1.22-2.9-1.84-4.79-1.5.03-.31.07-.61.1-.92,1.28.12,2.68-.04,3.82.43ZM289.38,306.76c1.02-.69,2.46-1.57,3.59.15.19.29.55.59.88.66,2.22.45,1.85,2.39,2.09,3.83.16.94-.34,1.99-.55,2.99-.69-1.67-1.96-2.19-3.63-2.43-.57-.08-.97-1.14-1.52-1.68-.4-.4-.92-.69-1.38-1.03-.28.06-.55.11-.83.17.43-.92.62-2.18,1.34-2.66ZM295.33,316.8c.8.19,1.57.49,2.35.76-.06.16-.11.32-.17.47-.77.06-1.53.11-2.71.2.21-.59.47-1.45.52-1.43ZM296.61,303.83c.08-.64,1.2-1.14,2.16-1.97,0,0-.06-.41-.13-.88.28,0,.56-.07.61.01.38.55.63,1.22,1.09,1.7.7.73,1.39,2.01,2.6.45.18-.24,1.07-.31,1.24-.11.67.77,1.37,1.61,1.7,2.55.3.85-.31,1.54-1.27,1.17-1.12-.43-2.14-1.11-3.37-1.76-.16.08-.62.28-1.04.53-1.16.68-3.74-.42-3.58-1.68ZM305.09,298.85c-.21.76-.39,1.4-.57,2.04l-.61-.14c.2-1.22-1.69-2.54.37-3.72.14-.08-.03-1.26-.28-1.35-1.73-.64-1.48-2.03-1.31-3.3.16-1.23-.07-1.93-1.45-2.02-.47-.03-.96-.29-1.36-.56-.28-.18-.66-.67-.59-.82.17-.32.55-.66.91-.74,1.2-.26,2.42-.41,3.73-.61-.12-.74-.2-1.26-.32-1.94,3.07.51,1.94,4.43,4.95,4.99-1.51.74-2.63,1.29-3.76,1.84.02.13.04.26.07.38.58-.09,1.19-.11,1.75-.27,1.61-.47,1.98-.21,1.92,1.42-.04,1.19.38,1.96,1.4,2.79.97.78,1.35,2.29,2.01,3.54-2.97,1.6-4.79-.57-6.87-1.55ZM306.94,5.19l.52.51c-.9.84-1.8,1.68-2.73,2.55q-1.68-1.99,2.21-3.05ZM303.15,261.85c2.56.56,3.05,2.78,3.89,4.65.19.43-.58,1.3-1.12,2.41.07.18.31.74.56,1.33-4.15.12-6.47-1.87-6.78-5.72-.12-1.5,2.01-2.99,3.46-2.68ZM300.99,253.65c-.36.31-.64.55-.99.85.22.3.5.68,1.13,1.53-1.65.32-2.99.78-4.32.77-.78,0-1.84-.59-2.26-1.24-.61-.93,1.02-3.26,2.19-3.88,1.65.77,2.87,1.33,4.25,1.97ZM296.55,235.23c-.76.91-1.22,1.51-1.73,2.06-.37.4-.97,1.11-1.19,1.02-.55-.22-1.11-.76-1.36-1.31-.26-.56-.15-1.29-.22-2.21,1.58.15,2.92.28,4.51.43ZM293.05,238.83c.68.69,1.08,1.11,1.49,1.53-.7.22-1.39.52-2.11.61-.24.03-.55-.45-.83-.7.41-.41.82-.81,1.44-1.43ZM295.79,242.51c.42-.21,1.44-.01,1.67.34.5.75,1.11,1.88.86,2.56-.24.65-1.5.92-2.31,1.38-.26.15-.46.42-.73.55-.48.23-1,.4-1.5.6l-.27-.47c.35-.77.7-1.54,1.07-2.36-1.52-.5-2.78,1.75-4.02.37,1.74-1.02,3.43-2.09,5.21-2.97ZM287.24,250.34c.19-.98.45-2.05,1.04-2.79.22-.28,1.97.05,2.13.45.64,1.62,1.58,1.15,2.7.8.46-.15,1.03.02,1.55.04.02.22.05.43.07.65-.81.18-1.67.24-2.42.57-1.14.51-2.17,1.24-3.29,1.79-.4.19-1.19.32-1.34.12-.32-.42-.54-1.11-.44-1.62ZM290.43,256.79c-.88-.5-1.23-.68-1.57-.89-.52-.33-1.02-.68-1.52-1.02.49-.5.95-1.03,1.47-1.49.59-.53,1.24-1.01,1.86-1.51-.05-.19-.1-.39-.16-.58.81.35,1.62.7,2.43,1.05-.02.13-.03.25-.05.38-.4.07-.8.13-1.36.22.96,2.08.62,4.62,2.9,6.15.34.23,0,1.79-.37,2.57-.15.31-1.27.2-1.94.18-.73-.02-1.48-.07-2.16-.29-.8-.26-1.78-.53-2.22-1.13-.49-.68-.46-1.73-.62-2.48,1.08-.37,1.94-.68,3.31-1.15ZM285.27,265.24c.47-1.38,1.82-1.67,3.51-1.25-.62,1.25-1.11,2.24-1.9,3.85-.71-1.09-1.8-2.07-1.61-2.6ZM283.82,281.27c.54,1.48.87,3.03,1.27,4.56-.21.06-.42.13-.63.19-.75-1.41-1.51-2.82-2.49-4.65.59-.04,1.78-.27,1.85-.09ZM281.09,301.77c.62,1.33,1.15,2.72,2.94,3.01.33.05.52.97.78,1.48-.53.08-1.11.33-1.58.2-1.61-.44-3.19-1.01-4.78-1.54.04-.19.08-.37.13-.56.38-.09.76-.18,1.28-.31-.52-1.04-1-2.01-1.47-2.95,1.32-.99,2.11-.6,2.71.67ZM282.22,312.82c.28.38.31,1.45.13,1.54-.57.28-1.39.49-1.95.28-.79-.29-1.42-.98-2.12-1.5,1.67-1.58,2.9-1.74,3.94-.32ZM276.83,326.13c2.15-1.39,3.7-.65,5.53,2.69-1.19,1.01-2.19,1.69-3.24-.09-.23-.39-1.09-.38-1.65-.6-.53-.22-1.04-.49-1.56-.75.3-.42.51-.98.91-1.25ZM274.02,344.36c-.41.66-.72,1.15-1.05,1.69-.36-.76-.84-1.47-1.02-2.25-.13-.59-.1-1.61.25-1.84.53-.35,1.62-.47,2.08-.14.69.49,1.18,1.41,1.53,2.24.51,1.21.83,2.5,1.29,3.97-2.98.96-1.8-2.45-3.07-3.66ZM277.49,351.29c.42.02,1,.5,1.16.91.09.23-.51.74-.98,1.35-.55-.58-1.15-.94-1.16-1.31,0-.33.64-.97.98-.96ZM266.72,346.52c.31.6-.82,2.73-1.63,2.95-1.27.35-2.98,0-4.2-.65-1.28-.67-.81-2.75.57-3.34.57-.24,1.17-.65,1.73-.62,2.42.13,2.9-1.15,2.38-3.33.7.13,1.22.22,1.83.34-.38,1.57-1.63,2.8-.68,4.63ZM268.37,319.69c.58.44,1.07,1.07,1.42,1.71.58,1.06.6,1.56-.83,2.48-2.99,1.93-4.85-1-7.29-1.03-.3,0-.84-.87-.81-1.31.03-.42.6-.89,1.04-1.17.32-.21.82-.13,1.36-.2-1.15-1.91-.01-3.04,1.64-4.46-2.65-.61-5.16-1.3-5.03-4.74.34.31.61.67.97.84.28.14.79.18.97.01.18-.16.23-.81.07-.95-.85-.76-1.78-1.44-2.67-2.15-.37-.29-.78-.56-1.04-.94-.07-.09.37-.77.58-.78.49-.01,1.06.11,1.47.38,1.48.96,3.02,1.87,4.34,3.03,1.7,1.48,4.2,2.36,4.48,5.03.08.73-.38,1.67-.87,2.28-.69.85-.66,1.32.2,1.97ZM259.1,316.56c.2-.08.62.39,1.24.82-.69.45-1.09.83-1.56.95-.18.05-.79-.69-.74-.77.26-.41.63-.83,1.06-1ZM260.81,331.52c1.76.16,2.28.66,1.91,2.54-.28,1.45.19,2.31,1.48,2.8,1.26.48,1.3,1.36.89,2.43-.22.58-.32,1.23-.63,1.75-.34.57-.87,1.03-1.32,1.54-.17-.14-.34-.28-.5-.42v-2.4c-2.49.28-4.47-1.15-6.51-2.3-.19-.11-.21-.79-.09-1.13.52-1.49,1.1-2.97,1.69-4.43.08-.19.35-.31.53-.47.81,1.03,1.69,0,2.55.08ZM266.25,332.26c-.22-.28.48-1.3.65-1.72,2.15.34,3.82.56,5.47.88.3.06.52.5.78.76-.41.33-.82.66-1.23.99-.11-.13-.23-.25-.34-.38-.28.6-.55,1.19-.76,1.63-.8-.16-1.53-.17-2.11-.46-.9-.45-1.86-.96-2.46-1.71ZM274.15,317.04c.07.4-.35,1.09-.74,1.32-.28.16-1-.11-1.3-.41-.69-.67-1.24-1.49-1.84-2.24.04-.2.09-.41.13-.61.92.11,1.91.07,2.74.4.48.19.91.96,1.01,1.54ZM273.93,296.04c.07-.97.15-1.95.23-2.99,1.6.75,1.6,1.44-.23,2.99ZM274.51,268.82c.25-.36.5-.71.74-1.07.45.58,1.3,1.22,1.24,1.74-.08.66-.91,1.22-1.42,1.83-.24-.33-.66-.67-.66-1,0-.4.36-.8.56-1.21-.16-.09-.31-.19-.47-.28ZM269.64,31.2c1.06-.76,1.86-1.34,3.18-2.3-.09,1.47-.16,2.46-.24,3.77-1.16-.58-1.95-.98-2.94-1.47ZM272.48,275.65c.2.02.4.05.6.07.17.72.34,1.45.51,2.17-.13.1-.26.19-.38.29-.46-.32-1.2-.56-1.3-.97-.12-.44.36-1.04.58-1.56ZM272.59,282.65c1.08,1.14,2.03,1.8,2.4,2.69.17.41-.81,1.29-1.27,1.96-.76-.88-1.61-1.7-2.21-2.67-.15-.24.51-.97,1.08-1.98ZM268.07,55.39c-.5-.46-1.3-1.45-1.18-1.59.64-.81,1.26-2.03,2.69-1.21.09.05.23.02.19.02.48-.76.92-1.45,1.36-2.14.19.05.38.09.57.14v7.9c-1.23-1.05-2.46-2.05-3.62-3.12ZM268.61,273.5c1.07.9,1.67,1.41,2.26,1.92,0,.16,0,.32,0,.48-.76-.17-1.56-.24-2.23-.58-.2-.1-.03-.95-.03-1.82ZM267.54,296.56c.83-.4,1.88-1.22,2.58.02.47.82.52,1.87.76,2.82-.17.1-.34.2-.51.3-1-.64-2.03-1.24-2.96-1.97-.17-.14-.07-1.06.13-1.16ZM266.13,66.33c.2.25.39.51.59.76-.59.48-1.18.95-1.77,1.43-.17-.2-.34-.39-.51-.59.56-.53,1.13-1.07,1.69-1.6ZM262.73,288.26c1.25-.24,2.55-.26,3.83-.29.18,0,.52.41.53.64.06,1.07.03,2.15.03,3.58-1.68-.43-3.09-.67-4.4-1.18-.52-.2-1.03-.98-1.11-1.55-.05-.36.66-1.11,1.12-1.19ZM259.34,293.6c1.27,1.93,2.53,3.86,4.01,6.11-1.51-.55-2.47-.84-3.37-1.26-.38-.18-.84-.6-.91-.97-.2-1.19-.24-2.42-.33-3.63.2-.09.4-.17.6-.26ZM257.06,300.39c0-.2.4-.4.61-.6.24.12.46.16.55.29.82,1.11,1.72,2.17,2.38,3.37.53.97.32,1.99-.83,2.48-1.12.47-2.26.33-2.51-1.01-.27-1.48-.2-3.02-.21-4.54ZM255,326.1c.12-.49.64-1.17,1.05-1.23.45-.07,1.24.36,1.45.79.57,1.2.92,2.51,1.4,3.92-2.99.41-4.48-1.01-3.89-3.48ZM253.03,310.2c-.56-.69-.95-1.17-1.34-1.64.31-.22.75-.68.92-.6.49.24.92.67,1.27,1.1.06.07-.41.57-.85,1.14ZM250.02,343.29c-.09.2-1.04.29-1.14.14-.42-.67-.68-1.44-.97-2.11.41-.27.51-.37.62-.39.6-.13,1.21-.24,2.37-.47-.34,1.13-.52,2.02-.89,2.83ZM255.44,369.1c-.15-1.57-.27-2.83-.38-4.09q1.45,3.13.38,4.09ZM254.04,354.61c-.46-1.59-1.11-3.54-1.57-5.54-.13-.57.11-1.51.52-1.82.34-.25,1.19.18,1.93.34-.28.65-.46,1.07-.69,1.61,2.62.53,3.82,2.56,5.67,4.06-2.1.48-3.71.86-5.87,1.35ZM265.59,362.4c-.61,2.89-1.73,3.35-4.02,1.58-.92-.72-1.9-1.48-2.52-2.44-.91-1.39-.25-4.22,1.02-5.28.19-.15.61-.19.83-.09.18.09.21.47.31.72-.07.03-.15.05-.22.08.56,1.26,1.07,2.55,1.73,3.76.12.21.92.16,1.36.05,1.58-.41,1.75.44,1.5,1.63ZM264.88,357.78c-.17.13-.34.26-.51.39-.36-1.92-.83-3.84-.99-5.78-.04-.46.92-1.01,1.65-1.38-.21,3.68,3.04,4.32,4.76,6.15.43.45.93.83,1.4,1.24-.74.35-1.46.91-2.22.99-.6.06-1.26-.47-1.89-.73-.73-.3-1.46-.59-2.19-.88ZM274.35,368.41c-2.48.66-4.01-.72-3.76-3.25.05-.54-.23-1.23-.59-1.67-.67-.82-1.5-1.51-2.45-2.44,2.51-1.01,3.93.21,5.43,1.15.15.1.31.24.39.4.86,1.74,1.71,3.49,2.6,5.33-.48.14-1.05.32-1.63.48ZM278.97,362.15c-.21.23-.62.4-.93.38-1.36-.08-2.73-1.68-2.98-3.93,1.48,1.07,2.64,1.87,3.75,2.74.18.14.28.69.17.81ZM283.67,350.07c-.42-.36-.61-1.01-.98-1.71-1.94.14-2.4-1.04-2.21-2.94.14-1.36-.06-2.76-.11-4.15,0-.19.01-.38-.02-.56-.19-1.05-2.91-3.51-3.93-3.57.29-1.56,1.32-2.3,2.92-1.67,1.61.64,3.06,1.68,4.81,2.67-1.12.67-2.37,1-2.66,1.71-.31.77.32,1.9.45,2.89.21,1.57.41,3.1,1.9,4.07.29.19.55.55.67.89.22.65.4,1.34.41,2.02,0,.12-1.06.52-1.25.35ZM286.59,352.4c1.23.29,2.45.59,3.68.88-1.99,1.51-3.09,1.28-3.68-.88ZM287.06,340.54c1.35.9,2.7,1.79,4.05,2.69-.12.17-.25.34-.37.51-1.14-1.24-3.72-.44-3.68-3.2ZM289.98,357.64c-.43-.15-.75-.63-1.12-.97.3-.24.66-.72.9-.66.52.12.97.51,1.98,1.1-.98.32-1.45.64-1.76.53ZM292.12,333.76c-1.85.16-3.76-.24-5.62-.55-.28-.05-.41-.96-.76-1.85-.02,0-.42-.11-1.04-.28.53-.95.96-1.75,1.44-2.61-.88-.62-1.72-1.21-2.56-1.79.09-.16.18-.32.26-.48.55.14,1.1.27,2.05.51-.95-2.51-3.28-3.13-4.56-4.34.06-1.13.03-2.02.18-2.87.09-.49.39-1.24.72-1.31.48-.11,1.14.19,1.61.49.69.43,1.35.95,1.9,1.55.62.67,1.18,1.42,1.61,2.22.34.65.25,1.58.69,2.11,1.05,1.27,1.3,2.58.95,4.16-.08.36.41.96.79,1.27.82.67,1.77,1.18,2.61,1.82,1.23.95,1.17,1.84-.27,1.97ZM296.53,354.42c-.19,0-.38-.01-.57-.02-.38-.47-.81-.9-1.13-1.41-.26-.41-.58-.95-.5-1.36.05-.26.82-.64,1.16-.55.51.12,1.25.56,1.31.96.12.76-.16,1.58-.27,2.37ZM296.58,329.67c-.48-.78-1-1.54-1.74-2.68.38-.69.88-1.61,1.59-2.91-.55,0-1.31-.01-2.06-.03-.52-.01-1.04-.04-1.56-.06.31-.46.53-1.13.96-1.35,1.52-.74,3.35.08,4.56,1.89.99,1.49,1.12,3.99.26,5.16-.68.93-1.34,1.05-2.01-.03ZM299.08,336.51c-.21.03-.42.07-.63.1.19-.7.18-1.61.63-2.04.27-.26,1.25.2,1.9.35.3.07.59.17.88.27.82.28,2.23.42,2.35.9.34,1.27.16,2.69.07,4.04,0,.12-1.1.41-1.26.23-.67-.74-1.07-1.72-1.77-2.43-.59-.6-1.44-.96-2.18-1.42ZM303.36,347.79c-.1-1.3-1.45-2.93.78-3.79.22,1.24.43,2.48.75,4.28-.54-.16-1.51-.29-1.53-.48ZM303.74,317.69c-1.37-1.83-2.45-3.18-3.42-4.62-.25-.37-.29-1.04-.13-1.45.09-.22.82-.24,1.26-.25.96-.03,1.93-.04,2.89.03.51.03,1.12.11,1.46.42.19.17-.05.86-.15,1.31-.15.64-.3,1.29-.55,1.89-.34.79-.77,1.54-1.36,2.68ZM305.37,331.36c-.05-.59-.07-1.19-.11-1.79.19-.08.38-.17.58-.25.34.83.99,1.68.94,2.48-.06.92-1.32.61-1.41-.44ZM306.62,303.44c.3-.18.6-.36.9-.54.45.57.9,1.13,1.35,1.7-.46.32-.93.65-1.39.97-.29-.71-.57-1.42-.86-2.13ZM308.81,381.46c.88.27,1.76.55,2.79.87-1.43,1.28-1.77,1.21-2.79-.87ZM310.63,309.34c-.82-.99-.28-1.77.54-2.41.27,0,.53,0,.8,0,.02.86.04,1.72.06,2.58-.48-.05-1.18.09-1.4-.17ZM310.48,284.18c-.3-.04-.54-.56-.8-.87.31-.22.68-.68.94-.62.92.2,1.79.58,2.69.89-.06.21-.11.43-.17.64-.89,0-1.78.08-2.65-.04ZM313.15,375.72c-1.38-.61-.7-1.54-.1-2.16.74-.76,1.62-.77,2.3.44-.81.63-1.48,1.16-2.2,1.72ZM323.71,9.81c-1.05,0-1.94-.2-2.67.06-.76.27-1.36.97-2.03,1.48-.21-.21-.42-.42-.63-.64,1.08-1.35,2.16-2.71,3.49-4.37.06.71.09,1.07.12,1.54h2.09c-.18.94-.31,1.58-.38,1.92ZM359.57,361.08c.51,0,1.02.68,1.53,1.06-.49.44-.99.87-1.69,1.49-.54-.61-.9-1.02-1.25-1.42.47-.41.94-1.13,1.41-1.13ZM353.15,134.27c2.78,2.76,2.74,2.8,2.42,3.74-1.2-.27-2.25-.46-3.27-.78-.38-.12-.81-.53-.93-.9-.23-.74-.27-1.54-.44-2.75.87.25,1.77.24,2.22.68ZM347.57,174.86c.25-.28,1.41.16,2.12.39.52.17,1.1.43,1.43.83.51.64,1.31,1.63,1.12,2.12-.26.66-1.36.98-2.22,1.52-1.03-1.29-3.35-.08-3.46-2.28-.04-.86.43-1.92,1.02-2.58ZM342.2,167.57c-.34-.01-.63-1.24-.94-1.9.86-.18,1.8-.67,2.55-.46.97.27,1.79,1.11,3.01,1.92-1.71.2-3.17.5-4.62.44ZM347.18,150.46c.09-.2.53-.45.71-.38,1.04.37,2.36.59,2.95,1.35.33.43-.56,1.8-.93,2.84-1.15-1.31-1.9-2.12-2.58-2.98-.16-.2-.25-.61-.15-.83ZM347.6,125.57c2.32-.69,3.89.84,3.34,3.18-.18.74-.31,1.5-.46,2.25-.19-.03-.37-.06-.56-.09-.05-.76-.11-1.52-.16-2.22-.9-.28-1.79-.4-2.48-.83-.43-.26-.7-.98-.77-1.52-.03-.22.67-.64,1.09-.77ZM343.8,158.31c-.2-.8-.33-1.61-.48-2.42.21-.03.41-.07.62-.1.11.13.3.25.32.39.12.73.21,1.47.31,2.2-.27-.02-.75.01-.77-.08ZM344.35,141.97c.02.15-.5.52-.81.57-1.54.25-2.43-.42-2.76-2.24,1.19.26,2.11.4,2.96.7.3.11.55.62.61.98ZM339.58,130.03c.46-.52,1.4-.62,2.13-.9.73.33,1.33.6,1.92.87-.38.58-.7,1.22-1.17,1.72-.37.39-.92.76-1.42.82-.67.07-1.38-.18-2.07-.29.18-.76.15-1.7.6-2.22ZM335.2,370.22c-.17-.1-.34-.2-.51-.3.3-.66.46-1.71.93-1.88.81-.29,1.82-.03,2.74,0,.03.27.05.54.08.82-1.08.45-2.16.91-3.24,1.36ZM335.39,363.43c.17-.73.31-1.37.42-1.82,1.07.37,2.11.73,3.17,1.1-.23,1.73-.96,1.94-3.59.72ZM338.27,197.51c-.51.1-1.12-.31-1.68-.51,0-.19.02-.39.03-.58.68-.22,1.35-.44,2.03-.65.12.12.23.25.35.37-.24.49-.4,1.32-.72,1.38ZM338.86,157.68c-.21.03-.43.06-.64.09-.39-.42-.78-.83-1.62-1.74,1.2-.12,1.87-.19,2.54-.26-.09.64-.18,1.28-.27,1.91ZM339.14,154.51c-.19-.94-.32-1.4-.36-1.86-.05-.52-.03-1.05-.04-1.57.76.17,1.94.11,2.18.55.37.69.33,1.83-.01,2.55-.18.37-1.38.27-1.76.32ZM343.78,323.33c-.26-.24-.37-.99-.19-1.29.63-1.06,3.75-1.24,4.64-.36.84.83.66,1.79-.46,2.15-.65.21-1.34.28-2.31.47-.45-.24-1.16-.5-1.68-.97ZM348.58,355.75c-.1.07-1.14-.93-1.08-1.02.48-.77,1.12-1.45,1.91-2.39.78.72,1.17,1.08,1.56,1.45-.78.67-1.54,1.39-2.39,1.96ZM353.58,358.03c-.76.65-1.15,1.23-1.65,1.33-.34.07-.82-.51-1.24-.8.37-.41.68-1.02,1.15-1.18.36-.12.91.31,1.74.65ZM353.21,345.6c-1.04-.57-1.79-1.71-1.48-3.17.12-.58,1.41-1.52,1.61-1.39,1.23.76,2.3,1.77,3.39,2.67-1.39.75-2.34,1.26-3.52,1.89ZM357.47,332.96c-1.21,2.79-3.4,1.29-5.03,1.72-1.06.28-2.25.01-3.34.23-1.7.34-2.79-.5-3.82-1.95h12.18ZM354.3,320.96c-1.65-1.03-2.96-1.81-4.22-2.68-.15-.1-.12-.84.05-.96.46-.33,1.05-.67,1.58-.66.9.02,1.87.16,2.68.54.72.33,1.25,1.05,1.87,1.59-.6.67-1.21,1.33-1.96,2.16ZM357.8,252.35c.13.29.27.59.4.88-.7.34-1.4.68-2.1,1.02-.13-.27-.26-.55-.39-.82.7-.36,1.39-.72,2.09-1.08ZM354.55,302.75c1.28-.53,2.41-.32,3.02,1.03.14.3-.49.95-.77,1.45-.88-.59-1.77-1.18-2.65-1.78.13-.23.27-.47.4-.7ZM354.13,308.72c.66.11,1.27.52,1.9.8-.39.39-.72.91-1.19,1.15-.71.36-1.51.6-2.29.77-.78.17-1.6.18-2.87.31-1.35.56-2.21-.66-2.96-1.93-.64-1.09-.08-2.02,1.19-1.92.97.07,1.92.47,2.89.59,1.1.14,2.24.05,3.34.23ZM347.98,284.71c.75-.06,1.51-.11,2.26-.17.03.26.07.53.1.79-.76.14-1.52.29-2.28.43-.03-.35-.06-.7-.09-1.05ZM347.56,224.17c.25-.21,1.1.16,1.59.42.69.36,1.31.86,1.73,1.14.4,1.24.75,2.29,1.07,3.36.14.48.21.98.31,1.47-.54-.16-1.34-.16-1.57-.52-.88-1.39-2.08-2.03-3.66-2.3-.53-.09-1.42-1.06-1.35-1.18.5-.88,1.12-1.74,1.88-2.38ZM345.83,315.32c-1.2-.07-2.1-.12-3.47-.2.33-.6.61-1.47.85-1.46,1,.04,2.29-.15,2.62,1.66ZM343.62,194.28c-.73.08-1.59.22-1.68-1.24-.09-1.55-.91-3.05-1.37-4.58-.06-.18.13-.44.19-.63.96.11,1.82.21,2.9.33-.05.35-.12.84-.19,1.34.76.38,1.52.77,2.41,1.21-.7.49-1.13.79-1.57,1.08.49.45.98.91,1.71,1.59-.83.32-1.6.8-2.41.89ZM345.69,183.35c-.02.07-.6-.02-1.08-.04.66-1.52,1.44-2.78,3.02-2.61,2.05.22,4.45-.25,5.98,2.07-1.52,1.13-3.81,1.18-5.25.19-1.05-.72-2.07-1.85-2.67.39ZM350.41,198.06c-.86.32-1.79.53-2.71.59-.33.02-.7-.5-1.06-.79,1.36-.46,2.29-.83,3.25-1.07.39-.09.85.11,1.28.18-.25.37-.42.95-.76,1.08ZM356.85,187.1v3.25c-.85-.38-1.53-.69-2.5-1.13-.2.36-.4.74-.63,1.16-.48-.41-.7-.63-.95-.8-2.18-1.47-2.22-2.63-.06-4.12.84-.58,1.76-.91,2.55.32.37.57,1.09.92,1.59,1.32ZM355.02,174.55c-.66-.05-1.28-.64-2.32-1.25.88-.58,1.39-1.18,1.79-1.12.61.1,1.15.66,1.71,1.02-.4.48-.83,1.37-1.19,1.35ZM355.1,157.82c.24-1.78.97-2.16,2.01-1.85.34.1.53.68.79,1.04-.84.24-1.68.49-2.79.81ZM357.82,131.15c-.53-.13-1.37-.1-1.54-.43-.46-.86-.63-1.87-.91-2.82.13-.07.26-.14.39-.21.79.51,1.72.9,2.3,1.59.27.33-.14,1.23-.24,1.87ZM359.64,107.01c.59.75,1.19,1.5,2.02,2.56-.75.38-1.26.63-2.03,1.02-.24-1.33-.42-2.36-.61-3.39.21-.07.41-.13.62-.2ZM361.79,158.09c-.25.04-.5.08-.75.12l-1.42-1.83c.06-.17.12-.34.17-.51.63.1,1.5-.02,1.83.35.33.37.13,1.22.17,1.86ZM361.58,59.33c-.54-.9-1.12-1.77-1.58-2.71-.08-.16.37-.57.9-1.33.72,1.25,1.3,2.08,1.65,2.99.08.19-.63.7-.98,1.06ZM370.09,86.45c.81.38,1.53.97,2.49,1.63-.87.74-1.34,1.26-1.43,1.2-.74-.47-1.41-1.05-2.1-1.6.36-.43.92-1.3,1.05-1.24Z"/>
  <path class="cls-1" d="M379.21,363.28c-.4-.1-.85-.09-1.26-.02-.8.14-1.59.35-2.24.51-.34.64-.53,1.45-1.03,1.84-1.24.95-1.94,1.92-2.07,3.43-.02.18-.23.43-.17.51.72,1.01,1.29,2.44,2.29,2.89,1.26.56,1.72-.67,1.78-1.89.02-.31.52-.84.78-.83.41.02.9.34,1.17.68.4.5.64,1.13.97,1.73,2.54-1.95,4.32-6.34,3.76-7.72-1.6-.46-2.78-.83-3.97-1.13Z"/>
  <path class="cls-1" d="M201.13,134.65c.44.42,1.17.54,1.77.8.1-.58.19-1.16.39-2.36,1.01.81,1.89,1.52,2.57,2.06.36-1.88.66-3.4,1-5.19-.74.77-1.44,1.49-2.14,2.22-1.15-1.73-1.12-1.65-3.3-1.01-1.22.36-2.53.48-3.81.6-1.54.15-2.54.94-2.77,2.47.52-.21.96-.37,1.4-.56,1.39-.59,3.84-.03,4.89.98Z"/>
  <path class="cls-1" d="M386.76,107.47c-.18-.05-.36-.09-.54-.14-.22.95-.43,1.9-.65,2.85-.11-.1-.23-.19-.34-.29-.66.56-1.75,1.01-1.9,1.69-.55,2.34-.83,4.74-1.07,7.14-.03.35.75.77,1.15,1.16.26-.4.82-1.06.73-1.16-1.14-1.34-.03-2.17.6-3.11,1.67-2.5,2.14-5.25,2.01-8.13Z"/>
  <path class="cls-1" d="M355.01,218c-1.09.21-1.55,1.33-.83,2.1.8.86,1.61,1.8,2.62,2.34.59.32,1.61.07,2.33-.2.45-.17.96-.86.99-1.34.07-1.15-2.12-3.11-3.27-3.03-.61.04-1.24.02-1.83.14Z"/>
  <path class="cls-1" d="M122.12,358.48c.14-.95.26-2.31-.27-2.84-.65-.65-1.96-.73-3-.85-.67-.08-1.39.22-1.91.32,1.18,1.84,2.5,3.9,4.05,6.31.47-1.18,1-2.03,1.13-2.94Z"/>
  <path class="cls-1" d="M44.96,364.13c-.6-.15-1.15-.55-1.83-.89-.31.94-.54,1.64-.75,2.28,1.57,2.47,4.03.96,5.93,1.68.08.03.69-1.31,1.05-2.02-.5-.21-.98-.5-1.5-.61-.96-.2-1.96-.21-2.91-.44Z"/>
  <path class="cls-1" d="M357.32,372.03c-.62-.57-1.09-1.14-1.69-1.53-.4-.27-.97-.42-1.45-.4-1.2.05-2.4.19-3.58.39-.37.06-.7.41-1.05.63.18.28.3.71.55.82,1.77.74,3.57,1.42,5.38,2.12.56-.62,1.21-1.33,1.83-2.02Z"/>
  <path class="cls-1" d="M339.23,379.21c-2.37-.28-4.78.03-7.09-1.02-.32,1.93-.27,1.97,5.4,3.98,2.04-2.67,2.05-2.69,1.69-2.96Z"/>
  <path class="cls-1" d="M365.88,194.94c-.95-.21-2.17-.02-2.84-.56-1.95-1.56-2.84-.32-3.95,1.25.53.32.9.73,1.27.73,1.87.03,3.82-.55,5.45.9.5-.58.99-1.16,1.49-1.74-.47-.2-.93-.47-1.42-.58Z"/>
  <path class="cls-1" d="M105.46,383.95c.12-.18-.34-1.1-.54-1.09-.96.01-1.97.06-2.85.39-1.13.42-2.15,1.13-3.29,1.75-.34-.42-.68-.84-1.19-1.45-.44,2.08-.48,2.33.93,2.66.92.22,2.75-.05,2.91-.53.59-1.79,1.36-1.91,2.82-1.07.23.13.97-.31,1.21-.67Z"/>
  <path class="cls-1" d="M121.18,365.94c.75-.27,1.66-1.16,1.75-1.87.07-.54-.92-1.56-1.63-1.79-1.64-.54-2.59.68-3.64,1.98,1.1.91,1.95,2.25,3.52,1.68Z"/>
  <path class="cls-1" d="M374.72,359.75c-.35,1.57,1.11,2.29,4.22,2.16.29-2.38-.28-3.37-2.13-3.32-.74.02-1.97.62-2.09,1.15Z"/>
  <path class="cls-1" d="M236.12,125.16c.36-1.69,1.25-2.58,3.09-2.58.5,0,.99-.75,1.48-1.15-.09-.16-.17-.31-.26-.47-1.23.1-2.49.07-3.69.32-2.67.56-3.1,2.11-1.19,4.27.19-.12.53-.22.56-.39Z"/>
  <path class="cls-1" d="M122.99,369.36c-.04-.05-.61.16-.72.36-.85,1.53-1.65,3.08-2.66,4.99,3.45-.26,4.6-1.5,4.23-4.04-.07-.48-.52-.92-.85-1.32Z"/>
  <path class="cls-1" d="M365.06,377.92c-.52.01-1.42.89-1.43,1.38,0,.52.94,1.57,1.3,1.5,1.61-.31,3.17-.94,4.74-1.45-.04-.32-.07-.64-.11-.96-1.5-.18-3-.51-4.5-.48Z"/>
  <path class="cls-1" d="M308.52,394.01c-.77,1.13-1.3,1.37-2.27.3-.22-.24-.86-.09-1.3-.12.02.46-.03,1.3.06,1.31,1.6.26,3.21.51,4.82.5.29,0,.58-1.16.93-1.93h1.04c-1.13-.87-2.39-1.36-3.28-.06Z"/>
  <path class="cls-1" d="M374.85,378.71c-.6.57-1.09,1.04-1.58,1.5.46.43.91.85,1.43,1.33.95-2.3,1.74-4.22,2.57-6.22-2.17.39-2.87,1.58-2.42,3.39Z"/>
  <path class="cls-1" d="M215.16,129.16c-1.87.63-3.42,1.16-5.17,1.75,2.62,2.29,3.82,1.86,5.17-1.75Z"/>
  <path class="cls-1" d="M355.74,375.8c-.36.44-.42,1.73-.1,2,1.7,1.41,1.89-.92,2.99-1.21-.83-1.21-1.68-2.27-2.89-.79Z"/>
  <path class="cls-1" d="M219.4,128.63c-1.76-1.59.13-1.85.83-2.68-.77,0-1.44-.16-1.98.04-.71.27-1.3.83-1.95,1.26.62.52,1.21,1.08,1.88,1.53.19.13.6-.07,1.22-.16Z"/>
  <path class="cls-1" d="M308.94,390q-2.65-1.71-3.63-1.36c-.12.21-.24.42-.36.62.75.51,1.45,1.15,2.28,1.46.38.14,1-.4,1.72-.72Z"/>
  <path class="cls-1" d="M365.04,370.46c-.29.85-.59,1.69-.88,2.54.29.17.59.34.88.51.57-.65,1.15-1.31,1.72-1.96-.57-.36-1.15-.72-1.72-1.09Z"/>
  <path class="cls-1" d="M315.5,387.68c.15.4.31.81.52,1.37h-1.65c.07.7.13,1.28.19,1.86.26.11.52.22.79.33.51-.85,1.13-1.65,1.47-2.56.11-.29-.54-.86-.84-1.3-.16.1-.32.2-.47.3Z"/>
  <path class="cls-1" d="M368.52,371.76c-.13,1.6,1.18,2.36,2.11,3.66.98-2.5-.89-2.86-2.11-3.66Z"/>
  <path class="cls-1" d="M363.78,285.45c.87-.43,1.79-.79,2.58-1.33.33-.22.41-.83.6-1.26-.21-.16-.42-.32-.62-.48-.98.79-1.97,1.57-2.95,2.36.13.23.26.47.39.7Z"/>
  <path class="cls-1" d="M238.7,125.9c.23-.14-.15-1.26-.31-2.37-1.09,1.36-1.84,2.29-2.85,3.56,1.23-.43,2.29-.65,3.16-1.19Z"/>
  <path class="cls-1" d="M233.47,125.1c-1.61.35-3.22.69-4.83,1.04.04.17.07.34.11.51,1.53-.83,3.6,1.18,4.72-1.55Z"/>
  <path class="cls-1" d="M68.13,382.03c.34.51.85.94,1.36,1.29.06.04.56-.57,1.13-1.17-.76-.49-1.23-.89-1.78-1.08-.13-.04-.79.83-.71.95Z"/>
  <path class="cls-1" d="M320.5,377.48h3.45c-.73-.82-1.24-1.38-1.82-2.03-.43.54-.81,1.01-1.63,2.03Z"/>
  <path class="cls-1" d="M367.95,248.06c.38.57.94,1.01,1.43,1.5.24-.21.48-.42.72-.62-.46-.64-.92-1.28-1.38-1.92-.27.36-.85.92-.77,1.05Z"/>
  <path class="cls-1" d="M103.46,389.12c.3.95.51,1.6.76,2.39.68-.23,1.4-.47,2.12-.71-.04-.16-.09-.33-.13-.49-.86-.37-1.71-.74-2.75-1.19Z"/>
  <path class="cls-1" d="M345.53,377.31c.67-.88,1.17-1.54,1.86-2.46-1.02-.14-1.7-.23-2.68-.36.29.99.51,1.76.82,2.82Z"/>
  <path class="cls-1" d="M118.45,361.94c0-.7-.08-1.41-.14-2.11-.35.06-.71.12-1.06.18l.45,2.2c.26-.09.75-.17.75-.27Z"/>
  <path class="cls-1" d="M303.39,388.01c-.23.06-.47.12-.7.18.26.97.52,1.93.79,2.9.18-.03.35-.07.53-.1.45-1.16.33-2.18-.61-2.98Z"/>
  <path class="cls-1" d="M246.33,375.94c.5.94,1,1.87,1.5,2.81.25-.16.51-.33.76-.49-.52-.9-1.04-1.8-1.56-2.7-.23.13-.46.26-.7.38Z"/>
  <path class="cls-1" d="M18.14,293.48c.11,0,.32-.56.23-.76-.08-.2-.48-.4-.72-.37-.83.07-1.66.24-2.49.38-.02.26-.03.53-.05.79,1.01,0,2.02.02,3.02-.04Z"/>
</svg>