<?xml version="1.0" encoding="UTF-8"?>
<svg id="Layer_1" data-name="Layer 1" xmlns="http://www.w3.org/2000/svg" viewBox="0 0 411.6 500">
  <defs>
    <style>
      .cls-1 {
        fill: #ed2190;
        stroke-width: 0px;
      }
    </style>
  </defs>
  <path class="cls-1" d="M383.67,425.79c.59.04,1.19.05,1.76.14.37.06.69.25,1.03.39-.24.19-.46.4-.74.56-.16.09-.43.1-.65.09-1.25-.06-3.22-.52-3.61-.14-.93.9-2.03.75-3.15.96-.64.12-1.16.63-1.68.99-.44.31-.84.97-1.21.95-1.06-.06-2.4-.16-3.07-.64-1.05-.75-1.02-1.82.25-2.99-.77-.16-1.7-.54-1.97-.37-.63.39-.93.95-.29,1.67.81.92,1.29,2,1.86,3.02.09.17,0,.52-.16.6-.22.1-.63.05-.92-.02-.73-.19-1.41-.5-2.15-.61-.52-.08-1.11.11-1.78.19.4,1.44,4.73,1.89,1.56,3.89-1.72-.91-3.51-1.35-5.67.28.45-.97-1.04-1.53.23-2.2.05-.03-.52-.62-.76-.96-.28-.39-.52-.8-.77-1.21.69-.17,1.4-.48,2.07-.45.31.02.7.7.78,1.12.37,1.78,1.34,2.5,3.56,1.65-.15-.94-4.65-1.12-.7-2.89-1.24-.5-2.31-.95-3.4-1.38-1.02-.4-2.06-.79-3.26-1.26-.1.11-.38.39-.59.69-.22.31-.38.65-.5.84-1.9-.07-3.63-.12-5.37-.21-.54-.03-1.05-.24-1.58-.32-.66-.1-1.34-.17-2-.25-.05.12-.1.24-.15.35-.51-.28-1.03-.57-1.63-.9-.26.79-.49,1.5-.77,2.34.95.68,1.1.64,1.8-.82.54.75.98,1.34,1.46,2-.95-.07-1.75-.12-2.54-.18-.04.07-.08.14-.13.21.27.14.53.29.8.43.38.2.76.41,1.13.61-.44.09-.88.17-1.31.29-.58.16-1.14.35-1.61.67,2.46-.2,3.73.39,4.48,2.07.37.83,1.19.77,2.33.34-.66-.18-1.08-.3-1.51-.42,0-.13-.01-.27-.02-.4.75-.02,1.5-.03,2.25-.05,0,.31.17.69-.02.92-.57.67-1.38,1.26-2.59.82-.78-.28-1.39-.79-2.11-1.16-1.09-.56-2.22-1.1-3.66-.57-.12-.66-.24-1.29-.34-1.81-2.03.44-3.69-.4-5.79-.47.38.28.69.7,1.14.8,1.29.28,1.07.72.68,1.44-.41.74-.59,1.58-.61,2.38,0,.31.68.64,1.06.95.14.12.36.19.48.31.47.49,0,2.5-.67,2.85-.65.35-2.49-.3-2.98-1.09-.6-.98-1.12-1.98-1.59-2.81-1.42-.07-2.79-.14-4.16-.21-.04.46,1.73.99-.08,1.51.15.44.32.94.49,1.43.12-.08.23-.16.35-.24.65.35,1.46.61,1.91,1.06.49.5.65,1.18.97,1.81,1.74-.97,2.92-.66,3.59.75-1.12.07-2.28.22-3.42.16-.43-.02-.85-.51-1.21-.83-.54-.48-.75-1.31-2.5-.84.88.72,1.62,1.31,2.52,2.04-.67.09-1.17.19-1.69.22-1.17.08-2.14.29-2.58,1.2-.12.25-.62.4-.94.59-.17-.25-.3-.51-.51-.74-.28-.31-.53-.76-.94-.87-1.14-.32-2.36-.49-3.55-.72-.1.1-.19.2-.29.3.95.46,1.9.92,2.82,1.37v3.64c-.16.08-.33.16-.49.24-.8-.4-1.76-.71-2.36-1.23-.68-.58-.95-1.39-1.54-2.04-.54-.59-1.19-1.15-1.94-1.59-.26-.15-1.04.01-1.48.17-.43.15-.75.48-1.27.83,1.18.64,2.46,1.33,3.35,1.81-.16.64-.26,1.02-.35,1.4h.02c-1.7-.46-3.4-.92-5.11-1.37-.65-.17-1.31-.48-1.97-.48-.74,0-1.57.2-2.18.49-.16.08.31.83.52,1.33-1.5.78-2.3-.77-3.82-.82.35.56.62.99.89,1.42-.09.06-.18.13-.27.19-.27-.12-.64-.19-.79-.36-.9-.99-.25-2.67,1.32-2.82,1.67-.16,2.38-1.06,3.44-1.68.38-.22.42-.74.66-1.21.43.15.79.29,1.15.42.73-.48,1.44-.95,2.23-1.47-.68-.39-1.3-.74-1.95-1.11-.81,1.2-2.18,1.67-3.82,1.89-.32-.49-.49-.92-.85-1.26-.5-.47-1.38-.69-1.73-.03-.69,1.3-2.12,1.61-3.76,1.83-.47.06-.91.25-1.45.4.18.38.33.69.57,1.19-.66-.27-1.07-.43-1.79-.72-.23.25-.49.55-.75.82-2.19-.63-2.84-.31-3.49,1.23-.49,1.15-1.14,2.3-3.07,2.75-1.18.28-1.76.87-.7,1.72.18.14.39.35.37.51-.08.81-.24,1.62-.39,2.54-1.01-.45-1.96-.74-1.37-1.81.42-.77-1.89-2.21-3.07-2.01-.31.05-.72.23-.91.15-.38-.17-.63-.48-.94-.73.38-.15.78-.46,1.14-.44,2.2.12,2.2.14,2.38-1.46-1.08-.09-2.16-.18-2.88-.23-1.44.67-2.6,1.28-3.86,1.75-.3.11-.97-.27-1.46-.43-1.94-.65-3.6.32-5.39.51-1.57.17-3.09.95-4.69.13-.54-.28-.92-.69-1.42-1.01-.75-.49-1.5-.99-2.33-1.4-.2-.1-.73.15-1.29.4,2.55.22,1.49,1.47,1.57,2.3-1.86.62-3.83,1.19-5.67,1.92-.93.36-1.59,1.05-2.46,1.51-.48.25-1.42.58-1.66.44-1.03-.6-1.95-.64-3.04-.16-.22.1-.64-.02-.66-.03-.69.59-1.29,1.06-1.81,1.56-.29.28-.7.63-.67.93.06.69-.03,1.29-1.16,1.24-.64-.03-1.25-.43-1.82-.78-1.94-.22-2.93.79-4.06,2.02-.34-1.16-.38-2.01.5-2.84,1.22-1.14,2.72-2.2,2.73-3.77,0-.3-.47-.88-.59-.86-1.8.27-2.5-.61-3.24-1.89-.47.78-.74,1.22-.97,1.62-1.03.13-2.03.25-2.57.32.7.7,1.36,1.36,2.07,2.06-1.02.09-1.97.18-2.93.27-.05-.15-.12-.4-.15-.48-1.3.55-2.48,1.24-3.84,1.55-1.1.25-2.59.44-3.26-.74-.58-1.02-.17-1.51,1.37-1.55.49-.01.98,0,1.47,0-.16-1.13-1.16-1.9-2.57-1.9-.93,0-1.36-.09-1.31-.89.03-.45-.59-.92-.79-1.21-.64.09-1.14.27-1.57.21-1.51-.19-2.8-1.57-2.83-2.7-.02-.68-.36-1.36-.59-2.18.5.05,1.03.1,1.82.19-.13-.37-.11-.73-.35-.9-.91-.66-1.87-1.28-2.89-1.85-.15-.08-.8.17-1.06.38-.12.1.04.6.22.64,1.85.47.94,1.85,1.75,2.66.49.5.14.92-.79.95-.48.01-.97,0-1.52,0,.12-.23.24-.48.53-1.06-1.02.16-1.74.28-2.46.39,0,0,.01,0,.01,0-.79-.97-1.59-1.94-2.38-2.91-.36.21-.72.41-1.08.62.43-.18.96-.3,1.25-.56.32-.29.43-.7.46-1.15-.37.3-.73.6-1.22.99-.51-.25-.99-.5-1.49-.73-.9-.41-1.77-.78-2.44.23-.13.19-.65.4-.92.36-.24-.04-.56-.42-.53-.63.09-.8.26-1.59.5-2.37.06-.19.54-.43.83-.44.98-.03,2.05.17,2.17-.91,0-.08.59-.12.9-.19.47-.11.94-.22,1.41-.33-.2-.35-.27-.78-.61-1.04-.84-.63-1.41-1.24-.76-1.83-.39-.47-.69-.77-.89-1.09-.31-.53-.43-1.03-1.63-.66-.67.21-1.66-.03-2.46-.18-.16-.03-.27-.62-.14-.89.16-.33.59-.58,1.07-1.01-1.87-.18-2.66.61-2.8,1.4-.35,1.96,2.03,1.98,4.49,2.41-1.52.94-2.56,1.8-3.86,2.32-.96.39-2.46-.08-3.27.81-.41-.32-.89-.61-1.19-.98-.3-.35-.41-.79-.6-1.18-.54.28-1.17.5-1.59.84-.79.65-1.32,1.5-2.24,2.01-.71.4-1.86.61-2.79.57-2.1-.09-3,.74-3.63,1.95-.21.4-.5.78-.75,1.16,1.33.89,1.06,1.83-1.06,3.22-.09-.53-.09-.94-.24-1.33-.13-.34-.43-.65-.89-1.33-.4.68-.78,1.02-.75,1.33.2,2.09-.23,2.6-2.84,3.51-.63.22-1.13.72-1.52,1.16-.59.68-1.06,1.18-2.47,1.01-.65-.08-1.84.52-2.14,1.01-.37.61-.27,1.48.04,2.14.14.29,1.27.37,1.97.49.3.05.65-.03.95-.06.92,1.5,1.29,1.61,3.67,1.04,1.02-.25,1.51-.05,2.11.64,1.34,1.55,1.2,2.81-.53,4.16-.91.71-.14,1.62,1.25,1.72.22.01.52-.05.64.04,1.17.81,2.23,1.13,3.3-.12.09-.11,1.12,0,1.43.21,1.11.76,1.83.43,2.27-.38.52-.97,1.17-1.42,2.59-.77.18.08.52.03.77-.01,1.75-.35,3.49-.71,5.24-1.07.16-.03.38,0,.48-.06,1.49-.97,2.49-.79,3.25.62,0-.43-.03-.86,0-1.28.03-.33.13-.65.19-.98.5.05,1.03.05,1.5.17.49.13.93.36,1.53.61-.5.27-.91.49-1.39.74.17.3.34.58.67,1.16-1.08.14-2.03.26-2.99.4-.99.15-2.03.22-2.92.52-.29.1-.19.8-.26,1.23.14.04.29.08.43.12-.45.22-.9.43-1.45.7-1.2-1.21-2.6-.38-3.88-.1-2.31.5-4.57,1.12-6.83,1.75-.62.17-1.13.53-1.7.8.46.27.94.53,1.39.81.19.12.33.28.59.5-.76.13-1.36.24-2.04.35-.28-.31-.56-.64-.87-.96-.45-.45-.33-1.35-1.76-1.05-1.34.28-1.98.93-2.28,1.82-.15.46-.31.92-.56,1.66.4-.15.78-.27,1.13-.44.1-.05.05-.24.14-.33.49-.53.99-1.05,1.49-1.58.63.43,1.29.83,1.87,1.28,1.17.91,1.59,2.35,3.9,2.43.88.03,1.47,1.63.87,2.16-.66.59-1.45,1.11-2.52,1.54.45-.58.96-1.14,1.33-1.74.2-.32.34-.96.17-1.03-.54-.22-1.26-.35-1.89-.32-1.45.06-2.9.24-4.35.37.2-.06.43-.1.6-.2.65-.39,1.29-.8,1.92-1.2-.79-.04-1.58-.14-2.36-.1-.42.02-.81.29-1.22.45.36.35.72.69,1.08,1.04-.27.67-.81.68-1.49.3-.41-.23-.82-.46-1.37-.77-.06,1.14.1,1.98,1.49,2.46.27.09.57.5.49.65-.14.24-.56.52-.91.56-1.68.17-3.38.27-5.24.4.08-.37.27-.67.14-.86-.17-.25-.76-.61-.9-.56-1.96.73-3.33.26-4.32-1.11-.12.05-.24.1-.36.15.15.52.31,1.04.51,1.74-1.29.36-2.65.77-4.04,1.11-2.05.5-2.65,1.06-2.7,2.7,0,.15,0,.3,0,.7-.62-.19-1.21-.23-1.44-.46-.73-.74-1.31-1.55-1.95-2.33-.19.03-.37.07-.56.1.41-.39.82-.77,1.25-1.18-2.4-.54-4.17-.27-4.94.82-.21.29.07.76.15,1.31.77-.35,1.15-.52,1.72-.77-.6,1.37-1.12,2.57-1.73,3.96-.47-.41-.87-.76-1.28-1.11-.13.04-.26.08-.38.12.28.56-.85,1.43,1.11,1.65.2.02.29.53.43.81-.15.07-.31.14-.46.21-.62-.35-1.24-.7-1.89-1.07,0,.32.12.7-.04.99-.11.2-.84.46-.9.41-2.23-1.63-4.51-.57-6.78-.11-.1.02-.22,0-.33-.02-1.24-1.71-1.59-1.73-3.25-.47.36.95.81,1.72.91,2.5.11.9-.7,1.08-1.77.75-.31-.09-.58-.24-.88-.34-2.3-.8-4.59-.03-5.26,1.75-.24.64-.48,1.29-.72,1.93-.15.01-.3.03-.46.04-.09-.3-.34-.63-.23-.89.33-.79-.2-1.13-1.15-1.25-1.26-.16-2.52-.26-3.9-.39.03.18.12.34.06.47-.13.26-.34.49-.52.73-.27-.2-.71-.37-.79-.61-.51-1.41-.8-1.43-2.71-.87-.88.26-2.03.04-3.05.04,0-.13,0-.27,0-.4.24-.06.53-.08.71-.19.42-.24.78-.53,1.17-.8-.56-.26-1.18-.78-1.68-.73-1.39.15-2.73.53-4.13.94,1.25.06,1.67.42,1.22,1.22-.21.38-.69.98-.51,1.13.62.49,1.48.82,2.26,1.2.51.24,1.04.46,1.59.7-1.56.1-2.78.23-3.99.22-.49,0-1.09-.21-1.44-.47-1.7-1.28-2.54-1.32-4.6-.04.28.18.52.38.82.51.98.46.59,1.04.05,1.4-.33.22-1.37.3-1.64.12-.97-.67-1.78-.66-2.78-.09-.37.21-.91.32-1.39.38-1.88.24-2.93.94-3.59,2.29-.31.64-1.8,1.26-2.87,1.38-1.88.22-3.85.01-5.77.08-.61.02-1.2.36-2.02.62-.41-.29-.83-.68-.11-1.33.24-.22.3-.87.2-.9-.62-.19-1.34-.36-1.98-.31-.35.03-.67.49-.92.79-.49.61-.84,1.29-1.4,1.86-.15.15-1.06.17-1.27,0-1.39-1.04-3.05-.52-4.59-.43-1.79.11-3.56.39-4.79.53-1.18.89-1.99,2.06-3.05,2.19-1.89.22-3.47.59-4.9,1.49-.21.13-.97-.18-1.39-.27.92-.95,1.68-1.74,2.66-2.76-2.44.11-4.25.16-6.05.3-.31.03-.81.48-.79.72.05.79.3,1.58.48,2.39-.3.03-.93.02-1.44.19-1.38.45-2.43.06-3.2-.68-.71-.69-1.48-.73-2.47-.47-.67.17-1.36.35-2.06.38-1.25.05-1.22.51-.83,1.12.27.41.6.8.91,1.19-.08.11-.15.22-.23.33-1.66-.14-3.39-.13-4.97-.47-1.01-.22-1.65-.18-2.42.24-1.91,1.06-3.83,1.02-5.66-.11-.82-.51-1.58-1.34-2.03.24-.07.24-1.86.6-2.22.38-1.54-.93-3.3-.49-4.74-.34-2.29.24-4.36.11-6.68-.55.58-.22,1.05-.39,1.57-.59-.89-.6-1.77-1.18-2.69-1.79-2.52.31-3.61.08-4.16-.68.8-.55,1.51-1.04,2.21-1.53.1-.07.2-.14.29-.21.61-.3,1.3-.55,1.8-.92,1.08-.81,1.95-1.65,3.91-1.36,1.34.19,2.81-.02,4.21-.14.28-.02.73-.47.68-.68-.06-.26-.52-.64-.86-.67-2.84-.23-5.39-1.03-7.64-2.19-1.07-.55-1.85-1.52-2.41-2.41-.71-1.13-1.75-1.9-3.38-2.38-.43.43-.87.87-1.31,1.31-.21-.06-.41-.11-.62-.17.47-1.41.92-2.83,1.47-4.23.06-.15.7-.18,1.07-.27-.02.29-.02.58-.08.87-.09.38-.24.76-.36,1.14.68.09,1.51.39,2,.21.56-.2.83-.83,1.03-1.36.78-.89,1.56-1.77,2.43-2.77h-2.94c.12-.56.22-1.02.35-1.63.85.29,1.45.66,2.03.64.77-.02,1.84-.19,2.19-.58.36-.39.18-1.13-.95-1.36-.6-.12-1.1-.5-1.7-.79-.24.29-.47.57-.71.85-.17-.06-.34-.11-.52-.17.52-.79.81-2.06,1.62-2.26,1.33-.33,3,.01,4.51.15.1,0,.32.77.1.99-1.18,1.15.82,1.56,1.08,2.36.03.1,1.16.01,1.88.01-.44.94-.13,1.88,1.54,2.37.42.12.91.15,1.38.18.32.02.78-.14.96-.03,1.65.97,3.35.24,5.01.1,1.13-.1,1.76-.52,2.27-1.33.47-.75,1.61-1.29,2.48-1.9.46-.33,1.04-.57,1.46-.92,1.02-.87,1.98-1.78,3.05-2.76-.92-.61,1.2-2-.71-2.49-1.26-.33-2.76-.19-4.15-.26-.02.16-.04.33-.06.49,1.3.18,2.59.37,4.13.58-.99.91-1.58,1.75-2.53,2.25-.94.49-2.23.62-3.55.96-.21-.08-.62-.22-1-.4-.49-.22-1.29-.45-1.33-.72-.06-.38.31-.95.75-1.18,1.43-.72,2.79-1.39,2.96-2.81.04-.37.72-.68,1.02-1.05.51-.62.95-1.27,1.41-1.91-.22-.09-.44-.18-.66-.27-.23.3-.42.62-.71.89-.44.42-.94.81-1.42,1.21-.4-.31-.78-.63-1.2-.92-.26-.18-.58-.3-.94-.48-.12,1.65-.43,1.48-2.61,1.16-1.84-.27-1.91-1.53-3.23-1.96-.15-.05.02-.78.22-1.14.3-.54.76-1.02,1.04-1.39,1.08-.47,2.27-.75,2.95-1.33.9-.77-.42-1.27-1.03-1.75-.78-.62-1.58-.32-2.32.14-.74.46-1.52.89-2.61,1.52-.32.48-.95,1.28-1.39,2.12-.24.45-.31,1.01-.18,1.48.18.66.2,1.38-.79,1.43-.82.04-2.04-.28-2.48-.74-.55-.57-.59-1.44-.62-2.18-.02-.37.38-.81.77-1.11.57-.44,1.25-.82,1.95-1.14.3-.14.79-.07,1.27-.09-.33-.59-.73-.84-1.82-.62-1.53.31-2.34-.23-2.17-1.37.37.06.71.12,1.06.17.37.05.74.1,1.49.19-.78-1.79-1.49-3.4-2.28-5.22.73-.1,1.43-.19,2.14-.29h-.02c-.3.22-.81.44-.86.69-.06.38.13.81.39,1.16.07.09.76,0,1.13-.08.3-.07.54-.27.81-.42,1.53-.84,1.72-.79,2.27.56.51,1.25,1.48,1.49,2.69.71-.48-.3-.97-.59-1.46-.89.71-.2,1.42-.4,2.38-.67-.11-.5-.27-1.2-.43-1.91-.56.21-1.12.43-2.02.77-2.41-.79-5.6-1.4-6.07-4.19-1.16.02-1.42.55-1.44,1.39-.04,1.49-.7,1.98-2.39,2.21-.61-.44-1.16-.77-1.6-1.17-.22-.2-.39-.52-.35-.76.22-1.09-.47-1.95-1-2.92-.66-1.2-.64-2.58-1.11-3.85-.26-.7-.93-1.33-1.45-2.04-1.23.75-1.1.65-.19,1.25.49.32.56,1.07.56,1.62,0,.69-.41,1.38-.4,2.07.02,1-.7,1.23-1.89,1.19-.88-.03-1.76,0-2.78,0-.77-2.09,1.75-3.36,2.76-5.23-1.02-.08-1.84-.14-2.65-.2-.08.04-.17.04-.25,0,.11-.74.23-1.48.36-2.33,1.95-.21,1.06,1.45,2.09,2.05.39-.38.74-.71.84-.81-.13-.78-.23-1.34-.35-2.06-2.5-.57-.61-1.85-.42-2.65-1.74-.63-3.39-1.08-4.81-1.78-1.28-.63-2.26-1.55-3.45-2.28-.5-.31-1.19-.45-2-.75-.06.66.12,1.21-.19,1.46-.42.34-1.19.52-1.86.62-.14.02-.66-.6-.69-.95-.1-1.15,1.04-1.65,2.66-2.12.15.26.35.62.56.99.2-.09.41-.17.61-.26-.05-.26.04-.6-.16-.76-1-.8-.86-1.62-.43-2.55.16-.35-.15-.81-.46-1.21-1,.84-.25,2.55-2.68,2.35-1.5-.13-3.13-1.5-3.07-2.33-.5-.13-1.05-.22-1.52-.41-1.16-.48-.93-1.61.46-2.2.73-.31,1.5-.58,2.2-1.06-1.56-.12-2.88-1.26-4.6-.3-.31.17-1.13-.12-1.77-.2,1.9-1.71,3.64-3.27,5.23-4.7h1.93c-.14-.3-.42-.62-.38-.91.16-1.15.42-2.29.66-3.51.83.13,1.27.29,1.67.25.66-.06,1.47-.11,1.89-.4.26-.18-.07-.8-.18-1.22-.15-.55-.22-1.15-.56-1.64-.64-.91-2.43-.85-3.22.12.52.13,1.01.25,1.97.49-1.2.95-2.16,1.84-3.31,2.58-.89.57-1.97,1.01-3.04,1.41-.54.2-1.56.39-1.81.2-.59-.43-1.14-1.09-1.17-1.67-.03-.68.51-1.37.9-2.27-.32-.26-.99-.69-1.46-1.21-.45-.51-.78-1.09-.97-1.67-.06-.19.61-.71.79-.68,1.79.34,3.34.3,5.2-.23,1.87-.54,3.05-.94,3.02-2.37,0-.11-.1-.22-.19-.39-1.37-.16-1.91.56-2.53,1.2-.95.99-2.57,1.37-4.57,1.01-1.39-.25-1.85-1.07-2.06-1.96-.07-.28-.05-.73.19-.86,1.02-.54.96-.95.15-1.64-1.07-.91-.82-1.72.42-2.56.12-.08.29-.18.3-.28.17-1.95,2.35-1.96,4.24-2.26.21-.03.4-.13.58-.22.07-.04.08-.14.12-.21-.09-.04-.21-.12-.27-.1-.87.22-2.01.72-2.46-.11-.23-.42.52-1.28,1.14-1.72,1.46-1.03,1.54-.97.59-2.31-.88.45-1.73.89-2.9,1.49.12-.85.22-1.44.28-2.03.14-1.25.33-2.5.33-3.75,0-.27-.69-.53-1.03-.81-.44-.37-.84-.77-1.26-1.16h0c.6.07,1.19.13,1.88.2.23-.79.13-1.22-1.18-1.31-2.37-.17-3.85-1.5-2.64-2.28.92-.59,1.15-1.31,1.8-1.91,1.29-1.19,1.21-1.84-.52-2.75-1.16-.61-1-.95.25-1.26.9-.22,1.04-.57.58-1.19-.34-.46-.53-1.01-.61-1.54-.18-1.09-.4-2.08-1.99-2.68-1.03-.39-.99-1.89-.11-2.75.03-.03.06-.07.11-.09,2.25-1,3.81-2.25,2.78-4.44q1.61.53.95,1.67c1.32.17,2.82-.7,3.11-1.83.2-.77.42-1.54.57-2.31.07-.36-.03-.73-.06-1.1-.45.07-.9.15-1.36.21-.42.05-.84.07-1.26.11-.02-1.14.87-2.32-.39-3.78-.28.6-.54.9-.52,1.19.04.86.2,1.72.31,2.58-1.04,1,.35,1.44,1.01,2.15-.83.36-1.5.91-2.54.14-.25-.18-.98-.03-1.36-.03-.33-.52-.76-1.01-.94-1.55-.12-.36.05-.79.2-1.16.17-.42.47-.8.83-1.4,1.96-.14.78-1.52.98-2.51-.4.37-.75.77-1.2,1.1-.42.3-1.26.81-1.38.74-.72-.41-1.6-.89-1.81-1.46-.22-.58.27-1.3.44-1.93,3.17-.33,5.25-2.84,3.58-4.72-.85-.96-.69-2.35-2.56-3-.65-.23-1.16-1.67-.76-2.16.49-.61,1.98-.81,3.29-1.27q.4-1.53,2.11-2.29c.82.32,1.6.63,2.84,1.12-.41-.72-.71-1.24-1.07-1.88.25-.21.64-.53,1.2-.99-.61-.16-1.05-.26-1.48-.38-.34-.09-.88-.14-.98-.32-.57-1.02-1.17-.65-1.86-.09-.27.22-.61.4-1.12.72-.43-1.35-1.52-1.88-3.12-2.23-.54-.12-.58-1.37-.62-2.11-.54-.5-1.16-.97-1.59-1.52-.17-.22-.05-.75.21-.89.39-.21,1.03-.3,1.53-.25.52.06,1.22.6,1.43.5.64-.3,1.09-.82,1.87-1.47-.73,0-1.04.04-1.31,0-.4-.07-.78-.19-1.16-.29.14-.23.22-.49.42-.69.88-.87.97-1.67-.17-2.48-.27-.2-.24-.6-.37-.97-1.64-.26-3.29-2.48-2.49-3.83.39-.66.21-1.7,2.13-1.75.72-.02,1.45-1.3,2.02-2.07.38-.52.5-1.14.68-1.72.07-.22-.02-.47-.04-.71-.31.14-.75.24-.89.44-.24.35-.18.8-.44,1.14-.21.27-.71.43-1.07.64-.28-.26-.6-.5-.82-.78-.41-.52-.77-1.06-1.11-1.6-.2-.31-.53-.67-.47-.97.27-1.3.67-2.58,1.07-4.04-.37-.06-1.02-.15-1.43-.21-.08-.85-.13-1.63-.22-2.41-.1-.85,2-2.55,3.36-2.63v-2.16c.45-.25,1.07-.59,1.69-.93-.89-.27-1.78-.54-2.47-.75-.67-.92-1.27-1.87-2.05-2.74-.46-.52-.63-.89.04-1.35.23-.16.53-.42.48-.6-.39-1.66,1.17-2.97,1.54-4.5.15-.61.51-1.25,1.01-1.75.96-.96,1.56-1.89,1.2-3.12-.21-.71.9-1.15,1.94-.84.5.15.96.38,1.6.64.08-.3.26-.64.16-.69-.86-.45-.99-1.26-1.48-1.7-1.24-1.11-1.21-2.18-1.02-3.39.03-.21-.08-.44-.15-.76-1.2.42-2.02.76-1.53,1.83.19.41-.08,1.22-.52,1.41-.85.37-2.01.84-2.89-.04.5-.39.98-.76,1.4-1.1-.21-.24-.25-.34-.33-.37-2.19-.79-2.27-.82-1.53-2.66.37-.92,1.04-1.77,1.55-2.61.44.1.9.21,1.36.31.32-.78.64-1.55,1.07-2.59-.8.13-1.04.21-1.28.2-.62-.02-1.51.08-1.77-.16-.38-.34-.48-.96-.38-1.43.28-1.31.81-2.59,1.07-3.9.08-.38-.42-.82-.54-1.03.2-.48.43-.86.5-1.24.08-.46.17-.97,0-1.4-.23-.56-.54-1.31-1.14-1.55-1.7-.69-2.1-1.92-.34-2.5,1.65-.54,2.16-1.48,2.87-2.42.62-.81,1.07-1.68,2.76-1.48.31.04.68-.22,1.04-.66-1.24-.1-2.48-.17-3.7-.33-.4-.05-.99-.28-1.07-.5-.45-1.2-.79-2.42-1.13-3.63-.06-.22-.02-.57.17-.68,2.48-1.44.46-2.75-.1-4.14-.18-.44.07-1.03.32-1.49.15-.29.67-.48,1.32-.9-1.02-.25-1.78-.44-2.55-.63,1.65-1.4,2.34-3.09,1.97-4.76.49-.04.99-.03,1.45-.14.76-.17,1.46-.62,2.26,0,.14.11.85-.02,1.13-.18,1.19-.71,2.32-1.48,3.78-2.42-1.66-.08-2.8-.44-3.82.53-.82.76-1.72.53-2.93-.52-.29.13-.58.26-.87.38-.19-.27-.51-.53-.56-.82-.21-1.08-.34-2.17-.5-3.25,0-.04.03-.1,0-.12-2.47-1.76.51-3.33.38-5.02-.05-.6.59-1.05,1.67-1.05.69,0,1.38-.23,2.08-.34,1.08-.17,2.17-.33,3.48-.53.02-.44-.62-.83-1.59-1-1.39-.25-2.34-.61-1.73-1.87.29-.59.21-1.29-1.12-1.4-.28-.02-.51-.33-.84-.56,1.81-.58,2.49.18,3.44.83.46.31,1.67.06,2.54.06.06,0,.11-.13.17-.2.37-.45.74-.9,1.11-1.35-.96-.26-2.21-.93-2.81-.7-1.72.64-2.43-.03-3.18-.83-1.29.49-2.31,2.59-1.6,3.43.61.72.61,1.41-.05,1.99-.49.43-1.83.99-1.94.91-.78-.58-3.03-.24-2.31-1.81.43-.94.92-1.68,2.58-1.57.14-.65.29-1.39.45-2.12-.66-.03-1.82,0-1.85-.1-.23-.99-.31-2-.33-3,0-.23.4-.46.58-.71.55-.74.17-1.06-.91-1.01.25-1.28-.05-2.88.92-3.73.87-.76.06-2.53,2.49-2.41-.07.38-.14.73-.2,1,1.06-.38,2.02-.67,2.89-1.07.42-.19,1.02-.71.92-.85-.42-.58-1.01-1.11-1.67-1.56-.32-.22-.92-.22-1.46-.33-.17.32-.29.62-.49.9-.73.98-1.56,1.01-2.47.11-.3-.29-.6-.57-.87-.88-.31-.35-.58-.71-.87-1.06.59-.05,1.18-.09,1.97-.15-.47-1.13.14-2.54-1.65-3.52-1.64-.9-.88-2.06-.58-3.35.53.34.91.59,1.28.83.9-1.13.61-1.94-1.07-3.18-.32-.23-.51-.55-.77-.82.43-.07.98-.04,1.28-.22.81-.5,1.83-1.01,2.18-1.67.41-.78.69-1.42,1.76-1.93,1.61-.77,1.92-2.08.88-2.83-.32-.23-.84-.43-1.26-.42-.23,0-.52.46-.64.74-.48,1.21-1.96,2.24-1.3,3.67.06.13-.31.37-.76.56.17-1.81-2.23-3.15-1.09-5.25.69-1.28-.05-2.95-.14-4.44,0-.15,0-.29,0-.44.15-.04.29-.08.44-.13.56.92,1.12,1.84,1.54,2.52-.24.65-.76,1.29-.51,1.54.91.88,2.17.76,3.54.2-.61-1.23-1.22-2.45-1.82-3.66l-.41.04c.26-.28.52-.57.89-.96-.81.04-1.59.23-2.17.06-.87-.24-2.33-.82-2.26-1.1.2-.84.76-1.85,1.66-2.35,1.38-.76,1.62-.75.61-1.65-.39.38-.76.74-1.38,1.36-.25-.6-.43-.97-.55-1.35-.15-.46-.12-.98-.42-1.37-.5-.66-.57-1.16.05-1.85.37-.41.07-1.13.45-1.88.47.54.94,1.08,1.4,1.6,1.36-1.04,1.11-1.71-.79-2.08-.36-.07-.9-.32-.92-.51-.23-2.24-.37-4.48-.54-6.79,1.25.16,3.55-.68,3.7-1.19.26-.9.07-1.69-1.42-1.96-1.98-.35-2.81-1.67-3.87-2.64-.62-.56-.06-1.8.04-2.73.08-.81.32-1.61.38-2.41.18-2.15-.89-4.34.41-6.57.94.13,1.85.25,2.89.4.62-.96.31-1.78-.7-2.54-.57-.42-1.19-.83-1.64-1.31-1.18-1.28-.05-3.21,2.05-3.44.53-.06,1.14.31,2.05.58.11-.37.45-1.07.32-1.12-.85-.31-1.8-.47-2.96-.74-.27-.52-.79-1.34-1.13-2.2-.23-.6-.53-1.34-.23-1.85.48-.84.35-1.55.07-2.37-.1-.31.52-.91,1.03-1.12.77-.33.93-.58.71-1.22-.54-1.58-.91-3.19-1.29-4.8-.06-.24.21-.52.35-.77.39-.75,1.23-1.5-.05-2.25-.14-.08-.07-.36-.07-.55,0-2.12.01-4.24.01-6.35,0-.24-.23-.57-.09-.69,2.04-1.73-.05-3.33-.28-4.98-.02-.12,0-.23,0-.66,1.29-.12,2.61-.25,4.17-.39-.08-.22-.08-.82-.4-.92-.54-.18-1.28-.05-2.12-.05-.15-.43-.25-.98-.53-1.48-.35-.61-.9-1.16-1.28-1.77-.38-.61-.78-1.24-.95-1.89-.23-.87-.17-1.79-.41-2.66-.18-.67-.37-1.22.68-1.63.97-.38.76-1.06.14-1.39-1.67-.89-.78-1.99-.72-3.02.04-.65.13-1.3.21-1.95-.15-.03-.3-.07-.45-.1.41-.23.81-.47,1.26-.72-.29-.6-.45-1.24-.89-1.77-.66-.8-.34-1.51-.19-2.35.15-.87-.53-1.87-1.09-2.73-.46-.69-.5-1.18.36-1.66,1.06-.6,1.16-1.34.76-2.24-.46-1.04-.51-2.07.05-3.19.56-1.14.88-2.35-.06-3.65-1.11-1.53-.24-3.13.6-4.64.25-.45.39-.94.49-1.42.26-1.2.12-2.5.75-3.58,1.59-2.73,3.52-5.35,5.31-8.02.73-1.09,1.15-2.26,2.67-3.06.59-.31.58-1.21.86-1.89.1,0,.31-.06.41,0,2.08.98,2.96.81,3.83-.85.48-.93.67-1.93,2.22-2.37.25-.07.24-.69.26-1.06.02-.31-.08-.62-.18-1.19,1.48.66,2.45,1.12,3.79.17.59-.41,2.56.04,2.86-.91.21-.67-.52-1.49-.79-2.26-.08-.22-.01-.46-.01-.77,1.26.12,2.49.88,3.56-.16.55-.53.9-.89.11-1.52-1.36-1.1-1.22-2.68.24-3.3.58-.25,1.43-.18,2.52-.29-.14-.36-.29-.94-.6-1.46-.66-1.1-.49-1.33,1.1-1.61.44-.08,1.11-.46,1.1-.69-.04-1.09-.27-2.18-.47-3.27-.07-.38-.45-.78-.36-1.12.45-1.61.48-3.25,1.37-4.83.65-1.15.52-2.53.72-3.81.05-.31-.16-.71.04-.92,1.23-1.26,1.01-2.4-.18-3.62-.68-.69-.11-1.17,1.39-1.32,2.38-.24,2.36-.24,2.14-2-.03-.21.35-.63.6-.66,1.97-.22,3.96-.43,5.95-.5,1.94-.07,3.62-.48,5.34-1.12,2.36-.88,4.92-1.5,7.38-2.24,1.94-.59,3.85-1.21,5.79-1.8,2.43-.74,4.85-1.49,7.3-2.19,2.59-.75,5.22-1.45,7.82-2.19,3.18-.91,6.3-1.94,9.54-2.74,2.57-.63,5.17-1.42,8.03-.98.3.05.66-.04.98-.11,3.36-.71,4.15-.6,6.51,1.64,2.32,2.2,3.83,4.7,4.57,7.46.79,2.96,1.84,5.88,2.79,8.81.52,1.62,1.2,3.22,1.56,4.86.61,2.76,1.06,5.54,1.51,8.31.36,2.22.72,4.45.91,6.68.17,1.93.13,3.86.14,5.79.01,1.46.15,2.94-.1,4.38-.27,1.59-.91,3.15-1.37,4.72-.17.57-.29,1.15-.44,1.73-.27,1.01-.55,2.01-.82,3.02-.24.93-.41,1.86-.71,2.78-.38,1.19-.7,2.41-1.33,3.54-.81,1.45-1.97,2.8-2.85,4.23-.69,1.12-1.1,2.33-1.77,3.46-.53.89-1.28,1.7-1.89,2.57-.47.67-.74,1.43-1.34,2.02-1.1,1.07-2.39,2.05-3.59,3.07-1.01.87-2.08,1.73-2.95,2.67-.42.46-.66,1.11-.62,1.66.18,2.69.48,5.38.72,8.07.14,1.62.18,3.24.38,4.85.26,2.04.78,4.08.94,6.12.36,4.74.53,9.49.83,14.24.12,1.9.46,3.79.54,5.69.11,2.6.1,5.21.08,7.82-.03,2.69-.06,5.38-.22,8.06-.19,3.17-.59,6.32-.78,9.49-.17,2.85-.21,5.7-.23,8.55-.01,1.98.06,3.96.18,5.94.15,2.45.36,4.91.6,7.36.21,2.16.49,4.32.75,6.48.22,1.85.45,3.71.65,5.56.17,1.58.25,3.17.46,4.75.35,2.64.87,5.27,1.15,7.91.31,2.9.41,5.8.65,8.7.22,2.63.59,5.26.75,7.89.24,3.92.71,7.85.33,11.74-.14,1.43.96,2.63.44,4.09-.47,1.31.05,2.8.1,4.21.02.5-.08,1.01-.1,1.51-.02.71-.02,1.41-.02,2.12,0,.86-.07,1.72.01,2.58.12,1.25.59,2.5.51,3.73-.17,2.49.73,4.97-.16,7.48-.35,1,.25,2.16.37,3.25.1.98.13,1.96.2,2.95.11,1.74.21,3.48.34,5.22.13,1.73.51,3.46.39,5.17-.16,2.2.55,4.32.74,6.47.24,2.64.3,5.3.46,7.94.13,2.25.29,4.5.44,6.75.29,4.25.57,8.49.86,12.74.16,2.3.36,4.6.44,6.9.03.77-.27,1.55-.43,2.39.2,1.1.5,2.33.63,3.56.26,2.45.5,4.91.63,7.37.09,1.62-.05,3.25-.05,4.87,0,.67.1,1.34.14,2.01.05.9.1,1.81.11,2.71.04,2.17.07,4.35.08,6.52,0,.83-.09,1.66-.09,2.49-.01,2.31-.04,4.61.02,6.92.06,2.29.19,4.58.34,6.87.2,3.13.48,6.26.65,9.39.16,2.98.17,5.97.36,8.96.06.89.47,1.77.74,2.66.07.23.36.5.28.67-1.08,2.17.36,4.29.18,6.43-.01.15-.11.3-.13.36-.71.17-1.31.31-1.91.45,3.09,1.02,2.5,2.98,2.77,4.64.04.22-.67.69-1.1.74-1.14.12-1.4.54-1.2,1.24.32,1.1.68,2.13,2.43,2.64,1.14.33,1.4,1.06.62,1.87-1,1.04-.94,1.89.37,2.7,1.1.68,1.26,1.3.68,2.28-.84,1.42-1.56,2.95.33,4.33.31.23.4.62.64,1-1.1.31-2.04.58-3.15.9-.04-.45.01-.74-.12-.97-.16-.29-.47-.53-.71-.8-.32.25-.89.48-.92.74-.08.62-.05,1.29.2,1.88.31.73,1.11.55,1.72.17,1.26-.79,1.99-.37,3.06.34,1.61,1.07,2.02,2.51,2.89,3.81.65.97.18,1.42-1.32,1.58-.29.03-.79.26-.77.31.11.28.26.68.56.76,2.21.63,2.21,1.79,2.2,3.28,0,.81-.05,1.65-.03,2.48,0,.31.51.65.88.91,1.02.7,1.54,1.99.7,2.7-1.25,1.06-.73,1.99.01,2.95.66.86,1.63,1.62.55,2.68-.22.22.02.68.06,1.17.77-.16,1.43-.34,2.11-.45,1.5-.23,3.01-.44,4.53-.62,1.86-.22,3.74-.35,5.59-.61,2.16-.3,4.3-.7,6.44-1.07.91-.16,1.66-.19,1.93.64.07.21.35.54.56.55,2.29.13,4.41,1.33,6.84.62.24-.07.59-.2.64-.34.41-1.26,1.89-1.33,3.24-1.53,1.34-.2,2.7-.35,4.06-.47.77-.07,1.3.11,1.94.59.56.42,1.86.34,2.47.43.43-.92.64-1.56,1.05-2.13.16-.22.99-.46,1.19-.36.95.48,1.66.28,2.55-.1.42-.18,1.15-.03,1.73,0,1.37.08,2.74.22,4.11.27.41.01,1.03-.1,1.21-.31,1.25-1.39,3.32-1.47,5.25-1.76,2.76-.42,5.51-.88,8.3-1.15,1.49-.14,3.07.2,4.57.1,1.63-.11,3.23-.49,4.84-.75.05,0,.1-.04.14-.07,3.14-2.52,7.74-2.78,11.78-3.92,1.18-.33,2.28-.81,3.42-1.21.78-.27,1.57-.54,2.44-.84.71,1.11-.28,2.58,2.04,3.07,1.75.37,3.17.22,4.53-.61.12.07.25.14.37.21-.83.89-1.65,1.78-2.56,2.76.83.31,1.55.58,2.42.9.99-.88,1.98-1.75,1.47-2.96-.44-1.06-.12-1.68,1.16-2.41,1.45-.82,2.77-1.53,4.72-1.5.42,0,.85-.44,1.28-.67-.46-.26-.88-.58-1.39-.74-.28-.09-.77.21-1.1.15-.68-.11-1.33-.34-1.99-.52.38-.33.76-.67,1.42-1.24.18.63.24.87.32,1.12,1.53-.39,3.07-.64,4.38-1.17,1.89-.76,3.87-.74,5.79-.46.76.11,1.3.96,1.93,1.46q1.8-1.5.25-2.9c.71.03,1.49-.07,1.59.08.42.58.62,1.23.95,1.96,1.28.15,1.75-.19,1.75-1.52,1.8,0,3.4-.29,4.39-1.49,1-1.21,2.66-1.07,4.15-.87,1.5.2,2.84.34,4.35-.09,1.38-.4,2.8.82,2.64,2.21.35.04.73.15,1.07.11.6-.07,1.19-.23,1.78-.35-.47-.26-.96-.49-1.39-.78-.31-.21-.77-.49-.77-.73.05-1.59,1.5-2.08,3.73-2.16,2.3-.08,4.81.75,6.98-.65.86-.55,2.14-.57,3.16.22.25.2.93.17,1.41.15.64-.03,1.27-.12,1.89-.23.47-.09,1.19-.18,1.3-.4.88-1.7,2.83-1.07,4.32-.92,1.06.11,2.01.79,3,1.23.26.11.5.23.99.46-.08-.46-.12-.73-.2-1.2.77.44,1.35,1.02,1.87,1,.51-.02.97-.66,1.21-.85,0-.93-.09-1.65.04-2.36.05-.27.57-.53.94-.73.7-.37,1.44-.68,2.22-1.04,1.61,1.5,2.83,1.51,6.64.36,1.51-.46,2.83-.53,4.28.07,1.09.45,2.16.44,2.67-.64,1.37,1.34,1.4,1.35,3.73.57-.23-.25-.46-.48-.77-.81,1.03-.08,2.13-.1,1.85.74-.4,1.22.79,2.08.96,3.15.08.51.22,1.02.39,1.79-.18-.08-.02,0,.17.07.71.28,1.45,1.12,2.21.36.6-.6.86-1.48.86-2.23,0-.71-.53-1.43-.83-2.13,1.67-.53,3.33.07,3.87,1.37.1.25.23.49.37.73.06.1,2.22.45,2.42.49.53.09,1.04.22,1.48.32.3,2.66-3.32,2.42-5.17,3.63.53.27.9.46,1.28.65-.31.75-.87,1.2-2.05,1.03-.05,0-.12-.02-.17,0-.68.25-1.35.5-2.02.76.71.32,1.37.75,2.15.92.71.16,1.55.03,2.47.03.04-.67.1-1.51.15-2.34,1.67,1.13,2.73.72,4.19-.2,1.17-.74,1.3-1.57,1.94-2.27.83-.9,1.5-1.53.94-2.56-.21-.39-.52-.75-.63-.89v-2.56c1.21.52,2.45.79,2.91,1.37.26.32-.79,1.17-1.26,1.8.42.51.97,1.17,1.52,1.83-.13.07-.25.14-.38.21.42.03.85.06,1.43.1v2.32h2c.84-1.9,1.62-3.68,2.43-5.44.08-.17.32-.36.55-.42,1.67-.43,3.32-1.03,5.03-1.17,1.68-.13,2.48-.69,3.18-1.86-.87-.04-1.63-.07-2.49-.1-.11-.42-.23-.88-.34-1.29.61-.41,1.16-.79,1.75-1.19,2.43.3,4.62-.29,6.82-1.08.96-.34,2.14-.49,3.22-.5,2.61-.02,5.2.13,7.66-.74.71-.25,1.63-.24,2.46-.26,3.09-.07,3.45-.27,3.1-2.44-.18-1.14.68-1.7,1.86-1.95,1.43-.31,2.97-.34,4.46-.53.73-.1,1.43-.28,2.13-.44.21-.05.41-.23.58-.2,1.36.2,2.46-.23,3.7-.54,1.42-.36,2.99-.63,4.54.43,1.09.75,2.93.94,4.44,1.38.12-.12.25-.23.37-.35-.33-.29-.61-.62-.99-.88-.42-.29-.93-.52-1.39-.77.08-.14.15-.27.23-.41,1.04.19,2.09.38,3.3.61-.19-.52-.33-.92-.54-1.5.61.13,1,.24,1.4.3,1.34.21,2.67.55,4.02.58,1.88.03,3.29.6,4.5,1.52.53.4.96.81.3,1.45-.27.26.1.86.21,1.47-.74.47-1.84,1.11.1,1.86.41-.26.82-.53,1.29-.83v1.61c.66-.18,1.38-.56,1.98-.48.84.11,1.96.44,2.28.92.41.61,1.2,1.57-.48,2.14-.35.12-.54.62-.62.96-.08.37.06.76.1,1.14-.14.06-.28.13-.43.19-.34-.26-.62-.59-1.02-.78-.76-.37-1.56-.78-2.42-.93-.31-.05-.93.57-1.26.96-.16.19.03.53.1,1.12,1.24-1.12,1.99-.6,2.58,0,.58.6,1.4,1.25-.07,1.87-.74.31-1.13.76-.32,1.35.28.21.37.56.67,1.05-.89.11-1.6.21-2.41.31.33,1.42,2.47,1.03,3.69,1.64-.42,1.08-.14,1.96,1.28,2.67.41.2.42.89.46,1.36.03.37-.19.75-.36,1.31-.48-.17-1.23-.28-1.63-.61-1.21-1-3.34-1.52-3.33-3.17,0-.09-.29-.26-.3-.25-1.15.63-1.69-.58-2.95-.44.21.47.4.88.64,1.41-.58-.22-1.08-.42-1.59-.61-.14.12-.28.23-.43.35.72.51,1.45,1.01,2.15,1.54.55.41,1.57.92,1.49,1.28-.18.79-.89.35-1.37-.01-.23-.17-.44-.37-.7-.51-.83-.46-1.69-.9-2.22-1.18-.9.19-1.52.32-2.25.48-.12.64-.26,1.4-.42,2.23-.32-.04-.62-.08-.75-.1-.46.54-.87,1.03-1.36,1.6,1.24.56,2.63,1.19,4.03,1.82-.05.11-.09.22-.14.33-.31.07-.61.14-.98.22.14.23.27.45.58.97-1.16-.67-1.98-1.14-2.73-1.57-.1.74,0,1.29-.27,1.73-.45.76-.21,1.01.81,1.44,1.28.54,2.38,1.39,3.28,2.26.34.32.13,1.17-.25,1.59-.6.65-1.46,1.27-2.4,1.65-.74.3-1.78-.39-2.42-1.45.38.05.66.09,1.39.2-1.19-.99-2.15-1.79-3.1-2.58-.23.57-.62,1.12-.59,1.65.02.39.52.83.95,1.14.8.59,1.7,1.11,2.6,1.69-1.37,1.35-3.9,1.75-4.47,3.42-.35-.69-.71-1.38-1.06-2.07-.25.01-.5.02-.75.04-.18.54-.35,1.07-.5,1.52.9.2,1.61.35,2.33.51ZM13.8,184.76c.87.58,1.73,1.17,2.65,1.71.09.05.83-.28.81-.35-.28-.8-.65-1.58-.97-2.32-.94.32-1.56.54-2.18.76-.59-1.98-2.57-.32-3.73-.95-.16,1.63.49,2.02,2.21,1.55.41-.11.81-.26,1.22-.39ZM16.45,284.77c.57.5,1.33.93,1.65,1.5.5.88,1.46.86,2.45.89.12,0,.25-.11.43-.19-.26-.32-.5-.61-.77-.95.35-.07.55-.12.76-.16.47-.09.96-.14,1.39-.3.09-.03-.07-.43-.12-.65-.5.06-1,.19-1.49.17-.56-.02-1.31-.03-1.62-.27-1.23-.95-1.43-.99-2.69-.04-.28,0-.7.08-.81-.01-.48-.43-.83-.92-1.29-1.36-.45-.42-1-.71-1.52-.04-.57.74-.18,2.15.78,2.27,1.05.12,2.36.2,2.85-.85ZM12.77,233c-.88.47-1.82.89-2.62,1.42-.55.36-1.01.85-1.26,1.34-.07.14.84.76,1.18.72.77-.1,1.87-.37,2.1-.78.46-.83.42-1.8.58-2.7.52-.13,1.07-.22,1.56-.4.81-.3,1.58-.66,2.62-1.1-.31-.94-1.78-.67-2.94-.67-1.24,0-.9.62-.78,1.19.07.31-.28.66-.44.99ZM336.13,411c-.09.89-.17,1.79-.26,2.68l.48.23c.56-.33,1.66-.88,1.6-.96-.53-.67.05-1.93-1.82-1.94-.53-1.17-1.06-2.35-1.56-3.46-1.15,0-2.03-.03-2.9.02-.32.02-.73.19-.9.38-.5.57-1,1.19-.03,1.79,1.14.7,2.57.75,3.4.23.69.35,1.34.69,1.99,1.02ZM235.71,416.5c-.58.62-1.36,1.19-1.69,1.87-.68,1.39-.58,1.42-2.91.69-.45.82-.92,1.63-1.29,2.45-.05.12.43.52.63.51,1.08-.05,2.16-.17,3.22-.32,1.25-.18,2.17-.63,2.15-1.66-.02-1.18-.08-2.37-.12-3.55,1.36-.22,2.33-1.2,2.05-2.07-1.35.37-2.29.93-2.03,2.08ZM38.7,147.81c-.7-.54-1.68-1.17-2.46-1.92-1.2-1.16-1.71-1.27-3.29-.58.06.55.11,1.01.16,1.48-.27.03-.54.06-.8.09-.27-.77-.55-1.53-.75-2.11-.98.05-1.97.13-2.96.13-1.32,0-1.81.3-1.46,1.3.15.43-.12,1.02-.47,1.42-.64.74-.88,2.78-.31,3.53.14.18,0,.46,0,.7-.29-.04-.65-.03-.86-.14-.28-.16-.45-.42-.66-.63-3.94,1.6-4.12,1.79-2.47,2.85-1.77.61-3.94.51-5.25,1.69-.11.1-.53,0-.81.01-.78.02-1.58-.02-2.33.11-.46.08-.82.43-1.22.66.1.09.21.19.31.28h1.49c.07.55.08,1.07.22,1.56.51,1.71.3,1.92-2.21,1.98-.33,0-.67,0-1,.02-1.33.09-1.49.88-1.36,1.5.13.63.78,1.21,1.27,1.78.02.03.76-.12.93-.3,1.01-1.08,2.19-.86,3.46-.29-.12.6-.23,1.19-.35,1.78.11,0,.22.02.34.03.47-.55.93-1.1,1.4-1.65.13.04.25.08.38.11v2.18c1.08-.74,1.97-1.35,2.88-1.98-1.19-.48-2.24-.84-3.18-1.31-.76-.38-1.09-.86-.14-1.45.59-.37.95-.91,1.48-1.45.26.04.68.09,1.08.15.94-1.22,0-1.57-1.54-1.89.43-.17.86-.33.97-.38.29-.6.52-1.07.76-1.55.59.27,1.26.49,1.74.84.31.22.26.69.53.96.3.29.75.6,1.21.68.24.04.65-.38,1.06-.65-2.8-.84.05-1.75-.69-2.56.22-.08.43-.16.65-.24.99.74,1.97,1.48,2.96,2.22-2.44,1.6-2.2,2.46.99,3.25-.09-.48-.12-.9-.25-1.31-.13-.4-.37-.79-.51-1.07.45-.14.97-.22.96-.3-.01-.51.08-1.13-.27-1.52-.69-.77-1.04-1.4-.19-2.23.65-.64,1.05-1.4,1.67-2.06.65-.68,2.28-1.12.8-2.22-.22-.16-.08-.58-.14-1.31,1.3.39,2.26.66,3.18.97.86.28,1.61.97,2.68.28.75-.48,1.54-.94,2.38-1.45ZM224.91,423.02c-.72-.49-1.33-1.19-2.19-1.41-1.2-.31-1.67-.53-.85-1.38.16-.17-.09-.53-.15-.8-.35.12-.85.17-1.01.37-1.11,1.34-.97,2.78-.63,4.31-.32.03-.73.07-1.41.13,1.23.91,2.97,1.45,2.11,2.88-.23.38-.39.79-.52,1.2-.14.42-.21.86-.31,1.28,1.05-.03,1.73.03,2.33-.1.4-.09.88-.44.95-.72.12-.49-.04-1.02-.09-1.64-1.75-1.03-1.79-1.19-.26-2.56.55-.49,1.2-.92,2.04-1.56ZM341.3,411.64c.4-.66.84-1.29,1.18-1.94.48-.95.96-1.92,1.31-2.9.28-.77-.33-1.25-1.39-1.26-.81,0-1.66.1-2.42.29-1.32.34-1.72.94-1.07,1.95.47.73.9,1.62.75,2.38-.23,1.14.48,1.39,1.65,1.47ZM129.02,463.15c-.09-.3-.26-.54-.2-.76.2-.7.49-1.38.74-2.07.84.17,1.69.32,2.52.51.41.1.84.44,1.17.39.54-.09,1-.42,1.49-.65-.52-.49-.91-1.17-1.6-1.42-1.01-.38-2.52-.86-3.33-.57-1.67.58-3.85,1.21-3.32,3.12.05.17-.19.38-.19.57,0,.48.08.96.13,1.49.98-.23,1.7-.4,2.58-.61ZM158.5,430.94c-.32-.67-.66-1.2-.82-1.75-.39-1.31-1.5-2.23-3.26-2.37-.92-.07-2.28.41-2.85.96-.69.67-.2,1.43,1.19,1.65.34.05.7.27.93.48,1.26,1.19,2.94,1.26,4.81,1.04ZM13.15,179.24c.45-.04,1.24-.07,2.01-.18,1.09-.16,1.91-.14,2.4.76.19.35.93.56,1.43.83.26-.07.52-.13.79-.2-1.47-.81-1.42-1.39-.02-1.8.1-.03.03-.57-.01-.57-1.08-.09-2.07-.95-3.24-.22-.85.53-1.34.21-1.88-.31-.39-.37-1.16-.97-1.42-.9-.62.19-1.35.67-1.46,1.11-.24.92-.83.96-1.83.56-.21.78-.4,1.45-.6,2.2,1.33-.44,2.42-.8,3.85-1.28ZM28.46,424.99c2.8.05,4.2-1.44,5.85-2.6.33-.23.42-.69.46-1.05.01-.13-.44-.39-.71-.41-1.33-.1-2.67-.13-3.85-.18-.91,1.1-1.8,2.18-2.74,3.31.3.28.69.65,1,.94ZM13.58,278.38c-.72-.23-1.61-.34-2.08-.71-1.13-.89-.87-2.97.33-3.8.36-.25.81-.43,1.12-.7.35-.31.58-.68.87-1.02-.5-.16-.99-.32-1.49-.48.04.16.09.31.13.47-.72.34-1.46.65-2.14,1.03-.49.27-1.33.76-1.23.94.6,1.12-.06,1.95-.93,2.65.56.14,1.33.16,1.49.39.42.62.86,1.34.79,2-.1.89.48.92,1.35.9.43-.01.86-.04,1.26-.06.21-.62.4-1.21.53-1.6ZM31.93,428.4l-.17-.54c-1,.1-2.08.09-2.98.36-.38.12-.74,1.11-.52,1.26,1.6,1.04,1.45,2.19.81,3.47-.13.25.1.76.4.91.28.15.9.05,1.32-.06.6-.15,1.15-.41,1.56-.56-.51-1.44.67-3.2-1.77-4.1.52-.29.94-.52,1.35-.75ZM21.74,359.73c-.04-.08-.08-.15-.13-.23.52.13,1.04.34,1.56.34.2,0,.67-.58.56-.73-.66-.9-1.42-1.76-2.26-2.59-.09-.09-.97.08-1.26.28-.86.6-1.63,1.27-2.41,1.92-.6.5-1.18,1.02-1.77,1.53.14.12.27.23.41.35,1.77-.29,3.54-.59,5.3-.88ZM337.4,426.28c1.21.65,2.68,1.08,3.26,1.85.75,1,1.31,2.02,2.93,2.36.97.21,2.32.49,3.02.18,1.12-.49.04-1.24-.36-1.85-.09-.13-.23-.25-.3-.34-.49.1-1.09.35-1.26.24-.95-.59-2.67-.54-2.89-1.75-.04-.2-.49-.47-.79-.5-1.13-.11-2.27-.13-3.6-.19ZM25.03,390.84c-.33-.95-.61-1.82-.95-2.67-.1-.24-.36-.63-.55-.63-.37,0-.96.16-1.08.37-.35.6-.51,1.26-.75,1.88-.52-.18-1.03-.47-1.59-.53-1.4-.15-2.83-.19-4.62-.29.01-.02-.42.31-.34.56.46,1.43,2.58,1.86,4.31.94.38-.2.89-.47,1.27-.42,1.27.16,2.5.45,4.29.79ZM331.76,438.28c-2.17.07-4.29.14-6.41.2-.22,0-.53,0-.64-.08-.71-.64-1.35-1.32-2.08-1.95-.37-.32-.87-.56-1.31-.84-.22.38-.57.76-.61,1.15-.03.25.33.57.63.77.74.48,1.45,1.06,2.34,1.33,1,.3,2.21.46,3.28.39,1.21-.09,2.18-.42,3.31.42.63.47,2.08.38,3.16.55.03-.1.07-.19.1-.29-.57-.53-1.14-1.05-1.77-1.63ZM104.87,441.72c-.97.11-1.79.03-2.1.27-.62.48-1.33,1.15-1.33,1.74.01,1.04,2.39,2.27,3.83,2.06.66-.1,1.21-.6,1.81-.91-.51-.46-.95-.98-1.57-1.35-.35-.21-.99-.18-1.66-.28.32-.47.53-.78,1.03-1.53ZM152.82,439.21c-.49-.53-1.13-.94-1.27-1.43-.23-.77-.72-1.32-1.77-1.34-1.12-.03-2.35-.06-3.06.86-.19.24-.74.34-1.11.52-.25.12-.47.26-.71.4.23.2.44.55.7.57.51.04,1.05-.09,1.57-.18,1-.16,1.97-.55,2.69.44.86,1.17,1.38,1.17,2.95.16ZM16.08,299.18c-2.14.39-2.56.66-2.08,1.47.45.76.87,1.55,1.5,2.24.27.3,1.15.61,1.52.5.6-.18,1.23-.64,1.42-1.07.24-.55.06-1.2.06-1.67-.83-.5-1.61-.97-2.41-1.46ZM12.86,357.92c.19.01.38.02.57.03.52-.8,1.13-1.58,1.55-2.4.29-.57.35-1.21.45-1.83.04-.27.05-.69-.17-.81-.45-.24-1.15-.52-1.59-.43-1.88.4-2.63,2.98-1.26,3.95.21.15.22.45.29.69.08.26.11.53.16.8ZM167.73,430.65c-.99-.43-4.84-.37-5.62.23-.34.26-.65.8-.5,1.08.55.99,3.94,1.56,5.12.93.2-.11.32-.32.39-.5.22-.56.4-1.13.61-1.74ZM80.38,481.13c.96-.84,1.56-1.66,2.5-2.09,1.01-.47,2.36-.58,3.66-.87-.31-1.11-1.78-1.5-2.6-1.38-1.41.22-2.86.83-3.91,1.56-1.09.76-.29,1.74.34,2.78ZM11.63,308.38c-.8.04-1.35.02-1.86.12-.31.06-.68.25-.8.45-.54.86-.86,1.81-1.52,2.61-.78.95-.56,1.86-.12,2.76.08.17,1.56.25,1.66.11.48-.66.79-1.41.97-2.15.19-.74.01-1.54.27-2.26.19-.54.82-1,1.39-1.64ZM119.11,483.37c-.1-.1-.2-.21-.3-.31-.51.37-1.12.7-1.5,1.14-.29.33-.29.79-.43,1.19.67.04,1.35.12,2.02.12.55,0,1.13-.02,1.65-.14,1.03-.25,2.06-.53,3.01-.89.26-.1.38-.56.31-.82-.03-.13-.62-.26-.97-.27-1.27-.03-2.54-.01-3.81-.01ZM212.37,417.92c-1.64-1.05-2.94-1.14-5.36-.13.5.16.96.21,1.2.4.37.3.91.71.85,1.03-.29,1.47-.2,1.56,1.84,1.34.45-.05.92,0,1.16,0,.11-.9.2-1.66.32-2.63ZM75.4,490.56c-1.51-.72-4.75-.73-5.68-.24-1.08.56-.38,1.18.03,1.67.24.28,1.14.6,1.44.49,1.38-.52,2.65-1.19,4.21-1.92ZM162.56,435.35c-1.83-1.76-3.9-1.89-5.94-1.71-.69.06-1.26.78-1.94,1.24,1.78.29,3.15.6,4.55.71.95.07,1.95-.13,3.33-.25ZM184.52,435.73c-.09.02-.37.05-.6.14-.89.34-2.03.48-1.74,1.57.28,1.06.91,1.53,2.46,1.27.35-.06.78.11,1.15.07.39-.04.98-.15,1.07-.34.11-.21-.16-.58-.38-.82-.56-.6-1.19-1.16-1.96-1.9ZM11.38,249.83c-.18.11-.85.34-1.12.71-.18.25.05.91.37,1.04,1.56.62,3.21,1.12,4.82,1.67-1.18-.87.73-.72.8-1.36-1.41-.59-2.88-1.22-4.87-2.06ZM15.09,271.94c1,.17,2.03.58,2.73.39.75-.2,1.43-.93,1.7-1.53.42-.94-.69-1.32-1.75-1.53-1.2-.24-2.01.56-2.68,2.67ZM15.66,379.71c.93.06,1.58-.23,1.61-1.04.04-.9-1.31-1.95-2.53-1.9-1.64.06-1.46,1.16-1.57,1.8-.2,1.16,1.31,1,2.49,1.14ZM236.72,444.82c-1.83.36-1.68,1.3-1.73,1.87,1.4.37,2.53.7,3.69.95.39.08,1.13.05,1.27-.12.22-.26.2-.72.05-1.03-.23-.49-.66-.94-1.03-1.44-.54.19-1.18.41-1.91.66-.12-.3-.22-.55-.35-.89ZM19,215.06l-.41.45c.82.59,1.65,1.19,2.36,1.69,1.14.25,2.2.52,3.29.72.36.07.78,0,1.17-.02-.07-.28-.01-.62-.22-.83-.49-.47-1.1-.87-1.53-1.2-.61.05-1.12.2-1.51.11-1.07-.25-2.09-.61-3.14-.93ZM145.87,480.65c-.08-.12-.16-.24-.24-.36-.7-.08-1.41-.24-2.1-.21-1.4.07-2.96-.04-3.8,1.06-.42.55-.4,1.13.66,1.06,1.33-.08,2.67-.33,3.95-.64.59-.14,1.02-.6,1.52-.92ZM13.26,306.14c-.27,1.36-.15,1.52,1.39,1.93,1.46.39,3.12.55,3.96,1.69.05.07.37.04.56.05-1.61-1.55-2.11-3.92-5.91-3.67ZM87.15,451.62c1.03.84,1.78.89,2.59.39,1.55-.95,1.65-2.38,2.24-3.64.19-.4-.06-.92-.11-1.38-1.26,1.2-2.53,2.27-2.85,3.48-.22.83-.39,1.18-1.87,1.15ZM68.04,494.19c-.62-.2-.96-.4-1.29-.39-1.58.05-3.17.11-4.73.29-.33.04-.8.62-.75.91.04.25.78.64,1.14.61,1.42-.13,2.82-.37,4.2-.65.46-.09.82-.43,1.43-.77ZM20.82,383.05c1,.43,2.39,1.02,4.06,1.73-.13-1.66-.78-2.25-1.69-1.86-1.04.45-1.38.07-1.79-.46-.18-.24-.34-.53-.63-.66-.74-.33-1.62-.78-2.32-.03-.32.34-.29.85-.41,1.28h2.79ZM22.51,397.37c-1.39-.4-2.18-1.78-3.83-.66-1.07.73-.86,1.97.48,2.9,1.06-.71,2.13-1.42,3.35-2.24ZM310.39,404.48c-.57-.14-1.01-.15-1.2-.31-.84-.72-1.57-1.51-2.44-2.21-.28-.22-.9-.36-1.31-.31-.25.03-.56.48-.57.75-.05,1.55,3.2,2.89,5.52,2.08ZM329.46,410.05c-1.54-.09-2.55-.2-2.34-1.22.03-.15-.35-.45-.59-.48-.23-.03-.66.14-.78.3-.11.15-.04.51.14.61,1.25.68.56,1.41.15,2.13-.16.28-.45.52-.52.61.44.51.98.88,1.01,1.26.03.33-.53.69-.87,1.08,2.13-.04,1.09-1.85,2.55-2.17-.34-.41-.61-.72-.83-.98.67-.36,1.19-.64,2.09-1.13ZM183.86,469.05c-3.04-.49-5.55-.15-7.84,1.15h6.66c.18-.17.62-.6,1.18-1.15ZM14.63,245.83c.32.43.49.91.92,1.16.59.35,1.45.81,2.06.73.64-.09,1.14-.75,1.69-1.17-.47-.28-.94-.54-1.39-.83-.2-.13-.44-.27-.5-.44-.28-.81-.98-.48-1.52-.26-.46.19-.81.51-1.26.81ZM12.41,217.92c1.8-.34,3.48-.66,5.27-.99.26-1.02-.73-2.11-1.71-1.65-1.33.62-3.31.85-3.56,2.65ZM144.37,446.11c-.46,1.38-1.39,2.37.14,3.2,1.34.73,2.36-.09,3.6-.36-1.31-.99-2.37-1.8-3.74-2.83ZM157.93,462.39c-.85.21-2.38.34-2.49,1.66,2.08.44,4.13,1.13,5.53-.6-.94-.33-1.84-.64-3.05-1.06ZM349.06,394.81c-1,.18-1.61.44-2.01.33-2.52-.71-3.95.54-5.73,1.42.71.22,6.63-.48,7.2-.84.24-.15.29-.47.54-.91ZM25.25,403.07c-.79.26-1.87.6-3.33,1.08.68.4,1.08.83,1.52.86,2.25.14,2.25.11,1.57,1.57-.02.04.12.11.27.24.52-.45,1.12-.82,1.45-1.29.18-.26,0-.71-.19-1.02-.25-.41-.67-.77-1.28-1.44ZM104.91,397.91c0,.16,0,.32-.01.48.64-.31,1.57-.52,1.86-.96.65-.97-.51-1.61-1.52-1.73-.87-.1-1.88.41-2.85.65,1.05.65,1.79,1.11,2.53,1.56ZM16.73,278.09c-.37.21-.65.37-.98.56,1.26.81,2.43,1.51,4.46,1.08-1.14-1.15-2.19-2.19-3.29-3.29-.47.27-.8.45-1.16.65.33.35.61.63.96,1ZM23.72,398.23c1.68.35.18,2.59,3.05,2.31-.5-1.39,1.98-2.65-.2-4.39.5,2.02-.94,2.17-2.85,2.08ZM19.01,109.25c-1.66.05-2.32.45-2.35,1.41-.03.85.84,1.36,1.57,1.1.85-.3,1.39-1.12,1.89-1.79.07-.09-.87-.57-1.11-.72ZM10.74,188.19c-.18,1.28-.47,2.36-.44,3.44.03,1.04.63,1.16,1.56.78.07-.71-.12-1.3.2-1.68.83-.99.68-1.64-1.32-2.53ZM13.78,369.18c-.39,1.21-.68,1.94-.82,2.68-.04.19.36.58.63.62.63.11,1.34.16,1.94.04.35-.07.86-.65.76-.76-.7-.83-1.53-1.59-2.52-2.57ZM266.5,405.69c-.33.77-.63,1.47-.92,2.15.97.06,1.76.25,2.44.12.63-.12,1.14-.57,1.7-.88-.36-.3-.64-.68-1.09-.87-.59-.24-1.3-.33-2.13-.53ZM21.18,339.38c-.66-1.99-3.01-2.65-5.31-3.49.38,1.42,3.92,3.67,5.31,3.49ZM30.77,152.15c-.64.92.43,2.2,2.21,2.6.27-.33.45-.71.81-.98,1.09-.8.33-1.05-.67-1.23-.73-.13-1.48-.24-2.36-.39ZM109.23,429.35c-2.63-.17-4.83-.33-7.02-.44-.12,0-.27.28-.41.44,2.48.98,4.81,1.02,7.44,0ZM328.56,441.19c-.32.33-.81.62-.82.92,0,.21.58.53.99.64.83.22,1.71.33,2.31.44.44-.45.97-.85,1.23-1.32.13-.24-.16-.86-.37-.89-1.68-.24-1.68.48-1.5,1.45-.53-.36-1.06-.72-1.84-1.25ZM334.97,414.77c-.29.45-.46.7-.62.95-.17.27-.28.57-.53.79-1.08.92-.87,1.69.68,2.31q1.26-1.13.47-4.05ZM22.38,352.4c-.25-.29-.4-.73-.74-.82-.88-.22-1.87-.46-2.75-.37-.7.08-.74.61,0,.96.55.26,1.03.58,1.59.84.38.17.98.46,1.2.37.34-.15.44-.58.71-.98ZM13.2,265.44c-.28-.02-.55-.03-.83-.05-.27.62-.68,1.24-.77,1.88-.05.34.45.72.7,1.08.54-.32,1.5-.61,1.54-.95.07-.64-.4-1.3-.64-1.96ZM96.14,487.52c-1.53-.25-2.48-.47-3.45-.52-.33-.02-.71.39-1.07.6.91.39,1.78.9,2.77,1.1.33.07.98-.64,1.75-1.19ZM15.22,165.85c-.45,1.27-.14,2.24.69,2.39,1.26.24,2.12-.62,2.46-2.49q-1.97,1.29-3.15.1ZM223.34,415.29c-.08.15-.15.29-.23.44.47.26.98.76,1.4.73,1.36-.11,3.01.02,3.64-1.52-1.7.12-3.26.24-4.81.35ZM180.33,430.26q4.25-.3,4.7-1.42c-2.17-.38-3.83.1-4.7,1.42ZM17.76,171.27c.56.3.88.52,1.26.65.19.06.54,0,.73-.11.12-.06.19-.36.11-.42-.51-.33-1.14-.9-1.61-.85-.8.09-1.72.48-2.19.95-.26.26.3.93.49,1.42.17-.03.33-.05.5-.08.22-.48.44-.97.72-1.57ZM376.18,386.78c.16.67.07,1.28.38,1.41,1.27.51,2.65.87,4.35,1.39-.82-1.77-2.83-1.92-4.73-2.8ZM206.02,422.91c-.61-.64-.75-1.78-2.42-1.19-.55.2-.91.68-1.64,1.25,1.75.12,2.91,1.13,4.06-.06ZM17.87,385.74c-.54-.24-1.04-.46-1.55-.68-1.2,1.63-.9,2.74.82,3.09.24-.8.48-1.59.72-2.41ZM19.16,328.8c.7.21,1.38.26,1.68.52.74.66.8.69,1.77-.28-2.88-.2-2.58-1.92-3.45-3.23v3ZM18.23,401.1l-.74.23c.32.88.58,1.79,1.02,2.64.09.18.85.29,1.27.26.18-.01.52-.55.41-.71-.59-.83-1.3-1.62-1.96-2.42ZM2.3,83.89c.82.6,1.31.95,1.79,1.3.52-.46,1.03-.92,1.55-1.38-.47-.26-.93-.72-1.41-.73-.51,0-1.04.41-1.93.8ZM67.09,466.53c-.21,0-.42,0-.63,0-.37.77-.77,1.53-1.07,2.31-.05.12.34.33.53.5.23-.17.55-.32.67-.53.11-.17,0-.42-.02-.62.7-.06,1.26-.11,2.28-.21-.77-.64-1.26-1.05-1.75-1.46ZM10.37,200.63c0-.83.2-1.55-.08-2.16-.14-.31-1.11-.47-1.74-.61-.18-.04-.66.19-.7.34-.08.27-.06.65.16.84.59.49,1.31.9,2.36,1.59ZM16.43,343.42c.77,1.62,1.58,1.98,3.42,1.59-.5-.66-.99-1.31-1.56-2.06-.58.15-1.22.31-1.86.47ZM61.6,461.23c0-.1.02-.2.02-.3-.63-.16-1.25-.37-1.91-.48-.6-.1-1.5-.27-1.8-.07-.37.26-.24.87-.38,1.58,1.62-.3,2.84-.52,4.06-.74ZM274.83,406.88c-.48.91-.42,1.74.95,2.19.25.08,1.12-.33,1.25-.62.36-.8-.57-1.42-2.2-1.57ZM22.52,423.75l.39.12c.6-.45,1.24-.88,1.77-1.37.17-.16.22-.61.07-.7-.5-.28-1.12-.45-1.69-.67-.18.25-.48.5-.51.76-.08.61-.02,1.23-.02,1.85ZM44.76,444.74c.32.25.59.59,1,.73.38.13,1.27.12,1.29.05.31-.79.49-1.6.77-2.67-1.31.81-2.14,1.33-3.06,1.89ZM334.77,435.68c1.18-.9,2.08-1.6,3.38-2.6-1.03.06-1.81-.05-2.32.17-.97.42-1.56,1.08-1.06,2.42ZM254.55,448.69c.13-.06.25-.12.38-.18.1-.52.4-1.08.24-1.56-.11-.35-.81-.61-1.25-.91-.34.37-1.07.84-.94,1.08.31.58,1.02,1.06,1.57,1.58ZM335.6,427.78c-.12.12-.24.24-.36.37.5.63,1,1.25,1.5,1.88.18-.02.36-.03.54-.05.31-.51.62-1.02.94-1.53-.87-.22-1.75-.44-2.62-.66ZM11.08,313.36c1.17.86,2.03,1.24,2.73.43.31-.37.1-.97.13-1.46-.88.32-1.77.64-2.85,1.03ZM12.19,258.43c.9-.46,1.64-.84,2.39-1.23.36.12.74.25,1.48.49-.65-.9-.85-1.68-2.31-1.29-1.22.33-1.95.8-1.56,2.02ZM51.49,447.31c-1.45.26-2.72.49-3.98.72.03.18.06.36.09.55,1.28.06,2.55.12,3.89.18v-1.44ZM166.86,459.71c.01.18.02.35.04.53.79.16,1.59.41,2.39.43.37,0,.75-.45,1.13-.7-.36-.23-.74-.67-1.09-.66-.82.02-1.64.25-2.46.4ZM89.58,481.56c.63-.41,1.05-.69,1.48-.98-.4-.23-.87-.68-1.2-.64-.68.1-1.29.46-1.94.72.46.25.92.5,1.65.89ZM22.53,320.22c.03-.14.05-.28.08-.42-.74-.2-1.52-.6-2.21-.53-.54.05-.99.67-1.43,1.07-.08.07.08.27.14.44.43-.24.79-.44,1.14-.64.34.31.58.54.89.82.53-.28.95-.51,1.38-.73ZM147.93,468.96c-.21.07-.42.15-.63.22-.07.55-.14,1.11-.26,2.01,1.13-.27,1.89-.46,2.65-.64-.59-.53-1.18-1.05-1.76-1.58ZM14.63,191.89c.76.06,1.36.17,1.92.12.32-.03.6-.34.89-.53-.69-.33-1.39-.92-2.08-.91-1.05.02-1.2.68-.74,1.32ZM111.78,408.21c-.6.49-1.03.83-1.46,1.18.41.25.97.77,1.19.71.63-.18,1.13-.61,1.67-.94-.4-.27-.8-.54-1.41-.95ZM241.19,421.07c2.04-1.93,2.06-2.26,0-3.33v3.33ZM384.82,403.07c-.92-.43-1.52-.79-2.2-.99-.21-.06-.67.31-1.02.49.57.44,1.1.92,1.75,1.3.09.05.73-.39,1.47-.79ZM10.14,255.45c-.69-.29-1.19-.6-1.31-.53-.66.33-1.22.76-1.81,1.15.31.22.82.67.9.63.69-.31,1.3-.71,2.22-1.25ZM24.08,239.14c-1.85-.08-3.37-.15-4.97-.22.64,1.69,2.63.45,3.8.91.16.06.73-.42,1.18-.69ZM118.67,429.19c1.85-.22,3.26-.38,5.04-.59-1.79-.92-3.23-.74-5.04.59ZM388.53,405.55l-.55-.23c-.4.39-1.11.79-1.11,1.18,0,.38.74.75,1.15,1.13.17-.06.34-.12.51-.18v-1.89ZM38.4,157.95c.26-.05.51-.1.77-.15-.09-.58-.17-1.17-.26-1.75-.56.07-1.13.13-1.69.2.39.57.78,1.14,1.18,1.7ZM15.77,193.03c-.09.25-.19.5-.28.76.75.2,1.51.4,2.26.6.08-.36.3-1.03.22-1.05-.7-.17-1.46-.22-2.2-.31ZM22.08,331.55c0-.17-.02-.33-.03-.5-.97-.04-1.93-.11-2.89-.08-.15,0-.39.44-.37.67.01.12.52.32.77.3.85-.08,1.68-.25,2.52-.39ZM296.98,446.84c.13.08.26.15.39.23-.03-.48.18-1.22-.16-1.39-.63-.32-1.59-.3-2.41-.43.28-.1.56-.21.83-.31.45.63.9,1.27,1.34,1.9ZM17.96,239.4c.18-.12.36-.24.54-.36-.3-.44-.6-.89-.89-1.33-.61.27-1.22.54-1.83.81.73.29,1.45.58,2.18.87ZM14.81,296.33l.24-.6c-.83-.23-1.66-.46-2.88-.81.08.7.06,1.35.17,1.36.81.09,1.64.05,2.47.05ZM13.37,199.74c.18-.14.36-.27.54-.41-.67-.31-1.34-.63-2.01-.94-.31.63-.62,1.27-1.02,2.08,1.1-.32,1.79-.53,2.49-.73ZM22.28,366.06c.07.79.11,1.3.18,2.13.97-.46,1.69-.8,2.61-1.24-1.06-.34-1.81-.58-2.79-.89ZM5.87,88.43c.04-.12.08-.24.12-.35-.64-.22-1.27-.52-1.94-.61-.32-.04-.75.31-1.13.48.31.22.59.59.93.62.66.06,1.35-.08,2.03-.13ZM27.27,334.92c-.2-1.23-1.48-1.37-2.88-1.65-.12.42-.22.77-.24.87,1.14.28,2.04.51,3.12.78ZM23.6,346.5c-.46-.68-1.03-1.14-1.93-.6-.4.25-.43.81-.62,1.23.18.06.36.12.54.18.66-.27,1.31-.53,2.01-.81ZM331.57,412.02c-.05.1-.1.2-.15.29.63.23,1.3.67,1.89.62.52-.04.96-.62,1.44-.96-.11-.08-.21-.17-.32-.25-.95.1-1.91.2-2.86.3ZM11.9,170.85c-.11-.05-.22-.1-.33-.16-.53.65-1.12,1.29-1.56,1.97-.08.12.43.46.73.64.06.03.61-.2.66-.35.22-.69.34-1.4.5-2.1ZM208.17,460.12c-.44-1.13-1.82-.02-2.54-.45-.32.37-.64.74-1.1,1.29,1.45-.34,2.44-.57,3.65-.85ZM14.16,207.09c.34-.6.7-.92.6-1.13-.16-.34-.64-.59-.98-.89-.26.3-.72.61-.72.91,0,.28.51.55,1.1,1.11ZM235.38,422.26c1.77.61,3.22.1,3.4-1.02-1.09.33-2.04.61-3.4,1.02ZM12.27,384.57c-.12-.12-.23-.24-.35-.36-.72.23-1.45.46-2.17.69.68.29,1.35.58,2.17.93.14-.53.25-.89.35-1.26ZM18.77,207.32c-.62-.1-1.19-.08-1.43-.26-.64-.49-1.36-.68-1.87-.1-.21.24.35.83.45,1.03,1.07-.25,1.85-.43,2.85-.66ZM16.63,292.98c.18-.06.35-.13.53-.19-.15-.54-.31-1.08-.54-1.89-.83.5-1.25.75-1.79,1.07.8.45,1.3.73,1.8,1.01ZM326.13,435.87q2.92.95,3.32-.11c-1.13.04-2.23.08-3.32.11ZM167.26,474.8c-1.22.12-2.12.21-3.29.33,1.37.98,2.09.9,3.29-.33ZM23.23,418.87c.46-.45.89-.87,1.45-1.42-.49-.31-1-.63-1.83-1.16.16,1.11.27,1.84.38,2.58ZM386.52,404.38c1.32-.68.31-1.24.02-1.95-1.13.74-.97,1.32-.02,1.95ZM104.7,405.91c-1.62,1.14-1.64,1.71-.31,2.42.09-.74.18-1.43.31-2.42ZM248.39,409.38l-.89.02c.06.51.08,1.03.22,1.54.02.08.56.09.85.14-.06-.56-.12-1.13-.19-1.69ZM13.87,352.12c.44-.42.82-.7,1-1.03.06-.1-.41-.36-.64-.54-.39.28-.82.54-1.12.86-.06.07.39.37.75.71ZM18.29,257.45c.28.03.56.06.84.09.13-.5.27-1,.4-1.5-.34-.03-.67-.07-1.01-.1l-.23,1.52ZM6.01,172.92c.32-.05.64-.11.97-.16-.15-.45-.28-.9-.49-1.34-.01-.03-.64.1-.98.15.17.45.33.9.5,1.34ZM9.17,301.5c-.17.01-.34.02-.5.03-.79.94-.67,1.27.79,1.63-.1-.61-.19-1.14-.28-1.66ZM332.01,436.52c-.72.03-1.32.06-1.92.08l-.15.37c.73.26,1.47.52,2.5.9-.19-.6-.29-.9-.43-1.35ZM189.11,421.14c.05.15.11.3.16.45,1.02-.16,2.04-.31,3.06-.47-.07-.19-.13-.38-.2-.57-1.01.2-2.01.39-3.02.59ZM397.18,394.16c-.08.09-.15.18-.23.27.7.16,1.4.38,2.12.42.19.01.44-.53.66-.82-1.02.05-1.79.09-2.56.13ZM262.47,447.31h3c0-.13,0-.27.01-.4-.97-.65-2-.26-3.01.4ZM114.22,488.75c.14.18.28.35.42.53.56-.22,1.12-.44,1.67-.67-.18-.16-.45-.47-.53-.45-.54.16-1.04.38-1.56.59ZM240.69,446.41l.87.17c.24-.69.48-1.38.71-2.07-.16-.02-.32-.05-.48-.07-.37.66-.74,1.32-1.11,1.97ZM15.49,324.3c-.18-.11-.36-.23-.54-.34-.46.3-.92.61-1.38.91.26.17.53.35.79.52.37-.37.75-.73,1.12-1.1ZM8.43,266.28c.17.15.35.3.52.45.58-.33,1.16-.66,1.74-.99-.18-.12-.46-.35-.52-.33-.6.27-1.17.58-1.75.87ZM8.01,201.48c.07-.18.15-.37.22-.55-.55-.13-1.1-.26-1.64-.39-.1.23-.21.46-.31.69.58.09,1.15.17,1.73.26ZM6.57,177.19c-.17.73-.33,1.41-.55,2.37,1.69-1.71,1.72-1.83.55-2.37ZM226.65,432.05c.14-.01.29-.03.43-.04.23-.45.47-.9.7-1.35-.76,0-1.4.13-1.74.44-.14.13.38.62.61.95ZM15.04,317.18c-.98.37-1.59.61-2.37.9,1.49.52,1.79.41,2.37-.9ZM115.63,427.28c.07-.2.14-.39.2-.59-.6-.08-1.2-.18-1.81-.22-.06,0-.16.31-.24.48.62.11,1.23.22,1.85.33ZM11.67,217.6c-.22-.05-.43-.1-.65-.14-.94.44-.51,1.04-.31,1.62.2.02.39.05.59.07.12-.52.25-1.03.37-1.55ZM142.58,430.97c.79.93,1.16.94,2.27,0h-2.27Z"/>
  <path class="cls-1" d="M269.39,451.96c.78.13,1.63.28,2.74.48-.41.49-1.17,1.04-1.27,1.64-.1.55.52,1.16.87,1.86.12.68.27,1.53.43,2.4h-4.13q2.94-1.37,2.54-2.07c-1.74.55-3.48,1.1-5.22,1.65.04.11.08.23.12.34.44.08.89.17,1.33.25-.13.62-.26,1.26-.42,2.02-1.08-.24-1.92-.6-1.99-1.61-.02-.37-.34-.93-.73-1.04-1.15-.32-1.39-.88-1.14-1.61.24-.71-.08-1.11-.96-1.44-.31-.11-.4-.52-.59-.79.44,0,.95-.12,1.29,0,1.82.66,2.46.56,3.96-.44.92-.61,2.04-1.07,3.16-1.64ZM269.1,454.1l-.16-.43c-1.03.39-2.12.71-3.02,1.21-.21.11.25.83.4,1.3,1.06-.79,1.92-1.43,2.79-2.07Z"/>
  <path class="cls-1" d="M28.04,437.43c.61.1,1.21.21,1.82.31.66,2.5-.25,2.05-2.26,1.9-1.56,1.18,1.03,1.98.75,2.87-1.7.26-3.2.49-5.1.78v-4.08c.5-.07,1.43-.26,2.38-.32,1.27-.08,1.35-.46,1.11-1.27-.12-.39.44-1,.93-1.31.27-.18,1.05.04,1.59.08,0,.13,0,.25,0,.38-.41.12-.81.24-1.22.36,0,.1,0,.2,0,.3Z"/>
  <path class="cls-1" d="M358.38,432.32c-.26-.47-.52-.95-.88-1.6,2.02.64,2.78,1.8,2.86,2.92.06.94.75,1.86,1.18,2.83.77-.09,1.23-.14,1.69-.19.98,1.19-.46,1.57-1.32,1.9-.96.38-1.42-.2-1.7-.86-.15-.34-.65-.6-.99-.89-.16.06-.33.13-.49.19.18.4.36.8.54,1.2-.07.1-.14.2-.21.3-.5-.24-1.19-.39-1.46-.72-1.04-1.28-.57-3.01.78-3.6-.92-.92-1.84-1.84-2.77-2.76l.31-.21c.69.6,1.38,1.19,2.07,1.79.13-.1.27-.2.4-.3Z"/>
  <path class="cls-1" d="M224.99,444.41c.34,1.24.69,2.47,1,3.71.08.34.01.69.01,1.03-1.06-.12-1.9-.21-2.96-.32.62,1.36.57,2.78,3.13,2.86-1.42,1.21-2.54,1.21-4.34.26.14-1.76.04-3.45.5-5.05.28-.98.89-2.15,2.67-2.48,0,0-.01,0-.01,0Z"/>
  <path class="cls-1" d="M217.93,448.63c-.77.39-1.36.54-1.42.76-.06.24.32.57.59.81.08.07.43-.02.64,0,1.04.13,2.24.18,2.31,1.18.05.66-2.16,1.58-3.18,1.39-.54-.1-1.07-.2-1.61-.28-1.54-.23-1.99-.8-1.63-1.85.29-.86.37-1.75.67-2.61.08-.22.74-.56.94-.5.8.23,1.52.6,2.69,1.09Z"/>
  <path class="cls-1" d="M352.72,442.2c-1.53.25-2.6-.12-3.05-1.18-.35-.82-.84-1.43-2.13-1.78-1.26-.34-2.37-1-3.49-1.57-.35-.18-.51-.54-.76-.82.09-.08.18-.17.27-.25.53.14,1.05.29,1.59.41.4.09.95.3,1.19.19,1.16-.53,1.88.07,2.05.6.46,1.43,1.87,1.45,3.41,1.47.5,0,1,.15,1.5.22-.16.32-.39.64-.45.97-.1.56-.1,1.13-.14,1.73Z"/>
  <path class="cls-1" d="M34.5,449.37c.26.3.54.62.82.94.38-.2.73-.47,1.16-.59.46-.13,1-.11,1.51-.16.04.27.25.72.1.8-1.51.76-.75,1.9-1.05,2.86-.13.4-.49,1.11-.6,1.1-.76-.1-1.62-.24-2.19-.58-.68-.41-1.16-1.01-1.61-1.57-.18-.23-.22-.65-.04-.87.58-.69,1.29-1.32,1.9-1.93Z"/>
  <path class="cls-1" d="M394.79,409.87c2.18,2.08,4.38,4.15,6.52,6.26.28.28.2.75.28,1.13-.5-.17-1.13-.26-1.45-.53-.4-.34-.55-.84-.8-1.25-.36,0-.9.12-1.15-.02-1.32-.76-3.82-.34-4.19-2.28.79.2,1.47.38,2.59.66-.39-.86-.64-1.5-.98-2.11-.34-.6-.77-1.18-1.16-1.77.11-.03.23-.06.34-.1Z"/>
  <path class="cls-1" d="M22.73,447.01q.48-1.91,3.27-1.83c.22,0,.45,0,.67,0,2.39-.04,2.68.17,2.48,1.84-.09.72-1.26,1.3-2.16,1.06-1.35-.35-2.71-.69-4.25-1.08Z"/>
  <path class="cls-1" d="M38.31,463.8c0-.88.02-1.77-.01-2.65,0-.29-.12-.58-.23-.86-.11-.27-.27-.53-.41-.79.41-.09.83-.28,1.22-.25,1.15.1,2.32.21,3.4.48.35.09.68.71.61,1.05-.06.32-.7.86-1.01.84-1.25-.1-1.43.41-1.76,1.07-.25.5-.9.89-1.38,1.32l-.42-.2Z"/>
  <path class="cls-1" d="M240.27,464.63c-.85-1.5-1.8-3.16-2.75-4.83,3.22,1.31,2.51,3.93,4.18,5.82-1.59-.28-3.35.67-4.79-.53-.23-.19-1.17-.03-1.72.09-1.2.26-1.78-.06-2.1-1.15,2.44.2,4.7.39,7.18.6Z"/>
  <path class="cls-1" d="M38.89,455.87c-.43-.36-.87-.72-1.3-1.08.1-.07.21-.15.31-.22.19.04.48.04.57.13.81.84,1.87.91,3.2.78.65-.06,1.7.18,2.01.53.43.5-1.59,1.95-2.6,1.95-1.08,0-1.79-.31-1.81-1.19,0-.31-.25-.61-.38-.91h.01Z"/>
  <path class="cls-1" d="M215.56,470.45c-.74-.65-1.35-1.23-2.03-1.76-.28-.22-.71-.5-1.07-.5-1.49,0-2.78-.05-2.85-1.47,0-.14-.77-.22-1.09-.41-.28-.16-.42-.43-.63-.66.36-.01.8-.12,1.08-.02,2.05.75,4.09,1.52,6.1,2.33.33.13.68.46.7.71.04.56-.13,1.13-.22,1.78Z"/>
  <path class="cls-1" d="M234.91,450.26c-3.01,1.05-3.6.84-5.66-1.97,1.08-.71,2.16-.67,3.18.05.85.6,1.62,1.25,2.48,1.92Z"/>
  <path class="cls-1" d="M230.68,452.31c3.3.29,3.51.69,4.09,2.5.06.19-.04.55-.2.6-.3.09-.74.08-1.05-.02-.74-.23-1.42-.54-2.15-.79-.78-.27-1.1-1.26-.69-2.29Z"/>
  <path class="cls-1" d="M220,446.24c-1.16-.28-2.26-.43-3.17-.82-.49-.21-.9-.83-.86-1.24.02-.26.91-.58,1.48-.67.56-.09,1.23.02,1.81.15,2.07.44,1.05,1.46.75,2.58Z"/>
  <path class="cls-1" d="M50.03,473.94c-.27-1.33-.54-2.54-.75-3.77-.03-.17.26-.38.4-.57.64.38,1.37.71,1.89,1.17.19.17-.07.63-.2.94-.1.25-.31.48-.47.71.37.11.74.22,1.1.34.56.2,1.12.41,1.67.61-.57.18-1.12.46-1.71.53-.74.09-1.52.02-1.94.02Z"/>
  <path class="cls-1" d="M44.72,470.71c-1.03-.39-1.94-.62-2.65-1.03-.86-.5-.87-1.18-.05-1.76.8-.56,1.47-.28,2.11.23.32.26.87.38,1.13.65.26.27.45.69.37.99-.09.31-.55.58-.9.91Z"/>
  <path class="cls-1" d="M218.28,413.91c-.23-1.27-1.41-1.65-2.92-1.69,1.56-1.79,2.57-1.87,4.4-.55.48.35,1.12.58,2.1,1.07-1.1-.04-1.78-.2-2.21-.03-.44.17-.64.67-.95,1.02-.14.06-.29.12-.43.18Z"/>
  <path class="cls-1" d="M18.62,430.7c-1.08.81-1.63,1.56-2.42,1.73-.68.15-2.09-.08-1.92-1.03.13-.73.14-1.78,1.63-1.77.73,0,1.45.55,2.71,1.07Z"/>
  <path class="cls-1" d="M334.12,450.08c2.57-.28,4.26.51,6,1.08.26.09.49.76.35.84-.36.22-1.09.46-1.39.34-1.59-.64-3.09-1.39-4.96-2.26Z"/>
  <path class="cls-1" d="M245.51,460.52c1.96.18,3.3.52,4.04,1.69.22.35.94.52,1.29.85.21.2.15.55.22.83-.34.03-.85.17-1,.07-1.47-1.06-2.89-2.17-4.55-3.43Z"/>
  <path class="cls-1" d="M338.24,446.29c-.13.31-.26.63-.48,1.2-.31-.45-.47-.69-.56-.82-.89-.07-1.7-.14-2.77-.23,1.38-1.19,3.74-1.67,5.22-1.23.21.06.49.27.48.4-.02.2-.2.51-.42.56-.44.11-.96.09-1.47.12Z"/>
  <path class="cls-1" d="M210.39,439.15c-1.26-.15-2.2-.26-3.13-.37-.26-1.09.36-2.26,1.27-2.28,2.89-.07,1.12,1.58,1.87,2.65Z"/>
  <path class="cls-1" d="M336.07,447.34c.53.41.86.66,1.17.91,2.36-.71,2.87-.47,3.27,1.54-1.04-.12-2.09-.23-3.15-.35-1.64-.19-1.61-.97-1.3-2.1Z"/>
  <path class="cls-1" d="M407.87,413.17c-.62.03-1.45.26-1.83.06-1.5-.79-3.13-1.55-3.78-3.17.96.09,1.64.15,2.37.22-.21,1.73,1.81,1.9,3.18,2.51.02.13.04.26.06.38Z"/>
  <path class="cls-1" d="M394.92,427.23c-.43.43-.7.7-.97.98-.13,0-.26-.02-.39-.03v-2.1c1.63.72,3.08,1.32,4.42,2.02.27.14.14.67.19,1.03-.48-.09-1.08-.09-1.4-.3-.66-.44-1.17-.99-1.86-1.59Z"/>
  <path class="cls-1" d="M181.93,474.8c.91-.54,1.45-.86,2.09-1.24.37.84,1.01,1.58,2.53,1.28-.13.92-.25,1.77-.37,2.63-.9-1.26-1.87-2.47-4.26-2.67Z"/>
  <path class="cls-1" d="M386.27,430.66c-1.13-.08-1.86-.14-2.56-.19v-2.36c.91.19,2.06.2,2.47.59.41.4.09,1.18.09,1.95Z"/>
  <path class="cls-1" d="M227.36,456.37c-1.06.22-2.1.6-3.12.58-.65-.01-1.29-.62-1.89-.99-.04-.03.25-.49.44-.51.77-.07,1.6-.17,2.32-.03.71.13,1.31.54,2.26.96Z"/>
  <path class="cls-1" d="M224.83,467.41c-1.44-.8-2.41-1.29-3.29-1.86-.3-.19-.39-.55-.58-.84.35-.09.72-.27,1.05-.24.64.04,1.66.07,1.83.33.49.75.64,1.61.99,2.61Z"/>
  <path class="cls-1" d="M330.91,452.77c0-.91-.05-1.6.02-2.29.03-.26.22-.64.5-.74.31-.12.86-.06,1.2.07.16.06.06.46.07.71.01.25.05.5.03.74-.02.4.12.94-.18,1.16-.35.26-1.1.24-1.65.34Z"/>
  <path class="cls-1" d="M29.96,463.44c.25.13.74.25.78.43.27,1.03.57,2.03,1.63,2.84.09.07-.17.56-.31.57-.38.02-1.05-.02-1.13-.18-.47-.84-.86-1.71-1.16-2.59-.11-.31.11-.67.19-1.08Z"/>
  <path class="cls-1" d="M313.64,448.87c.73-.03,1.38-.06,2.21-.09-.09.86-.17,1.73-.27,2.71-1.11-.25-2.96.06-1.73-1.58.18-.24-.12-.66-.2-1.04Z"/>
  <path class="cls-1" d="M323.07,448.23c.67.66,1.35,1.32,2.02,1.98-.16.13-.32.26-.48.39-1.37-.41-2.74-.82-4.2-1.25,1.04-.44,1.86-.78,2.67-1.12,0,0-.02,0-.02,0Z"/>
  <path class="cls-1" d="M231.96,464.16q-.99.93-4.03-.53c.84-.32,1.64-.63,2.42-.94.46.42.99.9,1.61,1.47Z"/>
  <path class="cls-1" d="M305.76,445.9c-.24.68-.4,1.2-.62,1.72-.05.13-.33.32-.43.31-.28-.05-.52-.2-.78-.32.93-.67-2.02-1.17-.18-1.85.51-.19,1.18-.18,1.78-.2.09,0,.21.32.22.34Z"/>
  <path class="cls-1" d="M389.36,428.71c1.74-.17,3.03.11,3.71,1.27-1.58.61-3.16.1-3.71-1.27Z"/>
  <path class="cls-1" d="M257.06,458.22c.96.49,2.41.76,1.43,2.07-.25.33-.12.8-.16,1.2-.15.03-.3.05-.44.08-.45-1.06-.9-2.12-1.35-3.18.17-.06.35-.11.52-.17Z"/>
  <path class="cls-1" d="M342.44,442.68c-.31-.45-.53-.75-.76-1.08,2.05-.16,5.16.94,5.72,2.05-1.82-.13-2.82-2.04-4.96-.97Z"/>
  <path class="cls-1" d="M228.53,464.89c1.61.74,2.92,1.35,4.28,1.98-1.47.58-4.08-.49-4.28-1.98Z"/>
  <path class="cls-1" d="M350.79,450c-1.87-.48-3.79,1.15-5.33-.79.67.04,1.09.08,1.52.07.58-.01,1.19,0,1.74-.12.93-.21,1.58-.14,2.08.83Z"/>
  <path class="cls-1" d="M411.6,409.92c-2.64-.16-3.28-.96-1.89-2.57.68.93,1.24,1.69,1.89,2.57Z"/>
  <path class="cls-1" d="M137.73,484.84c.67.99,1.22,1.82,1.77,2.64-.14.08-.28.17-.42.25-.78-.49-1.83-.89-2.23-1.5-.22-.33.64-1.03.89-1.4Z"/>
  <path class="cls-1" d="M274.8,455.04q1.6-.22,3.96,1.12c-.76.62-1.38.83-2.16-.04-.38-.42-1.11-.68-1.8-1.09Z"/>
  <path class="cls-1" d="M352.55,389.31c.24.15.49.31.75.47-.26.21-.47.51-.8.62-.56.17-1.18.24-1.79.3-.32.03-.67-.04-1-.06.11-.24.14-.62.36-.7.73-.25,1.54-.4,2.48-.63Z"/>
  <path class="cls-1" d="M309.68,446.81c-1.11.4-2.22.79-3.72,1.33.79-1.86,1.53-2.06,3.44-1.75.09.14.19.28.28.43Z"/>
  <path class="cls-1" d="M230.54,467.96c.49-.05,1.56-.32,1.73-.14.68.7,1.09,1.54,1.27,2.44-.93-.71-1.86-1.42-3-2.3Z"/>
  <path class="cls-1" d="M38.87,455.86c-.02.31.1.67-.08.92-.24.34-.71.6-1.08.89-.35-.3-.97-.6-.98-.92-.01-.27.6-.62,1.03-.82.28-.13.74-.05,1.12-.07,0,0-.01,0-.01,0Z"/>
  <path class="cls-1" d="M4.79,289.53h3.17c-.64.63-1.08,1.06-1.53,1.5-.65-.41-1.3-.83-1.94-1.24.1-.09.2-.17.3-.26Z"/>
  <path class="cls-1" d="M301.47,448.83v2.79c-.58-.35-1.4-.61-1.49-.96-.2-.78.25-1.47,1.49-1.83Z"/>
  <path class="cls-1" d="M361.84,442.48c1.06,0,2.13-.02,3.19.02.13,0,.39.36.32.46-.12.18-.47.41-.69.4-.96-.06-1.9-.2-2.85-.31.01-.19.02-.38.03-.57Z"/>
  <path class="cls-1" d="M10.77,387.37c-.25.68-.5,1.37-.76,2.09-.95-.1-1.13-.33-1.32-2.46.74.14,1.41.26,2.08.38,0,0,0-.01,0-.01Z"/>
  <path class="cls-1" d="M244.3,456.05c-.65.23-1.14.53-1.32.45-.49-.21-.93-.54-1.19-.9-.08-.11.5-.46.77-.7.5.33,1.01.66,1.75,1.15Z"/>
  <path class="cls-1" d="M404.86,394.75c.49.43.77.67,1.06.92-.55.29-1.08.61-1.66.85-.05.02-.72-.48-.65-.59.25-.37.7-.68,1.25-1.18Z"/>
  <path class="cls-1" d="M362.78,389.96c-.86-.62-1.47-1.06-2.08-1.49.26-.14.61-.45.76-.4.85.25,1.77.53,1.32,1.89Z"/>
  <path class="cls-1" d="M352.53,429.6c1.02.14,1.83.26,2.68.38-.18.28-.41.65-.7,1.12-.83-.4-2.35-.3-1.97-1.49Z"/>
  <path class="cls-1" d="M349.25,391.27c-.69.46-1.38.93-2.38,1.6-.18-.73-.27-1.09-.36-1.45.87-.15,1.67-.29,2.46-.42.09.09.18.19.28.28Z"/>
  <path class="cls-1" d="M280.85,451.99c1.84-.31,1.13.93,2.05,1.39-1.11-.07-1.94-.13-2.77-.19-.05-.08-.11-.16-.16-.24.5-.15,1-.31,1.61-.5-.07-.08-.14-.2-.26-.28-.13-.08-.31-.12-.46-.18Z"/>
  <path class="cls-1" d="M405.57,407.17c.56.07.91.11,1.38.17v-1.21c.48.2.98.29,1.01.44.08.31.08.82-.18.96-.69.38-1.56.67-2.21-.36Z"/>
  <path class="cls-1" d="M31.22,443.01c.09.04.17.03.25,0-.15.54-.3,1.08-.44,1.62-.17.02-.35.03-.52.05-.29-.42-.58-.85-.87-1.27.53-.13,1.05-.26,1.58-.4Z"/>
  <path class="cls-1" d="M281.33,456.43c.04.49.09.98.13,1.47-.14.07-.28.15-.42.22-.38-.32-1.02-.62-1.06-.96-.04-.27.64-.6,1-.9.12.06.24.12.35.17Z"/>
  <path class="cls-1" d="M212.69,452.72c-1.1-.07-2.2-.13-3.29-.2v-.36h3.27c0,.18.02.37.03.56Z"/>
  <path class="cls-1" d="M46.59,453.72c-.14-1.01.63-1.48,1.33-.82.3.29.49.63.8,1.03-.75-.08-1.44-.15-2.14-.22,0,0,.02,0,.02,0Z"/>
  <path class="cls-1" d="M273.82,453.28c-.28-1.23.26-1.47,2.32-.99-.88.37-1.57.67-2.32.99Z"/>
  <path class="cls-1" d="M.9,168.33c-1.16-.69-1.13-1.47.29-2.37-.11.88-.19,1.58-.29,2.37Z"/>
  <path class="cls-1" d="M348.99,437.3c.04-.42.08-.85.11-1.27l.44-.14c.32.28.86.55.91.85.06.32-.35.68-.56,1.02-.3-.15-.6-.31-.91-.46Z"/>
  <path class="cls-1" d="M214.72,463.75c.19.51.37,1.02.56,1.52-.24.02-.68.09-.7.05-.24-.47-.42-.95-.62-1.43.26-.05.51-.09.77-.14Z"/>
  <path class="cls-1" d="M333.04,398.97c.73-.73,1.18-1.18,1.68-1.69.74.91.43,1.26-1.68,1.69Z"/>
  <path class="cls-1" d="M33.59,486.76c0,.48,0,.96-.03,1.44,0,.02-.47.02-.73.03v-1.49l.76.02Z"/>
  <path class="cls-1" d="M242.46,458.91c.72.23,1.45.46,2.17.69-.09.16-.19.32-.28.47-.74-.21-1.48-.42-2.23-.63.11-.18.22-.36.33-.54Z"/>
  <path class="cls-1" d="M287.59,452.72c.1-.65.21-1.3.32-2.04.99.75,1.21,1.42-.32,2.04Z"/>
  <path class="cls-1" d="M357.76,429.46c.88.37,1.76.74,2.64,1.1-.1.12-.19.25-.29.37-.89-.35-1.79-.7-2.68-1.05.11-.14.22-.29.33-.43Z"/>
  <path class="cls-1" d="M38.19,494.06c-.1.07-.2.14-.29.21-.82-.38-1.64-.75-2.47-1.13.09-.11.18-.23.27-.34,1.11.03,1.91.49,2.5,1.26Z"/>
  <path class="cls-1" d="M343.12,390.78c-.11.52-.21,1.03-.37,1.79-.38-.29-.86-.53-.81-.66.18-.46.54-.89.83-1.34.12.07.23.13.35.2Z"/>
</svg>