<?xml version="1.0" encoding="UTF-8"?>
<svg id="Layer_1" data-name="Layer 1" xmlns="http://www.w3.org/2000/svg" viewBox="0 0 407.44 500">
  <defs>
    <style>
      .cls-1 {
        fill: #ed2190;
        stroke-width: 0px;
      }
    </style>
  </defs>
  <path class="cls-1" d="M59.12,86.83s-.02,0-.04-.01c0,0,.01,0,.02,0h0s0,0,0,0c0,0,.02.02.02.02ZM406.92,332.05c-.69,1.71-1.88,2.68-3.42,3.58-2.12,1.23-2.15,1.11-3.29,3.36.16.11.33.22.49.33,1.84-1.93,1.74-2.01,3.93-.52,3.08,0,1.39,1.57-.04,2.86.14.34.28.7.43,1.05-1.67,1.48-6.62,5.36-8.74,2.11-1.82,1.46-2.52,1.27-3.02-.92h-1.28c.1-.12.19-.23.29-.35-1-1.21-2.41-2.43-2.61-4.08-.09-.76.63-1.65.46-2.44-.43-2.06-1.62-1.88-3.57-1.94-2.16-.06-3.48.71-5.43,1.04-2.29.39-3.19-.47-2.08,2.76-1.4.7-2.76,1.37-4.2,2.08-.15,2.05,2.1,1.91,2.94,3.33-1.52-.37-8.75-1.69-6.48,2.8.99,1.95,3.49.32.92,3.6-2.29-.68-7.74-3.22-5.6,1.24,1.72,3.58,5.11.32,7.97-.97-.25,2.31-.47,4.32-.67,6.2,1.31.1,2.48.2,3.44.27.61,1.09,1.1,1.98,1.65,2.96-1.57.54-3.12,1.08-4.43,1.54-.08-.82-.19-1.89-.3-2.96-.87.29-1.75.58-2.84.94-.2-.44-.49-1.05-.74-1.61.54-.94,1.88-2.4.79-3.47-.67-.65-1.64.04-1.98.52-1.08,1.53.74,5.06,1.5,6.17.9,1.31,3.03,4.95,5.01,4.63,3.44-.57,1.8-5.66,5.61-1.9-2.73.47-1.48,2.97-3.43,4-.43.23-2.29-.62-3.09-.42-.63.17-2.16,1.61-2.75,1.95.1.26.37.94.72,1.81-.76.85-.87,2.34-1.13,3.41,2.6.55,4.7-.43,7.28-.24.02.22.04.45.06.67-2.1.57-4.21,1.14-6.39,1.73,1.83,1.14,5.37,2.51,3.62,5.25-.26-.87-.45-1.5-.68-2.25-1.89.56-3.65.59-5.09-1.28-1.18,1.83-2.43,2.94-1.9,5.08.66-.56,1.43-1.8,2.18-2.27.08,1.04.6,2.66-.15,3.59-1.12,1.4-2.21.39-3.35.86-2.83,1.15-1.04,2.31,1.08,3.51-1.05,2.45-1.6,5.18-5.41,4.89,2.83,3.92-5.77,8.14-7.47,10.34-1.07,1.38-.66,2.57-2.42,3.56-1.17.65-4-.03-2.69,2.27-.86.84-2.06,2.43-3.1,3.03-1.29.74-1.2.37-2.49.6-1.08.19-1.52-.16-2.74.34-1.01.41-1.73,1.66-2.7,2.21.42.49.82.94,1.35,1.55-1.49.43-2.91.05-4.39.32-1.91.36-2.84,1.42-4.48,2.29-2.89,1.54-5.35,2.03-7.51,4.68,4.63,1.29,6.8-5.03,11.21-3.87-1.11.62-2.22,1.24-3.6,2.01,3.14,1.03,7.47-2.75,10.18-4.26,3.36-1.87,6.62-4.69,9.33-7.54-.46,3.12-.26,5.83-3.31,7.38-3.01,1.53-6.55,2.47-9.64,4.14-3.18,1.72-6.31,3.7-9.68,5.02-2.78,1.09-5.09.86-7.9,2.26,1.1,3.34-3.09,4.73-5.33,6.74-2.72,2.43-5.49,4.81-8.26,7.18-6.84,5.84-15.05,10.63-22.71,15.36-7.78,4.8-16.26,8.56-24.64,12.16-6.11,2.63-12.01,5.18-18.26,7.61-16.92,6.59-33.72,14-51.77,16.91-8.76,1.41-18.7,2.24-27.47.82-4.09-.66-7.95-1.59-12.1-1.72-.93.03-1.85,0-2.77-.11-.8-.13-1.28-.61-1.44-1.42-1.74-.63-3.41-.53-5.26-.53-.16-.19-.32-.39-.47-.58-.31,1.27-.62,2.54-.94,3.88.54.34,1.02.64,1.8,1.13-2.69,1.72-3.08-1.9-3.99-4.09-1.23-2.99-3.7-3.74-5.59-6.31-.62.41-3.77,3.25-4.52,3.1-2.24-.45-.11-1.99.24-2.88-.87-.36-1.75-.69-2.63-.99-.73-.32-1.15-.89-1.25-1.71-1.11-.53-.52-.54-2.13-.36-1.56.17-8.07,3.43-7.01-1.03-2.6-2.04-4.28-1.62-7.15-2.57-3.27-1.08-.7-1.28-1.7-3.43-.34-.74-4.31-3.19-5-3.11-2.48.28-.97,3.9-4.52,1.89-1.66,1.96-3.31,3.91-5.02,5.93-.53-.61-.98-1.12-1.27-1.46.82-1.26,1.57-2.41,2.43-3.72-.5-.18-4.37-1.45-3.05-2.42,1.3-.96,2.73,1.95,4.37.36,1.76-1.71-.47-2.64-1.09-3.78-.78-1.43-.91-1.36-.09-3.25-1.58,0-5.15.86-5.81-1.23,2.01-.27,8.13.84,9.23-1.22-.85-.04-1.69-.08-2.54-.13,1.76-.83-.29-3.98,2.52-3.82-.6-2.71-6.36-6.48-9.94-6.62-.17-.78-.35-1.56-.56-2.49-2.39.87-1.37-.67-3.03-1.06-1.89-.45-2.81.7-4.15-1.02,2.6-1.4,4.98-.47,7.18,1.08,2.83,1.99,4.29,2.49,7.53.66-2.29-2.95-4.09-3.01-7.15-4.76.04-.19.08-.37.12-.56-.59.46-1.17.92-1.9,1.48-.25-3.42-.45-3.72-2.65-4.16-.1-1.07-.14-2.14-.1-3.21-3.07.02-1.24-1.84-1.99-3.35-.77-1.55-3-2.34-4.63-3.3.07-.16.13-.32.2-.47.6-.09,1.2-.17,1.99-.29-1.28-.59-2.38-1.1-3.47-1.6.03-.17.06-.34.09-.5.54-.23,1.09-.45,1.63-.67-.48-2.74-2.1-5.1-4.51-6.5.2-.49.41-1,.85-2.07-1.14.27-1.9.45-3.08.73.72-1.6,1.46-2.93,2.47-4.36-1.41-.67-2.92-1.84-4.36-2.3-1.07-.34-2.09.06-3.22-.17-1.93-.38-5.64-1.86-7.15-2.87-1.84-1.23-2.56-3.18-4.76-4.42-2.55-1.44-3.79-2.47-6.65-1.15-1.37-1.86,3.87-5.91,4.76-6.69-1.33-1.14-2.76-2.36-4.44-3.79,2.02-.42,3.37.46,4.95,1.67.54.41.72,1.21,1.4,1.68.85.59,2.62,1.2,3.56,1.46,1.46.41,3.07.19,4.08,1.42,1.6,1.95-.02,2.65,3.05,3.47,0,.15,0,.31,0,.46-7.45.68-1.03,6.72,3.07,6.71,2.2,2.94,4.16-2.76,5.22-4.49-2.78-.28-5.58.45-7.11-2.53,3.14-1.42,3.93-.59.83-4.17,1.01-2.68-1.06-2.73-2.36-4.12-1.32-1.4-2.08-3.4-3.12-5.04,2.77-3.16-1.24-3.02-1.28-6.34-.01-.98,1.41-3.06,1.28-3.54-.33-1.22-3.35-.6-1.29-2.4-3.09-.56-2.37-4.44-3.21-6.72-.83-2.26-2.49-4.01-2.88-6.44-.11-.66-1.54-2.98.97-1.62.2.11.99,2.52,1.46,3.06.97,1.12,2.6,1.77,3.85,2.51-.48.62-.92,1.19-1.16,1.49.53,1.3,5.97,11.74,7.98,6.63.66-1.68-2.17-3.2-3.05-4.19-1.92-2.16-1.6-3.26-1.45-6.11.25-.14.65-.36,1.15-.63-1.76-1.39-9.31-2.14-5.26-5.51-.1,3.82,5.78.77,8.17,2.39,1.12.1,2.14.18,3.36.29-1.09-1.45-2.15-2.85-3.33-4.41-.36.17-.87.42-1.38.66,0-.14,0-.28,0-.42h-6.55c.54-1.97,2.64-.87,3.88-2.12-2.68-.7-5.04-1.23-7.41-2.68.94-1.01,2.38-2.36,2.64-3.79.32-1.8.48-.68-.72-2.16-1.33-1.66-4.77-5.25-6.78-5.81.06,1.66.48,3.48-2.52,2.48.63.83.91,1.2,1.19,1.57-.09.14-.17.27-.26.41-.7-.42-1.41-.84-1.91-1.14.42-1.17.75-2.08,1.08-2.99-.94-.21-1.88-.42-3.04-.68.41-.84.73-1.49,1.14-2.33,1.44,1.74,6.13,2.61,5.62-.58-.43-2.66-4.11-2.13-3.75-4.95.49-3.77,4.92-3.03,6.73-4.53,2.35-1.94-.82-4.79,1.9-6.62-2.29.16-3.88-.42-3.97-3,1.58-.77,3.27.46,4.74,1.53,2.1,1.54,1.43,1.98,1.88,4.37.72,3.84,1.06,5.25,5.05,3.5-.44-1.89-.29-3.71-2.13-4.52-.07.14-.15.28-.22.42-.54-.74-1.07-1.49-1.71-2.36,2.16-1.96,2.43-2.53.44-4.59-.87-.9-1.91-2.09-3.07-2.51v2.22c-1.41-2.22-2.2-.55-3.79.01-1.17.41-4.54.82-3.98-1.35.04-.16,2.7-2.86,2.98-3.07,1.89-1.4,4.35-1.49,6.31-3.17.27.41.52.8.77,1.18.16,0,.33.02.49.02.15-.66.29-1.32.44-1.99-1.7-.33-3.03-.88-4.62-1.52-.36,1.92-.12,3.95-2.85,4.38.26-.54,1.19-2.09,1.16-2.59-.12-2.05-1.43-1.36-2.22-2.78-1.01-1.83.33-2.78,1.44-4.5,1.33,1.08,1.32,1.18-.28,3.39,1.74.53,3.36.95,4.69-.68-1.02-1.96-3.76-3.04-2.77-6.09-.56.11-.98.2-1.39.28.09-.14.17-.28.26-.43-1.58-1.16-2.95-2.24-4.26-3.68-7.79,3.04-11.08-7.91-10.34-13.25,2.71.5,4.69,4.77,3.97,7.4,1.03,1.46,3.34,6.79,6.13,3.47,2.07-2.47-3.54-6.68-5.06-8.31.55-1.5,2.4-1.11,1.82-3.04-.44-1.46-3.62-2.73-4.79-3.45-.1.15-.21.29-.31.44.26.3.52.59.71.81-.85,1.73-4.17.75-3.78,3.84-1.66-.23-1.88-2.1-2.49-3.41-1.13-2.4-1.9-3.48-.66-6.19.87,2.01,3.76,2.71,5.68,3.28,2.38.71,2.94.13,5.15-1.2-.6-1.84-.8-1.86-2.69-2.21-.07.14-.13.28-.2.42-.21-.39-.41-.77-.63-1.19-.76.29-1.35,2.08-2.02,2.74-.85-4.23.5-4.11-3.18-6.67,1.64-.42,5.18-.8,4.71-3.35-.23-1.26-1.45-1.13-2.21-1.81-1.38-1.24-2.2-2.47-3.12-4.08.34-.65,1.44-2.16,1.22-3.04-.25-.99-1.87-1.35-1.96-2.07-.4-3.28,4.13-.16,5.64.61,2.05-.62,6.3-1.06,7.18-3.36-.7-.13-3.99-.21-3.59-1.65.43-1.57,2.94-.09,3.8-.3,3.84-.91-.89-6.4,2.43-8.96.59,1.1,1.13,2.11,1.82,3.41,1.04-2.4.6-6.77-.64-7.54-.09.67-.16,1.28-.26,1.98-1.72-.19-1.79-2.36-.83-3.43.24-.27,1.3.22,1.67-.21.83-.96.56-2.27.17-3.44-.61.77-1.08,1.61-1.4,2.54-.46-1.41-.98-4.32-3.23-3.43-1.56.62-.98,1.57-.12,2.87h-1.2c2.1,1.15,2.78,7.05,2.24,9.11-1.04,4.01-7.07,1.96-7.92,6.2.51.34,1.03.69,1.74,1.17-3.88.41-7.5.79-11.15,1.17.72-2.92,3.4-1.56,5.55-2.34-2.52-1.55-3.67-4.43-7.27-3.7,2.93-2.34,4.17-.24,6.76.15,4.89.73,1.71-4.36.5-6.24,1.63-1.58-.5-2.92-1.07-4.51,3.51-1.57,3.06,2,4.24,3.69,1.32,1.89,3.37,1.71,2.77,4.63,4.16.87,3.11-5.71,3.11-8.08-.5.1-1.03.21-1.45.29-1.32-2.05.75-3.51,1.27-5.35.62-2.19-.65-3.26-1.19-5.3,1.42.44,9.17,3.47,7.53-.68-.83-2.11-8.3-2.93-5.05-6.93.77-.95,2.94-.29,3.44-1.73.68-1.95-2.28-1.59-2.56-2.3-.68-1.77,1.13-1.57,2.16-1.65,2.54-.2,4.27,1.38,6.45-.33-1.24-1.3-2.75-1.12-3.99-2.13-1.11-.9-.89-1.86-1.85-3.04-.54,1.11-.61,3.26-2.04,3.47-1.59.24-1.76-.94-1.87-2.21-.31-3.5,4.09-4.08,6.27-5.85-2.04-1.29-4.14-2.08-4.27-4.9-.13-2.8,2.62-3.24,1.03-6.11,1.74,0,6.56.4,5.82-2.61-.57-2.33-3.98-1.96-3.73-5.05.6.29,1.22.58,2.22,1.06-.48-1.41-1.4-2.39-.67-3.51.87-1.35,3.88-1.37,5.15-2.16-.99-1.34-1.54-1.67-3.11-2.26q2.16-1.69.41-4.37c.9-.79,2.79-.55,2.77-2.4-2.54-.75-3.28-2.61-1.87-5.19.83-1.52,1.25-1.43,2.75-1.98,1.74-.63,1.66-.4,3.28-1.54,1.3-.92,2.73-1.72,3.77-2.95,1.09-1.29,1.43-3.42,2.81-4.47,1.15-.87,2.5-.42,3.8-1.49,1.42-1.17,2.41-3.7,3.1-5.35-1.45.99-2.89,1.97-3.88,2.64-1.38-.56-4.18-2.41-5.78-1.39-2.24,1.42.15,4.66,1.09,6.09-2.17.8-4.77-.34-4.84-2.87-.05-1.72,1.22-3.17,1.7-4.92.72-2.63.54-2.31,2.91-1.95,2.16.33,3.38.32,3.27,3.03,4.53-4.68-3.64-7.54-1.51-10.55,1.15-1.62,3.33-.46,4.64-.19,2.72.56,2.71.24,4.69-2.22-2.77-2.03-1.71-1.8-2.28-4.7-.43-2.17-1.9-4.12-2.41-6.37.22-.09.44-.18.67-.27-.83-.21-1.24-.65-1.23-1.31,2.26-1.78,4.52,2.31,6.49,2.88,2.36.68,4.28-.85,5.85-2.32-2.16-.97-8.7-2.35-9.51-4.84.72-.04,1.2-.06,1.69-.09-.08-.11-.16-.21-.24-.32,1.57-1.16,3.13-2.31,4.7-3.47-.03-.16-.07-.33-.1-.49-1.49-.35-7.87-1.08-5.85-3.75,1.15-1.52,6.25,1.87,8.48,1.66,3.21-.31,3.11-2.26.8-4.02-3.26-2.48-5.29-.8-8.43.72-.25-.58-.48-1.12-.7-1.65,3.39-1.07,4.7-1.89,7.12-4.28,2.31-2.28,2.77-2.08.63-5.09,1.52-.84,5.58.21,6.47-1.16,1.48-2.28-2.53-3.79-1.19-6.08-3.43-.97-5.16,4.07-6.85,5.83-1.59,1.66-4.92,2.6-4.69-.74.2-2.99,4.06-1.43,3.81-4.45-.1-1.2-2.51-3.4-3.67-3.51-2.01-.19-2.59,1.73-3.29,3.15,1.8.96,2.89,2.19.56,2.99-2.34.8-4.12-1.43-5.89-1.93-1.27-.36-3.36-.51-4.35.8-1.69,2.24.96,3.46,2.67,4.46-2.74,1.77-2.43-.15-4.85-.3-1.99-.13-1.56,1.41-2.99,2.09-2.99,1.42-7.85.07-11.18.53v.55c1.76.27,2.1.37,2.25,1.91.06.65-.96,1.32-1.01,2.07-.1,1.58.8,1.46,1.37,2.88.58,1.46,1.57,1.7-.42,2.15-.99.23-3.77-1.09-4.1-2.09.41-.32.8-.62,1.2-.92-.33-.79-2.22-1.53-2.87-1.9,1.29-2.24,1.89-2.73.23-4.51-1.37-1.46-3.53-1.12-2.49-4,1.6.59,2.19.5,3.77.71,1.97.26,3.82,1.37,5.79,1.47,1.17.06,2.77.19,3.37-1.2.75-1.73-1.41-1.82-2.36-3-.2-.25-1.27-2.38-1.37-2.7-.44-1.32-.97-2.89-.67-4.35,1.03-4.86,5.99-3.02,9.39-1.8-1.19.59-1.85.85-2.71,1.71-.4.4-.24,1.3-.67,1.78-.41.46-1.85.39-2.07.83-.64,1.24,1.17,3.44,2.51,4.1,2.76,1.37,4.01-.69,5.85-2.43-2.22-.45-3.24-.63-4.88-2.18,4.05-3.14,10.24,3.01,14.07-1.91-1.33-.83-2.52-1.67-3.72-2.68,3.15-1.35,2.67.63,5.61,1.12,2.04.34,5.43-2.04,6.87-3.34-2.71-1.17-5.23-1.42-7.42-3.67-1.05.55-7.8,5.05-7.44,1.52.23-2.22,5.56-.37,4.91-4.47,3.17,0,5.02-.62,4.35,3.24,4.11.37,8.06,1.16,12.06,1.16-1.52-2.09-2.62-4.47-5.42-4.77-1.99-.21-3.75.54-5.87.3.44-.59.89-1.18,1.29-1.71-1.58-1.41-3.91-4.79-6.21-3.72-.91.42-2,2.45-3.22,3.11,1.61,1.4,2.03,2.52-.54,3.32-2.21.69-3.12-.74-4.98-2.2-.15.11-.3.22-.45.33.56-1.11.37-2.32,1.07-3.28.87-1.19,3.99-2.41,5.16-3.24,2.56-1.82,4.23-3.81,6.34-6.12.26.37.5.72.76,1.09,2.51-1.16,1.72-4.18.98-6.11,3.35-.43,4.73-.24,7.57-1.79.71-.39,1.55-.49,2.33-.95,1.6-.94,1.16-1.98,3.64-2.1.1.9.2,1.82.32,2.88,3.62.63-.21,3.49.76,5.54.81,1.71,1.76,1.1,3.28.5,2.27-.88,2.52-1.18,5.04-.68-.84,1.07-1.33,1.69-1.79,2.27,1.99.91,4.4,1.63,6.06,3.08,1.28,1.12,1.75,2.35,3.48,3.05,2.78,1.13,8.18,1.07,11.09.66-.32-1.87-3.57-5.67-5.5-6.49-2.74-1.16-5.07,1.17-7.66-1.3-.78-.74-.78-2.17-1.83-2.7-1.28-.64-2.58.18-3.92-.03-2.13-.33-4-1.4-5.04-3.21,2.89.18,4.83,1.61,7.83.45-1.6-2.74-3.06-5.3-6.33-6.71-.47,1.4-1.42,6.49-4.12,4.6-1.89-1.32,1.28-3.5.07-5.25,1.29-.53,2.49.11,3.6-.3,1.13-.42,1.08-.99,1.9-1.75,1.29-1.2.89-1.21,2.69-1.42,2.07-.24,2.37.78,3.89-.94-2.57-.99-4.77.12-7.16-1.42,1.62-.65,3.17-1.26,4.95-1.2,1.1.04,2.55,1.16,3.54.06,2.21-2.46-2.3-3.65-3.82-4.35,2.11-2.46,3.25-.7,5.43.02.34.11,4.57,1.95,4.14,2.02,1.31-.21,1.53-2.02,1.26-3.46-.26-1.35-2.6-2.85-2.51-3.68,3.47-.12,5.44-.04,5.89,4.74,1.03-.98,2.09-2.35,3.45-2.94.99-.43,2.02-.15,3.01-.59,1-.45,1.06-1.37,2.25-1.37,1.23,0,.93,1.3,2.4.94,1.95-.48,2.32-2.83,5.07-1.95,1.15.37,1.67,1.62,2.69,2.2,1.44.81,2.89.79,4.5,1.04.11-1.69-2.18-4.81-1.71-5.98,1.28-3.14,3.28,1.32,4.95.67,1.32-.52,1.45-2.93.94-4.1-.39-.91-1.71-1.46-2.22-2.45-.64-1.25-.47-2.52-.85-3.84,2.8-.6,5.66-.53,8.48-1.05,3.45-.63,4.55.19,7.78,1.66,2.86,1.3,9.94,2.12,5.19,5.34.92,1,1.71,1.86,2.5,2.72.17-.06.35-.12.52-.18v-3.84c1.43-.34,2.34-.8,3.57-1.62-1.87-2.8-3.42-2.51-6.7-3.16.03-.16.06-.32.08-.49,1.92-.21,4.74-1.03,6.6-.61,1.32.3,2.3,2.08,3.77,1.18.86,1.47.45,1.65-.45,3.13,4.92-.38,6.15.23,9.86,3.38.14-.97.21-1.46.31-2.17.65.62,1.16,1.11,1.7,1.61,1.53-2.52.57-3.78-1.93-4.37-1.4-.33-3.62.49-4.91-.39-1.72-1.18-.32-1.91-1.35-3.14-2.01-2.39-11.9-4.18-10.01-9.2,1.63,1.46,3.16,2.83,4.85,4.34,2.34-.05,2.41-3.79,5.42-3.58-2.06,1.32-2.02,3.03-1.34,4.89,2.16-.79,2.43-.59,3.67,2.78-.4.27-.82.55-1.23.84,1.09,2.05,4.36,1.72,5.18-.02,1.21-2.56-1.79-5.36-2.57-7.08-1.7-3.77,1.36.07,2.93-2.58,1.14-1.92-1.63-2.3-2.91-3.02,2.09-1.53,3.76-1.24,6.31-1.24-.24.55-1.44,2.6-1.28,3.4.23,1.15,1.45,1.15,1.68,2.14.62,2.6-1.94,3.41,1.17,5.47-2.98,3.62.61,4.55,2.02,7.99.64,1.56.89,3.15,1.81,4.5,1.03,1.52,3.46,2.44.88,4.21,1.02.21,4.13,1.55,5.02.46.56-.68-.59-4.04-1.03-4.76-1.03-1.69-6.11-4.12-4.47-7.04,1.78-3.17,4.78,2.67,6.58,3.46,3.3,1.46,5.84-2.14,8.59-.7-.18-3.5-4.54-1.51-6.41-4.07,1.98.11,13.45,2.15,12.71-.64-.22-.84-2.74-2.59-3.37-3.74-1.56-2.87-.59-3.67-.49-6.7.19-.06.37-.13.56-.19,1.2,2.06,2.17,5.23,4.56,6.05,1.7.59,5.71-.83,6.88-.17,1.88,1.05.88,4.23,2.85,5.48,1.84,1.17,6.01-.04,8.06-.27.14,2.5.08,3.53,2.42,4.33,3.66,1.24,4.41-.85,3.14-3.69-.48-1.07-1.28-2.05-1.22-3.27.05-.93,1.13-1.44,1.19-2.52.15-2.46-2.12-5.19-4.11-5.99.65-.88,1.28-1.75,2.08-2.84,1.7,2.24,3.94,4.06,5.53,6.32.66.94-.06,1.58,1.31,2.55.96.68,2.78.72,3.86.98,1.09-1.38-.43-2.76-1.18-4.24.11-.16.22-.33.33-.49,5.64,3.32,6.91,8,9.52,13.4.74,1.53,2.07,2.46,1.43,4.29-.32.92-2.02.61-2.08,1.94-.19,4.07,4.83,3.06,6.72,3.74,1.3.47.97,1.29,1.94,2,1.11.82,2.4.86,3.62,1.87.8.67.87,2.03,2.02,2.36,1.43.41,2.25-1.08,3.91-.48,1.43.52,5.13,3.71,6.17,5.13.62.84,1.46,1.7,0,2.05-.88.21-2.99-2.99-3.51-3.59-2.21-.55-4.65-.93-6.77-1.7-1.69-.62-5.4-4.42-7.16-3.89-1.8.54-.72,2.35,0,3.49,1.26,1.98,1.78,1.88,3.47,1.64,1.49-.21,1.2-1.26,2.91-.25,1,.59,1.24,2.07,2.05,2.9,2.35,2.39,4.57.81,6.92,2,1.66.84,1.55,2.9,3.32,4.18,2.27,1.64,3.09,1.49,5.87.93.1.32.28.86.49,1.53,1.8-3.74-.67-3.96-2.94-5.64-1.06-.79-2.46-.19-1.6-2.05.56-1.21,1.09-.85,2.2-.79,2.07.11,5.33,1.92,6.57,3.15.58.57.5,1.63,1.47,2.08,1.18.56,3.97-.13,5.24-.2-.64-.69-1.88-1.64-2.23-2.54-.52-1.32.12-2.83-.73-4.53,2.33-.69,3.18,1.67,4.99,2.41,1.64.67,3.51.03,5.22.45.68.17,4.04,1.23,4.39,1.82.56.94-2.14,2.87.9,2.93,4.5.09,1.16-6.35.02-7.65-1-1.15-4.28-3.92-4.01-5.45.24-1.37,1.82-1.55,2.32-3.07-1.62-.28-4.53-3.16-6.14-1.29-1.05,1.22,1.41,5.02,1.75,6.64-.28.11-.57.22-.85.33-1.3-2.22-2.6-4.45-3.68-6.31.86-1.29,1.51-2.26,2.16-3.24-.98-.14-1.96-.29-2.94-.43-.08.26-.16.52-.25.77-.79-2.38-4.86-3.13-6.94-3.81-1.44-.48-2.7-.61-3.81-1.6-.63-.57-.62-1.56-1.37-2.06-1.53-1.02-6.25-1.14-6.65,1.31-.32,2.01,3.11,3.66,4.44,4.77-.43.49-.97,1.1-1.73,1.96,1.02.23,1.92.44,2.53.58.18.97.33,1.71.47,2.48-.69.21-1.64.51-2.6.81-.04.19-.08.39-.11.58,3.91,1.94,4.73,2.85,7.08,6.65-3.43,1.03-7.5-2.96-9.36-5.44.44-.84.77-1.47,1.11-2.11-1.83-.77-3.45,1.45-5.77.92-2.31-.53-4.3-3.16-6.18-4.58,2.42-1.33,6.46,1.25,9.18,1.71-.01.2-.03.39-.04.59-1.03.24-2.06.48-3.09.72,2.59.96,3.92-.23,4.23-2.8.26-2.12-.72-2.83-1.43-4.62-.76-1.9-.22-2.09,0-4.07.28-2.63.99-.87-1.67-2.35-2.27-1.26-3.28-3.25-4.57-5.4-.24,0-.47,0-.71,0,2.87-2.99,2.91-4.06-1.09-5.77-2.31-.99-4.49-1.81-6.94-2.91,3.63-1.77,5.91-1.31,7.99,1.33,1.36-1.14,4.25.89,5.15,2.13.58.8.09,1.65.74,2.21.95.82,2.08.14,3.12.2,2.53.14,5.96.06,8.25,1.31,2.6,1.42,1.06,2.16,3.67-.22.31,1.71.94,3.16,2.41,4.15,1.26.85,4.29.47,4.91,2.04.9,2.27-2.17,2.88-2.37,4.57-.2,1.66,2.28,3.2,3.7,3.73,2.07.77,2.68.46,4.43,1.75,2.1,1.56,1.59,1.2,4.3,1.54,1.11.14,3.08.92,4.1,1.65,1.43,1.02,2.27,4.08,4.38,3.3v-1.71c2.13,1.4,3.27,1.84,3.62,4.52.38,2.89.54,4.06,1.95,6.66,2.21,4.08,4.57,3.9,8.28,6.3-.12.2-.24.4-.36.6-2.12-.93-2.69-.98-4.32.58,1.52,1.4,2.82,1.66,4.79,2.21-2.16,1.74-2.09,6.88-.39,8.96,1.1,1.35,2.87,1.26,3.96,2.49,1.29,1.45.8,4.23,1.1,6.01.19.01.38.03.57.04.33-1.55,1.51-4.38,1.25-5.92-.27-1.59-1.03-1.09-1.5-2.24-.41-1.02-.26-2.04-.79-3.09-.52-1.02-1.95-1.98-2.68-2.92.18-.2.35-.39.53-.59,2.51,1.33,4.61,2.04,6.29,4.46.88,1.27,2.61,3.84-.05,4.33,1.03,2.45,3.26,2.96,5.37,3.84-.41,3.14,4.16,4.9,5.2,7.86.76,2.16.95,4.09,2.35,5.99,1.36,1.85,2.57,3,3.34,5.29,1.21,3.57,2.6,6.78,4.23,10.21.33.7.72,2.24,1.41,2.7,1.13.74,1.84-.21,2.68.22,1.37.7,1.51.55.7,1.89-.71,1.17-1.31-.56-1.64,1.54-.18,1.12.57,2.33.81,3.17.86,3.12,1.53,7.01,2.94,10.2.78,1.78,2.17,3.01,2.53,4.9.43,2.25-.18,2.09,1.54,4.05,2.86,3.25,3.23,5,1.67,9.3.76,1.5,1.64,2.98,2.3,4.52.81,1.9.31,2.47.79,4.23.73,2.7,2.45,1.95,5.16,2.1-3.12,5.11,3.86,1.29,3.96,5.09-3.07.23-4.93-.36-4.57,3.12-1.22-1.01-2.09-1.71-3.05-2.51-2.87,3.77-.19,2.62,1.98,5.3,2.01,2.48,1,8.8,5.44,6.6-1.45,2.88-5.07,1.64-7.85,1.64,1.3.91,2.37,1.66,3.44,2.42-.29.29-.58.59-.88.88,1.04-.3,2.08-.6,3.12-.9.11.14.21.28.32.42-.52.52-1.03,1.05-1.55,1.57-.19-.08-.39-.16-.58-.24.08,1.2.27,2.39.59,3.55.42.62,1,1.04,1.74,1.24.78,1.19,2.55,1.98,1.2,3.81,2.62-.02,1.99,2.26,2.47,4.01.7.43,1.15,1.04,1.34,1.84,0,.69-.02,1.38-.04,2.07.47.8,2.11,1.2,2.32,1.96.52,1.89-1.45,4.16-2.41,5.53-.78,1.11-1.61.49-1.05,2.46.52,1.86,2.73,2.08,4.25,2.53-1.03.54-1.81.95-2.92,1.54,3.5,1.58,2.04,2.43.38,5.23,1.38.38,2.73.69,4.14.93-.32,1.18-1.92,1.26-2.41,2.48-.45,1.12.05,3.12-.12,4.39-3.35,1.59-2.51,1.45-3.6-1.34-.76-1.93-2.3-2.67-4.17-3.38-.64,2.19,1.22,2.12,2.26,3.42,1.08,1.35,1.66,4.44,2.41,6.05.66,1.43,1.31,4.76,2.59,5.71,1.64,1.21,5.53.03,7.53-.21-.36.97-.6,1.65-.85,2.33.11.07.22.14.32.21-.6.34-1.2.69-1.86,1.07-.54-.82-1.08-1.63-1.62-2.44-.2.17-.41.35-.61.52-.07.45-.14.89-.14.86-3.23-.14-6.12-.4-2.8,2.31,2.64,2.16,5.32,2.99,2.03,5.71,2.49,1.35,3.11-1.28,4.02-3.27.66,1.47,1.13,2.52,1.73,3.84-.81,2.19-2.04,3.9-4.99,1.29-.15,1.51-.09,2.06.53,3.34.63.06,1.03.37,1.21.94.13.56.13,1.12,0,1.68,2.3,2.06,1.81-1.21,2.22-3.62,2,1.19,2,1.35,2,3.7-.16.04-.33.09-.49.13.84.56,1.67,1.12,2.51,1.68l-.13.54c-1.37-.56-2.97.07-3.38,1.58-.48,1.8.97,1.42,1.42,2.48.54,1.28.45-.96.83,1.04.23,1.2-1.73,1.9-1.13,3.9.42-.29.79-.55,1.3-.91.21,1.34.4,2.56.55,3.55-1.65-.52-4.5-1.04-3.46,1.88h3.04c.25.79.51,1.61.91,2.88-1.74-.46-3.57-1.22-5.38-.87-1.47.28-2.4,1.88-3.4-.26-2.11,2.12.56,1.76,1.51,2.62,1.02.92,1.43,2.14,2.11,3.33.16,0,.33,0,.49-.01.21-2.52-.38-6.26,2.41-2.76,4.11-1.02,3.51,2.68,3.81,5.7.24,2.39,1,4.34.4,6.09-.37,1.06-3.44,3.4-3.27,4.8.05.45.82,1.5,1.55,1.09,1.2-.67.79-2.83.79-3.89,1.84.41,3.45,5.57,3.12,7.2-.34,1.7-2.7,1.81-2.98,3.09-.28,1.27,1.69,2.84,2.48,3.88.16-.02.6-.06,1.02-.11.35.8.69,1.58,1.07,2.45-.55,1.18-.38,2.77-.94,3.8-.57,1.05-1.92,1.19-2.32,1.85-1.16,1.9-.26,3.18,1.34,4.75.88.87,1.5-.06,2.09,1.47.5,1.29-.63,2.58-1.21,3.57-.45.78-2.72,2.85-1.79,3.97,1.16,1.4,1.77-1.74,1.98-2.42.84.34,1.56.62,2.63,1.05,1.9,2.35-1.08,6.73-1.97,9-.32.18-1.03.57-1.73.96,3.39.91,5.08,4.71,3.8,7.86ZM401.6,297.66c1.85,0,1.38-1.42,1.87-2.25q-1.11-.07-1.87,2.25ZM282.59,16.5c-.56-1.59-4.2-2.43-5.57-1.74-1.71.86-.39,1.56-1.41,2.68.72,2.36,1.16,1.76,3.75,1.43,1.94-.24,4.08.05,3.23-2.37ZM294.02,21.92c-1.64-1.64-6.95-4.87-8.22-1.4-1.51,4.09,4.5,2.79,6.33,2.15.1.16.2.32.3.47.53-.41,1.06-.81,1.59-1.22ZM77.11,61.13c.11.33.21.66.32,1,1.56-.42,2.33-.15,1.9-1.8-.74.27-1.48.53-2.22.8ZM76.16,68.47c-.65.28-1.3.56-1.94.84.7.99,4.56,5.36,6.13,3.91,2.07-1.91-3.02-4.61-4.19-4.75ZM81.14,60.83c-2.06,4.61-.45,5.57,3.53,8.02,2.62-2.51-2.03-6.25-3.53-8.02ZM87.71,87.53c-1.19-.6-5.91-2.63-7.2-1.79-2.42,1.58,1.36,4.64,3.04,4.75,2.24-.75,2.97-.97,4.16-2.96ZM56.38,337.65c-1.82-3.94-4.05-1.92-4.77.82,1.74,1.08,6.88,3.78,4.77-.82ZM55.57,405.77c-.03-.23-.05-.46-.08-.69-1.99-1.06-2.26-.39-4.06.99,1.97,1.52,2.07,1.13,4.14-.3ZM402.6,318.69c.82-.64,1.41-1.09,2-1.55-.07-.18-.13-.35-.2-.53-1.65.58-2.28.35-1.79,2.08ZM399.16,287.74c.28.12.55.23.83.35.47-.64.94-1.28,1.41-1.93-.59-.14-1.18-.28-1.76-.42-.16.67-.31,1.33-.47,2ZM396.3,274.39c.19.29.37.58.56.86,2.08.36,2.83-.37,2.4-2.39-.9.68-1.88,1.19-2.95,1.52ZM394.39,293.68c.79,1.09,2.94,4.97,4.32,2.38,1.27-2.38-2.75-4.09-4.32-2.38ZM391.91,272.42c.65,2.84.71,2.54,3.8,2.05.03-.29.05-.57.08-.86-1.13-.35-2.25-.69-3.88-1.19ZM392.3,279.87c1.02-.43,1.92-.8,3.04-1.27-2.14-1.02-4.64-1.97-3.04,1.27ZM391.36,286.57c.44.74,2.42,3.58,3.13,1.09.26-.92-1.42-2.23-2.11-2.97-.31.57-.61,1.13-1.02,1.88ZM389.4,301.3c1.64.7,7.16,2.9,4.97-1.15-1.91-3.51-3.83-.72-4.97,1.15ZM390.24,259.03c.07-.89.14-1.6.22-2.56,1.42.74,2.33,2.49,3.72,1.1.37-1.61.53-2.24.27-3.94-2.89.44-6.71,1.75-4.21,5.4ZM390.02,246.5c-.06-1.29-2.92-4.13-3.92-2.19-.56,1.08,2.78,2.75,3.92,2.19ZM381.8,311.91c-1.81-.76-1.88-2.35-3.28-3.13-1.45-.81-2.94-.29-2.42,1.35-.04-.14,2.88,2.64,2.81,2.58.51.44.17.64,1.06,1.01.68.28,1.81-.45,2.53-.19,1.48.53,1.12,1.77,2.36,2.44,3.97,2.14,6-1.91,8.16-3.7.41,1.27,2.21,12.28,6.17,8.81,1.54-1.35-1.1-6.84-3.67-6.11.33-1.82.28-4.75,2.71-5.21,2.45-.46,1.94,1.39,1.37,3.12-.57.07-1.07.14-1.57.2-.03.14-.05.29-.08.43,4.3,1.34,3.15-1.49,4.11-4.89-2.05,0-6.41,1.01-7.18-1.45-.45-1.44,2.44-5.3-1.95-2.63.25.73.44,1.3.53,1.56-2.19.63-4.21,1.22-6.47,1.87.55,1.04.95,1.83,1.36,2.61.17-.01.34-.03.5-.04.16-.66.31-1.32.46-1.95,1.11.73,3.06,4.32.89,5.09-1.15.41-3.55-3.34-4.79-4.12-.69,2.66-.75,3.57-3.64,2.35ZM400.74,323.18c-1.28.26-2.56.51-3.84.77-.05.16-.1.31-.15.47,1.98.94,2.38.32,4.25-.87-.09-.12-.17-.25-.26-.37ZM392.03,317.83c-1.87,0-3.56-.23-5.24.62,1.54,2.03,3.01.89,5.38.27-.05-.3-.09-.59-.14-.89ZM379.49,303.75c-.56.9,1.65,2.39,2.3,2.88.25-.42.49-.83.76-1.28-.41-.82-2.11-3.12-3.06-1.6ZM375.2,295.92c1,.33,2,.32,3-.02.08.75.39,1.39.95,1.93,1.49-2.58-2.75-7.85-3.95-1.91ZM373.77,286.32c-.02.5,1.47,2.29,1.96,2.54,1.53.76,1.77.29,3.14-.7-.5-.77-1.88-3.81-2.93-3.85-.66-.03-2.15,1.43-2.17,2.01ZM372.62,298.91c-1.08.82-1.9,1.44-2.71,2.05,2.57,2.15,2.5,2.2,4.79-.09-.61-.58-1.23-1.16-2.08-1.97ZM373.93,254.87c.12-.32.24-.64.36-.95-2.99-1.02-2.85-.15-.36.95ZM375.59,279.53c-.94-1.08-4.52-4.27-5.51-2.05-1.25,2.79,4.52,2.43,5.51,2.05ZM363.88,312.28c-.11,2.03,3.55.59,2.85,3.29-3.95.39-11.06-.4-10.89,4.9,2.21-1.53,2.36-2.5,4.8-.46-.1.16-.19.32-.29.48-1,.13-2,.26-3,.39-.02.17-.04.34-.07.51,4.65,1.38,8.4-.01,10.82-4.18.48-.82,2.48-3.85,1.98-4.87-.82-1.69-5.11-.79-6.2-.06ZM357.59,371.5c.93-.27,4.3-1.75,2.4-3.1-1.91-1.35-2.12,2.19-2.4,3.1ZM351.64,385.12c-2.01.26-4.2-.49-5.1,1.93-1.08,2.89,1.67,3.34,3.88,3.34.05.13.1.27.14.4-.57.43-3.94,2.41-2.28,3.5.84.55,2.45-.71,2.91-1.35.33-.46,1.1-3.33,1.05-3.88-.16-1.51-2.55-2.43-.6-3.93ZM349.48,312.55c.32.72,2.33,1.04,2.93,1.44,1.77,1.16,1.41,2.41,3.64,1.03v-2.73c-.45-.38-1.15-.99-2.06-1.76,2-.92,3.76-2.91,4.5-.05,2.6-.87,1.21-4.76,4.33-5.64,1.36-.38,3.11,1.38,4.09.88.56-.28,1.19-2.39.66-2.98-.47-.52-2.28-.1-2.88-.09-2.04.02-1.85.28-3.31.99-2.35,1.14-3.96,2.78-6.67,3.11-.27-1.06-.23-2.09.13-3.1-1.25-.24-4.88-1.64-5.96-.49-1.29,1.37.9,4.53.98,6.16.04.97-.77,2.3-.37,3.22ZM362.76,295.65c.03-1.56-1.47-1.86-2.71-1.95-.19.13-.71.46-1.23.8.42.35,3.89,3.84,3.94,1.15ZM353.4,375.91l.91.31c.27-.7.54-1.4.8-2.1-1.49-.32-1.28.4-1.72,1.79ZM354.63,378.12c.09.29.18.59.26.88.81-.27,1.62-.53,2.42-.8-.09-.28-.18-.56-.27-.85-.8.26-1.61.51-2.41.77ZM365.4,243.84c.41.68.81,1.36,1.22,2.04,1.18-.96.42-1.36-.33-2.59-.3.19-.59.37-.89.56ZM364.03,289.02c.78,3.39,5.79,4.52,5.08,0-.17.01-.34.02-.52.03-.49.67-.98,1.33-1.43,1.96-1.13-1.55-1.24-1.99-3.13-1.99ZM346.18,108.13c-1.4.12-1.57.48-1.36,1.85.38,2.53,3.18,3.98,4.49,1.79-.64-1.02-1.58-3.77-3.12-3.64ZM345.28,105.94c1.23-1.14-1.68-8.19-4.9-4.38.69,1.5,3.16,6,4.9,4.38ZM348.48,87.09c-1.01-.8-1.69-1.34-2.37-1.88-1.58,2.04.46,3.09,2.37,1.88ZM333.94,77.55c.73,1.97-.88,3.31-.22,5.29.33.97,1.63,1.76,2.12,2.8.53,1.14.47,2.48.84,3.67.8,2.59,2.49,4.88,3.67,7.32,3.16,1.02,6.02,2.4,3.98-1.71-.68-1.36-2-2.36-2.66-3.73-.77-1.6-.39-2.79-.61-4.44-.36-2.78-1.89-5.42-3.41-7.86-.69-1.11-4.38-6.52-5.9-5.85-2.6,1.15,1.82,3.52,2.18,4.5ZM327.8,103.54c.05.84.1,1.67.16,2.51.21-.01.42-.02.63-.04v-2.49c-.26,0-.52,0-.78.01ZM328.59,102.08c-.81-1.85-2.69-2.97-3.66-4.88-1.25-2.46-1.39-4.99-3.21-7.07-.34,3.2,2.82,13.24,6.87,11.95ZM333.7,102.67c.8,1.58,1.12,3.82,2.45,5.07,1.16,1.1,2.85,1.76,2.93-.44-.25-2.08-8.95-14.48-10.63-12.51-.66.77,4.69,6.78,5.25,7.87ZM323.93,72.84c-.16,1.55-.95,2.37-.5,4.16,1.09,4.33,5.53,2.91,7.51,5.77,1.29,1.86-.38,4.48,1.63,5.86,2.55-.55-.02-6.43-.73-8.1-1.14-2.71-3.92-3.71-5.06-6.51-.34-.84-1.51-3.16.16-3.68,1.07-.33,1.81,1.34,2.66,1.23,3.94-.5-1.44-4.17-2.76-5.08-4.79-3.26-3.46.32-2.95,3.88.17,1.2.16,1.24.04,2.48ZM314.03,45.98c.92,2.62,1.17,4.23,3.33,6.19.93.84,2.09,1.19,2.17,2.64.04.69-1.1,1.31-1.01,1.97.15,1.11,2.11,4.86,3.68,3.35,1.37-1.31-1.31-4.32-1.63-5.75-.63-2.84-.44-3.9-2.09-6.4-1.52-2.31-2.84-4.73-4.42-7.02h3.1c-1.1-1.32-3.34-3.94-5.35-2.22-1.97,1.68,1.57,5.39,2.22,7.24ZM320.01,73.97c.12-.33.23-.66.35-.99-1.61-.86-3.14-1.98-4.9-2.49-.3,1.37.02,1.79,1.08,2.85,1.55,1.55,1.51,1.46,3.47.64ZM317.52,81.04c.57,1.06.97,1.79,1.36,2.52,2.02-1.16.54-2.43-1.36-2.52ZM312.43,54.61c-.95-.87-1.8-1.65-2.83-2.59-1.8,1.47,1.13,3.63,2.83,2.59ZM306.33,58.21c-1.36-.73-8.47-3.8-7.41.44.49,1.96,3.33,1.54,4.77,1.75,2.28.34,3.29.93,4.96,2.59,2.48,2.46,3.52,8.6,6.53,4.55-2.16-4.02-4.71-7.11-8.85-9.33ZM310.3,87.76c-.58,2.94,3.67,1.4,4.66.69-.58-1.08-4.28-2.58-4.66-.69ZM298.02,80.6c.81,3.61,7.07,6.82,5.7,1.05-.72-3.04-4.85-.34-3.41-4.07,1.32.38,2.49.71,3.94,1.13-.14-2.94-1.15-5.09-3.38-7.01-.79,1.86-.58,2.76-2.43,2.61-.51-.04-3.16-2.66-3.29-.23-.08,1.54,1.9.96,2.61,1.99.7,1.01-.01,3.33.26,4.54ZM306.65,93.18c-.21-2.1-2.38-4.25-1.06-6.29-.19-.15-.37-.3-.56-.44-3.73,2.08-1.63,5.21,1.62,6.73ZM309.03,68.81c-1.35-.9-2.56-1.7-3.78-2.51-1.14,2.46,1.89,4.6,3.78,2.51ZM297.82,52.32c1.06.91,2.1-.2,3.14.25,1.91.82,3.28,3.76,6,2.23-1.3-1.16-2.26-2.13-3-3.66-.41-.85.25-1.51-.71-2.29-.88-.71-5.09-.6-5.72.1-.81.9-.65,2.56.29,3.37ZM296.23,61.58c.05-1.04.83-4.28-.69-4.66-.72-.18-1,1.04-1.14,1.5-.53,1.67.75,2.15,1.83,3.17ZM294.1,66.39c1.43-.15,2.54-.27,3.8-.4-.31,1.19-1.49,3.65,1.11,3.51,2.1-.12.28-2.7.02-3.74-.35-1.41.82-2.9-1.44-3.23-1.81-.27-2.7,2.49-3.49,3.86ZM290.03,54.34c1.84,1.7,1.74,1.46,3.48-.34-1.71-1.8-1.65-1.29-3.48.34ZM289.25,79.05c.56,2.46,2.17-.01,3.22-.23-.93-.98-3.81-2.37-3.22.23ZM288.4,90.55c-2.39-1.67-3.2-2.4-4.27.19-.84,2.05-.22,2.18,1.3,3.35.07-.01.14-.03.21-.04,1.49,1.84,6.78-.7,2.76-3.5ZM287.84,71.34c-.49-1.93-1.99-5.61-4.83-4.69-3.53,1.15,3.45,4.41,4.83,4.69ZM273.07,54.47c-1.4.25-2.33.42-3.51.64,1.82,1.73,4.97,1.44,7.06,2.78,2.49,1.59,3.31,2.92,6.46,3.51,2.03.38,4.52,1.4,3.88-1.5-.53-2.39-4.88-3.4-6.71-4.25v-1.23c-1.22-.63-2.32-.52-3.46-1.31.82.57-.68-1.31-.69-1.31-.76-.7-2-1.29-2.89-1.9-.45.93-1.04,2.14-1.62,3.35.33.27.71.59,1.49,1.23ZM278.05,69.28c-.78.92-1.23,1.44-1.58,1.86,1.24,1.62,2.45,5.27,4.85,3.12,1.97-1.77-1.73-3.61-3.27-4.97ZM266.79,65.69c1.96,2.4,3.53,3.01,6.42,4.18,1.07-3.1-4.24-5.2-6.42-4.18ZM268.41,61.27c1-.59,1.68-1,2.36-1.4-.89-.66-1.79-1.33-2.68-1.99-1.29,1.78-1.13,1.74.32,3.4ZM260.61,47.27c.52,1.17.93,1.31,1.97,1.95-1.41,3.99,1.44,3.14,4.82,3.3-.59-3.06-3.06-6.72-6.79-5.25ZM257.12,60.62c.32,1.15,1.31,7.22,3.85,5.33,1.24-.92-2.12-7.5-3.85-5.33ZM255.7,53.24c-.11,1.04-.22,2.09-.33,3.13.24.05.48.09.72.14,1.91-1.52,1.91-2.39-.39-3.26ZM253.74,44.12c-3.95-.97-4.29,1.76-.93,3.09.02-.09.04-.19.06-.28,3.25,0,5.03-1.8.87-2.82ZM246.38,33.22c-.76,2.98,7.93,8.1,7.89,3.68-.03-2.27-6.9-7.55-7.89-3.68ZM241.03,17.46c1.01,1.53,2.34,1.83,3.54,3.06.2.21,1.29,2.18,1.72,2.81-1.29.53-3.84.22-3.38,2.29.31,1.41,5.82,1.2,6.95.63-.79-1.22-1.73-2.26-2.67-3.36.55-.58.94-.98,1.36-1.43-1.06-1.18-1.49-4.07-2.57-4.79-1.31-.87-3.78.17-4.94.79ZM239.98,40.21c1.94,1.16,3.29,2.01,5.53,2.39.8-4.75-2.45-4.38-5.53-2.39ZM227.27,28.19c2.16,1.34,4.62.43,6.83-.18,1.78,1.61,5.76,8.65,8.9,5.25,3.4-3.68-4.42-5.47-6.24-5.98-2.22-.63-3.57-1.14-5.63-2-1.1-.46-4.02-1.49-5.07-.66-1.58,1.24-.07,2.79,1.2,3.59ZM232.48,35.36c1.07,1.74,1.5,2.63,3.35,3.4.7-2.32-1.47-6.71-3.35-3.4ZM224.82,48.62c.37,3.09,5.09,2.77,7.03,1.57-1.26-.75-7.5-5.54-7.03-1.57ZM223.44,39.93c-.1.2-.21.39-.31.59,1,.59,2,1.19,3.41,2.02-.89-3.06-1.23-3.29-3.1-2.61ZM220.04,31.47c-1.84,2.04,2.99,2.87,3.51,1.87.8-1.5-2.75-1.73-3.51-1.87ZM218.58,22.89c3.66.68,2.56-1.56.14-2.75-3.31-.09-2.71,2.27-.14,2.75ZM211.34,36.09c.17,3.4,5.08,1.98,6.26.3-1.3-.62-6.45-4.08-6.26-.3ZM214.4,49.66c-.63-1.04-2.47-1.56-3.56-1.15-3.92,1.44.76,3.29,2.41,4.28,1.41-1.21,2.2-1.38,1.15-3.12ZM206.53,25.54c2.65,1.99,3.7,3.25,6.99,1.75-2.06-2.14-3.78-1.97-6.75-2.28-.08.18-.16.35-.24.53ZM204.57,39.98c1.25,1.88,1.69,1.97,3.93,2.44,1.42-2.96-1.73-3.42-3.93-2.44ZM200.35,32.52c1.14,4.52,4.91,1.34,6.77-.16-1.47-.88-8.12-5.21-6.77.16ZM200.41,52.57c-.81.71-1.23,1.08-1.65,1.45.84.82,1.67,1.63,2.51,2.45,1.79-1.93.93-2.02-.86-3.9ZM197.76,27.31c.68.2,1.35.41,2.03.61.13-.29.26-.58.39-.87-1.45-.83-1.53-1.16-2.42.26ZM194.01,36.64c.87.67,4.62,3.61,4.36.53-.21-2.52-2.89-1.13-4.36-.53ZM180.95,31.39c1.54,1.03,2.34,2.29,3.94,1.15-.16-2.36-2.66-2.23-3.94-1.15ZM175.51,44.72c-1.04.19-2.03-.21-3.02-.06-1,.15-1.89,1.15-2.85,1.16-1.86.01-5.59-3.72-6.25.06-.66,3.83,3.73,1.44,5.18.75.83,1.94.86,4.08,2.8,5.14.93.51,5.92,1.24,6.46-.04.85-2.02-3.8-2.37-3.86-3.99-.07-2.2,2.04-1.47,2.97-.47,3.08-.05,3.91.8,6.64-.9-2.74-3.48-4.59-2.26-8.07-1.65ZM171.73,43.93c1.11-1.84.94-2.26-2.12-5.16-2.81,2.01.46,3.76,2.12,5.16ZM168.15,27.67c2.95,1.43,6.48,3.12,9.04.9-2.4-2.54-3.42-2.4-6.91-2.4-.14-.21-.28-.42-.41-.63-.57.71-1.14,1.42-1.72,2.14ZM161.22,30.88c2.7.09,2.83,6.75,5.89,3.94,3.18-2.92-3.75-5.03-5.81-4.43-.03.16-.06.32-.08.48ZM160.79,38.36c2.71-.57,1.38-3.32-.83-3.5-2.92-.24-1.63,3.45.83,3.5ZM157.17,31.47c.45-1.64,1.02-3.13,1.64-4.71-1.55-.36-4.44-1.62-5.09.4-.56,1.72,2.4,3.41,3.45,4.31ZM151.09,48.12c1.32-1.54,1.04-4.46-1.99-4.04-3.84.54-.41,4.04,1.99,4.04ZM147.55,38.49c-2.81-2.38-3.66-1.01-1.42,1.65.7-.81,1.06-1.23,1.42-1.65ZM155.02,34.7c-.07-2.01-2.57-3.23-4.28-3.3-5.39-.22-.54,3.04-.85,5.37,1.9,0,5.22.61,5.13-2.08ZM142.65,23.66c1.3.46,10.02,2.25,7.76-1.3-1.7-2.67-5.68.37-7.72.62-.01.23-.03.45-.04.68ZM140.81,51.53c.67,1.9,7.17,2.25,7.16-.5-1.18-.48-8.2-2.42-7.16.5ZM141.93,57.62c-.36,1.06,1.65,3.58,2.67,3.74.89.14,2.45-1.54,3.04-1.93-1.11-1.06-4.56-5.21-5.71-1.81ZM135.5,44.03c.11-.13.22-.26.32-.38,1.52-.21,4.41-.11,4.19-2.26-.14-1.36-2.27-2.36-3.44-2.54-4.22-.65-3.18,3.19-1.07,5.18ZM130.39,45.85c-2.01-1.5-2.02-4.04-4.92-3.69.49,2.9.38,4.1,2.87,6.08,1.58,1.26,4.91,4.28,6.3,1.36-1.32-2.47-2.24-2.24-4.26-3.74ZM124.64,38.92c1.38.15,6.37,1.19,4.95-2.04-1.32-2.97-3.99.91-4.95,2.04ZM121.08,49.83c-1.7-.34-4.52-2.58-3.61.87.78,2.98,3.57,1.5,5.55,1.66,2.09.18,3.3,1.75,3.49-1.35.28-2.77-3.78-.86-5.42-1.19ZM116.27,40.19c.41,3.41,3.2,4.79,6.02,3.24-.05-.18-.11-.37-.16-.55-2.01-.72-3.23-3.25-5.85-2.69ZM109.68,48.52c2.01-.34,4.08-.12,5.89-.98-2.44-2.69-4.87-2.87-8.38-3.05-1.52,1.91-1.18,2.71,2.49,4.03ZM105.16,54.5c3.02-1.62-1.57-4.19-3.12-4.2-1.15,1.51-1.03.72.05,2.31.2.3,2.45,2.23,3.07,1.89ZM106.81,57.18c-1.87.09-2.46,1.18-3.69,2.37,2.04,1.25,6.58,6.27,7.05.96.18-2.06-1.21-3.44-3.36-3.34ZM119.75,69.08c2.94,1.4,2.68-1.88,4.78-2.4,2.71-.67,2.66,3.73,4.99,4.63,1.1.42,5.94-.14,6.4-1,1.49-2.82-5.02-2.22-5.78-2.73-2.56-1.71.91-3.32,3.07-3.34-1.16-3.18-2.21-4.93-4.48-7.41.07-.16.14-.32.21-.48,1.85,0,5.1-.43,6.47,1.32.6.77-.21,1.7.45,2.35.82.81,3.35.07,4.37-.03-.84-1.19-1.83-1.27-2.52-2.56-.84-1.56.03-2.85-2.06-3.84-1.81-.86-10.14-.64-10.44,2.34-3.16,1.96-2.94,3.02-.08,5.17.75.57,1.14.93,1.99,1.34.56.27,1.93-.03,2.3.78.9,1.9-2.71,1.35-3.59,1.33-2.1-.07-4.21-.19-3.66-3.06-6.18.33-6.25-12.88-12.65-9.2,1,.88.77,2.19,1.44,3.19.5.76,1.71,1.25,2.06,1.78,1.02,1.58,1.03,3.85,2,5.8.91,1.8,2.76,5.07,4.72,6ZM137.61,85.92c-.51.67-1.02,1.35-1.54,2.02,1.6,1.16,1.67.75,3.29-.43-.81-.74-1.28-1.17-1.75-1.59ZM128.28,101.31c-1.91,3.32,4.79,1.83,6.12,1.31-.83-1.73-4.75-3.69-6.12-1.31ZM125.17,104.98c-.65-.47-3.17-.73-3.69-.08-2.31,2.89,3.83,3.97,5.06,4.26-.09-1.69.06-3.15-1.37-4.18ZM115.46,111.07c.23.94,2.05,2.15,2.97,2.2,5.19.3-.53-3.74-1.84-4.68-.15.08-.29.15-.44.23.1.97-.94,1.2-.69,2.25ZM103.65,124.33c-.04.33-.08.65-.12.98.82.17,1.65.35,2.47.52.03-.5.07-1,.1-1.5h-2.45ZM99.99,120.85c-.45,2.55,3.94,1.27,5.35.73-.54-.76-1.71-3.18-2.71-3.32-.65-.09-2.58,2.26-2.64,2.58ZM101.48,110.88c-1.83-1.3-8.08-6.5-6.57-.85,1.24,4.67,3.75,1.1,6.57.85ZM91.41,68.86c.18,2.08,2.69,2.71,4.26,3.59.09-.15.18-.31.27-.46,5.22.12,1.7-4.71-1.62-5.05-1.91-.2-3.1-.22-2.91,1.92ZM91.79,85.07c5.38-.33,1.26-3.77-.53-5.11-1.51,1.91-3.68,5.37.53,5.11ZM89.46,139.46c.13.17,2.66,1.89,2.88,1.84,4.52-1.18-2.2-5.43-3.23-5.92-.64,1.99-.91,2.42.35,4.09ZM79.37,147.98l-.59-.35c-.72.65-1.45,1.3-2.17,1.95.08.24.16.47.24.71,1.89-.39,1.96-.47,2.52-2.31ZM77.65,171.92c-1.79-1.89-2.49.44-3.47,1.92,1.51.12,5.99.75,3.47-1.92ZM83.15,161.72c.88-2.23-1.11-6.27-4.18-4.82-2.29,1.08,3.12,4.02,4.18,4.82ZM85.01,149.64c-.4-.43-.8-.86-1.21-1.29-1.08,1.24-1.59,1.59-1.4,3.2,1.62-.51,1.67-.71,2.6-1.91ZM83.82,153.38c.44,2.52,2.03,1.99,4.02,1.93v-6.29c-.93.2-1.87.41-2.81.62.18,2.11.78,2.3-1.21,3.74ZM80.36,142.93c-1.03,2.62,4.92,1.42,6.11.93-1.58-.84-4.98-3.8-6.11-.93ZM80.01,136.1c3.76-.33,3.44-5.58-.15-5.1-4.64.63.65,3.5.15,5.1ZM75.08,147.98c2.35-1.89,4.92-7.51,4.6-10.43-2.43,1.43-2.46,3.82-4.01,6.15-.52.78-3.83,4.32-.59,4.28ZM73.64,164.03c.2.14.4.27.6.41.61-1.08,1.22-2.15,1.83-3.23-.18-.11-.37-.22-.55-.32-1.63.41-1.65,1.85-1.88,3.15ZM68.08,185.46q2.11-.33,1.97,2.71c1.77-.52,5.57-1.28,2.62-3.45-.75-.55-5.07-.35-4.59.74ZM66.25,218.23c.24.03.48.06.72.09.41-.86.83-1.73,1.41-2.94.27-.03.82-.08,1.6-.16-.86-.89-5.01-5.52-6.09-2.5-.71,1.99,3.32,2.46,2.37,5.52ZM61.58,191.25c-1.41,1.72-1.1,2.38-3.3,3.27.52,1.19,1.09,2.49,1.52,3.45,1.23-.58,2.36-1.11,3.79-1.79-1.33-1.34-2.39-2.79-2-4.93ZM57.27,218.97c1.73.68,5.6,3.18,5.55.15-.01-.99-2.55-2.6-3.42-2.4-.94.22-1.63,1.6-2.13,2.25ZM60.43,227.88c1.84,3.05,4.37,1.56,7.38.9-2.67-1.64-3.8-1.69-5.13-.56-.97-1.3-.93-1.27-2.25-.34ZM64.25,203.04c-.18.09-.36.17-.53.26v1.64c-.7-.66-1.25-1.17-1.79-1.67-.14.1-.28.2-.42.3.15,1.56-.24,2.67,1.85,2.78,2.88.15,1.71-1.81.89-3.3ZM70.21,192.65c-.45-2.18-3.2-3.82-4.89-5.16-.36.61-.71,1.23-.91,1.58.41,4.09,2.03,3.73,5.81,3.59ZM71.27,201.54c3.14-1.85-3.23-4.39-4.53-5.14,0,1.64,1.84,6.72,4.53,5.14ZM69.05,168.38c-.82-1.93-3.58-4.77-4.44-.91-.75,3.34,2.66,1.64,4.44.91ZM65.6,181.23c-1.33-1.27-3.96.33-4.39-2.63-4.99,5.05,3.42,8.23,4.39,2.63ZM59.95,187.17c-1.81-2.26-5.77-5.58-6.42-.79-.1.13-.19.25-.29.38,2.18,1.58,4.29,1.59,6.71.41ZM56.25,200.5c.11.05.35-.21.56-.35-2.81-1.95-5.77-3.52-8.15-1.04.71,2.61,3.1,3.86,4.58,2.28.93-.99,1.74-1.42,3.01-.89ZM54.37,225.81c3.74.65.31-.62,2.55-1.59,1.03-.45,1.69-.19,2.74-.72-1.2-1.07-2.66-1.27-4.18-1.72-.33,1.18-.72,2.61-1.12,4.03ZM52.49,252.47c1.31-.13,2.89-.28,4.47-.44,0-.26,0-.53.01-.79-.95-.05-1.84-.32-2.67-.78.63-.76,1.38-1.37,2.25-1.83-.07-.13-.15-.26-.22-.39-.5.02-.99.05-1.56.07-.32-1.49-1.03-2.36-2.29-1.98v6.14ZM49.65,266.86c-1.69.4-2.14,2.16-.36,3.05.81.41,1.64-.85,2.69-.59.81.2,1.37,1.45,2.24,1.72,1.92.59,2.18.41,2.18-1.92-1.85-.35-4.83-2.72-6.75-2.26ZM46.71,272.01c-3.81.94-3.27,4.52.36,3.83-.01-1.41,1.01-2.82-.36-3.83ZM50.57,261.31c-.75-.43-1.49-.86-2.37-1.37,1.2-.58,1.21-.9,1.76-2.03-2.23.3-2.94.91-4.5,2.48,2.01,1.36,2.67,1.2,5.11.91ZM51.7,293.19c1.99-.23,2.16-2.34,1.34-3.66-.86-1.4-3.8-2.32-5.26-3.14-.08,2.12.55,7.19,3.92,6.8ZM48.93,295.11c1.24,1.13,2.08,1.89,3,2.72-.23.56-.47,1.15-.71,1.75,7.61.77,1.49-3.95-2.29-4.46ZM57.36,281.57c.35-2.9.64-3.4-1.58-5.23-1.73.85-2.73.78-2.37,2.68.25,1.31,2.77,2.34,3.95,2.55ZM57.15,287.88c.73-.32,1.47-.64,2.2-.96-.01-.16-.02-.33-.03-.49,2.35,1.73,3.07.23.97-1.24-2.94-2.05-4.11.3-3.14,2.69ZM69.74,380.94c-1.05.56-1.72,1.44-2.53,2.31,1.86,1.73,4.42,4.09,7.02,2.3-.86-1.33-4.37-8.36-6.12-6.1.87.25,1.41.75,1.64,1.49ZM71.16,392.63l.26.52c3.15-1.07,7.29,3.48,5.13-2.74-.22.08-.43.15-.65.23.26.93.51,1.86.77,2.8-.2.09-.39.17-.59.26-.93-1.8-1.87-3.59-2.99-5.75-.8,1.95-1.36,3.32-1.92,4.69ZM77.38,378.78c-1.8-1.11-1.8-1.22-3.29.26.1.16.21.33.31.49.9-.06,1.79-.12,2.69-.18.1-.19.19-.38.29-.57ZM74.71,370.65c-.52-1.87-.63-3.75-2.23-4.92-.33,1.95,1.01,2.97-.75,4.69,1.17.09,1.91.15,2.99.23ZM74.16,338.58c-.71-.79-1.8-2.17-3.01-2.17-1.32,0-1.47,1.13-2.72,1.31-.05.12-.09.24-.14.36,2.9,1.73,3.21,2.36,5.87.5ZM71.99,324.91c-.43-1.03-.68-1.65-.93-2.26l-.63.24c-.41.86-.32,1.56,1.56,2.02ZM74.35,314.65c-1.96-2.55-3.61-2.42-6.81-2.93-.07.16-.14.31-.21.47,2.82,1.9,3.1,2.57,3.74,5.87-.55.22-1.01.41-1.73.7,3.37,1.06,3.23-3.29,5.01-4.11ZM65.75,342.36c.03,1.06.05,2.13.08,3.19.74-.06,1.48-.12,2.28-.19-.69-1.57-.77-2.43-2.35-3ZM65.87,304.23h2.28c-1.72-1.27-3.62-1.25-4.6-.19.64.93,1.93,3.97,3.34,2.99,1.68-1.16.2-2.17-1.02-2.8ZM68.87,284.54c-.18-3.68-1.71-3.45-5.11-4.84.97,3.43,1.8,3.49,5.11,4.84ZM64.89,274.04c-1.63-1.16-1.92-1.72-3.7-.87.49.85.98,1.7,1.63,2.82.88-.83,1.48-1.39,2.07-1.95ZM62.18,250.06c-2.67,1-.33,2.75.68,3.87.96-1.2,2.82-5.18-.68-3.87ZM62.6,296.27c.05-.18.1-.35.14-.53-1.33-.79-2.26-1.68-3.33-2.58-.51-.43.53-1.37-.73-1.46-.78-.05-.92.4-1.42.95,1.45,3.09,1.77,4.42,5.34,3.62ZM61.14,311.29c.29-.35.59-.71.71-.85-.03-.82-.16-4.06-1.72-3.72-2.36.51.55,3.88,1.01,4.57ZM65.01,319.82c.06-.25.11-.5.17-.75-1.87-.73-2.16-2.26-2.22-4.14-4.11,3.21-2.16,4.48,2.05,4.89ZM65.11,328.8c.73-1.5.22-6.83-2.5-5.39-3.32,1.75,1.15,4.62,2.5,5.39ZM70.25,353.89c-.43-1.68-.8-3.15-1.3-5.13-1.13,3.13-3.41,1.5-5.51,1.92,1.81,2.41,3.75,3.21,6.81,3.21ZM71.69,360.19c-1.76-1.44-3.25-.62-5.45-.18-.12.2-.25.39-.37.59,2.3.85,4.07,1.35,5.82-.41ZM70.76,374.39c-.92-.38-6.69-3.77-6.72-1.09,2.95,2.71,4.42,5.51,6.72,1.09ZM69.31,398.33c1.51-3.61-4.35-4.33-6.32-2.46,1.17,1.43,4.51,6.78,6.32,2.46ZM74.47,407.59c-.78-1-4.37-6.44-5.93-3.12-1.21,2.58,4.08,4.63,5.93,3.12ZM77.45,402.62c1.83-3.19-2.45-3.23-4.38-3.57.21,1.33.46,2.83.74,4.58,1.38.36,2.81.44,3.64-1.01ZM86.55,439.91c0-3.29-4.96-10.36-8.67-8.46,1.39,1.52,4.05,2.76,5.13,4.4.46.71-.01,1.66.61,2.51.47.64,2.28,1.21,2.92,1.54ZM79.24,410.35c.22.65,2.72,2.25,3.33,1.93,2.03-1.06-.65-4.05-2.32-4.08-1.47.89-1.49.72-1.02,2.15ZM87.96,411.45c-.97-3.13.47-5.33-3.5-6.51.15,2.17,1.33,3.93,1.64,6.26.5.07,1.02.14,1.86.25ZM85.51,427.18c-.16,4.2,3.04,1.78,5.96,2.23-1.46-2.58-4.23-.58-5.96-2.23ZM83.92,442.73c1.98,1.06,2.71,1.75,3.92,3.65,3.55-2.71-.63-6.68-3.92-3.65ZM90.78,438.32c.69-.43,1.12-.7,1.54-.97-2.54-3.45-7.11-1.07-1.54.97ZM95.76,449.35c.14-.26.28-.52.42-.78-1.47-1.28-2.11-2.29-4.06-2.12.44,1.96,1.84,2.08,3.64,2.9ZM97.66,457.71c.27.06,3.69.45,3.84.36,3.56-2.1-6.71-3.91-7.58-4.04-.18.15-.36.3-.53.45,1.14,1.76,2.13,2.73,4.27,3.22ZM105.22,467.48c-.63-3.88-4.02-5.02-7.91-4.29,2.44,2.85,4.01,4.09,7.91,4.29ZM114.03,470.35c-.09-1.93.01-1.78-1.48-2.79-.68-.46-2.78-1.52-3.52-.63-2.32,2.79,3.56,3.19,5,3.41ZM119.64,478.79c-1.02-2.02-2.5-2.17-4.62-2.96-.54.47-1.11.97-1.68,1.46,1.98,1.56,3.91,2.46,6.3,1.5ZM120.85,472.48c-.03.23-.07.47-.1.7.65.47,3.72,3.19,4.08.95.28-1.77-2.69-1.49-3.98-1.65ZM130.25,438.67c.02-1.64-3.48-5.35-4.81-3.35-1.43,2.16,3.01,4.96,4.81,3.35ZM149.08,437.14c-1.05-1.38-4.86-.6-6.45-.6l-.07-.29c-4.49,1.9,2.82,3.99,4.83,3.57,1.38-.29,3.1-.84,1.69-2.68ZM157.07,480.03c-.13-.34-.26-.7-.45-1.2.61-.05,1.09-.1,1.57-.14.07-.14.14-.29.2-.43-1.86-1.29-4.31-.84-5.57,1.28,1.74-.58,2.56,2.21,4.25.49ZM160.47,489.25c-1.2-2.93-3.97-3.79-6.67-2.28,2.41.83,4.54,1.56,6.67,2.28ZM165.67,483.04c-.42-.83-.73-1.44-1.02-2.01-2.53.39-2.95.89-2.71,3.56,1.28-.53,2.43-1.02,3.72-1.55ZM164.51,432.13c-1.39-1.21-2.01-.97-3,1.17,1.44.73,2.28-.06,3-1.17ZM169.52,434.31c-.76-2.65-2.28-2.02-4.93-2.18,1.49.66,2.98,1.32,4.93,2.18ZM168.52,484.06c0-.2,0-.39,0-.59-.55-.29-1.1-.58-1.66-.87-.11.11-.22.22-.33.32.64,1.27.6,1.41,1.99,1.14ZM170.29,491.51c-.97-.17-1.95-.33-2.92-.5-.02.22-.04.44-.06.65.95.19,1.9.39,2.85.58.04-.25.09-.49.13-.74ZM174.85,463.52c-.26.16-.52.32-.78.49-.72,1.25,1.98,2.66.78-.49ZM175.82,484.76c.72.05,1.44.09,2.75.17-.63-1.07-.97-1.65-1.32-2.24-.55.51-1.1,1.02-1.65,1.53.07.18.14.36.22.54ZM180.66,472.81c-1.04-.6-3.48-2.56-4.46-1-2,3.18,3.96,1.23,4.46,1ZM180.82,488.58c-1.21-1.44-2.53-2.26-2.84.36.95-.12,1.89-.24,2.84-.36ZM182.73,481.38c-2.97-1.58-3.24,1.92-1.91,3.64,1.77-.24,4.93-2.03,1.91-3.64ZM183.8,460.06c-.08-.32-.15-.64-.23-.96-.8.19-1.6.39-2.4.58.69,1.31,1.25.74,2.62.37ZM189.83,455.75c-1.01,1.39-.44,2.35,1.05,1.31-.29-.36-.58-.73-1.05-1.31ZM192.18,427.6c-.68.29-1.35.59-2.24.98,1.51,1.66,2.79.85,2.24-.98ZM186.58,477.08c-.3,2.05-.55,3.81-.83,5.76,2.11-.87,3.36-.41,3.83-2.89.55-2.87-.53-3.52-3-2.86ZM194.6,487.3c-1.38-.59-5.96-3.54-5.92.04.04,3.15,4.73.85,5.92-.04ZM201.23,486.3c-1.84-1.63-.42-3.5-.62-5.57-.15.17-.3.33-.46.5-2.66-.48-4.74-.92-7.36-.09.07-.17.15-.35.22-.52-2.68-2.94-2.12.92-2.02,2.9,2.26-.2,4.34-.38,6.52-.57.18,1.71-1.63,2.78-1.51,3.79.34,2.71,4.45.02,5.22-.45ZM209.76,449.44c2.17.59,3.75,2.17,5.75.92-.46-.84-.88-1.61-1.33-2.43,2.65-1.37,3.71-.85,6.47-.66.05-4.1-6.13-1.21-8.16-.67.92,2.41-2.27,1.35-2.73,2.84ZM208.22,463.84c.07.14.14.27.22.41,1.47.87,2.56,1.6,4.23,1.97.3-3.22-1.81-2.62-4.45-2.38ZM205.92,472.52c.02.2.05.39.07.59,3.05,0,7.8,1.38,10.18-.75-2.28-3.24-7.15-.66-10.25.16ZM206.29,423.54c-1.59-.84-2.23.17-3.68,1.17,2.03.64,2.09.32,3.68-1.17ZM199.5,474.25c1.09-.17,2.18-.33,3.76-.57-1.7-.75-2.83-.9-3.76.57ZM203.64,418.97c-.87-.2-1.73-.39-2.6-.59-.07.29-.13.58-.2.87.86.2,1.73.4,2.59.6.07-.29.14-.58.21-.88ZM200.2,457.85c-1.78,2.33-.83,3.01,1.32,1.39-.34-.36-.67-.71-1.32-1.39ZM199.48,451.97c-.02-.15-.04-.31-.05-.46h-3.77c.03.29.05.58.08.87,1.25-.14,2.5-.27,3.75-.41ZM195.15,478.3c1.39,1.02,2.62.46,3.96-.06-1.48-1.26-2.52-1.25-3.96.06ZM207.92,476.75c-.16-.17-.33-.33-.49-.5-1.75.49-3.49.97-5.24,1.46-.01.15-.02.3-.03.45,3.13.81,4.13,1.5,5.76-1.4ZM221.51,479.05c-3.02.97-6.4,1.1-9.2,2.33-1.11.49-.99.94-2.14,1.29-.54.17-1.23-.3-1.73-.08-1.56.67-1.64,1.17-.88,2.63,1.3-.76,1.95-1.59,3.32-1.93,1.38-.34,2.94.2,4.35.03,2.74-.33,5.24-1.52,6.28-4.27ZM218.94,465.34c-2.38,1.57-.16,4.55,2.18,4,3.49-.82-.88-3.12-2.18-4ZM227.9,478.4c-.64-2.09-.74-1.36-2.45-1.42.01,0-2.55.35-2.49.3-2.07,1.71.96,2,2.48,1.39.82.24,1.64.15,2.46-.28ZM223.5,440.83c1.43.98,1.91,1.51,3.59,1.19-.56-2.45-1.09-1.96-3.59-1.82,0,.21,0,.42,0,.63ZM234.68,474.34c-.79-.62-4.11-4.07-4.85-1.94-.87,2.48,3.57,2.41,4.85,1.94ZM231.47,465.04c.13-.32.27-.63.4-.95-1.22-.47-1.93-1.29-2.55.02l2.15.93ZM249.67,457.73c-.01-.17-.02-.33-.03-.5.73-.39,1.46-.78,2.31-1.23-1.34-1.57-3.25-.2-4.11,1.05-1.14,1.66.15,3.5-2.72,2.99.03-.13.06-.26.08-.38.53-.24,1.07-.49,2-.91-3.87-.98-1.82-3.33-4.1-4.98-2.41-1.75-7,1.86-2.22,2.57,0,.1.02.2.03.3-.48.2-.95.4-1.5.63.36.24.54.57.56.99-1.42-.72-10.41-3.2-8.36.73.4.77,2.63.96,3.35,1.87.89,1.15,1.2,3.22,1.67,4.59-1.67.76-3.6,1.64-5.53,2.52.04.21.09.42.13.63,1.26.33,2.61.25,3.72.85.91.5.83,1.26,1.95,1.75-.06-.81-.09-1.3-.11-1.56,1.61-.74,3.05-1.41,4.49-2.08-.08-.17-.15-.34-.23-.51-.87.48-1.74.44-2.61-.11,2.44-3.81,11.08,1.31,9.92-5.23,3.4-.77,6.52-2.95,1.33-3.99ZM237.46,447.76c3.38-.66,4.15-3,.32-3.49-1-.13-4.11-.27-4.12,1.39,0,1.35,2.77,1.73,3.8,2.1ZM252.34,450.93c-2.06-2.17-5.32-1.87-6.11.46,3.54.8,5.04.71,6.11-.46ZM264.72,454.14h-5.07c1.37,2.14,2.48,2.24,5.07,0ZM267.86,447.37c-1.73-1.75-2.46-2.58-3.59-4.98-.53.22-.95.39-1.42.59.28.5.51.92.77,1.39-2.01.3-3.89.58-5.78.87-.73-1.84-.96-1.92-2.51-.72,1.26,2.79,1.52,3.25,4.1,2.75,1.33-.26,6.74-1.06,3.54,2.01-2,1.93-4.64-.7-6.16,2.64-1.01,2.22-.55,3.42,1.77,4.01.4-.68.72-1.23,1.05-1.79h0c1.34-2.5,2.47-2.99,5.53-2.32,1.84.41,3.31,2.41,4.48.34.85-1.52-.82-3.83-1.77-4.78ZM278.69,447.42c-.69-4.5-3.32-1.78-6.23-2.97,1.95,1.51,3.62,3.35,6.23,2.97ZM345.37,292.18c.85,1.41,1.42,8.02,2.94,7.53,2.43-.78-.98-6.65.41-8.3.75,1.3,1.81,4.43,3.6,4.49,2.73.09,3.07-3.56,3.27-5.41h-2.52c-.05-.86-.09-1.73-.14-2.59,2.7.31,5.15.91,6.67-1.83.98-1.77.48-4.14,1.45-5.89.48-.87,1.26-.75,1.74-1.82.33-.73.35-3.07-.01-3.89-.34-.77-1.27-1.24-1.76-1.96-.59-.86-.75-1.99-1.56-3.01.23-.32.46-.63.69-.94-2.93-2.44,1.85-2.36.34-5.33-1.21-2.4-3.87-.04-5.07-2.11,1.5-5.32,5.75-.06,8.13,1.89,1.02-2.99-.63-5.42-1.38-8.15-.99.25-1.95.5-3.12.79.21-.91.35-1.53.55-2.42-1.46-.1-2.84-.2-4.22-.29-.01-.18-.03-.35-.04-.53.77-.21,1.53-.42,2.24-.62.3-.9.58-1.75.9-2.74-1.85-.19-3.38-.16-4.95-1.19,2.09-3.06,6.5-4.4,3.36-8.79-.88-1.22-2.76-1.85-2.98-3.42-.16-1.13,1.46-3.12,1.95-4.07-1.04-.1-1.67-.16-2.46-.24,2.19-2.88,1.97-5.38-1.55-6.89.72-1.81,1.27-7.45-2.5-6.11.73-1.74,2.38-4.25,1.63-5.94-.69-1.55-3.59-1.58-1.93-3.94-2.01-2.13-2.99,1.55-4.86.75.36-.93.68-1.73.99-2.54,1.18-.47,1.95-2.07,3.37-1.83,1.24.21,2.59,4.38,3.05,5.47,2.88-2.77.45-3.76-1.14-4.99.04-.48.08-.97.13-1.56-1.24-.13-4.31-.68-4.37-2.48-.03-.74,2.64-2.92,3.12-3.45-1.1-1.56-3.87-.15-4.24-2.46.71-.66,1.34-1.25,2.07-1.93-.83-.49-1.32-.86-2.19-1.51.97-1.09,1.96-1.95,3.07-2.89-1.59-1.73-3.84-3.47-3.47-5.96.15-1.02,1.15-1.83,1.27-2.93.11-1.06-.44-1.66-.56-2.6-.19-1.53.48-3.83-1.6-4.04-2.77-.28-1.92,3.28-1.98,5.01-.87-.68-1.55-1.21-1.87-1.46,0-1.78.1-2.99.72-4.65.95-2.53,1.04-2.01.11-4.61-.53-1.47-.62-9.52-3.66-7.85-1.57.86-.37,3.38-.23,4.57.28,2.33-.49,3.88-.65,6.15-.17,2.34.94,3.77,1.37,5.89.41,2.04.09,4.28-.31,6.3-.5-.16-.99-.32-1.48-.48,1.34-3.33-.72-8.69-1.77-12.15-1.31-4.31-1.44-8.73-2.45-13.09-.97-4.18-1.55-8.35-3.12-12.35-1.02-2.59-1.22-7.03-2.99-9.16-1.24-1.5-2.8-1.34-3.78-3.36-.83-1.7-1-3.72-1.69-5.48-1.27-3.25-2.97-6.33-4.87-9.03-1.96-2.8-2.62-6.54-4.8-9.56-2.25-3.11-4.96-5.9-7.52-8.75-2.31,3.1,2.11,2.84,1.13,5.45-1.5-.99-2.98-1.86-4.23-3.12-1.14-1.15-.34-2.24-2.7-1.95.94-2.64-.82-4.85-3.7-5.18-1.08-.12-2.44-.24-2.77,1.07-.29,1.17,3.27,2.07,4.15,2.45.35.66.68,1.3,1.09,2.09-2.45,1.07-4.35-2.83-6.8-2.47-2.77.41-.87,2.47.34,4.24.34.5,1.91,3.09,2.26,3.26,1.33.63.54-.19,1.95-.16,1.57.04,1.74-.47,2.97,1.45.6.93.87,1.24.88,2.33-2.01-.1-2.65-3.52-4.3-.7-1.36,2.33,1.19,3.71,1.89,5.38-.69.15-1.24.28-1.96.44.15,1.18.72,4.4-1.42,3.73-1.35-.43-2.45-5.03-2.85-6.2-1.77-5.14-3.88-9.77-6.51-14.55-4.8-8.69-11.56-17.94-19.87-23.57v4.11c-1.62-1.99-3.47-1.87-5.73-2.25-2.31-.39-4.23-1.18-6.37-2.14-4.4-1.98-5.81-3.22-10.17-1.14v2.79c-2.26-1.56-3.29-5.21-6.86-3.25.23.3.46.6.69.91-2.39,1.29-2.71.07-4.72-.95-1.85-.94-3.11-.86-5.1-.34.36,1.5.71,1.78-.61,2.57-1.01-1.76-2.59-1.38-4.11-.97-.11-1.62,1.09-2.98-.26-4.28-1.38-1.34-3.28-.44-4.13.97,1.2.09,2.41.19,3.61.28-2.06.2-2.27,1.14-1.34,2.62-3.7,3.26-4.48-1.1-8.68-1.19-2.38-.05-3.04,1-5.4,1.47-2.24.44-4.08-.32-5.97,1.49,1.22,2.57-2.84,5.71-2.31.8-.86-.13-1.73-.15-2.59-.06-.4-.8.56-1.77.06-2.4-.43-.55-2.88-.78-3.46-.45-2.9,1.66,1.89,5.1,3.3,6.69-.98.09-1.64.76-2.66.53-.7-.15-1.07-1.31-1.68-1.6-2.28-1.09-3.93-1.5-4.97.95,1.19.43,2.11.71,3.13,1.46-1.56,1.64-3.45.62-5.4,1.03-2.04.42-3.68,1.83-5.48,2.98.11-1.13.07-2.2.01-3.34-1.56.43-4.5,1-5.85,1.83-1.97,1.2-.87,2.41-2.23,3.85-1.6,1.69-2.84-.97-4.5.05-1.47.9-.39,2.83-2.73,3.71-.13-1.03.1-1.96.68-2.78-2.14-1.49-4.23-1.65-6.57-2.64-.27,4.23.57,4.41,4.47,5.14.06.2.12.4.18.59-1.66,1.05-3.31,2.1-4.97,3.15-.03-.25-.07-.5-.1-.75-2.11-.45-2.68-1.06-3.79.8.99.06,1.59.1,2.19.14-1.76,1.96-3.9,2.68-5.74,2.54-1.32,1.21-2.27,2.09-3.3,3.03-1.22-1.85-.59-4.54-3.68-4.59-4.71-.06-1.22,2.64-.56,4.12,1.87,4.21-8.98,8.77-12.01,10.25,0,0,0,0,0,0-6.89,5.53-13.56,11.39-19.38,18.05-1.86,2.13-3.93,6.51-6.71,6.09-.89-.14-4.17-3.16-5.06-.44-.51,1.53,2.23,2.31,3.11,2.79.66-.38,1.36-.78,2.06-1.19.53,2.38-3.2,6.45-4.49,8.51-1.09,1.74-2.68,6.09-5.3,5.41,1.19,3.37-.55,5.28-2.88,6.92-.31,2.53-2.04,11.39-5.08,12.11-.72.17-1.57-1.39-2.42-1.02-2.44,1.06.45,2.17.71,2.52.7-.17,1.14.05,1.34.67-.1.85-.31,1.68-.63,2.48-.43,1.55-.89,3.14-1.43,4.65-.42,1.19-.9,3.12-2.11,3.84-1,.59-2,.11-3.05.63,2.03,3.15,2.43,7.09.95,10.75-.68,1.67-1.59,2.56-1.96,4.28-.37,1.7,1.04,2.83-.92,4.21,1.01,1.38.26,5.39-.31,6.84-.08.2-.57.98-.61,1.19-.31,1.7,0,2.64.05,4.6.06,1.95-.19,7.24-1.64,8.81-2.09,2.26-5.14-.21-7,2.99,1.66,0,5.21-.73,6.35.91,1.33,1.9-.77,5.12-1.44,6.95,1.85,1.81,1.38,4.46-1.08,5.76.59.44,1.14.84,1.67,1.23-.58,2.09,1.08,4.52-1.14,6.36-1.41-1.59-4.48-2.49-2.58-4.56-2.51-.49-6.07-.17-7.1-2.7-.9-2.21.19-4.38,1.03-6.13-2.09-.21-2.95.6-4.74,1.74,3.44.24,3.89,7.08-1.43,3.92l-.34.51c.29.41.59.82.88,1.23-1.21,3.18.94,2.91,3.49,2.92-.06.73-.11,1.46-.17,2.19,2.25-1.02,4.97-4.31,7.2-.91.9,1.36.51,2.31,1.64,3.59,1.18,1.34,1.49,1.52,2.02,3.56-.43.16-.86.32-1.29.48,1.57,1.94,1.81.59,1.88,3.49.07,3.34.3,3.99-3.4,3.65-.09.27-.18.55-.27.82,2.7,1.57,4.95,1.76,3.11,4.75.07.85.16,1.99.28,3.45-.12.16-.44.62-.83,1.15,4.23,3.1,1.35,5.81,2.63,9.49.43,1.24,2.24,5.34,1.52,6.65-.76,1.38-2.46.94-4.06.94-.03.21-.07.42-.1.63.53.36,1.06.73,1.46,1-.44,1.04-.84,1.96-1.23,2.89,1.79.96,3.34,1.8,5.24,2.82-1.07.5-1.8.85-2.73,1.29,1.31,1.28,4.96,1.49,1.92,4.39-.29-.59-.79-.9-1.52-.94.24,1.15.61,1.91,1.12,2.95,4.41.74,2.12,2.79,1.89,5.55-.19,2.24,1.16,2.07,1.79,3.88.52,1.51-.34,2.58-1.04,3.9,0,0,0,0,0,0,3.92,4.02,2,6.92-1.07,10.95,2.25,0,6.88.06,4.8,3.82-1.24,2.26-3.58-.16-4.6,1.98-1.17,2.46,6.4,4.51,7.01,6.78.5,1.84-1.35,3.15-1.2,4.89.1,1.2,1.44,1.72,1.9,2.76.29.66.74,2.1.61,2.89-.2,1.29-1.75,1.98-1.52,3.51.15,1.03,1.76,2.07,2.26,3.1.73,1.53,1.43,3.65,1.95,5.26.42,1.28.07,2.54.39,3.7.38,1.37,1.7,2.22,2.15,3.61.02.06.1,1.9.2,2.26.43,1.61,2.27,1.42.64,3.26,2.19,2.98,2.96,5.82,4.52,9.2-2.07,0-5.39-.5-5.4,2.56,1.7-.51,1.86-.05,3.17.24.01,0,2.38.8,2.38.81,2.02,1.51,2.75,4.92,3.77,7.22.53,1.19,1.92,3.34,2.12,4.61.35.4.47.84.36,1.32.04.57-.31.87-1.05.91-.37,2.57-.3,2.75,2.37,1.6,1.53,3.51,2.55,7.11,4.57,9.97,1.24,1.76,1.22,3.72,2.25,5.52.98,1.72,2.58,3.24,3.7,4.9,2.75,4.08,5.91,5.52,10.29,7.65,2.11,1.02,3.13,1.54,5.56,1.02,1.84-.39,3.92-2.42,5.66-1.32-1.25.99-2.49,1.98-3.69,2.94,2.2,1.64,3.94,3.03,6.89,2.61,2.8-.39,3.21-1.89,4.2-4.42.25,0,.5,0,.76,0,.19,1.04.39,2.09.61,3.28,2.65-1.94,3.75-2.23,6.44-.62,2.11,1.26,3.46,2.08,6.2,1.46-1,.86-1.66,1.43-2.48,2.13,2.61-.36,3.38.06,3.13-2.58-.2-2.15-2.6-2.74-1.98-5.07-2.59-.24-4.85,2.2-7.35.5.67-2.11,5.51-3.77,7.49-3.28,1.49.37,2.2,2.13,3.32,3.01,1.49,1.18,3.18,1.44,4.95,1.98.86-2.17-1.45-2.52-2.63-3.7-.6-.6-.26-1.24-1.05-1.9-.51-.43-1.23-.67-1.82-.97,4.23-.72,5.36,2.16,7.86,4.75-.29-2.99,1.73-2.44,3.98-3.51,2.15-1.03,4.49-2.61,7.02-2.79,2.78-.2,4.12,2.09,6.88,2.45,3.2.41,4.11,1.46,7.61.7v-1.6c.1.13.2.26.3.39.72-.39,1.53-.64,2.17-1.15.55-.43.02-1.06.64-1.47,1.03-.67,2.25-.13,3.21-1.16,2.82-3.01-3.5-3.78-5.08-5.45,1.33-1.48,1.72-2.29,3.49-2.06,2.37.3,3.4,2.26,3.57,4.24,1.36-.22,6.86-.79,6.54-2.88-.37-2.41-4.11-.67-2.77-4.7,2.45,1.21,4.4,3.72,5.44-.53.31-1.25-.23-2.26.45-3.43.49-.84,1.84-.8,2.36-1.86.45-.91.02-1.95.34-2.97.39-1.21,1.94-2.56,2.65-3.65,1.95-3.01,3.09-6.15,4.25-9.52-.15-.14-.29-.27-.44-.41-5.83,2.03-11.7,3.91-17.55,5.85-4.11,1.36-9.93,5.02-14.23,4.49,1.19-2.92,5.73-3.35,8.56-4.46,1.8-.7,3.71-1.18,5.49-1.91,1.65-.67,2.86-2,4.5-2.62,5.84-2.2,14.36-3.56,18.23-9.22,2.6-3.8,4.09-8.6,6.17-12.7,1.2-2.36,4.19-9.89,6.76-10.88,2.15-.83,1.57,1.36,3.11,1.86,1.45.47,2.94-.69,4.24-1.01,2.35-.57,7.27.56,8.48-2.7-1.07-.18-2.14-.35-3.22-.53.01-.15.02-.31.04-.46,1.86-.34,3.72-.69,5.7-1.05-.29.51-.53.94-.79,1.4,5.23,1.38,3.99,1.63,5.46-2.75,1.3-.2,3.75-.22,5.01-.86,1.47-.75.84-.62,1.61-1.84,1.72-2.73,1.1-3.75-2.36-4.56,1.76-2.23,14.47-3.31,13.42-6.46-.67.18-1.27.34-2.35.63,1.26-3.15,1.75-2.78,5.11-2.78.13.27.26.53.38.8,2.46-3.17,5.41-6.4,6.67-10.29.43-1.31,1.34-4.45.14-5.63-.73-.72-2.56-.39-3.51-.82.82-1.33,1.59-1.73,2.87-2.61-2.6-1.21-3.71-2.08-.8-3.2,3.07-1.18,6.4-.8,9.35-2.39-.18-.07-.35-.15-.53-.22-.21-2.5-.48-3.65-2.08-5.59,5.01-.23,6.84-1.03,10.38-4.67,2.96-3.04,4.79-7.27,8.3-9.74,3.55-2.5,7.06-2.69,11-3.94,3.73-1.19,5.18-4.35,8.68-5.86,8.07-3.48,13.76,4.29,17.49,10.45ZM344.53,391.78c-.67,1.05-1.91,2.39-2.28,3.61-.21.71.72,1.11.44,1.84-.49,1.27-2.28,2.36-3.25,3.35-3.15,3.21-3.75,7.15-6.3,10.81.21.15.42.31.63.46,1.24-1.29,2.2-2.78,3.74-3.75,1.57-.99,3.51-1.16,4.97-2.38l-.03-.63c-1.4-.35-2.79-.7-4.25-1.06,1.03-.8,1.83-1.98,3.01-2.56,1.01-.5,2.65-.23,3.39-.77,2.54-1.85,1.22-6.68-.07-8.9ZM353.72,400.48c-1.84-.35-5.03-1.67-6.7-.5-1.94,1.36-1.59,3.66-.71,5.28.12-.07.24-.14.36-.21-.12-.36-.24-.72-.35-1.07,1.77-.88,4.73,1.02,5.31-2.51.71-.12,1.38-.23,2.05-.35.01-.21.03-.43.04-.64ZM351.58,394.29c-1.47,1.33-1.49,1.74-.2,2.8,1.74,1.43,3.18.18,4.78-.46.29-2.99-2.16-4.54-4.58-2.34ZM364.87,386.28h-4.23c0-3.02.37-6.8-3.52-4.02-1.43-2.5-3.25-.76-5.08.24-.09-.16-.18-.32-.27-.48.32-.43.64-.86.96-1.29-.11-.14-.22-.28-.33-.41-1.43.68-4.1,2.14-2.32,3.7.5.44,3.15-.15,3.93-.05,1.24.17,2.17.53,3.32.99-.69,1.59-3.78,5.4-2.79,6.92.49.76,3.11-.1,3.89.66,1.69,1.64-.91,2.89-2.25,4.1.84,2.35,7.29-4.76,5.08-6.67-.41-.35-2.91.84-3.2-1.01-.28-1.78,2.73-1.84,3.91-2.16-.23.76-.37,1.22-.55,1.82,1.93.46,2.3-1.01,3.45-2.33ZM368.61,378.79c-1.22.23-2.05.39-3.11.59,1.81-3.25-1.56-2.26-2.71-3.4,1.04-1.05,2.05-2.06,3.35-3.38-2.12-.52-3.44.34-4.74,1.87-1.73,2.04-1.18,3.44-.01,5.68.79-.9,1.41-1.61,2.04-2.33.14.09.29.17.43.26-.5.97-1,1.94-1.54,2.97,3.32.33,1.2.71,2.24,3.92,1.45-2.21,2.58-3.95,4.05-6.19ZM360.61,364.32c-2.22,2.16,0,1.44,1.46,1.52,2.18.13,3.78,1.19,5.88.75-.15-3.16-4.94-4.61-7.34-2.28ZM363.52,353.85c-.49.48-.99.96-1.78,1.73,2.72,2.56,4.26,1.03,1.78-1.73ZM368.95,345.21c-.15-.08-.31-.16-.46-.24-.45.79-.9,1.58-1.48,2.6,2.23.04,1.89-1.29,1.94-2.36ZM367.17,323.86c1.55.43,10.76,3.35,7.52-1.44-1.95-2.88-9.01.22-11.83.78.89,1.13,5.32,8.38,7.5,5.79,2.08-2.47-4-2.25-3.19-5.13ZM371.86,335.78c-.9,1.49-.85,2.52-.97,4.21,1.64-1.52,3.22-2.51.97-4.21ZM377.87,332.54c.17-1.17-2.62-3.81-3.21-4.68-1.18,1.73-2.04,3.29-3.46,4.87.13.28.26.57.39.85,1.21.05,5.98,1.01,6.28-1.05ZM382.48,316.24c-1.08-1.16-4.26-2.29-5.37-.74-1.16,1.61.65,4.1,1.27,5.59,2.23-.69,7.27-1.42,4.1-4.85ZM391.34,324.41c1.13-3.9-4.03-4.12-6.59-3.19.25.62.51,1.23.94,2.3-1.76.73-5.4,1.7-6,4.02-.2.8,1.36,4.8,2.02,5.4,2.9,2.66,7.82-3.34,6.64-5.77-.64.61-1.16,1.1-1.64,1.55-.66-.79-1.24-1.5-1.8-2.16,2.23-3.85,4.96,2.86,6.42-2.16ZM400.16,341.65c-.4-3.23-3.45-2.22-.29-4.69-.45-.12-.79-.22-1.09-.3.14-.55.25-1,.37-1.46-.12-.08-.23-.15-.35-.23-.66.52-1.33,1.03-1.99,1.55-.13-.13-.26-.26-.39-.4.65-.83,1.3-1.66,1.95-2.48-.14.03-.29.05-.43.08-.18-1.14-.23-5.66-1.07-6.17-1.24,1.09-2.5,2.15-3.8,3.17-.46-.73-.87-1.38-1.28-2.04-3.78,4.45.92,4.28,2.55,8.13.74,1.75-.2,3.03.03,4.68.19,1.32,1.12,2.3,1.9,3.32,2.1-.79,4.14-1.13,3.88-3.17ZM404.65,329.84c-.4-1.31-.78-2.59-1.17-3.86-1.1-.07-2.18-.13-3.28-.19.18,2.14,2.46,4.2,4.45,4.05ZM292.63,43.53s.02,0,.02,0c0,0,0,0,0-.01l-.02.02ZM25.62,258.16c1.16,2.99-2.21,2.82-3.86,2.97-1.1,1.4-2.27,2.79-3.32,4.22-.4.53-1.67,2.54-2.13,2.84-2.19,1.43-5.2.34-5.55,4.15-.76-.71-1.25-1.16-1.77-1.64.79-.51,1.35-.87,1.92-1.23l-.12-.41c-.89.05-5.69-.65-3.61-2.54.69-.63,3.47.44,4.53.46-.61-1.95-3.47-4.18-2.13-6-.74-.16-1.33-.29-1.97-.43-.45,1-.52,2.53-2.3,1.46,1.49-2.06,3.62-3.2,6.06-3.9,3.58-1.02,4.18.18,3.41-4.08,2.63-.4,2.33.68,3.44,2.5,1.72,2.85,2,1.55,4.53.97,1.44-.33,2.34-.7,2.86.65ZM17.37,261.43c-1.11-2.28-2.47-2.45-4.93-1.26,0,.19.01.38.02.58,2.06.88,2.86,1.47,4.92.68ZM212.68,8.39c1.05.84,1.04,2.06,2.03,2.91,1.25,1.07,3.07,1.1,4.62,1.25,1.7.17,3.47-.19,4.8,1.06,1.14,1.08,1.23,2.62,2.73,3.55,1.58.98,6.64,1.47,5.19-1.55-.21-.44-2.36-1.63-2.91-2.17-.82-.8-2.05-2.32-1.97-3.48.06-.81,1.45-1.41,1.5-2.36.05-.81-2.91-4.19-3.83-4.18-4.21.08,1.12,4.18,1.08,5.65-.09,3.97-7.41.45-9.05-.14.83-.73,1.25-1.09,1.75-1.53-1.08-.47-2.09-1.64-3.27-1.86-1.22-.23-1.8.54-2.89.42-2.64-.29-4.25-1.78-7.15-.98,1.55,3.05,5.02,1.54,7.36,3.41ZM379.75,387.35c-1.63-1.46-.41-.41-.06-3.05-.98,1.06-1.38.2-1.64-.49-2.98,1.68-4.38,2.46-5.77,5.56-.21,0-.41,0-.62,0,.56.85,1.13,1.7,1.69,2.55.2-.01.41-.03.61-.04-.14-2.56.8-4.38,2.67-5.23.55.76,3.14,3.08,3.24,3.97.12,1.08-1.42,2.94-1.9,3.87-3.92-.79-4.12,2.59-5.99,5.33-1.78,2.61-5.52,2.11-3.92,5.6-.15-.08-.3-.15-.45-.23-1.92,2.32-3.76,4.81-5.98,6.87-1.68,1.55-4.64,2.87-3.81,5.65,3.16-3.14,6.08-7.56,9.74-10.01,2.89-1.94,4.31-4.25,6.7-6.93,2.07-1.18,2.33-2.39,3.86-3.89,1.87-1.83,2.93-1.8,3.86-4.7.3-.92,1.15-2.77.44-3.78-.97-1.38-1.7-.16-2.68-1.03ZM400.94,346.85c-1.22.09-3.93-.17-4.6,1.19-.42.85.56,2.77.69,3.8-2.02.22-1.64.3-3.01-.51.77,4.43-.37,6.01-2.86,9.71.1.1.2.21.3.31.38-.1.76-.19,1.13-.29.59,2.47-2.28,3.71-3.35,5.57-1.02,1.8-.15,3.49-2.09,4.37,0,.17,0,.34,0,.51,1.03.44,2.05.87,3.25,1.38.02.26.07.78.15,1.56,1.52-2.36.3-4.37,1.63-6.68,1.31-2.28,3.93-3.65,5.91-5.32-.12-.15-.25-.31-.37-.46-.54.11-1.08.21-2.08.41.52-1.53.94-2.75,1.43-4.17-.61-.54-1.19-.73-1.96-1.04,2.21-2.01,2.49-3.2,4.56-1.12,1.99-1.05,1.36-2.58,1.02-4.26-.45-2.23-.58-2.72.27-4.98ZM20.47,331.3c.52-3.5.24-3.63,3.03-2.83,1.79.51,3.1,1.93,4.72,2.5,1.4.49,4.55-.56,5.57.65.4.47.21,2.28.11,2.36.83.36,7.38,3.63,5.57.53-.34-.58-1.6.18-2.04-.22-1.61-1.46-.14-3,.62-4.6-.07-.21-.15-.43-.22-.64-3.23.68-6.53,1.73-9.27-.92-1.02-.99-.86-2.12-2.4-2.43-1.32-.26-2.81,1.01-4.3.73-5.3-.97-2.71-6.56-4.06-9.99-.35-.89-1.18-3.03-2.47-1.36-.9,1.17,1.1,3.98,1.62,5.16q-1.27,1.31,0,2.41c-2.09,3.51-.78,3.35,2.09,5.6-.81,2.85-.58,3.31,1.43,3.06ZM1.21,236.43c1.42,1.47,2.59,2.69,4.07,4.23.18-1.5.33-2.66.5-4.04.74.48,1.25.81,1.73,1.13.58-.68,1.92-2.93,2.85-3.12,1.46-.3.99.49,2.27,1.15,1.9.97,4.45,1.93,5.95.06-2.2-1.43-2.97-1.99-4.1-4.02-1.03-1.86.21-1.23-1.69-1.66-.94-.21-2.63.52-3.84.36-1.21-.16-2.4-.79-3.62-1-1.36-.23-3.04-.61-4.11.28.76.68,2.36.2,3.35.85,1.14.75,2.05,3.03,2.93,4.14-1.58.34-3.15.86-4.72,1.1-1.21.19-1.73-1.46-2.28.76.54-.16.87-.25.72-.21ZM40.48,220.98c-.38-.8-1.34-1.48-1.25-2.54.11-1.36.89-.91,1.38-1.9.5-1,.55-.6.79-1.45-.3-.49-.61-.97-.93-1.44.2-.37.39-.74.59-1.12-.22-1.44-.61-3.45-1.5-4.73-1.41-2.01-2.42-1.34-4.98-.86.61.78,1.07,1.37,1.52,1.95-.65.26-1.3.51-1.9.75-.32.67-.65,1.38-.85,1.8,1.97,1.04,3.87,2.04,5.77,3.04-1.04,2.18-2.13,1.17-3.12,2.54-.93,1.3,1.01,4.48,1.91,5.75.7.99,1.89,2.95,3.16,2.05,1.74-1.23-.14-2.93-.58-3.85ZM7.85,246.14c-1.59.63-1.66.91,0,2.6,1.32-1.67,2.93-4.57,5.22-5.07,1.99-.44,5.43.97,7.4,1.59.83.26,1.74.26,2.4.89.34.33-.59,1.49.21,1.88,1.39.67,1.79-.44,2.49-1.64-1.69-.59-1.8-4.12-4.7-1.88-1.01-1.3-1.95-2.51-2.85-3.66,1.22-.79,2.17-1.41,3.12-2.04-.16-.27-.32-.53-.49-.8-1.87,1.66-5.11,1.71-7.27,3.42-1.84,1.45-4.69,2.58-5.56,4.72ZM58.45,417.19c-1.4-.04-2.2,1.18-3.84.24-2.1-1.2-1.24-2.85-1.65-5.01-3.51.71-2.31,2.23-.79,4.71,1.34,2.2,2.96,4.24,4.51,6.32.69-.64,1.38-1.29,2.08-1.92,1.69.35,3.79.25,5.21,1.39.67.54,1.58,3.03,2.64,1.86,3.17-3.47-6.96-4.46-7.99-4.5l-.1-.62c.71-.43,1.41-.85,2.61-1.57-.91-.33-1.7-.89-2.68-.92ZM12.05,272.26c2.04,2.18,6.88,1.3,9.48,1.3.09.25.17.51.26.76-.53.25-1.06.49-1.49.69,1.7,1.34,3.12,2.46,4.57,3.6.41-.23,1.03-.59,2.06-1.17-3.27-1.74-4.98-3.74-2.69-7.29,1.19-1.84,2.05-1.32.65-3.14-.94-1.21-3.48-1.24-4.81-.94,1.08,3.03,3.13,2.38.74,5.71-2.84-.92-7.49-1.63-8.77.48ZM71.43,431.93c-.23-1.16-2.6-1.89-3.65-2.35-1.06-.46-2.98-2.3-2.41.68.29,1.5,2.24,2.24,3.37,2.94-.67,1.06-1.81,2.3-2.23,3.47-.55,1.57.81,1.88-1.26,2.96,1.43.71,3.66,1.2,5.18,1.64,2.01.58,4.2.96,6.06-.21-3.22-1.28-6.08-2.42-8.56-3.41.85-1.21,3.81-4.09,3.49-5.72ZM41.09,230.02c-2.57-1.46-2.98-.41-2.75-3.56-.98-2.51-3.27-1.78-5.34-1.04.7,1.31.94,1.51,2.38,1.92.64,3.86,1.53,7.18-3.7,6,.4,3.07,5.2,3.07,7.63,3.13-1.02-3.49-1.85-4.3,1.78-6.45ZM375.37,349.47c-.94,1.99,1.23,4.75,2.04,6.5,1.59-1.95,2.19-2.1,4.7-2.41.09-.18.18-.37.27-.55-1.03-.81-2.05-1.63-3.08-2.44.08-.27.15-.54.23-.82,1.77-.21,6.39.28,4.51-2.56-1.3-1.96-2.74-.15-4.31.36-1.7.55-3.49.07-4.37,1.93ZM292.26,35.24c-.47-.92-3.5-5.07-4.05-5.19-.64,1.01-1.28,2.02-2.04,3.23,1.62,1.34,3.31,2.74,5,4.14-.12.17-.25.34-.37.52-1.84.21-3.4-.27-4.69-2.04-.37,2.49,4.48,6.23,6.52,7.61.09-2.6.86-5.85-.37-8.26ZM292.63,43.53s.02-.02.02-.02c0,0-.01,0-.02-.01,0,.01,0,.02,0,.03ZM21.83,145.16c-1.54,3.12-.2,10.86,4.95,7.97-2.94-3.13-5.18-5-.14-6.85,0-.17-.02-.33-.03-.5-2.6-1.01-2.05-2.61-4.06-3.96-.51-.34-2.69-1.45-3.17-.18-.4,1.07,1.95,2.97,2.46,3.52ZM43.83,117.48c1.56,1.63,4.46,2.3,5.78-.08.92,1.15,1.5,1.49,2.88,2.06.48-2.45-.42-4.05-1.32-6.4.97.04,1.8.08,2.99.13-.93-1.56-3.46-2.6-5.1-1.11-1.34,1.21-.59,2.44-.54,4.3-.93-.1-3.62.82-4.68,1.09ZM65.03,125.63c-.43.81.45,1.77.3,2.55-.27,1.43-.52,1.02-1.24,2.01-.62.85-3.34,3.01.4,2.95,1.05-.02,1.32-1.16,2.14-1.3,1.07-.18,2,.53,3.02.75.06-.12.12-.25.18-.37-.89-.74-1.78-1.49-2.85-2.38.87-.33,1.39-.53,2.33-.9-2.71-2.11.5-3.58,1.72-5.54-1.21.26-5.37,1.04-5.99,2.23ZM36.02,116.04c.91-.25.64-1.26,1.15-1.48,1.13-.49,1.99-.33,3.15-.67,1.87-.55.61.69,1.6-.62.25-.34.44-2.41.32-2.82-.64-2.19-1.98-1.61-4.34-1.61-.03.19-.05.38-.08.57.81.31,1.61.62,2.9,1.12-3.61,1.36-5.33.95-7.3,4.41.56.3,1.87,1.3,2.6,1.1ZM30.56,117.21c1.04,3.83,3.66,1.72,6.31,2.65,2.19.77,2.82,4.37,5.07,2.08,1.54-1.57.94-1.8-.2-2.38-.67.43-1.31.46-1.92.1-.63-.17-1.13-.55-1.49-1.13-2.75-1.29-5.84-.45-7.98-3.29-1.08,1.21-1.86,2.23-.85,3.88.36-.66.63-1.14,1.06-1.92ZM192.97,15.27c-1.06-.28-5.07-2.08-5.91-.57-.78,1.39.89,1.84,1.78,2.42,1.61,1.05,8.64,2.18,9.37-.53-1.91.12-2.87-3.49-5.24-1.32ZM383.24,338.65c-.85,1.82-1.47,3.14-2.08,4.45.56-.09,1.12-.18,2.03-.33-.46,1.1-.76,1.81-1.19,2.81,1.91-.18,3.35,0,4.4-1.84.91-1.59.09-3.17,2.11-4.26-1.98-1.49-3.83-1.92-5.28-.84ZM30.87,216.71c-.41-.91-2.7-.67-3.43-1.8-.86-1.33-.44-4.85-.55-6.41.1,0,.2-.02.3-.03-1.03-3.51-3.03-3.15-2.59.47.23.6.59,1.12,1.07,1.57.12.8-.21,1.4-.97,1.79-.17,1.21-.98,1.75-.37,3.16.84,1.94,7.13,2.53,6.55,1.25ZM30.95,130.72c-.15.7-.25,1.16-.39,1.79,2.88-.37,3.43,2.57,5.53,3.63.31-.91.57-1.66.87-2.55-1.97-.56-2.12-3.66-5-2.84.38-2.7.24-5.56-3.01-3.07-3.13,2.4-.54,2.67,2,3.05ZM40.64,302.46c-1.25.58-2.79,1.01-2.02,2.63.64,1.35,2.87.99,4.01,1.29,1.84.47,2.74,1.1,4.83,1-.03-3.19-2.12-1.14-3.86-1.54.97-.93,1.62-1.56,2.6-2.5-2.66-1.49-2.96-2.08-5.56-.87ZM51.19,104.24c1.59,1.69,4,1.67,6.24,2.13.07-.18.13-.36.2-.54.45.27.89.55,1.34.82-4.5,4.7,2.87,2.79,2.67-.59-.16-2.62-8.37-3-10.44-1.83ZM12.49,203.88c.9.45,3.87.28,3.93-1.18.04-1.16-2.3-1.04-3.33-1.34,1.41-2.44,5.71-2.5,2.22-5.24-2.1,1.45-7.37,5.46-2.82,7.76ZM17.88,283.83c.83-.78,1.52-1.42,2.53-2.35-1.33-.9-2.57-1.74-3.88-2.64,1.17-1.12.12-2.44-.99-3.07-1.88-1.05-2.24.18-4.02.72,1.15.1,2.29.21,3.44.31.07.14.13.27.2.41-2.93,1.06.23,6.48,2.73,6.61ZM387.88,375.22c-.75.68-1.83,1.16-2.34,2.06-.38.66-.09,1.47-.47,2.1-.99,1.63-2.07,1.08-3.09,2.23,2.28,1.66-.38,2.47-.73,4.05,1.4-.04,6.5-.89,3.86-3.43,1.41-1.98,4.44-4.44,2.78-7.01ZM44.48,412.7c-1.79-1.21-1.37-2.15-2.2-3.74-.29-.57-.25-2.16-1.55-1.42-1.18.68.27,3.74.69,4.65.28.6.32,1.5.9,1.95.68.53,1.72.13,2.19.42,1.02.62.98-.85,1.36.65.05.19-.9,1.76-.93,2.14-.06.75.44,1.73.65,2.43.62-1.05,2.67-3.53,2.34-4.83-.4-1.57-2.35-1.51-3.47-2.26ZM44.97,171.23c-.45.83.71,1.83.66,2.62-.02.4-.95,2.34-1.08,2.84,2.5.55,5.57-.82,3.99-4.16.97-.51,1.94-1.03,3.11-1.65-1.05-1-5.82-1.25-6.68.35ZM19.2,213.99c2.59-1.56-.03-2.15-.91-3.3-.9-1.18-.81-2-.93-3.67-1.3-.11-2.27.26-3.52.61.64.33,1.29.67,2.31,1.2-1.36,1.23-2.74,1.76-2.08,3.33.37.88,4.02,2.5,5.13,1.83ZM21.12,305.39c-.5-.2-.97-.39-1.7-.68,1.53-4.52-2.82-3.09-4.76-4.56,4.58-4.21-1.26-3.06-.99.03-.48.34-1.01.73-1.97,1.42,1.96.59,4.23.45,5.71,1.95,1.05,1.07,1.68,4.49,3.71,1.84ZM26.89,161.12c-.85,1,.19,2.2,1.09,2.48,1.53.47,1.88-1.16,3.54-.26.98.53,1.68,2.5,2.17,3.37.3-.35,2.61-5.36,2.47-5.63-.62-1.22-5.15.43-6.45.35-1.07-.06-1.88-1.4-2.82-.31ZM25.84,231.43q-.71-2.78-2.7-1.99c-.37-3.07-3.4-1.41-4.75-.28,2.24,1.84,4.96,4.49,7.45,2.26ZM58.43,113.34c.86,1.13,1.58,2.07,2.15,2.82v3.96c1.05.07,1.95.14,2.86.2l.56-.94c-1.67-.77-1.51-1.21-1.7-3.06,1.84-.01,1.94-.12,3.34-.96-1.06-1.21-5.5-2.38-7.21-2.03ZM86.79,467.26s0,0,0,0h0s0,0,0,0c0,0,0,0,0,0,0,0,0,0,0,0,0,0,.01,0,.02,0,0,0,0-.01,0-.02,0,0-.01.01-.01.02ZM76.14,466.79c2.07,0,9.51,1.97,10.65.46-1.9-1.92-10.51-5.29-10.65-.46ZM6.87,275.5c-1.63-2.87-.07-5.96-1.61-8.81-1.01,1.04-1.13,1.56-1.34,3.01H1.78c2.2,2.06,1.89,5.71,5.09,5.8ZM31.03,302.17c-.82-.5-1.65-1.01-2.72-1.66,3.76-2.79-3.11-3.59-5.19-2.05,2.87.69,5.76,2.05,2.13,4.25.1.13.21.25.31.38,1.83-.12,3.67-.24,5.5-.36,0-.18-.01-.37-.02-.55ZM22.43,176.72s2.05,3.49,2.12,3.52c1.63.77,2.09-1.86,2.5-2.93-1.68-1.94-6.28-5.25-4.63-.59ZM389.19,216.36s0-.01,0-.02c0,0,0,0,0,0,0,0,0,0,0,0,0,0-.01,0-.02,0,0,0,0,0,0,.01h.02ZM389.4,219.41c1.74.91,3.07,1.13,3.22,2.83.13,1.51-1.3,1.57-.38,3.19,3.28-3.06,1.13-5.4-.66-9.07h-2.38c.21.93.43,1.85.64,2.78-.14.09-.29.18-.43.27ZM70.75,453.82c-2.59-.52-3-1.5-3.23-3.77-1.34-.88-2.48,1.09-2.24,2.15.16.68,1.63,1.42,2.14,1.77,2.02,1.35,3.81,1.53,6.18,1.89.63-3.52-.77-1.61-2.85-2.03ZM49.18,317.18c-.64-1.61-1.32-2.57-2.48-3.87.18-.13.37-.26.55-.39-.82-2.86-2.72-3.51-2.67-.12.04,2.92,1.94,5.23,4.59,4.38ZM31.23,170.85c-.73,3.56-1,5.57-2.91,8.74.15.11.31.23.46.34,4.14-1.04,5.95-6.38,2.45-9.08ZM46.12,352.62c-.11.24-.21.49-.32.73,2.27,1.98,3.3,3.2,3.83,6.15.25.02.5.03.75.05.34-1.05,2.03-4.42,1.49-5.42-.54-.99-4.67-1.28-5.75-1.51ZM58.76,144.67c1.57-2.21,2.31-4.36,2.68-6.97-2.88.98-2.58,2.17-3.38,4.5-.28.84-1.76,2.52-1.76,3.31.01,2.5,2.19-.46,2.46-.84ZM132.83,497.09c-.21-.71-.17-1.6-.44-2.25-1.16-2.74-1.1-2.6-4.08-2.44.68,1.94,2.33,3.34,3.2,5.24.24.53-.33,1.83.6,2.02.22.05,1.88-.61,1.98-1.15.18-.96-1.07-.82-1.25-1.42ZM137.64,22.95c.03.51-2.71-1.7-2.38-1.45-1.67-1.27.54-.65-1.36-1.26.42,1.85-.6,4.03,1.58,4.7q-2.66,1.21-1.4,3.52c1.4-.63,4.06-3.94,3.56-5.51ZM259.85,23.54c-.55.1-1.02.18-1.86.32,1.08,1.14,1.75,1.42,3.06.05,1.6-1.67.42-2.8-.63-4.23-.14.11-.29.23-.43.34-.05.38-.1.77-.15,1.15-1.75-1.67-.34-4.48-3.75-3.48,1.23,1.91,2.46,3.82,3.77,5.85ZM366.97,404.77c-2.6-3.55-8.06,1.96-9.01,4.97,1.73-.68,3.46-1.36,5.22-2.06-.51-2.17.66-3.3,3.78-2.91ZM97.04,479.06c-.11,1.7,1.4,1.4,2.09,1.76.35,1.34.65,2.52,1.1,4.29,1.07-.19,2.56-.45,4.06-.72.03-.16.06-.32.1-.47-3.2-1.62-3.32-4.74-7.35-4.85ZM44.61,123.84c1.65,5.72,4.28,1.31,6.1-1.04-1.18-.49-2.03-.8-3.32-1.04.15,1.87-1.08,2.05-2.78,2.08ZM31.78,312.52c-.37-1.72.25-2.86-2.02-2.02.48,2.25.22,3.64-.9,4.87,1.42,1.24,4.83,1.99,5.54,1.08-2.5-1.6-2.07-1.34-2.62-3.93ZM40.78,312.22c-.47.58-.95,1.16-1.55,1.9,1.16.42,1.88.68,2.84,1.03-.73.39-1.17.62-1.24.66-.19,1.24-.33,2.14-.48,3.15,1.75.72,3.03-1.99,3.11-3.39.17-2.77-1.19-2.02-2.69-3.35ZM195.64,10.67c-2.54-1.95-2.89-.46-5.36.22-1.92.53-2.64.27-4.49-.29.22.9.36,1.48.52,2.09,3.24-.44,6.43-.31,9.33-2.02ZM41.46,365.22c-.36,3.26,2.37,2.06,3.18,3.64.65,1.27-.49,2.26-1.33,3.59.12.15.24.3.37.44,1.15-.5,2.29-1.01,2.99-1.31-.75-4.24-1.24-4.22-5.2-6.36ZM30.41,186.61c-1.37.59-5.78,5.71-2.84,6.98,2.16.94,2.57-5.57,2.84-6.98ZM17.2,220.7c1.14.63,1.83,1.01,2.53,1.4.09-.14.18-.27.28-.41-.26-.34-.51-.69-.64-.87.82-1.57,1.55-2.98,2.29-4.42-1.48-2.55-3.65-1.48-3.67.76-.02,1.98,2.18,2-.78,3.54ZM25.13,313.08c-.37-.8-.46-2.11-1.46-1.98-1.59.2-1.89,6.04.8,6.01,1.85-1.36,1.66-1.91.66-4.03ZM75.09,444.95c-1.9.41-3.38.74-5.01,1.09,1.59,2.64,3.3,4.65,6.37,4.73l.36-.65c-3.4-1.91-3.51-1.78-1.72-5.18ZM38.26,368.12c-.74-1.54-4.28.83-5.37,1.3,1.24,1.5,2.35,2.84,3.46,4.18-.27-1.7,2.39-4.46,1.9-5.48ZM20.99,181.21c0-.23,0-.45,0-.68-2.18-1.21-4.05-3.37-6.22-3.45.12,3.11,3.36,4.52,6.22,4.13ZM21.58,182.26c-1.16,3.02,6.58,2.35,7.71,2.35.07-.19.14-.39.21-.58-1.02-.64-7.26-3.48-7.92-1.77ZM220,5.38c.21-.64.42-1.28.7-2.14-2-1.67-4.06-3.39-6.43-2.08,1.53,2.13,3.72,2.63,5.73,4.21ZM159.52,18.72c.89-.53,1.67-1,2.46-1.48-2.09-1.55-4.14-3.06-6.18-4.58-.19,3.15,2.59,4.02,3.72,6.06ZM266.84,30.52c.05-.24.1-.48.15-.72-2.73-1.17-4.35-2.47-7.1-1.14,2.37,2.15,3.71,2.1,6.95,1.86ZM59.77,83.74c-.58-1.52-1.46-6.35-3.66-4.12-2.29,2.34,1.56,4.57,3.66,4.12ZM12.12,211.63c-.54-.75-.98-1.49-1.73-2.05q2.3-2.14,1.19-2.75c-1.35,1.09-2.73,2.09-4.17,3.08,1.86,1.5,2.36,1.89,4.71,1.72ZM106.13,493.19c1.89,1.61,5.85,1.48,8.51,1.48.06-.21.12-.41.19-.62-2.32-1.82-6.04-2.38-8.7-.86ZM47.08,164.3c.43,1.32.76,2.32,1.19,3.65,1.61-.99,3.16-1.94,5.03-3.09-2.44-1.67-4.32-.78-6.22-.56ZM56.57,131.78c-1.35-1.88-2.86-5.56-5.22-5.88.33,1.16,1.17,1.34,1.61,2.35.47,1.1.17,1.93.4,2.95.52,2.35.87,1.76,3.22.58ZM46.09,184.5c-1.54-.84-5.38-4.09-6.67-1.31,2.37,1.16,4.37,4.16,6.67,1.31ZM7.9,225.54c1.42.88,4.57,1.8,6.27,1.93-1.49-4.41-2.33-3.64-6.27-1.93ZM388.14,172.33c.12-.19.23-.37.35-.56-2.78-.65-2.19-2.56-1.88-4.36-.24-.1-.48-.21-.72-.31-2.57,2.67-2.03,6.48,2.25,5.23ZM123.93,490.41c-1.11-.14-2.33-.29-3.76-.46.64,4.74,2.69,5.89,3.76.46ZM263.23,22.57c1.85.75,4.3,2.26,6.3,2.12-.75-2.98-4.62-5.15-6.3-2.12ZM49.1,95.22c-1.55-1.85-1.43-1.93-3.8-1.23-1.58.47-2.12.71-2.61,2.19,2.09.59,4.33-.43,6.41-.96ZM203.35,14.09c2.3-2.04-4.4-4.37-5.32-4.72-.15.23-.29.47-.44.7.99.97,4.33,5.28,5.76,4.02ZM20.47,167.85l-.17.37c.67-.11,1.35-.22,2.15-.36-.86-2.91-2.39-3.61-5.38-3.29,1.03,1.4,1.99,2.25,3.4,3.28ZM23.64,283.2c1.67,2.26,3.36,4.43,6.17,2.34-1.7-1.33-3.92-3.04-6.17-2.34ZM42.12,145.39c-.07-2.65-2.12-4.31-4.67-3.88.58,1.59,2.37,5.18,4.67,3.88ZM46.03,165.22c-2.54-2.49-4.48,3.76-4.88,4.82.04.18.08.35.12.53,2.34-1.23,3.29-3.14,4.76-5.34ZM49.58,360.74c-.61.21-1.43.5-2.25.78,1.72,3.54,9.95,1.32,2.25-.78ZM36.89,157.67c1.68-2.8-2.75-2.46-4.38-2.6.8,1.25,2.76,5.3,4.38,2.6ZM74.22,457.81c2.31.64,4.28,1.2,6.41,1.79-.72-2.19-.78-2.23-3.07-2.29-.29-.79-.53-1.44-.76-2.09-.92.87-1.73,1.68-2.59,2.59ZM25.23,291.96c-1.52-1.37-3.41-4.42-5.41-4.24.64,2.77,2.33,5.61,5.41,4.24ZM30.04,355.86c2.08-1.37,1.75-1.1.74-2.37-.8-1.01-3.05-1.96-4.39-1.95.62,1.95,2.22,2.86,3.65,4.32ZM65.02,108.02c-.63,1.69,3.99,2.95,4.92,2.85v-2.65c-.78-.12-4.52-1.28-4.92-.21ZM39.37,329.61c2.9.51,5.27.94,7.92,1.41-1.52-2.87-5.67-3.51-7.92-1.41ZM21.04,221.14c.63.69,4.78,4.83,4.49.95-.21-2.78-2.85-.72-4.32-1.46-.06.17-.11.34-.17.51ZM49.13,384.17c-.89-1.32-1.62-2.32-2.83-3.34-1.63,2.6-.04,4.81,2.83,3.34ZM34.9,152.59c.96.44,1.88.34,2.77-.29.04.12.08.24.11.36,5.6-1.36-1.81-4.22-2.88-.07ZM50.69,393.45c1.32,1.34,2.14,3.07,3.92,2.07.09-2.65-2.27-3.67-3.92-2.07ZM72.5,136.56c-.09-.99-.17-1.86-.29-3.21-1.81.3-3.76.62-6.15,1.02,2.56.87,4.55,1.55,6.43,2.19ZM33.12,151.04c-2.14,0-2.69.09-4.35,1.44,2.37,2.18,3.41,1.37,4.35-1.44ZM125.73,31.28c-2.45.38-4.39-2.31-7.16-1.25,1.41,2.22,4.67,2.76,7.16,1.25ZM50.56,391.79c1.24-1.48,1.1-3.63,1.36-5.51h-2.58c.46,1.8-.09,4.23,1.22,5.51ZM59.12,86.81s-.01,0-.02,0l.02.02s0-.01,0-.02ZM62.94,84.45c-.43-.64-2.25-.31-2.82.06-1.12.74-.88.94-1,2.29,1.24.45,5.08-.47,3.82-2.36ZM7.47,253.34c-2.28,1.23,1.04,2.94,2.21,2.98,1.04-1.3-.55-3.88-2.21-2.98ZM34.03,362.76c-1.49-1.57-2.34-3.1-.96-5.28-4.85,1.9-2.56,3.38.96,5.28ZM12.4,179.52c.69-2.28-1.66-2.34-3.46-3.48-.13.84-.41,1.72-.19,2.55,1.24.32,2.22.57,3.65.93ZM16.68,194.41c.08-.14.16-.28.23-.42-1.04-.67-3.71-3.38-4.57-1.32-1.17,2.81,3.31,1.98,4.34,1.75ZM153.2,15.65c1-2.46-4.33-.68-5.28-.49.02.22.04.45.07.67,1.49.4,4.32,2.03,5.22-.18ZM2.71,225.65c.63,1.03.96,2.57,2.39,2.01,1.37-.54,1.53-2.75.81-3.83-1.07.61-1.99,1.13-3.19,1.82ZM73.14,102.34c-.08.13-.17.25-.25.38-3.03,0-1.52,2.03.67,2.38,3.56.57,1.51-1.52-.42-2.77ZM127.89,29.54c-.44,3.22,3.44.16,4.07-.37-1.13-.74-3.74-2.04-4.07.37ZM145.57,16.73c-1.67-1.96-3.9-2.22-5.25-.72,1.1,1.43,3.1,1.74,5.25.72ZM69.41,117.8c.91,1.56,1.65,2.84,2.44,4.2,1.82-3.51,1.59-4.2-2.44-4.2ZM4.61,253.1c-1.43-.65-2.53-1.36-4.1-1.31.12.76.53,1.24,1.23,1.45-.67.2-1.16.34-1.73.51,1.42,1.61,3.9,1.09,4.61-.65ZM24.2,235.48c-2.68-1.29-2.1,1.79.25,1.94v1.44c2.31-.18,1.41-2.59-.25-3.39ZM33.09,354.63c1.14.73,2.07.79,3.4,1.01,1.03-1.14,1.28-1.22,2.57-1.76-1.31-.37-2.23-.63-3.36-.96-1.18.49-1.81.65-2.6,1.71ZM46.11,131.78c.35-.38.71-.77.88-.96-.04-1.07-1.12-3.78-2.6-2.86-1.31.82,1.07,2.97,1.71,3.82ZM129.5,25.97c0-.21,0-.41,0-.62-1.18-.86-2.36-1.71-3.6-2.61-.95,3.29.99,3.96,3.61,3.23ZM66.62,466.66c-.12.23-.23.45-.35.68,1.52,1.04,2.79,2.2,4.14,3.44.61-.76.89-1.64.81-2.62-1.62-.53-3.12-1.02-4.61-1.5ZM56.04,397.04c-2.14-2.1-3.04,2.48-3.02,3.57,1.11-.79,4.4-2.22,3.02-3.57ZM89.62,456.76c-.18,0-.36-.01-.53-.02-.42,1.03-1.59,5.35.11,5.76,1.91.46.64-5.07.43-5.74ZM13.77,284.87c-2.79.33-2.89-1.65-3.66-3.18-.12,1.45-1.89,2.98-.03,4.15,1,.63,2.32.47,3.68-.97ZM22.1,196.4c2.07-3.27.39-3.52-2.49-2.14.69.59,1.38,1.19,2.49,2.14ZM60.38,433.2q-1.52,1.1-2.6-1.55c-.98,1.06-1.81,1.97-2.81,3.06,1.07.07,6.41,1.12,5.42-1.51ZM71.72,457.66l-.1.53c1.38,2.3,1.76,4.87,4.35,5.06-1.2-2.38-1.72-4.58-4.25-5.6ZM114.39,488.99c-.88-2.16-3.88-.27-4.94.33-.02.15-.05.29-.07.44.82.09,5.88,1.36,5.01-.77ZM380.21,372.09c.95-.56,3.51-4.89,1.77-5.36-1.61-.44-2.07,4.44-1.77,5.36ZM41.9,418.09c-.73.13-1.28.23-1.84.32.12.2.24.39.35.59-.77,1.35-1.43,2.23-1.58,3.78,2.45-.76,3.27-2.26,3.07-4.7ZM41.21,429.01c1.48,2.57,3.7,2.48,5.29.11-1.8-1.83-3.37.9-5.29-.11ZM28.04,202.43c-.67-2.07-2.18-.41-3.39-.42.29.88.53,1.63.86,2.67.97-.81,3.18-.2,2.53-2.24ZM271.24,29.52c.96-.99,1.52-4.08-.61-3.37-2.58.85-.4,2.71.61,3.37ZM380.81,374.77c1.81.61,5.62-2.69,4.04-4.42-1.07-1.17-2.28,3.87-4.04,4.42ZM45.3,404.77c.02-.17.04-.33.06-.5-1.13-.53-2.27-1.05-3.4-1.58-.23.11-.45.23-.68.34.74,2.97,1.27,2.74,4.02,1.74ZM328.21,434.76c-.11-.8-.2-1.5-.29-2.22-4.89,1.56-2.09,4.12.29,2.22ZM24.09,132.85c.28-.01.57-.03.85-.04.57-1.89,1.93-3.79.01-4.81.12.98.2,1.55.24,1.92-.89.27-1.51.45-2.14.64.34.76.69,1.53,1.03,2.29ZM250.3,9.19c1.54,1.09,2.84,2.51,4.94,2.43-1.73-2.13-2.14-4.41-4.94-2.43ZM174.57,6c-1.63-1.34-2.73-.78-4.81-.44.03.25.05.5.08.76,2.1.45,3.09,1.07,4.73-.32ZM35.83,126.72c.91,1.57,2.25,1.63,3.97,2.17-.18-2.58-1.77-3.38-3.97-2.17ZM31.18,270.73c-.77.84-.61,2.3.46,2.84.72-.63,1.35-1.17,2.34-2.04-1.05-.83-1.71-1.99-2.79-.8ZM42.55,105.12c-1.85-.4-3.56-.77-5.61-1.21,1.9,2.73,4.12,3.23,5.61,1.21ZM357.94,409.76h.01s0-.01,0-.02c-.01,0-.02,0-.03.01,0,0,0,.01.01.02,0,0,0,0,0,0,0,0,0,0-.01,0ZM357.94,409.78c-1.07.79-2.14,1.58-3.32,2.45.84.66,1.49,1.18,1.97,1.56.73-1.05,1.36-1.95,2.1-3.01-.15-.21-.45-.6-.75-1ZM26.05,336.88c.04-1.86-3.29-1.77-4.3-1.7.05.2.11.41.16.61.64.44,4.09,3.36,4.13,1.09ZM301.72,16.39c-1.14-1.56-1.45-2.4-3.34-2.66.17,1.49,1.57,4.57,3.34,2.66ZM200.12,2.18C201.55.95,196.14,0,195.42,0c.97.78,3.26,3.42,4.7,2.18ZM73.72,99.14c-2.02.74-3.47,1.28-4.87,1.8,2.23,2.01,4.17.48,4.87-1.8ZM242.97,5.9c-.19.13-.39.26-.58.38.81,1.2,1.62,2.41,2.5,3.72,1.48-2.04.87-3.14-1.92-4.1ZM26.27,199.33c-.74-1.77-2.18-2.76-3.96-1.11,1.68,1.17,2.06,1.81,3.96,1.11ZM26.25,292.74c1.72.33,3.2.57,5,.86.04-.17.07-.34.11-.51-1.43-1.18-4.1-2.82-5.11-.35ZM6.56,184.06c1.43,1.06,2.46,2.19,4.26,2.14-.11-2.18-2.27-3.09-4.26-2.14ZM42.02,133.43c.55-.59,1.09-1.17,1.88-2.02-2.4-1.91-3.93-.24-1.88,2.02ZM62.1,123.46c-1.2-1.26-3.33-1.41-4.63-.24,1.46,1.16,3.35,1.22,4.63.24ZM193.01,7.45c-1.3-1.2-2.61-2.41-3.94-3.64-.38,2.68-.08,3,3.94,3.64ZM43.89,374.79c.02-1.87-3.21.34-3.89.78.06.15.11.3.17.45,1,.12,3.7.62,3.72-1.23ZM29.32,369.23c-.54,1.29-1,2.39-1.56,3.72,1.5,1.9,3.13-1.97,1.56-3.72ZM5.53,298.67c1.19.63,2.29,1.6,4.01,1.06-.93-1.81-2.8-3.11-4.01-1.06ZM30.23,147.15c-.24.86.95,1.06,1.51,1.21,1.83.47,1.69-.41,2.45-1.81-.88,0-3.65-.49-3.96.6ZM18.68,367.84c.11.12.21.24.32.36h2.97c-.06-.97-.12-1.84-.21-3.26-1.12,1.06-2.1,1.98-3.08,2.91ZM44.62,161.93c.6-1.96-2.89-2.18-4.03-1.71.61.41,3.59,3.12,4.03,1.71ZM5.46,282.06c-3.87,2.88-1.79,3.17,1.72,1.33-.65-.51-1.27-.98-1.72-1.33ZM5.38,222.4v-.39c-1.43-1.23-2-2.03-3.87-1.92.69,2.27,1.52,1.96,3.87,2.31ZM389.81,198.15c1.47-.56,2.32-.89,3.36-1.29-2.24-1.94-2.88-1.88-3.36,1.29ZM74.8,476.54c.21,1,.37,1.74.6,2.82,1.13-.91,2.03-1.63,2.92-2.34-.1-.16-.21-.32-.31-.47h-3.22ZM49.26,426.71c1.54,1.61,1.95.35,3.54-1.01-1.64-1.13-2-.17-3.54,1.01ZM42.02,193.51c.51-1.13.76-3.7-1.58-3.33-1.63.26.26,2.37.58,2.9.33.15.67.29,1,.44ZM18.64,160.62c1.17,1.41,1.43,1.46,3.48.71-.68-.72-1.33-1.41-2.07-2.19-.58.38-1.05.88-1.42,1.48ZM41.03,398.44c-1.72.27-2.35.73-3.82,1.62,2.21.56,3.71.99,3.82-1.62ZM36.89,348.74c-2.54-2.05-2.73-2.05-5.34,0h5.34ZM14.51,153.61c.51.13,1.03.26,1.5.39.2-.78,1.3-3.26.14-3.77-1.54-.67-1.06,1.56-.78,2.08-.45.26-.82.48-1.2.69.11.2.23.41.34.61ZM16.55,341.14c-.51-1.54-1.02-3.1-1.67-5.06-1,3.22.01,5.3,1.67,5.06ZM107.3,68.17c1.26-.59,2.37-1.12,3.72-1.75-1.44-1.29-5.3.15-3.72,1.75ZM122.54,497.3c1.03,2.74,1.25,2.92,3.19,2.57-.36-.82-.69-1.6-1.12-2.58-.69.23-1.39.24-2.08.01ZM95.64,490.25c1.59.47,2.77-.37,4.29-.99-1.36-1.56-3.51-.49-4.29.99ZM53.81,160.27c-2.82-1.17-4.31,3.88-.41.95.14-.32.27-.63.41-.95ZM397.35,361.09c1.83-.33,1.91-1.19,2.76-2.87-1.95-.49-2.68,1.35-2.76,2.87ZM64.77,437.9c1.32-1.01-2.74-2.69-3.4-2.99-.12.2-.23.4-.35.6.62.52,2.84,3.08,3.75,2.38ZM41.84,361.5c-1.75-.03-2.26.67-3.6,1.84,1.48,1.51,3.11-.64,3.6-1.84ZM32.25,380.13c-2.83,3.29-2.09,3.63,1,1.17-.53-.62-.76-.9-1-1.17ZM345.26,427.2c.09.13.19.27.28.4,1-.73,3.84-1.88,3.08-3.43-.52-1.05-3.14,2.75-3.36,3.03ZM27.69,363.52c.03-.2.06-.41.09-.61-3.28-1.95-4.77.89-.09.61ZM43.53,203.81c-.72-.3-4.12-.38-3.17,1.28.61,1.06,3.34-.11,3.17-1.28ZM392.57,204.46c.58,1.43.87,2.44,1.97,3.54.74-1.81-.24-2.38-1.39-3.93-.19.13-.38.26-.58.39ZM13.96,330.98c.07-.18.14-.36.21-.54-2.24-2.88-7.11-1.04-.21.54ZM53.6,109.95c.3.33.61.67,1.16,1.27.7-.69,1.22-1.19,1.74-1.7-1.49-.94-1.53-.7-2.9.42ZM21.23,247.86c-1.73-.18-2.62,1.06-3.8,2.12,1.58,1.05,1.62.45,3.8-2.12ZM56.69,440.02c.71,2.13,2.19,1.98,3.94,2.35-.89-1.91-2.2-2.1-3.94-2.35ZM52.46,432.96c.18-.02.37-.05.55-.07.69-1.55.15-1.75-.95-3.06-.87,1.4-.43,1.68.4,3.12ZM382.64,158.37h-3.16c.39,1.93,2.36,1.96,3.16,0ZM44.62,321.07c-.53-1.94-2.12.24-2.92.97.05.15.1.31.15.46,1.26,0,3.26.36,2.77-1.44ZM33.98,302.47c1.17.35,2.19.65,3.47,1.03-1.04-2.57-1.87-2.81-3.47-1.03ZM91.94,491.54c.35.14.7.28,1.05.43.4-.84.79-1.68,1.19-2.53-.45-.19-.9-.38-1.35-.57-.29.89-.59,1.78-.88,2.66ZM56.81,161.94h4.11c-.85-1.6-2.61-1.62-4.11,0ZM346.26,71.04c.12-1.07.23-2.15.35-3.22-.12-.15-.24-.31-.36-.46-1.58,1.43-1.09,1.83-.4,3.87.14-.06.28-.12.41-.19ZM38.38,376.69c-.84.24-1.68.47-2.52.71,1.09,1.55,1.21,1.19,2.91.35-.13-.35-.26-.71-.39-1.06ZM27.61,137.99c.25-.1.49-.19.74-.29-.5-1.08-1.01-2.16-1.67-3.6-1.65,2.4.52,2.78.93,3.89ZM36.31,343.06c-.39-1.99-.54-2.07-2.46-2.75-.07.18-.14.36-.2.53.66.77,1.32,1.54,1.98,2.31.23-.03.45-.06.68-.09ZM16.1,185.39c-1.26-.23-2.34-.43-3.7-.68,1.04,2.17,2.38,2.4,3.7.68ZM405.58,306.09v-3.77c-1.79,1.21-1.78,2.33,0,3.77ZM58.87,450.41c.17-.13.34-.26.5-.4-.58-.76-1.17-1.51-1.87-2.43-1.21,2.31-1.1,2.47,1.37,2.82ZM29.74,336.85c.49-.88.99-1.75,1.48-2.63-1.79,0-3.01.91-1.48,2.63ZM76.43,470.89c.79.99,1.48,1.86,2.36,2.96.59-2.39-.24-3.36-2.36-2.96ZM58.76,145.83c1.34.78,2.33.21,3.84-.15-1.02-1.27-2.95-.9-3.84.15ZM50.2,156.65c-.4-.72-.81-1.44-1.21-2.17-1.34,1.54-1.04,2.74,1.21,2.17ZM22.91,281.4c.14.27.29.53.43.8.88-.31,1.77-.62,2.65-.93-1.07-1.68-1.45-.85-3.08.13ZM384.13,358.92c-.14.24-.29.48-.43.72.78.56,1.55,1.12,2.33,1.68.83-1.71-.33-1.62-1.9-2.41ZM374.05,373.49c.19.13.38.26.57.4l2.11-3.01c-.18-.12-.36-.25-.54-.37-1.57.41-1.78,1.76-2.15,2.99ZM383.27,164.38c.58-.73.93-1.16,1.63-2.04-4.09-1.89-1.38.21-1.63,2.04ZM8.02,198.32c-.7-1.12-1.57-1.79-3.16-.6.96.43,1.91.86,2.87,1.28.1-.23.19-.46.29-.69ZM42.04,135.75c1.22,1.14,1.4,1.94,2.6.66-.6-.51-1.21-1.02-1.81-1.53-.26.29-.52.58-.78.87ZM13.25,171.35c.1-.21.2-.42.31-.63-1.03-.46-2.07-.93-3.1-1.39-.09.18-.17.36-.26.53.54,1.39,1.74,1.54,3.05,1.49ZM83.03,480.86c-1.18-.57-2.2-1.06-3.26-1.58.1,2.23,1.05,2.71,3.26,1.58ZM64.33,458.92c.03,1.69,1.01,2.24,3.35,1.58-1.09-.51-2.18-1.03-3.35-1.58ZM26.45,320.67c-.02-.34-.04-.68-.07-1.02-1.11.09-2.22.19-3.33.28l.08.95c1.11-.07,2.21-.14,3.32-.21ZM32.87,377.46c-4.71-2.14-5.2-.85-.21.51.07-.17.14-.34.21-.51ZM29.38,366.99c-1.6-.2-1.55-.22-3.35.32.64,1.74,2.46.66,3.35-.32ZM166.05,15.7c-.77.44-1.53.89-2.61,1.51,1.76,1.22,2.76.23,2.61-1.51ZM202.48,16.67c-1.38-1.06-1.3-1.12-2.57.07,1.17,1.18,1.19.88,2.57-.07ZM30.74,306.65c-1.52-.91-1.49-1.06-2.67.26,1.38,1.17,1.32.96,2.67-.26ZM23.02,255.76c1.1-1.18.83-1.22,0-2.63-1.17,1.37-1.19,1.27,0,2.63ZM30.43,352.12c.19-.87.38-1.74.58-2.61-1.63.11-2.19,1.56-.58,2.61ZM20.54,157.65c-.06-.32-.13-.64-.19-.96-.82.11-1.64.21-2.45.32.5,1.64,1.06,1.03,2.64.65ZM15.15,293.04c-1.3-.26-2.22-.44-3.41-.68,1.17,2.3,1.76,2.45,3.41.68ZM300.76,19.2c1.3.14,2.29.79,2.55-.66-.8-.12-1.6-.24-2.39-.36-.05.34-.1.68-.15,1.02ZM26.69,341.6c-.19-1.03-.29-1.61-.47-2.57-.43.18-1.03.42-1.63.66.64,1.32.88,1.3,2.1,1.91ZM31.92,408.92c.44.5.87,1.01,1.31,1.51.21-.07.42-.14.63-.2.06-.68.13-1.36.19-2.04-.67.03-1.33.06-2,.09-.05.21-.09.43-.14.64ZM25.47,262.46c1.48.48,1.74.87,2.57-.44-.75-.16-1.5-.33-2.24-.49-.11.31-.22.62-.33.94ZM65.52,426.91c-1.48-.86-1.56-.64-2.96.37.08.16.16.31.24.47.86-.06,1.73-.12,2.59-.17.05-.22.09-.45.14-.67ZM204.34,2.54c-.09-.35-.19-.71-.28-1.06-1.35.39-2.25.17-1.97,1.65.75-.19,1.5-.39,2.25-.58ZM99.87,494.39c-.02.24-.04.49-.06.73,1.7.39,1.85.51,2.96-.81-.11-.14-.23-.27-.34-.41l-2.56.49ZM256.46,14.24c-1.1.52-2.03.96-2.95,1.4q3.13.46,2.95-1.4ZM17.98,173.12c.02-.32.03-.65.05-.97-.87-.04-1.74-.08-2.6-.12.14,1.46,1.22,1.01,2.55,1.1ZM.47,267.03c1.09.49,1.92.86,2.98,1.33-.31-2.14-.88-2.39-2.98-1.33ZM235.69,2.65c-.1-.27-.19-.54-.29-.82-.7.18-1.4.35-2.11.53.69,1.48.96.95,2.39.29ZM.59,259.81c.07.16.14.32.21.48,1.69,0,1.58-.1,1.85-1.78-.2-.1-.4-.2-.6-.3-.48.53-.97,1.06-1.45,1.59ZM262.07,14.29c.99.42,1.71.72,2.66,1.12,0-2.05-.39-2.21-2.66-1.12ZM32.29,386.7c1.15.69,1.17.58,2.21-.28-.27-.3-.54-.61-1-1.12-.52.61-.87,1.01-1.21,1.41ZM37.24,380.63c.72.68,1.43,1.36,2.15,2.04.16-.16.31-.31.47-.47.09-1.48-1.25-1.55-2.17-2.03-.15.15-.3.31-.45.46ZM36.3,141.6c.05-.35.1-.69.15-1.04-.75-.11-1.51-.23-2.26-.34-.19,1.55.69,1.18,2.11,1.38ZM12.27,168.32c-.35-.76-.71-1.51-1.06-2.27-.31.19-.63.37-.94.56.47.68.93,1.36,1.4,2.04.2-.11.4-.22.6-.33ZM387.93,365.62c2.29-1.37-.53-2.4-1.54-2.72.72,1.27,1.12,1.98,1.54,2.72ZM351.65,414.82c1.06.23,1.6.35,2.32.51v-2.22c-.15-.1-.29-.21-.44-.31-.51.55-1.03,1.11-1.88,2.02ZM58.17,135.53c-.69-.2-1.37-.41-2.06-.61-.09.36-.19.71-.28,1.07.7.17,1.39.34,2.09.51.08-.32.17-.65.25-.97ZM17.95,202.48v2.5c.36,0,.72-.01,1.08-.02-.09-1.28.35-2.38-1.08-2.48ZM6.06,207.86c-.16-1.05-.25-1.64-.34-2.22-.62.2-1.23.4-1.85.59.02.18.05.36.07.54.54.28,1.07.55,2.12,1.09ZM13.83,311.97c.51-.38,1.01-.75,1.52-1.13l-.49-.83c-.55.27-1.1.54-1.65.81.21.38.41.76.62,1.14ZM28.72,122.99c-.69-.34-1.38-.67-2.07-1.01-.14.31-.28.62-.41.93,1.05.37,1.84,1.14,2.48.07ZM393.84,211.2c.33.06.66.13.98.19.12-.72.24-1.44.35-2.16-.3-.05-.59-.11-.89-.16-.15.71-.3,1.43-.45,2.14ZM80.53,475.15c0,.24.01.48.02.73.97-.06,1.94-.13,2.91-.19,0-.18,0-.36,0-.54h-2.93ZM46.67,375.86c1.02.63,1.86,1.14,2.91,1.78q-1.38-2.66-2.91-1.78ZM35.66,324.85c-1.22.42-2.26.78-3.29,1.13,2.37.46,2.81.3,3.29-1.13ZM45.47,375.37c-.27.12-.54.23-.82.35.34.81.68,1.63,1.03,2.44l.79-.37c-.33-.81-.67-1.61-1-2.42ZM318.92,436.99c.45,1.23,1.6.68,2.78.63-.02-.19-.03-.38-.05-.58-.91-.36-1.82-.38-2.73-.05ZM199.97,7.84c-.66-.3-1.33-.6-1.99-.9-.13.27-.27.54-.4.82.65.34,1.29.68,1.94,1.03.15-.31.3-.63.46-.94ZM68.4,463.37c.7-.11,1.41-.23,2.11-.34l-.15-1.02c-1.07.31-1.98.16-1.96,1.36ZM11,291.68c.89-1.22,1.21-1.25.22-2.37-1.07,1.06-.95,1.04-.22,2.37ZM22.13,382.62c.07.13.14.26.21.39,1.88-.52,1.79-.43,1.42-2.35-.77.91-1.2,1.43-1.63,1.95ZM339.13,429.31c.11.26.23.53.34.79.81-.36,1.61-.72,2.42-1.08-.11-.25-.22-.51-.33-.76-.81.35-1.62.7-2.43,1.04ZM134.71,30.86l-.04-.62h-2.5c.03.27.07.54.1.8.81-.06,1.62-.12,2.44-.18ZM25.04,358.82c-.54-.51-.84-.8-1.15-1.09-1.36,1.43-.29,2.04,1.15,1.09ZM34.41,177.06q0,2.66,1.31,2.37c-.45-.81-.88-1.59-1.31-2.37ZM390.3,386.59c.16.03.32.07.48.1.21-.82.43-1.65.64-2.47-1.81.37-1.32,1.41-1.12,2.37ZM40.69,403.6c-.63-.54-1.03-.88-1.43-1.22-1.05,1.27.14,2.03,1.43,1.22ZM60.62,426.14h-2.66c.84,1.51,1.14,1.54,2.66,0ZM16.36,286.57c-.65.77-1.09,1.31-1.66,1.99,2.09.28,2.31.04,1.66-1.99ZM31.72,124.78c.19,0,.37,0,.56,0,.24-.6.48-1.19.9-2.25-1.78.55-1.78.42-1.46,2.25ZM41.03,327.4c.98-.1,1.95-.19,2.93-.29-.01-.17-.02-.34-.04-.52h-2.92c0,.27.02.53.03.8ZM15.72,157.82c.18.02.36.05.54.07.58-.7,1.3-1.38-.2-2.8-.15,1.21-.25,1.97-.34,2.73ZM385.53,180.65c.25-.07.5-.13.75-.2-.15-.73-.31-1.46-.46-2.19-.31.08-.62.16-.94.25.22.71.43,1.43.65,2.14ZM388.52,352.63c-.43.52-.86,1.05-1.28,1.57.22.19.44.39.66.58.46-.49.93-.97,1.39-1.46-.25-.23-.51-.46-.76-.69ZM79.19,444.83c-.03-.2-.05-.39-.08-.59-.64-.17-1.29-.35-1.93-.52l-.3.32c.86,1.15.91,1.13,2.31.79ZM17.8,184.65c-1.02,1.25-.81.98.01,2.02.89-1.12,1.07-1.08-.01-2.02ZM393.44,190.18c-.31-.09-.61-.18-.92-.27-.15.64-.3,1.28-.45,1.91.23.07.47.14.7.21.22-.62.44-1.23.66-1.85ZM32.91,202.59c.65.34,1.3.68,1.95,1.02.14-.29.27-.58.41-.87-.66-.31-1.32-.62-1.98-.92-.13.26-.25.51-.38.77ZM6.48,203.09c-.61-.33-1.23-.66-1.84-.98-.13.25-.26.49-.38.74.98.49,1.61,1.32,2.23.25ZM20.25,206.29c.04.29.07.57.11.86.82-.12,1.63-.24,2.45-.35-.04-.26-.08-.53-.12-.79l-2.44.28ZM342.39,427.98c.26.19.51.37.77.56.41-.6.82-1.21,1.23-1.81-.24-.17-.47-.34-.71-.5-.43.59-.86,1.17-1.29,1.76ZM343.6,221.44c.67-.07,1.09-.12,1.96-.21-.82.9-1.34,1.48-1.83,2.01,1.97,3.15,1.37,2.62.39,5.48-.49-.31-1.44-1.17-2.08-1.07-.14,2.4.55,5.52,1.37,5.79.12-1.15.24-2.28.38-3.6,2.4.81,1.32,2.23.89,3.6,1.27.75,8.53,2.35,6.5-.67-.46-.68-2.08-.52-2.51-1.63-.41-1.07.65-2.76,1-3.79-.88-.19-1.51-.33-2.25-.49,2.49-3.51.31-3.14-1.29-5.81-.75-1.25-.61-2.69-1.01-4.05-.6-2.02-1.27-2.71-2.59-4.26-.27.17-.55.33-.82.5,1.17,3,1.89,4.94,1.89,8.19ZM347.95,238.45c1.68,2.62,3.39,6.49,7.25,5.51-.74-.34-1.49-.68-2.19-1,.61-1.46,1.19-2.82,1.76-4.19-3.54,1.21-2.71.5-2.71-3.73-1.64,1.03-2.79,1.99-4.11,3.4ZM189.61,423.77c.28-2.85-2.29-2.24-3.24-3.02.22-1.49.4-2.71.66-4.43-1.04.48-1.78.83-2.66,1.23.49.71.78,1.13,1.01,1.47-.64.52-1.13.91-1.61,1.31,1.66,1.73,3.5,2.76,5.84,3.44ZM151.61,409.27c.07.2.14.39.21.59,4.5-.97,8.42-2.18,12.64-4-3.96-.3-9.28,1.82-12.86,3.4ZM164.46,405.87s.04,0,.06,0c0,0,0,0,0-.01,0,0,0-.01,0-.01-.02,0-.03.01-.05.02ZM200.3,75.16c1.45,2,5.79.62,8.12.43-.06-.12-.11-.24-.17-.36-3.07-.71-5.28-1.89-7.95-.07ZM341.26,218.63c-.21.08-.42.16-.63.24.11,2.23-.5,5.96,1.79,7.18.74-2.32-.09-5.32-1.16-7.42ZM170.95,417.87c-2.53,4.31,3.37,3.59.81-.03-.27.01-.54.02-.81.03ZM341.6,208.1c-1.42,1.75-2.03,5.17-1.12,6.22,2.02-4.56,2.11-5.08,1.12-6.22ZM276.32,318.02c.24,1.3.49,2.59.74,3.94,2.45-.76.59-2.64,1.72-3.53-.08-.18-.16-.37-.24-.55-.74.05-1.48.09-2.22.14ZM169.14,85.16c2.23.17,2.36-.27,4.34-1.09-.51-.4-1.02-.8-1.46-1.15-1.61.6-2.06.75-2.88,2.23ZM358.38,270.27c-1.7-1.62-2.49,3.73-2.77,4.72.11.1.23.2.34.31,1.27-1.68,1.81-3.01,2.43-5.03ZM164.52,405.86s0,.01,0,.01c0,0,0-.01,0-.02,0,0-.02,0-.03,0,0,0,0,0,0,.01ZM164.54,405.85c2.81.29,4.95-1.2,7.29-2.62-.93-.34-6.9,1.64-7.29,2.62ZM352.68,247.74h-4.99c.89,2.02,3.49,1.87,4.99,0ZM132.27,429.66s-.03-.02-.04-.03c0,0,0,0,0,0h0s-.01,0-.02,0c0,0,0,0,0,0,.02,0,.04,0,.06,0ZM137.09,430.16c-1.61-.17-3.21-.34-4.82-.51,1.73,1.01,4.43,3.65,4.82.51ZM149.8,409.72c-2.07.46-3.97.89-5.86,1.32,1.86.97,4.68.15,5.86-1.32ZM357.45,283.19c-.35-.19-.7-.39-1.44-.8.75-.38,1.26-.64,2.01-1.01-2.97-1.16-2.2,1.42-3.61,2.21h3c.02-.13.03-.26.05-.4ZM323.65,183.43c.75,1.08,1.41,2.01,2.24,3.2,0-1.63.23-5.99-2.24-3.2ZM300.04,132.95c.28-1.46.44-2.33.6-3.19-.14-.12-.27-.24-.41-.36-1.75,1.79-1.81,1.66-.19,3.56ZM276.31,315.11c-1.23.79-2.46.89-1.66,2.31.75-.44,1.5-.88,2.26-1.32-.2-.33-.4-.66-.59-.99ZM137.34,412.42c.05.22.1.44.16.66,1.75-.42,3.5-.84,5.25-1.26-.05-.21-.1-.42-.15-.63-1.75.41-3.51.82-5.26,1.22ZM312.24,128.58c.56,1.09.9,1.74,1.24,2.4.6-.43,1.21-.87,1.81-1.3-.06-.16-.13-.33-.19-.49-.76-.16-1.53-.32-2.86-.6ZM349.16,257.44c.16.27.33.54.49.81,1.03-.63,2.05-1.25,3.08-1.88-.13-.23-.27-.45-.4-.68-1.06.58-2.11,1.16-3.17,1.75ZM319.11,176.29c1.27,1.21,1.22,1.31,2.5.12-.63-.31-1.26-.62-1.89-.93-.2.27-.41.53-.61.8ZM301.36,140.53c.82-.18,1.64-.35,2.46-.53-.05-.35-.1-.71-.14-1.06-1.44.32-2.31.05-2.32,1.59ZM243.91,354.72c-1.26-.48-2.29-.86-3.69-1.39.65,1.79,2.01,2.24,3.69,1.39ZM347.55,271.38c.18,1.29.34,2.36.51,3.57,1.54-1.56,1.49-2.14-.51-3.57ZM331.03,228.12c-.15-.91-.29-1.69-.42-2.47-1.47,1.43-1.34,1.92.42,2.47ZM178.81,420.79c.12.36.24.72.37,1.08.67-.31,1.35-.62,2.02-.93-.12-.27-.25-.54-.37-.81-.67.22-1.35.44-2.02.66ZM350.62,286.54c.25.13.49.26.74.39.44-.84.87-1.69,1.31-2.53-.23-.12-.45-.24-.68-.36-.46.83-.91,1.67-1.37,2.5ZM324.52,220.33c.55.21,1.11.43,1.66.64.14-.28.27-.56.41-.84-.52-.33-1.04-.65-1.56-.98-.17.39-.35.78-.52,1.17ZM151.63,425.25h2.87c0-.21,0-.42.01-.63-.94-.05-1.88-.09-2.82-.14-.02.26-.04.51-.06.77ZM319.32,189.32c.25.06.51.12.76.18.26-.88.53-1.76.79-2.65-.29-.07-.57-.14-.86-.21-.23.9-.47,1.79-.7,2.69ZM317.38,209.95l1.21,1.41c.22-.21.44-.42.66-.64-.33-.48-.67-.97-1-1.45-.29.23-.58.45-.87.68ZM393.16,311.41c.22-.56.44-1.12.66-1.69-.3-.13-.6-.25-.9-.38-.84,1.85-.99,1.44.24,2.07Z"/>
</svg>